<svg width="199" height="41" viewBox="0 0 199 41" fill="none" xmlns="http://www.w3.org/2000/svg">
<g clip-path="url(#clip0_189_3789)">
<g opacity="0.7">
<path fill-rule="evenodd" clip-rule="evenodd" d="M65.5467 12.8363L58.8534 28.903C58.7587 29.1337 58.5307 29.2843 58.2814 29.2843H54.256C54.008 29.2843 53.7787 29.1337 53.684 28.903L46.9934 12.8363C46.8254 12.431 47.1227 11.9803 47.5667 11.9803H51.1387C51.3907 11.9803 51.6187 12.135 51.7147 12.3683L55.912 22.815C56.0414 23.1403 56.4987 23.1403 56.632 22.815L60.828 12.3683C60.9227 12.131 61.1507 11.9803 61.404 11.9803H64.9774C65.4214 11.9803 65.7187 12.431 65.5494 12.8363H65.5467Z" fill="white"/>
<path fill-rule="evenodd" clip-rule="evenodd" d="M72.0063 29.284H68.673C68.3317 29.284 68.0557 29.008 68.0557 28.6653V12.6333C68.0557 12.292 68.3317 12.0146 68.673 12.0146H72.0063C72.3477 12.0146 72.6277 12.292 72.6277 12.6333V28.6653C72.6277 29.008 72.3517 29.284 72.0063 29.284Z" fill="white"/>
<path fill-rule="evenodd" clip-rule="evenodd" d="M70.3422 4.04724C71.8742 4.04724 73.1155 5.28857 73.1155 6.82057C73.1155 8.35257 71.8742 9.59391 70.3422 9.59391C68.8102 9.59391 67.5688 8.35257 67.5688 6.82057C67.5688 5.28857 68.8102 4.04724 70.3422 4.04724Z" fill="white"/>
<path fill-rule="evenodd" clip-rule="evenodd" d="M83.5731 26.1329C85.2717 26.1329 86.2771 25.3716 86.2771 24.4036C86.2771 23.7783 85.8624 23.1569 84.3731 22.8463L80.8411 22.1209C77.7211 21.4649 75.9544 19.6996 75.9544 17.2063C75.9544 13.8836 78.6584 11.4943 83.0251 11.4943C86.8091 11.4943 89.5237 13.3049 90.3757 15.9596C90.4877 16.3076 90.2597 16.6769 89.8984 16.7463L86.7651 17.3689C86.4691 17.4276 86.1584 17.2703 86.0637 16.9836C85.6891 15.8663 84.5531 15.0943 82.8837 15.0943C81.0464 15.0943 80.5304 15.9929 80.5304 16.7889C80.5304 17.3436 80.7357 17.9316 82.0877 18.2423L86.2104 19.1409C89.2597 19.7969 90.7517 21.7036 90.7517 24.0209C90.7517 27.8276 87.6677 29.8023 83.1637 29.8023C79.5797 29.8023 76.2744 28.4863 75.5171 25.3409C75.4331 25.0023 75.6597 24.6636 75.9997 24.5929L79.4211 23.8983C79.7184 23.8356 80.0291 24.0023 80.1264 24.2929C80.5731 25.6623 81.9664 26.1329 83.5784 26.1329H83.5717H83.5731Z" fill="white"/>
<path fill-rule="evenodd" clip-rule="evenodd" d="M97.6109 29.284H94.2776C93.9363 29.284 93.6562 29.008 93.6562 28.6653V12.6333C93.6562 12.292 93.9336 12.0146 94.2776 12.0146H97.6109C97.9523 12.0146 98.2323 12.292 98.2323 12.6333V28.6653C98.2323 29.008 97.9563 29.284 97.6109 29.284Z" fill="white"/>
<path fill-rule="evenodd" clip-rule="evenodd" d="M95.9452 4.04724C97.4772 4.04724 98.7185 5.28857 98.7185 6.82057C98.7185 8.35257 97.4772 9.59391 95.9452 9.59391C94.4132 9.59391 93.1719 8.35257 93.1719 6.82057C93.1719 5.28857 94.4132 4.04724 95.9452 4.04724Z" fill="white"/>
<path fill-rule="evenodd" clip-rule="evenodd" d="M115.389 20.665C115.389 17.4464 112.894 15.5077 110.505 15.5077C108.118 15.5077 105.513 17.4464 105.513 20.665C105.513 23.8837 108.009 25.8224 110.505 25.8224C113.002 25.8224 115.389 23.8837 115.389 20.665ZM119.822 20.665C119.822 26.0984 115.561 29.7344 110.502 29.7344C105.443 29.7344 101.077 26.0997 101.077 20.665C101.077 15.2304 105.338 11.5957 110.502 11.5957C115.665 11.5957 119.822 15.2304 119.822 20.665Z" fill="white"/>
<path fill-rule="evenodd" clip-rule="evenodd" d="M138.79 29.284H135.39C135.048 29.284 134.768 29.008 134.768 28.6653V19.9973C134.768 17.936 133.214 16.136 131.156 15.9973C128.898 15.8466 127.014 17.6373 127.014 19.8613V28.6653C127.014 29.008 126.736 29.284 126.391 29.284H122.991C122.65 29.284 122.37 29.008 122.37 28.6653V20.068C122.37 15.4586 125.948 11.532 130.562 11.356C135.404 11.1706 139.408 15.0586 139.408 19.8546V28.6586C139.408 29.0013 139.131 29.2773 138.787 29.2773L138.79 29.284Z" fill="white"/>
<path fill-rule="evenodd" clip-rule="evenodd" d="M146.852 29.284H143.519C143.177 29.284 142.897 29.008 142.897 28.6653V7.44264C142.897 7.09997 143.175 6.82397 143.519 6.82397H146.852C147.193 6.82397 147.473 7.09997 147.473 7.44264V28.6653C147.473 29.008 147.196 29.284 146.852 29.284Z" fill="white"/>
<path fill-rule="evenodd" clip-rule="evenodd" d="M155.652 29.284H152.319C151.978 29.284 151.698 29.008 151.698 28.6653V12.6333C151.698 12.292 151.975 12.0146 152.319 12.0146H155.652C155.994 12.0146 156.271 12.292 156.271 12.6333V28.6653C156.271 29.008 155.994 29.284 155.652 29.284Z" fill="white"/>
<path fill-rule="evenodd" clip-rule="evenodd" d="M153.984 4.04724C155.516 4.04724 156.757 5.28857 156.757 6.82057C156.757 8.35257 155.516 9.59391 153.984 9.59391C152.452 9.59391 151.21 8.35257 151.21 6.82057C151.21 5.28857 152.452 4.04724 153.984 4.04724Z" fill="white"/>
<path fill-rule="evenodd" clip-rule="evenodd" d="M176.87 29.284H173.47C173.128 29.284 172.848 29.008 172.848 28.6653V19.9973C172.848 17.936 171.294 16.136 169.236 15.9973C166.978 15.8466 165.094 17.6373 165.094 19.8613V28.6653C165.094 29.008 164.816 29.284 164.475 29.284H161.075C160.732 29.284 160.454 29.008 160.454 28.6653V20.068C160.454 15.4586 164.031 11.532 168.646 11.356C173.488 11.1706 177.491 15.0586 177.491 19.8546V28.6586C177.491 29.0013 177.215 29.2773 176.872 29.2773L176.87 29.284Z" fill="white"/>
<path fill-rule="evenodd" clip-rule="evenodd" d="M197.094 28.2189L189.22 20.5602C189.062 20.4096 189.062 20.1589 189.22 20.0056L196.221 13.0736C196.614 12.6856 196.337 12.0149 195.784 12.0149H191.801C191.633 12.0149 191.466 12.0816 191.354 12.2069L186.222 17.5789C185.982 17.8309 185.556 17.6629 185.556 17.3149V7.44289C185.556 7.10022 185.278 6.82422 184.937 6.82422H181.604C181.262 6.82422 180.982 7.10022 180.982 7.44289V28.6656C180.982 29.0069 181.258 29.2842 181.604 29.2842H184.937C185.278 29.2842 185.556 29.0069 185.556 28.6656V23.2336C185.556 22.8842 185.985 22.7136 186.226 22.9682L191.906 29.0829C192.022 29.2082 192.189 29.2789 192.361 29.2789H196.662C197.218 29.2789 197.493 28.6016 197.096 28.2136L197.094 28.2189Z" fill="white"/>
<path fill-rule="evenodd" clip-rule="evenodd" d="M10.4876 16.2918C8.16756 10.7291 10.6382 4.36778 16.0049 1.77978C13.4662 0.891776 10.6022 0.901109 7.92489 2.01311C2.28622 4.35444 -0.448441 10.7278 1.67289 16.3931C1.76223 16.6304 1.99423 16.7878 2.25156 16.7878H10.1609C10.4156 16.7878 10.5876 16.5291 10.4862 16.2944L10.4876 16.2918Z" fill="white"/>
<mask id="mask0_189_3789" style="mask-type:luminance" maskUnits="userSpaceOnUse" x="16" y="0" width="21" height="21">
<g opacity="0.7">
<path d="M16.0005 0.649414H36.5354V20.4249H16.0005V0.649414Z" fill="white"/>
</g>
</mask>
<g mask="url(#mask0_189_3789)">
<path fill-rule="evenodd" clip-rule="evenodd" d="M22.7138 8.10519L27.6885 20.0439C27.7845 20.2745 28.0112 20.4252 28.2618 20.4252H36.1792C36.4338 20.4252 36.6058 20.1665 36.5072 19.9319L31.3725 7.61052C28.9725 1.84652 22.3512 -0.878812 16.5805 1.52119C16.3832 1.60519 16.1925 1.69052 16.0005 1.77985C18.9285 2.80385 21.4232 5.01852 22.7085 8.10385L22.7138 8.10519Z" fill="white"/>
</g>
<path fill-rule="evenodd" clip-rule="evenodd" d="M17.5293 33.1959L12.5546 21.2572C12.4586 21.0265 12.232 20.8759 11.9813 20.8759H4.06531C3.81064 20.8759 3.63864 21.1345 3.73997 21.3692L8.87597 33.6905C11.276 39.4505 17.8973 42.1759 23.668 39.7799C23.864 39.6959 24.056 39.6105 24.2466 39.5212C21.32 38.4972 18.8253 36.2825 17.5386 33.1972H17.532H17.5293V33.1959Z" fill="white"/>
<path fill-rule="evenodd" clip-rule="evenodd" d="M29.7573 25.0039C32.0773 30.5666 29.6066 36.9279 24.2373 39.5159C26.776 40.4066 29.6413 40.3959 32.3173 39.2826C37.956 36.9413 40.6906 30.5679 38.5706 24.9026C38.4813 24.6653 38.248 24.5079 37.992 24.5079H30.0826C29.828 24.5079 29.656 24.7666 29.7573 25.0013V25.0039Z" fill="white"/>
<path fill-rule="evenodd" clip-rule="evenodd" d="M20.1211 24.5442C22.2744 24.5442 24.0171 22.8002 24.0171 20.6482C24.0171 18.4975 22.2731 16.7535 20.1211 16.7535C17.9691 16.7535 16.2251 18.4975 16.2251 20.6482C16.2251 22.8002 17.9691 24.5442 20.1211 24.5442Z" fill="white"/>
</g>
</g>
<defs>
<clipPath id="clip0_189_3789">
<rect width="197.333" height="40" fill="white" transform="translate(0.956055 0.649414)"/>
</clipPath>
</defs>
</svg>
