<svg width="60" height="12" viewBox="0 0 60 12" fill="none" xmlns="http://www.w3.org/2000/svg">
<mask id="mask0_134_3479" style="mask-type:alpha" maskUnits="userSpaceOnUse" x="0" y="0" width="12" height="12">
<rect width="12" height="12" fill="#FCD14F"/>
</mask>
<g mask="url(#mask0_134_3479)">
<path d="M4.425 8.4125L6 7.4625L7.575 8.425L7.1625 6.625L8.55 5.425L6.725 5.2625L6 3.5625L5.275 5.25L3.45 5.4125L4.8375 6.625L4.425 8.4125ZM2.9125 10.5L3.725 6.9875L1 4.625L4.6 4.3125L6 1L7.4 4.3125L11 4.625L8.275 6.9875L9.0875 10.5L6 8.6375L2.9125 10.5Z" fill="#FCD14F"/>
<path d="M4.425 8.4125L6 7.4625L7.575 8.425L7.1625 6.625L8.55 5.425L6.725 5.2625L6 3.5625L5.275 5.25L3.45 5.4125L4.8375 6.625L4.425 8.4125Z" fill="#FCD14F"/>
</g>
<mask id="mask1_134_3479" style="mask-type:alpha" maskUnits="userSpaceOnUse" x="12" y="0" width="12" height="12">
<rect x="12" width="12" height="12" fill="#FCD14F"/>
</mask>
<g mask="url(#mask1_134_3479)">
<path d="M16.425 8.4125L18 7.4625L19.575 8.425L19.1625 6.625L20.55 5.425L18.725 5.2625L18 3.5625L17.275 5.25L15.45 5.4125L16.8375 6.625L16.425 8.4125ZM14.9125 10.5L15.725 6.9875L13 4.625L16.6 4.3125L18 1L19.4 4.3125L23 4.625L20.275 6.9875L21.0875 10.5L18 8.6375L14.9125 10.5Z" fill="#FCD14F"/>
<path d="M16.425 8.4125L18 7.4625L19.575 8.425L19.1625 6.625L20.55 5.425L18.725 5.2625L18 3.5625L17.275 5.25L15.45 5.4125L16.8375 6.625L16.425 8.4125Z" fill="#FCD14F"/>
</g>
<mask id="mask2_134_3479" style="mask-type:alpha" maskUnits="userSpaceOnUse" x="24" y="0" width="12" height="12">
<rect x="24" width="12" height="12" fill="#FCD14F"/>
</mask>
<g mask="url(#mask2_134_3479)">
<path d="M28.425 8.4125L30 7.4625L31.575 8.425L31.1625 6.625L32.55 5.425L30.725 5.2625L30 3.5625L29.275 5.25L27.45 5.4125L28.8375 6.625L28.425 8.4125ZM26.9125 10.5L27.725 6.9875L25 4.625L28.6 4.3125L30 1L31.4 4.3125L35 4.625L32.275 6.9875L33.0875 10.5L30 8.6375L26.9125 10.5Z" fill="#FCD14F"/>
<path d="M28.425 8.4125L30 7.4625L31.575 8.425L31.1625 6.625L32.55 5.425L30.725 5.2625L30 3.5625L29.275 5.25L27.45 5.4125L28.8375 6.625L28.425 8.4125Z" fill="#FCD14F"/>
</g>
<mask id="mask3_134_3479" style="mask-type:alpha" maskUnits="userSpaceOnUse" x="36" y="0" width="12" height="12">
<rect x="36" width="12" height="12" fill="#FCD14F"/>
</mask>
<g mask="url(#mask3_134_3479)">
<path d="M40.425 8.4125L42 7.4625L43.575 8.425L43.1625 6.625L44.55 5.425L42.725 5.2625L42 3.5625L41.275 5.25L39.45 5.4125L40.8375 6.625L40.425 8.4125ZM38.9125 10.5L39.725 6.9875L37 4.625L40.6 4.3125L42 1L43.4 4.3125L47 4.625L44.275 6.9875L45.0875 10.5L42 8.6375L38.9125 10.5Z" fill="#FCD14F"/>
<path d="M40.425 8.4125L42 7.4625L43.575 8.425L43.1625 6.625L44.55 5.425L42.725 5.2625L42 3.5625L41.275 5.25L39.45 5.4125L40.8375 6.625L40.425 8.4125Z" fill="#FCD14F"/>
</g>
<mask id="mask4_134_3479" style="mask-type:alpha" maskUnits="userSpaceOnUse" x="48" y="0" width="12" height="12">
<rect x="48" width="12" height="12" fill="#CBCBCB"/>
</mask>
<g mask="url(#mask4_134_3479)">
<path d="M52.425 8.4125L54 7.4625L55.575 8.425L55.1625 6.625L56.55 5.425L54.725 5.2625L54 3.5625L53.275 5.25L51.45 5.4125L52.8375 6.625L52.425 8.4125ZM50.9125 10.5L51.725 6.9875L49 4.625L52.6 4.3125L54 1L55.4 4.3125L59 4.625L56.275 6.9875L57.0875 10.5L54 8.6375L50.9125 10.5Z" fill="#CBCBCB"/>
<path d="M52.425 8.4125L54 7.4625L55.575 8.425L55.1625 6.625L56.55 5.425L54.725 5.2625L54 3.5625L53.275 5.25L51.45 5.4125L52.8375 6.625L52.425 8.4125Z" fill="#CBCBCB"/>
</g>
</svg>
