<svg width="74" height="41" viewBox="0 0 74 41" fill="none" xmlns="http://www.w3.org/2000/svg">
<g opacity="0.7">
<path fill-rule="evenodd" clip-rule="evenodd" d="M27.9891 23.0496C27.9891 26.0871 25.9384 27.9704 22.8608 27.9704C19.7843 27.9704 17.7326 26.1089 17.7326 23.0496V10.6166H12.9243V23.3161C12.9243 28.6133 16.8443 32.3591 22.8832 32.3591C28.9232 32.3591 32.8432 28.6133 32.8432 23.3161V10.6166H28.0115L27.9891 23.0496Z" fill="white"/>
<mask id="mask0_189_3150" style="mask-type:luminance" maskUnits="userSpaceOnUse" x="36" y="10" width="24" height="31">
<g opacity="0.7">
<path d="M36.9692 10.1729H59.167V40.2049H36.9692V10.1729Z" fill="white"/>
</g>
</mask>
<g mask="url(#mask0_189_3150)">
<path fill-rule="evenodd" clip-rule="evenodd" d="M47.681 28.1032C44.9468 28.1032 42.941 26.8183 41.7999 25.1114V17.3979C42.941 15.7366 44.8317 14.4506 47.681 14.4506C51.5317 14.4506 54.2222 17.5089 54.2222 21.2764C54.2222 25.045 51.5317 28.1032 47.681 28.1032ZM48.2046 10.1729C45.6069 10.1729 43.3281 11.0149 41.7999 12.5663V10.6167H36.9692V40.2054H41.7999V29.9211C43.3281 31.4954 45.6069 32.3592 48.2046 32.3592C54.7458 32.3592 59.167 27.2829 59.167 21.2764C59.167 15.2699 54.7458 10.1946 48.2046 10.1729Z" fill="white"/>
</g>
<mask id="mask1_189_3150" style="mask-type:luminance" maskUnits="userSpaceOnUse" x="0" y="0" width="12" height="33">
<g opacity="0.7">
<path d="M0.548828 0.797485H11.5341V32.3586H0.548828V0.797485Z" fill="white"/>
</g>
</mask>
<g mask="url(#mask1_189_3150)">
<path fill-rule="evenodd" clip-rule="evenodd" d="M10.1212 27.3943C9.46008 27.7707 8.70828 27.9708 7.95648 27.9708C6.29186 27.9708 5.38118 26.995 5.38118 25.0225V0.797363H0.54834V25.5991C0.54834 29.8095 3.12365 32.3585 7.24947 32.3585C8.77653 32.3368 10.2577 31.9157 11.5342 31.14L10.1212 27.3943Z" fill="white"/>
</g>
<mask id="mask2_189_3150" style="mask-type:luminance" maskUnits="userSpaceOnUse" x="62" y="0" width="12" height="33">
<g opacity="0.7">
<path d="M62.54 0.797485H73.5256V32.3586H62.54V0.797485Z" fill="white"/>
</g>
</mask>
<g mask="url(#mask2_189_3150)">
<path fill-rule="evenodd" clip-rule="evenodd" d="M72.1129 27.3944C71.4518 27.7708 70.7 27.971 69.9482 27.971C68.2836 27.971 67.3729 26.9951 67.3729 25.0227V0.797485H62.54V25.5993C62.54 29.8096 65.1153 32.3587 69.2412 32.3587C70.7682 32.3369 72.2494 31.9159 73.5259 31.1402L72.1129 27.3944Z" fill="white"/>
</g>
</g>
</svg>
