<svg width="191" height="129" viewBox="0 0 191 129" fill="none" xmlns="http://www.w3.org/2000/svg">
<g filter="url(#filter0_b_134_4072)">
<rect width="191" height="129" rx="12" fill="black" fill-opacity="0.15"/>
<mask id="mask0_134_4072" style="mask-type:alpha" maskUnits="userSpaceOnUse" x="19" y="22" width="18" height="18">
<path d="M19 22H37V40H19V22Z" fill="#D9D9D9"/>
</mask>
<g mask="url(#mask0_134_4072)">
<path d="M31 37V31.75H34V37H31ZM26.5 37V25H29.5V37H26.5ZM22 37V28.75H25V37H22Z" fill="white"/>
</g>
<path d="M140 31.4999C140 33.489 139.21 35.3967 137.803 36.8032C136.397 38.2097 134.489 38.9999 132.5 38.9999C130.511 38.9999 128.603 38.2097 127.197 36.8032C125.79 35.3967 125 33.489 125 31.4999H126.246C126.246 33.1587 126.905 34.7495 128.078 35.9224C129.25 37.0953 130.841 37.7542 132.5 37.7542C134.159 37.7542 135.75 37.0953 136.922 35.9224C138.095 34.7495 138.754 33.1587 138.754 31.4999H140Z" fill="#C4CACD" fill-opacity="0.8"/>
<path d="M132.862 24.0086C134.849 24.1046 136.716 24.9859 138.053 26.4586C139.39 27.9314 140.087 29.8749 139.991 31.8617L138.747 31.8016C138.827 30.1448 138.246 28.5241 137.131 27.2959C136.016 26.0678 134.459 25.3328 132.802 25.2528L132.862 24.0086Z" fill="white" fill-opacity="0.8"/>
<path d="M125 31.4999C125 30.3572 125.262 29.2295 125.764 28.2031C126.266 27.1767 126.996 26.2786 127.899 25.5775L128.663 26.5612C127.911 27.1458 127.302 27.8947 126.883 28.7507C126.464 29.6066 126.246 30.547 126.246 31.4999H125Z" fill="white" fill-opacity="0.8"/>
<path d="M127.899 25.5775C129.384 24.4236 131.248 23.8699 133.122 24.0259L133.019 25.2673C131.456 25.1372 129.902 25.599 128.663 26.5612L127.899 25.5775Z" fill="#C4CACD" fill-opacity="0.8"/>
<mask id="mask1_134_4072" style="mask-type:alpha" maskUnits="userSpaceOnUse" x="154" y="22" width="18" height="18">
<path d="M154 22H172V40H154V22Z" fill="#D9D9D9"/>
</mask>
<g mask="url(#mask1_134_4072)">
<path fill-rule="evenodd" clip-rule="evenodd" d="M160.075 37.9094C160.987 38.3031 161.963 38.5 163 38.5C164.038 38.5 165.012 38.3031 165.925 37.9094C166.838 37.5156 167.631 36.9813 168.306 36.3063C168.981 35.6313 169.516 34.8375 169.909 33.925C170.303 33.0125 170.5 32.0375 170.5 31C170.5 29.9625 170.303 28.9875 169.909 28.075C169.516 27.1625 168.981 26.3687 168.306 25.6937C167.631 25.0187 166.838 24.4844 165.925 24.0906C165.012 23.6969 164.038 23.5 163 23.5C161.963 23.5 160.987 23.6969 160.075 24.0906C159.162 24.4844 158.369 25.0187 157.694 25.6937C157.019 26.3687 156.484 27.1625 156.091 28.075C155.697 28.9875 155.5 29.9625 155.5 31C155.5 32.0375 155.697 33.0125 156.091 33.925C156.484 34.8375 157.019 35.6313 157.694 36.3063C158.369 36.9813 159.162 37.5156 160.075 37.9094ZM167.256 35.2563C166.094 36.4188 164.675 37 163 37C161.325 37 159.906 36.4188 158.744 35.2563C157.581 34.0938 157 32.675 157 31C157 29.325 157.581 27.9062 158.744 26.7438C159.906 25.5813 161.325 25 163 25C164.675 25 166.094 25.5813 167.256 26.7438C168.419 27.9062 169 29.325 169 31C169 32.675 168.419 34.0938 167.256 35.2563Z" fill="#C4CACD" fill-opacity="0.8"/>
<path fill-rule="evenodd" clip-rule="evenodd" d="M163 37C164.675 37 166.094 36.4188 167.256 35.2563C168.419 34.0938 169 32.675 169 31C169 29.325 168.419 27.9062 167.256 26.7438C166.094 25.5813 164.675 25 163 25C161.325 25 159.906 25.5813 158.744 26.7438C157.581 27.9062 157 29.325 157 31C157 32.675 157.581 34.0938 158.744 35.2563C159.906 36.4188 161.325 37 163 37ZM163.75 34.75H162.25V31.75H159.25V30.25H162.25V27.25H163.75V30.25H166.75V31.75H163.75V34.75Z" fill="#C4CACD" fill-opacity="0.8"/>
</g>
<path d="M65.8544 65.778C65.6811 65.05 65.3777 64.504 64.9444 64.14C64.5284 63.776 63.9217 63.594 63.1244 63.594C61.9284 63.594 61.0444 64.0793 60.4724 65.05C59.9177 66.0033 59.6317 67.5633 59.6144 69.73C60.0304 69.0367 60.6371 68.4993 61.4344 68.118C62.2317 67.7193 63.0984 67.52 64.0344 67.52C65.1611 67.52 66.1577 67.7627 67.0244 68.248C67.8911 68.7333 68.567 69.444 69.0524 70.38C69.5377 71.2987 69.7804 72.408 69.7804 73.708C69.7804 74.9387 69.5291 76.0393 69.0264 77.01C68.5411 77.9633 67.8217 78.7087 66.8684 79.246C65.9151 79.7833 64.7797 80.052 63.4624 80.052C61.6597 80.052 60.2384 79.6533 59.1984 78.856C58.1757 78.0587 57.4564 76.9493 57.0404 75.528C56.6417 74.0893 56.4424 72.3213 56.4424 70.224C56.4424 67.052 56.9884 64.66 58.0804 63.048C59.1724 61.4187 60.897 60.604 63.2544 60.604C65.0744 60.604 66.4871 61.098 67.4924 62.086C68.4977 63.074 69.0784 64.3047 69.2344 65.778H65.8544ZM63.2024 70.51C62.2837 70.51 61.5124 70.7787 60.8884 71.316C60.2644 71.8533 59.9524 72.6333 59.9524 73.656C59.9524 74.6787 60.2384 75.4847 60.8104 76.074C61.3997 76.6633 62.2231 76.958 63.2804 76.958C64.2164 76.958 64.953 76.672 65.4904 76.1C66.045 75.528 66.3224 74.7567 66.3224 73.786C66.3224 72.7807 66.0537 71.9833 65.5164 71.394C64.9964 70.8047 64.2251 70.51 63.2024 70.51Z" fill="white"/>
<path d="M39.2178 70.2759C39.2178 67.2772 39.7551 64.9286 40.8298 63.2299C41.9218 61.5312 43.7244 60.6819 46.2378 60.6819C48.7511 60.6819 50.5451 61.5312 51.6198 63.2299C52.7118 64.9286 53.2578 67.2772 53.2578 70.2759C53.2578 73.2919 52.7118 75.6579 51.6198 77.3739C50.5451 79.0899 48.7511 79.9479 46.2378 79.9479C43.7244 79.9479 41.9218 79.0899 40.8298 77.3739C39.7551 75.6579 39.2178 73.2919 39.2178 70.2759ZM49.6698 70.2759C49.6698 68.9932 49.5831 67.9186 49.4098 67.0519C49.2538 66.1679 48.9244 65.4486 48.4218 64.8939C47.9364 64.3392 47.2084 64.0619 46.2378 64.0619C45.2671 64.0619 44.5304 64.3392 44.0278 64.8939C43.5424 65.4486 43.2131 66.1679 43.0398 67.0519C42.8838 67.9186 42.8058 68.9932 42.8058 70.2759C42.8058 71.5932 42.8838 72.7026 43.0398 73.6039C43.1958 74.4879 43.5251 75.2072 44.0278 75.7619C44.5304 76.2992 45.2671 76.5679 46.2378 76.5679C47.2084 76.5679 47.9451 76.2992 48.4478 75.7619C48.9504 75.2072 49.2798 74.4879 49.4358 73.6039C49.5918 72.7026 49.6698 71.5932 49.6698 70.2759Z" fill="white"/>
<path d="M29.3555 64.3999V61.0459H35.6215V79.9999H31.8775V64.3999H29.3555Z" fill="white"/>
<path d="M19.9355 64.3999V61.0459H26.2015V79.9999H22.4575V64.3999H19.9355Z" fill="white"/>
<path d="M131.818 103.36C131.818 102.669 131.958 102.039 132.238 101.47C132.528 100.891 132.92 100.429 133.414 100.084C133.918 99.7387 134.492 99.566 135.136 99.566C135.724 99.566 136.252 99.72 136.718 100.028C137.185 100.336 137.549 100.709 137.81 101.148V96.78H139.042V105.6C139.042 105.749 139.07 105.861 139.126 105.936C139.192 106.001 139.294 106.039 139.434 106.048V107C139.201 107.037 139.019 107.056 138.888 107.056C138.646 107.056 138.431 106.972 138.244 106.804C138.067 106.636 137.978 106.449 137.978 106.244V105.628C137.689 106.095 137.302 106.463 136.816 106.734C136.331 107.005 135.827 107.14 135.304 107.14C134.8 107.14 134.334 107.042 133.904 106.846C133.484 106.641 133.116 106.361 132.798 106.006C132.49 105.651 132.248 105.25 132.07 104.802C131.902 104.345 131.818 103.864 131.818 103.36ZM137.81 104.438V102.338C137.698 102.021 137.516 101.736 137.264 101.484C137.012 101.223 136.728 101.017 136.41 100.868C136.102 100.709 135.794 100.63 135.486 100.63C135.122 100.63 134.791 100.709 134.492 100.868C134.203 101.017 133.951 101.223 133.736 101.484C133.531 101.736 133.372 102.025 133.26 102.352C133.148 102.679 133.092 103.019 133.092 103.374C133.092 103.738 133.153 104.083 133.274 104.41C133.405 104.737 133.582 105.026 133.806 105.278C134.04 105.53 134.306 105.726 134.604 105.866C134.912 106.006 135.244 106.076 135.598 106.076C135.822 106.076 136.051 106.034 136.284 105.95C136.527 105.866 136.756 105.749 136.97 105.6C137.185 105.451 137.367 105.278 137.516 105.082C137.666 104.877 137.764 104.662 137.81 104.438Z" fill="white"/>
<path d="M127.257 107.14C126.707 107.14 126.203 107.042 125.745 106.846C125.297 106.641 124.905 106.365 124.569 106.02C124.243 105.665 123.986 105.259 123.799 104.802C123.622 104.345 123.533 103.859 123.533 103.346C123.533 102.655 123.692 102.025 124.009 101.456C124.327 100.887 124.765 100.429 125.325 100.084C125.895 99.7386 126.543 99.5659 127.271 99.5659C128.009 99.5659 128.648 99.7433 129.189 100.098C129.74 100.443 130.165 100.901 130.463 101.47C130.771 102.03 130.925 102.637 130.925 103.29C130.925 103.383 130.921 103.477 130.911 103.57C130.911 103.654 130.907 103.719 130.897 103.766H124.835C124.873 104.242 125.003 104.667 125.227 105.04C125.461 105.404 125.759 105.693 126.123 105.908C126.487 106.113 126.879 106.216 127.299 106.216C127.747 106.216 128.167 106.104 128.559 105.88C128.961 105.656 129.236 105.362 129.385 104.998L130.449 105.292C130.291 105.647 130.053 105.964 129.735 106.244C129.427 106.524 129.059 106.743 128.629 106.902C128.209 107.061 127.752 107.14 127.257 107.14ZM124.793 102.912H129.777C129.74 102.436 129.605 102.016 129.371 101.652C129.138 101.288 128.839 101.003 128.475 100.798C128.111 100.593 127.71 100.49 127.271 100.49C126.842 100.49 126.445 100.593 126.081 100.798C125.717 101.003 125.419 101.288 125.185 101.652C124.961 102.016 124.831 102.436 124.793 102.912Z" fill="white"/>
<path d="M122.977 106.636C122.874 106.683 122.734 106.743 122.557 106.818C122.379 106.893 122.174 106.958 121.941 107.014C121.707 107.07 121.46 107.098 121.199 107.098C120.9 107.098 120.625 107.047 120.373 106.944C120.121 106.832 119.92 106.664 119.771 106.44C119.621 106.207 119.547 105.917 119.547 105.572V100.658H118.553V99.6921H119.547V97.2561H120.779V99.6921H122.417V100.658H120.779V105.194C120.797 105.455 120.886 105.651 121.045 105.782C121.203 105.903 121.39 105.964 121.605 105.964C121.847 105.964 122.071 105.922 122.277 105.838C122.482 105.754 122.617 105.693 122.683 105.656L122.977 106.636Z" fill="white"/>
<path d="M114.679 107.14C114.128 107.14 113.624 107.042 113.167 106.846C112.719 106.641 112.327 106.361 111.991 106.006C111.664 105.651 111.408 105.245 111.221 104.788C111.044 104.331 110.955 103.845 110.955 103.332C110.955 102.641 111.109 102.011 111.417 101.442C111.725 100.873 112.159 100.42 112.719 100.084C113.279 99.7386 113.928 99.5659 114.665 99.5659C115.384 99.5659 116.009 99.7293 116.541 100.056C117.082 100.373 117.484 100.803 117.745 101.344L116.541 101.722C116.354 101.377 116.093 101.111 115.757 100.924C115.421 100.728 115.048 100.63 114.637 100.63C114.189 100.63 113.778 100.747 113.405 100.98C113.041 101.213 112.752 101.535 112.537 101.946C112.322 102.347 112.215 102.809 112.215 103.332C112.215 103.845 112.322 104.312 112.537 104.732C112.761 105.143 113.055 105.469 113.419 105.712C113.792 105.955 114.203 106.076 114.651 106.076C114.94 106.076 115.216 106.025 115.477 105.922C115.748 105.819 115.981 105.684 116.177 105.516C116.382 105.339 116.522 105.147 116.597 104.942L117.801 105.306C117.652 105.661 117.423 105.978 117.115 106.258C116.816 106.529 116.457 106.743 116.037 106.902C115.626 107.061 115.174 107.14 114.679 107.14Z" fill="white"/>
<path d="M106.408 107.14C105.857 107.14 105.353 107.042 104.896 106.846C104.448 106.641 104.056 106.365 103.72 106.02C103.393 105.665 103.136 105.259 102.95 104.802C102.772 104.345 102.684 103.859 102.684 103.346C102.684 102.655 102.842 102.025 103.16 101.456C103.477 100.887 103.916 100.429 104.476 100.084C105.045 99.7386 105.694 99.5659 106.422 99.5659C107.159 99.5659 107.798 99.7433 108.34 100.098C108.89 100.443 109.315 100.901 109.614 101.47C109.922 102.03 110.076 102.637 110.076 103.29C110.076 103.383 110.071 103.477 110.062 103.57C110.062 103.654 110.057 103.719 110.048 103.766H103.986C104.023 104.242 104.154 104.667 104.378 105.04C104.611 105.404 104.91 105.693 105.274 105.908C105.638 106.113 106.03 106.216 106.45 106.216C106.898 106.216 107.318 106.104 107.71 105.88C108.111 105.656 108.386 105.362 108.536 104.998L109.6 105.292C109.441 105.647 109.203 105.964 108.886 106.244C108.578 106.524 108.209 106.743 107.78 106.902C107.36 107.061 106.902 107.14 106.408 107.14ZM103.944 102.912H108.928C108.89 102.436 108.755 102.016 108.522 101.652C108.288 101.288 107.99 101.003 107.626 100.798C107.262 100.593 106.86 100.49 106.422 100.49C105.992 100.49 105.596 100.593 105.232 100.798C104.868 101.003 104.569 101.288 104.336 101.652C104.112 102.016 103.981 102.436 103.944 102.912Z" fill="white"/>
<path d="M99.1963 96.78H100.428V105.11C100.428 105.511 100.484 105.759 100.596 105.852C100.708 105.945 100.844 105.992 101.002 105.992C101.198 105.992 101.385 105.973 101.562 105.936C101.74 105.889 101.889 105.843 102.01 105.796L102.206 106.804C102.001 106.888 101.758 106.958 101.478 107.014C101.198 107.07 100.951 107.098 100.736 107.098C100.26 107.098 99.8823 106.963 99.6023 106.692C99.3316 106.421 99.1963 106.043 99.1963 105.558V96.78Z" fill="white"/>
<path d="M94.1302 107.14C93.5796 107.14 93.0756 107.042 92.6183 106.846C92.1703 106.641 91.7783 106.365 91.4423 106.02C91.1156 105.665 90.8589 105.259 90.6722 104.802C90.4949 104.345 90.4062 103.859 90.4062 103.346C90.4062 102.655 90.5649 102.025 90.8823 101.456C91.1996 100.887 91.6382 100.429 92.1982 100.084C92.7676 99.7386 93.4162 99.5659 94.1442 99.5659C94.8816 99.5659 95.5209 99.7433 96.0623 100.098C96.6129 100.443 97.0376 100.901 97.3363 101.47C97.6443 102.03 97.7983 102.637 97.7983 103.29C97.7983 103.383 97.7936 103.477 97.7843 103.57C97.7843 103.654 97.7796 103.719 97.7703 103.766H91.7083C91.7456 104.242 91.8763 104.667 92.1003 105.04C92.3336 105.404 92.6323 105.693 92.9963 105.908C93.3603 106.113 93.7522 106.216 94.1722 106.216C94.6202 106.216 95.0403 106.104 95.4323 105.88C95.8336 105.656 96.1089 105.362 96.2583 104.998L97.3223 105.292C97.1636 105.647 96.9256 105.964 96.6083 106.244C96.3003 106.524 95.9316 106.743 95.5023 106.902C95.0823 107.061 94.6249 107.14 94.1302 107.14ZM91.6663 102.912H96.6503C96.6129 102.436 96.4776 102.016 96.2443 101.652C96.0109 101.288 95.7123 101.003 95.3483 100.798C94.9843 100.593 94.5829 100.49 94.1442 100.49C93.7149 100.49 93.3183 100.593 92.9543 100.798C92.5903 101.003 92.2916 101.288 92.0583 101.652C91.8343 102.016 91.7036 102.436 91.6663 102.912Z" fill="white"/>
<path d="M86.5663 107.14C85.9597 107.14 85.3903 107.042 84.8583 106.846C84.3263 106.641 83.869 106.337 83.4863 105.936L83.9623 105.068C84.3823 105.46 84.8023 105.74 85.2223 105.908C85.6423 106.076 86.0717 106.16 86.5103 106.16C87.0143 106.16 87.425 106.067 87.7423 105.88C88.0597 105.684 88.2183 105.399 88.2183 105.026C88.2183 104.755 88.1343 104.555 87.9663 104.424C87.8077 104.293 87.579 104.186 87.2803 104.102C86.9817 104.009 86.627 103.906 86.2163 103.794C85.7123 103.645 85.2877 103.486 84.9423 103.318C84.597 103.15 84.3357 102.94 84.1583 102.688C83.981 102.436 83.8923 102.119 83.8923 101.736C83.8923 101.269 84.0137 100.877 84.2563 100.56C84.499 100.233 84.8303 99.9859 85.2503 99.8179C85.6797 99.6499 86.165 99.5659 86.7063 99.5659C87.2477 99.5659 87.7377 99.6499 88.1763 99.8179C88.615 99.9859 88.993 100.233 89.3103 100.56L88.7503 101.414C88.461 101.115 88.1437 100.896 87.7983 100.756C87.453 100.607 87.0657 100.532 86.6363 100.532C86.3843 100.532 86.137 100.565 85.8943 100.63C85.6517 100.686 85.451 100.793 85.2923 100.952C85.1337 101.101 85.0543 101.316 85.0543 101.596C85.0543 101.829 85.115 102.016 85.2363 102.156C85.367 102.287 85.5537 102.399 85.7963 102.492C86.0483 102.585 86.3517 102.688 86.7063 102.8C87.257 102.959 87.733 103.117 88.1343 103.276C88.545 103.435 88.8623 103.64 89.0863 103.892C89.3103 104.144 89.4223 104.494 89.4223 104.942C89.4223 105.633 89.161 106.174 88.6383 106.566C88.1157 106.949 87.425 107.14 86.5663 107.14Z" fill="white"/>
<path d="M76.1894 107.14C75.5827 107.14 75.0134 107.042 74.4814 106.846C73.9494 106.641 73.492 106.337 73.1094 105.936L73.5854 105.068C74.0054 105.46 74.4254 105.74 74.8454 105.908C75.2654 106.076 75.6947 106.16 76.1334 106.16C76.6374 106.16 77.048 106.067 77.3654 105.88C77.6827 105.684 77.8414 105.399 77.8414 105.026C77.8414 104.755 77.7574 104.555 77.5894 104.424C77.4307 104.293 77.202 104.186 76.9034 104.102C76.6047 104.009 76.25 103.906 75.8394 103.794C75.3354 103.645 74.9107 103.486 74.5654 103.318C74.22 103.15 73.9587 102.94 73.7814 102.688C73.604 102.436 73.5154 102.119 73.5154 101.736C73.5154 101.269 73.6367 100.877 73.8794 100.56C74.122 100.233 74.4534 99.9859 74.8734 99.8179C75.3027 99.6499 75.788 99.5659 76.3294 99.5659C76.8707 99.5659 77.3607 99.6499 77.7994 99.8179C78.238 99.9859 78.616 100.233 78.9334 100.56L78.3734 101.414C78.084 101.115 77.7667 100.896 77.4214 100.756C77.076 100.607 76.6887 100.532 76.2594 100.532C76.0074 100.532 75.76 100.565 75.5174 100.63C75.2747 100.686 75.074 100.793 74.9154 100.952C74.7567 101.101 74.6774 101.316 74.6774 101.596C74.6774 101.829 74.738 102.016 74.8594 102.156C74.99 102.287 75.1767 102.399 75.4194 102.492C75.6714 102.585 75.9747 102.688 76.3294 102.8C76.88 102.959 77.356 103.117 77.7574 103.276C78.168 103.435 78.4854 103.64 78.7094 103.892C78.9334 104.144 79.0454 104.494 79.0454 104.942C79.0454 105.633 78.784 106.174 78.2614 106.566C77.7387 106.949 77.048 107.14 76.1894 107.14Z" fill="white"/>
<path d="M68.6459 107.14C68.0952 107.14 67.5912 107.042 67.1339 106.846C66.6859 106.641 66.2939 106.365 65.9579 106.02C65.6312 105.665 65.3745 105.259 65.1879 104.802C65.0105 104.345 64.9219 103.859 64.9219 103.346C64.9219 102.655 65.0805 102.025 65.3979 101.456C65.7152 100.887 66.1539 100.429 66.7139 100.084C67.2832 99.7386 67.9319 99.5659 68.6599 99.5659C69.3972 99.5659 70.0365 99.7433 70.5779 100.098C71.1285 100.443 71.5532 100.901 71.8519 101.47C72.1599 102.03 72.3139 102.637 72.3139 103.29C72.3139 103.383 72.3092 103.477 72.2999 103.57C72.2999 103.654 72.2952 103.719 72.2859 103.766H66.2239C66.2612 104.242 66.3919 104.667 66.6159 105.04C66.8492 105.404 67.1479 105.693 67.5119 105.908C67.8759 106.113 68.2679 106.216 68.6879 106.216C69.1359 106.216 69.5559 106.104 69.9479 105.88C70.3492 105.656 70.6245 105.362 70.7739 104.998L71.8379 105.292C71.6792 105.647 71.4412 105.964 71.1239 106.244C70.8159 106.524 70.4472 106.743 70.0179 106.902C69.5979 107.061 69.1405 107.14 68.6459 107.14ZM66.1819 102.912H71.1659C71.1285 102.436 70.9932 102.016 70.7599 101.652C70.5265 101.288 70.2279 101.003 69.8639 100.798C69.4999 100.593 69.0985 100.49 68.6599 100.49C68.2305 100.49 67.8339 100.593 67.4699 100.798C67.1059 101.003 66.8072 101.288 66.5739 101.652C66.3499 102.016 66.2192 102.436 66.1819 102.912Z" fill="white"/>
<path d="M63.4965 107H62.2645V102.912C62.2645 102.147 62.1385 101.582 61.8865 101.218C61.6438 100.854 61.2799 100.672 60.7945 100.672C60.2999 100.672 59.8518 100.854 59.4505 101.218C59.0492 101.573 58.7645 102.035 58.5965 102.604V107H57.3645V102.912C57.3645 102.137 57.2432 101.573 57.0005 101.218C56.7578 100.854 56.3938 100.672 55.9085 100.672C55.4232 100.672 54.9752 100.849 54.5645 101.204C54.1632 101.549 53.8785 102.011 53.7105 102.59V107H52.4785V99.6919H53.5985V101.26C53.8972 100.719 54.2845 100.303 54.7605 100.014C55.2365 99.7153 55.7732 99.5659 56.3705 99.5659C56.9772 99.5659 57.4625 99.7339 57.8265 100.07C58.1905 100.397 58.4145 100.821 58.4985 101.344C58.8252 100.765 59.2218 100.327 59.6885 100.028C60.1552 99.7199 60.6872 99.5659 61.2845 99.5659C61.7045 99.5659 62.0545 99.6453 62.3345 99.8039C62.6239 99.9533 62.8525 100.168 63.0205 100.448C63.1885 100.719 63.3099 101.041 63.3845 101.414C63.4592 101.787 63.4965 102.193 63.4965 102.632V107Z" fill="white"/>
<path d="M44 104.074V99.6919H45.232V103.836C45.232 104.583 45.3627 105.143 45.624 105.516C45.8853 105.889 46.2727 106.076 46.786 106.076C47.122 106.076 47.444 106.006 47.752 105.866C48.0693 105.717 48.354 105.507 48.606 105.236C48.858 104.965 49.054 104.643 49.194 104.27V99.6919H50.426V105.6C50.426 105.749 50.454 105.861 50.51 105.936C50.5753 106.001 50.678 106.039 50.818 106.048V107C50.678 107.019 50.566 107.028 50.482 107.028C50.4073 107.037 50.3327 107.042 50.258 107.042C50.0247 107.042 49.824 106.972 49.656 106.832C49.488 106.683 49.3993 106.501 49.39 106.286L49.362 105.432C49.0447 105.973 48.6153 106.393 48.074 106.692C47.542 106.991 46.9587 107.14 46.324 107.14C45.5587 107.14 44.98 106.883 44.588 106.37C44.196 105.847 44 105.082 44 104.074Z" fill="white"/>
<path d="M39.7402 107.14C39.1335 107.14 38.5642 107.042 38.0322 106.846C37.5002 106.641 37.0428 106.337 36.6602 105.936L37.1362 105.068C37.5562 105.46 37.9762 105.74 38.3962 105.908C38.8162 106.076 39.2455 106.16 39.6842 106.16C40.1882 106.16 40.5988 106.067 40.9162 105.88C41.2335 105.684 41.3922 105.399 41.3922 105.026C41.3922 104.755 41.3082 104.555 41.1402 104.424C40.9815 104.293 40.7528 104.186 40.4542 104.102C40.1555 104.009 39.8008 103.906 39.3902 103.794C38.8862 103.645 38.4615 103.486 38.1162 103.318C37.7708 103.15 37.5095 102.94 37.3322 102.688C37.1548 102.436 37.0662 102.119 37.0662 101.736C37.0662 101.269 37.1875 100.877 37.4302 100.56C37.6728 100.233 38.0042 99.9859 38.4242 99.8179C38.8535 99.6499 39.3388 99.5659 39.8802 99.5659C40.4215 99.5659 40.9115 99.6499 41.3502 99.8179C41.7888 99.9859 42.1668 100.233 42.4842 100.56L41.9242 101.414C41.6348 101.115 41.3175 100.896 40.9722 100.756C40.6268 100.607 40.2395 100.532 39.8102 100.532C39.5582 100.532 39.3108 100.565 39.0682 100.63C38.8255 100.686 38.6248 100.793 38.4662 100.952C38.3075 101.101 38.2282 101.316 38.2282 101.596C38.2282 101.829 38.2888 102.016 38.4102 102.156C38.5408 102.287 38.7275 102.399 38.9702 102.492C39.2222 102.585 39.5255 102.688 39.8802 102.8C40.4308 102.959 40.9068 103.117 41.3082 103.276C41.7188 103.435 42.0362 103.64 42.2602 103.892C42.4842 104.144 42.5962 104.494 42.5962 104.942C42.5962 105.633 42.3348 106.174 41.8122 106.566C41.2895 106.949 40.5988 107.14 39.7402 107.14Z" fill="white"/>
<path d="M32.1967 107.14C31.646 107.14 31.142 107.042 30.6847 106.846C30.2367 106.641 29.8447 106.365 29.5087 106.02C29.182 105.665 28.9253 105.259 28.7387 104.802C28.5613 104.345 28.4727 103.859 28.4727 103.346C28.4727 102.655 28.6313 102.025 28.9487 101.456C29.266 100.887 29.7047 100.429 30.2647 100.084C30.834 99.7386 31.4827 99.5659 32.2107 99.5659C32.948 99.5659 33.5873 99.7433 34.1287 100.098C34.6793 100.443 35.104 100.901 35.4027 101.47C35.7107 102.03 35.8647 102.637 35.8647 103.29C35.8647 103.383 35.86 103.477 35.8507 103.57C35.8507 103.654 35.846 103.719 35.8367 103.766H29.7747C29.812 104.242 29.9427 104.667 30.1667 105.04C30.4 105.404 30.6987 105.693 31.0627 105.908C31.4267 106.113 31.8187 106.216 32.2387 106.216C32.6867 106.216 33.1067 106.104 33.4987 105.88C33.9 105.656 34.1753 105.362 34.3247 104.998L35.3887 105.292C35.23 105.647 34.992 105.964 34.6747 106.244C34.3667 106.524 33.998 106.743 33.5687 106.902C33.1487 107.061 32.6913 107.14 32.1967 107.14ZM29.7327 102.912H34.7167C34.6793 102.436 34.544 102.016 34.3107 101.652C34.0773 101.288 33.7787 101.003 33.4147 100.798C33.0507 100.593 32.6493 100.49 32.2107 100.49C31.7813 100.49 31.3847 100.593 31.0207 100.798C30.6567 101.003 30.358 101.288 30.1247 101.652C29.9007 102.016 29.77 102.436 29.7327 102.912Z" fill="white"/>
<path d="M20.1904 107V97.0601H24.4464C24.8851 97.0601 25.2864 97.1534 25.6504 97.3401C26.0144 97.5174 26.3318 97.7601 26.6024 98.0681C26.8731 98.3667 27.0831 98.7074 27.2324 99.0901C27.3818 99.4634 27.4564 99.8461 27.4564 100.238C27.4564 100.695 27.3678 101.129 27.1904 101.54C27.0224 101.951 26.7798 102.301 26.4624 102.59C26.1544 102.879 25.7904 103.08 25.3704 103.192L27.7784 107H26.3504L24.0824 103.43H21.4504V107H20.1904ZM21.4504 102.31H24.4604C24.8058 102.31 25.1044 102.217 25.3564 102.03C25.6178 101.834 25.8184 101.577 25.9584 101.26C26.1078 100.943 26.1824 100.602 26.1824 100.238C26.1824 99.8647 26.0984 99.5241 25.9304 99.2161C25.7624 98.8987 25.5431 98.6467 25.2724 98.4601C25.0018 98.2734 24.7031 98.1801 24.3764 98.1801H21.4504V102.31Z" fill="white"/>
</g>
<defs>
<filter id="filter0_b_134_4072" x="-22" y="-22" width="235" height="173" filterUnits="userSpaceOnUse" color-interpolation-filters="sRGB">
<feFlood flood-opacity="0" result="BackgroundImageFix"/>
<feGaussianBlur in="BackgroundImageFix" stdDeviation="11"/>
<feComposite in2="SourceAlpha" operator="in" result="effect1_backgroundBlur_134_4072"/>
<feBlend mode="normal" in="SourceGraphic" in2="effect1_backgroundBlur_134_4072" result="shape"/>
</filter>
</defs>
</svg>
