<svg width="216" height="130" viewBox="0 0 216 130" fill="none" xmlns="http://www.w3.org/2000/svg">
<g filter="url(#filter0_b_134_4222)">
<rect y="0.649414" width="216" height="129" rx="12" fill="black" fill-opacity="0.15"/>
<mask id="mask0_134_4222" style="mask-type:alpha" maskUnits="userSpaceOnUse" x="20" y="20" width="18" height="19">
<rect x="20" y="20.6494" width="18" height="18" fill="#D9D9D9"/>
</mask>
<g mask="url(#mask0_134_4222)">
<path d="M31.9995 35.6493V30.3993H34.9995V35.6493H31.9995ZM27.4995 35.6493V23.6493H30.4995V35.6493H27.4995ZM22.9995 35.6493V27.3993H25.9995V35.6493H22.9995Z" fill="white"/>
</g>
<path d="M163 30.1493C163 32.1384 162.21 34.0461 160.803 35.4526C159.397 36.8591 157.489 37.6493 155.5 37.6493C153.511 37.6493 151.603 36.8591 150.197 35.4526C148.79 34.0461 148 32.1384 148 30.1493H149.246C149.246 31.8081 149.905 33.3989 151.078 34.5718C152.25 35.7447 153.841 36.4036 155.5 36.4036C157.159 36.4036 158.75 35.7447 159.922 34.5718C161.095 33.3989 161.754 31.8081 161.754 30.1493H163Z" fill="#BABBBB"/>
<path d="M155.862 22.658C157.849 22.754 159.716 23.6353 161.053 25.108C162.39 26.5808 163.087 28.5243 162.991 30.5111L161.747 30.451C161.827 28.7942 161.246 27.1735 160.131 25.9453C159.016 24.7172 157.459 23.9823 155.802 23.9022L155.862 22.658Z" fill="white"/>
<path d="M148 30.1493C148 29.0066 148.262 27.8789 148.764 26.8525C149.266 25.8261 149.996 24.928 150.899 24.2269L151.663 25.2106C150.911 25.7953 150.302 26.5442 149.883 27.4001C149.464 28.256 149.246 29.1964 149.246 30.1493H148Z" fill="white"/>
<path d="M150.899 24.2269C152.384 23.0731 154.248 22.5193 156.122 22.6753L156.019 23.9167C154.456 23.7866 152.902 24.2484 151.663 25.2106L150.899 24.2269Z" fill="#C4CACD"/>
<mask id="mask1_134_4222" style="mask-type:alpha" maskUnits="userSpaceOnUse" x="177" y="20" width="18" height="19">
<rect x="177" y="20.6494" width="18" height="18" fill="#D9D9D9"/>
</mask>
<g mask="url(#mask1_134_4222)">
<path fill-rule="evenodd" clip-rule="evenodd" d="M183.075 36.5587C183.987 36.9524 184.962 37.1493 186 37.1493C187.037 37.1493 188.012 36.9524 188.925 36.5587C189.837 36.1649 190.631 35.6306 191.306 34.9556C191.981 34.2806 192.515 33.4868 192.909 32.5743C193.303 31.6618 193.5 30.6868 193.5 29.6493C193.5 28.6118 193.303 27.6368 192.909 26.7243C192.515 25.8118 191.981 25.0181 191.306 24.3431C190.631 23.6681 189.837 23.1337 188.925 22.7399C188.012 22.3462 187.037 22.1493 186 22.1493C184.962 22.1493 183.987 22.3462 183.075 22.7399C182.162 23.1337 181.368 23.6681 180.693 24.3431C180.018 25.0181 179.484 25.8118 179.09 26.7243C178.696 27.6368 178.5 28.6118 178.5 29.6493C178.5 30.6868 178.696 31.6618 179.09 32.5743C179.484 33.4868 180.018 34.2806 180.693 34.9556C181.368 35.6306 182.162 36.1649 183.075 36.5587ZM190.256 33.9056C189.093 35.0681 187.675 35.6493 186 35.6493C184.325 35.6493 182.906 35.0681 181.743 33.9056C180.581 32.7431 180 31.3243 180 29.6493C180 27.9743 180.581 26.5556 181.743 25.3931C182.906 24.2306 184.325 23.6493 186 23.6493C187.675 23.6493 189.093 24.2306 190.256 25.3931C191.418 26.5556 192 27.9743 192 29.6493C192 31.3243 191.418 32.7431 190.256 33.9056Z" fill="#CBCBCB"/>
<path fill-rule="evenodd" clip-rule="evenodd" d="M186 35.6493C187.675 35.6493 189.093 35.0681 190.256 33.9056C191.418 32.7431 192 31.3243 192 29.6493C192 27.9743 191.418 26.5556 190.256 25.3931C189.093 24.2306 187.675 23.6493 186 23.6493C184.325 23.6493 182.906 24.2306 181.743 25.3931C180.581 26.5556 180 27.9743 180 29.6493C180 31.3243 180.581 32.7431 181.743 33.9056C182.906 35.0681 184.325 35.6493 186 35.6493ZM186.75 33.3993H185.25V30.3993H182.25V28.8993H185.25V25.8993H186.75V28.8993H189.75V30.3993H186.75V33.3993Z" fill="#CBCBCB"/>
</g>
<path d="M31.206 64.4274C31.0327 63.6994 30.7293 63.1534 30.296 62.7894C29.88 62.4254 29.2733 62.2434 28.476 62.2434C27.28 62.2434 26.396 62.7287 25.824 63.6994C25.2693 64.6527 24.9833 66.2127 24.966 68.3794C25.382 67.6861 25.9887 67.1487 26.786 66.7674C27.5833 66.3687 28.45 66.1694 29.386 66.1694C30.5127 66.1694 31.5093 66.4121 32.376 66.8974C33.2427 67.3827 33.9187 68.0934 34.404 69.0294C34.8893 69.9481 35.132 71.0574 35.132 72.3574C35.132 73.5881 34.8807 74.6887 34.378 75.6594C33.8927 76.6127 33.1733 77.3581 32.22 77.8954C31.2667 78.4327 30.1313 78.7014 28.814 78.7014C27.0113 78.7014 25.59 78.3027 24.55 77.5054C23.5273 76.7081 22.808 75.5987 22.392 74.1774C21.9933 72.7387 21.794 70.9707 21.794 68.8734C21.794 65.7014 22.34 63.3094 23.432 61.6974C24.524 60.0681 26.2487 59.2534 28.606 59.2534C30.426 59.2534 31.8387 59.7474 32.844 60.7354C33.8493 61.7234 34.43 62.9541 34.586 64.4274H31.206ZM28.554 69.1594C27.6353 69.1594 26.864 69.4281 26.24 69.9654C25.616 70.5027 25.304 71.2827 25.304 72.3054C25.304 73.3281 25.59 74.1341 26.162 74.7234C26.7513 75.3127 27.5747 75.6074 28.632 75.6074C29.568 75.6074 30.3047 75.3214 30.842 74.7494C31.3967 74.1774 31.674 73.4061 31.674 72.4354C31.674 71.4301 31.4053 70.6327 30.868 70.0434C30.348 69.4541 29.5767 69.1594 28.554 69.1594ZM50.7489 62.8414H42.3249V67.2874C42.6889 66.8367 43.2089 66.4727 43.8849 66.1954C44.5609 65.9007 45.2802 65.7534 46.0429 65.7534C47.4295 65.7534 48.5649 66.0567 49.4489 66.6634C50.3329 67.2701 50.9742 68.0501 51.3729 69.0034C51.7715 69.9394 51.9709 70.9447 51.9709 72.0194C51.9709 74.0127 51.3989 75.6161 50.2549 76.8294C49.1282 78.0427 47.5162 78.6494 45.4189 78.6494C43.4429 78.6494 41.8655 78.1554 40.6869 77.1674C39.5082 76.1794 38.8409 74.8881 38.6849 73.2934H42.2209C42.3769 73.9867 42.7235 74.5414 43.2609 74.9574C43.8155 75.3734 44.5175 75.5814 45.3669 75.5814C46.3895 75.5814 47.1609 75.2607 47.6809 74.6194C48.2009 73.9781 48.4609 73.1287 48.4609 72.0714C48.4609 70.9967 48.1922 70.1821 47.6549 69.6274C47.1349 69.0554 46.3635 68.7694 45.3409 68.7694C44.6129 68.7694 44.0062 68.9514 43.5209 69.3154C43.0355 69.6794 42.6889 70.1647 42.4809 70.7714H38.9969V59.6434H50.7489V62.8414ZM54.7413 68.9254C54.7413 65.9267 55.2786 63.5781 56.3533 61.8794C57.4453 60.1807 59.2479 59.3314 61.7613 59.3314C64.2746 59.3314 66.0686 60.1807 67.1433 61.8794C68.2353 63.5781 68.7813 65.9267 68.7813 68.9254C68.7813 71.9414 68.2353 74.3074 67.1433 76.0234C66.0686 77.7394 64.2746 78.5974 61.7613 78.5974C59.2479 78.5974 57.4453 77.7394 56.3533 76.0234C55.2786 74.3074 54.7413 71.9414 54.7413 68.9254ZM65.1933 68.9254C65.1933 67.6427 65.1066 66.5681 64.9333 65.7014C64.7773 64.8174 64.4479 64.0981 63.9453 63.5434C63.4599 62.9887 62.7319 62.7114 61.7613 62.7114C60.7906 62.7114 60.0539 62.9887 59.5513 63.5434C59.0659 64.0981 58.7366 64.8174 58.5633 65.7014C58.4073 66.5681 58.3293 67.6427 58.3293 68.9254C58.3293 70.2427 58.4073 71.3521 58.5633 72.2534C58.7193 73.1374 59.0486 73.8567 59.5513 74.4114C60.0539 74.9487 60.7906 75.2174 61.7613 75.2174C62.7319 75.2174 63.4686 74.9487 63.9713 74.4114C64.4739 73.8567 64.8033 73.1374 64.9593 72.2534C65.1153 71.3521 65.1933 70.2427 65.1933 68.9254ZM85.5639 70.9794H80.6499V76.0234H77.2179V70.9794H72.3039V67.8074H77.2179V62.7634H80.6499V67.8074H85.5639V70.9794Z" fill="white"/>
<path d="M24.228 105.789C23.6773 105.789 23.1733 105.691 22.716 105.495C22.268 105.29 21.876 105.01 21.54 104.655C21.2133 104.301 20.9567 103.895 20.77 103.437C20.5927 102.98 20.504 102.495 20.504 101.981C20.504 101.291 20.658 100.661 20.966 100.091C21.274 99.5221 21.708 99.0694 22.268 98.7334C22.828 98.3881 23.4767 98.2154 24.214 98.2154C24.9327 98.2154 25.558 98.3787 26.09 98.7054C26.6313 99.0227 27.0327 99.4521 27.294 99.9934L26.09 100.371C25.9033 100.026 25.642 99.7601 25.306 99.5734C24.97 99.3774 24.5967 99.2794 24.186 99.2794C23.738 99.2794 23.3273 99.3961 22.954 99.6294C22.59 99.8627 22.3007 100.185 22.086 100.595C21.8713 100.997 21.764 101.459 21.764 101.981C21.764 102.495 21.8713 102.961 22.086 103.381C22.31 103.792 22.604 104.119 22.968 104.361C23.3413 104.604 23.752 104.725 24.2 104.725C24.4893 104.725 24.7647 104.674 25.026 104.571C25.2967 104.469 25.53 104.333 25.726 104.165C25.9313 103.988 26.0713 103.797 26.146 103.591L27.35 103.955C27.2007 104.31 26.972 104.627 26.664 104.907C26.3653 105.178 26.006 105.393 25.586 105.551C25.1753 105.71 24.7227 105.789 24.228 105.789ZM28.172 103.535C28.172 103.069 28.3026 102.667 28.564 102.331C28.8346 101.986 29.2033 101.72 29.67 101.533C30.1366 101.347 30.678 101.253 31.294 101.253C31.6206 101.253 31.966 101.281 32.33 101.337C32.694 101.384 33.016 101.459 33.296 101.561V101.029C33.296 100.469 33.128 100.031 32.792 99.7134C32.456 99.3867 31.98 99.2234 31.364 99.2234C30.9626 99.2234 30.5753 99.2981 30.202 99.4474C29.838 99.5874 29.4506 99.7927 29.04 100.063L28.592 99.1954C29.068 98.8687 29.544 98.6261 30.02 98.4674C30.496 98.2994 30.9906 98.2154 31.504 98.2154C32.4373 98.2154 33.1746 98.4767 33.716 98.9994C34.2573 99.5127 34.528 100.231 34.528 101.155V104.249C34.528 104.399 34.556 104.511 34.612 104.585C34.6773 104.651 34.78 104.688 34.92 104.697V105.649C34.7986 105.668 34.6913 105.682 34.598 105.691C34.514 105.701 34.444 105.705 34.388 105.705C34.0986 105.705 33.8793 105.626 33.73 105.467C33.59 105.309 33.5106 105.141 33.492 104.963L33.464 104.501C33.1466 104.912 32.7313 105.229 32.218 105.453C31.7046 105.677 31.196 105.789 30.692 105.789C30.2066 105.789 29.7726 105.691 29.39 105.495C29.0073 105.29 28.7086 105.019 28.494 104.683C28.2793 104.338 28.172 103.955 28.172 103.535ZM32.932 104.053C33.044 103.923 33.1326 103.792 33.198 103.661C33.2633 103.521 33.296 103.405 33.296 103.311V102.401C33.0066 102.289 32.7033 102.205 32.386 102.149C32.0686 102.084 31.756 102.051 31.448 102.051C30.8226 102.051 30.314 102.177 29.922 102.429C29.5393 102.672 29.348 103.008 29.348 103.437C29.348 103.671 29.4086 103.899 29.53 104.123C29.6606 104.338 29.8473 104.515 30.09 104.655C30.342 104.795 30.65 104.865 31.014 104.865C31.3966 104.865 31.7606 104.791 32.106 104.641C32.4513 104.483 32.7266 104.287 32.932 104.053ZM42.8399 105.649H41.6079V101.561C41.6079 100.787 41.4866 100.222 41.2439 99.8674C41.0106 99.5034 40.6512 99.3214 40.1659 99.3214C39.8299 99.3214 39.4939 99.4054 39.1579 99.5734C38.8312 99.7414 38.5372 99.9701 38.2759 100.259C38.0239 100.539 37.8419 100.866 37.7299 101.239V105.649H36.4979V98.3414H37.6179V99.9094C37.8139 99.5641 38.0659 99.2654 38.3739 99.0134C38.6819 98.7614 39.0319 98.5654 39.4239 98.4254C39.8159 98.2854 40.2266 98.2154 40.6559 98.2154C41.0759 98.2154 41.4259 98.2947 41.7059 98.4534C41.9952 98.6027 42.2192 98.8174 42.3779 99.0974C42.5459 99.3681 42.6626 99.6901 42.7279 100.063C42.8026 100.437 42.8399 100.843 42.8399 101.281V105.649ZM44.2797 102.009C44.2797 101.319 44.4197 100.689 44.6997 100.119C44.9891 99.5407 45.3811 99.0787 45.8757 98.7334C46.3797 98.3881 46.9537 98.2154 47.5977 98.2154C48.1857 98.2154 48.7131 98.3694 49.1797 98.6774C49.6464 98.9854 50.0104 99.3587 50.2717 99.7974V95.4294H51.5037V104.249C51.5037 104.399 51.5317 104.511 51.5877 104.585C51.6531 104.651 51.7557 104.688 51.8957 104.697V105.649C51.6624 105.687 51.4804 105.705 51.3497 105.705C51.1071 105.705 50.8924 105.621 50.7057 105.453C50.5284 105.285 50.4397 105.099 50.4397 104.893V104.277C50.1504 104.744 49.7631 105.113 49.2777 105.383C48.7924 105.654 48.2884 105.789 47.7657 105.789C47.2617 105.789 46.7951 105.691 46.3657 105.495C45.9457 105.29 45.5771 105.01 45.2597 104.655C44.9517 104.301 44.7091 103.899 44.5317 103.451C44.3637 102.994 44.2797 102.513 44.2797 102.009ZM50.2717 103.087V100.987C50.1597 100.67 49.9777 100.385 49.7257 100.133C49.4737 99.8721 49.1891 99.6667 48.8717 99.5174C48.5637 99.3587 48.2557 99.2794 47.9477 99.2794C47.5837 99.2794 47.2524 99.3587 46.9537 99.5174C46.6644 99.6667 46.4124 99.8721 46.1977 100.133C45.9924 100.385 45.8337 100.675 45.7217 101.001C45.6097 101.328 45.5537 101.669 45.5537 102.023C45.5537 102.387 45.6144 102.733 45.7357 103.059C45.8664 103.386 46.0437 103.675 46.2677 103.927C46.5011 104.179 46.7671 104.375 47.0657 104.515C47.3737 104.655 47.7051 104.725 48.0597 104.725C48.2837 104.725 48.5124 104.683 48.7457 104.599C48.9884 104.515 49.2171 104.399 49.4317 104.249C49.6464 104.1 49.8284 103.927 49.9777 103.731C50.1271 103.526 50.2251 103.311 50.2717 103.087ZM53.5604 105.649V98.3414H54.7924V105.649H53.5604ZM53.5604 96.9694V95.4294H54.7924V96.9694H53.5604ZM56.311 102.009C56.311 101.319 56.451 100.689 56.731 100.119C57.0203 99.5407 57.4123 99.0787 57.907 98.7334C58.411 98.3881 58.985 98.2154 59.629 98.2154C60.217 98.2154 60.7443 98.3694 61.211 98.6774C61.6776 98.9854 62.0416 99.3587 62.303 99.7974V95.4294H63.535V104.249C63.535 104.399 63.563 104.511 63.619 104.585C63.6843 104.651 63.787 104.688 63.927 104.697V105.649C63.6936 105.687 63.5116 105.705 63.381 105.705C63.1383 105.705 62.9236 105.621 62.737 105.453C62.5596 105.285 62.471 105.099 62.471 104.893V104.277C62.1816 104.744 61.7943 105.113 61.309 105.383C60.8236 105.654 60.3196 105.789 59.797 105.789C59.293 105.789 58.8263 105.691 58.397 105.495C57.977 105.29 57.6083 105.01 57.291 104.655C56.983 104.301 56.7403 103.899 56.563 103.451C56.395 102.994 56.311 102.513 56.311 102.009ZM62.303 103.087V100.987C62.191 100.67 62.009 100.385 61.757 100.133C61.505 99.8721 61.2203 99.6667 60.903 99.5174C60.595 99.3587 60.287 99.2794 59.979 99.2794C59.615 99.2794 59.2836 99.3587 58.985 99.5174C58.6956 99.6667 58.4436 99.8721 58.229 100.133C58.0236 100.385 57.865 100.675 57.753 101.001C57.641 101.328 57.585 101.669 57.585 102.023C57.585 102.387 57.6456 102.733 57.767 103.059C57.8976 103.386 58.075 103.675 58.299 103.927C58.5323 104.179 58.7983 104.375 59.097 104.515C59.405 104.655 59.7363 104.725 60.091 104.725C60.315 104.725 60.5436 104.683 60.777 104.599C61.0196 104.515 61.2483 104.399 61.463 104.249C61.6776 104.1 61.8596 103.927 62.009 103.731C62.1583 103.526 62.2563 103.311 62.303 103.087ZM65.0177 103.535C65.0177 103.069 65.1483 102.667 65.4097 102.331C65.6803 101.986 66.049 101.72 66.5157 101.533C66.9823 101.347 67.5237 101.253 68.1397 101.253C68.4663 101.253 68.8117 101.281 69.1757 101.337C69.5397 101.384 69.8617 101.459 70.1417 101.561V101.029C70.1417 100.469 69.9737 100.031 69.6377 99.7134C69.3017 99.3867 68.8257 99.2234 68.2097 99.2234C67.8083 99.2234 67.421 99.2981 67.0477 99.4474C66.6837 99.5874 66.2963 99.7927 65.8857 100.063L65.4377 99.1954C65.9137 98.8687 66.3897 98.6261 66.8657 98.4674C67.3417 98.2994 67.8363 98.2154 68.3497 98.2154C69.283 98.2154 70.0203 98.4767 70.5617 98.9994C71.103 99.5127 71.3737 100.231 71.3737 101.155V104.249C71.3737 104.399 71.4017 104.511 71.4577 104.585C71.523 104.651 71.6257 104.688 71.7657 104.697V105.649C71.6443 105.668 71.537 105.682 71.4437 105.691C71.3597 105.701 71.2897 105.705 71.2337 105.705C70.9443 105.705 70.725 105.626 70.5757 105.467C70.4357 105.309 70.3563 105.141 70.3377 104.963L70.3097 104.501C69.9923 104.912 69.577 105.229 69.0637 105.453C68.5503 105.677 68.0417 105.789 67.5377 105.789C67.0523 105.789 66.6183 105.691 66.2357 105.495C65.853 105.29 65.5543 105.019 65.3397 104.683C65.125 104.338 65.0177 103.955 65.0177 103.535ZM69.7777 104.053C69.8897 103.923 69.9783 103.792 70.0437 103.661C70.109 103.521 70.1417 103.405 70.1417 103.311V102.401C69.8523 102.289 69.549 102.205 69.2317 102.149C68.9143 102.084 68.6017 102.051 68.2937 102.051C67.6683 102.051 67.1597 102.177 66.7677 102.429C66.385 102.672 66.1937 103.008 66.1937 103.437C66.1937 103.671 66.2543 103.899 66.3757 104.123C66.5063 104.338 66.693 104.515 66.9357 104.655C67.1877 104.795 67.4957 104.865 67.8597 104.865C68.2423 104.865 68.6063 104.791 68.9517 104.641C69.297 104.483 69.5723 104.287 69.7777 104.053ZM77.0689 105.285C76.9663 105.332 76.8263 105.393 76.6489 105.467C76.4716 105.542 76.2663 105.607 76.0329 105.663C75.7996 105.719 75.5523 105.747 75.2909 105.747C74.9923 105.747 74.7169 105.696 74.4649 105.593C74.2129 105.481 74.0123 105.313 73.8629 105.089C73.7136 104.856 73.6389 104.567 73.6389 104.221V99.3074H72.6449V98.3414H73.6389V95.9054H74.8709V98.3414H76.5089V99.3074H74.8709V103.843C74.8896 104.105 74.9783 104.301 75.1369 104.431C75.2956 104.553 75.4823 104.613 75.6969 104.613C75.9396 104.613 76.1636 104.571 76.3689 104.487C76.5743 104.403 76.7096 104.343 76.7749 104.305L77.0689 105.285ZM81.3491 105.789C80.7984 105.789 80.2944 105.691 79.8371 105.495C79.3891 105.29 78.9971 105.015 78.6611 104.669C78.3344 104.315 78.0778 103.909 77.8911 103.451C77.7138 102.994 77.6251 102.509 77.6251 101.995C77.6251 101.305 77.7838 100.675 78.1011 100.105C78.4184 99.5361 78.8571 99.0787 79.4171 98.7334C79.9864 98.3881 80.6351 98.2154 81.3631 98.2154C82.1004 98.2154 82.7398 98.3927 83.2811 98.7474C83.8318 99.0927 84.2564 99.5501 84.5551 100.119C84.8631 100.679 85.0171 101.286 85.0171 101.939C85.0171 102.033 85.0124 102.126 85.0031 102.219C85.0031 102.303 84.9984 102.369 84.9891 102.415H78.9271C78.9644 102.891 79.0951 103.316 79.3191 103.689C79.5524 104.053 79.8511 104.343 80.2151 104.557C80.5791 104.763 80.9711 104.865 81.3911 104.865C81.8391 104.865 82.2591 104.753 82.6511 104.529C83.0524 104.305 83.3278 104.011 83.4771 103.647L84.5411 103.941C84.3824 104.296 84.1444 104.613 83.8271 104.893C83.5191 105.173 83.1504 105.393 82.7211 105.551C82.3011 105.71 81.8438 105.789 81.3491 105.789ZM78.8851 101.561H83.8691C83.8318 101.085 83.6964 100.665 83.4631 100.301C83.2298 99.9374 82.9311 99.6527 82.5671 99.4474C82.2031 99.2421 81.8018 99.1394 81.3631 99.1394C80.9338 99.1394 80.5371 99.2421 80.1731 99.4474C79.8091 99.6527 79.5104 99.9374 79.2771 100.301C79.0531 100.665 78.9224 101.085 78.8851 101.561ZM88.8926 105.789C88.2859 105.789 87.7166 105.691 87.1846 105.495C86.6526 105.29 86.1952 104.987 85.8126 104.585L86.2886 103.717C86.7086 104.109 87.1286 104.389 87.5486 104.557C87.9686 104.725 88.3979 104.809 88.8366 104.809C89.3406 104.809 89.7512 104.716 90.0686 104.529C90.3859 104.333 90.5446 104.049 90.5446 103.675C90.5446 103.405 90.4606 103.204 90.2926 103.073C90.1339 102.943 89.9052 102.835 89.6066 102.751C89.3079 102.658 88.9532 102.555 88.5426 102.443C88.0386 102.294 87.6139 102.135 87.2686 101.967C86.9232 101.799 86.6619 101.589 86.4846 101.337C86.3072 101.085 86.2186 100.768 86.2186 100.385C86.2186 99.9187 86.3399 99.5267 86.5826 99.2094C86.8252 98.8827 87.1566 98.6354 87.5766 98.4674C88.0059 98.2994 88.4912 98.2154 89.0326 98.2154C89.5739 98.2154 90.0639 98.2994 90.5026 98.4674C90.9412 98.6354 91.3192 98.8827 91.6366 99.2094L91.0766 100.063C90.7872 99.7647 90.4699 99.5454 90.1246 99.4054C89.7792 99.2561 89.3919 99.1814 88.9626 99.1814C88.7106 99.1814 88.4632 99.2141 88.2206 99.2794C87.9779 99.3354 87.7772 99.4427 87.6186 99.6014C87.4599 99.7507 87.3806 99.9654 87.3806 100.245C87.3806 100.479 87.4412 100.665 87.5626 100.805C87.6932 100.936 87.8799 101.048 88.1226 101.141C88.3746 101.235 88.6779 101.337 89.0326 101.449C89.5832 101.608 90.0592 101.767 90.4606 101.925C90.8712 102.084 91.1886 102.289 91.4126 102.541C91.6366 102.793 91.7486 103.143 91.7486 103.591C91.7486 104.282 91.4872 104.823 90.9646 105.215C90.4419 105.598 89.7512 105.789 88.8926 105.789ZM99.2695 105.789C98.6629 105.789 98.0935 105.691 97.5615 105.495C97.0295 105.29 96.5722 104.987 96.1895 104.585L96.6655 103.717C97.0855 104.109 97.5055 104.389 97.9255 104.557C98.3455 104.725 98.7749 104.809 99.2135 104.809C99.7175 104.809 100.128 104.716 100.446 104.529C100.763 104.333 100.922 104.049 100.922 103.675C100.922 103.405 100.838 103.204 100.67 103.073C100.511 102.943 100.282 102.835 99.9835 102.751C99.6849 102.658 99.3302 102.555 98.9195 102.443C98.4155 102.294 97.9909 102.135 97.6455 101.967C97.3002 101.799 97.0389 101.589 96.8615 101.337C96.6842 101.085 96.5955 100.768 96.5955 100.385C96.5955 99.9187 96.7169 99.5267 96.9595 99.2094C97.2022 98.8827 97.5335 98.6354 97.9535 98.4674C98.3829 98.2994 98.8682 98.2154 99.4095 98.2154C99.9509 98.2154 100.441 98.2994 100.88 98.4674C101.318 98.6354 101.696 98.8827 102.014 99.2094L101.454 100.063C101.164 99.7647 100.847 99.5454 100.502 99.4054C100.156 99.2561 99.7689 99.1814 99.3395 99.1814C99.0875 99.1814 98.8402 99.2141 98.5975 99.2794C98.3549 99.3354 98.1542 99.4427 97.9955 99.6014C97.8369 99.7507 97.7575 99.9654 97.7575 100.245C97.7575 100.479 97.8182 100.665 97.9395 100.805C98.0702 100.936 98.2569 101.048 98.4995 101.141C98.7515 101.235 99.0549 101.337 99.4095 101.449C99.9602 101.608 100.436 101.767 100.838 101.925C101.248 102.084 101.566 102.289 101.79 102.541C102.014 102.793 102.126 103.143 102.126 103.591C102.126 104.282 101.864 104.823 101.342 105.215C100.819 105.598 100.128 105.789 99.2695 105.789ZM106.833 105.789C106.283 105.789 105.779 105.691 105.321 105.495C104.873 105.29 104.481 105.015 104.145 104.669C103.819 104.315 103.562 103.909 103.375 103.451C103.198 102.994 103.109 102.509 103.109 101.995C103.109 101.305 103.268 100.675 103.585 100.105C103.903 99.5361 104.341 99.0787 104.901 98.7334C105.471 98.3881 106.119 98.2154 106.847 98.2154C107.585 98.2154 108.224 98.3927 108.765 98.7474C109.316 99.0927 109.741 99.5501 110.039 100.119C110.347 100.679 110.501 101.286 110.501 101.939C110.501 102.033 110.497 102.126 110.487 102.219C110.487 102.303 110.483 102.369 110.473 102.415H104.411C104.449 102.891 104.579 103.316 104.803 103.689C105.037 104.053 105.335 104.343 105.699 104.557C106.063 104.763 106.455 104.865 106.875 104.865C107.323 104.865 107.743 104.753 108.135 104.529C108.537 104.305 108.812 104.011 108.961 103.647L110.025 103.941C109.867 104.296 109.629 104.613 109.311 104.893C109.003 105.173 108.635 105.393 108.205 105.551C107.785 105.71 107.328 105.789 106.833 105.789ZM104.369 101.561H109.353C109.316 101.085 109.181 100.665 108.947 100.301C108.714 99.9374 108.415 99.6527 108.051 99.4474C107.687 99.2421 107.286 99.1394 106.847 99.1394C106.418 99.1394 106.021 99.2421 105.657 99.4474C105.293 99.6527 104.995 99.9374 104.761 100.301C104.537 100.665 104.407 101.085 104.369 101.561ZM111.899 95.4294H113.131V103.759C113.131 104.161 113.187 104.408 113.299 104.501C113.411 104.595 113.546 104.641 113.705 104.641C113.901 104.641 114.088 104.623 114.265 104.585C114.442 104.539 114.592 104.492 114.713 104.445L114.909 105.453C114.704 105.537 114.461 105.607 114.181 105.663C113.901 105.719 113.654 105.747 113.439 105.747C112.963 105.747 112.585 105.612 112.305 105.341C112.034 105.071 111.899 104.693 111.899 104.207V95.4294ZM119.111 105.789C118.56 105.789 118.056 105.691 117.599 105.495C117.151 105.29 116.759 105.015 116.423 104.669C116.096 104.315 115.839 103.909 115.653 103.451C115.475 102.994 115.387 102.509 115.387 101.995C115.387 101.305 115.545 100.675 115.863 100.105C116.18 99.5361 116.619 99.0787 117.179 98.7334C117.748 98.3881 118.397 98.2154 119.125 98.2154C119.862 98.2154 120.501 98.3927 121.043 98.7474C121.593 99.0927 122.018 99.5501 122.317 100.119C122.625 100.679 122.779 101.286 122.779 101.939C122.779 102.033 122.774 102.126 122.765 102.219C122.765 102.303 122.76 102.369 122.751 102.415H116.689C116.726 102.891 116.857 103.316 117.081 103.689C117.314 104.053 117.613 104.343 117.977 104.557C118.341 104.763 118.733 104.865 119.153 104.865C119.601 104.865 120.021 104.753 120.413 104.529C120.814 104.305 121.089 104.011 121.239 103.647L122.303 103.941C122.144 104.296 121.906 104.613 121.589 104.893C121.281 105.173 120.912 105.393 120.483 105.551C120.063 105.71 119.605 105.789 119.111 105.789ZM116.647 101.561H121.631C121.593 101.085 121.458 100.665 121.225 100.301C120.991 99.9374 120.693 99.6527 120.329 99.4474C119.965 99.2421 119.563 99.1394 119.125 99.1394C118.695 99.1394 118.299 99.2421 117.935 99.4474C117.571 99.6527 117.272 99.9374 117.039 100.301C116.815 100.665 116.684 101.085 116.647 101.561ZM127.382 105.789C126.832 105.789 126.328 105.691 125.87 105.495C125.422 105.29 125.03 105.01 124.694 104.655C124.368 104.301 124.111 103.895 123.924 103.437C123.747 102.98 123.658 102.495 123.658 101.981C123.658 101.291 123.812 100.661 124.12 100.091C124.428 99.5221 124.862 99.0694 125.422 98.7334C125.982 98.3881 126.631 98.2154 127.368 98.2154C128.087 98.2154 128.712 98.3787 129.244 98.7054C129.786 99.0227 130.187 99.4521 130.448 99.9934L129.244 100.371C129.058 100.026 128.796 99.7601 128.46 99.5734C128.124 99.3774 127.751 99.2794 127.34 99.2794C126.892 99.2794 126.482 99.3961 126.108 99.6294C125.744 99.8627 125.455 100.185 125.24 100.595C125.026 100.997 124.918 101.459 124.918 101.981C124.918 102.495 125.026 102.961 125.24 103.381C125.464 103.792 125.758 104.119 126.122 104.361C126.496 104.604 126.906 104.725 127.354 104.725C127.644 104.725 127.919 104.674 128.18 104.571C128.451 104.469 128.684 104.333 128.88 104.165C129.086 103.988 129.226 103.797 129.3 103.591L130.504 103.955C130.355 104.31 130.126 104.627 129.818 104.907C129.52 105.178 129.16 105.393 128.74 105.551C128.33 105.71 127.877 105.789 127.382 105.789ZM135.68 105.285C135.578 105.332 135.438 105.393 135.26 105.467C135.083 105.542 134.878 105.607 134.644 105.663C134.411 105.719 134.164 105.747 133.902 105.747C133.604 105.747 133.328 105.696 133.076 105.593C132.824 105.481 132.624 105.313 132.474 105.089C132.325 104.856 132.25 104.567 132.25 104.221V99.3074H131.256V98.3414H132.25V95.9054H133.482V98.3414H135.12V99.3074H133.482V103.843C133.501 104.105 133.59 104.301 133.748 104.431C133.907 104.553 134.094 104.613 134.308 104.613C134.551 104.613 134.775 104.571 134.98 104.487C135.186 104.403 135.321 104.343 135.386 104.305L135.68 105.285ZM139.96 105.789C139.41 105.789 138.906 105.691 138.448 105.495C138 105.29 137.608 105.015 137.272 104.669C136.946 104.315 136.689 103.909 136.502 103.451C136.325 102.994 136.236 102.509 136.236 101.995C136.236 101.305 136.395 100.675 136.712 100.105C137.03 99.5361 137.468 99.0787 138.028 98.7334C138.598 98.3881 139.246 98.2154 139.974 98.2154C140.712 98.2154 141.351 98.3927 141.892 98.7474C142.443 99.0927 142.868 99.5501 143.166 100.119C143.474 100.679 143.628 101.286 143.628 101.939C143.628 102.033 143.624 102.126 143.614 102.219C143.614 102.303 143.61 102.369 143.6 102.415H137.538C137.576 102.891 137.706 103.316 137.93 103.689C138.164 104.053 138.462 104.343 138.826 104.557C139.19 104.763 139.582 104.865 140.002 104.865C140.45 104.865 140.87 104.753 141.262 104.529C141.664 104.305 141.939 104.011 142.088 103.647L143.152 103.941C142.994 104.296 142.756 104.613 142.438 104.893C142.13 105.173 141.762 105.393 141.332 105.551C140.912 105.71 140.455 105.789 139.96 105.789ZM137.496 101.561H142.48C142.443 101.085 142.308 100.665 142.074 100.301C141.841 99.9374 141.542 99.6527 141.178 99.4474C140.814 99.2421 140.413 99.1394 139.974 99.1394C139.545 99.1394 139.148 99.2421 138.784 99.4474C138.42 99.6527 138.122 99.9374 137.888 100.301C137.664 100.665 137.534 101.085 137.496 101.561ZM144.522 102.009C144.522 101.319 144.662 100.689 144.942 100.119C145.231 99.5407 145.623 99.0787 146.118 98.7334C146.622 98.3881 147.196 98.2154 147.84 98.2154C148.428 98.2154 148.955 98.3694 149.422 98.6774C149.889 98.9854 150.253 99.3587 150.514 99.7974V95.4294H151.746V104.249C151.746 104.399 151.774 104.511 151.83 104.585C151.895 104.651 151.998 104.688 152.138 104.697V105.649C151.905 105.687 151.723 105.705 151.592 105.705C151.349 105.705 151.135 105.621 150.948 105.453C150.771 105.285 150.682 105.099 150.682 104.893V104.277C150.393 104.744 150.005 105.113 149.52 105.383C149.035 105.654 148.531 105.789 148.008 105.789C147.504 105.789 147.037 105.691 146.608 105.495C146.188 105.29 145.819 105.01 145.502 104.655C145.194 104.301 144.951 103.899 144.774 103.451C144.606 102.994 144.522 102.513 144.522 102.009ZM150.514 103.087V100.987C150.402 100.67 150.22 100.385 149.968 100.133C149.716 99.8721 149.431 99.6667 149.114 99.5174C148.806 99.3587 148.498 99.2794 148.19 99.2794C147.826 99.2794 147.495 99.3587 147.196 99.5174C146.907 99.6667 146.655 99.8721 146.44 100.133C146.235 100.385 146.076 100.675 145.964 101.001C145.852 101.328 145.796 101.669 145.796 102.023C145.796 102.387 145.857 102.733 145.978 103.059C146.109 103.386 146.286 103.675 146.51 103.927C146.743 104.179 147.009 104.375 147.308 104.515C147.616 104.655 147.947 104.725 148.302 104.725C148.526 104.725 148.755 104.683 148.988 104.599C149.231 104.515 149.459 104.399 149.674 104.249C149.889 104.1 150.071 103.927 150.22 103.731C150.369 103.526 150.467 103.311 150.514 103.087Z" fill="white"/>
</g>
<defs>
<filter id="filter0_b_134_4222" x="-22" y="-21.3506" width="260" height="173" filterUnits="userSpaceOnUse" color-interpolation-filters="sRGB">
<feFlood flood-opacity="0" result="BackgroundImageFix"/>
<feGaussianBlur in="BackgroundImageFix" stdDeviation="11"/>
<feComposite in2="SourceAlpha" operator="in" result="effect1_backgroundBlur_134_4222"/>
<feBlend mode="normal" in="SourceGraphic" in2="effect1_backgroundBlur_134_4222" result="shape"/>
</filter>
</defs>
</svg>
