<svg width="79" height="41" viewBox="0 0 79 41" fill="none" xmlns="http://www.w3.org/2000/svg">
<g clip-path="url(#clip0_189_3250)">
<g opacity="0.7">
<path fill-rule="evenodd" clip-rule="evenodd" d="M1.13721 27.0605V33.0533H4.97388V31.7075H2.75956V30.6353H4.77246V29.2889H2.75956V28.4105H4.95791V27.0605H1.13721Z" fill="white"/>
<path fill-rule="evenodd" clip-rule="evenodd" d="M7.80479 29.6546L9.58434 33.0536H11.3608V27.0602H9.78944V30.4592L8.01787 27.0602H6.2334V33.0536H7.80479V29.6546Z" fill="white"/>
<path fill-rule="evenodd" clip-rule="evenodd" d="M16.6384 31.7072H14.4247V30.6356H16.437V29.2892H14.4247V28.4102H16.6225V27.0602H12.8018V33.0536H16.6384V31.7072Z" fill="white"/>
<path fill-rule="evenodd" clip-rule="evenodd" d="M19.6292 29.4164H19.5027V28.4102H19.6292C20.0419 28.4102 20.2476 28.4594 20.3428 28.4978C20.5092 28.5698 20.5798 28.6868 20.5798 28.8884C20.5798 29.0462 20.5798 29.4164 19.6292 29.4164ZM19.5027 30.7628H19.6212C19.7864 30.7628 19.9129 30.7904 19.9756 30.8408C20.005 30.8636 20.0824 30.9422 20.1782 31.1804L20.9175 33.0536H22.7094L21.6673 30.5678C21.5967 30.3986 21.5144 30.2588 21.4198 30.149C21.5948 30.0626 21.7484 29.945 21.8785 29.7974C22.1248 29.5196 22.25 29.1824 22.25 28.796C22.25 28.0226 21.8927 27.4874 21.2166 27.2486C20.8629 27.122 20.2519 27.0602 19.3486 27.0602H17.8804V33.0536H19.5027V30.7628Z" fill="white"/>
<path fill-rule="evenodd" clip-rule="evenodd" d="M24.1495 32.4097C24.7347 32.9005 25.5404 33.1501 26.5432 33.1501C27.0627 33.1501 27.6976 33.0511 28.4308 32.8561L28.6113 32.8081V29.4162H25.8444V30.7627H27.0399V31.7653C26.8895 31.7881 26.7231 31.7995 26.5432 31.7995C26.0206 31.7995 25.6196 31.641 25.3138 31.3134C25.0154 30.9966 24.8698 30.5905 24.8698 30.0721C24.8698 29.5471 25.0209 29.1355 25.3316 28.8139C25.6577 28.4773 26.0949 28.3141 26.6697 28.3141C27.1701 28.3141 27.6258 28.4053 28.023 28.5847L28.3436 28.7305L28.4553 27.2605L28.2668 27.2053C27.7283 27.0475 27.148 26.9677 26.5432 26.9677C25.514 26.9677 24.6936 27.2473 24.1041 27.7981C23.5042 28.3621 23.2002 29.1541 23.2002 30.1531C23.2002 31.1245 23.5195 31.8841 24.1495 32.4097Z" fill="white"/>
<path fill-rule="evenodd" clip-rule="evenodd" d="M31.4163 33.0533H33.035V30.7007L35.2407 27.0605H33.4728L32.2594 29.1323L31.0669 27.0605H29.167L31.4163 30.7019V33.0533Z" fill="white"/>
<path fill-rule="evenodd" clip-rule="evenodd" d="M39.7026 30.2971C39.7395 30.3217 39.8076 30.3673 40.9326 30.8539C41.2605 30.9967 41.4269 31.1563 41.4269 31.3297C41.4269 31.4263 41.4017 31.5522 41.2083 31.6668C41.053 31.7562 40.8779 31.7995 40.6735 31.7995C40.2927 31.7995 39.9016 31.6951 39.511 31.4893L39.1893 31.3195L39.0222 32.8765L39.2292 32.9269C39.8377 33.0745 40.3443 33.1501 40.7367 33.1501C41.406 33.1501 41.9532 33.0066 42.3609 32.7246C42.8491 32.391 43.0966 31.8913 43.0966 31.2409C43.0966 30.6307 42.8466 30.1507 42.3542 29.8152C42.2682 29.7559 42.0502 29.6389 41.1156 29.2579C40.9326 29.1829 40.6262 29.0293 40.6262 28.8421C40.6262 28.5889 40.7367 28.4857 40.8208 28.4293C40.9338 28.3531 41.0849 28.3141 41.2691 28.3141C41.6253 28.3141 41.979 28.3879 42.3198 28.5331L42.6231 28.6627L42.7901 27.2377L42.6016 27.1765C42.173 27.0379 41.6916 26.9677 41.1709 26.9677C40.5648 26.9677 40.0588 27.1105 39.667 27.3931C39.1954 27.7345 38.9565 28.2379 38.9565 28.8883C38.9565 29.4919 39.2071 29.9653 39.7026 30.2971Z" fill="white"/>
<path fill-rule="evenodd" clip-rule="evenodd" d="M45.7444 33.0533H47.3631V30.7007L49.5688 27.0605H47.8009L46.5875 29.1323L45.3944 27.0605H43.4951L45.7444 30.7019V33.0533Z" fill="white"/>
<path fill-rule="evenodd" clip-rule="evenodd" d="M50.6592 30.2971C50.696 30.3217 50.7642 30.3673 51.8891 30.8539C52.2177 30.9967 52.3835 31.1563 52.3835 31.3297C52.3835 31.4263 52.3583 31.5522 52.1649 31.6668C52.0095 31.7562 51.8345 31.7995 51.63 31.7995C51.2493 31.7995 50.8581 31.6951 50.4676 31.4893L50.1458 31.3195L49.9788 32.8765L50.1857 32.9269C50.7943 33.0745 51.3009 33.1501 51.6933 33.1501C52.3626 33.1501 52.9097 33.0066 53.3175 32.7246C53.8056 32.391 54.0531 31.8913 54.0531 31.2409C54.0531 30.6307 53.8032 30.1507 53.3107 29.8152C53.2247 29.7559 53.0067 29.6389 52.0721 29.2579C51.8891 29.1829 51.5827 29.0293 51.5827 28.8421C51.5827 28.5889 51.6933 28.4857 51.7774 28.4293C51.8904 28.3531 52.0408 28.3141 52.2256 28.3141C52.5818 28.3141 52.9355 28.3879 53.2763 28.5331L53.5797 28.6627L53.7467 27.2377L53.5582 27.1765C53.1296 27.0379 52.6481 26.9677 52.1274 26.9677C51.5213 26.9677 51.0153 27.1105 50.6236 27.3931C50.152 27.7345 49.9131 28.2379 49.9131 28.8883C49.9131 29.4919 50.1636 29.9653 50.6592 30.2971Z" fill="white"/>
<path fill-rule="evenodd" clip-rule="evenodd" d="M56.2709 33.0533H57.8932V28.4105H59.5076V27.0605H54.6528V28.4105H56.2709V33.0533Z" fill="white"/>
<path fill-rule="evenodd" clip-rule="evenodd" d="M64.2458 31.7072H62.0315V30.6356H64.0444V29.2892H62.0315V28.4102H64.2299V27.0602H60.4092V33.0536H64.2458V31.7072Z" fill="white"/>
<path fill-rule="evenodd" clip-rule="evenodd" d="M67.1007 29.7214L68.2134 33.0532H69.654L70.7666 29.7214V33.0532H72.338V27.0604H70.1059L68.9355 30.7048L67.7657 27.0604H65.5293V33.0532H67.1007V29.7214Z" fill="white"/>
<mask id="mask0_189_3250" style="mask-type:luminance" maskUnits="userSpaceOnUse" x="73" y="26" width="5" height="8">
<g opacity="0.7">
<path d="M73.5938 26.9678H77.7341V33.1502H73.5938V26.9678Z" fill="white"/>
</g>
</mask>
<g mask="url(#mask0_189_3250)">
<path fill-rule="evenodd" clip-rule="evenodd" d="M75.8455 31.667C75.6902 31.7564 75.5152 31.7996 75.3107 31.7996C74.93 31.7996 74.5394 31.6952 74.1482 31.4894L73.8265 31.319L73.6595 32.8766L73.8664 32.927C74.4749 33.0746 74.9821 33.1502 75.3739 33.1502C76.0439 33.1502 76.5904 33.0068 76.9981 32.7248C77.4863 32.3912 77.7344 31.8914 77.7344 31.241C77.7344 30.6308 77.4838 30.1508 76.9914 29.8154C76.906 29.756 76.6874 29.639 75.7528 29.258C75.5698 29.183 75.2634 29.0294 75.2634 28.8422C75.2634 28.589 75.3739 28.4858 75.4587 28.4294C75.571 28.3532 75.7221 28.3142 75.9069 28.3142C76.2631 28.3142 76.6162 28.388 76.9576 28.5332L77.2609 28.6628L77.428 27.2378L77.2388 27.1766C76.8108 27.038 76.3294 26.9678 75.8081 26.9678C75.202 26.9678 74.696 27.1106 74.3042 27.3926C73.8326 27.7346 73.5938 28.238 73.5938 28.8884C73.5938 29.492 73.8449 29.9654 74.3398 30.2972C74.3767 30.3218 74.4455 30.3668 75.5704 30.854C75.8983 30.9962 76.0641 31.1564 76.0641 31.3298C76.0641 31.4264 76.039 31.5524 75.8455 31.667Z" fill="white"/>
</g>
<path fill-rule="evenodd" clip-rule="evenodd" d="M14.7351 39.0065H12.5447V34.3595H10.9224V40.3529H14.7351V39.0065Z" fill="white"/>
<path fill-rule="evenodd" clip-rule="evenodd" d="M18.7763 37.7417H17.8172L18.2968 36.4067L18.7763 37.7417ZM19.127 34.3595H17.5138L15.1245 40.3529H16.8236L17.3173 39.0881H19.2676L19.7533 40.3529H21.5335L19.127 34.3595Z" fill="white"/>
<path fill-rule="evenodd" clip-rule="evenodd" d="M24.0215 36.5886H23.8084V35.7102H23.9975C24.3721 35.7102 24.5532 35.7552 24.6392 35.793C24.7418 35.838 24.8462 35.916 24.8462 36.1572C24.8462 36.2862 24.8462 36.5886 24.0215 36.5886ZM25.0156 38.4786C25.0156 38.6364 25.0156 39.0066 24.0964 39.0066H23.8084V37.8888H24.0964C25.0156 37.8888 25.0156 38.3016 25.0156 38.4786ZM25.7838 40.044C26.3482 39.7326 26.6343 39.2184 26.6343 38.517C26.6343 38.1132 26.49 37.7688 26.2045 37.4922C26.0909 37.383 25.9638 37.2918 25.8225 37.2198C25.922 37.1538 26.0135 37.0764 26.0952 36.9888C26.3402 36.726 26.4648 36.3984 26.4648 36.0144C26.4648 35.3874 26.2094 34.9266 25.7065 34.6458C25.3675 34.4562 24.9297 34.3596 24.4046 34.3596H22.186V40.353H24.4046C24.9499 40.353 25.4142 40.2492 25.7838 40.044Z" fill="white"/>
<path fill-rule="evenodd" clip-rule="evenodd" d="M29.3689 36.1292C29.6096 35.7818 29.9406 35.6138 30.3815 35.6138C30.8224 35.6138 31.1521 35.7818 31.3904 36.1292C31.6084 36.4442 31.7195 36.8522 31.7195 37.3412C31.7195 37.8488 31.6121 38.2664 31.4002 38.5826C31.1675 38.93 30.8347 39.0992 30.3815 39.0992C29.9265 39.0992 29.5918 38.93 29.3591 38.5826C29.1478 38.2664 29.0398 37.8488 29.0398 37.3412C29.0398 36.8522 29.1509 36.4442 29.3689 36.1292ZM32.6062 35.135C32.0659 34.559 31.3173 34.2668 30.3815 34.2668C29.4328 34.2668 28.6805 34.5566 28.1451 35.1272C27.6311 35.6744 27.3701 36.419 27.3701 37.3412C27.3701 38.267 27.628 39.0158 28.1352 39.5678C28.6738 40.1528 29.4297 40.4492 30.3815 40.4492C31.321 40.4492 32.0726 40.1504 32.6167 39.56C33.1294 39.0002 33.3892 38.2538 33.3892 37.3412C33.3892 36.4322 33.1263 35.6906 32.6062 35.135Z" fill="white"/>
<path fill-rule="evenodd" clip-rule="evenodd" d="M37.1081 36.1878C37.1081 36.3462 37.1081 36.7158 36.1569 36.7158H36.031V35.7102H36.1569C36.5702 35.7102 36.7759 35.7588 36.8711 35.7972C37.0369 35.8692 37.1081 35.9862 37.1081 36.1878ZM38.1956 37.8678C38.125 37.698 38.0421 37.5582 37.9482 37.4484C38.1225 37.362 38.2761 37.2444 38.4062 37.0968C38.6531 36.819 38.7778 36.4824 38.7778 36.0954C38.7778 35.322 38.4204 34.7868 37.7449 34.548C37.3906 34.4214 36.7796 34.3596 35.8769 34.3596H34.4087V40.353H36.031V38.0622H36.1489C36.3147 38.0622 36.4406 38.0898 36.5039 38.1396C36.5327 38.163 36.6101 38.2416 36.7059 38.4798L37.4452 40.353H39.2377L38.1956 37.8678Z" fill="white"/>
<path fill-rule="evenodd" clip-rule="evenodd" d="M43.2007 37.7417H42.2415L42.7211 36.4067L43.2007 37.7417ZM45.9578 40.3529L43.5513 34.3595H41.9382L39.5488 40.3529H41.2479L41.7416 39.0881H43.6919L44.1776 40.3529H45.9578Z" fill="white"/>
<path fill-rule="evenodd" clip-rule="evenodd" d="M48.7009 40.353V35.7102H50.3152V34.3596H45.4604V35.7102H47.0779V40.353H48.7009Z" fill="white"/>
<path fill-rule="evenodd" clip-rule="evenodd" d="M52.7048 36.1292C52.9455 35.7818 53.2765 35.6138 53.7174 35.6138C54.1583 35.6138 54.4881 35.7818 54.7263 36.1292C54.9443 36.4442 55.0555 36.8522 55.0555 37.3412C55.0555 37.8488 54.948 38.2664 54.7362 38.5826C54.5034 38.93 54.17 39.0992 53.7174 39.0992C53.2624 39.0992 52.9277 38.93 52.695 38.5826C52.4832 38.2664 52.3757 37.8488 52.3757 37.3412C52.3757 36.8522 52.4868 36.4442 52.7048 36.1292ZM55.9526 39.56C56.4654 39.0002 56.7251 38.2538 56.7251 37.3412C56.7251 36.4322 56.4617 35.6906 55.9422 35.135C55.4018 34.559 54.6533 34.2668 53.7174 34.2668C52.7687 34.2668 52.0159 34.5566 51.481 35.1272C50.9664 35.6744 50.7061 36.419 50.7061 37.3412C50.7061 38.267 50.9633 39.0158 51.4712 39.5678C52.0097 40.1528 52.765 40.4492 53.7174 40.4492C54.6569 40.4492 55.4086 40.1504 55.9526 39.56Z" fill="white"/>
<path fill-rule="evenodd" clip-rule="evenodd" d="M59.493 36.7161H59.3665V35.7099H59.493C59.9056 35.7099 60.1114 35.7585 60.2065 35.7975C60.3729 35.8695 60.4436 35.9865 60.4436 36.1881C60.4436 36.3459 60.4436 36.7161 59.493 36.7161ZM60.042 38.4795L60.7813 40.3533H62.5731L61.5311 37.8675C61.4605 37.6983 61.3782 37.5585 61.2842 37.4481C61.4586 37.3617 61.6121 37.2441 61.7423 37.0965C61.9885 36.8193 62.1138 36.4821 62.1138 36.0951C62.1138 35.3223 61.7564 34.7871 61.081 34.5477C60.7266 34.4211 60.1157 34.3599 59.2124 34.3599H57.7441V40.3533H59.3665V38.0625H59.485C59.6508 38.0625 59.7767 38.0901 59.8399 38.1399C59.8688 38.1627 59.9462 38.2419 60.042 38.4795Z" fill="white"/>
<path fill-rule="evenodd" clip-rule="evenodd" d="M66.2126 40.353V38.0004L68.4177 34.3596H66.6504L65.437 36.432L64.2439 34.3596H62.3452L64.5939 38.0016V40.353H66.2126Z" fill="white"/>
<path fill-rule="evenodd" clip-rule="evenodd" d="M18.874 5.73486V9.87306H21.579L19.0914 22.4479H23.8602L26.3478 9.87306H59.1375L59.9929 5.73486H18.874Z" fill="white"/>
<path fill-rule="evenodd" clip-rule="evenodd" d="M35.6666 18.177L36.2789 14.9214H31.3221L31.5481 13.7796H36.5091L37.1213 10.7418H28.3003V10.749H27.5757L25.2656 22.4478H26.6031H29.8361H34.8112L35.4235 19.2906H30.4594L30.6792 18.177H35.6666Z" fill="white"/>
<path fill-rule="evenodd" clip-rule="evenodd" d="M46.4357 18.177L47.0479 14.9214H42.0918L42.3172 13.7796H47.2782L47.8904 10.7418H39.07V10.749H38.3454L36.0347 22.4478H37.3721H40.6051H45.5803L46.1925 19.2906H41.229L41.4489 18.177H46.4357Z" fill="white"/>
<path fill-rule="evenodd" clip-rule="evenodd" d="M50.0927 10.7488H49.1237L47.669 18.1138H52.2401L52.0141 19.2556H47.4436L46.813 22.4482H51.3841H56.603L58.089 14.9218H52.8701L53.0961 13.7794H58.3009L58.9131 10.7422H50.0927V10.7488Z" fill="white"/>
<path fill-rule="evenodd" clip-rule="evenodd" d="M39.0057 1.08545L40.7189 5.86025L45.7389 5.86565L41.7597 8.83265L43.4122 13.5996L39.0057 10.6242L34.5998 13.5996L36.2516 8.83265L32.2725 5.86565L37.2924 5.86025L39.0057 1.08545Z" fill="white"/>
<path fill-rule="evenodd" clip-rule="evenodd" d="M39.2832 3.08679L38.2607 6.10899L39.2832 7.12419V3.08679Z" fill="white"/>
<path fill-rule="evenodd" clip-rule="evenodd" d="M34.2935 6.40027L36.9309 8.34427L38.482 7.65907L34.2935 6.40027Z" fill="white"/>
<path fill-rule="evenodd" clip-rule="evenodd" d="M44.1977 6.59595H40.5771L39.9717 7.89195L44.1977 6.59595Z" fill="white"/>
<path fill-rule="evenodd" clip-rule="evenodd" d="M36.3755 11.5635L39.0381 9.70471V8.07031L36.3755 11.5635Z" fill="white"/>
<path fill-rule="evenodd" clip-rule="evenodd" d="M42.4116 12.041L41.0582 8.76265L39.3032 8.16565L42.4116 12.041Z" fill="white"/>
<path fill-rule="evenodd" clip-rule="evenodd" d="M36.536 8.83012C36.5446 8.80612 36.536 8.77972 36.5158 8.76412L32.7878 5.98432L37.4915 5.97892C37.5167 5.97892 37.54 5.96332 37.548 5.93932L39.1612 1.44532L40.7737 5.93932C40.7823 5.96332 40.805 5.97892 40.8308 5.97892L45.5339 5.98432L41.8065 8.76412C41.7857 8.77972 41.7771 8.80612 41.7857 8.83012L43.3337 13.2971L39.1955 10.5029C39.1747 10.4885 39.147 10.4885 39.1268 10.5029L34.988 13.2971L36.536 8.83012ZM46.1326 5.78692C46.124 5.76292 46.1013 5.74672 46.0755 5.74672L40.961 5.74132L39.2183 0.884915C39.2011 0.837515 39.1206 0.837515 39.104 0.884915L37.3613 5.74132L32.2468 5.74672C32.221 5.74672 32.1977 5.76292 32.1891 5.78692C32.1811 5.81092 32.1891 5.83732 32.21 5.85292L36.2634 8.87572L34.5796 13.7321C34.5716 13.7567 34.5796 13.7831 34.6005 13.7987C34.6214 13.8143 34.6502 13.8149 34.6717 13.7999L39.1612 10.7687L43.65 13.7999C43.6604 13.8071 43.6727 13.8108 43.6843 13.8108C43.6972 13.8108 43.7101 13.8065 43.7212 13.7987C43.7421 13.7831 43.7507 13.7567 43.7421 13.7321L42.0589 8.87572L46.1117 5.85292C46.1326 5.83732 46.1412 5.81092 46.1326 5.78692Z" fill="white"/>
</g>
</g>
<defs>
<clipPath id="clip0_189_3250">
<rect width="77.3333" height="40" fill="white" transform="translate(0.849609 0.649414)"/>
</clipPath>
</defs>
</svg>
