<svg width="187" height="177" viewBox="0 0 187 177" fill="none" xmlns="http://www.w3.org/2000/svg">
<g clip-path="url(#clip0_134_3461)">
<path d="M77.5524 101.69C77.1088 101.423 76.4964 102.424 76.3436 102.674C76.787 102.942 77.3607 102.003 77.5524 101.69L78.3271 101.558C78.3654 101.496 78.4801 101.308 78.5435 101.346C78.7336 101.461 78.5424 101.774 78.5042 101.836L77.7792 102.17L77.7027 102.295C77.5497 102.545 77.3465 102.594 77.093 102.441L75.8328 103.651L75.2864 103.835C75.4766 103.95 75.387 104.238 75.3105 104.363C75.4372 104.44 75.4624 104.541 75.4241 104.603C75.2712 104.853 74.8013 104.913 74.5593 105.024C74.4446 105.212 74.2282 105.424 73.9998 105.372C73.8851 105.559 73.6688 105.771 73.4406 105.719L72.4479 106.491L72.2053 107.029C72.649 107.297 72.9418 106.96 73.2346 106.622L73.7934 106.703C73.9081 106.515 74.4435 105.639 74.7352 105.729C75.0412 105.229 75.9071 104.381 76.3506 104.649C76.5669 104.437 77.3695 103.55 77.6864 103.741C77.8393 103.491 78.0557 103.279 78.297 103.168C78.4117 102.98 78.6663 102.706 78.9329 102.695L80.2053 101.75L81.4136 100.766C81.5541 100.679 83.4383 98.7324 83.8184 98.9623L85.0903 98.0164C85.3951 97.9434 85.612 97.7314 85.765 97.4811C86.0817 97.6728 86.1713 97.3843 86.286 97.1965C86.439 96.9462 86.769 96.9739 86.9602 96.661L87.3667 96.5636L87.6732 96.0631L89.0967 95.2951C89.465 95.2603 91.2956 94.395 91.4486 94.1447L92.0462 93.7344L93.2039 92.9764C93.4714 92.5389 93.8014 92.5667 93.9926 92.2538L94.7941 91.7949L95.3274 91.7739L95.961 92.1567L96.2025 92.0454L96.7729 92.3894L97.116 92.2538L98.8915 92.897C99.0827 92.5841 99.8562 92.88 100.11 93.0329C100.313 92.9842 100.529 92.7721 100.644 92.5843L100.43 91.9413C100.176 91.7884 100.024 91.6111 99.9495 91.3089L99.1258 90.8114C99.5574 90.8148 100.192 90.77 100.572 90.9994C101.233 90.6273 101.831 90.2169 102.606 90.0854L103.19 90.266C103.381 89.9531 104.383 90.3011 104.636 90.4539C105.068 90.4573 105.664 90.4746 106.045 90.7039L106.388 90.5688L106.958 90.9128L107.326 90.878C107.77 91.1455 110.434 91.8969 110.65 91.6848C110.536 91.445 110.346 91.3303 110.156 91.2156C109.776 90.9857 109.623 91.2361 109.306 91.0449L108.836 91.1041L107.886 90.5302L107.226 90.4748C106.909 90.2837 106.035 89.5846 105.615 89.8454L104.031 88.8893L104.844 88.6951C105.161 88.8861 105.961 88.8548 106.191 88.4793L106 88.3646C105.747 88.2117 105.823 88.0866 105.938 87.8988L105.99 87.2453C107.081 87.7323 108.566 87.8571 109.733 88.2189C110.024 88.3092 112.015 89.1679 112.206 88.855C112.397 88.9697 112.752 89.0988 112.993 88.9875C113.5 89.2933 116.936 90.7675 117.153 90.5554C117.279 90.6318 117.786 90.9376 117.901 90.7499L117.876 90.6491L116.925 90.0757C117.194 89.6378 116.382 89.4046 116.128 89.2517C115.431 88.8312 114.811 88.285 113.947 88.2783L113.784 87.8368L112.58 87.11L112.236 87.2457C111.514 86.7244 110.628 86.1889 109.752 85.918L109.259 85.4482L108.915 85.5839L108.345 85.2399C108.243 85.2642 108.002 85.3755 107.939 85.3373C107.812 85.2609 107.888 85.1357 107.927 85.0731C107.178 84.8781 106.544 84.4958 105.847 84.0748C105.784 84.0366 105.404 83.8072 105.442 83.7447C105.557 83.5569 105.887 83.5847 106.001 83.3969C106.268 83.387 106.523 83.1125 106.638 82.9247L107.006 82.8899L107.35 82.3267C107.667 82.5178 107.871 82.0415 107.986 81.8538C108.178 81.541 108.584 81.4439 108.775 81.131L109.322 80.9468C109.512 81.0615 109.563 80.8355 109.64 80.7104C109.716 80.5852 109.881 80.5991 110.008 80.6756C110.353 80.1126 111.026 80.0049 111.332 79.5043C111.395 79.5425 111.725 79.5704 111.763 79.5078C111.801 79.4452 111.611 79.3305 111.611 79.3305L111.511 78.9272L112.07 78.5796C111.945 78.0757 112.515 78.4199 112.415 78.0166L112.326 77.8775L112.861 77.4291L113.509 77.2205C113.483 77.1197 113.433 76.9181 113.51 76.7931C113.548 76.7305 115.021 76.5915 115.123 76.5672L114.947 75.8614C115.378 75.865 115.405 75.5382 115.71 75.4654L116.283 74.9543C116.816 74.9335 117.172 74.6346 117.705 74.6137C118.011 74.1131 118.444 73.6892 118.877 73.265L119.563 72.9939C119.626 73.0322 119.753 73.1086 119.83 72.9835C119.944 72.7958 119.87 72.4935 119.858 72.2293L118.461 72.243L118.997 71.3671C118.946 71.1655 118.934 70.9012 119.049 70.7135C119.125 70.5884 119.227 70.564 119.354 70.6405L120.398 69.643C120.715 69.8342 120.982 69.3962 121.097 69.2085C121.174 69.0833 121.748 68.1449 121.558 68.0301C121.051 67.7242 119.459 69.3336 119.396 69.2953C119.333 69.2571 119.409 69.1319 119.409 69.1319C119.524 68.9442 119.613 68.6557 119.461 68.4784L120.098 68.0057L119.972 67.5017C120.125 67.2513 120.405 67.0776 120.671 67.0672L121.754 66.0071C122.122 65.9723 122.085 65.6073 121.971 65.3674C122.403 65.3709 122.785 65.1729 123.216 65.1764C123.229 65.013 123.204 64.9122 123.281 64.7871C123.472 64.4742 123.815 64.3386 124.12 64.2656C124.399 64.0918 124.616 63.8798 124.769 63.6296C124.807 63.5671 124.846 63.5045 124.782 63.4662C124.656 63.3898 124.592 63.3515 124.491 63.3758L122.011 64.8774C121.744 64.8878 121.794 65.0893 121.679 65.277C121.565 65.4647 120.803 65.4334 120.523 65.6072C120.232 65.5168 119.914 65.7532 119.824 66.0417L119.024 66.073C119.164 65.9861 119.342 65.8366 119.419 65.7114C119.457 65.6489 119.495 65.5863 119.432 65.5481C119.242 65.4333 118.619 65.7427 118.479 65.8296L117.845 65.4472C118.049 65.3985 118.392 65.2629 118.506 65.0752L118.596 64.7867L118.419 64.5086L118.495 64.3834C118.61 64.1957 118.852 64.0846 119.055 64.0359L119.298 63.4971C119.4 63.4728 119.565 63.4867 119.641 63.3615C119.756 63.1738 119.477 62.9201 119.35 62.8436C119.693 62.708 120.583 62.3883 120.648 61.999L121.97 61.2551L121.983 61.0917C122.213 60.7164 122.949 60.6469 122.989 60.1567L123.205 59.9447C123.205 59.9447 123.282 59.8195 123.218 59.7813L123.053 59.7674C122.379 60.3027 121.616 60.699 120.828 60.9943L120.841 60.8309C121.071 60.4556 121.719 60.2471 122.1 60.049L122.686 59.3746C122.953 59.3641 124.109 59.0341 124.097 58.7699C124.161 58.8081 124.262 58.7838 124.3 58.7212C124.377 58.5961 124.225 58.4187 124.2 58.3179L123.604 57.8729C124.164 57.5254 126.225 55.857 126.759 55.8362L126.848 55.5476C126.963 55.3599 127.128 55.3738 127.293 55.3878L127.612 54.7238L128.057 54.5639L127.993 54.5256C127.93 54.4875 128.007 54.3624 128.007 54.3624C128.275 53.9244 128.974 53.4899 129.432 53.1665C129.063 53.2013 126.8 54.4908 126.762 54.5534L126.787 54.6542C126.596 54.9671 125.238 54.9183 125.363 55.4224C124.894 55.4815 123.141 55.7941 122.949 56.107C122.721 56.0548 122.086 56.1 122.225 56.4408L121.094 56.8716L120.661 57.2957C120.458 57.3444 119.416 57.4868 119.467 57.6885L118.882 57.9353C118.907 58.0361 118.894 58.1994 118.855 58.2619C118.702 58.5122 115.132 59.527 114.637 59.4852C114.421 59.6973 114.738 59.8885 114.661 60.0137C114.585 60.1388 113.912 60.2466 113.709 60.2952L113.657 60.5212C113.504 60.7714 113.021 60.9938 112.779 61.1051C112.678 61.1294 112.576 61.1537 112.538 61.2163C112.461 61.3414 112.233 61.2893 112.132 61.3136C112.118 61.477 112.105 61.6404 112.029 61.7655C111.686 61.9011 108.951 63.6771 108.861 63.9657L108.506 63.837C107.338 63.903 106.765 64.8416 106.064 65.7036C105.797 65.714 105.505 65.6236 105.252 65.4706C104.935 65.2794 104.946 65.9712 104.376 65.627C104.096 65.8008 103.753 65.9364 103.385 65.9712L103.561 66.2491L103.155 66.3464C103.002 66.5967 102.811 66.9096 102.721 67.1981C102.493 67.146 101.297 67.9662 101.055 68.0774L101.042 68.2408C100.851 68.5537 99.671 68.3555 99.7716 68.7588L97.7235 70.2638L97.8 70.1387C97.5465 69.9857 97.4569 70.2743 97.2034 70.1213L95.9442 70.9032C95.6273 70.712 95.3968 71.5151 95.2821 71.7028C94.8609 72.391 94.7882 71.2335 94.0993 72.3596C93.9464 72.6099 93.6798 72.6203 93.5268 72.8707L92.2693 73.2252L90.8811 74.7859C90.5375 74.9213 90.1179 75.182 89.9267 75.4949C89.6099 75.3037 89.3805 75.6791 89.3291 75.905L88.5173 75.6721C88.0961 76.3604 86.0819 74.9732 85.7016 74.7438L82.6215 72.9707L81.2754 73.1861C79.6277 72.1918 77.4458 71.6459 75.9385 70.5649L75.6588 70.7387L75.0765 70.1302C74.3914 69.9738 73.478 69.7652 72.8442 69.3827C72.6541 69.268 72.629 69.1672 72.7437 68.9794C73.2507 69.2854 73.8652 67.4292 74.3088 67.6969C74.8158 68.0028 75.1338 67.7664 75.4014 67.3284L75.9608 66.9808C76.2777 67.172 76.6224 66.609 76.6738 66.3831L77.1949 66.098C77.4484 66.251 77.4615 66.0876 77.5762 65.8999C77.6527 65.7747 77.8177 65.7886 77.9445 65.8651C78.0974 65.6148 78.8234 64.8537 79.1403 65.0449C79.3315 64.732 78.8879 64.4643 78.6595 64.4122C78.6344 64.3114 78.6857 64.0854 78.559 64.0089C78.3055 63.8559 77.9362 64.3182 77.7833 64.5686C77.403 64.3391 77.2621 64.8536 77.1092 65.1039L75.685 65.8719L75.3911 66.6368C75.2506 66.7235 74.7033 67.3354 74.5765 67.2589C74.3864 67.1441 74.311 66.8417 74.2607 66.64C73.8281 67.0642 71.7429 68.2042 71.095 68.4127C71.0567 68.4753 70.8273 68.8508 70.7005 68.7743C70.447 68.6213 71.3757 67.8113 70.6273 67.6166C70.8955 67.1788 71.3784 66.9563 71.798 66.6956C71.8362 66.633 71.9127 66.5078 72.0395 66.5843C72.1662 66.6608 72.2416 66.9633 72.2285 67.1266C72.1903 67.1892 72.1138 67.3144 72.2405 67.3909C72.3673 67.4673 72.6721 67.3944 72.812 67.3074C72.8884 67.1823 73.2839 66.3932 73.4861 66.7721C73.7155 66.3966 73.462 66.2437 73.6538 65.931L75.0512 65.4895L76.4383 64.3564C76.4634 64.4572 76.4503 64.6207 76.5137 64.6589C76.6404 64.7354 76.8316 64.4225 76.8698 64.3599C77.0228 64.1097 77.2774 63.835 77.5822 63.762C77.8504 63.3242 78.5218 63.6438 78.9168 63.2825L79.5658 62.6463L80.087 62.3613C80.1252 62.2987 80.2782 62.0484 80.4049 62.1249C80.595 62.2397 80.0728 62.9523 80.0346 63.0149C79.9198 63.2026 79.7035 63.4146 79.4369 63.4251L78.9021 63.8734L79.6756 64.1689L80.4754 64.1376C80.6022 64.2141 80.7038 64.1898 80.7808 64.0648C80.8956 63.877 80.9972 63.8527 81.1873 63.9675L82.3957 62.9836C83.1468 62.3233 84.341 61.9306 84.877 61.0547C84.9152 60.9921 84.8901 60.8913 84.8267 60.8531C84.8016 60.7522 84.8147 60.5888 84.6879 60.5123C84.5612 60.4359 84.4082 60.6861 84.37 60.7487L83.9116 61.0718L83.6581 60.9189L83.2265 60.9154C82.7829 60.6477 82.5776 61.5515 82.134 61.2839C82.0957 61.3464 81.981 61.5342 81.9176 61.4959C81.8543 61.4577 81.8422 61.1934 81.8805 61.1309C82.0968 60.9188 82.6568 60.5714 82.9731 60.7624L83.5593 60.0882C83.8007 59.9769 84.0039 59.9283 84.2705 59.9179L84.9064 59.4451C85.008 59.4208 85.2746 59.4104 85.3129 59.3478C85.4281 59.1602 85.0097 58.9933 84.8829 58.9168C84.6294 58.7639 84.7442 58.5761 84.8589 58.3884C85.1648 57.8878 85.863 57.8809 86.1694 57.3805L86.8174 57.1719L86.8938 57.0468C87.0085 56.859 87.1866 56.7096 87.4401 56.8625L88.3574 55.7885C87.9771 55.5591 88.5234 55.3748 88.7266 55.3262C88.613 55.0863 88.7026 54.7978 88.8173 54.61C88.7922 54.5092 88.6785 54.2694 88.7168 54.2068C88.7938 54.0818 88.9834 54.1963 89.0467 54.2346L89.7214 53.6994L89.4056 53.0806L89.6613 52.3784C89.345 52.1873 89.3712 51.8605 88.991 51.6311C89.5646 50.6924 88.691 49.9938 89.0734 49.3681C89.1117 49.3055 89.3411 48.93 89.2777 48.8918C89.0876 48.7771 88.5402 49.3889 88.2234 49.1977L88.0223 48.3912C87.8442 48.5406 87.5525 48.4502 87.3624 48.3355L87.0947 48.7735C86.7396 48.6449 86.4358 48.2903 86.1954 47.9739C86.0425 48.2242 85.14 48.7074 85.4459 48.2068L84.4953 47.6332C84.2287 47.6435 84.0124 47.8556 83.8977 48.0433L83.0607 47.7096C83.3284 47.2715 82.922 47.3689 82.6805 47.4801C82.6685 47.2159 82.6313 46.8508 82.3637 47.2889C82.0468 47.0977 82.3145 46.6597 82.4926 46.5101C82.5942 46.4858 82.7591 46.4998 82.8362 46.3748C82.9127 46.2496 82.6592 46.0966 82.5958 46.0584L81.9091 46.3293C81.4661 46.0618 81.0438 47.1776 80.3467 46.7569C80.0801 46.7673 79.8758 47.2436 79.7611 47.4313C79.6075 47.6814 79.4295 47.8309 79.176 47.678C78.8318 48.2411 78.1337 48.248 77.8277 48.7486L77.4475 48.5191C77.194 48.3662 77.029 48.3523 76.8761 48.6026L76.291 48.8492C75.9113 48.6199 75.5677 48.7553 75.2508 48.5641C75.0596 48.877 74.7679 48.7866 74.5909 48.5084L74.3604 49.3115C74.4237 49.3497 74.4871 49.388 74.4489 49.4506C74.3341 49.6383 74.0675 49.6487 73.8643 49.6973C73.4841 49.4679 72.9471 50.7713 72.4401 50.4654C71.3726 50.9347 70.3551 51.6055 69.3759 52.2138C69.2228 52.464 68.9694 52.3111 68.7781 52.6239C68.5366 52.7351 68.3202 52.9472 68.1671 53.1974C67.9137 53.0445 67.7989 53.2321 67.5454 53.0792C67.2011 53.6423 66.5028 53.6492 66.1585 54.2124L64.7345 54.9805C64.4284 55.481 63.7685 55.4254 63.4624 55.9259C63.1456 55.7347 63.0559 56.0232 62.9029 56.2735C62.8263 56.3986 62.7247 56.423 62.598 56.3465L62.1903 56.8713C61.516 57.4066 60.1446 57.5213 59.6855 58.272L59.1642 58.5571C58.784 58.3276 58.833 58.9568 58.4528 58.7274L57.8168 59.2001L57.5872 59.5755L57.219 59.6102L56.5961 59.9195C56.406 59.8048 56.3546 60.0308 56.278 60.1559C56.2015 60.281 56.0365 60.2671 55.9098 60.1906C55.7185 60.5035 55.1195 61.3412 54.6759 61.0735C54.1415 61.5219 53.289 62.2066 52.5776 62.3769L52.5011 62.5021L51.3856 61.9145C50.7508 61.9597 50.092 61.4765 49.6234 61.108C49.1917 61.1045 48.1013 60.6177 47.696 60.2874L46.9344 60.2561L46.3522 59.6477L45.4005 59.5017L45.2738 59.4252C44.3867 58.8898 41.302 58.827 40.6947 58.1179C40.4149 58.2917 40.0849 58.2638 39.9079 57.9857C39.3245 57.8049 38.5378 57.6728 38.0691 57.3043L37.6244 57.4641L37.1939 57.0331C36.9405 56.8801 36.6105 56.8523 36.3439 56.8627L36.0904 56.7097C35.9386 56.5324 35.7736 56.5185 35.7222 56.7445L35.1901 56.3377C34.517 56.4455 33.9216 56.0004 33.2234 56.0074C33.1349 55.8683 32.983 55.691 32.8563 55.6146L32.5395 55.4233L32.2214 55.6597L31.8664 55.5311L31.7145 55.3538C31.6512 55.3155 31.6631 55.5797 31.2961 55.1869L30.9278 55.2216L30.1292 54.8253L29.2408 54.7175L29.1524 54.5784C29.089 54.5402 28.924 54.5263 28.8475 54.6514C28.6323 54.4358 28.2521 54.2064 27.9603 54.116C27.8719 53.9769 27.7201 53.7996 27.5419 53.9491C27.1235 53.7822 26.705 53.6154 26.2734 53.6119C26.3236 53.8135 26.5006 54.0916 26.3858 54.2793L26.1323 54.1263L25.1687 53.7161C24.2683 53.3441 23.2665 52.9964 22.3531 52.7878C22.2263 52.7113 21.7194 52.4053 21.6429 52.5305C21.6046 52.5931 21.6931 52.7321 21.6931 52.7321L22.732 53.4447L23.1636 53.4482L23.936 54.1713C24.3545 54.3382 24.7729 54.5051 25.0766 54.8597L25.4699 54.9258C26.0522 55.5341 27.1557 55.8575 27.8779 56.3789L28.2078 56.4068C28.2712 56.445 28.6131 56.737 28.7279 56.5494C28.8415 56.7892 29.5517 57.0465 29.8052 57.1995C30.0586 57.3524 30.7939 57.7105 30.9075 57.9504C31.2757 57.9157 31.6308 58.0443 31.8078 58.3224L32.3781 58.6666L32.873 58.7083C33.3668 59.1776 34.1535 59.3098 34.6222 59.6783L34.7609 60.019C34.9892 60.0711 35.3826 60.1372 35.5727 60.2519C35.6994 60.3284 36.2446 60.5718 36.0916 60.822L36.015 60.9472L35.5966 60.7803L35.4447 60.603C35.3814 60.5647 35.2164 60.5508 35.1781 60.6134C34.1248 60.4917 33.0476 59.8415 31.8675 59.6433L31.7157 59.466C31.589 59.3895 31.6511 59.8554 31.6511 59.8554C31.271 59.6259 30.8907 59.3965 30.4591 59.393C30.3324 59.3165 29.7872 59.0731 29.7107 59.1983C29.5959 59.386 29.9127 59.5771 29.9761 59.6154C30.2295 59.7684 30.5213 59.8588 30.7879 59.8484C30.9649 60.1264 31.3582 60.1925 31.6248 60.1821L32.6638 60.8948C32.9555 60.9852 33.3489 61.0513 33.5258 61.3294C34.0591 61.3086 34.6042 61.5519 34.9713 61.9448L35.428 62.049C35.782 62.605 37.3804 62.9702 37.7344 63.5263C37.9758 63.4156 38.2041 63.4677 38.3942 63.5823C38.521 63.6588 38.8379 63.8499 38.7231 64.0376C38.5318 64.3505 37.0612 63.6342 36.7443 63.4431L36.5925 63.2659C36.5291 63.2276 36.6044 63.53 36.6678 63.5682L36.3498 63.8047L36.1345 63.5892C35.8811 63.4363 35.2846 63.4185 34.8792 63.0884L34.7513 63.4395L35.2702 64.0094C35.6252 64.1385 35.9421 64.3296 36.2207 64.5833L36.6906 64.5241L37.3875 64.9451L36.9811 65.042L36.5243 64.9378L36.3091 64.7223C36.2457 64.6841 36.4227 64.9621 36.4479 65.0629L36.724 66.1717C36.1274 66.1544 35.5439 65.9738 35.0371 65.6675L34.7704 65.6779C34.7453 65.5772 34.6186 65.5007 34.5552 65.4625C34.4285 65.386 34.4787 65.5876 34.2384 65.2714C33.9586 65.4452 33.6035 65.3167 33.35 65.1638L33.5652 65.3793C33.7553 65.4939 33.9837 65.546 34.2503 65.5355C34.4907 65.8518 34.9606 65.7926 35.2641 66.1477C35.8596 66.5924 37.9268 67.326 38.6119 67.4823C38.7768 67.4967 39.3471 67.8407 39.3854 67.7781L39.5241 68.1187L39.9306 68.0213C40.1458 68.2368 40.551 68.5675 40.8308 68.3936C41.2242 68.4596 41.6427 68.6263 41.9595 68.8174C42.0229 68.8556 41.7945 68.8036 41.7563 68.8661C41.5913 68.8523 41.5147 68.9774 41.4382 69.1026C40.9934 69.2625 40.2439 69.495 40.0143 69.8705C39.0362 70.0514 38.2471 70.7746 37.4713 71.3338C37.3565 71.5215 36.2624 72.3177 36.1608 72.3421L35.0035 73.0995C34.6592 73.6627 33.9609 73.6698 33.6548 74.1704C33.1084 74.3547 32.6506 74.6775 32.1927 75.0009C31.8866 75.5014 31.3521 75.9499 30.9695 76.5757C30.5259 76.3081 30.3717 76.986 30.2186 77.2363C28.9478 77.7539 27.4605 78.4836 26.4298 79.318C26.3533 79.4432 25.3226 80.2776 25.2593 80.2394L24.2419 80.9099C23.9358 81.4105 23.3392 81.3932 23.0331 81.8938C22.525 82.015 22.0671 82.3383 21.7108 82.6374C21.2026 82.7591 20.832 83.649 20.6024 84.0245C20.2222 83.7952 20.1062 84.4104 19.9532 84.6607C19.4452 84.7819 19.1127 85.6092 18.7576 85.4807C18.5281 85.8561 17.5237 86.3638 17.2058 86.5997C16.9763 86.9752 16.5566 87.2359 16.327 87.6114C16.0986 87.5593 15.8822 87.7714 15.7674 87.9591C15.551 88.1712 15.2078 88.3068 14.9029 88.3799C14.6351 88.8179 14.2921 88.9529 14.1391 89.2032C13.7588 88.9739 13.7959 89.3389 13.9095 89.5787C13.7696 89.6656 12.1173 90.3814 12.6241 90.6878L12.1279 91.0737C11.9749 91.324 12.0502 91.6264 11.8972 91.8767L11.3258 91.9596L11.3629 92.3246L10.7399 92.6341L10.2305 93.1834L10.6359 93.5135L10.9037 93.0755L10.7626 93.59L10.0763 93.8612L10.1767 94.2644L10.2401 94.3026C10.4302 94.4173 10.6718 94.306 10.8248 94.0557C11.4595 94.011 12.2344 93.8787 12.7688 93.4302C12.9219 93.1799 13.1503 93.232 13.3033 92.9817L13.4301 93.0582C13.62 93.1734 13.8615 93.0621 13.9763 92.8744C14.9807 92.3667 16.6712 91.5883 17.5238 90.9034C17.7916 90.4653 18.4634 90.7855 18.7312 90.3475L19.5192 90.0519L19.1748 90.6151C18.4514 90.5214 18.1824 91.3869 17.8908 91.2961C17.6876 91.3448 17.1411 91.5291 17.5847 91.7966L16.9486 92.2695C16.8338 92.4572 16.6557 92.6067 16.4524 92.6554L15.9945 92.9788C15.8928 93.0031 15.6262 93.0136 15.5497 93.1388C15.4731 93.2639 15.5999 93.3404 15.6633 93.3786L15.3823 93.98C15.1158 93.9899 14.8109 94.063 15.191 94.2929L15.1516 94.783C15.4576 94.2824 16.0543 94.2996 16.3221 93.8616L17.2631 93.3157L17.5296 93.3058L18.5854 92.5721C18.8532 92.1341 19.5252 92.4538 19.793 92.0157C20.0344 91.905 20.3393 91.832 20.6059 91.8215C20.6824 91.6963 20.8355 91.446 21.0639 91.4981L21.7251 91.1261C21.8518 91.2025 22.1053 91.3554 22.2833 91.2065L22.9051 91.3245L23.4898 91.0776C23.5148 91.1784 23.5017 91.3418 23.5651 91.38C23.6918 91.4564 23.8066 91.2687 23.8449 91.2061C24.035 91.3208 24.2895 91.0467 24.3661 90.9216L25.612 90.3026L25.7387 90.379C25.9288 90.4937 26.0938 90.5076 26.2086 90.3198C26.4119 90.2711 26.5899 90.1222 26.7047 89.9345L27.9123 89.3781C28.1418 89.0026 29.0038 89.4375 29.2573 89.5904C28.8746 90.2161 28.6094 89.7985 28.2423 89.4058C27.7831 90.1567 26.8039 90.7652 26.3065 91.5787C26.04 91.5886 25.8869 91.8389 25.7722 92.0266L26.3268 93.3896L26.5803 93.5425C26.8481 93.1045 26.8481 93.1044 27.2918 93.372C27.2153 93.4972 26.5146 94.3593 26.8314 94.5504C27.0216 94.6651 27.2763 94.3905 27.3527 94.2653L27.5427 94.3805C27.7962 94.5334 28.0521 93.8312 28.4837 93.8346C28.6367 93.5843 28.9668 93.6121 29.1186 93.7893L30.136 93.1188C30.3656 92.7434 30.7972 92.7467 31.1523 92.8753L31.6868 92.4268C31.9152 92.4789 32.1314 92.2673 32.2462 92.0796L32.691 91.9196C32.844 91.6693 33.1489 91.5963 33.4025 91.7492L34.0122 91.603L33.8974 91.7908C33.8209 91.9159 33.9094 92.0549 34.0362 92.1314L34.6076 92.0484L34.9136 91.5478L34.6984 91.3323C34.8897 91.0195 35.2197 91.0472 35.411 90.7343L35.5378 90.8108C35.7279 90.9255 35.8929 90.9393 36.0077 90.7516L37.0501 90.1819C36.9617 90.0429 36.8863 89.7405 36.9629 89.6153C37.0011 89.5528 37.1279 89.6292 37.1912 89.6674L37.8525 89.2954C38.1203 88.8574 37.6635 88.7532 37.3467 88.5621L37.8429 88.1761L37.9696 88.2526C38.1597 88.3672 38.4013 88.256 38.5161 88.0682C38.5925 87.9431 39.0864 88.4122 39.1498 88.4505C39.5693 88.1902 40.0272 87.8669 40.3584 87.4671C40.4469 87.6061 40.6884 87.4948 40.7901 87.4705C40.4589 87.8703 39.9256 87.8912 39.6578 88.3293C39.6195 88.3918 39.5047 88.5795 39.6315 88.656C39.885 88.8089 40.1899 88.7358 40.3931 88.6871C40.5844 88.3742 41.0292 88.2143 41.2205 87.9014L40.93 87.3835L41.6426 86.7855C42.2151 86.275 42.6074 86.7685 42.7986 86.4556L43.3965 86.0454C43.6632 86.0349 43.9178 85.7602 44.0326 85.5725L44.5406 85.4513L44.5789 85.3887C44.7319 85.1384 45.0368 85.0654 45.2903 85.2183L46.0017 85.0478L45.9252 85.1729C45.8104 85.3607 45.7973 85.524 45.9874 85.6387L46.6604 85.5314L46.9665 85.0308L46.7895 84.7527C46.9809 84.4399 47.3491 84.405 47.5404 84.0922L47.6672 84.1686C47.8573 84.2833 48.0857 84.3354 48.2387 84.0851L49.3828 83.491C49.2943 83.352 49.219 83.0496 49.2955 82.9245C49.372 82.7993 49.4988 82.8758 49.5622 82.914L50.2616 82.4793C50.5677 81.9787 50.111 81.8746 49.7307 81.6452C49.9974 81.6348 50.252 81.3601 50.4051 81.1098L51.1416 81.0401L51.762 81.5863C52.513 80.9257 53.5687 80.1921 54.1042 79.3166C54.4606 79.0176 54.9687 78.8958 55.4003 78.8992C55.3621 78.9618 55.2473 79.1495 55.3107 79.1877C55.5008 79.3024 55.7304 78.927 55.7686 78.8644C56.4297 78.4929 57.1542 78.159 57.7521 77.7488L58.4886 77.6791C58.5269 77.6165 58.7181 77.3042 58.9081 77.4189C58.9715 77.4571 58.8567 77.6448 58.8185 77.7074C57.9422 77.8634 56.9366 78.7986 56.3508 79.4731L55.9073 79.205L55.2712 79.6778C55.0034 80.1159 54.5203 80.3384 54.2525 80.7764C54.176 80.9016 53.9715 81.3778 54.1616 81.4925C54.4151 81.6454 54.6961 81.044 54.7727 80.9188C54.8874 80.7311 55.0273 80.6442 55.2808 80.7971L56.4512 79.8763C57.4293 79.6953 58.9811 78.5763 59.6052 77.8393C59.5419 77.8011 59.4785 77.7628 59.5168 77.7003C59.555 77.6377 59.885 77.6654 59.9484 77.7037C60.1385 77.8183 60.4303 77.9086 60.6717 77.7979L60.9885 77.989L61.3316 77.8534L61.9654 78.2356L62.3085 78.1L62.8787 78.4445L63.1836 78.3715C65.3383 79.6716 67.7879 79.7794 70.0058 81.1183C70.5129 81.4241 73.3652 82.717 72.9494 81.6952C73.216 81.6847 73.5843 81.6499 73.1406 81.3823C73.1789 81.3198 73.2553 81.1946 73.192 81.1564C73.0652 81.0799 72.6828 81.7057 72.4927 81.5911C72.3659 81.5146 72.2905 81.2122 72.3036 81.0488C72.1768 80.9724 71.4929 80.388 71.5312 80.3254C71.6841 80.0751 72.8007 80.2353 72.533 80.6733C73.9906 81.553 75.8305 81.8069 77.3516 82.7243C77.6049 82.8777 77.6552 83.0794 77.5023 83.3297L76.8408 83.7011C76.6506 83.5864 76.2955 83.4579 76.1808 83.6456L76.1032 84.1983C75.747 84.4973 74.6146 85.3555 74.347 85.7936L73.9787 85.8284L73.6728 86.329C73.1641 86.4507 72.7315 86.8749 72.4004 87.2747C72.337 87.2365 71.2046 88.0946 71.1664 88.1572C70.8615 88.2303 70.6452 88.4424 70.4922 88.6927L70.0344 89.0161C69.805 89.3916 69.1053 89.8255 68.725 89.5962C68.6103 89.7839 68.3557 90.0586 68.0891 90.0691L67.5531 90.9451L66.9315 90.8265L66.4727 91.5774L64.8954 92.5961L64.2968 93.4335C63.7636 93.4544 62.8222 94.0003 62.4278 94.3619C62.1601 94.7999 59.0813 97.1387 58.7895 97.0484L57.5797 98.4599L56.2706 99.0401L56.041 99.4155C55.9262 99.6032 56.1163 99.7179 56.2431 99.7943C56.6865 100.062 56.6614 99.9617 56.891 99.5862L57.3358 99.4262L57.6036 98.9882L57.7936 99.1029C58.0471 99.2557 58.1236 99.1306 58.2766 98.8803C58.6066 98.908 59.0129 98.8111 59.2047 98.4984L59.904 98.0637C60.0307 98.1402 60.0559 98.241 59.9794 98.3661C59.7499 98.7416 59.1648 98.9884 58.7836 99.1861C58.872 99.3256 58.9223 99.5273 58.8458 99.6524C58.8075 99.715 58.6175 99.5998 58.5542 99.5615C58.21 100.125 57.4735 100.194 57.0524 100.883C56.9377 101.07 56.9245 101.234 57.1146 101.348C57.7484 101.731 57.7364 101.467 58.0423 100.966L58.7404 100.959C58.8939 100.709 59.1485 100.434 59.4151 100.424L59.9342 100.994C59.9975 101.032 60.1625 101.046 60.1237 101.108C60.0472 101.234 59.4637 101.053 59.4004 101.015L58.5591 102.392C58.4443 102.579 58.2143 102.955 57.9608 102.802L57.4015 103.149C57.2365 103.135 57.0333 103.184 56.9568 103.309C56.8803 103.434 57.0071 103.511 57.0705 103.549C56.9558 103.736 56.127 104.95 56.5073 105.179C56.5575 105.381 56.645 105.947 56.2013 105.68C55.8948 106.18 55.8948 106.18 56.4018 106.486C56.6554 106.639 56.6685 106.475 56.7832 106.288C56.8602 106.163 56.9619 106.138 57.0885 106.215C56.9367 106.038 57.7485 106.271 57.8118 106.309L58.2325 105.621L59.6566 104.853C59.7713 104.665 59.8227 104.439 59.5178 104.512L59.6326 104.324C59.6708 104.262 60.0904 104.001 60.0904 104.001C60.1538 104.039 60.0773 104.164 60.039 104.227L60.2784 104.971L60.1238 105.649L60.9225 106.045L61.2667 105.481L61.6736 105.385C61.7118 105.322 61.8648 105.072 61.9282 105.11C62.0549 105.187 61.8752 105.763 61.8369 105.826C61.7222 106.014 61.5441 106.163 61.354 106.049C61.3158 106.111 58.834 108.468 58.5805 108.315C58.1594 109.003 57.5235 109.476 57.0646 110.227L57.3563 110.317C57.5093 110.067 57.8393 110.094 57.9923 109.844C58.2205 109.897 58.4368 109.684 58.5515 109.497C58.8957 108.934 59.8611 108.916 60.4206 108.568L61.5923 107.22C61.9092 107.411 63.866 106.622 63.9807 106.434C64.0189 106.372 64.3254 105.871 64.4522 105.948C64.5789 106.024 64.3872 106.337 64.3489 106.4L64.7532 107.157C65.1334 107.387 65.7048 107.304 66.1364 107.307C66.1998 107.345 66.39 107.46 66.4664 107.335C66.5812 107.147 66.5691 106.883 66.5194 106.681L66.9532 105.83C66.8264 105.753 66.8395 105.59 66.916 105.465C67.299 104.839 67.8452 104.655 68.4931 104.446C69.4438 105.02 69.8228 105.677 70.4347 104.676C70.8783 104.944 71.2372 103.79 71.6175 104.019C71.8087 103.706 72.5854 102.719 72.9657 102.948C73.3852 102.688 73.9321 102.503 74.4018 102.445C74.899 101.631 75.4301 102.465 75.8889 101.714L76.449 101.367C77.082 101.75 77.7589 100.359 77.9883 99.9836L78.5101 99.6986C78.7636 99.8515 78.7767 99.6881 78.8914 99.5004C78.9679 99.3752 79.1329 99.3891 79.2597 99.4655L79.5021 98.9272L80.15 98.7185C80.2134 98.7567 80.4035 98.8714 80.327 98.9965C80.2506 99.1217 79.9457 99.1948 79.7807 99.1809C79.666 99.3686 78.4189 100.415 78.3172 100.439C78.1643 100.689 77.8343 100.661 77.6813 100.912C77.5666 101.1 77.4388 101.451 77.5524 101.69ZM87.1961 94.148C87.8927 94.5683 88.799 92.8024 89.4327 93.1852C89.5091 93.06 89.5993 92.7716 89.4092 92.6569C89.3589 92.4553 89.347 92.1906 89.4235 92.0654C89.5381 91.8783 89.6648 91.9547 89.7916 92.0311L90.2122 91.3428L90.9104 91.3357C91.1022 91.0229 91.5087 90.9255 91.6999 90.6126L92.3969 91.0336C92.1675 91.4091 92.7772 91.2629 92.9673 91.3776C93.094 91.4541 92.864 91.8294 92.8258 91.892L92.7624 91.8537C92.3188 91.5862 92.0762 92.125 91.885 92.4379L91.4785 92.5354C91.4785 92.5354 90.5876 93.2822 90.4609 93.2058C90.3341 93.1293 90.8187 92.4793 90.7302 92.3403C90.5521 92.4898 90.4374 92.6776 90.3227 92.8653C89.8522 92.9244 89.5835 93.79 89.165 93.6232C88.9738 93.9361 88.6439 93.9078 88.4527 94.2207L87.7927 94.1653C87.5245 94.6032 86.7367 94.8988 86.4691 95.3363L85.6944 95.4686C85.9239 95.0931 85.9862 95.5589 86.4068 94.8705C86.598 94.5576 86.5095 94.4186 86.256 94.2657L86.156 93.8626C85.8124 93.9981 85.2278 94.2451 84.9109 94.054L84.9258 93.4626C85.3053 93.6924 85.8533 93.0806 86.0445 92.7677C86.286 92.6564 86.7558 92.5972 86.4882 93.0352L87.3153 92.2494L87.4801 92.2639C87.5435 92.3021 87.5053 92.3647 87.5053 92.3647L87.0858 92.6249L87.4649 93.2824L87.1961 94.148ZM71.6606 79.5469C70.2665 78.7054 67.5502 78.6081 66.0927 77.7284C65.9659 77.652 65.8774 77.5129 65.9539 77.3878C65.7004 77.2349 65.5857 77.4226 65.3321 77.2697L65.5365 76.7935C67.1207 77.7496 68.3019 77.5199 70.8367 79.05L71.1798 78.9143L71.5601 79.1436L71.6606 79.5469ZM82.9121 96.1881L83.4945 96.7963L82.6548 97.3177L82.6165 97.3803C82.2341 98.0061 81.3994 96.8169 81.7011 98.0265C81.3208 97.7972 81.4334 98.4646 80.9264 98.1588C80.9777 97.9328 81.1055 97.5817 81.2202 97.394C81.6026 96.7682 82.5297 96.8139 82.9121 96.1881ZM52.3216 81.2386C51.9773 81.8017 51.279 81.8088 50.9731 82.3089C50.8965 82.434 50.7818 82.6217 50.9718 82.7364C51.1618 82.8516 51.5684 82.7542 51.7716 82.7055C52.0012 82.3301 52.5093 82.2083 52.7389 81.8329C52.7903 81.6069 52.5117 81.3532 52.3216 81.2386ZM44.6459 79.6043C44.8755 79.2288 45.6264 78.5682 46.1332 78.8746C45.8654 79.3126 45.3825 79.5346 44.8994 79.7571C44.671 79.7051 44.4929 79.8546 44.3781 80.0423C44.06 80.2787 43.5902 80.3379 43.222 80.3722L43.9596 79.8755C44.1497 79.9902 44.2011 79.7642 44.2776 79.6391C44.3542 79.514 44.5192 79.5278 44.6459 79.6043ZM67.997 104.832C67.8058 105.145 67.9058 105.548 67.7146 105.861L68.5516 106.195L68.7046 105.944C68.8193 105.757 69.0111 105.444 68.7576 105.291L68.5303 104.811C68.4156 104.999 68.1238 104.909 67.997 104.832ZM37.7546 60.7978C38.0847 60.8256 38.4397 60.9543 38.6549 61.1698C38.8833 61.2219 39.175 61.3124 39.3651 61.4271L40.3156 62.0007C40.379 62.039 40.5308 62.2163 40.4543 62.3414C40.3778 62.4665 39.9091 62.098 39.8457 62.0598L38.9455 61.6878C38.7685 61.4097 38.7673 61.8373 38.4505 61.646L38.3871 61.6078L38.3752 61.3436C38.3752 61.3436 38.1731 60.9647 38.0966 61.0898L37.7546 60.7978ZM84.8809 95.6633C84.9191 95.6007 85.3655 95.0133 85.4923 95.0897C85.5556 95.128 85.3262 95.5034 85.288 95.566L85.6414 96.122L85.082 96.4697L84.4985 96.2891C84.4985 96.2891 84.6132 96.1013 84.5499 96.0631C84.4865 96.0249 84.2069 96.1982 84.1687 96.2608C84.0419 96.1843 84.0168 96.0835 84.055 96.021C84.208 95.7706 84.6777 95.712 84.8809 95.6633ZM34.0026 85.9443C34.2322 85.5688 34.8432 84.9952 35.2867 85.2627C35.0189 85.7008 34.6375 85.899 34.1927 86.059C34.0026 85.9443 33.8496 86.1946 33.773 86.3197C33.4934 86.493 33.1251 86.5279 32.7568 86.5627L33.3547 86.1524C33.5448 86.2671 33.6214 86.1419 33.7361 85.9542C33.7744 85.8916 33.8758 85.8678 34.0026 85.9443ZM74.701 63.6507L75.1566 64.1826L74.7868 64.6447L74.0269 64.186C74.1798 63.9357 74.3962 63.7236 74.701 63.6507ZM78.276 60.9256L78.6682 61.4193C78.7316 61.4575 78.9217 61.5723 78.8447 61.6972C78.7682 61.8224 78.5016 61.8328 78.4 61.8571C78.3235 61.9823 78.2219 62.0066 78.0951 61.9301L77.8165 61.6763L78.276 60.9256ZM68.2468 79.0284C68.3621 78.8408 68.6537 78.9317 68.8438 79.0464C68.9072 79.0846 69.312 79.4146 69.2356 79.5397C68.8039 79.5364 68.2838 79.394 67.8403 79.1258C67.8403 79.1258 67.6502 79.0112 67.6884 78.9486C67.7267 78.886 68.1834 78.9902 68.2468 79.0284ZM51.9749 73.5772L52.2141 74.321C51.8207 74.255 51.7813 74.7451 51.401 74.5158C51.401 74.5158 51.2863 74.7035 51.2229 74.6653C51.1595 74.6271 51.3006 74.1126 51.3388 74.0501C51.6055 74.0396 51.8602 73.7649 51.9749 73.5772ZM24.8947 88.0707L24.652 88.6095L24.4487 88.6582C24.3087 88.7451 24.2323 88.8702 24.1557 88.9954L23.5591 88.9781L23.1011 89.3015C23.0629 89.3641 22.8716 89.6769 22.8082 89.6387C22.7448 89.6005 22.9875 89.0617 23.0258 88.9991C23.3941 88.9643 23.864 88.9051 24.0553 88.5922L24.8947 88.0707ZM77.2569 98.3426L77.7637 98.649L77.4196 99.2122L76.8362 99.031L77.2569 98.3426ZM89.1087 91.0192C89.0322 91.1443 88.8159 91.3564 88.6258 91.2418C88.6006 91.141 88.487 90.9011 88.5252 90.8386C88.6017 90.7134 88.7918 90.8281 88.8552 90.8663C89.0082 90.616 89.1497 90.1016 89.53 90.331L89.1087 91.0192ZM115.4 63.6289L116.214 63.4344L116.328 63.2467C116.367 63.1841 116.596 62.8086 116.723 62.8851C116.786 62.9234 116.823 63.2884 116.785 63.351C116.747 63.4136 116.747 63.4136 116.683 63.3753L116.404 63.5491C116.112 63.4587 115.984 63.8097 115.717 63.8201L115.4 63.6289ZM102.555 85.7712C102.631 85.6461 102.821 85.7607 102.885 85.7989C103.012 85.8754 103.569 86.3834 103.492 86.5084C103.453 86.5709 103.2 86.4175 103.2 86.4175C102.947 86.2646 102.77 85.9867 102.555 85.7712ZM47.7103 77.8558C47.7486 77.7932 47.9781 77.4178 48.1049 77.4942C48.2316 77.5707 48.1802 77.7966 48.1419 77.8592C48.0272 78.0469 47.7222 78.12 47.5321 78.0053C47.4687 77.9671 47.4437 77.8663 47.4819 77.8037C47.5202 77.7411 47.6469 77.8176 47.7103 77.8558ZM69.972 79.4701L70.6439 79.7903L71.0865 80.4854C70.6428 80.2178 70.2757 79.8251 69.972 79.4701ZM79.0361 97.7033C79.0744 97.6407 79.3038 97.2652 79.4306 97.3417C79.5573 97.4181 79.3661 97.731 79.3279 97.7936L78.8832 97.9536C78.8198 97.9154 78.7061 97.6756 78.7444 97.613C78.7826 97.5504 78.9728 97.6651 79.0361 97.7033ZM75.058 99.2427C75.1465 99.3817 75.1584 99.6465 75.0821 99.7711C75.0056 99.8962 74.8155 99.7816 74.7521 99.7434C74.6887 99.7051 74.5619 99.6287 74.6384 99.5035C74.7149 99.3784 74.9181 99.3297 75.058 99.2427ZM71.8178 100.286L71.9949 100.564L71.6889 101.064L71.4737 100.849L71.8178 100.286ZM63.8347 104.12L63.9353 104.523L63.5289 104.62L63.4284 104.216L63.8347 104.12ZM55.4673 77.6548L55.6442 77.9328L55.3382 78.4335L55.1612 78.1554L55.4673 77.6548ZM41.4428 81.0121C41.5062 81.0503 41.9367 81.4813 41.9367 81.4813C41.8984 81.5438 41.5816 81.3527 41.5816 81.3527C41.5433 81.4153 41.4668 81.5405 41.4034 81.5022C41.34 81.464 41.4046 81.0747 41.4428 81.0121ZM105.24 87.9059C105.303 87.9442 105.455 88.1214 105.417 88.184C105.302 88.3717 105.024 88.118 104.859 88.1042L104.897 88.0416C104.973 87.9164 105.05 87.7913 105.24 87.9059ZM36.7238 84.3315C36.7621 84.2689 36.9151 84.0186 36.9785 84.0568C37.0418 84.095 37.0156 84.4218 36.9773 84.4843C36.8757 84.5087 36.7107 84.4948 36.6473 84.4566C36.5839 84.4184 36.4572 84.3419 36.4955 84.2794C36.5337 84.2168 36.7238 84.3315 36.7238 84.3315ZM128.157 54.9672L128.119 55.0297L128.284 55.0436L128.908 54.3068C128.629 54.4806 128.31 54.7168 128.157 54.9672ZM31.1811 87.1534C31.2445 87.1916 31.6114 87.5849 31.6114 87.5849C31.5732 87.6474 31.2564 87.4558 31.2564 87.4558L31.1799 87.5809C31.0532 87.5045 31.1428 87.2159 31.1811 87.1534ZM102.917 87.8746L103.639 88.3959C103.474 88.382 102.764 88.1244 102.917 87.8746ZM128.718 54.1921L128.465 54.0391C128.287 54.1886 128.235 54.4145 128.095 54.5015L128.718 54.1921ZM81.3211 61.4785C81.3713 61.6801 81.4216 61.8817 81.3069 62.0695C81.1168 61.9548 81.0916 61.854 81.2063 61.6662L81.3211 61.4785ZM103.912 86.2477C103.975 86.2859 104.013 86.2233 104.077 86.2616C104.14 86.2998 104.165 86.4006 104.127 86.4632C104.089 86.5258 104.012 86.6508 103.885 86.5743C103.822 86.5361 103.874 86.3103 103.912 86.2477ZM60.7863 100.31C60.8496 100.348 60.8879 100.285 60.9513 100.323C61.0146 100.362 61.0398 100.462 61.0015 100.525C60.9633 100.588 60.8868 100.713 60.7601 100.636C60.6967 100.598 60.748 100.372 60.7863 100.31ZM36.0759 84.5396C36.1393 84.5778 36.1775 84.5152 36.2408 84.554C36.3041 84.5923 36.3292 84.693 36.291 84.7556C36.2527 84.8182 36.1762 84.9433 36.0496 84.8663C35.9862 84.8281 36.0376 84.6022 36.0759 84.5396ZM46.9606 78.0888C47.024 78.1271 47.0622 78.0645 47.1256 78.1027C47.189 78.1409 47.2141 78.2417 47.1758 78.3043C47.1376 78.3669 47.061 78.492 46.9343 78.4156C46.8709 78.3774 46.9223 78.1514 46.9606 78.0888ZM80.6084 98.3953C80.6718 98.4335 80.71 98.3709 80.7734 98.4091C80.8368 98.4473 80.8613 98.548 80.8231 98.6106C80.7848 98.6732 80.7084 98.7983 80.5816 98.7219C80.5182 98.6836 80.5702 98.4578 80.6084 98.3953ZM76.1391 98.6105L76.2024 98.6488C76.3292 98.7252 76.3926 98.7634 76.3161 98.8886C76.2778 98.9512 76.2396 99.0137 76.1762 98.9755C76.0495 98.8991 76.0626 98.7357 76.1391 98.6105ZM46.3078 84.5472L46.3712 84.5854C46.4978 84.6624 46.5612 84.7007 46.4846 84.8258C46.4464 84.8884 46.4081 84.951 46.3449 84.9122C46.2182 84.8357 46.2313 84.6724 46.3078 84.5472ZM62.5799 76.3794L62.9851 76.71C62.8835 76.7344 62.7187 76.72 62.5919 76.6435C62.5285 76.6053 62.5417 76.4419 62.5799 76.3794ZM36.2181 88.1377L36.6234 88.4678C36.5218 88.4922 36.3568 88.4783 36.23 88.4018C36.1667 88.3636 36.1798 88.2003 36.2181 88.1377ZM26.1272 87.6156L26.6103 87.393L26.419 87.7059L26.3557 87.6677C26.1655 87.553 26.0124 87.8033 25.936 87.9285L25.8343 87.9528L26.1272 87.6156ZM104.419 86.5535L104.887 86.9217C104.722 86.9078 104.265 86.8037 104.419 86.5535ZM47.1016 82.1145L47.5703 82.4828C47.4053 82.4689 46.9487 82.3642 47.1016 82.1145ZM49.6184 76.4378C49.6184 76.4378 49.7201 76.4134 49.7834 76.4517C49.8468 76.4899 49.8086 76.5525 49.7703 76.615C49.732 76.6776 49.6555 76.8028 49.5921 76.7645C49.4654 76.6881 49.5801 76.5004 49.6184 76.4378ZM117.888 72.754C117.888 72.754 117.99 72.7296 118.053 72.7679C118.117 72.8061 118.078 72.8687 118.04 72.9313C118.002 72.9939 117.925 73.119 117.862 73.0808C117.735 73.0043 117.85 72.8166 117.888 72.754ZM57.8573 76.4418C57.9841 76.5182 58.0343 76.7198 57.9577 76.845C57.7676 76.7303 57.7425 76.6295 57.8573 76.4418ZM62.4242 104.724C62.551 104.801 62.6013 105.002 62.5248 105.127C62.3346 105.013 62.3095 104.912 62.4242 104.724ZM48.5375 77.0706L48.7527 77.2861C48.7145 77.3487 48.638 77.4738 48.5113 77.3974C48.4479 77.3592 48.4993 77.1332 48.5375 77.0706ZM75.5796 98.9583L75.7949 99.1737C75.7561 99.2362 75.6796 99.3613 75.5528 99.2849C75.4895 99.2467 75.5414 99.0209 75.5796 98.9583ZM70.7133 77.6902L70.9285 77.9063C70.8902 77.9689 70.8137 78.094 70.6871 78.017C70.6238 77.9788 70.6751 77.7528 70.7133 77.6902ZM116.808 73.3866L117.023 73.6022C116.985 73.6647 116.908 73.7899 116.781 73.7134C116.718 73.6752 116.769 73.4492 116.808 73.3866ZM82.4614 98.4858L82.6767 98.7012C82.6385 98.7638 82.562 98.889 82.4352 98.8125C82.3719 98.7743 82.4232 98.5484 82.4614 98.4858ZM49.0588 76.7855C49.1222 76.8237 49.2239 76.7994 49.2239 76.7994C49.2872 76.8376 49.3123 76.9384 49.2741 77.001C49.2358 77.0635 49.1342 77.0879 49.0708 77.0497C49.0074 77.0114 49.0206 76.8481 49.0588 76.7855ZM46.401 78.4366C46.4644 78.4748 46.566 78.4504 46.566 78.4504C46.6294 78.4887 46.6545 78.5894 46.6162 78.652C46.578 78.7146 46.4763 78.7389 46.4129 78.7007C46.3496 78.6625 46.3627 78.4991 46.401 78.4366ZM117.367 73.0391L117.582 73.2546C117.544 73.3172 117.468 73.4423 117.341 73.3658C117.277 73.3275 117.329 73.1016 117.367 73.0391ZM64.817 75.4167L65.0323 75.6321C64.9941 75.6947 64.9176 75.8199 64.7908 75.7434C64.7274 75.7052 64.7788 75.4792 64.817 75.4167ZM76.4297 99.1284L76.645 99.3439C76.6068 99.4065 76.5297 99.5315 76.403 99.455C76.3396 99.4168 76.3915 99.191 76.4297 99.1284ZM69.7632 77.117L69.9785 77.3325C69.9403 77.3951 69.8632 77.5201 69.7365 77.4437C69.6731 77.4054 69.725 77.1796 69.7632 77.117ZM30.2557 91.2204L30.2425 91.3837L30.1146 91.7348C29.8611 91.5819 30.1409 91.4081 30.2174 91.2829L30.2557 91.2204ZM89.53 90.331C89.6064 90.2058 89.7463 90.1189 89.873 90.1953C89.8348 90.2579 89.7201 90.4456 89.5933 90.3692L89.53 90.331ZM38.4539 83.0624L38.6058 83.2396C38.5675 83.3022 38.4911 83.4274 38.4277 83.3891C38.3009 83.3127 38.4157 83.125 38.4539 83.0624ZM43.9131 64.7716C43.888 64.6708 43.8377 64.4692 43.876 64.4067C43.9394 64.4449 44.0661 64.5213 44.0912 64.6221L43.9131 64.7716ZM48.2829 81.8848C48.3463 81.923 48.3845 81.8605 48.4479 81.8987C48.5113 81.9369 48.473 81.9995 48.4347 82.062C48.3965 82.1246 48.3583 82.1872 48.2949 82.149C48.1681 82.0725 48.2447 81.9474 48.2829 81.8848ZM42.5094 80.9702L42.6361 81.0466C42.6995 81.0848 42.7246 81.1856 42.6864 81.2482C42.6481 81.3108 42.6481 81.3108 42.5847 81.2726C42.458 81.1961 42.4711 81.0328 42.5094 80.9702ZM32.0825 87.0981L32.2093 87.1746C32.2726 87.2128 32.2977 87.3136 32.2595 87.3762C32.2212 87.4387 32.2212 87.4387 32.1579 87.4005C32.0311 87.3241 32.0443 87.1607 32.0825 87.0981ZM65.7075 106.449C65.8343 106.525 65.9228 106.664 65.8458 106.789L65.719 106.713C65.5922 106.636 65.6693 106.511 65.7075 106.449ZM69.1973 102.302C69.324 102.378 69.4125 102.517 69.336 102.642L69.2093 102.566C69.0825 102.489 69.159 102.364 69.1973 102.302ZM72.9543 79.9851C73.081 80.0616 73.1695 80.2006 73.0925 80.3256L73.0291 80.2874C72.9029 80.2111 72.8778 80.1103 72.9543 79.9851ZM29.5814 91.7558L29.8348 91.9087C29.7966 91.9713 29.72 92.0964 29.5933 92.02L29.5814 91.7558ZM35.5546 84.8247L35.7698 85.0402C35.7316 85.1028 35.6299 85.1271 35.5665 85.0889C35.5032 85.0507 35.5163 84.8873 35.5546 84.8247ZM117.221 61.6442C117.323 61.6199 117.615 61.7103 117.538 61.8355C117.499 61.8979 117.436 61.8596 117.373 61.8214L117.221 61.6442ZM35.4756 90.345L35.6908 90.5605C35.6525 90.6231 35.5509 90.6474 35.4875 90.6092C35.4242 90.571 35.4373 90.4076 35.4756 90.345ZM37.9326 83.3475L38.1478 83.563C38.1096 83.6256 38.008 83.6499 37.9446 83.6117C37.8812 83.5735 37.8944 83.4101 37.9326 83.3475ZM49.286 81.8052L49.3493 81.8434C49.4761 81.9199 49.5394 81.9581 49.4629 82.0833L49.3995 82.045C49.2728 81.9686 49.2094 81.9304 49.286 81.8052ZM32.3121 86.7227L32.3754 86.7609C32.5022 86.8374 32.5656 86.8756 32.489 87.0007L32.4257 86.9625C32.2989 86.8861 32.2355 86.8478 32.3121 86.7227ZM42.7772 80.5322L42.8406 80.5704C42.9673 80.6468 43.0307 80.685 42.9542 80.8102L42.8908 80.772C42.7641 80.6955 42.7007 80.6573 42.7772 80.5322ZM37.4747 83.6709L37.6015 83.7473C37.6015 83.7473 37.6648 83.7856 37.6265 83.8481C37.5883 83.9107 37.55 83.9733 37.4867 83.9351C37.4233 83.8968 37.4365 83.7335 37.4747 83.6709ZM24.676 52.8192L24.6378 52.8818C24.5996 52.9443 24.6246 53.0451 24.688 53.0833C24.7514 53.1216 24.8148 53.1598 24.853 53.0973L24.676 52.8192ZM44.1546 64.6604C44.1929 64.5978 44.2945 64.5734 44.3579 64.6116C44.4212 64.6499 44.383 64.7124 44.3447 64.775L44.3065 64.8376C44.2431 64.7994 44.1797 64.7611 44.1546 64.6604ZM25.6311 88.0015L25.5545 88.1267C25.478 88.2518 25.3764 88.2762 25.2496 88.1997L25.6311 88.0015ZM128.871 53.9418L128.718 54.1921L128.908 54.3068L128.871 53.9418ZM37.2978 87.9324L37.361 87.9712C37.4244 88.0094 37.4244 88.0094 37.3861 88.072C37.3479 88.1345 37.3096 88.1971 37.2464 88.1583C37.183 88.1201 37.2595 87.9949 37.2978 87.9324ZM44.8015 64.8792L44.6998 64.9035L44.6365 64.8653C44.5731 64.8271 44.548 64.7263 44.5862 64.6637L44.6496 64.702C44.713 64.7402 44.7381 64.841 44.8015 64.8792ZM40.2797 65.748L40.4567 66.026C40.4567 66.026 40.4184 66.0886 40.3551 66.0504C40.2917 66.0122 40.3048 65.8488 40.2797 65.748ZM111.884 63.5627C112.024 63.4758 112.176 63.6531 112.138 63.7157L111.884 63.5627ZM27.2012 53.2295C27.1246 53.3547 27.2765 53.532 27.3398 53.5702L27.2012 53.2295ZM41.6247 65.9603L41.7001 66.2627C41.6367 66.2245 41.5482 66.0855 41.6247 65.9603ZM44.8015 64.8792L44.9031 64.8548C44.9665 64.8931 45.0299 64.9313 44.9916 64.9939L44.8015 64.8792ZM158.285 96.2767C157.587 95.8563 157.514 95.1265 156.88 94.7437C156.893 94.5803 156.882 93.8886 156.576 94.3892L156.185 93.4679C155.868 93.2767 155.666 92.8978 155.35 92.7067L155.187 91.8376C154.718 91.469 154.263 90.9371 154.074 90.3948L153.667 90.4922L153.136 90.0856C153.097 90.148 152.982 90.3357 152.855 90.2592C152.729 90.1827 152.678 89.9811 152.629 89.7796L151.995 89.3971L151.958 89.0322L150.387 87.9126C150.375 87.6484 149.994 87.419 149.804 87.3043C149.614 87.1895 149.108 86.8837 149.362 86.6091C148.792 86.2649 148.121 85.5174 147.462 85.0342C147.64 84.8847 149.002 83.6508 149.079 83.5256C149.232 83.2754 149.523 83.3658 149.676 83.1155C149.753 82.9905 149.944 82.6776 149.691 82.5246C149.374 82.3334 149.143 83.1363 148.84 82.7818L148.495 83.3449L148.09 83.0146L147.86 83.39L147.301 83.7377L146.578 83.6437L147.048 83.1571L148.155 82.6254C148.573 82.7923 149.719 81.3427 150.038 81.1064C150.508 81.0473 150.978 80.9883 151.434 81.0926C151.498 81.1308 151.688 81.2455 151.649 81.3081C151.573 81.4333 151.243 81.4054 151.141 81.4298C150.185 82.994 150.328 81.6243 149.869 82.3752L150.3 82.8062L150.706 82.7089C151.241 81.8329 151.507 82.2501 151.851 81.6869L152.448 81.7045C152.728 81.5307 153.071 81.3951 153.262 81.0823C153.339 80.9571 153.25 80.818 153.123 80.7415C152.806 80.5503 152.755 80.7763 152.602 81.0266C152.564 81.0891 152.424 81.1761 152.297 81.0996C152.514 80.8875 152.603 80.599 152.286 80.4078C152.096 80.293 152.414 80.0566 152.491 79.9315C152.529 79.8689 152.543 79.7057 152.416 79.6292C152.162 79.4762 151.907 79.7507 151.693 79.5353C151.539 79.7854 150.56 80.3938 150.382 80.5433L150.255 80.4668C149.812 80.1991 148.755 81.36 148.082 81.4677C147.967 81.6554 147.725 81.7667 147.497 81.7145L147.369 82.0656C147.293 82.1908 146.976 81.9996 146.912 81.9613L146.239 82.0691C146.049 81.9544 145.948 81.9787 145.832 82.1663C145.756 82.2914 145.629 82.2149 145.502 82.1384C145.349 82.3887 145.057 82.7259 144.752 82.7989L144.688 82.7607L143.269 81.8185L143.676 81.7212L143.944 81.2833C144.249 81.2103 144.528 81.0365 144.681 80.7862C145.165 80.1361 145.303 80.9044 145.724 80.2161C145.611 79.9764 145.7 79.6879 145.815 79.5001C145.93 79.3124 146.248 79.076 146.451 79.0274C146.744 78.6902 147.188 78.5303 147.457 78.0924C147.71 78.2454 147.888 78.0959 148.003 77.9082C148.232 77.5327 148.373 77.0182 148.375 76.5908L148.908 76.5699L149.137 76.1945C149.252 76.0068 149.075 75.7287 148.948 75.6522C148.605 75.7878 147.601 76.2953 147.31 76.2049C146.188 77.7552 145.695 76.8582 145.249 77.4457C145.211 77.5083 144.905 78.0087 144.778 77.9322C144.805 77.6056 144.869 77.2162 145.022 76.9659C145.213 76.653 145.898 76.8095 146.19 76.9L146.548 76.1735C145.331 75.6103 143.968 77.2718 142.913 77.5775C143.091 77.4281 143.079 77.164 142.851 77.1118C143.067 76.8998 143.284 76.6877 143.589 76.6147L143.665 76.4896C143.742 76.3645 143.983 76.2532 144.11 76.3297C144.618 76.2081 145.357 75.2835 145.65 74.9463L145.967 75.1375C146.284 75.3288 146.488 74.8525 146.641 74.6022L146.996 74.7309C148.051 74.4251 148.941 73.6777 149.541 72.8401L149.845 72.7671L150.176 72.3673L150.698 72.0823C150.812 71.8946 151.029 71.6825 151.257 71.7347C151.372 71.547 151.589 71.3351 151.855 71.3246L151.893 71.2621C152.008 71.0743 152.275 71.0639 152.465 71.1787L152.541 71.0535C152.656 70.8658 152.834 70.7163 153.101 70.7059C153.254 70.4556 153.444 70.5703 153.711 70.1323C153.94 70.1845 154.157 69.9725 154.335 69.8231C154.576 69.7118 154.818 69.6006 154.932 69.4129C155.085 69.1626 154.934 68.9853 154.743 68.8706L153.6 69.465C153.383 69.677 152.695 70.3756 152.379 70.1844L151.26 70.8796L150.575 70.7232L149.938 71.1957C150.002 71.234 150.33 71.6894 150.292 71.752C150.254 71.8146 150.064 71.6999 150.064 71.6999C149.684 71.4704 149.684 71.4704 149.518 71.8841C148.87 72.0926 147.928 72.6382 147.584 73.2014L147 73.4482L146.683 73.257C146.429 73.104 146.34 73.3926 146.225 73.5802C146.035 73.4655 145.933 73.4899 145.819 73.6776C145.704 73.8653 145.577 73.7888 145.45 73.7124C145.144 74.2128 144.624 74.0702 144.129 74.0285C143.861 74.4665 143.417 74.6264 143.149 75.0644C141.726 75.4049 140.047 76.4477 139.004 77.4453L138.356 77.6538C138.139 77.8658 137.948 78.1786 137.604 78.3141L137.566 78.3767C137.262 78.0221 136.882 77.7926 136.502 77.5632L132.941 75.5851C132.307 75.2027 131.545 75.1714 131.026 74.6012C129.973 74.4795 129.291 73.4679 128.567 73.3741C128.147 73.6346 127.73 73.0403 127.414 72.8491L126.742 72.5292L125.942 72.5605C124.788 72.0355 123.876 71.3992 122.798 70.7491C122.608 70.6344 122.278 70.6065 122.075 70.6552C121.086 70.1441 119.425 69.3132 118.322 68.9899L117.586 69.0593L117.395 68.9446C117.205 68.8299 116.572 68.4475 116.38 68.7603C116.05 68.7325 115.772 68.4787 115.557 68.2631C114.503 68.1414 111.866 67.0636 110.916 66.4902C110.599 66.2989 110.217 66.4969 110.127 66.7854C109.582 66.5421 108.757 66.4725 108.377 66.2431C108.25 66.1666 108.06 66.0518 107.857 66.1005L105.89 65.7701L104.94 65.1965C104.623 65.0053 103.673 64.4318 103.43 64.9705L102.415 64.7862L102.098 64.5949C101.539 64.515 101.476 64.4767 100.969 64.1708C100.652 63.9795 100.524 64.3307 100.333 64.6435C100.218 64.8313 100.345 64.9078 100.535 65.0225L100.878 64.8869L105.809 67.6055L106.215 67.5082C108.116 68.6555 110.197 69.2258 112.035 70.3348C112.06 70.4356 112.047 70.599 112.173 70.6755C112.3 70.752 112.377 70.6268 112.453 70.5017L114.962 71.9304C115.051 72.0695 115.101 72.2712 114.986 72.4589C114.948 72.5214 114.086 72.0868 113.896 71.9721C113.389 71.6661 112.805 71.4854 112.222 71.3046C113.261 72.0173 114.415 72.5423 115.53 73.1299C115.657 73.2063 115.771 73.4462 115.568 73.4948C115.631 73.5331 115.783 73.7104 115.745 73.773C115.706 73.8355 114.756 73.2619 114.565 73.5748C113.791 73.2792 112.916 73.0081 112.155 72.5491L112.484 73.0046L112.548 73.0428C112.864 73.2339 112.711 73.4841 112.99 73.7379C112.837 73.9883 112.266 73.644 112.139 73.5676C111.506 73.1851 110.529 72.9383 109.997 72.5315L108.385 72.3298C108.232 72.5801 108.448 72.7957 108.638 72.9104C108.891 73.0633 109.817 73.5362 110.071 73.2615C112.733 74.8677 116.284 76.1542 119.048 77.3083C121.228 78.2818 123.433 79.7837 125.537 80.8822L125.714 81.1604C124.687 80.7118 123.597 80.2251 122.685 79.589L122.405 79.7628L126.409 82.4362C126.853 82.704 126.623 83.0792 126.94 83.2705C127.028 83.4095 127.078 83.6111 126.964 83.7989C126.925 83.8615 126.799 83.785 126.735 83.7467C126.279 83.6424 125.885 83.5763 125.454 83.5728L125.301 83.8231L123.932 83.0826C124.007 83.3851 124.877 85.3664 125.375 84.5532C125.464 84.6922 125.944 85.3248 125.867 85.4499C125.714 85.7003 124.663 84.7234 124.473 84.6086L124.105 84.6434L124.421 85.2622C124.699 85.516 125.054 85.6446 125.423 85.6098C125.486 85.6481 125.536 85.8497 125.498 85.9123C125.46 85.9749 125.333 85.8984 125.27 85.8601C125.015 86.135 124.723 86.0442 124.392 86.4439L123.909 86.6664C123.439 86.7256 123.31 87.5043 122.777 87.5253C122.484 87.8626 121.239 88.0533 120.895 88.6165L120.082 88.8108C119.789 89.1481 119.406 89.7737 118.899 89.4679C118.721 89.6175 118.415 90.1181 118.732 90.3092C117.146 90.2082 116.062 91.6961 114.765 92.5404L114.013 93.6286C113.379 93.2464 113.96 94.282 112.819 93.594C112.693 93.517 112.578 93.7047 112.502 93.8299L112.438 93.7916C111.995 93.5241 111.813 94.9563 111.23 94.7757C111.217 94.9391 111.266 95.1405 111.152 95.3282C110.922 95.7037 110.798 94.7723 110.275 95.4849C109.868 96.0093 108.799 96.9062 108.28 96.3363C107.936 96.8995 106.792 97.4936 106.182 97.6398L104.773 97.3891C104.354 97.6499 104.43 97.5247 104.025 97.1946C103.492 97.215 102.92 97.2986 102.374 97.4829C102.183 97.7958 101.904 97.5421 101.714 97.4275C101.27 97.1593 100.76 98.1363 100.19 97.7923C99.746 97.5247 98.908 97.6182 98.566 97.3263L97.386 97.1278L97.156 97.5032C96.6359 97.3607 96.0273 97.0793 95.6607 96.6867C95.4958 96.6723 94.3157 96.4745 94.2387 96.5995C94.2004 96.662 94.5293 97.1173 94.5927 97.1556L93.7295 97.1488C92.8806 96.5505 91.269 96.3487 90.2528 96.5923L89.8966 96.8913C89.6683 96.8392 88.7402 97.2211 88.7418 96.7937C88.0567 96.6374 87.1816 96.3659 86.4948 96.6371L86.1151 96.4079L85.0996 96.2232C85.1133 96.0599 84.9865 95.9835 84.8598 95.9071L84.6314 95.855C84.556 95.5526 83.9342 95.4345 83.7813 95.6848C83.5895 95.9976 83.7534 96.439 83.8922 96.7796L84.5402 96.5709L84.844 96.9254C85.0723 96.9775 84.9958 97.1027 85.1226 97.1791L86.3026 97.3775L86.5168 98.0206C85.6033 97.8122 82.4446 97.0193 81.9376 96.7135C81.684 96.5606 80.503 96.7897 80.6439 96.2752C80.4789 96.2614 78.3855 95.8546 78.1692 96.0667C79.3092 96.7551 81.5059 96.7101 82.3785 97.836C82.5435 97.8499 84.1053 97.8502 83.7103 98.2117L85.512 98.5282L85.7022 98.6429L86.3108 98.9243C86.4758 98.9381 86.7674 99.029 86.8177 99.2306C87.0843 99.2201 87.376 99.3105 87.6296 99.4633L87.6678 99.4008C88.0229 99.5293 88.3781 99.6578 88.7713 99.7244C88.7964 99.8252 88.8215 99.926 88.8849 99.9642C88.9483 100.002 89.0499 99.9781 89.1515 99.9537L90.5216 100.267C90.4835 100.329 90.5085 100.43 90.5719 100.468C90.8888 100.66 91.74 100.402 91.6624 100.955C92.449 101.087 93.1975 101.282 93.8947 101.702L94.6551 102.161C94.4901 102.148 94.4136 102.273 94.3371 102.398L94.2858 102.624L94.7791 103.093C95.1725 103.159 97.0496 103.778 97.3031 103.931L97.5566 104.084C97.3654 104.396 97.0595 104.897 96.6158 104.63C96.5907 104.529 96.6421 104.303 96.5153 104.226C96.4519 104.188 96.299 104.438 96.299 104.438L96.0323 104.449L95.586 105.036L94.8868 105.47L94.9502 105.509C95.1404 105.623 94.9491 105.936 94.8727 106.061C94.429 105.794 93.7915 106.694 93.6003 107.007L92.9774 107.317C92.7611 107.529 92.4946 107.539 92.2783 107.751C91.897 107.949 91.2102 108.22 90.9174 108.557L90.2444 108.665C90.0915 108.915 89.7615 108.887 89.6085 109.138C89.3419 109.148 89.0868 109.423 88.972 109.61C88.7688 109.659 86.8989 111.014 86.7077 111.327L85.296 112.36C84.9907 112.432 84.7744 112.645 84.6214 112.895L84.1002 113.18C83.9472 113.43 83.6937 113.277 83.5025 113.59L82.9425 113.938C82.6366 114.439 82.0904 114.622 81.7594 115.022C81.2895 115.081 79.5201 116.84 79.0617 117.163C78.4903 117.247 77.5353 118.384 77.0399 118.341L75.8446 119.162C75.7298 119.35 75.5501 119.927 75.5501 119.927C75.6135 119.965 75.6905 119.84 75.6905 119.84C76.4521 119.871 79.2869 118.498 80.151 118.078C80.3805 117.702 80.6581 118.384 80.964 117.883L81.4469 117.66L81.5103 117.699C81.7637 117.852 81.7786 117.261 82.31 117.668L83.6458 116.76C84.5329 117.296 86.3407 115.474 86.8476 115.781C87.1535 115.28 90.3281 115.054 89.5425 114.494C89.6823 114.408 90.1533 113.921 90.28 113.997C90.4068 114.074 90.4822 114.376 90.4691 114.539C90.622 114.289 90.965 114.154 91.1819 113.942C91.8419 113.998 92.1336 114.088 92.516 113.462L93.4818 113.017L93.519 113.382C93.2403 113.129 93.011 113.504 92.9597 113.73C92.6428 113.538 92.6166 113.865 92.5019 114.053C92.3872 114.241 92.285 114.265 92.0954 114.15L91.0514 115.148L89.6786 115.69L89.5125 116.104C89.3595 116.354 89.105 116.629 88.7881 116.438C88.4057 117.063 87.8605 116.82 87.4393 117.508L86.0036 118.012L85.7342 118.878C86.3046 119.222 86.0407 118.377 86.6745 118.759C87.1176 119.027 87.4372 118.363 87.6535 118.151L88.2379 117.905L88.6816 118.172L89.2793 117.762C89.5858 117.261 90.2074 117.38 90.5767 116.917C91.0203 117.185 90.8826 116.417 91.3514 116.785C91.3896 116.723 91.5043 116.535 91.6311 116.611C91.7578 116.688 91.7699 116.952 91.7568 117.115C91.9097 116.865 92.1895 116.691 92.4559 116.681C92.7624 116.181 93.0022 116.497 93.3825 116.726C93.8262 116.994 94.337 116.017 94.8056 116.386C94.9968 116.073 95.3268 116.101 95.518 115.788L97.5267 114.773L97.8337 113.845L98.1495 114.464C98.3407 114.151 98.6959 114.279 98.9494 114.432C99.5196 114.777 99.8606 115.496 99.4782 116.122C99.1727 116.195 98.893 116.369 98.6767 116.581C98.7652 116.72 98.7772 116.984 98.7007 117.109C98.6243 117.234 98.4975 117.158 98.4341 117.12C98.1163 117.356 97.2635 118.04 96.8832 117.811L96.8068 117.936C96.7685 117.999 96.6538 118.187 96.7805 118.263C96.9707 118.378 97.517 118.193 97.7585 118.082C98.065 117.582 98.8636 117.978 99.2078 117.415C100.008 117.384 100.782 117.252 101.557 117.12L102.155 116.709L102.968 116.515C103.223 116.24 103.514 116.331 103.667 116.08C104.137 116.021 104.557 115.76 104.977 115.5C105.231 115.226 105.485 115.379 105.714 115.003C105.905 114.69 105.296 114.836 105.194 114.861C105.753 114.513 106.492 114.016 107.203 113.845L107.38 114.124L107.964 113.877C108.104 113.79 110.394 112.174 110.647 112.327L110.952 112.254L111.154 112.632C111.613 111.882 112.285 112.202 113.072 112.334C113.896 112.831 113.095 113.29 114.592 113.679C114.68 113.818 115.237 114.326 115.199 114.388C115.084 114.576 114.729 114.447 114.652 114.572C114.576 114.697 115.159 114.878 115.401 114.767C115.654 114.92 115.374 115.094 115.298 115.219C115.221 115.344 115.348 115.421 115.412 115.459L115.918 116.192C115.891 116.519 116.52 118.612 116.9 118.841C117.027 118.918 117.092 118.529 117.282 118.643C117.472 118.758 117.469 119.613 117.481 119.877C117.353 120.228 117.122 121.031 117.503 121.26L117.74 122.86C117.471 123.298 118.219 123.92 118.014 124.396L118.822 125.912L118.784 125.975C118.402 126.6 119.19 126.305 119.443 126.458C119.506 126.496 119.468 126.559 119.43 126.621L119.404 126.948L119.061 127.084C118.934 127.007 118.452 126.802 118.376 126.927C118.299 127.052 118.514 127.268 118.539 127.369L118.348 127.681L118.537 128.224C118.116 128.912 118.967 128.655 118.585 129.28C118.508 129.405 118.495 129.569 118.583 129.708L118.759 130.413C118.644 130.601 118.555 130.89 118.707 131.067C118.439 131.505 118.803 132.753 118.827 133.282L118.571 133.984C119.103 134.39 118.708 135.18 119.215 135.485L119.505 136.003C119.517 136.267 119.592 136.57 119.846 136.723C119.935 136.435 119.936 136.007 119.76 135.729L119.774 135.138L119.813 135.075L120.557 136.553L120.519 136.615C120.137 137.241 120.924 136.945 121.178 137.098C121.241 137.136 121.203 137.199 121.165 137.262L121.139 137.588L120.795 137.724C120.669 137.648 120.187 137.443 120.11 137.568C120.034 137.693 120.249 137.908 120.274 138.009L120.082 138.322L120.272 138.864C119.851 139.553 120.702 139.295 120.32 139.921C120.243 140.046 120.23 140.209 120.318 140.348L120.494 141.054C120.379 141.242 120.29 141.53 120.441 141.708C120.173 142.145 120.538 143.394 120.562 143.922L120.306 144.624C120.838 145.031 120.443 145.82 120.95 146.126C120.975 146.227 120.986 146.491 121.113 146.568C121.303 146.682 121.495 146.37 121.533 146.307C121.648 146.119 121.699 145.893 121.509 145.779C121.434 145.476 121.638 145 121.791 144.75L121.652 144.409L122.084 144.413C122.122 144.35 122.262 144.263 122.326 144.301C122.706 144.531 122.903 146.62 122.928 146.72C123.396 147.089 124.152 149.258 124.216 149.296C124.164 149.522 124.074 150.238 124.327 150.392L124.785 150.068L124.647 149.3C125.068 148.612 124.73 147.037 124.974 146.07C124.974 146.07 124.847 145.994 124.885 145.931C124.885 145.931 125.443 146.012 125.507 146.05C125.647 145.963 125.837 146.078 125.964 146.154C126.217 146.307 126.419 146.686 126.533 146.926L126.38 147.176C126.112 147.614 127.306 147.222 126.694 148.222C126.465 148.598 127.15 148.754 126.92 149.13L127.338 149.724L127.414 149.599C127.567 149.349 127.77 149.3 128.024 149.453C127.871 149.703 127.934 149.741 128.188 149.894C128.315 149.971 128.238 150.096 128.161 150.221C128.414 150.374 128.452 150.739 128.667 150.955C128.703 151.747 129.043 152.467 129.143 153.298C129.27 153.374 129.548 153.628 129.433 153.816C129.584 154.421 129.468 155.036 129.327 155.551L129.504 155.829L129.453 156.055L129.681 156.107L129.604 156.232C129.49 156.42 129.4 156.708 129.551 156.885L129.499 157.539L129.713 158.182L129.675 158.244C129.522 158.495 129.622 158.898 129.736 159.138C129.544 159.45 130.027 159.228 130.129 159.204C130.699 159.548 130.342 160.275 130.849 160.58L130.811 160.643C130.466 161.206 131.24 161.501 130.832 162.026L131.071 162.771C130.957 162.958 130.765 163.271 130.84 163.574C131.182 163.866 131.879 164.286 131.282 164.696C131.165 165.312 131.036 166.09 131.187 166.695C131.251 166.733 131.809 166.813 131.847 166.75L131.721 166.674C131.684 165.881 131.725 164.964 131.956 164.161C132.185 163.785 132.098 163.219 131.998 162.816C131.656 162.524 132.089 162.1 132.305 161.888L132.13 161.182C132.244 160.994 132.334 160.706 132.182 160.529C131.928 160.376 132.12 160.063 132.298 159.913L132.224 159.183C132.568 158.62 131.937 157.382 132.128 157.07C132.231 156.618 132.169 156.152 132.106 155.686L132.145 155.623C132.298 155.373 131.968 155.345 132.223 155.071C132.008 154.855 131.996 154.591 132.212 154.379C132.251 153.889 132.329 153.336 132.597 152.898L132.396 152.092C132.587 151.779 132.41 151.501 132.118 151.411L131.931 150.44C132.964 148.751 131.73 149.634 132.304 148.695L132.052 148.115L132.258 147.211L132.856 146.373C132.718 146.033 132.63 145.466 132.695 145.077L132.772 144.952C132.772 144.952 132.848 144.827 132.785 144.788C132.468 144.597 132.364 145.477 131.92 145.209L131.73 145.094L131.821 144.378L132.229 143.853L132.41 142.421L132.26 141.816L132.744 141.167C132.238 140.433 131.835 139.247 132.333 138.434C132.486 138.184 132.018 137.388 132.248 137.012C131.716 136.605 131.881 136.619 132.187 136.119C132.302 135.931 132.175 135.855 132.048 135.778L131.605 135.51C131.566 135.573 131.337 135.948 131.147 135.834C131.083 135.795 131.096 135.632 131.135 135.57L131.021 135.33L131.821 135.298C131.669 135.121 131.759 134.833 131.874 134.645C131.24 134.263 131.405 134.276 131.749 133.713L131.589 131.989L130.751 132.083C130.968 131.871 131.247 131.697 131.552 131.624C131.4 131.447 131.451 131.221 131.566 131.033C131.414 130.856 131.061 130.3 130.833 130.247L130.605 129.768L130.682 129.643C130.619 129.177 130.494 128.673 130.33 128.232C130.904 127.293 130.207 126.872 130.513 126.371C129.981 125.965 130.146 125.979 130.452 125.478C130.567 125.29 130.44 125.214 130.313 125.137L129.87 124.87C129.832 124.932 129.602 125.308 129.412 125.193C129.349 125.155 129.362 124.992 129.4 124.929C129.337 124.891 129.146 124.776 129.223 124.651C129.299 124.526 129.921 124.644 130.086 124.658C129.934 124.48 130.024 124.192 130.139 124.004C129.505 123.622 129.67 123.636 130.014 123.073L129.854 121.348L129.016 121.442C129.233 121.23 129.512 121.056 129.817 120.983C129.665 120.806 129.717 120.58 129.831 120.392C129.592 120.076 129.351 119.76 129.034 119.569C128.781 119.416 128.794 119.252 128.947 119.002C128.885 118.536 128.838 117.052 128.496 116.76L128.232 115.915C128.449 115.703 128.74 115.793 128.892 115.971C129.324 115.975 129.819 116.016 130.199 116.246C130.389 116.36 130.312 116.485 130.197 116.673C130.197 116.673 130.121 116.798 130.184 116.836C130.311 116.913 130.909 116.503 131.049 116.416C131.239 116.531 131.506 116.52 131.684 116.371L132.432 116.565C132.915 116.343 133.029 116.583 133.409 116.813C133.599 116.927 133.802 116.879 133.854 116.653C134.044 116.767 134.716 117.087 134.869 116.837C134.832 116.472 133.551 115.871 134.579 115.891C134.059 115.749 133.337 115.227 132.932 114.897L132.462 114.956L132.425 114.591L131.46 114.608C131.017 114.341 131.37 114.897 131.294 115.022C131.217 115.147 131.065 114.97 131.002 114.931C131.117 114.744 130.99 114.667 130.8 114.553C130.546 114.4 130.09 114.295 129.76 114.268C129.482 114.014 129.026 113.482 128.581 113.642L128.747 113.228L128.874 113.305C129.064 113.419 129.293 113.471 129.407 113.284L130.104 113.705C130.512 113.18 131.564 113.729 131.969 114.059C132.604 114.014 133.328 114.108 134.013 114.265L133.974 114.327C133.745 114.703 135.14 115.116 134.694 115.703L135.263 116.476L135.338 117.206C135.846 117.084 136.329 116.861 136.812 116.639C137.258 116.051 137.903 116.698 138.133 116.323C138.26 116.399 138.513 116.552 138.628 116.364L138.728 116.767C138.69 116.83 138.702 117.094 138.765 117.132C138.892 117.209 139.007 117.021 139.045 116.958C139.197 117.136 139.5 117.491 139.692 117.178L139.438 117.025C139.185 116.871 138.907 116.618 139.098 116.305L140.379 116.479C140.823 116.747 141.585 116.778 141.89 116.278C141.777 116.038 141.171 114.901 140.865 115.401L140.801 115.363C140.548 115.21 140.371 114.932 140.524 114.682L141.476 114.828L141.729 114.981C142.3 115.325 142.226 114.168 144.141 115.152L144.801 115.207L144.761 115.697L143.987 115.83L143.29 115.409C143.073 115.621 142.793 115.794 142.526 115.805C142.463 115.767 142.273 115.652 142.196 115.777C142.12 115.902 142.234 116.142 142.259 116.243C142.932 116.135 143.655 116.229 144.277 116.347C144.493 116.135 144.9 116.038 145.23 116.066L145.99 116.525L147.4 116.347C147.476 116.222 147.616 116.135 147.743 116.212C148.06 116.403 148.046 116.994 148.425 117.223C148.552 117.3 148.629 117.175 148.706 117.05C150.23 116.685 155.689 116.553 156.186 115.74C157.239 115.861 158.22 114.826 159.21 114.909L159.503 114.572C159.769 114.561 160.024 114.287 160.139 114.099L160.444 114.026C161.018 113.088 161.566 112.476 162.329 111.652C162.076 111.499 162.165 111.211 162.343 111.061C162.027 110.87 162.675 110.661 162.777 110.637C162.778 110.209 162.792 109.619 163.021 109.243C162.681 108.524 162.683 107.669 162.342 106.949C162.381 106.886 162.597 106.675 162.661 106.713C162.724 106.751 162.532 107.064 162.532 107.064C162.748 107.279 162.708 107.769 162.797 107.908C163.038 107.797 163.153 107.609 163.268 107.422L163.259 105.875L162.464 104.623L162.326 103.855L161.894 103.852L161.782 103.184C161.275 102.878 161.454 102.301 161.494 101.811C161.24 101.658 160.962 101.404 160.848 101.164L161.254 101.067L161.027 100.587C160.647 100.358 160.659 100.622 160.734 100.925L160.19 100.254L160.167 99.7251L160.42 99.8785C160.382 99.9411 160.267 100.129 160.33 100.167C160.457 100.243 160.723 100.233 160.864 100.146C160.815 99.5169 160.053 99.4852 159.673 99.2559C159.419 99.103 158.976 98.8355 159.167 98.5226L160.042 98.7935L159.803 98.0496L159.208 97.605L159.297 97.3165C159.285 97.0523 159.007 96.7986 158.753 96.6451C158.677 96.7703 158.537 96.8572 158.347 96.7425C158.22 96.6661 158.208 96.4019 158.285 96.2767ZM131.255 97.3527L132.269 97.9648C132.46 97.6519 133.162 96.3622 133.413 97.3701L133.832 97.1093L134.1 96.6714L135.015 96.4527C135.473 96.1294 135.93 95.806 136.364 95.3819L136.49 95.4584C136.871 95.6883 136.985 95.5005 137.138 95.2502C137.253 95.0625 137.431 94.913 137.621 95.0276C137.812 94.7147 138.067 94.4401 138.447 94.6694C141.109 96.2759 142.728 98.452 145.147 100.169L145.071 100.294C144.612 101.045 146.223 101.247 145.688 102.123L146.372 102.707C146.372 102.707 146.486 102.519 146.55 102.557C146.676 102.634 146.484 103.374 146.471 103.538L144.857 104.191L144.325 103.784L144.083 103.895C143.83 103.743 143.778 103.969 143.702 104.094C143.396 104.594 142.432 104.184 141.989 103.916C141.672 103.725 141.683 104.417 141.315 104.024L140.694 103.906C140.479 103.69 140.187 103.6 139.996 103.913C139.806 103.798 139.577 103.746 139.399 103.895L138.536 103.888C137.966 103.544 136.849 103.384 136.214 103.429L136.087 103.353C135.961 103.276 135.859 103.301 135.783 103.426L135.339 103.158L134.969 103.621L133.942 103.172L133.269 103.28L133.142 103.203C133.015 103.127 132.825 103.012 132.622 103.06C132.115 102.755 132.369 102.907 132.216 103.158L132.038 103.307L131.392 102.661C131.124 103.099 131.124 103.099 130.681 102.831C130.287 102.765 129.894 102.699 129.526 102.734C129.348 102.883 129.119 102.831 128.929 102.716L128.256 102.824C127.736 102.681 125.998 102.403 125.491 102.097C125.427 102.059 125.275 101.882 125.314 101.819C125.39 101.694 125.618 101.746 125.72 101.722C125.873 101.472 126.038 101.485 126.292 101.638C126.545 101.791 126.89 101.228 127.068 101.079C127.131 101.117 127.321 101.232 127.398 101.107C127.474 100.982 127.399 100.679 127.31 100.54L127.87 100.193C128.504 100.575 128.809 100.074 129.268 99.751L129.356 99.89C129.546 100.005 129.751 99.5289 129.827 99.4038C130.589 99.4349 130.109 98.3748 131.123 98.9863L131.671 98.3746L131.544 98.2981C131.037 97.9923 130.769 98.4302 130.276 97.9612L129.526 98.1936C129.209 98.0025 128.979 98.3779 128.928 98.6039L128.153 98.7362C128.09 98.698 127.9 98.5833 127.976 98.4581C128.053 98.333 128.358 98.2599 128.459 98.2355C129.683 96.2331 131.624 96.8902 132.236 95.8891C133.099 95.8964 133.547 94.8815 134.117 95.2253L134.102 95.8163C133.695 96.3413 133.15 96.098 132.844 96.5987L131.891 96.8798C131.776 97.0675 131.521 97.3422 131.255 97.3527ZM152.457 114.603C153.245 114.307 154.478 113.852 155.341 113.859C155.721 114.088 155.774 113.435 156.242 113.803C156.839 113.821 157.715 113.664 158.237 113.379C158.339 113.355 159.305 112.483 159.559 112.636C159.622 112.674 159.584 112.737 159.546 112.799C159.596 113.001 159.672 113.303 159.557 113.491C159.519 113.553 159.417 113.578 159.315 113.602L159.189 113.526C159.062 113.449 159.01 113.675 158.972 113.738C158.896 113.863 158.807 113.724 158.744 113.686L157.994 113.918C157.804 113.803 157.727 113.929 157.651 114.054C157.574 114.179 157.473 114.203 157.346 114.127C156.33 114.37 155.187 114.537 154.22 114.982L152.545 114.742L152.482 114.704C152.229 114.551 152.354 115.055 152.418 115.093C151.478 115.211 150.462 115.454 149.572 115.774C149.304 116.212 149.001 115.857 148.722 115.604L148.037 115.447C148.228 115.134 148.482 115.287 148.673 114.975L148.153 114.832C148.052 114.857 147.873 115.005 147.747 114.929C147.684 114.891 147.76 114.766 147.76 114.766C147.989 114.39 148.116 114.467 148.433 114.658L148.776 114.523L148.775 114.95L149.308 114.929L149.31 114.074L149.742 114.077L149.88 114.846C149.841 114.908 149.752 115.197 149.879 115.273C149.942 115.312 150.018 115.187 150.057 115.124C150.817 115.583 150.843 115.256 151.201 114.53C151.569 114.495 152.14 114.411 152.457 114.603ZM138.808 115.36C138.428 115.13 137.933 115.089 137.552 115.286L137.488 115.248C137.108 115.019 136.84 115.457 136.46 115.227C136.194 115.238 135.8 115.172 135.547 115.019C135.42 114.942 135.293 114.866 135.408 114.678L135.446 114.615L135.853 114.518C135.979 114.595 136.271 114.685 136.386 114.498C136.487 114.473 139.039 114.557 139.229 114.671C139.191 114.734 138.999 115.047 139.228 115.099L138.808 115.36ZM104.794 112.82C104.971 113.098 105.071 113.501 104.879 113.814C104.535 114.377 102.961 114.54 102.338 114.85L101.869 114.481L102.137 114.043L104.054 113.744L104.794 112.82ZM126.818 99.643L127.363 99.8863C127.286 100.011 127.07 100.224 126.88 100.109L126.029 100.366L125.316 100.964C125.088 100.912 124.732 100.783 124.542 100.668C124.416 100.592 124.074 100.3 124.189 100.112L124.849 100.168C125.103 99.8932 125.408 99.8207 125.663 99.546L126.245 100.154C126.36 99.9664 126.551 99.6535 126.818 99.643ZM145.989 112.412L146.066 112.287L146.319 112.44L145.112 112.569C144.921 112.882 144.681 112.565 144.529 112.388L143.906 112.697C143.373 112.718 142.955 112.551 142.396 112.471L141.115 112.297L141.051 112.259L140.886 112.245L141.902 112.002L142.029 112.078C142.156 112.155 142.384 112.207 142.524 112.12C143.031 112.426 144.085 112.12 144.556 112.061C144.797 111.95 145.051 112.103 145.241 112.218C145.546 112.145 145.837 112.235 145.989 112.412ZM107.356 109.055C107.394 108.993 107.623 108.617 107.814 108.732C107.94 108.808 107.991 109.01 107.914 109.135C107.799 109.323 107.546 109.17 107.419 109.094L107.189 109.897L106.4 110.192L105.853 110.804C105.599 110.651 105.346 110.498 105.537 110.185C106.111 109.246 106.237 109.75 106.644 109.226L107.356 109.055ZM103.466 111.162L103.692 111.641C103.196 112.027 102.7 112.413 102.179 112.698L101.887 112.608C101.76 112.531 101.672 112.392 101.787 112.205C102.016 111.829 103.084 111.36 103.466 111.162ZM151.106 111.989L150.383 111.894C149.697 112.166 148.845 112.423 148.109 112.492L148.046 112.454C147.729 112.263 147.398 112.663 147.017 112.433C146.979 112.496 146.903 112.621 146.839 112.583C146.776 112.545 146.789 112.381 146.827 112.319L147.297 112.26L147.793 111.874C148.503 112.131 149.112 112.413 149.571 111.662C150.014 111.929 150.283 111.491 150.789 111.797L151.106 111.989ZM136.243 93.1678C136.37 93.2442 136.838 93.6126 136.8 93.6752C136.762 93.7378 136.266 93.696 136.165 93.7204L135.046 94.4159C134.97 94.5405 134.728 94.6518 134.601 94.5753C134.475 94.4989 134.462 94.2347 134.539 94.1095L135.06 93.8244C135.328 93.387 135.835 93.6926 136.243 93.1678ZM95.5327 110.657L95.6474 110.469C95.7108 110.507 95.5578 110.758 95.5578 110.758C95.4813 110.883 95.2513 111.258 95.0994 111.081L94.0571 111.651C93.8669 111.537 93.715 111.359 93.868 111.109C94.0592 110.796 95.1907 110.365 95.5327 110.657ZM118.803 74.1625L121.565 75.7442L121.629 75.7825C121.591 75.845 121.337 75.692 121.274 75.6538L120.272 75.3061C119.98 75.2157 119.168 74.9828 118.915 74.83C118.662 74.677 118.65 74.4128 118.803 74.1625ZM85.3913 119.013C84.9848 119.11 84.3751 119.256 84.1457 119.632C84.1074 119.694 84.1959 119.833 84.2593 119.872C84.6396 120.101 85.2624 119.792 85.4917 119.417C85.5682 119.291 85.5813 119.128 85.3913 119.013ZM98.5706 109.236L99.1923 109.354L98.3526 109.875C98.0364 109.684 97.7933 110.222 97.7419 110.448C97.755 110.285 97.7048 110.083 97.578 110.007C97.4513 109.931 97.3114 110.018 97.2349 110.143L97.1715 110.104C96.9814 109.99 96.7661 109.774 96.9191 109.524L97.8577 109.833C98.0495 109.52 98.3793 109.549 98.5706 109.236ZM128.261 150.625C127.818 150.357 127.716 150.381 127.385 150.781L127.751 151.601L128.297 151.417L128.261 150.625ZM126.527 139.984L126.563 140.776L126.017 140.961L125.65 140.14C125.982 139.741 126.083 139.716 126.527 139.984ZM154.462 78.5516L154.336 78.4751C153.829 78.1692 153.904 78.4716 154.081 78.7497C153.916 78.7358 153.319 78.7184 153.243 78.8436C153.205 78.9061 153.331 78.9826 153.331 78.9826C153.382 79.1843 153.495 79.4242 153.622 79.5006C153.812 79.6153 153.889 79.4902 153.965 79.3651L154.462 78.5516ZM131.119 136.588L131.258 136.929L131.131 136.852L131.536 137.182L131.294 137.721L130.406 137.186C130.751 136.623 130.966 136.838 131.119 136.588ZM132.141 147.826L133.028 148.362L133.271 147.823C133.018 147.67 132.904 147.43 132.714 147.315C132.447 147.326 132.256 147.639 132.141 147.826ZM122.853 101.019L123.169 101.638L122.356 101.833L121.874 101.628L122.18 101.127C122.37 101.242 122.675 101.169 122.853 101.019ZM149.688 87.9196C149.967 88.1734 150.511 88.8443 150.282 89.2198C149.711 88.8756 149.268 88.6079 149.688 87.9196ZM125.045 139.003L125.033 138.739C125.119 139.306 125.41 139.824 125.599 140.366C125.561 140.429 125.331 140.804 125.205 140.728C125.141 140.69 125.282 140.175 125.32 140.113C124.814 139.806 124.738 139.504 125.045 139.003ZM106.106 110.957C106.27 111.398 106.498 111.878 106.229 112.316C105.786 112.048 105.609 111.77 105.877 111.332L106.106 110.957ZM88.4201 98.3127C88.3818 98.3753 86.8085 98.1109 86.5168 98.0206C86.8609 97.4574 87.9764 98.0451 88.4201 98.3127ZM154.462 78.5516C154.627 78.5655 155.16 78.5447 155.276 78.3571C155.352 78.232 155.162 78.1172 155.035 78.0407C154.909 77.9643 154.592 77.7731 154.439 78.0233C154.362 78.1485 154.412 78.35 154.462 78.5516ZM136.953 111.585L137.358 111.915C136.99 111.95 136.545 112.109 136.228 111.918C136.101 111.841 136.052 111.64 136.128 111.515L136.953 111.585ZM120.732 78.6677C120.541 78.9806 120.795 79.1335 121.048 79.2865L121.492 79.5542L121.53 79.4916C121.683 79.2414 121.531 79.0641 121.341 78.9493L120.732 78.6677ZM95.7462 111.3L95.7954 111.93L95.2743 112.214C95.1476 112.138 94.9957 111.96 95.0722 111.835C95.2251 111.585 95.53 111.512 95.7462 111.3ZM112.845 75.5351C112.692 75.7854 112.844 75.9627 113.097 76.1157L113.642 76.3591C113.757 76.1713 113.707 75.9697 113.517 75.8549L112.845 75.5351ZM119.35 78.0906C119.159 78.4034 119.691 78.8102 119.945 78.9632L120.224 78.7893L119.35 78.0906ZM111.386 75.0831C111.195 75.396 111.702 75.7019 111.892 75.8166L112.019 75.8931L112.299 75.7193L111.386 75.0831ZM153.197 90.5512C153.236 90.4887 153.337 90.4643 153.401 90.5026C153.591 90.6173 154.173 91.2257 154.097 91.3508C154.058 91.4134 153.995 91.3752 153.932 91.3369C153.615 91.1457 153.374 90.8294 153.197 90.5512ZM142.617 83.3097C142.568 83.1082 142.517 82.9065 142.632 82.7189C142.747 82.5311 142.937 82.6458 143.064 82.7224C143.051 82.8857 143.038 83.0491 142.923 83.2369C142.846 83.3619 142.744 83.3862 142.617 83.3097ZM146.311 115.433L146.818 115.739C146.665 115.989 146.526 115.649 146.335 115.962L145.866 115.593C146.057 115.28 146.119 115.746 146.311 115.433ZM124.886 136.852L124.949 136.89C125.076 136.966 125.126 137.168 125.112 137.331L124.896 137.543C124.833 137.505 124.477 137.377 124.592 137.189C124.669 137.064 124.771 137.04 124.847 136.914L124.886 136.852ZM99.8293 112.993L100.273 113.261L100.005 113.699C99.6633 113.407 99.5616 113.432 99.8293 112.993ZM117.962 125.05C117.694 125.488 117.604 125.776 118.111 126.082L117.962 125.05ZM85.059 115.301L85.2491 115.415C85.4392 115.53 85.5278 115.669 85.413 115.857L85.1847 115.805C84.9945 115.69 84.9443 115.488 85.059 115.301ZM124.867 143.265C124.741 143.189 124.754 143.026 124.83 142.9C124.869 142.838 124.983 142.65 125.11 142.727C125.237 142.803 125.021 143.015 124.982 143.078L125.121 143.418L124.867 143.265ZM151.994 80.745L151.537 80.6407L151.716 80.0636L151.994 80.745ZM151.42 90.7632L151.71 91.2812C151.634 91.4064 151.532 91.4307 151.469 91.3924C151.279 91.2777 151.343 90.8884 151.42 90.7632ZM161.197 103.431L161.387 103.546C161.451 103.584 161.577 103.661 161.539 103.723L161.501 103.786C161.399 103.81 161.272 103.734 161.209 103.695C161.082 103.618 161.121 103.556 161.159 103.493L161.197 103.431ZM104.332 105.346L104.561 105.398C104.561 105.398 104.624 105.436 104.585 105.499C104.509 105.624 104.369 105.711 104.242 105.635C104.179 105.596 104.255 105.471 104.294 105.409L104.332 105.346ZM145.741 114.661L145.97 114.714C146.033 114.752 145.995 114.815 145.995 114.815C145.956 114.877 145.842 115.064 145.779 115.026C145.652 114.95 145.665 114.786 145.741 114.661ZM98.9912 108.547L99.118 108.624C99.1813 108.662 99.3081 108.739 99.2316 108.864C99.1934 108.926 99.0917 108.951 99.0284 108.912C98.9016 108.836 98.9147 108.673 98.9912 108.547ZM131.268 138.048L131.433 138.062C131.496 138.1 131.521 138.201 131.483 138.264C131.445 138.326 131.305 138.413 131.241 138.375C131.115 138.298 131.191 138.173 131.229 138.11L131.268 138.048ZM127.402 99.3961L127.568 99.4107C127.63 99.4488 127.656 99.5496 127.617 99.6121C127.579 99.6747 127.439 99.7611 127.376 99.7229C127.249 99.6464 127.326 99.5213 127.364 99.4587L127.402 99.3961ZM100.198 108.419L100.12 108.971C99.9932 108.895 99.8665 108.818 99.9429 108.693L100.198 108.419ZM89.3031 113.751L89.3665 113.789C89.4933 113.865 89.5567 113.903 89.4802 114.029C89.4419 114.091 89.4037 114.154 89.3403 114.116C89.2136 114.039 89.2267 113.876 89.3031 113.751ZM140.673 115.714L141.04 116.107C140.939 116.131 140.812 116.055 140.749 116.017C140.622 115.94 140.597 115.839 140.673 115.714ZM145.307 110.973L145.713 111.303C145.611 111.328 145.154 111.224 145.269 111.036L145.307 110.973ZM130.12 158.084C130.246 158.161 130.373 158.238 130.297 158.363C130.258 158.425 130.22 158.488 130.157 158.45C130.03 158.373 130.081 158.147 130.12 158.084ZM141.756 78.3354L141.541 78.1198C141.579 78.0573 141.719 77.9703 141.782 78.0085C141.909 78.085 141.832 78.2102 141.794 78.2728L141.756 78.3354ZM107.979 113.286C108.042 113.324 108.08 113.262 108.144 113.3C108.207 113.338 108.169 113.401 108.13 113.463C108.092 113.526 107.952 113.613 107.889 113.575C107.826 113.536 107.902 113.411 107.902 113.411L107.979 113.286ZM102.284 115.931C102.5 115.719 102.5 115.719 102.754 115.872C102.614 115.958 102.411 116.007 102.284 115.931ZM135.14 115.116L135.356 115.331C135.317 115.394 135.178 115.481 135.114 115.443C134.987 115.366 135.064 115.241 135.102 115.179L135.14 115.116ZM161.872 107.008L162.088 107.223C162.049 107.286 161.91 107.373 161.846 107.335C161.72 107.258 161.796 107.133 161.834 107.07L161.872 107.008ZM146.932 111.011L147.147 111.227C147.109 111.29 147.033 111.415 146.906 111.339C146.843 111.3 146.894 111.074 146.932 111.011ZM124.839 144.447L125.054 144.663C125.016 144.725 124.939 144.85 124.813 144.774C124.749 144.736 124.801 144.51 124.839 144.447ZM151.589 111.766L151.805 111.982C151.766 112.044 151.689 112.169 151.563 112.093C151.499 112.055 151.551 111.829 151.589 111.766ZM139.481 115.252L139.696 115.468C139.658 115.53 139.582 115.655 139.455 115.578C139.392 115.54 139.443 115.314 139.481 115.252ZM147.897 110.994C147.96 111.032 148.062 111.008 148.062 111.008C148.125 111.046 148.15 111.147 148.112 111.21C148.074 111.272 147.972 111.297 147.909 111.258C147.846 111.22 147.859 111.057 147.897 110.994ZM138.808 115.36L138.998 115.474C138.96 115.537 138.782 115.686 138.655 115.61L138.808 115.36ZM146.082 84.0296L145.98 84.0539L145.853 83.9774L145.905 83.7515L146.095 83.8662C146.158 83.9045 146.12 83.967 146.082 84.0296ZM103.95 115.052C104.076 115.128 104.165 115.267 104.088 115.392L103.898 115.278C103.835 115.239 103.911 115.114 103.95 115.052ZM127.889 116.051L128.041 116.228C128.002 116.291 127.926 116.416 127.862 116.378C127.736 116.301 127.85 116.113 127.889 116.051ZM89.7902 98.6258L89.7771 98.7892C89.7388 98.8518 89.6372 98.8761 89.5738 98.8379C89.5105 98.7997 89.4471 98.7615 89.4853 98.6989L89.7902 98.6258ZM147.187 115.277L147.339 115.454C147.301 115.516 147.161 115.603 147.097 115.565C147.034 115.527 147.11 115.402 147.149 115.339L147.187 115.277ZM129.385 125.948C129.511 126.024 129.6 126.163 129.523 126.288L129.397 126.212C129.27 126.135 129.346 126.01 129.385 125.948ZM98.102 113.407L98.279 113.685C98.2407 113.748 98.2025 113.81 98.1391 113.772C98.0124 113.696 98.0637 113.47 98.102 113.407ZM151.219 80.877L151.004 80.6615L151.042 80.5989C151.08 80.5363 151.08 80.5363 151.144 80.5746C151.27 80.6511 151.257 80.8144 151.219 80.877ZM100.312 99.5788C100.375 99.617 100.502 99.6935 100.425 99.8186L100.387 99.8812L100.324 99.843C100.26 99.8048 100.197 99.7666 100.273 99.6414L100.312 99.5788ZM130.917 145.289C130.98 145.327 131.005 145.428 130.967 145.49L130.929 145.553L130.739 145.438C130.777 145.376 130.879 145.351 130.917 145.289ZM99.8034 99.7006L99.6636 99.7875L99.5881 99.4851C99.6515 99.5233 99.7783 99.5998 99.8034 99.7006ZM88.9269 98.6191L88.8887 98.6816C88.8506 98.7437 88.749 98.768 88.6856 98.7298C88.6856 98.7298 88.6223 98.6916 88.6605 98.629L88.9269 98.6191ZM125.04 145.254L125.103 145.292C125.167 145.33 125.191 145.431 125.153 145.493L125.09 145.455C125.026 145.417 125.001 145.316 125.04 145.254ZM95.2134 102.241C95.2386 102.342 95.2003 102.405 95.0987 102.429C95.0987 102.429 95.1501 102.203 95.2134 102.241Z" fill="#FF8A00"/>
</g>
<defs>
<clipPath id="clip0_134_3461">
<rect width="176" height="136" fill="white" transform="translate(35.1992) rotate(15)"/>
</clipPath>
</defs>
</svg>
