<svg width="68" height="41" viewBox="0 0 68 41" fill="none" xmlns="http://www.w3.org/2000/svg">
<g clip-path="url(#clip0_189_3752)">
<g opacity="0.7">
<mask id="mask0_189_3752" style="mask-type:luminance" maskUnits="userSpaceOnUse" x="0" y="1" width="16" height="18">
<g opacity="0.7">
<path d="M0.652832 1.84424H15.9526V18.4929H0.652832V1.84424Z" fill="white"/>
</g>
</mask>
<g mask="url(#mask0_189_3752)">
<path fill-rule="evenodd" clip-rule="evenodd" d="M5.98632 11.6609H8.5746C9.47811 11.6609 10.2368 12.3475 10.2368 13.1331C10.2368 13.9673 9.52751 14.6598 8.41801 14.6598H5.98632V11.6609ZM5.98632 5.72176H7.94742C8.74542 5.72176 9.35418 6.34804 9.35418 6.98269C9.35418 7.57375 8.72197 8.20506 7.94742 8.20506H5.98632V5.72176ZM0.652344 1.84424V18.4929H9.3592C12.7857 18.4929 15.9526 17.2889 15.9526 13.7518C15.9526 11.3607 14.2326 10.2692 12.3402 9.69738C13.4932 9.23459 14.8004 8.26123 14.8004 6.22228C14.8004 3.61239 12.2138 1.84424 8.73118 1.84424H0.652344Z" fill="white"/>
</g>
<path fill-rule="evenodd" clip-rule="evenodd" d="M10.3008 30.1254H12.8891C13.7926 30.1254 14.5504 30.8128 14.5504 31.5976C14.5504 32.4318 13.842 33.1243 12.7316 33.1243H10.3008V30.1254ZM10.3008 24.1871H12.2619C13.0599 24.1871 13.6678 24.8125 13.6678 25.448C13.6678 26.0382 13.0364 26.6695 12.2619 26.6695H10.3008V24.1871ZM4.9668 20.3096V36.9574H13.6728C17.1001 36.9574 20.2662 35.7534 20.2662 32.2163C20.2662 29.8252 18.5462 28.7337 16.6538 28.1619C17.8069 27.6991 19.114 26.7266 19.114 24.6876C19.114 22.0769 16.5282 20.3096 13.0456 20.3096H4.9668Z" fill="white"/>
<path fill-rule="evenodd" clip-rule="evenodd" d="M16.3716 18.4912V1.84253H29.7844V5.86258H21.6896V8.04657H28.2621V11.8159H21.6896V14.4862H29.7844V18.4912H16.3716Z" fill="white"/>
<path fill-rule="evenodd" clip-rule="evenodd" d="M37.0495 18.9676C40.8252 18.9676 43.8447 16.8113 43.8447 13.3177C43.8447 7.67877 36.5178 8.54566 36.5178 6.79092C36.5178 6.11267 37.2304 5.75216 37.9605 5.75216C39.2199 5.75216 40.1293 6.583 40.1293 6.583L43.2811 3.57823C42.0209 2.37599 40.0297 1.36658 37.3468 1.36658C33.3191 1.36658 30.6831 3.76016 30.6831 6.6484C30.6831 12.3586 37.9044 11.5295 37.9044 13.3219C37.9044 13.9499 37.3015 14.582 36.2063 14.582C34.9636 14.582 33.9789 13.8308 33.2127 13.1928L30.0425 16.2194C31.3186 17.4652 33.3685 18.9676 37.0495 18.9676Z" fill="white"/>
<path fill-rule="evenodd" clip-rule="evenodd" d="M47.9491 18.4912V5.84749H43.5571V1.84253H57.675V5.84749H53.2831V18.4912H47.9491Z" fill="white"/>
<path fill-rule="evenodd" clip-rule="evenodd" d="M20.4497 20.2972H25.7686V30.2707C25.7686 31.2834 26.7751 32.2165 27.8243 32.2165C28.8141 32.2165 29.8156 31.374 29.8156 30.2178V20.2972H35.1177V30.1491C35.1177 34.0593 31.8763 37.1773 27.6845 37.1773C23.4676 37.1773 20.4497 33.7835 20.4497 29.937V20.2972Z" fill="white"/>
<path fill-rule="evenodd" clip-rule="evenodd" d="M41.6747 36.9459V30.9967L35.4238 20.2972H40.8047L44.3417 26.0301L47.8904 20.2972H53.283L47.0079 31.0579V36.9459H41.6747Z" fill="white"/>
<path fill-rule="evenodd" clip-rule="evenodd" d="M66.5544 29.4089V39.9323H53.2831L50.1455 36.7909V32.5504L53.2831 29.4089H66.5544ZM52.0621 33.9618C51.6718 33.9618 51.3553 34.2778 51.3553 34.6685C51.3553 35.0592 51.6718 35.3753 52.0621 35.3753C52.4514 35.3753 52.7679 35.0592 52.7679 34.6685C52.7679 34.2778 52.4514 33.9618 52.0621 33.9618Z" fill="white"/>
</g>
</g>
<defs>
<clipPath id="clip0_189_3752">
<rect width="66.6667" height="40" fill="white" transform="translate(0.39502 0.649414)"/>
</clipPath>
</defs>
</svg>
