<svg width="167" height="38" viewBox="0 0 167 38" fill="none" xmlns="http://www.w3.org/2000/svg">
<g opacity="0.7">
<path fill-rule="evenodd" clip-rule="evenodd" d="M43.2065 31.1421H48.3988V0.386475H43.2065V31.1421Z" fill="white"/>
<path fill-rule="evenodd" clip-rule="evenodd" d="M22.943 11.4911C22.943 10.7635 22.4429 10.3678 21.8695 10.3678C21.2989 10.3678 20.7863 10.7524 20.7863 11.4911V26.3038C20.7863 27.0425 21.2989 27.4285 21.8695 27.4285C22.4443 27.4285 22.943 27.0245 22.943 26.3038V21.4497H28.1297V25.9248C28.1297 29.5547 25.2794 31.4457 21.846 31.4457C18.5619 31.4457 15.5996 29.6155 15.5996 25.9248V11.8674C15.5996 8.18493 18.5632 6.34924 21.846 6.34924C25.2214 6.34924 28.1297 8.24303 28.1297 11.8674V15.8749H22.943V11.4911Z" fill="white"/>
<path fill-rule="evenodd" clip-rule="evenodd" d="M34.5855 12.1584C34.5855 11.4197 35.0967 11.0351 35.6673 11.0351C36.2407 11.0351 36.7422 11.4335 36.7422 12.1584V31.146H41.933V10.8027C41.933 7.48684 39.7873 6.34421 38.1501 6.34421C36.3208 6.34421 35.0345 7.66944 34.6794 8.34174H34.5965V0.387573H29.4043V31.146H34.5855V12.1584Z" fill="white"/>
<path fill-rule="evenodd" clip-rule="evenodd" d="M57.0089 25.8607C57.0089 26.5842 56.5073 26.9853 55.934 26.9853C55.3647 26.9853 54.8521 26.6008 54.8521 25.8607V6.63513H49.6641V27.0504C49.6641 29.7575 51.5279 31.4452 53.5285 31.4452C55.5568 31.4452 56.6566 29.9747 56.9674 29.4352H57.0849L57.1788 31.145H62.1983V6.63513H57.0089V25.8607Z" fill="white"/>
<path fill-rule="evenodd" clip-rule="evenodd" d="M68.6533 31.1455H63.4639V6.63559H68.6036L68.6547 8.34539H68.7597C69.1397 7.59286 70.3748 6.34509 72.247 6.34509C74.184 6.34509 75.4303 7.83909 75.6969 8.71889H75.7702C76.157 7.82526 77.5166 6.34509 79.4812 6.34509C81.468 6.34509 83.3706 7.69384 83.3706 11.0304V31.1455H78.1797V11.9158C78.1797 11.1743 77.6713 10.7897 77.0993 10.7897C76.5259 10.7897 76.0202 11.1868 76.0202 11.9158V31.1455H70.8059V11.9241C70.8059 11.184 70.2878 10.798 69.7172 10.798C69.1438 10.798 68.6533 11.1978 68.6533 11.9241V31.1455Z" fill="white"/>
<path fill-rule="evenodd" clip-rule="evenodd" d="M91.9946 25.8701C91.9946 26.5949 91.4931 26.9947 90.9169 26.9947C90.3463 26.9947 89.8337 26.6074 89.8337 25.8701V11.9316C89.8337 11.1929 90.3463 10.807 90.9169 10.807C91.4931 10.807 91.9946 11.2081 91.9946 11.9316V25.8701ZM93.2547 6.34433C91.518 6.34295 90.269 7.8162 89.9415 8.35293H89.831V0.387695H84.6401V31.1447H89.7729L89.831 29.4349H89.9415C90.2013 30.0962 91.3149 31.4352 93.2188 31.438C95.417 31.4408 97.2034 29.5456 97.2034 26.6779V10.8014C97.2034 8.04445 95.3396 6.34433 93.2547 6.34433Z" fill="white"/>
<path fill-rule="evenodd" clip-rule="evenodd" d="M105.819 16.0584V11.4961C105.819 10.7699 105.317 10.3715 104.747 10.3715C104.176 10.3715 103.661 10.7547 103.661 11.4961L103.663 16.0584H105.819ZM103.661 26.3158C103.661 27.0545 104.175 27.4418 104.747 27.4418C105.317 27.4418 105.817 27.042 105.817 26.3158V21.4492H111.007V25.9202C111.007 29.6164 107.969 31.4452 104.725 31.4452C101.438 31.4452 98.4644 29.6164 98.4644 25.9202V11.8766C98.4644 8.19135 101.434 6.34875 104.719 6.34875C108.093 6.34875 111.007 8.23424 111.007 11.8766V19.7961H103.659L103.661 26.3158Z" fill="white"/>
<path fill-rule="evenodd" clip-rule="evenodd" d="M118.56 10.8019C117.992 10.8019 117.474 11.1865 117.474 11.928V31.1452H112.279V6.63535H117.37L117.47 8.341H117.584C118.073 7.6604 119.328 6.34485 121.062 6.34485C123.072 6.34485 124.826 7.97718 124.826 10.5709V19.7701H119.632V11.7661C119.632 11.1796 119.072 10.8019 118.549 10.8019H118.56Z" fill="white"/>
<path fill-rule="evenodd" clip-rule="evenodd" d="M147.23 16.0584V11.4961C147.23 10.7699 146.731 10.3715 146.158 10.3715C145.589 10.3715 145.072 10.7547 145.072 11.4961L145.075 16.0584H147.23ZM145.072 26.3158C145.072 27.0545 145.589 27.4418 146.158 27.4418C146.731 27.4418 147.23 27.042 147.23 26.3158V21.4492H152.42V25.9202C152.42 29.6164 149.376 31.4452 146.136 31.4452C142.85 31.4452 139.88 29.6164 139.88 25.9202V11.8766C139.88 8.19135 142.845 6.34875 146.132 6.34875C149.504 6.34875 152.42 8.23424 152.42 11.8766V19.7961H145.072V26.3158Z" fill="white"/>
<path fill-rule="evenodd" clip-rule="evenodd" d="M159.957 10.8019C159.38 10.8019 158.869 11.1865 158.869 11.928V31.1452H153.673V6.63535H158.761L158.864 8.341H158.977C159.467 7.6604 160.722 6.34485 162.459 6.34485C164.469 6.34485 166.224 7.97718 166.224 10.5709V19.7701H161.025V11.7661C161.025 11.1796 160.465 10.8019 159.943 10.8019H159.957Z" fill="white"/>
<mask id="mask0_189_3173" style="mask-type:luminance" maskUnits="userSpaceOnUse" x="126" y="6" width="13" height="32">
<g opacity="0.7">
<path d="M126.092 6.34473H138.625V37.8402H126.092V6.34473Z" fill="white"/>
</g>
</mask>
<g mask="url(#mask0_189_3173)">
<path fill-rule="evenodd" clip-rule="evenodd" d="M133.432 32.9407C133.432 33.6656 132.931 34.064 132.359 34.064C131.79 34.064 131.275 33.6766 131.275 32.9407V30.9528H126.092V32.3044C126.092 36.1362 128.731 37.8405 132.341 37.8405C135.924 37.8405 138.625 36.1362 138.625 32.3044V6.63523H133.51L133.432 8.35333H133.306C133.035 7.79169 131.821 6.34473 129.885 6.34473C128.011 6.34473 126.092 7.78478 126.092 10.4477V25.0847C126.092 27.8888 127.89 29.5252 129.914 29.5252C131.84 29.5252 132.959 28.2374 133.278 27.7255H133.432V32.9407ZM133.432 24.3336C133.432 25.0585 132.934 25.4569 132.359 25.4569C131.79 25.4569 131.275 25.0737 131.275 24.3336V11.9348C131.275 11.1988 131.79 10.8157 132.359 10.8157C132.934 10.8157 133.432 11.2113 133.432 11.9348V24.3336Z" fill="white"/>
</g>
<path fill-rule="evenodd" clip-rule="evenodd" d="M6.26972 25.92C6.26972 26.6601 6.78508 27.0461 7.3557 27.0461C7.9277 27.0461 8.42647 26.6449 8.42647 25.92V23.0136C8.42647 20.6952 7.93046 19.8513 6.21031 18.2328C4.74439 16.8523 4.00521 16.1412 3.05741 15.2476C1.8457 14.1008 0.447482 12.5017 0.447482 9.51647V5.83265C0.446101 1.78778 3.80764 0.282715 7.34879 0.282715C10.8789 0.282715 14.2128 1.82098 14.2128 5.8036V10.554H8.42647V5.9447C8.42647 5.21845 7.92631 4.82005 7.35293 4.82005C6.78231 4.82005 6.26972 5.206 6.26972 5.9447V8.15803C6.26972 10.0739 6.86936 10.9178 8.45686 12.4339C9.0938 13.0467 10.539 14.4536 11.6512 15.5395C13.6394 17.49 14.3275 19.2482 14.3275 21.6677V25.7845C14.3275 30.0673 10.8858 31.5696 7.34879 31.5696C3.76619 31.5709 0.426758 30.0673 0.426758 25.9892V20.0907H6.26972V25.92Z" fill="white"/>
</g>
</svg>
