<svg width="137" height="41" viewBox="0 0 137 41" fill="none" xmlns="http://www.w3.org/2000/svg">
<g opacity="0.7">
<path fill-rule="evenodd" clip-rule="evenodd" d="M130.3 5.04483C131.46 4.8999 132.329 5.62454 132.185 6.63903C130.88 15.9144 129.431 25.3347 128.127 34.4651C127.982 35.1898 127.257 35.7695 126.243 35.7695C104.358 34.8999 82.3295 34.4651 60.3005 34.61C59.286 34.61 58.5614 33.8854 58.7063 33.0158C58.9961 31.8564 59.1411 30.8419 59.4309 29.6825C59.4309 29.5376 59.5758 29.5376 59.5758 29.5376C60.3005 29.3927 60.8802 29.2477 61.0251 29.1028C61.0251 29.1028 60.4454 29.2477 59.5758 29.2477C41.8947 30.9869 24.3585 33.1608 6.82222 35.7695C5.6628 35.9144 4.79324 35.1898 4.93817 34.1753C6.24251 24.755 7.69179 15.4796 8.99614 6.20425C9.14106 5.47961 9.8657 4.8999 10.8802 4.8999C29.8657 5.76947 48.9961 6.05932 67.9816 6.20425C68.9961 6.20425 69.7208 6.92889 69.5759 7.79845C69.286 9.1028 68.9961 10.5521 68.7063 11.8564C89.286 10.1173 109.866 7.94338 130.3 5.04483ZM76.8222 15.0448C73.7787 15.3347 70.7353 15.6245 67.6918 15.9144C67.5469 15.9144 67.5469 15.9144 67.5469 16.0593C66.3874 21.1318 65.3729 26.0593 64.2135 31.1318C64.2135 31.2767 64.3585 31.2767 64.3585 31.2767H65.6628C65.8077 31.2767 65.9527 31.2767 66.0976 31.2767H67.1121C67.6918 31.2767 68.1266 31.2767 68.7063 31.2767H69.286C69.5759 31.2767 70.0106 31.2767 70.3005 31.2767H71.0251C71.1701 31.2767 71.315 31.2767 71.4599 31.2767H72.9092C73.199 31.2767 73.6338 31.2767 74.0686 31.2767C74.0686 31.2767 74.2135 31.2767 74.2135 31.1318C74.3585 30.4071 74.3585 30.2622 74.6483 28.8129C74.6483 28.668 74.6483 28.668 74.5034 28.668C72.7643 28.668 70.4454 28.668 68.5614 28.8129C68.5614 28.668 68.5614 28.5231 68.5614 28.5231C68.8512 27.2187 68.9961 26.3492 69.286 25.0448C68.9961 25.0448 68.7063 25.0448 68.7063 24.8999V24.755C69.1411 24.755 72.0396 24.61 73.0541 24.61C73.199 24.61 73.199 24.61 73.199 24.4651C73.344 23.7405 73.4889 22.8709 73.7787 22.1463C73.7787 22.0014 73.7787 22.0014 73.6338 22.0014C72.4744 22.0014 71.315 22.1463 70.1556 22.1463C70.0106 22.1463 70.0106 22.0014 70.0106 22.0014C70.3005 20.8419 70.4454 19.9724 70.7353 18.8129C70.4454 18.8129 70.3005 18.8129 70.1556 18.668V18.5231C70.7353 18.5231 74.9382 18.2332 76.3874 18.0883C76.5324 18.0883 76.5324 18.0883 76.5324 17.9434C76.6773 17.2187 76.8222 15.9144 77.1121 15.1898C77.1121 15.1898 76.9672 15.0448 76.8222 15.0448ZM114.503 11.4216C113.489 11.5666 112.329 11.5666 111.315 11.7115C111.315 11.7115 111.17 11.7115 111.17 11.8564C110.445 15.4796 109.866 19.1028 109.141 22.726C109.141 22.8709 108.851 22.8709 108.851 22.726C108.706 22.0014 108.561 21.2767 108.271 20.4071C107.692 17.6535 106.967 15.0448 106.243 12.4361C106.243 12.2912 106.098 12.2912 106.098 12.2912C105.808 12.2912 105.373 12.2912 104.938 12.4361L103.779 12.5811C103.344 12.5811 103.054 12.5811 102.619 12.726C102.619 12.726 102.474 12.726 102.474 12.8709C101.025 21.2767 100.735 23.4506 100.445 25.1898V25.6245V25.7695V26.0593C100.3 27.2187 100.011 28.5231 99.5759 31.4216C99.5759 31.4216 99.5759 31.5666 99.7208 31.5666C100.011 31.5666 100.156 31.5666 100.3 31.5666H100.88H101.025H102.185C102.329 31.5666 102.474 31.5666 102.764 31.5666C102.764 31.5666 102.909 31.5666 102.909 31.4216C103.634 27.9434 104.214 24.61 104.938 21.1318C104.938 20.9869 105.228 20.9869 105.228 21.1318C105.373 21.8564 105.663 22.726 105.808 23.4506C106.532 26.2043 107.692 28.668 108.416 31.4216C108.416 31.4216 108.416 31.5666 108.561 31.5666C108.851 31.5666 108.996 31.5666 109.141 31.5666H110.59C110.735 31.5666 110.88 31.5666 111.025 31.5666C111.025 31.5666 111.17 31.5666 111.17 31.4216C112.329 24.4651 112.764 22.0014 113.199 19.8274L113.344 19.2477C113.634 17.3637 113.924 15.4796 114.503 11.4216ZM90.1556 13.7405C89.1411 13.8854 88.1266 13.8854 87.1121 14.0303C86.9671 14.0303 86.8222 14.1753 86.8222 14.1753C85.228 17.9434 83.7787 21.5666 82.3295 25.1898C82.1845 25.3347 82.0396 25.3347 82.0396 25.1898C82.0396 21.7115 81.8947 18.0883 81.8947 14.61C81.8947 14.4651 81.7498 14.4651 81.6048 14.4651C80.4454 14.61 79.5758 14.61 78.4164 14.755C78.4164 14.755 78.2715 14.755 78.2715 14.8999C78.4164 19.9724 78.7063 25.0448 78.9961 31.1318C78.9961 31.1318 78.9961 31.2767 79.1411 31.2767C80.3005 31.2767 81.315 31.2767 82.4744 31.2767C82.4744 31.2767 82.6193 31.2767 82.6193 31.1318C85.228 25.6245 87.8367 19.9724 90.4454 13.8854C90.4454 13.8854 90.3005 13.7405 90.1556 13.7405ZM127.257 10.1173L116.532 11.1318C116.532 11.1318 116.387 11.1318 116.387 11.2767C116.243 12.2912 115.953 13.1608 115.808 14.3202C115.808 14.4651 115.808 14.4651 115.953 14.4651L119.286 14.1753C119.431 14.1753 119.431 14.1753 119.431 14.3202C118.416 19.9724 117.547 25.7695 116.532 31.2767C116.532 31.2767 116.532 31.4216 116.677 31.4216C117.837 31.4216 118.996 31.4216 120.156 31.4216C120.156 31.4216 120.3 31.4216 120.3 31.2767C121.315 25.6245 122.185 19.8274 123.199 14.0303C122.909 14.0303 122.474 14.0303 122.329 13.8854V13.7405C122.619 13.7405 123.489 13.5956 124.358 13.5956H125.083C125.808 13.5956 126.387 13.4506 126.822 13.4506C126.822 13.4506 126.967 13.4506 126.967 13.3057C126.967 12.1463 127.112 11.4216 127.257 10.1173ZM100.735 12.726L91.7498 13.5956C91.7498 13.5956 91.6048 13.5956 91.6048 13.7405C90.5903 19.6825 89.4309 25.3347 88.4164 31.1318C88.4164 31.2767 88.5614 31.2767 88.5614 31.2767H97.5469C97.5469 31.2767 97.6918 31.2767 97.6918 31.1318C97.8367 30.2622 97.9816 29.3927 98.1266 28.3782C98.1266 28.2332 98.1266 28.2332 97.9816 28.2332C96.2425 28.2332 94.5034 28.3782 92.7643 28.3782C92.6193 28.3782 92.6193 28.2332 92.6193 28.2332C92.9092 26.784 93.0541 25.3347 93.344 23.8854C93.0541 23.8854 92.7643 23.8854 92.6193 23.7405V23.5956C92.9092 23.5956 93.7787 23.5956 94.7932 23.4506H95.5179C96.2425 23.4506 96.8222 23.4506 97.1121 23.3057C97.257 23.3057 97.257 23.3057 97.257 23.1608C97.4019 22.4361 97.5469 21.5666 97.6918 20.8419C97.6918 20.697 97.6918 20.697 97.5469 20.697L94.0686 20.9869C93.9237 20.9869 93.9237 20.8419 93.9237 20.8419C94.2135 19.5376 94.5034 18.0883 94.6483 16.639C94.3585 16.639 94.0686 16.639 93.9237 16.4941V16.3492C94.5034 16.3492 98.5614 15.9144 100.3 15.7695C100.445 15.7695 100.445 15.7695 100.445 15.6245C100.59 14.755 100.735 13.8854 100.88 13.0158C100.88 12.726 100.735 12.726 100.735 12.726ZM30.1556 9.68251C28.7063 9.68251 27.1121 9.68251 25.6628 9.68251C25.6628 9.68251 25.5179 9.68251 25.5179 9.82744C25.0831 11.1318 24.2135 13.3057 23.4889 15.4796L23.199 16.3492C22.0396 19.3927 21.0251 22.4361 20.8802 23.0158C20.8802 21.8564 20.7353 13.1608 20.5903 9.82744C20.5903 9.68251 20.4454 9.68251 20.4454 9.68251C18.8512 9.68251 17.4019 9.68251 15.8077 9.68251C15.6628 9.68251 15.6628 9.68251 15.6628 9.82744C14.5034 16.2043 13.344 23.4506 12.1845 29.9724C12.1845 30.1173 12.3295 30.1173 12.3295 30.1173L15.228 29.8274C15.3729 29.8274 15.3729 29.8274 15.3729 29.6825C15.9527 26.784 16.6773 22.4361 17.257 19.6825L17.4019 18.9579C17.5469 18.3782 17.6918 17.7985 17.6918 17.5086C17.6918 17.3637 17.8367 17.3637 17.8367 17.5086C17.8367 19.8274 17.8367 26.639 17.9816 29.3927C17.9816 29.5376 18.1266 29.5376 18.1266 29.5376C18.9961 29.3927 19.7208 29.3927 20.5903 29.2477C20.5903 29.2477 20.7353 29.2477 20.7353 29.1028C21.7498 26.3492 24.5034 19.8274 25.3729 17.5086C25.3729 17.3637 25.6628 17.5086 25.5179 17.5086C25.0831 19.5376 24.2135 25.0448 23.4889 28.668C23.4889 28.8129 23.6338 28.8129 23.6338 28.8129C24.6483 28.668 25.6628 28.668 26.6773 28.5231C26.8222 28.5231 26.8222 28.5231 26.8222 28.3782C27.9816 22.1463 28.8512 15.6245 30.0106 9.68251C30.3005 9.68251 30.3005 9.68251 30.1556 9.68251ZM40.3005 9.68251C38.9961 9.68251 37.8367 9.68251 36.5324 9.68251C36.5324 9.68251 36.3874 9.68251 36.3874 9.82744C33.9237 15.6245 31.4599 22.1463 28.9961 28.3782C28.9961 28.5231 28.9961 28.668 29.1411 28.668C30.1556 28.5231 31.17 28.3782 32.1845 28.3782C32.1845 28.3782 32.3295 28.3782 32.3295 28.2332C32.7643 27.0738 33.344 25.7695 33.7787 24.61C33.4889 24.61 33.199 24.61 33.199 24.4651C33.344 24.4651 34.0686 24.4651 34.9382 24.3202H35.5179C36.2425 24.3202 36.8222 24.1753 37.1121 24.1753C37.257 24.1753 37.257 24.3202 37.257 24.3202C37.257 25.3347 37.257 26.639 37.257 27.6535H37.4019C38.5614 27.5086 39.4309 27.5086 40.7353 27.3637C40.8802 27.3637 41.0251 27.2187 41.0251 27.2187C40.8802 21.4216 40.7353 15.6245 40.5903 9.82744C40.5903 9.68251 40.4454 9.68251 40.3005 9.68251ZM45.8077 9.68251C45.6628 9.68251 45.6628 9.68251 45.6628 9.82744C44.7932 14.8999 44.5034 16.2042 44.3585 17.2187V17.5086C44.0686 18.668 43.9237 20.1173 42.6193 26.9289C42.6193 27.0738 42.6193 27.2187 42.7643 27.0738C44.6483 26.9289 44.0686 26.9289 46.2425 26.784C46.3874 26.784 46.3874 26.784 46.3874 26.639C48.5614 14.4651 47.8367 18.9579 49.286 9.82744C49.286 9.68251 49.286 9.68251 49.1411 9.68251C47.9816 9.68251 46.9672 9.68251 45.8077 9.68251ZM63.7787 9.68251H60.8802C60.7353 9.68251 60.7353 9.68251 60.7353 9.82744C60.1556 12.726 59.4309 15.6245 58.8512 18.5231C58.8512 18.668 58.5614 18.668 58.5614 18.5231C58.4164 17.9434 56.6773 12.1463 55.9527 9.82744C55.9527 9.68251 55.8077 9.68251 55.8077 9.68251C54.7932 9.68251 53.4889 9.68251 52.4744 9.68251C52.3295 9.68251 52.3295 9.68251 52.3295 9.82744C51.7498 13.0158 51.6048 14.4651 51.315 15.6245V15.9144V16.2043C51.0251 17.9434 50.5903 19.8274 49.5758 26.2043C49.5758 26.3492 49.5758 26.4941 49.7208 26.3492C52.0396 26.0593 51.17 26.2042 52.7643 26.0593C52.9092 26.0593 52.9092 26.0593 52.9092 25.9144C53.4889 22.8709 54.2135 19.8274 54.7932 16.9289C54.7932 16.784 55.0831 16.784 55.0831 16.9289C55.228 17.5086 55.5179 18.2332 55.6628 18.8129C55.8077 19.3927 56.0976 20.1173 56.3874 20.9869L56.6773 21.7115C57.257 23.4506 57.8367 25.0448 57.9816 25.4796C57.9816 25.6245 58.1266 25.6245 58.1266 25.6245L60.7353 25.4796C60.8802 25.4796 60.8802 25.4796 60.8802 25.3347C61.1701 24.1753 63.199 14.755 64.3585 9.82744C63.9237 9.68251 63.9237 9.68251 63.7787 9.68251ZM37.5469 15.4796C37.5469 17.3637 37.4019 19.2477 37.4019 21.1318C37.4019 21.2767 37.257 21.2767 37.257 21.2767C36.5324 21.2767 35.9527 21.4216 35.228 21.4216C35.0831 21.4216 35.0831 21.2767 35.0831 21.1318C35.8077 19.1028 36.5324 17.2187 37.257 15.3347C37.257 15.1898 37.5469 15.3347 37.5469 15.4796Z" fill="white"/>
<path fill-rule="evenodd" clip-rule="evenodd" d="M6.24269 5.62456L9.28617 5.76949C9.57603 5.33471 10.1557 5.04485 10.8804 5.04485H11.0253L11.3152 3.30573L4.93835 3.01587C4.21371 3.01587 3.634 3.45065 3.634 4.17529L0.880375 34.4651C0.735448 35.3347 1.46009 35.9144 2.32965 35.9144L3.92385 35.7695L4.79342 7.07384C4.79342 6.05935 5.51806 5.62456 6.24269 5.62456Z" fill="white"/>
<path fill-rule="evenodd" clip-rule="evenodd" d="M64.8879 6.2043L12.8589 0.552124C12.1343 0.552124 11.5546 0.986908 11.5546 1.56662L11.4097 3.16082L61.8444 6.05937C62.8589 6.2043 63.8734 6.2043 64.8879 6.2043Z" fill="white"/>
<path fill-rule="evenodd" clip-rule="evenodd" d="M11.3152 3.30579L11.0254 5.04491C27.9819 5.76955 44.7935 6.20434 61.75 6.20434L11.3152 3.30579Z" fill="white"/>
<path fill-rule="evenodd" clip-rule="evenodd" d="M61.0253 29.1029C61.0253 29.1029 60.4456 29.2478 59.576 29.2478C41.8948 30.987 24.3586 33.1609 6.82238 35.7696C6.24267 35.9145 5.66296 35.6246 5.3731 35.3348L3.92383 35.4797V37.6536C3.92383 37.7986 3.92383 38.0884 4.06876 38.2333C4.35861 38.6681 4.79339 38.958 5.3731 38.958L58.8514 29.6826C59.4311 29.5377 60.0108 29.3928 60.4456 29.2478C60.7354 29.2478 60.8804 29.1029 61.0253 29.1029Z" fill="white"/>
<path fill-rule="evenodd" clip-rule="evenodd" d="M4.93841 34.3203C6.24276 24.9 7.69204 15.6246 8.99638 6.34927C8.99638 6.20434 9.14131 5.91449 9.28624 5.76956L6.24276 5.62463C5.51812 5.62463 4.93841 6.20435 4.93841 6.92898L4.06885 35.6246L5.51812 35.4797C5.08334 35.0449 4.93841 34.7551 4.93841 34.3203Z" fill="white"/>
<path fill-rule="evenodd" clip-rule="evenodd" d="M135.191 5.63767L133.597 5.7826L132.728 34.4783C132.728 35.2029 132.148 35.7826 131.423 35.7826L127.365 35.4927C127.076 35.6377 126.786 35.7826 126.496 35.7826L126.351 36.2174L126.061 38.1014L132.438 38.3913C133.162 38.3913 133.742 37.9565 133.742 37.2319L136.496 6.94202C136.641 6.21738 135.916 5.49274 135.191 5.63767Z" fill="white"/>
<path fill-rule="evenodd" clip-rule="evenodd" d="M126.098 38.0884L70.011 34.6101C68.4168 34.6101 66.6777 34.6101 65.0835 34.6101L124.214 40.6971C125.083 40.6971 125.808 40.2623 125.808 39.6826L126.098 38.0884Z" fill="white"/>
<path fill-rule="evenodd" clip-rule="evenodd" d="M126.243 35.7695C107.547 35.0449 88.8513 34.6101 70.0107 34.6101L126.098 38.0884L126.388 36.2043L126.532 35.7695C126.388 35.7695 126.388 35.7695 126.243 35.7695Z" fill="white"/>
<path fill-rule="evenodd" clip-rule="evenodd" d="M132.185 5.91445L133.634 5.76952V3.59561C133.634 3.45068 133.634 3.16083 133.489 3.0159C133.199 2.58111 132.764 2.29126 132.185 2.29126L69.8657 11.7115C90.0107 9.82749 110.156 7.79851 130.301 4.89995C131.17 4.89995 131.895 5.33474 132.185 5.91445Z" fill="white"/>
<path fill-rule="evenodd" clip-rule="evenodd" d="M132.185 6.4942C130.881 15.9145 129.431 25.3348 128.127 34.4652C128.127 34.9 127.837 35.3348 127.402 35.4797L131.315 35.6246C132.04 35.6246 132.62 35.0449 132.62 34.3203L133.489 5.62463L132.04 5.76956C132.185 6.20434 132.185 6.34927 132.185 6.4942Z" fill="white"/>
</g>
</svg>
