<svg width="74" height="41" viewBox="0 0 74 41" fill="none" xmlns="http://www.w3.org/2000/svg">
<g clip-path="url(#clip0_189_3692)">
<g opacity="0.7">
<mask id="mask0_189_3692" style="mask-type:luminance" maskUnits="userSpaceOnUse" x="51" y="1" width="23" height="27">
<g opacity="0.7">
<path d="M51.1523 1.20837H73.2866V27.8845H51.1523V1.20837Z" fill="white"/>
</g>
</mask>
<g mask="url(#mask0_189_3692)">
<path fill-rule="evenodd" clip-rule="evenodd" d="M73.2866 20.0061C73.2741 20.0821 73.2518 20.1575 73.2501 20.2335C73.2323 21.0758 73.0038 21.8673 72.6638 22.6284C72.1438 23.7935 71.3569 24.749 70.3398 25.5158C69.4083 26.2187 68.3775 26.733 67.2763 27.1084C66.4975 27.3735 65.6981 27.5524 64.8849 27.6753C63.6598 27.8598 62.4278 27.9113 61.1918 27.8724C58.9821 27.8033 56.8203 27.4484 54.7152 26.7684C53.7552 26.4587 52.8249 26.0793 51.9489 25.5764C51.7015 25.4341 51.4638 25.2764 51.2215 25.125C51.1981 25.1101 51.1781 25.0895 51.1523 25.0684C51.1529 24.9787 51.2021 24.9055 51.2358 24.8295C51.7975 23.565 52.3609 22.3015 52.9243 21.0375C53.0866 20.6724 53.2489 20.3073 53.4123 19.9427C53.4409 19.8781 53.4729 19.8153 53.5089 19.7404C53.5546 19.761 53.5935 19.7735 53.6272 19.7953C55.3283 20.8781 57.1872 21.5615 59.1541 21.9655C60.3483 22.2107 61.5575 22.2895 62.7746 22.2261C63.3306 22.197 63.8832 22.1313 64.4226 21.981C64.6569 21.9158 64.8849 21.8347 65.1032 21.7267C65.2963 21.6313 65.4763 21.517 65.6352 21.3707C65.9363 21.0935 66.1095 20.7524 66.1472 20.3421C66.2089 19.6604 65.9552 19.129 65.3855 18.753C65.2375 18.6553 65.0769 18.573 64.9152 18.5004C64.3529 18.2501 63.7655 18.0735 63.1752 17.9067C62.2963 17.6575 61.4043 17.4633 60.5135 17.2627C59.1209 16.9501 57.7432 16.5821 56.3975 16.1015C55.1729 15.6644 54.1141 14.9747 53.2061 14.0433C52.4575 13.2747 51.9815 12.3661 51.7541 11.3238C51.5546 10.4095 51.5112 9.48382 51.6283 8.5564C51.8712 6.63925 52.7381 5.05297 54.2106 3.80097C54.9735 3.15297 55.8352 2.66725 56.7541 2.27811C57.6055 1.91811 58.4906 1.67297 59.3986 1.50668C60.7238 1.26382 62.0615 1.18382 63.4055 1.21468C65.3049 1.25754 67.1718 1.5284 68.9969 2.06382C70.0478 2.3724 71.0575 2.78154 72.0146 3.31697C72.0821 3.35468 72.1472 3.3964 72.2003 3.42897C72.2083 3.45468 72.2112 3.46097 72.2118 3.46782C72.2123 3.47525 72.2129 3.48325 72.2101 3.48954C71.4901 5.22897 70.7695 6.9684 70.0489 8.70782C70.0381 8.73411 70.0221 8.75754 70.0072 8.78154C70.0043 8.78725 69.9963 8.78954 69.9758 8.80211C69.9152 8.7724 69.8455 8.73982 69.7769 8.7044C68.8518 8.22154 67.8975 7.80897 66.9015 7.4924C66.0009 7.20668 65.0826 7.00668 64.1426 6.90954C63.3169 6.8244 62.4895 6.82097 61.6632 6.90725C61.2512 6.95011 60.8443 7.02668 60.4495 7.15697C60.0803 7.27925 59.7398 7.45411 59.4421 7.7084C59.1066 7.99468 58.8661 8.34211 58.7843 8.78211C58.6603 9.45354 58.8489 10.009 59.4152 10.4164C59.5895 10.5421 59.7792 10.6404 59.9769 10.7244C60.5101 10.9507 61.0632 11.1175 61.6203 11.2707C62.4049 11.4861 63.1998 11.657 63.9946 11.8295C65.4312 12.1415 66.8535 12.5061 68.2443 12.9878C69.1621 13.3061 70.0152 13.7421 70.7815 14.3421C71.1872 14.6598 71.5626 15.0101 71.9061 15.3935C72.4855 16.0398 72.8563 16.7947 73.0689 17.6313C73.1741 18.0473 73.2501 18.4678 73.2501 18.8993C73.2501 18.9827 73.2735 19.0661 73.2866 19.1495V20.0061Z" fill="white"/>
</g>
<mask id="mask1_189_3692" style="mask-type:luminance" maskUnits="userSpaceOnUse" x="69" y="31" width="5" height="6">
<g opacity="0.7">
<path d="M69.5977 31.3068H73.2867V36.1952H69.5977V31.3068Z" fill="white"/>
</g>
</mask>
<g mask="url(#mask1_189_3692)">
<path fill-rule="evenodd" clip-rule="evenodd" d="M73.2867 36.1952C73.2016 36.1906 73.1165 36.1832 73.0313 36.1826C71.9753 36.1821 70.9193 36.1826 69.8627 36.1821C69.7856 36.1821 69.7085 36.1775 69.6187 36.1746C69.6107 36.1255 69.6022 36.0855 69.5993 36.0449C69.5965 35.9952 69.5982 35.9455 69.5982 35.8952C69.5982 34.4615 69.5982 33.0272 69.5987 31.5929C69.5987 31.5089 69.6022 31.4243 69.6039 31.3301C69.8336 31.2889 70.0536 31.3158 70.2719 31.3112C70.4925 31.3061 70.7136 31.3101 70.9193 31.3101C70.9827 31.3695 70.9679 31.4295 70.9679 31.4843C70.9696 31.8695 70.969 32.2552 70.969 32.6403C70.969 33.3678 70.9685 34.0958 70.969 34.8232C70.969 34.9009 70.9725 34.9781 70.9747 35.0615C71.009 35.0723 71.0353 35.0872 71.061 35.0872C71.8027 35.0861 72.545 35.0838 73.2867 35.0815V36.1952Z" fill="white"/>
</g>
<mask id="mask2_189_3692" style="mask-type:luminance" maskUnits="userSpaceOnUse" x="5" y="38" width="4" height="3">
<g opacity="0.7">
<path d="M5.65137 38.1561H8.29534V40.6494H5.65137V38.1561Z" fill="white"/>
</g>
</mask>
<g mask="url(#mask2_189_3692)">
<path fill-rule="evenodd" clip-rule="evenodd" d="M7.64198 39.385C7.63912 39.3422 7.63912 39.2993 7.63398 39.257C7.59684 38.9639 7.38027 38.741 7.08027 38.6856C6.81169 38.6364 6.52598 38.7684 6.39455 39.0147C6.25684 39.273 6.26084 39.5353 6.40998 39.7884C6.55455 40.0342 6.85341 40.1513 7.12998 40.0827C7.47055 39.9987 7.65512 39.6964 7.64198 39.385ZM6.85169 40.6496C6.78369 40.6307 6.71627 40.6107 6.64827 40.5942C6.15912 40.4753 5.80427 40.1976 5.69055 39.6953C5.48941 38.813 6.09684 38.2547 6.73227 38.1736C6.95341 38.145 7.17341 38.1479 7.38941 38.2096C7.97455 38.3759 8.32884 38.8644 8.29284 39.473C8.25741 40.0804 7.82369 40.4844 7.28941 40.5953C7.22827 40.6084 7.16884 40.6313 7.10827 40.6496H6.85169Z" fill="white"/>
</g>
<path fill-rule="evenodd" clip-rule="evenodd" d="M72.2022 7.82062C72.2753 7.81491 72.3308 7.8172 72.3833 7.80462C72.4496 7.7892 72.4828 7.73091 72.4771 7.66005C72.4725 7.59948 72.4382 7.55034 72.3782 7.54062C72.3256 7.53205 72.2696 7.53891 72.2148 7.53891C72.1753 7.62748 72.1856 7.70862 72.2022 7.82062ZM71.8651 7.28748C72.0719 7.28177 72.2713 7.27148 72.4691 7.29377C72.6188 7.31034 72.7468 7.38348 72.7965 7.5332C72.8462 7.68177 72.8348 7.8292 72.7148 7.95034C72.6953 7.96977 72.6782 7.99148 72.6502 8.02291C72.6971 8.09662 72.7411 8.16862 72.7879 8.23834C72.8108 8.2732 72.8388 8.30405 72.8651 8.33777C73.1639 8.04805 73.1399 7.5092 72.8239 7.22348C72.4942 6.9252 71.9531 6.97205 71.6799 7.3212C71.4285 7.64291 71.4485 8.22462 71.8662 8.49205C72.0559 8.6132 72.2622 8.64691 72.4816 8.59262C72.6611 8.54805 72.7371 8.49662 72.8051 8.37148C72.7045 8.36348 72.6085 8.35548 72.5148 8.34748C72.4576 8.26348 72.4056 8.18691 72.3531 8.11091C72.3256 8.07148 72.2816 8.0532 72.2416 8.07262C72.2165 8.08462 72.1971 8.1252 72.1913 8.15662C72.1788 8.2172 72.1776 8.27948 72.1713 8.35034C72.0965 8.3532 72.0331 8.35834 71.9702 8.35834C71.9359 8.35777 71.9016 8.3492 71.8702 8.34462C71.8371 8.18177 71.8319 7.54348 71.8651 7.28748ZM73.2868 7.97148C73.2748 7.99605 73.2542 8.02062 73.2519 8.04634C73.2228 8.33491 73.0536 8.53091 72.8222 8.67662C72.3799 8.95491 71.7885 8.83777 71.4845 8.42005C71.1731 7.99262 71.2451 7.38348 71.6468 7.0492C71.9982 6.75662 72.5336 6.73605 72.8993 7.00977C73.0868 7.14977 73.2285 7.3252 73.2502 7.57262C73.2531 7.60634 73.2742 7.63891 73.2868 7.67148V7.97148Z" fill="white"/>
<path fill-rule="evenodd" clip-rule="evenodd" d="M0.857466 27.3696C0.848895 27.2936 0.840323 27.2456 0.838609 27.1971C0.808895 26.0445 0.826037 1.97993 0.858037 1.7485C0.893466 1.7405 0.932895 1.72736 0.972895 1.7245C1.02947 1.7205 1.08661 1.72336 1.14375 1.72336C7.64718 1.72336 14.1506 1.72279 20.6535 1.72336C20.7449 1.72336 20.8375 1.7125 20.9318 1.73936C20.9386 1.77365 20.9489 1.8005 20.9489 1.82736C20.9489 3.63308 20.9483 5.43879 20.9466 7.2445C20.9466 7.26393 20.934 7.28336 20.9243 7.31022C20.8975 7.31422 20.8706 7.32165 20.8432 7.32279C20.7649 7.3245 20.686 7.32393 20.6077 7.32393C16.51 7.32393 12.4123 7.32393 8.31518 7.3245C8.22375 7.32508 8.13061 7.31079 8.03861 7.34279C7.99861 7.41993 8.01404 7.49936 8.01404 7.57593C8.01289 8.61822 8.01289 9.6605 8.01289 10.7022C8.01289 10.9525 8.01232 11.2022 8.01347 11.4519C8.01404 11.5079 8.02032 11.5639 8.02432 11.6314C8.06947 11.6399 8.10889 11.6519 8.14889 11.6542C8.22032 11.6576 8.29175 11.6559 8.36318 11.6559C11.9466 11.6559 15.5306 11.6554 19.114 11.6559C19.2049 11.6559 19.2975 11.6456 19.3923 11.6714C19.3992 11.7056 19.4095 11.7325 19.4095 11.7594C19.41 13.5005 19.4089 15.2422 19.4078 16.9839C19.4078 17.0034 19.3952 17.0228 19.3849 17.0525C19.3523 17.0576 19.3186 17.0668 19.2849 17.0679C19.206 17.0708 19.1278 17.0696 19.0495 17.0696C15.4798 17.0702 11.9106 17.0696 8.34147 17.0702C8.24261 17.0702 8.14375 17.0748 8.03289 17.0776C8.02547 17.1308 8.01575 17.1702 8.01404 17.2108C8.01118 17.2816 8.01289 17.3531 8.01289 17.4245C8.01289 18.7811 8.01289 20.1371 8.01347 21.4931C8.01404 21.5771 8.00089 21.6634 8.03632 21.7525C8.07347 21.7576 8.10718 21.7662 8.14147 21.7674C8.21289 21.7696 8.28432 21.7685 8.35575 21.7685C12.61 21.7685 16.8649 21.7685 21.1192 21.7685C21.2112 21.7685 21.3026 21.7719 21.406 21.7736C21.4146 21.8256 21.4249 21.8656 21.4277 21.9056C21.4311 21.9628 21.4295 22.0199 21.4295 22.0771C21.4295 23.7399 21.4295 25.4034 21.4283 27.0662C21.4283 27.1576 21.4426 27.2514 21.406 27.3514C21.3678 27.3571 21.3272 27.3668 21.286 27.3685C21.222 27.3714 21.1575 27.3696 21.0935 27.3696C14.4546 27.3696 7.81575 27.3696 1.17689 27.3696H0.857466Z" fill="white"/>
<mask id="mask3_189_3692" style="mask-type:luminance" maskUnits="userSpaceOnUse" x="29" y="0" width="15" height="10">
<g opacity="0.7">
<path d="M29.0869 0.649414H43.0412V9.1101H29.0869V0.649414Z" fill="white"/>
</g>
</mask>
<g mask="url(#mask3_189_3692)">
<path fill-rule="evenodd" clip-rule="evenodd" d="M43.0412 2.55586C43.0378 2.57414 43.0389 2.59814 43.0286 2.61414C41.6389 4.75643 40.2481 6.89872 38.8572 9.03986C38.8423 9.06214 38.8183 9.07872 38.7886 9.10843C38.2246 8.82443 37.6361 8.617 37.0126 8.51472C36.3875 8.41186 35.7641 8.41129 35.1389 8.51414C34.5138 8.61643 33.9246 8.821 33.3652 9.11014C33.2783 9.07472 33.2492 8.99757 33.2081 8.93414C32.8921 8.45014 32.5778 7.96557 32.2629 7.481C31.2412 5.90786 30.2183 4.33472 29.1972 2.76157C29.1555 2.697 29.0983 2.63872 29.0869 2.55872C29.3303 2.35014 30.3543 1.85129 31.1361 1.55357C32.7058 0.955859 34.3332 0.657574 36.0092 0.649574C37.5749 0.642145 39.1041 0.894145 40.5863 1.40786C41.5183 1.73129 42.7246 2.29757 43.0412 2.55586Z" fill="white"/>
</g>
<path fill-rule="evenodd" clip-rule="evenodd" d="M27.9619 25.8144C26.1196 24.4704 24.695 22.8087 23.6699 20.8024C22.6013 18.7115 22.2219 16.4967 22.2139 15.2093C22.251 15.2007 22.2904 15.1875 22.3304 15.1841C22.3802 15.1795 22.4304 15.1824 22.4802 15.1824C25.0139 15.183 27.5476 15.1835 30.0819 15.1847C30.1659 15.1853 30.2527 15.1675 30.3424 15.2144C30.3584 15.2704 30.3796 15.331 30.3922 15.3927C30.6053 16.447 31.0853 17.3635 31.8042 18.1601C31.9762 18.3504 32.1362 18.5521 32.299 18.7504C32.3436 18.8047 32.3802 18.8653 32.4264 18.9321C32.3876 18.9984 32.3544 19.0601 32.3167 19.119C31.5242 20.3401 30.7316 21.5601 29.939 22.7807C29.3253 23.7264 28.7116 24.6721 28.0979 25.6173C28.0596 25.6761 28.0184 25.7327 27.9619 25.8144Z" fill="white"/>
<path fill-rule="evenodd" clip-rule="evenodd" d="M39.7168 18.942C39.7608 18.8775 39.7962 18.8163 39.8402 18.7615C39.9974 18.5678 40.1499 18.3695 40.3179 18.1849C41.0397 17.3912 41.5237 16.4769 41.7448 15.4255C41.7951 15.1872 41.7979 15.1866 42.0322 15.1866C44.5797 15.1866 47.1277 15.1866 49.6751 15.1872C49.7517 15.1878 49.8328 15.1678 49.9105 15.226C49.9454 15.3312 49.9259 15.4443 49.9157 15.5563C49.8928 15.7975 49.8757 16.0398 49.8408 16.2798C49.7877 16.646 49.7357 17.0135 49.6597 17.3758C49.1585 19.7489 48.1094 21.8512 46.5151 23.6792C45.8699 24.4186 45.1534 25.0809 44.3654 25.6666C44.3088 25.7083 44.2505 25.7478 44.1905 25.79C44.1111 25.7455 44.0814 25.6695 44.0397 25.606C43.4911 24.7632 42.9437 23.9192 42.3957 23.0758C41.5488 21.7718 40.7019 20.4678 39.8551 19.1638C39.8088 19.0923 39.7654 19.0198 39.7168 18.942Z" fill="white"/>
<path fill-rule="evenodd" clip-rule="evenodd" d="M27.9699 3.25879C29.4053 5.47022 30.8259 7.65822 32.243 9.84107C32.215 9.93707 32.1442 9.97879 32.0888 10.0314C31.6048 10.4942 31.207 11.0205 30.903 11.6176C30.5796 12.2531 30.3756 12.9239 30.307 13.6354C30.3002 13.7051 30.2836 13.7748 30.2699 13.8525C30.2156 13.8622 30.1682 13.8742 30.1208 13.8794C30.0779 13.8834 30.035 13.8805 29.9922 13.8805C27.495 13.8822 24.9979 13.8834 22.5008 13.8839C22.4093 13.8839 22.3162 13.8948 22.2202 13.8611C22.1859 13.7851 22.1996 13.7062 22.2053 13.6302C22.2682 12.8262 22.3808 12.0302 22.5733 11.2456C23.0985 9.10165 24.0808 7.1925 25.5116 5.51307C26.1716 4.73936 26.9099 4.04793 27.7225 3.4365C27.7962 3.38165 27.8716 3.32907 27.9699 3.25879Z" fill="white"/>
<path fill-rule="evenodd" clip-rule="evenodd" d="M49.9055 13.8544C49.8661 13.8624 49.8386 13.8727 49.8112 13.8727C47.1992 13.8738 44.5866 13.8733 41.9746 13.8727C41.9472 13.8727 41.9198 13.8624 41.8866 13.8555C41.8386 13.7555 41.8381 13.6464 41.8249 13.543C41.6558 12.1653 41.0598 11.0024 40.0666 10.039C40.0106 9.98468 39.9472 9.93782 39.8872 9.88754C39.9192 9.82639 39.9352 9.78754 39.9581 9.75211C41.3552 7.59839 42.7535 5.44525 44.1524 3.29382C44.2444 3.29897 44.2941 3.35325 44.3495 3.39439C45.1781 4.00982 45.9289 4.70868 46.6004 5.49211C47.9009 7.00868 48.8352 8.72525 49.3969 10.643C49.5821 11.2721 49.7261 11.9115 49.8072 12.5641C49.8484 12.8961 49.8861 13.2293 49.9209 13.5624C49.9301 13.6533 49.9415 13.7464 49.9055 13.8544Z" fill="white"/>
<path fill-rule="evenodd" clip-rule="evenodd" d="M34.0847 24.4111C34.0573 24.5111 34.0767 24.6002 34.107 24.6882C34.2293 25.0477 34.5464 25.286 34.9316 25.2888C35.687 25.294 36.4424 25.2905 37.1984 25.2905C37.2264 25.2905 37.255 25.29 37.2836 25.2877C37.6836 25.2568 38.0356 24.9122 38.075 24.5122C38.083 24.4357 38.0504 24.3917 37.9693 24.3831C37.899 24.3757 37.8276 24.3751 37.7561 24.3751C36.6298 24.3757 35.5036 24.3762 34.3773 24.3774C34.3133 24.3774 34.2487 24.3768 34.1853 24.3825C34.1516 24.3854 34.119 24.4008 34.0847 24.4111ZM36.0641 22.6482V22.65C35.4224 22.65 34.7807 22.6494 34.1384 22.65C34.0813 22.65 34.0241 22.6477 33.9676 22.6517C33.6653 22.6745 33.4327 22.9082 33.4138 23.206C33.3961 23.4842 33.6047 23.7414 33.8973 23.7962C33.9738 23.8105 34.0533 23.8168 34.131 23.8174C35.4293 23.8191 36.727 23.8202 38.0253 23.8191C38.103 23.8191 38.1818 23.8094 38.2584 23.7962C38.571 23.742 38.7464 23.434 38.727 23.1922C38.703 22.8962 38.4641 22.6671 38.1613 22.65C38.0973 22.6465 38.0327 22.6482 37.9687 22.6482C37.3338 22.6482 36.699 22.6482 36.0641 22.6482ZM29.0898 26.5122C29.1647 26.3517 33.0018 20.4374 33.1578 20.2385C33.2144 20.2391 33.2178 20.2882 33.2338 20.3242C33.4413 20.7808 33.5853 21.258 33.6956 21.746C33.7127 21.822 33.7304 21.8985 33.7504 21.9745C33.7664 22.0357 33.8053 22.0722 33.8721 22.0734C33.9293 22.074 33.9864 22.0757 34.0436 22.0757C35.3927 22.0762 36.7413 22.0768 38.0904 22.0762C38.175 22.0762 38.2613 22.0877 38.3493 22.0557C38.4024 21.9774 38.4138 21.8848 38.4338 21.7957C38.5373 21.3351 38.6721 20.8854 38.8596 20.4522C38.8881 20.3871 38.9184 20.3237 38.9458 20.2648C39.0241 20.2545 39.0384 20.3111 39.0636 20.35C39.2864 20.69 39.5076 21.0311 39.7293 21.3722C40.771 22.9757 41.8121 24.5797 42.8533 26.1837C42.919 26.2842 42.9813 26.3871 43.039 26.4797C43.015 26.5785 42.9407 26.602 42.8801 26.6334C42.519 26.8197 42.1613 27.014 41.7927 27.1842C40.7447 27.6671 39.6481 28.0002 38.5133 28.2048C38.135 28.2728 37.7533 28.3225 37.3693 28.3557C36.935 28.3934 36.5007 28.4214 36.0658 28.4214C35.6304 28.422 35.1961 28.394 34.7624 28.3557C34.0001 28.2894 33.2504 28.1545 32.5116 27.9602C31.3881 27.6654 30.3207 27.2311 29.3058 26.6671C29.2436 26.6328 29.1836 26.5934 29.1241 26.5551C29.1127 26.5477 29.1064 26.5334 29.0898 26.5122Z" fill="white"/>
<path fill-rule="evenodd" clip-rule="evenodd" d="M40.5909 31.3379C40.7509 31.3042 41.4029 31.2956 41.7235 31.3236C42.4155 32.1579 43.116 33.0024 43.8143 33.8453C43.8932 33.8156 43.8669 33.7573 43.8675 33.7133C43.8692 33.1213 43.8686 32.5293 43.8686 31.9373C43.8686 31.7876 43.868 31.6373 43.8692 31.4876C43.8692 31.439 43.8743 31.3904 43.8777 31.3299C44.1035 31.2887 44.3235 31.3162 44.5412 31.311C44.7549 31.3064 44.968 31.3104 45.1897 31.3104C45.2006 31.3624 45.2126 31.4019 45.2166 31.4419C45.2206 31.4842 45.2177 31.5276 45.2177 31.5704C45.2177 33.0184 45.2177 34.4664 45.2177 35.9144C45.2177 35.9916 45.2149 36.0687 45.2132 36.1504C45.176 36.163 45.1503 36.179 45.124 36.179C44.7823 36.1807 44.44 36.1802 44.084 36.1802C43.8497 35.8973 43.6137 35.6122 43.3772 35.327C43.1452 35.047 42.9132 34.767 42.6812 34.487C42.4457 34.2041 42.2137 33.919 41.98 33.6442C41.9515 33.6573 41.9429 33.659 41.9389 33.6636C41.9343 33.6687 41.9332 33.6767 41.932 33.6836C41.9297 33.6979 41.9275 33.7122 41.9269 33.7259C41.9257 33.7476 41.9263 33.7687 41.9263 33.7904C41.9257 34.5533 41.9252 35.3167 41.9246 36.0802C41.9246 36.0939 41.9212 36.1081 41.9189 36.1219C41.9177 36.1293 41.9155 36.1362 41.9109 36.1527C41.8915 36.1602 41.8657 36.1784 41.8406 36.179C41.4486 36.1807 41.056 36.1802 40.6635 36.179C40.644 36.179 40.624 36.167 40.592 36.1567C40.5869 36.119 40.5766 36.0784 40.576 36.0379C40.5743 35.8739 40.5749 35.7093 40.5749 35.5453C40.5749 34.2259 40.5749 32.9064 40.5755 31.5864C40.5755 31.5024 40.5646 31.4167 40.5909 31.3379Z" fill="white"/>
<path fill-rule="evenodd" clip-rule="evenodd" d="M5.60965 31.317H6.73651C6.96794 31.5959 7.19994 31.8753 7.43194 32.1553C7.66851 32.4404 7.90508 32.7267 8.14165 33.0119C8.37308 33.2907 8.60223 33.5707 8.85594 33.8713C8.87251 33.8027 8.88623 33.7707 8.88737 33.7387C8.89023 33.617 8.88908 33.4959 8.88908 33.3747C8.88908 32.7822 8.88908 32.1902 8.88908 31.5982C8.88908 31.513 8.89251 31.4284 8.8948 31.337C8.9388 31.3267 8.97194 31.3124 9.00565 31.3124C9.37651 31.3102 9.74737 31.3107 10.1188 31.3113C10.1462 31.3113 10.1737 31.3187 10.2125 31.3239C10.2188 31.3656 10.2302 31.4062 10.2314 31.4467C10.2337 31.5604 10.2325 31.6747 10.2325 31.789C10.2325 33.1587 10.2325 34.5284 10.2325 35.8987C10.2325 35.9833 10.2297 36.0673 10.2279 36.1616C10.1674 36.1696 10.1199 36.181 10.0719 36.1816C9.80108 36.1833 9.52965 36.1776 9.2588 36.1844C9.14737 36.1873 9.07365 36.1496 9.00394 36.0644C8.46965 35.4136 7.9308 34.7662 7.39365 34.1182C7.27994 33.9804 7.1668 33.8427 7.05137 33.7067C7.0308 33.6822 7.00223 33.665 6.9588 33.6296C6.92908 33.7416 6.94223 33.833 6.94051 33.9227C6.93823 34.0153 6.93994 34.1079 6.93994 34.201V34.4793V34.7576V35.0359V35.3142V35.5924V35.8707V36.1507C6.90165 36.1633 6.87594 36.1793 6.85023 36.1793C6.46508 36.181 6.07937 36.181 5.69423 36.1799C5.67423 36.1799 5.65423 36.1707 5.62108 36.1622C5.61537 36.1233 5.60623 36.0833 5.60394 36.0427C5.60051 35.993 5.6028 35.9427 5.6028 35.893C5.6028 34.4587 5.6028 33.0244 5.6028 31.5907C5.6028 31.5062 5.6068 31.4222 5.60965 31.317Z" fill="white"/>
<path fill-rule="evenodd" clip-rule="evenodd" d="M57.871 33.8079C57.9145 33.8142 57.9488 33.8239 57.983 33.8239C58.2042 33.8257 58.4248 33.8274 58.6459 33.8239C58.731 33.8222 58.8168 33.8131 58.9008 33.7982C59.2596 33.7359 59.467 33.4999 59.4813 33.1388C59.4836 33.0754 59.4739 33.0108 59.4636 32.9479C59.4242 32.7091 59.2888 32.5417 59.0625 32.4639C58.9368 32.4205 58.7996 32.3959 58.6665 32.3891C58.439 32.3765 58.2105 32.3839 57.9825 32.3857C57.943 32.3862 57.9036 32.4022 57.8682 32.4102C57.8442 32.6074 57.8453 33.6085 57.871 33.8079ZM59.9253 34.6582C60.007 34.7971 60.0962 34.9159 60.179 35.0388C60.263 35.1628 60.3488 35.2857 60.4339 35.4097C60.5185 35.5331 60.6036 35.6565 60.6876 35.7805C60.7699 35.9017 60.8573 36.0199 60.9379 36.1531C60.7562 36.1885 59.799 36.1959 59.4922 36.1679C59.4562 36.1194 59.4133 36.0639 59.3733 36.0057C59.1516 35.6817 58.927 35.3594 58.711 35.0319C58.6419 34.9268 58.5659 34.8691 58.4339 34.8794C58.299 34.8897 58.1625 34.8805 58.027 34.8828C57.9785 34.8834 57.9293 34.8919 57.8688 34.8977C57.8625 34.9588 57.8522 35.0131 57.8516 35.0679C57.8499 35.3605 57.8516 35.6531 57.8505 35.9457C57.8499 36.0154 57.8436 36.0851 57.8396 36.1639C57.607 36.2011 57.387 36.1777 57.1682 36.1811C56.9482 36.1845 56.7276 36.1868 56.5002 36.1782C56.4893 36.1257 56.4768 36.0857 56.4733 36.0451C56.4693 35.9954 56.4722 35.9451 56.4722 35.8954C56.4716 34.4605 56.4716 33.0262 56.4722 31.5914C56.4722 31.5074 56.4768 31.4228 56.479 31.3285C56.5408 31.3211 56.5882 31.3108 56.6356 31.3108C57.3568 31.3102 58.0773 31.3108 58.7985 31.3108C59.0933 31.3114 59.3813 31.3577 59.6608 31.4514C59.8516 31.5148 60.0305 31.6034 60.1928 31.7222C60.5905 32.0137 60.8082 32.4091 60.8568 32.8959C60.8762 33.0948 60.8716 33.2942 60.831 33.4925C60.7396 33.9445 60.4968 34.2891 60.1116 34.5371C60.0533 34.5748 59.9945 34.6131 59.9253 34.6582Z" fill="white"/>
<path fill-rule="evenodd" clip-rule="evenodd" d="M16.9978 32.4216C16.968 32.5593 16.9892 32.7153 16.9852 32.8696C16.9818 33.0262 16.9806 33.1833 16.9858 33.3393C16.9909 33.4936 16.9606 33.6502 17.0092 33.8085C17.0486 33.8142 17.0835 33.8239 17.1178 33.8239C17.3458 33.825 17.5738 33.8268 17.8018 33.8233C17.8795 33.8222 17.9578 33.8119 18.0349 33.7988C18.4086 33.733 18.6229 33.4725 18.6149 33.0959C18.608 32.7319 18.412 32.4953 18.0543 32.4188C18.012 32.4096 17.9703 32.3959 17.928 32.3959C17.6297 32.3942 17.3309 32.3948 17.0326 32.3953C17.0269 32.3953 17.0212 32.4039 16.9978 32.4216ZM15.6343 31.3216C15.6892 31.3176 15.7446 31.3108 15.8006 31.3108C16.5 31.3102 17.1995 31.3108 17.8995 31.3102C18.1938 31.3102 18.4835 31.3485 18.7629 31.4428C18.8772 31.481 18.9915 31.5256 19.0978 31.5822C19.6772 31.8919 19.9732 32.3799 19.9995 33.0336C20.0075 33.2273 19.9915 33.4193 19.94 33.6062C19.8326 33.9936 19.6086 34.2976 19.2732 34.5193C19.2086 34.5622 19.1423 34.6022 19.0806 34.6416C19.0686 34.7159 19.1189 34.7548 19.1492 34.7993C19.4143 35.1885 19.6817 35.5759 19.948 35.9645C19.9875 36.0216 20.0235 36.0822 20.0572 36.1348C20.0458 36.1542 20.0429 36.1616 20.0383 36.1662C20.0338 36.1708 20.0263 36.1753 20.0206 36.1753C19.564 36.1759 19.108 36.1759 18.6355 36.1759C18.6023 36.133 18.5612 36.0845 18.5258 36.0325C18.3035 35.709 18.0829 35.3845 17.8618 35.0605C17.8332 35.0193 17.808 34.9748 17.7743 34.9388C17.7515 34.9148 17.716 34.8879 17.6863 34.8879C17.4663 34.8885 17.2458 34.8953 17.0258 34.9005C17.0195 34.901 17.0138 34.9079 17.0069 34.9119C16.9715 34.9782 16.9858 35.0508 16.9852 35.1216C16.9835 35.4068 16.9858 35.6925 16.984 35.9776C16.9835 36.0399 16.9995 36.1073 16.9452 36.1685C16.9246 36.1725 16.8972 36.181 16.8698 36.181C16.4772 36.181 16.0846 36.1805 15.692 36.1788C15.6726 36.1788 15.6532 36.1662 15.6315 36.1588C15.6235 36.1376 15.6098 36.1182 15.6098 36.0988C15.6092 34.529 15.6092 32.9588 15.6103 31.389C15.6103 31.3696 15.624 31.3496 15.6343 31.3216Z" fill="white"/>
<path fill-rule="evenodd" clip-rule="evenodd" d="M32.0034 33.8017C32.0502 33.812 32.0776 33.8223 32.1045 33.8229C32.3536 33.8235 32.6028 33.8252 32.8514 33.8212C32.9291 33.82 33.0079 33.8086 33.0839 33.7926C33.4296 33.7195 33.6245 33.4806 33.6291 33.1286C33.6296 33.0863 33.6296 33.0429 33.6245 33.0012C33.5936 32.7469 33.4685 32.5566 33.2251 32.4686C33.1005 32.4229 32.9639 32.3966 32.8308 32.3897C32.5971 32.3766 32.3616 32.384 32.1268 32.3857C32.0874 32.3863 32.0479 32.4029 32.0034 32.4132V33.8017ZM34.0708 34.66C34.1976 34.8452 34.3102 35.0097 34.4228 35.1737C34.5319 35.3332 34.6411 35.4915 34.7496 35.6509C34.8605 35.8132 34.9754 35.9737 35.0805 36.1377C35.0508 36.16 35.0405 36.1755 35.0296 36.1755C34.5736 36.1766 34.1176 36.1766 33.6468 36.1766C33.4919 35.9686 33.3496 35.7475 33.1999 35.5315C33.0542 35.3206 32.9108 35.108 32.7725 34.9069C32.5462 34.8686 32.1679 34.8732 32.0091 34.9155C31.9816 35.1172 31.9994 35.3235 31.9965 35.5286C31.9931 35.7349 31.9959 35.9417 31.9959 36.1537C31.9502 36.1652 31.9171 36.18 31.8839 36.1806C31.5062 36.1823 31.1279 36.1823 30.7496 36.1812C30.7159 36.1812 30.6816 36.1703 30.6422 36.164C30.6365 36.1212 30.6285 36.0869 30.6285 36.0526C30.6279 34.484 30.6279 32.9149 30.6279 31.336C30.6794 31.3263 30.7188 31.3115 30.7588 31.3115C31.5222 31.3115 32.2856 31.308 33.0491 31.3155C33.4171 31.3195 33.7708 31.404 34.0999 31.5737C34.5491 31.8052 34.8479 32.16 34.9668 32.656C35.0485 32.996 35.0405 33.3372 34.9371 33.6709C34.8256 34.0315 34.6034 34.3132 34.2879 34.5206C34.2234 34.5629 34.1582 34.604 34.0708 34.66Z" fill="white"/>
<path fill-rule="evenodd" clip-rule="evenodd" d="M39.7267 36.1605C39.5078 36.1908 36.0221 36.1885 35.8387 36.1599C35.8324 36.1245 35.8221 36.0845 35.8193 36.0445C35.8158 35.9948 35.8181 35.9445 35.8181 35.8948C35.8181 34.461 35.8181 33.0268 35.8181 31.593C35.8181 31.509 35.8221 31.4245 35.8244 31.3445C35.901 31.2936 35.9741 31.3113 36.0433 31.3108C36.5713 31.3096 37.0993 31.3102 37.6267 31.3102C38.2118 31.3102 38.797 31.3096 39.3821 31.3102C39.4593 31.3102 39.537 31.313 39.6118 31.3148C39.6244 31.3473 39.6381 31.3668 39.6381 31.3868C39.6404 31.6793 39.6416 31.9713 39.641 32.2639C39.641 32.2908 39.6301 32.3176 39.6233 32.3479C39.5438 32.3839 39.4644 32.3696 39.3884 32.3702C38.7393 32.3713 38.0896 32.3702 37.4404 32.3708C37.3633 32.3708 37.2861 32.3748 37.2136 32.377C37.169 32.541 37.1656 32.9748 37.205 33.1799C37.2747 33.2096 37.3536 33.1976 37.4301 33.1976C37.9867 33.1988 38.5433 33.1976 39.0998 33.1988C39.1758 33.1993 39.2553 33.1868 39.3261 33.2153C39.3621 33.4068 39.361 34.0285 39.3233 34.2073C39.0936 34.2348 38.8593 34.2165 38.6261 34.2199C38.3907 34.2233 38.1553 34.2205 37.9198 34.2205C37.685 34.2205 37.4501 34.2205 37.213 34.2205C37.1496 34.377 37.1844 34.5279 37.1804 34.6742C37.1764 34.8148 37.1673 34.9565 37.1913 35.1005C37.2764 35.1336 37.3553 35.1233 37.4318 35.1233C38.1096 35.1245 38.7873 35.1239 39.4656 35.1239C39.5433 35.1239 39.621 35.1239 39.709 35.1239C39.757 35.3022 39.7301 35.473 39.7336 35.6405C39.737 35.8102 39.7416 35.9805 39.7267 36.1605Z" fill="white"/>
<path fill-rule="evenodd" clip-rule="evenodd" d="M54.1373 31.3294C54.1888 31.3209 54.2162 31.3123 54.2431 31.3123C54.6282 31.3117 55.0139 31.3123 55.3991 31.3134C55.4191 31.314 55.4385 31.3254 55.4693 31.3352C55.4751 31.3889 55.4853 31.4443 55.4853 31.4992C55.4865 32.3483 55.4882 33.198 55.4848 34.0472C55.4836 34.2969 55.4591 34.5454 55.3922 34.7883C55.1916 35.5209 54.7208 35.9849 53.9928 36.1809C53.4665 36.322 52.9311 36.3226 52.4042 36.182C51.6305 35.9746 51.1551 35.47 50.9751 34.6894C50.9219 34.4586 50.9048 34.2232 50.9042 33.9877C50.9019 33.1672 50.9031 32.346 50.9036 31.5254C50.9036 31.4626 50.9111 31.3997 50.9151 31.3283C51.1442 31.2912 51.3642 31.3157 51.5831 31.3112C51.8036 31.3066 52.0242 31.31 52.2282 31.31C52.2962 31.3689 52.2808 31.4294 52.2813 31.4843C52.2825 31.8552 52.2819 32.2266 52.2819 32.5974C52.2819 33.0472 52.2819 33.4969 52.2825 33.9466C52.2825 34.1254 52.2853 34.3043 52.3379 34.4769C52.3625 34.5586 52.3893 34.6409 52.4293 34.7163C52.5945 35.03 52.8728 35.1403 53.2116 35.1397C53.5511 35.1392 53.8299 35.0272 53.9871 34.7083C54.0402 34.6009 54.0779 34.482 54.0979 34.3643C54.1236 34.21 54.1351 34.0523 54.1356 33.8957C54.1391 33.1249 54.1373 32.354 54.1373 31.5832V31.3294Z" fill="white"/>
<path fill-rule="evenodd" clip-rule="evenodd" d="M24.3302 34.2138C23.9474 34.2263 23.5919 34.2183 23.2371 34.2201C22.8896 34.2218 22.5422 34.2195 22.2005 34.2212C22.1605 34.4001 22.1554 34.8863 22.1874 35.0938C22.2565 35.1452 22.3376 35.1223 22.4136 35.1229C23.0914 35.1246 23.7691 35.1241 24.4468 35.1241H24.6862C24.7376 35.3035 24.7079 35.4738 24.7125 35.6418C24.7171 35.8115 24.7108 35.9818 24.7096 36.1618C24.6491 36.1698 24.6011 36.1812 24.5536 36.1812C23.3622 36.1823 22.1714 36.1823 20.9799 36.1818C20.9314 36.1818 20.8834 36.1738 20.8245 36.1686C20.8188 36.1041 20.8102 36.0492 20.8091 35.9943C20.7816 34.3315 20.7965 31.5269 20.8331 31.3361C20.8382 31.3309 20.8428 31.3246 20.8485 31.3218C20.8548 31.3183 20.8622 31.3166 20.8691 31.3166C22.0816 31.3143 23.2942 31.3126 24.5068 31.3109C24.5342 31.3109 24.5622 31.3178 24.5999 31.3218C24.6485 31.4892 24.6188 31.6595 24.6234 31.8275C24.6279 31.9978 24.6222 32.1681 24.6211 32.3315C24.5382 32.3909 24.4571 32.3692 24.3811 32.3698C23.7319 32.3715 23.0828 32.3703 22.4336 32.3709C22.3565 32.3709 22.2788 32.3749 22.2062 32.3772C22.1594 32.5269 22.1514 32.9349 22.1874 33.1686C22.2496 33.2161 22.3234 33.1972 22.3925 33.1978C22.9491 33.1989 23.5051 33.1983 24.0616 33.1983C24.1394 33.1983 24.2171 33.1983 24.3016 33.1983C24.3536 33.3692 24.3239 33.5332 24.3291 33.6938C24.3342 33.8572 24.3302 34.0206 24.3302 34.2138Z" fill="white"/>
<path fill-rule="evenodd" clip-rule="evenodd" d="M46.2706 36.167C46.2438 35.9487 46.2312 32.2373 46.2523 31.4584C46.2535 31.4173 46.2603 31.3756 46.2626 31.3481C46.2809 31.3316 46.2855 31.3253 46.2918 31.3219C46.2975 31.3184 46.3049 31.3167 46.3118 31.3167C46.3615 31.3144 46.4118 31.3104 46.4615 31.3104C47.6392 31.311 48.8169 31.3127 49.9952 31.3144C50.0083 31.3144 50.0215 31.3219 50.0466 31.3299C50.0901 31.4916 50.0626 31.6624 50.0666 31.8304C50.0706 32.0007 50.0655 32.171 50.0638 32.3339C49.9781 32.3893 49.8975 32.3693 49.8209 32.3699C49.1712 32.3716 48.5215 32.3704 47.8723 32.371C47.7946 32.371 47.7169 32.3739 47.6438 32.375C47.5963 32.5333 47.5906 32.9493 47.6295 33.1761C47.6906 33.2133 47.7632 33.1973 47.8323 33.1979C48.3889 33.199 48.9461 33.1984 49.5026 33.1984H49.7346C49.7495 33.2276 49.7666 33.2453 49.7672 33.2636C49.7689 33.5699 49.7683 33.8767 49.7683 34.1773C49.7095 34.2384 49.6421 34.2196 49.5803 34.2196C49.0095 34.2213 48.4381 34.2201 47.8672 34.2207C47.7895 34.2207 47.7118 34.2236 47.6381 34.2253C47.5929 34.4121 47.5941 34.9407 47.6409 35.1207C47.9135 35.127 48.1906 35.123 48.4683 35.1236C48.7466 35.1247 49.0249 35.1213 49.3032 35.1247C49.5798 35.1276 49.8569 35.111 50.1295 35.1356C50.1626 35.3064 50.1695 35.9024 50.1415 36.1579C50.1049 36.1653 50.0655 36.1807 50.0255 36.1807C48.8049 36.1819 47.5838 36.1819 46.3632 36.1807C46.3358 36.1807 46.3089 36.1727 46.2706 36.167Z" fill="white"/>
<path fill-rule="evenodd" clip-rule="evenodd" d="M4.36393 33.2064C4.36736 33.5549 4.36621 33.8744 4.36507 34.1875C4.27993 34.2349 4.20736 34.2195 4.13821 34.2195C3.58164 34.2212 3.02507 34.2207 2.4685 34.2207H2.23364C2.16736 34.3772 2.20221 34.5281 2.19936 34.6744C2.19593 34.8149 2.18221 34.9578 2.21478 35.0995C2.2965 35.1378 2.37593 35.1229 2.4525 35.1229C3.13021 35.1247 3.80793 35.1241 4.48564 35.1241C4.56335 35.1241 4.6405 35.1269 4.72564 35.1287C4.77078 35.3064 4.74507 35.4772 4.7485 35.6452C4.7525 35.8149 4.75364 35.9852 4.74507 36.1681C4.66736 36.1738 4.60564 36.1812 4.54336 36.1818C2.5765 36.2018 1.02507 36.1904 0.858784 36.1544C0.85307 36.1241 0.840498 36.0898 0.840498 36.0561C0.839355 34.4869 0.839355 32.9178 0.839355 31.3401C0.890213 31.3287 0.929641 31.3127 0.96907 31.3121C1.10507 31.3087 1.2405 31.3104 1.37593 31.3104C2.38221 31.3104 3.3885 31.3104 4.39421 31.3104C4.4725 31.3104 4.55021 31.3104 4.63421 31.3104C4.68621 31.4887 4.6565 31.6595 4.66107 31.8275C4.66564 31.9978 4.65993 32.1681 4.65878 32.3315C4.57536 32.3904 4.49421 32.3692 4.41821 32.3698C3.76907 32.3715 3.11993 32.3704 2.47021 32.3709C2.3925 32.3709 2.31478 32.3732 2.23136 32.3749C2.17193 32.5127 2.19936 32.6487 2.19936 32.7801C2.19878 32.9132 2.17478 33.0498 2.23021 33.1949C2.46393 33.2018 2.69821 33.1972 2.93307 33.1984C3.1685 33.1989 3.40393 33.1972 3.63936 33.1989C3.87307 33.2007 4.10678 33.1915 4.36393 33.2064Z" fill="white"/>
<path fill-rule="evenodd" clip-rule="evenodd" d="M26.9361 33.7997C26.9875 33.8111 27.0149 33.8226 27.0418 33.8226C27.2915 33.8237 27.5412 33.8277 27.7909 33.8197C27.8966 33.8163 28.0041 33.7957 28.1058 33.766C28.3915 33.6809 28.5389 33.4769 28.5652 33.186C28.5943 32.858 28.4612 32.502 27.9898 32.4163C27.9063 32.4009 27.8206 32.3883 27.7355 32.3866C27.5149 32.382 27.2932 32.3837 27.0721 32.3854C27.0321 32.386 26.9921 32.3997 26.9378 32.41C26.9338 32.8729 26.9361 33.3277 26.9361 33.7997ZM26.9412 34.918C26.9269 35.3431 26.9441 35.7483 26.9303 36.158C26.7721 36.2026 26.6223 36.1769 26.4749 36.1814C26.3321 36.186 26.1892 36.1831 26.0469 36.1826C25.8978 36.1814 25.7492 36.1797 25.5881 36.1786C25.5795 36.1277 25.5692 36.0883 25.5663 36.0483C25.5629 35.9986 25.5652 35.9483 25.5652 35.8986C25.5652 34.4649 25.5652 33.0311 25.5652 31.5974C25.5652 31.5129 25.5681 31.4277 25.5698 31.3334C25.6195 31.3249 25.6595 31.3117 25.6995 31.3117C26.4486 31.3106 27.1978 31.3089 27.9463 31.3134C28.3001 31.3157 28.6418 31.3871 28.9629 31.538C29.4646 31.7729 29.7978 32.1517 29.9121 32.702C29.9783 33.0203 29.9715 33.3414 29.8789 33.6546C29.7721 34.0169 29.5555 34.3026 29.2435 34.5151C28.9612 34.7077 28.6475 34.8203 28.3103 34.8637C28.1126 34.8889 27.9126 34.8974 27.7138 34.9043C27.5212 34.9111 27.3286 34.9049 27.1361 34.906C27.0801 34.9066 27.0241 34.9129 26.9412 34.918Z" fill="white"/>
<path fill-rule="evenodd" clip-rule="evenodd" d="M66.911 34.2083C66.9013 34.1609 66.899 34.1254 66.8864 34.0946C66.7093 33.6517 66.5316 33.2094 66.3522 32.7677C66.343 32.7466 66.3202 32.7306 66.2887 32.6946C66.0859 33.19 65.8944 33.6637 65.7099 34.1403C65.703 34.158 65.7116 34.1814 65.7133 34.2014C65.8699 34.23 66.6339 34.2357 66.911 34.2083ZM67.723 36.1683C67.5967 35.8631 67.4693 35.5551 67.339 35.2391C66.6516 35.23 65.9756 35.2369 65.2927 35.2346C65.2653 35.2826 65.2373 35.3226 65.219 35.3666C65.1344 35.5706 65.0527 35.7757 64.9693 35.9803C64.9424 36.0454 64.9116 36.1089 64.879 36.1814C64.451 36.1814 64.031 36.182 63.6104 36.1809C63.5842 36.1809 63.5579 36.1706 63.5282 36.1649C63.5122 36.0791 63.559 36.0197 63.5864 35.9574C63.8356 35.3894 64.0864 34.8226 64.3367 34.2551C64.7373 33.3489 65.1373 32.4426 65.5379 31.5363C65.5693 31.4649 65.6024 31.3946 65.6333 31.3289C65.8276 31.3026 66.8087 31.3037 66.9847 31.3289C67.0899 31.502 68.7927 35.3134 69.0939 36.0511C69.1064 36.0826 69.115 36.1157 69.1219 36.1374C69.1099 36.1574 69.1076 36.1649 69.1024 36.1689C69.0973 36.1729 69.0893 36.1751 69.0824 36.1751C68.6619 36.178 68.2407 36.1797 67.8202 36.1814C67.7927 36.1814 67.7653 36.174 67.723 36.1683Z" fill="white"/>
<path fill-rule="evenodd" clip-rule="evenodd" d="M12.2151 32.3959C11.7276 32.3834 11.2516 32.3971 10.7682 32.3874C10.7196 32.2011 10.7476 32.0234 10.7442 31.8485C10.7402 31.6788 10.7351 31.5085 10.7505 31.3376C10.8339 31.2948 10.9139 31.3108 10.9899 31.3108C12.2808 31.3096 13.5716 31.3102 14.8631 31.3102H15.0745C15.1299 31.4325 15.1031 31.5474 15.1071 31.6588C15.1111 31.7799 15.1088 31.9016 15.1076 32.0228C15.1059 32.1354 15.1156 32.2491 15.0956 32.3748C15.0259 32.3805 14.9642 32.3896 14.9025 32.3902C14.5528 32.3914 14.2036 32.3902 13.8539 32.3914C13.7842 32.3914 13.7139 32.3971 13.6488 32.4005C13.5956 32.4754 13.6139 32.5485 13.6134 32.6176C13.6122 33.1239 13.6128 33.6302 13.6128 34.1365C13.6128 34.7285 13.6128 35.3205 13.6128 35.9125C13.6128 35.9902 13.6128 36.0685 13.6128 36.1525C13.5682 36.1639 13.5356 36.1799 13.5025 36.1799C13.1174 36.1816 12.7316 36.1816 12.3465 36.1805C12.3196 36.1805 12.2928 36.1702 12.2648 36.1645C12.2282 36.0765 12.2425 35.9902 12.2425 35.9062C12.2414 34.8296 12.2419 33.7525 12.2414 32.6754C12.2414 32.5914 12.2528 32.5056 12.2151 32.3959Z" fill="white"/>
<path fill-rule="evenodd" clip-rule="evenodd" d="M63.0424 36.1627C62.9859 36.1724 62.9584 36.181 62.931 36.181C62.539 36.181 62.147 36.1804 61.755 36.1787C61.7356 36.1787 61.7156 36.1667 61.6859 36.1564C61.6813 36.1027 61.6727 36.0473 61.6721 35.9918C61.6459 34.3096 61.6601 31.5318 61.6973 31.3221C61.8401 31.2981 61.9887 31.313 62.1361 31.3107C62.2784 31.3084 62.4213 31.3096 62.5636 31.3101C62.7127 31.3107 62.8613 31.3124 63.019 31.3141C63.0281 31.365 63.0384 31.405 63.0413 31.4456C63.0447 31.5021 63.0424 31.5593 63.0424 31.6164C63.0424 33.0416 63.0424 34.4673 63.0424 35.8924V36.1627Z" fill="white"/>
<path fill-rule="evenodd" clip-rule="evenodd" d="M67.893 39.325C67.7439 39.4313 67.7061 39.5587 67.637 39.6616C67.5661 39.7679 67.5056 39.8816 67.4393 39.9913C67.3736 40.101 67.3061 40.2096 67.2416 40.3142C67.1479 40.3439 67.0639 40.3347 66.9679 40.3256C66.9301 40.2696 66.889 40.2124 66.8519 40.1524C66.7244 39.9462 66.5999 39.7387 66.4713 39.533C66.4387 39.481 66.4187 39.4142 66.3507 39.3924C66.2924 39.4079 66.297 39.4553 66.2964 39.4964C66.2953 39.753 66.2959 40.0096 66.2947 40.2667C66.2941 40.3507 66.2901 40.4353 66.2879 40.5262C66.1016 40.5844 65.929 40.5679 65.7467 40.5427C65.7376 40.4953 65.7227 40.4547 65.7221 40.4142C65.721 39.7296 65.721 39.0456 65.7216 38.361C65.7221 38.3262 65.7301 38.2913 65.7353 38.2479C65.9039 38.1867 66.0713 38.2176 66.2507 38.2267C66.5341 38.6684 66.7941 39.1256 67.0873 39.5822C67.1324 39.5427 67.1696 39.5216 67.1896 39.4896C67.2873 39.3324 67.3804 39.1724 67.4753 39.013C67.5953 38.8113 67.7153 38.6084 67.8359 38.4067C67.8724 38.3462 67.9119 38.2873 67.949 38.229C68.1204 38.2101 68.2821 38.1999 68.453 38.237C68.4604 38.2816 68.4736 38.3221 68.4736 38.3627C68.4753 39.0467 68.4759 39.7313 68.4759 40.4159C68.4759 40.4507 68.4679 40.485 68.4621 40.529C68.2856 40.5844 68.113 40.5679 67.9256 40.5416C67.9181 40.4804 67.9061 40.4256 67.9056 40.3713C67.9027 40.1073 67.9044 39.8439 67.9027 39.5799C67.9027 39.5096 67.8976 39.4399 67.893 39.325Z" fill="white"/>
<path fill-rule="evenodd" clip-rule="evenodd" d="M35.6744 39.4322C35.739 39.3939 35.7242 39.3316 35.7247 39.2773C35.7264 39.0133 35.7253 38.7499 35.7259 38.4859C35.7264 38.4088 35.731 38.331 35.7333 38.2688C35.7984 38.2002 35.8659 38.2151 35.9287 38.2128C35.9927 38.2099 36.0567 38.2099 36.1207 38.2122C36.1836 38.2145 36.2459 38.2208 36.3202 38.2259C36.3287 38.2933 36.3419 38.3482 36.3424 38.4031C36.3436 39.0591 36.3436 39.7151 36.3424 40.3711C36.3419 40.4259 36.3287 40.4813 36.3213 40.5379C36.1556 40.5836 35.999 40.5711 35.8447 40.5533C35.803 40.5482 35.7602 40.5048 35.7287 40.4688C35.6299 40.3568 35.5356 40.2396 35.4402 40.1248C35.2584 39.9048 35.0773 39.6842 34.8939 39.4659C34.8539 39.4185 34.8242 39.3568 34.7527 39.3419C34.6882 39.3882 34.7047 39.4568 34.7042 39.5168C34.7013 39.7596 34.703 40.0019 34.7024 40.2442C34.7024 40.3013 34.7036 40.3585 34.6996 40.415C34.6916 40.5299 34.6676 40.5596 34.5602 40.5625C34.419 40.5659 34.2762 40.5842 34.139 40.5442C34.0784 40.4728 34.0962 40.3911 34.0962 40.3151C34.0939 39.9299 34.095 39.5448 34.095 39.1602C34.095 38.9248 34.0939 38.6893 34.0956 38.4539C34.0962 38.3842 34.0842 38.3116 34.1339 38.2293C34.2767 38.1968 34.4322 38.2088 34.5864 38.2213C34.6173 38.2236 34.6493 38.2528 34.6733 38.2768C34.7087 38.311 34.7373 38.3528 34.7693 38.391C35.0196 38.6933 35.2687 38.9956 35.5207 39.2968C35.5642 39.3488 35.5956 39.4196 35.6744 39.4322Z" fill="white"/>
<path fill-rule="evenodd" clip-rule="evenodd" d="M19.3744 38.7191C19.3658 38.7871 19.3538 38.842 19.3538 38.8968C19.3527 39.0528 19.355 39.2088 19.3601 39.3643C19.3618 39.4111 19.3984 39.4437 19.4441 39.4471C19.6064 39.4574 19.7698 39.4717 19.9298 39.4271C20.1161 39.3751 20.2178 39.2357 20.2064 39.0511C20.195 38.8654 20.0773 38.734 19.8864 38.7117C19.7253 38.6934 19.5624 38.6911 19.3744 38.7191ZM20.4007 39.8391C20.5144 40.0917 20.7144 40.2826 20.8367 40.542C20.6195 40.5946 20.4167 40.5631 20.207 40.5637C20.163 40.5048 20.1195 40.45 20.0795 40.3923C20.0018 40.2814 19.9207 40.1723 19.8504 40.0568C19.7915 39.9591 19.7104 39.9214 19.6013 39.9283C19.5241 39.9334 19.443 39.9168 19.3601 39.9854C19.3555 40.1557 19.3504 40.3391 19.3447 40.5294C19.3058 40.5431 19.2738 40.5643 19.2413 40.5648C19.0795 40.5677 18.9155 40.59 18.7453 40.5426C18.7378 40.4928 18.7253 40.4448 18.7253 40.3974C18.7235 39.7271 18.7241 39.0574 18.7247 38.3871C18.7247 38.3391 18.7338 38.2906 18.7395 38.2323C18.7881 38.2237 18.8281 38.2106 18.8687 38.2106C19.2253 38.21 19.5818 38.2117 19.9378 38.2134C20.0755 38.214 20.2064 38.246 20.3327 38.2986C20.6184 38.4168 20.8007 38.6248 20.8413 38.9334C20.8841 39.2574 20.8024 39.542 20.5207 39.7426C20.4813 39.7706 20.4453 39.8031 20.4007 39.8391Z" fill="white"/>
<path fill-rule="evenodd" clip-rule="evenodd" d="M11.1034 39.4354C11.2828 39.4634 11.4663 39.4708 11.6474 39.4211C11.8177 39.3737 11.9103 39.2485 11.912 39.0765C11.9131 38.9097 11.8131 38.7737 11.6537 38.724C11.5428 38.6897 11.2206 38.6965 11.0886 38.736C11.0406 38.9451 11.0463 39.2708 11.1034 39.4354ZM11.1017 39.9588C11.0457 40.052 11.0617 40.1394 11.0583 40.224C11.0543 40.3097 11.0548 40.3948 11.0486 40.48C11.0446 40.528 11.012 40.5594 10.9646 40.5634C10.7943 40.5788 10.6246 40.5805 10.448 40.5577C10.4377 40.508 10.4223 40.4674 10.4223 40.4274C10.4206 39.7354 10.4206 39.044 10.4217 38.352C10.4217 38.3177 10.4286 38.2828 10.4331 38.2371C10.476 38.2268 10.5154 38.2091 10.5554 38.2091C10.9257 38.2091 11.2966 38.2103 11.6674 38.2143C11.8274 38.216 11.9771 38.2611 12.1177 38.3348C12.3851 38.4754 12.5291 38.6954 12.5503 39C12.5891 39.5554 12.2394 39.8182 11.8548 39.9068C11.7017 39.9422 11.5457 39.9531 11.388 39.9485C11.2891 39.9457 11.1891 39.9411 11.1017 39.9588Z" fill="white"/>
<path fill-rule="evenodd" clip-rule="evenodd" d="M61.6552 40.5442C61.6472 39.8174 61.6529 39.1191 61.6518 38.4208C61.6518 38.3648 61.6598 38.3094 61.6649 38.2448C61.7044 38.234 61.7375 38.2179 61.7701 38.2174C62.3055 38.2162 62.8409 38.2162 63.3764 38.2168C63.4044 38.2168 63.4318 38.2271 63.4535 38.2311C63.5089 38.2888 63.5009 38.3557 63.4987 38.4191C63.4964 38.4957 63.5181 38.5768 63.4627 38.6471C63.3975 38.6854 63.3249 38.6722 63.2547 38.6728C63.0267 38.6745 62.7981 38.6734 62.5695 38.6734C62.5198 38.6734 62.4695 38.6722 62.4198 38.6762C62.3112 38.6842 62.2787 38.7139 62.2729 38.8185C62.2695 38.8894 62.2701 38.9614 62.2758 39.0322C62.2815 39.1014 62.3141 39.1334 62.3849 39.1425C62.4409 39.15 62.4987 39.1505 62.5558 39.1511C62.7341 39.1522 62.9124 39.1505 63.0907 39.1522C63.1609 39.1528 63.2312 39.1585 63.3027 39.1619C63.3689 39.3042 63.3358 39.4362 63.3341 39.5517C63.2718 39.6134 63.2124 39.6037 63.1564 39.6037C62.9278 39.6048 62.6992 39.6031 62.4707 39.6054C62.2907 39.6071 62.2758 39.6231 62.2707 39.7997C62.2695 39.8568 62.2689 39.9145 62.2735 39.9711C62.2815 40.0631 62.3135 40.0974 62.4107 40.0991C62.6821 40.1031 62.9535 40.1014 63.2244 40.1025C63.3164 40.1031 63.4084 40.1054 63.4998 40.1071C63.5707 40.2397 63.5455 40.3671 63.5312 40.4917C63.5284 40.5134 63.4981 40.5425 63.4758 40.5482C63.4278 40.5602 63.3769 40.562 63.3272 40.562C62.8421 40.5631 62.3564 40.5631 61.8712 40.562C61.8089 40.562 61.7461 40.5522 61.6552 40.5442Z" fill="white"/>
<path fill-rule="evenodd" clip-rule="evenodd" d="M40.799 38.5697C40.6921 38.7051 40.5658 38.8063 40.4287 38.9154C40.3756 38.8777 40.3264 38.8389 40.2733 38.8057C40.0567 38.6692 39.8247 38.6269 39.579 38.7126C39.3201 38.8029 39.1687 38.9857 39.1321 39.2594C39.115 39.3874 39.1173 39.5154 39.159 39.6394C39.3127 40.0932 39.7996 40.1886 40.143 40.0463C40.1921 40.0263 40.223 39.9869 40.2247 39.9314C40.2276 39.8314 40.2264 39.732 40.2298 39.632C40.2321 39.5554 40.2178 39.476 40.2556 39.3914C40.415 39.356 40.5744 39.36 40.7464 39.3909C40.791 39.5469 40.7681 39.7034 40.7693 39.8577C40.7704 40.0137 40.7858 40.1709 40.7538 40.3274C40.5961 40.4617 40.407 40.524 40.2116 40.5669C39.9081 40.6337 39.6018 40.6434 39.3041 40.5423C38.3521 40.22 38.2538 39.0589 38.8458 38.5097C39.0567 38.3137 39.3064 38.2023 39.5927 38.176C39.8133 38.156 40.0338 38.156 40.2498 38.2189C40.423 38.2692 40.5818 38.3469 40.7161 38.4697C40.7464 38.4972 40.7693 38.5331 40.799 38.5697Z" fill="white"/>
<path fill-rule="evenodd" clip-rule="evenodd" d="M24.1788 38.87C24.0948 38.9934 23.9268 39.3763 23.8834 39.5414C23.8771 39.5654 23.8823 39.5928 23.8823 39.6243C23.9926 39.6511 24.092 39.6426 24.1891 39.6391C24.2846 39.6357 24.3857 39.6671 24.4806 39.6071C24.476 39.5746 24.4777 39.5448 24.468 39.5203C24.3903 39.3226 24.3108 39.126 24.2308 38.9294C24.2234 38.9111 24.204 38.898 24.1788 38.87ZM23.8646 38.2191C24.0806 38.2043 24.2857 38.2031 24.5028 38.2208C24.6337 38.4683 24.7343 38.7266 24.848 38.9791C24.9651 39.2391 25.08 39.4997 25.1948 39.7608C25.3063 40.014 25.4234 40.2648 25.5297 40.526C25.4566 40.5854 25.3834 40.5648 25.316 40.5683C25.252 40.5711 25.188 40.57 25.1234 40.5688C25.0531 40.5666 24.9823 40.562 24.9 40.558C24.8337 40.4134 24.7697 40.2723 24.7051 40.13C24.664 40.1208 24.6297 40.1077 24.5954 40.1071C24.3171 40.1054 24.0388 40.106 23.7611 40.1077C23.7268 40.1077 23.6926 40.1214 23.6491 40.1306C23.5886 40.2666 23.5286 40.402 23.4657 40.5443C23.2657 40.586 23.0697 40.5734 22.8748 40.5568C22.836 40.478 22.8823 40.4237 22.9063 40.3683C23.0743 39.9831 23.2451 39.5985 23.4154 39.214C23.5337 38.9465 23.6514 38.6791 23.7703 38.4123C23.7988 38.3477 23.832 38.286 23.8646 38.2191Z" fill="white"/>
<path fill-rule="evenodd" clip-rule="evenodd" d="M16.5037 40.097C16.5534 40.2576 16.546 40.3896 16.5197 40.5188C16.4523 40.5873 16.3694 40.5696 16.2934 40.5702C15.9797 40.5725 15.6654 40.5713 15.3517 40.5713C15.2014 40.5713 15.0517 40.5725 14.902 40.5713C14.8317 40.5702 14.7614 40.5639 14.6814 40.5599C14.67 40.5016 14.6534 40.4548 14.6534 40.4073C14.6517 39.7222 14.6523 39.0376 14.6534 38.3525C14.6534 38.3176 14.6614 38.2828 14.6671 38.2382C14.7094 38.2279 14.7494 38.2102 14.7894 38.2102C15.31 38.2085 15.8311 38.209 16.3523 38.2102C16.3866 38.2102 16.4209 38.221 16.4626 38.2279C16.5146 38.3696 16.5049 38.5068 16.4734 38.637C16.4089 38.6908 16.342 38.6788 16.2791 38.6788C16.0294 38.681 15.7797 38.6793 15.53 38.6805C15.4529 38.681 15.3717 38.669 15.2923 38.7273C15.2883 38.7765 15.2803 38.8325 15.2803 38.8885C15.2797 38.9588 15.2849 39.029 15.2877 39.089C15.3689 39.1536 15.45 39.1405 15.5266 39.1416C15.7191 39.1439 15.9117 39.1416 16.1049 39.1433C16.1751 39.1439 16.2454 39.1502 16.3191 39.1542C16.3729 39.3039 16.3551 39.4416 16.3357 39.5908C16.2803 39.597 16.2323 39.6068 16.1843 39.6068C15.9631 39.609 15.7414 39.6068 15.5203 39.6085C15.4506 39.6096 15.3774 39.5942 15.298 39.6439C15.266 39.7742 15.2723 39.913 15.2951 40.0473C15.3597 40.1096 15.434 40.0953 15.5043 40.0959C15.754 40.0976 16.0037 40.097 16.2534 40.097C16.3311 40.097 16.4094 40.097 16.5037 40.097Z" fill="white"/>
<path fill-rule="evenodd" clip-rule="evenodd" d="M47.4667 38.368C47.4187 38.5195 47.3718 38.6589 47.2792 38.7915C47.221 38.7698 47.1695 38.7469 47.1158 38.7326C46.9924 38.6989 46.8689 38.6646 46.7432 38.6395C46.6369 38.6178 46.5289 38.6286 46.4272 38.6652C46.3747 38.684 46.3215 38.712 46.2821 38.7498C46.1969 38.8315 46.2107 38.9646 46.3129 39.0235C46.3861 39.0658 46.4689 39.0932 46.5507 39.116C46.7221 39.1635 46.8964 39.2018 47.0684 39.248C47.2004 39.284 47.3204 39.3452 47.4209 39.4412C47.5175 39.5343 47.5689 39.6446 47.5809 39.78C47.6129 40.1503 47.4352 40.3618 47.1758 40.4892C47.0935 40.5298 47.0044 40.5669 46.9147 40.5806C46.5135 40.6412 46.1181 40.6212 45.7387 40.4629C45.6878 40.4418 45.6421 40.4075 45.5884 40.3755C45.6175 40.2109 45.6867 40.0755 45.7781 39.9395C45.8489 39.9686 45.9135 39.9955 45.9787 40.0218C46.1718 40.1 46.3712 40.1538 46.5815 40.1435C46.6655 40.1395 46.7518 40.1218 46.8318 40.0955C46.9101 40.0692 46.9615 40.0098 46.9615 39.9183C46.9615 39.8378 46.9227 39.7783 46.8524 39.7492C46.7609 39.7109 46.6655 39.6806 46.5695 39.6543C46.4461 39.62 46.3204 39.5949 46.1964 39.5612C46.1278 39.5429 46.0609 39.5178 45.9952 39.4909C45.4581 39.2715 45.5272 38.6595 45.8307 38.404C45.9707 38.2858 46.1347 38.2098 46.3124 38.188C46.6324 38.1486 46.9529 38.148 47.2638 38.2595C47.3107 38.276 47.3569 38.2943 47.4021 38.3149C47.4204 38.3235 47.4347 38.3412 47.4667 38.368Z" fill="white"/>
<path fill-rule="evenodd" clip-rule="evenodd" d="M55.5171 38.3717C55.4771 38.522 55.4154 38.6546 55.3422 38.7952C55.2737 38.77 55.2222 38.7472 55.1685 38.7323C55.0451 38.6992 54.9217 38.6649 54.7959 38.6397C54.6897 38.618 54.5817 38.6289 54.4799 38.6654C54.4274 38.6843 54.3737 38.7117 54.3342 38.7494C54.2485 38.8317 54.2617 38.9632 54.3651 39.0232C54.4377 39.0654 54.5211 39.0934 54.6028 39.1157C54.7742 39.1637 54.9479 39.2014 55.1199 39.2477C55.2525 39.2837 55.3725 39.3443 55.4725 39.4409C55.5696 39.534 55.6211 39.6443 55.6331 39.7797C55.6674 40.1563 55.4782 40.3694 55.2285 40.4883C55.1388 40.5306 55.0434 40.5712 54.9468 40.5849C54.5754 40.6369 54.2068 40.6209 53.8508 40.4872C53.7977 40.4672 53.7474 40.4403 53.6965 40.4146C53.6776 40.4049 53.6622 40.3894 53.6514 40.382C53.6714 40.2174 53.7239 40.0952 53.8388 39.9426C53.9016 39.9689 53.9662 39.9957 54.0314 40.022C54.2245 40.0997 54.4239 40.154 54.6342 40.1437C54.7182 40.1392 54.8039 40.1214 54.8845 40.0952C54.9628 40.0694 55.0142 40.0094 55.0142 39.9186C55.0142 39.838 54.9737 39.782 54.9051 39.7483C54.8542 39.7237 54.7999 39.7043 54.7451 39.6894C54.5942 39.6483 54.4416 39.6123 54.2908 39.5706C54.2085 39.5477 54.1268 39.5226 54.0479 39.4906C53.5097 39.2723 53.5799 38.6609 53.8828 38.4043C54.0234 38.286 54.1874 38.21 54.3645 38.1883C54.6845 38.1483 55.0057 38.1489 55.3159 38.2592C55.3828 38.2826 55.4531 38.2992 55.5171 38.3717Z" fill="white"/>
<path fill-rule="evenodd" clip-rule="evenodd" d="M51.2545 38.2283C51.4454 38.2083 51.6265 38.2043 51.8299 38.2312C51.7928 38.3032 51.7665 38.3597 51.7351 38.4129C51.5174 38.7803 51.3042 39.1512 51.0774 39.5129C50.9859 39.6592 50.9431 39.8054 50.9539 39.9757C50.9625 40.11 50.9568 40.246 50.9551 40.3814C50.9539 40.4294 50.9454 40.478 50.9402 40.5209C50.7705 40.5752 50.5499 40.5774 50.3557 40.5272C50.3488 40.4849 50.3345 40.4374 50.3334 40.39C50.3305 40.2334 50.3277 40.0763 50.3334 39.9197C50.3379 39.7866 50.3025 39.6706 50.2328 39.5569C50.0025 39.1797 49.7779 38.7997 49.5522 38.4203C49.5202 38.3672 49.4939 38.3112 49.4551 38.2374C49.6716 38.1957 49.8671 38.2192 50.0751 38.2186C50.1179 38.2826 50.1631 38.3454 50.2031 38.4112C50.3208 38.606 50.4362 38.8026 50.5545 38.9974C50.5831 39.0443 50.6191 39.0866 50.6459 39.1232C50.7254 39.1237 50.7425 39.07 50.7671 39.0294C50.8854 38.8346 51.0008 38.638 51.1179 38.4432C51.1619 38.37 51.2094 38.2997 51.2545 38.2283Z" fill="white"/>
<path fill-rule="evenodd" clip-rule="evenodd" d="M27.766 38.726C27.5466 38.6666 27.3146 38.7426 27.0986 38.6809C27.0438 38.5083 27.0443 38.4054 27.102 38.23C27.1443 38.2243 27.1923 38.2117 27.2403 38.2117C27.8243 38.21 28.4083 38.2106 28.9923 38.2111C29.0346 38.2117 29.0769 38.2197 29.126 38.2254C29.1946 38.3683 29.1626 38.5146 29.1512 38.67C29.1083 38.6814 29.0695 38.7003 29.03 38.7014C28.9158 38.706 28.802 38.7031 28.6878 38.7043C28.6175 38.7049 28.5466 38.7083 28.4889 38.71C28.4095 38.7854 28.4312 38.8683 28.4312 38.9437C28.4289 39.3923 28.43 39.8409 28.4295 40.29C28.4295 40.3671 28.426 40.4443 28.4238 40.53C28.3746 40.5437 28.3358 40.5637 28.2963 40.5637C28.1415 40.5643 27.9855 40.5877 27.8312 40.5426C27.7929 40.4614 27.8049 40.382 27.8043 40.3054C27.8032 39.8569 27.8043 39.4083 27.8032 38.9591C27.8032 38.8826 27.8152 38.8026 27.766 38.726Z" fill="white"/>
<path fill-rule="evenodd" clip-rule="evenodd" d="M58.9352 38.7235C58.8764 38.8064 58.8913 38.8944 58.8913 38.9784C58.8895 39.4127 58.8907 39.8469 58.8901 40.2812C58.8901 40.3589 58.885 40.4367 58.8821 40.5207C58.8341 40.5361 58.7947 40.5584 58.7558 40.5584C58.6015 40.5595 58.445 40.5824 58.3004 40.5395C58.2512 40.4624 58.2672 40.3892 58.2672 40.3195C58.2655 39.8709 58.2667 39.4224 58.2661 38.9738C58.2661 38.8967 58.2604 38.8201 58.2575 38.7412C58.1324 38.6755 58.0095 38.7132 57.8918 38.7024C57.781 38.6921 57.6644 38.7287 57.5518 38.6664C57.5204 38.5269 57.5227 38.3887 57.5535 38.2389C57.605 38.2304 57.6524 38.2161 57.6998 38.2161C58.277 38.2144 58.8535 38.2132 59.4307 38.2155C59.6084 38.2161 59.6261 38.2355 59.629 38.4121C59.6301 38.4961 59.645 38.5835 59.5935 38.6732C59.3827 38.7492 59.149 38.6601 58.9352 38.7235Z" fill="white"/>
<path fill-rule="evenodd" clip-rule="evenodd" d="M31.7983 40.5427C31.5966 40.5804 31.4086 40.5764 31.212 40.5467C31.2035 40.5033 31.1909 40.4696 31.1909 40.4358C31.1897 39.7376 31.1897 39.0393 31.1903 38.341C31.1903 38.3124 31.1977 38.2844 31.2023 38.2541C31.2909 38.1844 31.3943 38.2158 31.4903 38.2124C31.5886 38.209 31.6886 38.201 31.7937 38.2336C31.8006 38.2718 31.8126 38.3056 31.8126 38.3393C31.8137 39.0376 31.8137 39.7358 31.8132 40.4347C31.8132 40.4621 31.8057 40.4901 31.7983 40.5427Z" fill="white"/>
<path fill-rule="evenodd" clip-rule="evenodd" d="M70.4783 38.7527C70.4943 38.4567 70.2429 38.2201 69.9555 38.2321C69.6652 38.2447 69.4486 38.4572 69.4463 38.751C69.444 39.0521 69.6703 39.2881 69.9623 39.2887C70.2269 39.2898 70.4972 39.0607 70.4783 38.7527ZM70.5743 38.7584C70.5869 39.0304 70.3572 39.3641 69.9612 39.3647C69.588 39.3652 69.344 39.0401 69.3543 38.7521C69.3675 38.4081 69.6269 38.1401 69.9692 38.1412C70.312 38.143 70.5766 38.4127 70.5743 38.7584Z" fill="white"/>
<path fill-rule="evenodd" clip-rule="evenodd" d="M69.959 38.5467C69.9036 38.5502 69.8739 38.5953 69.8768 38.6725C69.879 38.7445 69.9162 38.781 69.9802 38.7753C70.0562 38.7679 70.1002 38.7199 70.0939 38.6507C70.0882 38.5856 70.0328 38.5427 69.959 38.5467ZM69.7053 38.4679C69.8328 38.421 69.9402 38.4307 70.043 38.4422C70.2505 38.4656 70.3236 38.625 70.2202 38.8102C70.2099 38.8285 70.1973 38.8456 70.1802 38.8713C70.1979 38.925 70.2162 38.9833 70.2408 39.0593C70.1945 39.0565 70.159 39.0605 70.1299 39.0496C70.1059 39.0405 70.087 39.0142 70.0688 38.9936C70.0322 38.9519 70.007 38.8907 69.9379 38.901C69.8773 38.9102 69.8773 38.973 69.8516 39.013C69.8299 39.0473 69.7985 39.0593 69.7608 39.0502C69.7208 39.0399 69.7059 39.0073 69.7053 38.9696C69.7048 38.8073 69.7053 38.6445 69.7053 38.4679Z" fill="white"/>
</g>
</g>
<defs>
<clipPath id="clip0_189_3692">
<rect width="72.5714" height="40" fill="white" transform="translate(0.823242 0.649414)"/>
</clipPath>
</defs>
</svg>
