<svg width="128" height="41" viewBox="0 0 128 41" fill="none" xmlns="http://www.w3.org/2000/svg">
<g opacity="0.7">
<path fill-rule="evenodd" clip-rule="evenodd" d="M20.9706 40.6492C20.7379 40.6492 20.5422 40.6317 20.3851 40.5968C20.2281 40.5619 20.0848 40.5154 19.9561 40.4587V40.1605C20.0848 40.2245 20.2324 40.279 20.3997 40.3234C20.5662 40.3685 20.7575 40.391 20.9735 40.391C21.1022 40.391 21.2324 40.3736 21.3641 40.3408C21.4957 40.3074 21.6171 40.255 21.7284 40.183C21.839 40.111 21.9277 40.0179 21.9953 39.903C22.0622 39.7881 22.0964 39.6499 22.0964 39.487C22.0964 39.3372 22.0637 39.2092 21.9997 39.103C21.935 38.9968 21.8411 38.9008 21.7182 38.8157C21.5953 38.7307 21.447 38.6434 21.2746 38.5547C21.1401 38.4805 21.0135 38.399 20.895 38.3088C20.7771 38.2187 20.6819 38.111 20.6099 37.9859C20.5379 37.8608 20.5015 37.7103 20.5015 37.5343C20.5015 37.3336 20.5393 37.1597 20.6142 37.0143C20.6884 36.8681 20.7902 36.7481 20.9182 36.6543C21.0462 36.5605 21.1895 36.4907 21.3488 36.4456C21.5081 36.4005 21.6717 36.3772 21.8404 36.3772C22.0528 36.3772 22.2346 36.3976 22.3859 36.4383C22.5379 36.479 22.6855 36.535 22.8295 36.6048L22.7161 36.8608C22.5793 36.7925 22.4419 36.7387 22.3022 36.7001C22.1626 36.6608 22.007 36.6419 21.8346 36.6419C21.719 36.6419 21.6011 36.6572 21.4811 36.6885C21.3604 36.7197 21.2491 36.7692 21.1466 36.8376C21.0448 36.9059 20.9619 36.9954 20.8993 37.1067C20.8368 37.2172 20.8055 37.3532 20.8055 37.5147C20.8055 37.6601 20.8361 37.7816 20.8964 37.8783C20.9575 37.9743 21.039 38.0587 21.1415 38.1299C21.2433 38.2005 21.3568 38.2703 21.4819 38.3387C21.6564 38.4332 21.8128 38.5299 21.951 38.6267C22.0891 38.7248 22.199 38.839 22.2797 38.9707C22.3597 39.1023 22.4004 39.2688 22.4004 39.4696C22.4004 39.6783 22.3597 39.8572 22.2797 40.007C22.199 40.1568 22.0906 40.279 21.9539 40.3736C21.8179 40.4681 21.6644 40.5379 21.495 40.5823C21.3255 40.6267 21.1502 40.6492 20.9706 40.6492Z" fill="white"/>
<path fill-rule="evenodd" clip-rule="evenodd" d="M23.7138 40.5924L24.5407 36.7015H23.2935L23.3502 36.4368H26.1407L26.0869 36.7015H24.8367L24.012 40.5924H23.7138Z" fill="white"/>
<path fill-rule="evenodd" clip-rule="evenodd" d="M27.36 40.6493C27.0968 40.6493 26.8713 40.6056 26.6851 40.5183C26.4982 40.4311 26.3549 40.3038 26.256 40.1351C26.1564 39.9663 26.1069 39.7598 26.1069 39.5154C26.1069 39.4507 26.112 39.3794 26.1222 39.3002C26.1324 39.2223 26.1462 39.1387 26.1637 39.0514L26.7208 36.4369H27.0131L26.4589 39.0543C26.4422 39.1343 26.4284 39.2143 26.4189 39.2951C26.4095 39.3758 26.4051 39.4456 26.4051 39.5067C26.4051 39.7889 26.4909 40.0063 26.6626 40.1591C26.8335 40.3118 27.0713 40.3882 27.3746 40.3882C27.6262 40.3882 27.8451 40.3402 28.0306 40.2456C28.216 40.1511 28.3717 40.0093 28.4953 39.8209C28.6197 39.6325 28.712 39.3962 28.7724 39.1118L29.3462 36.4369H29.6364L29.0655 39.146C28.9935 39.4813 28.8822 39.7605 28.7324 39.9823C28.5833 40.2056 28.3935 40.3722 28.1644 40.4827C27.9353 40.594 27.6669 40.6493 27.36 40.6493Z" fill="white"/>
<path fill-rule="evenodd" clip-rule="evenodd" d="M30.2248 40.3337H30.8074C31.0976 40.3337 31.3587 40.2959 31.5921 40.2203C31.8248 40.1439 32.0299 40.037 32.2074 39.8988C32.3841 39.7606 32.5317 39.5985 32.6503 39.413C32.7688 39.2268 32.8583 39.0232 32.9194 38.8014C32.9797 38.5796 33.0103 38.349 33.0103 38.1083C33.0103 37.6196 32.8859 37.2617 32.6365 37.0356C32.387 36.8086 32.0401 36.6959 31.595 36.6959H30.9979L30.2248 40.3337ZM29.8779 40.5919L30.7594 36.437H31.6547C32.1739 36.437 32.5797 36.5745 32.8736 36.8494C33.1674 37.1236 33.3143 37.5446 33.3143 38.1112C33.3143 38.3766 33.2808 38.6319 33.2132 38.8785C33.1463 39.1243 33.0459 39.3519 32.9121 39.5606C32.7783 39.7686 32.611 39.9497 32.4088 40.1032C32.2074 40.2566 31.9717 40.3766 31.7027 40.4625C31.4336 40.549 31.1303 40.5919 30.7936 40.5919H29.8779Z" fill="white"/>
<path fill-rule="evenodd" clip-rule="evenodd" d="M33.7944 40.5924L34.6759 36.4368H36.7675L36.713 36.7015H34.9144L34.5763 38.276H36.2701L36.2163 38.54H34.5217L34.1413 40.3284H35.9428L35.889 40.5924H33.7944Z" fill="white"/>
<path fill-rule="evenodd" clip-rule="evenodd" d="M36.8613 40.5924L37.7428 36.4368H38.0213L39.5275 40.1262H39.5384C39.5559 40.028 39.5748 39.9211 39.5959 39.8069C39.6162 39.692 39.6381 39.5757 39.6613 39.4586C39.6839 39.3408 39.7064 39.2302 39.729 39.1255L40.3035 36.4368H40.5821L39.7035 40.5924H39.4221L37.913 36.9037H37.9013C37.8882 36.9793 37.8744 37.0579 37.8591 37.1408C37.8439 37.2229 37.8279 37.3073 37.8119 37.3931C37.7959 37.4797 37.7791 37.5669 37.7624 37.6549C37.7457 37.7429 37.7282 37.8317 37.7115 37.9204L37.1457 40.5924H36.8613Z" fill="white"/>
<path fill-rule="evenodd" clip-rule="evenodd" d="M41.5454 40.5924L42.3723 36.7015H41.125L41.1817 36.4368H43.9723L43.9185 36.7015H42.6683L41.8435 40.5924H41.5454Z" fill="white"/>
<path fill-rule="evenodd" clip-rule="evenodd" d="M45.9135 40.5924L46.7404 36.7015H45.4932L45.5499 36.4368H48.3404L48.2866 36.7015H47.0364L46.2117 40.5924H45.9135Z" fill="white"/>
<path fill-rule="evenodd" clip-rule="evenodd" d="M48.8156 38.526H49.5378C49.7255 38.526 49.8956 38.5034 50.0476 38.4591C50.2004 38.4147 50.332 38.3478 50.4425 38.2591C50.5538 38.1696 50.6389 38.0576 50.6985 37.9223C50.7582 37.7871 50.788 37.6293 50.788 37.4489C50.788 37.1871 50.7073 36.9965 50.5451 36.8765C50.3829 36.7558 50.1356 36.6962 49.8018 36.6962H49.2047L48.8156 38.526ZM48.0854 40.5922L48.9662 36.4373H49.8447C50.2556 36.4373 50.5654 36.5202 50.7742 36.686C50.9822 36.8518 51.0869 37.1005 51.0869 37.4314C51.0869 37.6613 51.0454 37.8627 50.9647 38.0358C50.8833 38.2089 50.7596 38.3536 50.5945 38.4693C50.4302 38.5849 50.2229 38.6693 49.9727 38.7223L50.6542 40.5922H50.3335L49.6971 38.7849H48.7618L48.3778 40.5922H48.0854Z" fill="white"/>
<path fill-rule="evenodd" clip-rule="evenodd" d="M52.0983 38.856H53.5165L53.323 37.4436C53.3121 37.3425 53.2997 37.2313 53.2874 37.1091C53.275 36.9869 53.2655 36.872 53.2575 36.7644H53.2437C53.1928 36.8742 53.1368 36.9869 53.0772 37.1033C53.0175 37.2204 52.9564 37.336 52.8939 37.4516L52.0983 38.856ZM50.8052 40.5927L53.1695 36.4313H53.4626L54.0423 40.5927H53.7579L53.5506 39.12H51.9564L51.1266 40.5927H50.8052Z" fill="white"/>
<path fill-rule="evenodd" clip-rule="evenodd" d="M54.5933 40.5924L55.4747 36.4368H55.7533L57.2594 40.1262H57.2704C57.2878 40.028 57.3067 39.9211 57.3278 39.8069C57.3482 39.692 57.37 39.5757 57.3925 39.4586C57.4158 39.3408 57.4384 39.2302 57.4609 39.1255L58.0354 36.4368H58.314L57.4354 40.5924H57.154L55.6449 36.9037H55.6333C55.6202 36.9793 55.6064 37.0579 55.5911 37.1408C55.5758 37.2229 55.5598 37.3073 55.5438 37.3931C55.5278 37.4797 55.5111 37.5669 55.4944 37.6549C55.4776 37.7429 55.4602 37.8317 55.4427 37.9204L54.8776 40.5924H54.5933Z" fill="white"/>
<path fill-rule="evenodd" clip-rule="evenodd" d="M59.4481 40.6492C59.2147 40.6492 59.0198 40.6317 58.8627 40.5968C58.7056 40.5619 58.5623 40.5154 58.4336 40.4587V40.1605C58.5623 40.2245 58.71 40.279 58.8765 40.3234C59.043 40.3685 59.235 40.391 59.451 40.391C59.5798 40.391 59.71 40.3736 59.8416 40.3408C59.9732 40.3074 60.0947 40.255 60.2052 40.183C60.3165 40.111 60.4052 40.0179 60.4729 39.903C60.5398 39.7881 60.5732 39.6499 60.5732 39.487C60.5732 39.3372 60.5412 39.2092 60.4765 39.103C60.4125 38.9968 60.3187 38.9008 60.1958 38.8157C60.0721 38.7307 59.9245 38.6434 59.7521 38.5547C59.6176 38.4805 59.491 38.399 59.3725 38.3088C59.254 38.2187 59.1587 38.111 59.0874 37.9859C59.0147 37.8608 58.979 37.7103 58.979 37.5343C58.979 37.3336 59.0161 37.1597 59.0911 37.0143C59.166 36.8681 59.2678 36.7481 59.3951 36.6543C59.5231 36.5605 59.667 36.4907 59.8256 36.4456C59.9856 36.4005 60.1492 36.3772 60.318 36.3772C60.5303 36.3772 60.7121 36.3976 60.8634 36.4383C61.0147 36.479 61.1623 36.535 61.3063 36.6048L61.1929 36.8608C61.0569 36.7925 60.9187 36.7387 60.7798 36.7001C60.6401 36.6608 60.4845 36.6419 60.3121 36.6419C60.1965 36.6419 60.0787 36.6572 59.958 36.6885C59.838 36.7197 59.7267 36.7692 59.6241 36.8376C59.5216 36.9059 59.4394 36.9954 59.3769 37.1067C59.3143 37.2172 59.2831 37.3532 59.2831 37.5147C59.2831 37.6601 59.3136 37.7816 59.374 37.8783C59.4343 37.9743 59.5165 38.0587 59.6183 38.1299C59.7209 38.2005 59.8343 38.2703 59.9594 38.3387C60.134 38.4332 60.2903 38.5299 60.4285 38.6267C60.5667 38.7248 60.6765 38.839 60.7565 38.9707C60.8372 39.1023 60.8772 39.2688 60.8772 39.4696C60.8772 39.6783 60.8372 39.8572 60.7565 40.007C60.6765 40.1568 60.5681 40.279 60.4314 40.3736C60.2947 40.4681 60.142 40.5379 59.9725 40.5823C59.8031 40.6267 59.6278 40.6492 59.4481 40.6492Z" fill="white"/>
<path fill-rule="evenodd" clip-rule="evenodd" d="M62.2193 38.6171H62.8586C63.1619 38.6171 63.4128 38.572 63.612 38.4819C63.8106 38.3924 63.9597 38.2629 64.0579 38.0957C64.1568 37.9277 64.2055 37.7269 64.2055 37.4913C64.2055 37.2128 64.1248 37.0106 63.9633 36.8848C63.8011 36.7589 63.5655 36.6957 63.2564 36.6957H62.6259L62.2193 38.6171ZM61.5059 40.5924L62.3873 36.4368H63.3022C63.5735 36.4368 63.7975 36.4775 63.9757 36.5597C64.1539 36.6411 64.2862 36.7597 64.3735 36.916C64.4608 37.0724 64.5044 37.2615 64.5044 37.4833C64.5044 37.6957 64.4695 37.8869 64.4004 38.0571C64.3313 38.228 64.2266 38.3735 64.087 38.4949C63.9466 38.6157 63.7706 38.7095 63.5597 38.7749C63.348 38.8404 63.1 38.8724 62.8164 38.8724H62.1626L61.7982 40.5924H61.5059Z" fill="white"/>
<path fill-rule="evenodd" clip-rule="evenodd" d="M66.4652 40.3877C66.666 40.3877 66.8478 40.3528 67.01 40.2822C67.1714 40.2124 67.3154 40.1157 67.442 39.9928C67.5678 39.8699 67.6761 39.7295 67.767 39.5717C67.858 39.4146 67.9329 39.2473 67.9918 39.0692C68.05 38.891 68.0936 38.7106 68.122 38.5273C68.1503 38.3448 68.1649 38.1688 68.1649 38.0001C68.1649 37.5753 68.0667 37.2423 67.871 37.0001C67.6747 36.7572 67.383 36.6357 66.9969 36.6357C66.7961 36.6357 66.6136 36.6692 66.4492 36.7339C66.2856 36.7993 66.1401 36.8895 66.0121 37.0052C65.8841 37.1208 65.7736 37.2553 65.6812 37.4088C65.5881 37.5622 65.511 37.7273 65.4507 37.9033C65.3896 38.0801 65.3452 38.2612 65.3154 38.4466C65.2863 38.6321 65.2718 38.8161 65.2718 38.9979C65.2718 39.2742 65.3147 39.5172 65.4005 39.7259C65.487 39.9339 65.618 40.0961 65.7947 40.2124C65.9707 40.3295 66.194 40.3877 66.4652 40.3877ZM66.4536 40.6488C66.1074 40.6488 65.8238 40.5768 65.6041 40.4335C65.3845 40.2895 65.223 40.0932 65.1205 39.8459C65.0187 39.5993 64.9678 39.3186 64.9678 39.0066C64.9678 38.7826 64.9867 38.5637 65.026 38.3484C65.0645 38.1339 65.122 37.9273 65.1976 37.7302C65.274 37.5332 65.3685 37.3521 65.4834 37.187C65.5983 37.0226 65.7314 36.8786 65.8841 36.7564C66.0361 36.6342 66.207 36.5397 66.3954 36.4728C66.5838 36.4052 66.7925 36.3717 67.0194 36.3717C67.4645 36.3717 67.818 36.5092 68.0783 36.7833C68.3387 37.0583 68.4689 37.4648 68.4689 38.003C68.4689 38.187 68.4536 38.379 68.4223 38.5797C68.391 38.7804 68.3423 38.9804 68.2754 39.1783C68.2092 39.3761 68.1234 39.563 68.0187 39.7397C67.9132 39.9157 67.786 40.0721 67.6376 40.2088C67.4885 40.3448 67.3169 40.4524 67.1205 40.531C66.9241 40.6095 66.7023 40.6488 66.4536 40.6488Z" fill="white"/>
<path fill-rule="evenodd" clip-rule="evenodd" d="M69.6826 38.526H70.404C70.5917 38.526 70.7618 38.5034 70.9146 38.4591C71.0673 38.4147 71.1989 38.3478 71.3095 38.2591C71.4208 38.1696 71.5058 38.0576 71.5655 37.9223C71.6251 37.7871 71.6549 37.6293 71.6549 37.4489C71.6549 37.1871 71.5742 36.9965 71.412 36.8765C71.2498 36.7558 71.0018 36.6962 70.6688 36.6962H70.0717L69.6826 38.526ZM68.9517 40.5922L69.8331 36.4373H70.7109C71.1226 36.4373 71.4324 36.5202 71.6404 36.686C71.8491 36.8518 71.9538 37.1005 71.9538 37.4314C71.9538 37.6613 71.9124 37.8627 71.8309 38.0358C71.7495 38.2089 71.6266 38.3536 71.4615 38.4693C71.2971 38.5849 71.0891 38.6693 70.8389 38.7223L71.5211 40.5922H71.2004L70.5633 38.7849H69.6288L69.2448 40.5922H68.9517Z" fill="white"/>
<path fill-rule="evenodd" clip-rule="evenodd" d="M72.9309 40.5924L73.7578 36.7015H72.5098L72.5672 36.4368H75.3578L75.3039 36.7015H74.0538L73.229 40.5924H72.9309Z" fill="white"/>
<path fill-rule="evenodd" clip-rule="evenodd" d="M75.8214 38.856H77.2396L77.0469 37.4436C77.0352 37.3425 77.0236 37.2313 77.0112 37.1091C76.9989 36.9869 76.9887 36.872 76.9814 36.7644H76.9669C76.916 36.8742 76.86 36.9869 76.801 37.1033C76.7407 37.2204 76.6796 37.336 76.617 37.4516L75.8214 38.856ZM74.5283 40.5927L76.8934 36.4313H77.1858L77.7654 40.5927H77.4818L77.2738 39.12H75.6796L74.8498 40.5927H74.5283Z" fill="white"/>
<path fill-rule="evenodd" clip-rule="evenodd" d="M79.0046 40.5924L79.8315 36.7015H78.5835L78.641 36.4368H81.4315L81.3777 36.7015H80.1275L79.3028 40.5924H79.0046Z" fill="white"/>
<path fill-rule="evenodd" clip-rule="evenodd" d="M81.1738 40.5924L82.0604 36.4368H82.3447L81.4611 40.5924H81.1738Z" fill="white"/>
<path fill-rule="evenodd" clip-rule="evenodd" d="M84.3109 40.3877C84.5117 40.3877 84.6935 40.3528 84.8557 40.2822C85.0171 40.2124 85.1611 40.1157 85.2877 39.9928C85.4135 39.8699 85.5218 39.7295 85.6127 39.5717C85.7037 39.4146 85.7786 39.2473 85.8375 39.0692C85.8957 38.891 85.9393 38.7106 85.9677 38.5273C85.996 38.3448 86.0106 38.1688 86.0106 38.0001C86.0106 37.5753 85.9124 37.2423 85.7167 37.0001C85.5204 36.7572 85.2287 36.6357 84.8426 36.6357C84.6418 36.6357 84.4593 36.6692 84.2949 36.7339C84.1313 36.7993 83.9858 36.8895 83.8578 37.0052C83.7298 37.1208 83.6193 37.2553 83.5269 37.4088C83.4338 37.5622 83.3568 37.7273 83.2964 37.9033C83.2353 38.0801 83.1909 38.2612 83.1611 38.4466C83.132 38.6321 83.1175 38.8161 83.1175 38.9979C83.1175 39.2742 83.1604 39.5172 83.2462 39.7259C83.3328 39.9339 83.4637 40.0961 83.6404 40.2124C83.8164 40.3295 84.0397 40.3877 84.3109 40.3877ZM84.2993 40.6488C83.9531 40.6488 83.6695 40.5768 83.4498 40.4335C83.2302 40.2895 83.0687 40.0932 82.9662 39.8459C82.8644 39.5993 82.8135 39.3186 82.8135 39.0066C82.8135 38.7826 82.8324 38.5637 82.8717 38.3484C82.9102 38.1339 82.9677 37.9273 83.0433 37.7302C83.1197 37.5332 83.2142 37.3521 83.3291 37.187C83.444 37.0226 83.5771 36.8786 83.7298 36.7564C83.8818 36.6342 84.0527 36.5397 84.2411 36.4728C84.4295 36.4052 84.6382 36.3717 84.8651 36.3717C85.3102 36.3717 85.6637 36.5092 85.924 36.7833C86.1844 37.0583 86.3146 37.4648 86.3146 38.003C86.3146 38.187 86.2993 38.379 86.268 38.5797C86.2367 38.7804 86.188 38.9804 86.1211 39.1783C86.0549 39.3761 85.9691 39.563 85.8644 39.7397C85.7589 39.9157 85.6317 40.0721 85.4833 40.2088C85.3342 40.3448 85.1626 40.4524 84.9662 40.531C84.7698 40.6095 84.548 40.6488 84.2993 40.6488Z" fill="white"/>
<path fill-rule="evenodd" clip-rule="evenodd" d="M86.7954 40.5924L87.6761 36.4368H87.9547L89.4616 40.1262H89.4725C89.49 40.028 89.5089 39.9211 89.5292 39.8069C89.5503 39.692 89.5721 39.5757 89.5947 39.4586C89.618 39.3408 89.6405 39.2302 89.663 39.1255L90.2369 36.4368H90.5161L89.6376 40.5924H89.3561L87.847 36.9037H87.8354C87.8223 36.9793 87.8078 37.0579 87.7932 37.1408C87.778 37.2229 87.762 37.3073 87.746 37.3931C87.73 37.4797 87.7132 37.5669 87.6965 37.6549C87.679 37.7429 87.6623 37.8317 87.6449 37.9204L87.0798 40.5924H86.7954Z" fill="white"/>
<path fill-rule="evenodd" clip-rule="evenodd" d="M93.997 40.3877C94.1977 40.3877 94.3795 40.3528 94.5417 40.2822C94.7032 40.2124 94.8471 40.1157 94.9737 39.9928C95.0995 39.8699 95.2079 39.7295 95.2988 39.5717C95.3897 39.4146 95.4646 39.2473 95.5235 39.0692C95.5817 38.891 95.6253 38.7106 95.6537 38.5273C95.6821 38.3448 95.6966 38.1688 95.6966 38.0001C95.6966 37.5753 95.5984 37.2423 95.4028 37.0001C95.2064 36.7572 94.9148 36.6357 94.5286 36.6357C94.3279 36.6357 94.1453 36.6692 93.981 36.7339C93.8173 36.7993 93.6719 36.8895 93.5439 37.0052C93.4159 37.1208 93.3053 37.2553 93.213 37.4088C93.1199 37.5622 93.0428 37.7273 92.9824 37.9033C92.9213 38.0801 92.877 38.2612 92.8471 38.4466C92.8181 38.6321 92.8035 38.8161 92.8035 38.9979C92.8035 39.2742 92.8464 39.5172 92.9322 39.7259C93.0188 39.9339 93.1497 40.0961 93.3264 40.2124C93.5024 40.3295 93.7257 40.3877 93.997 40.3877ZM93.9853 40.6488C93.6392 40.6488 93.3555 40.5768 93.1359 40.4335C92.9162 40.2895 92.7548 40.0932 92.6522 39.8459C92.5504 39.5993 92.4995 39.3186 92.4995 39.0066C92.4995 38.7826 92.5184 38.5637 92.5577 38.3484C92.5962 38.1339 92.6537 37.9273 92.7293 37.7302C92.8057 37.5332 92.9002 37.3521 93.0151 37.187C93.1301 37.0226 93.2631 36.8786 93.4159 36.7564C93.5679 36.6342 93.7388 36.5397 93.9272 36.4728C94.1155 36.4052 94.3242 36.3717 94.5512 36.3717C94.9962 36.3717 95.3497 36.5092 95.6101 36.7833C95.8704 37.0583 96.0006 37.4648 96.0006 38.003C96.0006 38.187 95.9853 38.379 95.9541 38.5797C95.9228 38.7804 95.8741 38.9804 95.8071 39.1783C95.741 39.3761 95.6551 39.563 95.5504 39.7397C95.445 39.9157 95.3177 40.0721 95.1693 40.2088C95.0202 40.3448 94.8486 40.4524 94.6522 40.531C94.4559 40.6095 94.2341 40.6488 93.9853 40.6488Z" fill="white"/>
<path fill-rule="evenodd" clip-rule="evenodd" d="M96.4839 40.5924L97.3653 36.4368H99.4599L99.409 36.7015H97.6039L97.2257 38.4724H98.9282L98.8686 38.7364H97.169L96.777 40.5924H96.4839Z" fill="white"/>
<path fill-rule="evenodd" clip-rule="evenodd" d="M101.526 38.856H102.944L102.751 37.4436C102.739 37.3425 102.728 37.2313 102.715 37.1091C102.703 36.9869 102.693 36.872 102.686 36.7644H102.671C102.62 36.8742 102.564 36.9869 102.505 37.1033C102.445 37.2204 102.384 37.336 102.321 37.4516L101.526 38.856ZM100.232 40.5927L102.598 36.4313H102.89L103.47 40.5927H103.186L102.978 39.12H101.384L100.554 40.5927H100.232Z" fill="white"/>
<path fill-rule="evenodd" clip-rule="evenodd" d="M104.021 40.5924L104.902 36.4368H105.315L105.894 40.1379H105.915L108.057 36.4368H108.509L107.637 40.5924H107.347L108.003 37.4775C108.022 37.388 108.042 37.3029 108.061 37.22C108.081 37.1379 108.101 37.0579 108.12 36.98C108.139 36.9022 108.157 36.828 108.176 36.7582H108.165L105.931 40.5924H105.704L105.104 36.7553H105.085C105.075 36.8259 105.064 36.9008 105.051 36.98C105.039 37.0593 105.026 37.1415 105.011 37.2259C104.995 37.3102 104.979 37.396 104.963 37.4833L104.306 40.5924H104.021Z" fill="white"/>
<path fill-rule="evenodd" clip-rule="evenodd" d="M108.793 40.5924L109.674 36.4368H111.766L111.712 36.7015H109.913L109.575 38.276H111.269L111.215 38.54H109.521L109.14 40.3284H110.942L110.888 40.5924H108.793Z" fill="white"/>
<path fill-rule="evenodd" clip-rule="evenodd" d="M112.593 38.526H113.315C113.502 38.526 113.672 38.5034 113.825 38.4591C113.978 38.4147 114.11 38.3478 114.22 38.2591C114.331 38.1696 114.416 38.0576 114.476 37.9223C114.536 37.7871 114.566 37.6293 114.566 37.4489C114.566 37.1871 114.485 36.9965 114.323 36.8765C114.16 36.7558 113.912 36.6962 113.579 36.6962H112.982L112.593 38.526ZM111.862 40.5922L112.744 36.4373H113.622C114.033 36.4373 114.343 36.5202 114.551 36.686C114.76 36.8518 114.864 37.1005 114.864 37.4314C114.864 37.6613 114.823 37.8627 114.742 38.0358C114.66 38.2089 114.537 38.3536 114.372 38.4693C114.208 38.5849 114 38.6693 113.75 38.7223L114.432 40.5922H114.111L113.474 38.7849H112.539L112.155 40.5922H111.862Z" fill="white"/>
<path fill-rule="evenodd" clip-rule="evenodd" d="M115.154 40.5924L116.041 36.4368H116.325L115.442 40.5924H115.154Z" fill="white"/>
<path fill-rule="evenodd" clip-rule="evenodd" d="M118.229 40.6492C117.926 40.6492 117.668 40.583 117.455 40.4514C117.242 40.3197 117.078 40.1343 116.965 39.8936C116.85 39.6528 116.794 39.3692 116.794 39.0434C116.794 38.7496 116.828 38.4703 116.896 38.2048C116.965 37.9394 117.064 37.6957 117.194 37.4732C117.323 37.2507 117.48 37.0572 117.665 36.8928C117.85 36.7292 118.058 36.6027 118.29 36.5125C118.522 36.4223 118.774 36.3772 119.045 36.3772C119.232 36.3772 119.405 36.3954 119.564 36.4332C119.722 36.4696 119.871 36.5248 120.011 36.599L119.892 36.8521C119.767 36.7801 119.634 36.727 119.494 36.6928C119.354 36.6587 119.204 36.6419 119.045 36.6419C118.81 36.6419 118.592 36.6819 118.392 36.7627C118.19 36.8434 118.01 36.9561 117.85 37.1008C117.69 37.2456 117.554 37.4179 117.442 37.6179C117.33 37.8179 117.245 38.0376 117.185 38.2761C117.125 38.5147 117.096 38.7663 117.096 39.0317C117.096 39.4507 117.199 39.7816 117.406 40.0237C117.614 40.2667 117.901 40.3881 118.266 40.3881C118.45 40.3881 118.623 40.3714 118.785 40.3394C118.947 40.3074 119.099 40.2667 119.241 40.2172V40.4732C119.103 40.5241 118.952 40.5663 118.788 40.599C118.624 40.6325 118.437 40.6492 118.229 40.6492Z" fill="white"/>
<path fill-rule="evenodd" clip-rule="evenodd" d="M120.765 38.856H122.183L121.99 37.4436C121.979 37.3425 121.967 37.2313 121.955 37.1091C121.942 36.9869 121.932 36.872 121.925 36.7644H121.91C121.859 36.8742 121.803 36.9869 121.744 37.1033C121.684 37.2204 121.623 37.336 121.56 37.4516L120.765 38.856ZM119.472 40.5927L121.837 36.4313H122.129L122.709 40.5927H122.425L122.217 39.12H120.623L119.793 40.5927H119.472Z" fill="white"/>
<path fill-rule="evenodd" clip-rule="evenodd" d="M124.457 36.2339C124.006 36.2354 123.638 36.6041 123.638 37.0543C123.637 37.511 124.008 37.8812 124.464 37.8805C124.916 37.879 125.285 37.5074 125.284 37.0536C125.284 36.6012 124.911 36.2325 124.457 36.2339ZM124.461 38.0412C123.915 38.0412 123.475 37.602 123.475 37.0565C123.475 36.5132 123.917 36.071 124.461 36.071C125.006 36.071 125.446 36.5125 125.446 37.0572C125.445 37.6034 125.007 38.0412 124.461 38.0412Z" fill="white"/>
<path fill-rule="evenodd" clip-rule="evenodd" d="M124.265 37.013C124.389 37.0101 124.508 37.0298 124.623 36.9832C124.69 36.957 124.723 36.9054 124.728 36.8349C124.732 36.7636 124.707 36.7061 124.643 36.6734C124.521 36.613 124.394 36.629 124.265 36.6363V37.013ZM124.262 37.1316V37.6014H124.11V36.5338C124.299 36.5061 124.487 36.477 124.673 36.5447C124.889 36.6232 124.95 36.8712 124.793 37.0159C124.765 37.0414 124.731 37.0603 124.697 37.0836C124.865 37.2159 124.881 37.4109 124.917 37.6029H124.767C124.754 37.5469 124.744 37.4894 124.728 37.4341C124.713 37.3839 124.697 37.333 124.673 37.2865C124.623 37.1832 124.542 37.1243 124.422 37.1316C124.371 37.1338 124.321 37.1316 124.262 37.1316Z" fill="white"/>
<path fill-rule="evenodd" clip-rule="evenodd" d="M64.449 22.6699C64.7748 21.9048 65.1493 21.1564 65.4112 20.3702C65.6141 19.7593 65.9093 19.5521 66.5741 19.5571C71.1901 19.5913 75.8068 19.5753 80.4228 19.5753C80.641 19.5753 80.8592 19.5753 81.1937 19.5753C80.409 22.2393 79.6439 24.8364 78.8788 27.4335C78.9013 27.4561 78.9246 27.4779 78.9479 27.4997C79.0832 27.3753 79.2192 27.251 79.3544 27.1251C81.8722 24.7761 84.3864 22.4233 86.9152 20.0859C87.0962 19.9186 87.3821 19.7739 87.6199 19.7724C91.577 19.7535 95.5341 19.7586 99.4904 19.7608C99.6126 19.7608 99.7341 19.7819 99.9399 19.8008C99.0032 21.371 98.0977 22.8873 97.1326 24.5055C97.3733 24.419 97.5173 24.3768 97.6541 24.3164C99.9661 23.3062 102.282 22.3026 104.586 21.2713C104.947 21.1091 105.21 21.1339 105.541 21.3324C107.41 22.4517 109.29 23.5491 111.168 24.6524C111.32 24.7419 111.475 24.8233 111.712 24.9535C111.342 23.2764 111.081 21.6633 110.612 20.1135C110.264 18.9651 110.465 18.243 111.472 17.5557C112.538 16.8284 113.471 15.9055 114.545 14.9986C114.298 14.9782 114.146 14.9557 113.996 14.9557C112.329 14.9528 110.661 14.9397 108.995 14.9637C108.592 14.9695 108.421 14.8321 108.296 14.4604C107.687 12.6597 107.05 10.8677 106.422 9.07278C106.37 8.92296 106.312 8.77533 106.229 8.55205C106.087 8.77242 105.976 8.93314 105.876 9.10042C104.842 10.8284 103.818 12.5615 102.767 14.2779C102.657 14.4561 102.386 14.643 102.189 14.6437C98.6533 14.6648 95.1173 14.6582 91.5821 14.6561C91.5282 14.6561 91.4744 14.6393 91.3115 14.6117C92.1144 13.7033 92.8781 12.8401 93.7232 11.8844C93.4366 11.8684 93.2497 11.8495 93.0635 11.8488C90.1144 11.8473 87.1646 11.8568 84.2155 11.8379C83.7828 11.835 83.5552 11.9411 83.4352 12.3819C83.2526 13.051 83.0192 13.7084 82.7581 14.3513C82.6912 14.5171 82.4417 14.7171 82.2752 14.7179C77.2737 14.7361 72.273 14.7317 67.2715 14.7288C67.2192 14.7288 67.1661 14.7077 67.0352 14.6793C67.3195 13.5361 67.6032 12.3986 67.9043 11.1884H49.1362C49.1544 9.83714 48.3202 9.15351 47.2817 8.66551C45.3544 7.76005 43.2722 7.54114 41.1872 7.43424C39.9137 7.36878 38.6192 7.36442 37.3588 7.52514C36.6526 7.61533 35.9384 8.01169 35.3304 8.42187C34.3522 9.08005 34.3806 10.059 35.425 10.5935C36.6562 11.2241 37.9588 11.7237 39.2562 12.211C41.0875 12.899 42.9413 13.523 44.785 14.1761C44.8613 14.2022 44.9297 14.2495 44.9835 14.3761C44.8097 14.3761 44.6359 14.3761 44.4628 14.3761C35.9806 14.3761 27.4992 14.371 19.0177 14.3884C18.5108 14.3899 18.2315 14.2568 18.113 13.7637C17.8315 12.5964 17.4366 11.4466 17.2679 10.2633C17.009 8.44733 17.8272 6.99205 19.1217 5.78042C20.6381 4.36078 22.5013 3.56078 24.4133 2.84733C28.4192 1.35205 32.5741 0.709144 36.8352 0.656781C42.0126 0.592054 47.1552 0.94769 52.2381 1.96878C53.9232 2.30769 55.5922 2.7186 57.1057 3.5986C57.321 3.72369 57.6366 3.70551 57.905 3.70551C77.7261 3.70987 97.5472 3.71351 117.368 3.69314C118.01 3.69242 118.274 3.88733 118.493 4.47642C121.416 12.323 124.367 20.1601 127.31 27.9993C127.373 28.1681 127.43 28.3397 127.51 28.5666C127.295 28.5782 127.122 28.5964 126.95 28.5964C122.701 28.5986 118.45 28.5921 114.2 28.6081C113.79 28.6095 113.578 28.4982 113.434 28.1062C113.176 27.4037 112.849 26.7259 112.577 26.0277C112.464 25.7382 112.326 25.6073 111.989 25.6081C106.969 25.6197 101.95 25.6124 96.9304 25.6291C96.7159 25.6299 96.4468 25.7753 96.297 25.939C95.7908 26.4924 95.3108 27.0728 94.8526 27.667C94.5944 28.003 94.3042 28.1251 93.8773 28.1244C83.8933 28.1128 73.9093 28.1186 63.9253 28.1062C63.3653 28.1055 62.9421 28.2335 62.5122 28.6335C59.7552 31.1971 56.4432 32.4721 52.7246 32.8764C47.8199 33.4102 42.9079 33.7208 37.9755 33.6124C33.0642 33.5048 28.1704 33.1513 23.3588 32.1011C20.5566 31.4895 17.8592 30.5688 15.521 28.8211C13.6148 27.3971 12.2883 25.5557 11.5697 23.283C11.5319 23.1637 11.5173 23.0364 11.4839 22.8728H29.5137C29.5348 23.2822 29.5377 23.6641 29.5784 24.0415C29.7122 25.2648 30.5472 26.2473 31.7552 26.5033C35.2664 27.2488 38.817 27.5644 42.3988 27.2342C43.145 27.1651 43.9093 26.9077 44.5901 26.5804C46.3042 25.7571 46.585 23.9179 45.2715 22.5339C44.4853 21.7055 43.505 21.1964 42.3995 21.0379C38.7966 20.5201 35.1857 20.059 31.5777 19.5753C31.0192 19.5004 30.4613 19.4226 29.9042 19.2451H30.4577C39.7821 19.2451 49.1057 19.2401 58.4293 19.2546C59.249 19.2561 60.0737 19.3477 60.8868 19.4633C62.2162 19.6524 63.169 20.3862 63.7508 21.6001C63.921 21.9564 64.105 22.3055 64.2824 22.6582C64.3384 22.6619 64.3937 22.6662 64.449 22.6699Z" fill="white"/>
<path fill-rule="evenodd" clip-rule="evenodd" d="M101.019 17.6383C72.0768 17.6274 43.1364 17.6143 14.1939 17.6034C10.8899 17.6012 7.60987 17.3699 4.40696 16.5037C3.70514 16.3147 3.02151 16.0376 2.35314 15.7474C0.689145 15.0223 1.22951 13.5539 2.24987 12.8921C3.46369 14.6877 5.40478 15.1474 7.32842 15.5961C9.85424 16.1852 12.4375 16.3256 15.0186 16.3299C41.9095 16.3743 68.799 16.3983 95.6906 16.4288C96.9168 16.431 98.1502 16.5168 99.3684 16.4223C100.4 16.3437 100.949 16.9852 101.591 17.6383H101.019ZM108.96 17.8077C109.672 17.359 110.356 16.8667 111.051 16.3896C111.341 16.1896 111.631 15.9852 111.919 15.7852C111.904 15.743 111.888 15.7016 111.873 15.6616H111.341C110.279 15.6616 109.217 15.6463 108.155 15.6688C107.764 15.6776 107.573 15.5648 107.456 15.1692C107.109 13.9954 106.713 12.8347 106.337 11.6674C106.261 11.4339 106.177 11.2034 106.058 10.8514C105.311 12.3292 104.609 13.6747 103.955 15.0419C103.739 15.4907 103.495 15.7125 102.963 15.6732C102.18 15.6179 101.389 15.6376 100.602 15.6354C72.591 15.6245 44.5808 15.6223 16.5684 15.5917C14.4666 15.5896 12.3604 15.4594 10.2673 15.279C8.35314 15.1147 6.45569 14.7605 4.65715 14.0485C4.12769 13.839 3.61278 13.5096 3.19096 13.127C2.75096 12.7314 2.83896 12.3336 3.38442 12.1161C4.6746 11.6012 5.95678 11.0339 7.29351 10.6827C9.53569 10.0957 11.8179 9.65793 14.0819 9.15902C10.4346 9.58084 6.82514 10.1787 3.35387 11.5023C3.94078 10.647 4.81133 10.1903 5.71678 9.79175C7.62078 8.95684 9.62587 8.45575 11.6506 8.03102C12.9473 7.76047 14.2513 7.51466 15.5502 7.2572C13.9059 7.39829 12.2746 7.62666 10.6637 7.94738C8.40114 8.39829 6.14369 8.92338 4.10951 10.0623C3.47896 10.4187 2.88551 10.9481 2.46514 11.5379C2.15969 11.9663 1.8826 12.3685 1.46733 12.7096C0.23169 13.7227 0.293508 15.0157 1.58369 15.9634C1.79024 16.1147 1.9946 16.2928 2.23024 16.3765C3.50078 16.8274 4.75605 17.3503 6.06005 17.6667C9.09133 18.4077 12.207 18.3197 15.2935 18.3263C43.8906 18.3837 72.4877 18.399 101.086 18.4274C101.327 18.4274 101.569 18.4492 101.905 18.4652C101.142 19.7139 100.439 20.8637 99.7357 22.0128C100.015 22.0107 100.199 21.9343 100.377 21.8485C101.91 21.1096 103.448 20.3794 104.97 19.6172C105.318 19.4434 105.559 19.4761 105.86 19.6979C107.052 20.5823 108.261 21.4441 109.464 22.3103C109.619 22.4245 109.782 22.5299 110.079 22.7299C109.984 22.3867 109.941 22.1976 109.881 22.0128C109.496 20.8499 109.118 19.6848 108.718 18.5263C108.606 18.199 108.65 18.0056 108.96 17.8077Z" fill="white"/>
</g>
</svg>
