<svg width="198" height="41" viewBox="0 0 198 41" fill="none" xmlns="http://www.w3.org/2000/svg">
<g clip-path="url(#clip0_189_3772)">
<g opacity="0.7">
<path fill-rule="evenodd" clip-rule="evenodd" d="M40.3124 23.867C48.4758 19.0637 51.1322 15.5486 51.1322 11.0765C51.1322 6.60437 47.9727 2.33374 38.6925 2.33374C31.0731 2.33374 26.5012 5.48558 26.5012 12.3967H36.1527C36.1527 10.0538 37.168 8.96864 38.4985 8.96864C39.6168 8.96864 40.6231 9.5929 40.6231 11.2718C40.6231 16.3881 26.4951 25.285 26.4951 25.285L21.3444 16.4125L28.3697 3.11063H16.7376L11.0034 15.5486V3.09537H0.213867V31.2803H11.0034V17.3283L17.4695 31.2803H51.1322V23.9387H40.3124V23.867Z" fill="white"/>
<path fill-rule="evenodd" clip-rule="evenodd" d="M53.6719 30.494C56.8011 30.494 57.2285 30.2162 57.2285 27.771V7.15353C57.2285 4.63053 56.9133 4.39395 53.6719 4.39395V3.64758H65.3555V4.37411C62.1853 4.37411 61.8701 4.69158 61.8701 6.93221V27.9099C61.8701 30.2375 62.3793 30.5138 65.3555 30.5138V31.3014H53.6719V30.494Z" fill="white"/>
<path fill-rule="evenodd" clip-rule="evenodd" d="M66.6452 30.494C69.1092 30.494 69.5002 30.259 69.5002 28.4014V14.7607C69.5002 12.8727 69.1501 12.714 66.6452 12.714V11.9615C68.9561 11.9615 71.9687 11.8852 73.8478 11.7676V15.1957C74.8313 12.9872 77.0346 11.5891 79.4365 11.6501C83.7387 11.6501 85.3435 14.4066 85.3435 17.4822V28.4213C85.3435 30.2376 85.7344 30.5139 88.0818 30.5139V31.3014H78.5621V30.494C80.7579 30.494 81.0307 30.259 81.0307 28.4014V17.1662C81.0307 15.0782 80.3654 13.2665 78.1712 13.2665C75.2753 13.2665 73.8281 16.0657 73.8281 19.0589V28.5999C73.8281 30.259 74.26 30.494 76.2921 30.494V31.2816H66.6406L66.6452 30.494Z" fill="white"/>
<path fill-rule="evenodd" clip-rule="evenodd" d="M89.3771 26.2369V12.8724H86.9131V12.0024L87.5374 11.9612C91.0228 11.7262 92.5109 7.86917 92.7852 4.58912C92.7852 4.39375 92.8201 4.11901 92.8201 3.91907H93.7202V11.9612H98.2921V12.8724H93.7202V26.3742C93.7202 29.056 94.3097 29.9565 95.6402 29.9565C97.2056 29.9565 97.6359 27.9448 97.6359 26.1697V25.4844H98.4588V26.5482C98.4588 29.781 97.0874 31.6339 93.8414 31.6339C91.3729 31.6339 89.3771 30.0588 89.3771 26.2369Z" fill="white"/>
<path fill-rule="evenodd" clip-rule="evenodd" d="M112.048 20.3068V19.2125C112.048 16.372 111.423 12.2326 108.213 12.2326C104.809 12.2326 104.149 16.8833 104.103 19.765V20.316L112.048 20.3068ZM99.1919 21.5035C99.1919 15.6302 102.986 11.5366 108.233 11.5366C113.821 11.5366 116.802 15.7538 116.802 20.9983V21.2318H104.103V22.1384C104.103 26.0839 105.159 30.4171 109.584 30.4171C112.947 30.4171 115.066 27.8163 115.807 24.901H116.629C115.847 28.9946 113.074 31.7206 108.721 31.7206C102.929 31.7206 99.2116 27.859 99.2116 21.4882L99.1919 21.5035Z" fill="white"/>
<path fill-rule="evenodd" clip-rule="evenodd" d="M137.512 30.494C140.016 30.494 140.372 30.2162 140.372 28.1663V14.9194C140.372 12.949 140.132 12.7139 137.512 12.7139V11.9614C139.884 12.0103 142.259 11.9324 144.623 11.7264V15.2766C145.35 13.0497 147.421 11.5509 149.749 11.5675C152.096 11.5675 153.583 12.9902 153.583 15.1957C153.583 17.0471 152.371 18.7047 150.455 18.7047C149.084 18.7047 148.225 17.9171 148.225 16.6946C148.225 14.7607 150.455 14.489 150.455 13.6602C150.455 13.068 149.79 12.7902 149.084 12.7902C146.655 12.7902 145.132 15.3941 144.659 17.1662V28.0885C144.659 30.3352 145.289 30.494 147.637 30.494V31.2816H137.478L137.512 30.494Z" fill="white"/>
<path fill-rule="evenodd" clip-rule="evenodd" d="M156.164 6.01173C156.164 4.46557 157.409 3.21399 158.944 3.21399C160.479 3.21399 161.721 4.46557 161.721 6.01173C161.721 7.55788 160.479 8.80946 158.944 8.80946C157.409 8.80946 156.164 7.55788 156.164 6.01173ZM154.249 30.4938C156.987 30.4938 157.145 30.2588 157.145 28.1662V15.513C157.145 12.9091 156.83 12.7138 154.249 12.7138V11.9613C156.66 12.001 159.071 11.8316 161.452 11.45V28.0884C161.452 30.2588 161.762 30.4938 164.466 30.4938V31.2814H154.249V30.4938Z" fill="white"/>
<path fill-rule="evenodd" clip-rule="evenodd" d="M165.826 26.2369V12.8724H163.362V12.0024L163.987 11.9612C167.472 11.7262 168.96 7.86917 169.234 4.58912C169.234 4.39375 169.274 4.11901 169.274 3.91907H170.174V11.9612H174.746V12.8724H170.174V26.3742C170.174 29.056 170.759 29.9565 172.089 29.9565C173.659 29.9565 174.085 27.9448 174.085 26.1697V25.4844H174.908V26.5482C174.908 29.781 173.537 31.6339 170.291 31.6339C167.822 31.6339 165.826 30.0588 165.826 26.2369Z" fill="white"/>
<path fill-rule="evenodd" clip-rule="evenodd" d="M175.762 35.9731C175.668 34.5002 176.778 33.2303 178.239 33.1372C178.326 33.1311 178.416 33.1311 178.505 33.1342C179.795 33.1342 180.851 33.9202 180.851 35.3031C180.851 37.3483 178.657 37.2308 178.657 38.142C178.657 38.8487 179.561 39.1234 180.343 39.1234C183.473 39.1234 185.628 34.398 186.485 31.3988C185.667 29.4649 183.082 23.7489 179.521 15.9479C178.266 13.2264 177.641 12.7136 176.037 12.7136V11.9626H186.252V12.7136C183.203 12.7136 183.157 13.2661 184.255 15.7479C185.585 18.8998 187.66 23.555 188.72 25.9193C189.305 24.3838 191.068 19.7285 192.124 16.853C193.495 13.144 192.986 12.7136 189.539 12.7136V11.9626H197.213V12.7136C195.096 12.7136 194.627 12.9899 193.379 16.2241C191.301 21.58 189.187 27.0243 187.075 32.3863C185.9 35.3794 184.138 39.9125 180.186 39.9125C177.799 39.9125 175.762 38.4946 175.762 35.9731Z" fill="white"/>
<path fill-rule="evenodd" clip-rule="evenodd" d="M126.967 39.2062C123.796 39.2062 120.51 38.295 120.51 34.8272C120.547 33.4016 121.434 32.1424 122.755 31.6341C123.969 31.8341 125.803 31.9913 127.53 32.1454C129.684 32.3454 131.878 32.698 132.895 33.2093C133.621 33.6046 134.05 34.3922 133.992 35.221C133.977 37.8661 130.1 39.2062 126.967 39.2062ZM126.265 12.2026C129.237 12.2026 129.75 15.8245 129.75 18.665C129.75 21.304 129.278 24.9733 126.265 24.9733C123.254 24.9733 122.896 21.304 122.896 18.546C122.896 15.7894 123.33 12.2026 126.265 12.2026ZM127.515 28.3647C123.796 28.0473 121.134 27.6947 121.134 26.4309C121.134 25.6845 121.801 25.2083 122.507 24.9305C123.712 25.4403 125.006 25.6967 126.31 25.6845C130.304 25.6845 134.413 23.0028 134.413 18.5872C134.413 16.2229 133.556 14.2127 131.833 13.0268L131.42 12.7505H135.394V11.8851H132.854C131.358 11.9141 129.863 11.8531 128.374 11.7004C128.161 11.6653 127.946 11.6302 127.733 11.6043C127.685 11.5997 127.635 11.5997 127.586 11.6043C127.161 11.5493 126.732 11.5219 126.301 11.5219C122.237 11.5219 118.28 14.0449 118.28 18.6177C118.17 21.1956 119.626 23.5828 121.957 24.6512C120.51 25.1198 118.24 26.0676 118.28 28.2777C118.28 30.0483 120.237 31.0343 121.883 31.4296C120.194 32.0233 117.615 33.4413 117.615 35.4911C117.615 39.0734 122.583 39.9419 126.576 39.9419C131.705 39.9419 136.912 38.0553 136.912 33.803C136.912 30.2589 134.053 28.9341 127.515 28.3647Z" fill="white"/>
</g>
</g>
<defs>
<clipPath id="clip0_189_3772">
<rect width="197.895" height="40" fill="white" transform="translate(0.0615234 0.649414)"/>
</clipPath>
</defs>
</svg>
