<svg width="191" height="129" viewBox="0 0 191 129" fill="none" xmlns="http://www.w3.org/2000/svg">
<g filter="url(#filter0_b_134_4042)">
<rect width="191" height="129" rx="12" fill="black" fill-opacity="0.15"/>
<mask id="mask0_134_4042" style="mask-type:alpha" maskUnits="userSpaceOnUse" x="19" y="22" width="18" height="18">
<path d="M19 22H37V40H19V22Z" fill="#D9D9D9"/>
</mask>
<g mask="url(#mask0_134_4042)">
<path d="M31 37V31.75H34V37H31ZM26.5 37V25H29.5V37H26.5ZM22 37V28.75H25V37H22Z" fill="white"/>
</g>
<path d="M140 31.4999C140 33.489 139.21 35.3967 137.803 36.8032C136.397 38.2097 134.489 38.9999 132.5 38.9999C130.511 38.9999 128.603 38.2097 127.197 36.8032C125.79 35.3967 125 33.489 125 31.4999H126.246C126.246 33.1587 126.905 34.7495 128.078 35.9224C129.25 37.0953 130.841 37.7542 132.5 37.7542C134.159 37.7542 135.75 37.0953 136.922 35.9224C138.095 34.7495 138.754 33.1587 138.754 31.4999H140Z" fill="#C4CACD" fill-opacity="0.8"/>
<path d="M132.862 24.0086C134.849 24.1046 136.716 24.9859 138.053 26.4586C139.39 27.9314 140.087 29.8749 139.991 31.8617L138.747 31.8016C138.827 30.1448 138.246 28.5241 137.131 27.2959C136.016 26.0678 134.459 25.3328 132.802 25.2528L132.862 24.0086Z" fill="white" fill-opacity="0.8"/>
<path d="M125 31.4999C125 30.3572 125.262 29.2295 125.764 28.2031C126.266 27.1767 126.996 26.2786 127.899 25.5775L128.663 26.5612C127.911 27.1458 127.302 27.8947 126.883 28.7507C126.464 29.6066 126.246 30.547 126.246 31.4999H125Z" fill="white" fill-opacity="0.8"/>
<path d="M127.899 25.5775C129.384 24.4236 131.248 23.8699 133.122 24.0259L133.019 25.2673C131.456 25.1372 129.902 25.599 128.663 26.5612L127.899 25.5775Z" fill="#C4CACD" fill-opacity="0.8"/>
<mask id="mask1_134_4042" style="mask-type:alpha" maskUnits="userSpaceOnUse" x="154" y="22" width="18" height="18">
<path d="M154 22H172V40H154V22Z" fill="#D9D9D9"/>
</mask>
<g mask="url(#mask1_134_4042)">
<path fill-rule="evenodd" clip-rule="evenodd" d="M160.075 37.9094C160.987 38.3031 161.963 38.5 163 38.5C164.038 38.5 165.012 38.3031 165.925 37.9094C166.838 37.5156 167.631 36.9813 168.306 36.3063C168.981 35.6313 169.516 34.8375 169.909 33.925C170.303 33.0125 170.5 32.0375 170.5 31C170.5 29.9625 170.303 28.9875 169.909 28.075C169.516 27.1625 168.981 26.3687 168.306 25.6937C167.631 25.0187 166.838 24.4844 165.925 24.0906C165.012 23.6969 164.038 23.5 163 23.5C161.963 23.5 160.987 23.6969 160.075 24.0906C159.162 24.4844 158.369 25.0187 157.694 25.6937C157.019 26.3687 156.484 27.1625 156.091 28.075C155.697 28.9875 155.5 29.9625 155.5 31C155.5 32.0375 155.697 33.0125 156.091 33.925C156.484 34.8375 157.019 35.6313 157.694 36.3063C158.369 36.9813 159.162 37.5156 160.075 37.9094ZM167.256 35.2563C166.094 36.4188 164.675 37 163 37C161.325 37 159.906 36.4188 158.744 35.2563C157.581 34.0938 157 32.675 157 31C157 29.325 157.581 27.9062 158.744 26.7438C159.906 25.5813 161.325 25 163 25C164.675 25 166.094 25.5813 167.256 26.7438C168.419 27.9062 169 29.325 169 31C169 32.675 168.419 34.0938 167.256 35.2563Z" fill="#C4CACD" fill-opacity="0.8"/>
<path fill-rule="evenodd" clip-rule="evenodd" d="M163 37C164.675 37 166.094 36.4188 167.256 35.2563C168.419 34.0938 169 32.675 169 31C169 29.325 168.419 27.9062 167.256 26.7438C166.094 25.5813 164.675 25 163 25C161.325 25 159.906 25.5813 158.744 26.7438C157.581 27.9062 157 29.325 157 31C157 32.675 157.581 34.0938 158.744 35.2563C159.906 36.4188 161.325 37 163 37ZM163.75 34.75H162.25V31.75H159.25V30.25H162.25V27.25H163.75V30.25H166.75V31.75H163.75V34.75Z" fill="#C4CACD" fill-opacity="0.8"/>
</g>
<path d="M67.5029 70.2759C67.5029 67.2772 68.0403 64.9286 69.1149 63.2299C70.2069 61.5312 72.0096 60.6819 74.5229 60.6819C77.0363 60.6819 78.8303 61.5312 79.9049 63.2299C80.9969 64.9286 81.5429 67.2772 81.5429 70.2759C81.5429 73.2919 80.9969 75.6579 79.9049 77.3739C78.8303 79.0899 77.0363 79.9479 74.5229 79.9479C72.0096 79.9479 70.2069 79.0899 69.1149 77.3739C68.0403 75.6579 67.5029 73.2919 67.5029 70.2759ZM77.9549 70.2759C77.9549 68.9932 77.8683 67.9186 77.6949 67.0519C77.5389 66.1679 77.2096 65.4486 76.7069 64.8939C76.2216 64.3392 75.4936 64.0619 74.5229 64.0619C73.5523 64.0619 72.8156 64.3392 72.3129 64.8939C71.8276 65.4486 71.4983 66.1679 71.3249 67.0519C71.1689 67.9186 71.0909 68.9932 71.0909 70.2759C71.0909 71.5932 71.1689 72.7026 71.3249 73.6039C71.4809 74.4879 71.8103 75.2072 72.3129 75.7619C72.8156 76.2992 73.5523 76.5679 74.5229 76.5679C75.4936 76.5679 76.2303 76.2992 76.7329 75.7619C77.2356 75.2072 77.5649 74.4879 77.7209 73.6039C77.8769 72.7026 77.9549 71.5932 77.9549 70.2759Z" fill="white"/>
<path d="M51.9905 66.038C52.0771 64.3047 52.6838 62.97 53.8105 62.034C54.9545 61.0807 56.4538 60.604 58.3085 60.604C59.5738 60.604 60.6571 60.8293 61.5585 61.28C62.4598 61.7133 63.1358 62.3113 63.5865 63.074C64.0545 63.8193 64.2885 64.6687 64.2885 65.622C64.2885 66.714 64.0025 67.6413 63.4305 68.404C62.8758 69.1493 62.2085 69.652 61.4285 69.912V70.016C62.4338 70.328 63.2138 70.8827 63.7685 71.68C64.3405 72.4773 64.6265 73.5 64.6265 74.748C64.6265 75.788 64.3838 76.7153 63.8985 77.53C63.4305 78.3447 62.7285 78.986 61.7925 79.454C60.8738 79.9047 59.7645 80.13 58.4645 80.13C56.5058 80.13 54.9111 79.636 53.6805 78.648C52.4498 77.66 51.7998 76.204 51.7305 74.28H55.2665C55.3011 75.1293 55.5871 75.814 56.1245 76.334C56.6791 76.8367 57.4331 77.088 58.3865 77.088C59.2705 77.088 59.9465 76.8453 60.4145 76.36C60.8998 75.8573 61.1425 75.216 61.1425 74.436C61.1425 73.396 60.8131 72.6507 60.1545 72.2C59.4958 71.7493 58.4731 71.524 57.0865 71.524H56.3325V68.534H57.0865C59.5478 68.534 60.7785 67.7107 60.7785 66.064C60.7785 65.3187 60.5531 64.738 60.1025 64.322C59.6691 63.906 59.0365 63.698 58.2045 63.698C57.3898 63.698 56.7571 63.9233 56.3065 64.374C55.8731 64.8073 55.6218 65.362 55.5525 66.038H51.9905Z" fill="white"/>
<path d="M45.1356 65.778C44.9623 65.05 44.659 64.504 44.2256 64.14C43.8096 63.776 43.203 63.594 42.4056 63.594C41.2096 63.594 40.3256 64.0793 39.7536 65.05C39.199 66.0033 38.913 67.5633 38.8956 69.73C39.3116 69.0367 39.9183 68.4993 40.7156 68.118C41.513 67.7193 42.3796 67.52 43.3156 67.52C44.4423 67.52 45.439 67.7627 46.3056 68.248C47.1723 68.7333 47.8483 69.444 48.3336 70.38C48.819 71.2987 49.0616 72.408 49.0616 73.708C49.0616 74.9387 48.8103 76.0393 48.3076 77.01C47.8223 77.9633 47.103 78.7087 46.1496 79.246C45.1963 79.7833 44.061 80.052 42.7436 80.052C40.941 80.052 39.5196 79.6533 38.4796 78.856C37.457 78.0587 36.7376 76.9493 36.3216 75.528C35.923 74.0893 35.7236 72.3213 35.7236 70.224C35.7236 67.052 36.2696 64.66 37.3616 63.048C38.4536 61.4187 40.1783 60.604 42.5356 60.604C44.3556 60.604 45.7683 61.098 46.7736 62.086C47.779 63.074 48.3596 64.3047 48.5156 65.778H45.1356ZM42.4836 70.51C41.565 70.51 40.7936 70.7787 40.1696 71.316C39.5456 71.8533 39.2336 72.6333 39.2336 73.656C39.2336 74.6787 39.5196 75.4847 40.0916 76.074C40.681 76.6633 41.5043 76.958 42.5616 76.958C43.4976 76.958 44.2343 76.672 44.7716 76.1C45.3263 75.528 45.6036 74.7567 45.6036 73.786C45.6036 72.7807 45.335 71.9833 44.7976 71.394C44.2776 70.8047 43.5063 70.51 42.4836 70.51Z" fill="white"/>
<path d="M21.5216 75.8919C23.1856 74.5052 24.5116 73.3526 25.4996 72.4339C26.4876 71.4979 27.3109 70.5272 27.9696 69.5219C28.6282 68.5166 28.9576 67.5286 28.9576 66.5579C28.9576 65.6739 28.7496 64.9806 28.3336 64.4779C27.9176 63.9752 27.2762 63.7239 26.4096 63.7239C25.5429 63.7239 24.8756 64.0186 24.4076 64.6079C23.9396 65.1799 23.6969 65.9686 23.6796 66.9739H20.1436C20.2129 64.8939 20.8282 63.3166 21.9896 62.2419C23.1682 61.1672 24.6589 60.6299 26.4616 60.6299C28.4376 60.6299 29.9542 61.1586 31.0116 62.2159C32.0689 63.2559 32.5976 64.6339 32.5976 66.3499C32.5976 67.7019 32.2336 68.9932 31.5056 70.2239C30.7776 71.4546 29.9456 72.5292 29.0096 73.4479C28.0736 74.3492 26.8516 75.4412 25.3436 76.7239H33.0136V79.7399H20.1696V77.0359L21.5216 75.8919Z" fill="white"/>
<path d="M131.518 103.36C131.518 102.669 131.658 102.039 131.938 101.47C132.227 100.891 132.619 100.429 133.114 100.084C133.618 99.7387 134.192 99.566 134.836 99.566C135.424 99.566 135.951 99.72 136.418 100.028C136.884 100.336 137.248 100.709 137.51 101.148V96.78H138.742V105.6C138.742 105.749 138.77 105.861 138.826 105.936C138.891 106.001 138.994 106.039 139.134 106.048V107C138.9 107.037 138.718 107.056 138.588 107.056C138.345 107.056 138.13 106.972 137.944 106.804C137.766 106.636 137.678 106.449 137.678 106.244V105.628C137.388 106.095 137.001 106.463 136.516 106.734C136.03 107.005 135.526 107.14 135.004 107.14C134.5 107.14 134.033 107.042 133.604 106.846C133.184 106.641 132.815 106.361 132.498 106.006C132.19 105.651 131.947 105.25 131.77 104.802C131.602 104.345 131.518 103.864 131.518 103.36ZM137.51 104.438V102.338C137.398 102.021 137.216 101.736 136.964 101.484C136.712 101.223 136.427 101.017 136.11 100.868C135.802 100.709 135.494 100.63 135.186 100.63C134.822 100.63 134.49 100.709 134.192 100.868C133.902 101.017 133.65 101.223 133.436 101.484C133.23 101.736 133.072 102.025 132.96 102.352C132.848 102.679 132.792 103.019 132.792 103.374C132.792 103.738 132.852 104.083 132.974 104.41C133.104 104.737 133.282 105.026 133.506 105.278C133.739 105.53 134.005 105.726 134.304 105.866C134.612 106.006 134.943 106.076 135.298 106.076C135.522 106.076 135.75 106.034 135.984 105.95C136.226 105.866 136.455 105.749 136.67 105.6C136.884 105.451 137.066 105.278 137.216 105.082C137.365 104.877 137.463 104.662 137.51 104.438Z" fill="white"/>
<path d="M126.956 107.14C126.406 107.14 125.902 107.042 125.444 106.846C124.996 106.641 124.604 106.365 124.268 106.02C123.942 105.665 123.685 105.259 123.498 104.802C123.321 104.345 123.232 103.859 123.232 103.346C123.232 102.655 123.391 102.025 123.708 101.456C124.026 100.887 124.464 100.429 125.024 100.084C125.594 99.7386 126.242 99.5659 126.97 99.5659C127.708 99.5659 128.347 99.7433 128.888 100.098C129.439 100.443 129.864 100.901 130.162 101.47C130.47 102.03 130.624 102.637 130.624 103.29C130.624 103.383 130.62 103.477 130.61 103.57C130.61 103.654 130.606 103.719 130.596 103.766H124.534C124.572 104.242 124.702 104.667 124.926 105.04C125.16 105.404 125.458 105.693 125.822 105.908C126.186 106.113 126.578 106.216 126.998 106.216C127.446 106.216 127.866 106.104 128.258 105.88C128.66 105.656 128.935 105.362 129.084 104.998L130.148 105.292C129.99 105.647 129.752 105.964 129.434 106.244C129.126 106.524 128.758 106.743 128.328 106.902C127.908 107.061 127.451 107.14 126.956 107.14ZM124.492 102.912H129.476C129.439 102.436 129.304 102.016 129.07 101.652C128.837 101.288 128.538 101.003 128.174 100.798C127.81 100.593 127.409 100.49 126.97 100.49C126.541 100.49 126.144 100.593 125.78 100.798C125.416 101.003 125.118 101.288 124.884 101.652C124.66 102.016 124.53 102.436 124.492 102.912Z" fill="white"/>
<path d="M118.521 107L115.651 99.6919H116.939L119.235 105.824L121.531 99.6919H122.735L119.865 107H118.521Z" fill="white"/>
<path d="M113.195 107V99.692H114.427V107H113.195ZM113.195 98.32V96.78H114.427V98.32H113.195Z" fill="white"/>
<path d="M108.158 107.14C107.607 107.14 107.103 107.042 106.646 106.846C106.198 106.641 105.806 106.365 105.47 106.02C105.143 105.665 104.886 105.259 104.7 104.802C104.522 104.345 104.434 103.859 104.434 103.346C104.434 102.655 104.592 102.025 104.91 101.456C105.227 100.887 105.666 100.429 106.226 100.084C106.795 99.7386 107.444 99.5659 108.172 99.5659C108.909 99.5659 109.548 99.7433 110.09 100.098C110.64 100.443 111.065 100.901 111.364 101.47C111.672 102.03 111.826 102.637 111.826 103.29C111.826 103.383 111.821 103.477 111.812 103.57C111.812 103.654 111.807 103.719 111.798 103.766H105.736C105.773 104.242 105.904 104.667 106.128 105.04C106.361 105.404 106.66 105.693 107.024 105.908C107.388 106.113 107.78 106.216 108.2 106.216C108.648 106.216 109.068 106.104 109.46 105.88C109.861 105.656 110.136 105.362 110.286 104.998L111.35 105.292C111.191 105.647 110.953 105.964 110.636 106.244C110.328 106.524 109.959 106.743 109.53 106.902C109.11 107.061 108.652 107.14 108.158 107.14ZM105.694 102.912H110.678C110.64 102.436 110.505 102.016 110.272 101.652C110.038 101.288 109.74 101.003 109.376 100.798C109.012 100.593 108.61 100.49 108.172 100.49C107.742 100.49 107.346 100.593 106.982 100.798C106.618 101.003 106.319 101.288 106.086 101.652C105.862 102.016 105.731 102.436 105.694 102.912Z" fill="white"/>
<path d="M100.474 107.14C99.9233 107.14 99.4193 107.042 98.962 106.846C98.514 106.641 98.122 106.361 97.786 106.006C97.4593 105.651 97.2027 105.245 97.016 104.788C96.8387 104.331 96.75 103.845 96.75 103.332C96.75 102.641 96.904 102.011 97.212 101.442C97.52 100.873 97.954 100.42 98.514 100.084C99.074 99.7386 99.7227 99.5659 100.46 99.5659C101.179 99.5659 101.804 99.7293 102.336 100.056C102.877 100.373 103.279 100.803 103.54 101.344L102.336 101.722C102.149 101.377 101.888 101.111 101.552 100.924C101.216 100.728 100.843 100.63 100.432 100.63C99.984 100.63 99.5733 100.747 99.2 100.98C98.836 101.213 98.5467 101.535 98.332 101.946C98.1173 102.347 98.01 102.809 98.01 103.332C98.01 103.845 98.1173 104.312 98.332 104.732C98.556 105.143 98.85 105.469 99.214 105.712C99.5873 105.955 99.998 106.076 100.446 106.076C100.735 106.076 101.011 106.025 101.272 105.922C101.543 105.819 101.776 105.684 101.972 105.516C102.177 105.339 102.317 105.147 102.392 104.942L103.596 105.306C103.447 105.661 103.218 105.978 102.91 106.258C102.611 106.529 102.252 106.743 101.832 106.902C101.421 107.061 100.969 107.14 100.474 107.14Z" fill="white"/>
<path d="M92.2025 107.14C91.6518 107.14 91.1479 107.042 90.6905 106.846C90.2425 106.641 89.8505 106.365 89.5145 106.02C89.1879 105.665 88.9312 105.259 88.7445 104.802C88.5672 104.345 88.4785 103.859 88.4785 103.346C88.4785 102.655 88.6372 102.025 88.9545 101.456C89.2719 100.887 89.7105 100.429 90.2705 100.084C90.8398 99.7386 91.4885 99.5659 92.2165 99.5659C92.9538 99.5659 93.5932 99.7433 94.1345 100.098C94.6852 100.443 95.1098 100.901 95.4085 101.47C95.7165 102.03 95.8705 102.637 95.8705 103.29C95.8705 103.383 95.8659 103.477 95.8565 103.57C95.8565 103.654 95.8519 103.719 95.8425 103.766H89.7805C89.8179 104.242 89.9485 104.667 90.1725 105.04C90.4058 105.404 90.7045 105.693 91.0685 105.908C91.4325 106.113 91.8245 106.216 92.2445 106.216C92.6925 106.216 93.1125 106.104 93.5045 105.88C93.9058 105.656 94.1812 105.362 94.3305 104.998L95.3945 105.292C95.2358 105.647 94.9979 105.964 94.6805 106.244C94.3725 106.524 94.0038 106.743 93.5745 106.902C93.1545 107.061 92.6972 107.14 92.2025 107.14ZM89.7385 102.912H94.7225C94.6852 102.436 94.5499 102.016 94.3165 101.652C94.0832 101.288 93.7845 101.003 93.4205 100.798C93.0565 100.593 92.6552 100.49 92.2165 100.49C91.7872 100.49 91.3905 100.593 91.0265 100.798C90.6625 101.003 90.3638 101.288 90.1305 101.652C89.9065 102.016 89.7759 102.436 89.7385 102.912Z" fill="white"/>
<path d="M87.9245 100.77C87.3085 100.779 86.7625 100.938 86.2865 101.246C85.8199 101.545 85.4885 101.96 85.2925 102.492V107H84.0605V99.692H85.2085V101.386C85.4605 100.882 85.7919 100.476 86.2025 100.168C86.6225 99.8507 87.0612 99.6733 87.5185 99.636C87.6119 99.636 87.6912 99.636 87.7565 99.636C87.8219 99.636 87.8779 99.6407 87.9245 99.65V100.77Z" fill="white"/>
<path d="M76.1894 107.14C75.5827 107.14 75.0134 107.042 74.4814 106.846C73.9494 106.641 73.492 106.337 73.1094 105.936L73.5854 105.068C74.0054 105.46 74.4254 105.74 74.8454 105.908C75.2654 106.076 75.6947 106.16 76.1334 106.16C76.6374 106.16 77.048 106.067 77.3654 105.88C77.6827 105.684 77.8414 105.399 77.8414 105.026C77.8414 104.755 77.7574 104.555 77.5894 104.424C77.4307 104.293 77.202 104.186 76.9034 104.102C76.6047 104.009 76.25 103.906 75.8394 103.794C75.3354 103.645 74.9107 103.486 74.5654 103.318C74.22 103.15 73.9587 102.94 73.7814 102.688C73.604 102.436 73.5154 102.119 73.5154 101.736C73.5154 101.269 73.6367 100.877 73.8794 100.56C74.122 100.233 74.4534 99.9859 74.8734 99.8179C75.3027 99.6499 75.788 99.5659 76.3294 99.5659C76.8707 99.5659 77.3607 99.6499 77.7994 99.8179C78.238 99.9859 78.616 100.233 78.9334 100.56L78.3734 101.414C78.084 101.115 77.7667 100.896 77.4214 100.756C77.076 100.607 76.6887 100.532 76.2594 100.532C76.0074 100.532 75.76 100.565 75.5174 100.63C75.2747 100.686 75.074 100.793 74.9154 100.952C74.7567 101.101 74.6774 101.316 74.6774 101.596C74.6774 101.829 74.738 102.016 74.8594 102.156C74.99 102.287 75.1767 102.399 75.4194 102.492C75.6714 102.585 75.9747 102.688 76.3294 102.8C76.88 102.959 77.356 103.117 77.7574 103.276C78.168 103.435 78.4854 103.64 78.7094 103.892C78.9334 104.144 79.0454 104.494 79.0454 104.942C79.0454 105.633 78.784 106.174 78.2614 106.566C77.7387 106.949 77.048 107.14 76.1894 107.14Z" fill="white"/>
<path d="M68.6459 107.14C68.0952 107.14 67.5912 107.042 67.1339 106.846C66.6859 106.641 66.2939 106.365 65.9579 106.02C65.6312 105.665 65.3745 105.259 65.1879 104.802C65.0105 104.345 64.9219 103.859 64.9219 103.346C64.9219 102.655 65.0805 102.025 65.3979 101.456C65.7152 100.887 66.1539 100.429 66.7139 100.084C67.2832 99.7386 67.9319 99.5659 68.6599 99.5659C69.3972 99.5659 70.0365 99.7433 70.5779 100.098C71.1285 100.443 71.5532 100.901 71.8519 101.47C72.1599 102.03 72.3139 102.637 72.3139 103.29C72.3139 103.383 72.3092 103.477 72.2999 103.57C72.2999 103.654 72.2952 103.719 72.2859 103.766H66.2239C66.2612 104.242 66.3919 104.667 66.6159 105.04C66.8492 105.404 67.1479 105.693 67.5119 105.908C67.8759 106.113 68.2679 106.216 68.6879 106.216C69.1359 106.216 69.5559 106.104 69.9479 105.88C70.3492 105.656 70.6245 105.362 70.7739 104.998L71.8379 105.292C71.6792 105.647 71.4412 105.964 71.1239 106.244C70.8159 106.524 70.4472 106.743 70.0179 106.902C69.5979 107.061 69.1405 107.14 68.6459 107.14ZM66.1819 102.912H71.1659C71.1285 102.436 70.9932 102.016 70.7599 101.652C70.5265 101.288 70.2279 101.003 69.8639 100.798C69.4999 100.593 69.0985 100.49 68.6599 100.49C68.2305 100.49 67.8339 100.593 67.4699 100.798C67.1059 101.003 66.8072 101.288 66.5739 101.652C66.3499 102.016 66.2192 102.436 66.1819 102.912Z" fill="white"/>
<path d="M63.4965 107H62.2645V102.912C62.2645 102.147 62.1385 101.582 61.8865 101.218C61.6438 100.854 61.2799 100.672 60.7945 100.672C60.2999 100.672 59.8518 100.854 59.4505 101.218C59.0492 101.573 58.7645 102.035 58.5965 102.604V107H57.3645V102.912C57.3645 102.137 57.2432 101.573 57.0005 101.218C56.7578 100.854 56.3938 100.672 55.9085 100.672C55.4232 100.672 54.9752 100.849 54.5645 101.204C54.1632 101.549 53.8785 102.011 53.7105 102.59V107H52.4785V99.6919H53.5985V101.26C53.8972 100.719 54.2845 100.303 54.7605 100.014C55.2365 99.7153 55.7732 99.5659 56.3705 99.5659C56.9772 99.5659 57.4625 99.7339 57.8265 100.07C58.1905 100.397 58.4145 100.821 58.4985 101.344C58.8252 100.765 59.2218 100.327 59.6885 100.028C60.1552 99.7199 60.6872 99.5659 61.2845 99.5659C61.7045 99.5659 62.0545 99.6453 62.3345 99.8039C62.6239 99.9533 62.8525 100.168 63.0205 100.448C63.1885 100.719 63.3099 101.041 63.3845 101.414C63.4592 101.787 63.4965 102.193 63.4965 102.632V107Z" fill="white"/>
<path d="M44 104.074V99.6919H45.232V103.836C45.232 104.583 45.3627 105.143 45.624 105.516C45.8853 105.889 46.2727 106.076 46.786 106.076C47.122 106.076 47.444 106.006 47.752 105.866C48.0693 105.717 48.354 105.507 48.606 105.236C48.858 104.965 49.054 104.643 49.194 104.27V99.6919H50.426V105.6C50.426 105.749 50.454 105.861 50.51 105.936C50.5753 106.001 50.678 106.039 50.818 106.048V107C50.678 107.019 50.566 107.028 50.482 107.028C50.4073 107.037 50.3327 107.042 50.258 107.042C50.0247 107.042 49.824 106.972 49.656 106.832C49.488 106.683 49.3993 106.501 49.39 106.286L49.362 105.432C49.0447 105.973 48.6153 106.393 48.074 106.692C47.542 106.991 46.9587 107.14 46.324 107.14C45.5587 107.14 44.98 106.883 44.588 106.37C44.196 105.847 44 105.082 44 104.074Z" fill="white"/>
<path d="M39.7402 107.14C39.1335 107.14 38.5642 107.042 38.0322 106.846C37.5002 106.641 37.0428 106.337 36.6602 105.936L37.1362 105.068C37.5562 105.46 37.9762 105.74 38.3962 105.908C38.8162 106.076 39.2455 106.16 39.6842 106.16C40.1882 106.16 40.5988 106.067 40.9162 105.88C41.2335 105.684 41.3922 105.399 41.3922 105.026C41.3922 104.755 41.3082 104.555 41.1402 104.424C40.9815 104.293 40.7528 104.186 40.4542 104.102C40.1555 104.009 39.8008 103.906 39.3902 103.794C38.8862 103.645 38.4615 103.486 38.1162 103.318C37.7708 103.15 37.5095 102.94 37.3322 102.688C37.1548 102.436 37.0662 102.119 37.0662 101.736C37.0662 101.269 37.1875 100.877 37.4302 100.56C37.6728 100.233 38.0042 99.9859 38.4242 99.8179C38.8535 99.6499 39.3388 99.5659 39.8802 99.5659C40.4215 99.5659 40.9115 99.6499 41.3502 99.8179C41.7888 99.9859 42.1668 100.233 42.4842 100.56L41.9242 101.414C41.6348 101.115 41.3175 100.896 40.9722 100.756C40.6268 100.607 40.2395 100.532 39.8102 100.532C39.5582 100.532 39.3108 100.565 39.0682 100.63C38.8255 100.686 38.6248 100.793 38.4662 100.952C38.3075 101.101 38.2282 101.316 38.2282 101.596C38.2282 101.829 38.2888 102.016 38.4102 102.156C38.5408 102.287 38.7275 102.399 38.9702 102.492C39.2222 102.585 39.5255 102.688 39.8802 102.8C40.4308 102.959 40.9068 103.117 41.3082 103.276C41.7188 103.435 42.0362 103.64 42.2602 103.892C42.4842 104.144 42.5962 104.494 42.5962 104.942C42.5962 105.633 42.3348 106.174 41.8122 106.566C41.2895 106.949 40.5988 107.14 39.7402 107.14Z" fill="white"/>
<path d="M32.1967 107.14C31.646 107.14 31.142 107.042 30.6847 106.846C30.2367 106.641 29.8447 106.365 29.5087 106.02C29.182 105.665 28.9253 105.259 28.7387 104.802C28.5613 104.345 28.4727 103.859 28.4727 103.346C28.4727 102.655 28.6313 102.025 28.9487 101.456C29.266 100.887 29.7047 100.429 30.2647 100.084C30.834 99.7386 31.4827 99.5659 32.2107 99.5659C32.948 99.5659 33.5873 99.7433 34.1287 100.098C34.6793 100.443 35.104 100.901 35.4027 101.47C35.7107 102.03 35.8647 102.637 35.8647 103.29C35.8647 103.383 35.86 103.477 35.8507 103.57C35.8507 103.654 35.846 103.719 35.8367 103.766H29.7747C29.812 104.242 29.9427 104.667 30.1667 105.04C30.4 105.404 30.6987 105.693 31.0627 105.908C31.4267 106.113 31.8187 106.216 32.2387 106.216C32.6867 106.216 33.1067 106.104 33.4987 105.88C33.9 105.656 34.1753 105.362 34.3247 104.998L35.3887 105.292C35.23 105.647 34.992 105.964 34.6747 106.244C34.3667 106.524 33.998 106.743 33.5687 106.902C33.1487 107.061 32.6913 107.14 32.1967 107.14ZM29.7327 102.912H34.7167C34.6793 102.436 34.544 102.016 34.3107 101.652C34.0773 101.288 33.7787 101.003 33.4147 100.798C33.0507 100.593 32.6493 100.49 32.2107 100.49C31.7813 100.49 31.3847 100.593 31.0207 100.798C30.6567 101.003 30.358 101.288 30.1247 101.652C29.9007 102.016 29.77 102.436 29.7327 102.912Z" fill="white"/>
<path d="M20.1904 107V97.0601H24.4464C24.8851 97.0601 25.2864 97.1534 25.6504 97.3401C26.0144 97.5174 26.3318 97.7601 26.6024 98.0681C26.8731 98.3667 27.0831 98.7074 27.2324 99.0901C27.3818 99.4634 27.4564 99.8461 27.4564 100.238C27.4564 100.695 27.3678 101.129 27.1904 101.54C27.0224 101.951 26.7798 102.301 26.4624 102.59C26.1544 102.879 25.7904 103.08 25.3704 103.192L27.7784 107H26.3504L24.0824 103.43H21.4504V107H20.1904ZM21.4504 102.31H24.4604C24.8058 102.31 25.1044 102.217 25.3564 102.03C25.6178 101.834 25.8184 101.577 25.9584 101.26C26.1078 100.943 26.1824 100.602 26.1824 100.238C26.1824 99.8647 26.0984 99.5241 25.9304 99.2161C25.7624 98.8987 25.5431 98.6467 25.2724 98.4601C25.0018 98.2734 24.7031 98.1801 24.3764 98.1801H21.4504V102.31Z" fill="white"/>
</g>
<defs>
<filter id="filter0_b_134_4042" x="-22" y="-22" width="235" height="173" filterUnits="userSpaceOnUse" color-interpolation-filters="sRGB">
<feFlood flood-opacity="0" result="BackgroundImageFix"/>
<feGaussianBlur in="BackgroundImageFix" stdDeviation="11"/>
<feComposite in2="SourceAlpha" operator="in" result="effect1_backgroundBlur_134_4042"/>
<feBlend mode="normal" in="SourceGraphic" in2="effect1_backgroundBlur_134_4042" result="shape"/>
</filter>
</defs>
</svg>
