<svg width="191" height="129" viewBox="0 0 191 129" fill="none" xmlns="http://www.w3.org/2000/svg">
<g filter="url(#filter0_b_134_4102)">
<rect width="191" height="129" rx="12" fill="black" fill-opacity="0.15"/>
<mask id="mask0_134_4102" style="mask-type:alpha" maskUnits="userSpaceOnUse" x="19" y="22" width="18" height="18">
<path d="M19 22H37V40H19V22Z" fill="#D9D9D9"/>
</mask>
<g mask="url(#mask0_134_4102)">
<path d="M31 37V31.75H34V37H31ZM26.5 37V25H29.5V37H26.5ZM22 37V28.75H25V37H22Z" fill="white"/>
</g>
<path d="M140 31.4999C140 33.489 139.21 35.3967 137.803 36.8032C136.397 38.2097 134.489 38.9999 132.5 38.9999C130.511 38.9999 128.603 38.2097 127.197 36.8032C125.79 35.3967 125 33.489 125 31.4999H126.246C126.246 33.1587 126.905 34.7495 128.078 35.9224C129.25 37.0953 130.841 37.7542 132.5 37.7542C134.159 37.7542 135.75 37.0953 136.922 35.9224C138.095 34.7495 138.754 33.1587 138.754 31.4999H140Z" fill="#C4CACD" fill-opacity="0.8"/>
<path d="M132.862 24.0086C134.849 24.1046 136.716 24.9859 138.053 26.4586C139.39 27.9314 140.087 29.8749 139.991 31.8617L138.747 31.8016C138.827 30.1448 138.246 28.5241 137.131 27.2959C136.016 26.0678 134.459 25.3328 132.802 25.2528L132.862 24.0086Z" fill="white" fill-opacity="0.8"/>
<path d="M125 31.4999C125 30.3572 125.262 29.2295 125.764 28.2031C126.266 27.1767 126.996 26.2786 127.899 25.5775L128.663 26.5612C127.911 27.1458 127.302 27.8947 126.883 28.7507C126.464 29.6066 126.246 30.547 126.246 31.4999H125Z" fill="white" fill-opacity="0.8"/>
<path d="M127.899 25.5775C129.384 24.4236 131.248 23.8699 133.122 24.0259L133.019 25.2673C131.456 25.1372 129.902 25.599 128.663 26.5612L127.899 25.5775Z" fill="#C4CACD" fill-opacity="0.8"/>
<mask id="mask1_134_4102" style="mask-type:alpha" maskUnits="userSpaceOnUse" x="154" y="22" width="18" height="18">
<path d="M154 22H172V40H154V22Z" fill="#D9D9D9"/>
</mask>
<g mask="url(#mask1_134_4102)">
<path fill-rule="evenodd" clip-rule="evenodd" d="M160.075 37.9094C160.987 38.3031 161.963 38.5 163 38.5C164.038 38.5 165.012 38.3031 165.925 37.9094C166.838 37.5156 167.631 36.9813 168.306 36.3063C168.981 35.6313 169.516 34.8375 169.909 33.925C170.303 33.0125 170.5 32.0375 170.5 31C170.5 29.9625 170.303 28.9875 169.909 28.075C169.516 27.1625 168.981 26.3687 168.306 25.6937C167.631 25.0187 166.838 24.4844 165.925 24.0906C165.012 23.6969 164.038 23.5 163 23.5C161.963 23.5 160.987 23.6969 160.075 24.0906C159.162 24.4844 158.369 25.0187 157.694 25.6937C157.019 26.3687 156.484 27.1625 156.091 28.075C155.697 28.9875 155.5 29.9625 155.5 31C155.5 32.0375 155.697 33.0125 156.091 33.925C156.484 34.8375 157.019 35.6313 157.694 36.3063C158.369 36.9813 159.162 37.5156 160.075 37.9094ZM167.256 35.2563C166.094 36.4188 164.675 37 163 37C161.325 37 159.906 36.4188 158.744 35.2563C157.581 34.0938 157 32.675 157 31C157 29.325 157.581 27.9062 158.744 26.7438C159.906 25.5813 161.325 25 163 25C164.675 25 166.094 25.5813 167.256 26.7438C168.419 27.9062 169 29.325 169 31C169 32.675 168.419 34.0938 167.256 35.2563Z" fill="#C4CACD" fill-opacity="0.8"/>
<path fill-rule="evenodd" clip-rule="evenodd" d="M163 37C164.675 37 166.094 36.4188 167.256 35.2563C168.419 34.0938 169 32.675 169 31C169 29.325 168.419 27.9062 167.256 26.7438C166.094 25.5813 164.675 25 163 25C161.325 25 159.906 25.5813 158.744 26.7438C157.581 27.9062 157 29.325 157 31C157 32.675 157.581 34.0938 158.744 35.2563C159.906 36.4188 161.325 37 163 37ZM163.75 34.75H162.25V31.75H159.25V30.25H162.25V27.25H163.75V30.25H166.75V31.75H163.75V34.75Z" fill="#C4CACD" fill-opacity="0.8"/>
</g>
<path d="M82.2532 72.33H77.3392V77.374H73.9072V72.33H68.9932V69.158H73.9072V64.114H77.3392V69.158H82.2532V72.33Z" fill="white"/>
<path d="M51.4307 70.2759C51.4307 67.2772 51.968 64.9286 53.0427 63.2299C54.1347 61.5312 55.9373 60.6819 58.4507 60.6819C60.964 60.6819 62.758 61.5312 63.8327 63.2299C64.9247 64.9286 65.4707 67.2772 65.4707 70.2759C65.4707 73.2919 64.9247 75.6579 63.8327 77.3739C62.758 79.0899 60.964 79.9479 58.4507 79.9479C55.9373 79.9479 54.1347 79.0899 53.0427 77.3739C51.968 75.6579 51.4307 73.2919 51.4307 70.2759ZM61.8827 70.2759C61.8827 68.9932 61.796 67.9186 61.6227 67.0519C61.4667 66.1679 61.1373 65.4486 60.6347 64.8939C60.1493 64.3392 59.4213 64.0619 58.4507 64.0619C57.48 64.0619 56.7433 64.3392 56.2407 64.8939C55.7553 65.4486 55.426 66.1679 55.2527 67.0519C55.0967 67.9186 55.0187 68.9932 55.0187 70.2759C55.0187 71.5932 55.0967 72.7026 55.2527 73.6039C55.4087 74.4879 55.738 75.2072 56.2407 75.7619C56.7433 76.2992 57.48 76.5679 58.4507 76.5679C59.4213 76.5679 60.158 76.2992 60.6607 75.7619C61.1633 75.2072 61.4927 74.4879 61.6487 73.6039C61.8047 72.7026 61.8827 71.5932 61.8827 70.2759Z" fill="white"/>
<path d="M34.6221 70.2759C34.6221 67.2772 35.1594 64.9286 36.2341 63.2299C37.3261 61.5312 39.1287 60.6819 41.6421 60.6819C44.1554 60.6819 45.9494 61.5312 47.0241 63.2299C48.1161 64.9286 48.6621 67.2772 48.6621 70.2759C48.6621 73.2919 48.1161 75.6579 47.0241 77.3739C45.9494 79.0899 44.1554 79.9479 41.6421 79.9479C39.1287 79.9479 37.3261 79.0899 36.2341 77.3739C35.1594 75.6579 34.6221 73.2919 34.6221 70.2759ZM45.0741 70.2759C45.0741 68.9932 44.9874 67.9186 44.8141 67.0519C44.6581 66.1679 44.3287 65.4486 43.8261 64.8939C43.3407 64.3392 42.6127 64.0619 41.6421 64.0619C40.6714 64.0619 39.9347 64.3392 39.4321 64.8939C38.9467 65.4486 38.6174 66.1679 38.4441 67.0519C38.2881 67.9186 38.2101 68.9932 38.2101 70.2759C38.2101 71.5932 38.2881 72.7026 38.4441 73.6039C38.6001 74.4879 38.9294 75.2072 39.4321 75.7619C39.9347 76.2992 40.6714 76.5679 41.6421 76.5679C42.6127 76.5679 43.3494 76.2992 43.8521 75.7619C44.3547 75.2072 44.6841 74.4879 44.8401 73.6039C44.9961 72.7026 45.0741 71.5932 45.0741 70.2759Z" fill="white"/>
<path d="M32.4422 63.8019L25.5262 79.9999H21.8342L28.8022 64.2179H19.9102V61.0979H32.4422V63.8019Z" fill="white"/>
<path d="M152.463 103.36C152.463 102.669 152.603 102.039 152.883 101.47C153.172 100.891 153.564 100.429 154.059 100.084C154.563 99.7387 155.137 99.566 155.781 99.566C156.369 99.566 156.896 99.72 157.363 100.028C157.83 100.336 158.194 100.709 158.455 101.148V96.78H159.687V105.6C159.687 105.749 159.715 105.861 159.771 105.936C159.836 106.001 159.939 106.039 160.079 106.048V107C159.846 107.037 159.664 107.056 159.533 107.056C159.29 107.056 159.076 106.972 158.889 106.804C158.712 106.636 158.623 106.449 158.623 106.244V105.628C158.334 106.095 157.946 106.463 157.461 106.734C156.976 107.005 156.472 107.14 155.949 107.14C155.445 107.14 154.978 107.042 154.549 106.846C154.129 106.641 153.76 106.361 153.443 106.006C153.135 105.651 152.892 105.25 152.715 104.802C152.547 104.345 152.463 103.864 152.463 103.36ZM158.455 104.438V102.338C158.343 102.021 158.161 101.736 157.909 101.484C157.657 101.223 157.372 101.017 157.055 100.868C156.747 100.709 156.439 100.63 156.131 100.63C155.767 100.63 155.436 100.709 155.137 100.868C154.848 101.017 154.596 101.223 154.381 101.484C154.176 101.736 154.017 102.025 153.905 102.352C153.793 102.679 153.737 103.019 153.737 103.374C153.737 103.738 153.798 104.083 153.919 104.41C154.05 104.737 154.227 105.026 154.451 105.278C154.684 105.53 154.95 105.726 155.249 105.866C155.557 106.006 155.888 106.076 156.243 106.076C156.467 106.076 156.696 106.034 156.929 105.95C157.172 105.866 157.4 105.749 157.615 105.6C157.83 105.451 158.012 105.278 158.161 105.082C158.31 104.877 158.408 104.662 158.455 104.438Z" fill="white"/>
<path d="M147.902 107.14C147.351 107.14 146.847 107.042 146.39 106.846C145.942 106.641 145.55 106.365 145.214 106.02C144.887 105.665 144.63 105.259 144.444 104.802C144.266 104.345 144.178 103.859 144.178 103.346C144.178 102.655 144.336 102.025 144.654 101.456C144.971 100.887 145.41 100.429 145.97 100.084C146.539 99.7386 147.188 99.5659 147.916 99.5659C148.653 99.5659 149.292 99.7433 149.834 100.098C150.384 100.443 150.809 100.901 151.108 101.47C151.416 102.03 151.57 102.637 151.57 103.29C151.57 103.383 151.565 103.477 151.556 103.57C151.556 103.654 151.551 103.719 151.542 103.766H145.48C145.517 104.242 145.648 104.667 145.872 105.04C146.105 105.404 146.404 105.693 146.768 105.908C147.132 106.113 147.524 106.216 147.944 106.216C148.392 106.216 148.812 106.104 149.204 105.88C149.605 105.656 149.88 105.362 150.03 104.998L151.094 105.292C150.935 105.647 150.697 105.964 150.38 106.244C150.072 106.524 149.703 106.743 149.274 106.902C148.854 107.061 148.396 107.14 147.902 107.14ZM145.438 102.912H150.422C150.384 102.436 150.249 102.016 150.016 101.652C149.782 101.288 149.484 101.003 149.12 100.798C148.756 100.593 148.354 100.49 147.916 100.49C147.486 100.49 147.09 100.593 146.726 100.798C146.362 101.003 146.063 101.288 145.83 101.652C145.606 102.016 145.475 102.436 145.438 102.912Z" fill="white"/>
<path d="M143.621 106.636C143.519 106.683 143.379 106.743 143.201 106.818C143.024 106.893 142.819 106.958 142.585 107.014C142.352 107.07 142.105 107.098 141.843 107.098C141.545 107.098 141.269 107.047 141.017 106.944C140.765 106.832 140.565 106.664 140.415 106.44C140.266 106.207 140.191 105.917 140.191 105.572V100.658H139.197V99.6921H140.191V97.2561H141.423V99.6921H143.061V100.658H141.423V105.194C141.442 105.455 141.531 105.651 141.689 105.782C141.848 105.903 142.035 105.964 142.249 105.964C142.492 105.964 142.716 105.922 142.921 105.838C143.127 105.754 143.262 105.693 143.327 105.656L143.621 106.636Z" fill="white"/>
<path d="M135.324 107.14C134.773 107.14 134.269 107.042 133.812 106.846C133.364 106.641 132.972 106.361 132.636 106.006C132.309 105.651 132.052 105.245 131.866 104.788C131.688 104.331 131.6 103.845 131.6 103.332C131.6 102.641 131.754 102.011 132.062 101.442C132.37 100.873 132.804 100.42 133.364 100.084C133.924 99.7386 134.572 99.5659 135.31 99.5659C136.028 99.5659 136.654 99.7293 137.186 100.056C137.727 100.373 138.128 100.803 138.39 101.344L137.186 101.722C136.999 101.377 136.738 101.111 136.402 100.924C136.066 100.728 135.692 100.63 135.282 100.63C134.834 100.63 134.423 100.747 134.05 100.98C133.686 101.213 133.396 101.535 133.182 101.946C132.967 102.347 132.86 102.809 132.86 103.332C132.86 103.845 132.967 104.312 133.182 104.732C133.406 105.143 133.7 105.469 134.064 105.712C134.437 105.955 134.848 106.076 135.296 106.076C135.585 106.076 135.86 106.025 136.122 105.922C136.392 105.819 136.626 105.684 136.822 105.516C137.027 105.339 137.167 105.147 137.242 104.942L138.446 105.306C138.296 105.661 138.068 105.978 137.76 106.258C137.461 106.529 137.102 106.743 136.682 106.902C136.271 107.061 135.818 107.14 135.324 107.14Z" fill="white"/>
<path d="M123.611 104.074V99.6919H124.843V103.836C124.843 104.583 124.974 105.143 125.235 105.516C125.497 105.889 125.884 106.076 126.397 106.076C126.733 106.076 127.055 106.006 127.363 105.866C127.681 105.717 127.965 105.507 128.217 105.236C128.469 104.965 128.665 104.643 128.805 104.27V99.6919H130.037V105.6C130.037 105.749 130.065 105.861 130.121 105.936C130.187 106.001 130.289 106.039 130.429 106.048V107C130.289 107.019 130.177 107.028 130.093 107.028C130.019 107.037 129.944 107.042 129.869 107.042C129.636 107.042 129.435 106.972 129.267 106.832C129.099 106.683 129.011 106.501 129.001 106.286L128.973 105.432C128.656 105.973 128.227 106.393 127.685 106.692C127.153 106.991 126.57 107.14 125.935 107.14C125.17 107.14 124.591 106.883 124.199 106.37C123.807 105.847 123.611 105.082 123.611 104.074Z" fill="white"/>
<path d="M114.4 103.36C114.4 102.669 114.54 102.039 114.82 101.47C115.11 100.891 115.502 100.429 115.996 100.084C116.5 99.7387 117.074 99.566 117.718 99.566C118.306 99.566 118.834 99.72 119.3 100.028C119.767 100.336 120.131 100.709 120.392 101.148V96.78H121.624V105.6C121.624 105.749 121.652 105.861 121.708 105.936C121.774 106.001 121.876 106.039 122.016 106.048V107C121.783 107.037 121.601 107.056 121.47 107.056C121.228 107.056 121.013 106.972 120.826 106.804C120.649 106.636 120.56 106.449 120.56 106.244V105.628C120.271 106.095 119.884 106.463 119.398 106.734C118.913 107.005 118.409 107.14 117.886 107.14C117.382 107.14 116.916 107.042 116.486 106.846C116.066 106.641 115.698 106.361 115.38 106.006C115.072 105.651 114.83 105.25 114.652 104.802C114.484 104.345 114.4 103.864 114.4 103.36ZM120.392 104.438V102.338C120.28 102.021 120.098 101.736 119.846 101.484C119.594 101.223 119.31 101.017 118.992 100.868C118.684 100.709 118.376 100.63 118.068 100.63C117.704 100.63 117.373 100.709 117.074 100.868C116.785 101.017 116.533 101.223 116.318 101.484C116.113 101.736 115.954 102.025 115.842 102.352C115.73 102.679 115.674 103.019 115.674 103.374C115.674 103.738 115.735 104.083 115.856 104.41C115.987 104.737 116.164 105.026 116.388 105.278C116.622 105.53 116.888 105.726 117.186 105.866C117.494 106.006 117.826 106.076 118.18 106.076C118.404 106.076 118.633 106.034 118.866 105.95C119.109 105.866 119.338 105.749 119.552 105.6C119.767 105.451 119.949 105.278 120.098 105.082C120.248 104.877 120.346 104.662 120.392 104.438Z" fill="white"/>
<path d="M112.961 107H111.729V102.912C111.729 102.137 111.608 101.573 111.365 101.218C111.132 100.854 110.772 100.672 110.287 100.672C109.951 100.672 109.615 100.756 109.279 100.924C108.952 101.092 108.658 101.321 108.397 101.61C108.145 101.89 107.963 102.217 107.851 102.59V107H106.619V99.6919H107.739V101.26C107.935 100.915 108.187 100.616 108.495 100.364C108.803 100.112 109.153 99.9159 109.545 99.7759C109.937 99.6359 110.348 99.5659 110.777 99.5659C111.197 99.5659 111.547 99.6453 111.827 99.8039C112.116 99.9533 112.34 100.168 112.499 100.448C112.667 100.719 112.784 101.041 112.849 101.414C112.924 101.787 112.961 102.193 112.961 102.632V107Z" fill="white"/>
<path d="M101.43 107.14C100.879 107.14 100.38 107.042 99.9321 106.846C99.4841 106.641 99.0967 106.365 98.7701 106.02C98.4434 105.665 98.1914 105.259 98.014 104.802C97.8367 104.345 97.748 103.864 97.748 103.36C97.748 102.847 97.8367 102.361 98.014 101.904C98.1914 101.447 98.4434 101.045 98.7701 100.7C99.0967 100.345 99.4841 100.07 99.9321 99.8739C100.389 99.6686 100.889 99.5659 101.43 99.5659C101.981 99.5659 102.48 99.6686 102.928 99.8739C103.376 100.07 103.763 100.345 104.09 100.7C104.426 101.045 104.683 101.447 104.86 101.904C105.037 102.361 105.126 102.847 105.126 103.36C105.126 103.864 105.037 104.345 104.86 104.802C104.683 105.259 104.431 105.665 104.104 106.02C103.777 106.365 103.385 106.641 102.928 106.846C102.48 107.042 101.981 107.14 101.43 107.14ZM99.008 103.374C99.008 103.878 99.1154 104.335 99.33 104.746C99.554 105.157 99.8481 105.483 100.212 105.726C100.576 105.959 100.982 106.076 101.43 106.076C101.878 106.076 102.284 105.955 102.648 105.712C103.021 105.469 103.315 105.143 103.53 104.732C103.754 104.312 103.866 103.85 103.866 103.346C103.866 102.842 103.754 102.385 103.53 101.974C103.315 101.563 103.021 101.237 102.648 100.994C102.284 100.751 101.878 100.63 101.43 100.63C100.982 100.63 100.576 100.756 100.212 101.008C99.8481 101.251 99.554 101.577 99.33 101.988C99.1154 102.399 99.008 102.861 99.008 103.374Z" fill="white"/>
<path d="M93.7885 107.14C93.2378 107.14 92.7338 107.042 92.2765 106.846C91.8285 106.641 91.4365 106.361 91.1005 106.006C90.7738 105.651 90.5171 105.245 90.3305 104.788C90.1531 104.331 90.0645 103.845 90.0645 103.332C90.0645 102.641 90.2185 102.011 90.5265 101.442C90.8345 100.873 91.2685 100.42 91.8285 100.084C92.3885 99.7386 93.0371 99.5659 93.7745 99.5659C94.4931 99.5659 95.1185 99.7293 95.6505 100.056C96.1918 100.373 96.5931 100.803 96.8545 101.344L95.6505 101.722C95.4638 101.377 95.2025 101.111 94.8665 100.924C94.5305 100.728 94.1571 100.63 93.7465 100.63C93.2985 100.63 92.8878 100.747 92.5145 100.98C92.1505 101.213 91.8611 101.535 91.6465 101.946C91.4318 102.347 91.3245 102.809 91.3245 103.332C91.3245 103.845 91.4318 104.312 91.6465 104.732C91.8705 105.143 92.1645 105.469 92.5285 105.712C92.9018 105.955 93.3125 106.076 93.7605 106.076C94.0498 106.076 94.3251 106.025 94.5865 105.922C94.8571 105.819 95.0905 105.684 95.2865 105.516C95.4918 105.339 95.6318 105.147 95.7065 104.942L96.9105 105.306C96.7611 105.661 96.5325 105.978 96.2245 106.258C95.9258 106.529 95.5665 106.743 95.1465 106.902C94.7358 107.061 94.2831 107.14 93.7885 107.14Z" fill="white"/>
<path d="M82.6835 107.14C82.0769 107.14 81.5075 107.042 80.9755 106.846C80.4435 106.641 79.9862 106.337 79.6035 105.936L80.0795 105.068C80.4995 105.46 80.9195 105.74 81.3395 105.908C81.7595 106.076 82.1889 106.16 82.6275 106.16C83.1315 106.16 83.5422 106.067 83.8595 105.88C84.1769 105.684 84.3355 105.399 84.3355 105.026C84.3355 104.755 84.2515 104.555 84.0835 104.424C83.9249 104.293 83.6962 104.186 83.3975 104.102C83.0988 104.009 82.7442 103.906 82.3335 103.794C81.8295 103.645 81.4049 103.486 81.0595 103.318C80.7142 103.15 80.4528 102.94 80.2755 102.688C80.0982 102.436 80.0095 102.119 80.0095 101.736C80.0095 101.269 80.1308 100.877 80.3735 100.56C80.6162 100.233 80.9475 99.9859 81.3675 99.8179C81.7969 99.6499 82.2822 99.5659 82.8235 99.5659C83.3649 99.5659 83.8549 99.6499 84.2935 99.8179C84.7322 99.9859 85.1102 100.233 85.4275 100.56L84.8675 101.414C84.5782 101.115 84.2609 100.896 83.9155 100.756C83.5702 100.607 83.1829 100.532 82.7535 100.532C82.5015 100.532 82.2542 100.565 82.0115 100.63C81.7688 100.686 81.5682 100.793 81.4095 100.952C81.2509 101.101 81.1715 101.316 81.1715 101.596C81.1715 101.829 81.2322 102.016 81.3535 102.156C81.4842 102.287 81.6709 102.399 81.9135 102.492C82.1655 102.585 82.4689 102.688 82.8235 102.8C83.3742 102.959 83.8502 103.117 84.2515 103.276C84.6622 103.435 84.9795 103.64 85.2035 103.892C85.4275 104.144 85.5395 104.494 85.5395 104.942C85.5395 105.633 85.2782 106.174 84.7555 106.566C84.2328 106.949 83.5422 107.14 82.6835 107.14Z" fill="white"/>
<path d="M78.0136 99.6919H79.2036L76.0956 107H75.0176L73.6036 103.556L72.2036 107H71.1256L68.0176 99.6919H69.1936L71.7136 105.782L72.8896 102.786L71.6576 99.7059H72.7356L73.6036 102.03L74.4716 99.7059H75.5496L74.3316 102.786L75.5076 105.782L78.0136 99.6919Z" fill="white"/>
<path d="M64.0111 107.14C63.4604 107.14 62.9564 107.042 62.4991 106.846C62.0511 106.641 61.6591 106.365 61.3231 106.02C60.9964 105.665 60.7398 105.259 60.5531 104.802C60.3758 104.345 60.2871 103.859 60.2871 103.346C60.2871 102.655 60.4458 102.025 60.7631 101.456C61.0804 100.887 61.5191 100.429 62.0791 100.084C62.6484 99.7386 63.2971 99.5659 64.0251 99.5659C64.7624 99.5659 65.4018 99.7433 65.9431 100.098C66.4938 100.443 66.9184 100.901 67.2171 101.47C67.5251 102.03 67.6791 102.637 67.6791 103.29C67.6791 103.383 67.6744 103.477 67.6651 103.57C67.6651 103.654 67.6604 103.719 67.6511 103.766H61.5891C61.6264 104.242 61.7571 104.667 61.9811 105.04C62.2144 105.404 62.5131 105.693 62.8771 105.908C63.2411 106.113 63.6331 106.216 64.0531 106.216C64.5011 106.216 64.9211 106.104 65.3131 105.88C65.7144 105.656 65.9898 105.362 66.1391 104.998L67.2031 105.292C67.0444 105.647 66.8064 105.964 66.4891 106.244C66.1811 106.524 65.8124 106.743 65.3831 106.902C64.9631 107.061 64.5058 107.14 64.0111 107.14ZM61.5471 102.912H66.5311C66.4938 102.436 66.3584 102.016 66.1251 101.652C65.8918 101.288 65.5931 101.003 65.2291 100.798C64.8651 100.593 64.4638 100.49 64.0251 100.49C63.5958 100.49 63.1991 100.593 62.8351 100.798C62.4711 101.003 62.1724 101.288 61.9391 101.652C61.7151 102.016 61.5844 102.436 61.5471 102.912Z" fill="white"/>
<path d="M57.5508 107V99.692H58.7828V107H57.5508ZM57.5508 98.32V96.78H58.7828V98.32H57.5508Z" fill="white"/>
<path d="M52.1034 107L49.2334 99.6919H50.5214L52.8174 105.824L55.1134 99.6919H56.3174L53.4474 107H52.1034Z" fill="white"/>
<path d="M48.782 100.77C48.166 100.779 47.62 100.938 47.144 101.246C46.6773 101.545 46.346 101.96 46.15 102.492V107H44.918V99.692H46.066V101.386C46.318 100.882 46.6493 100.476 47.06 100.168C47.48 99.8507 47.9186 99.6733 48.376 99.636C48.4693 99.636 48.5486 99.636 48.614 99.636C48.6793 99.636 48.7353 99.6407 48.782 99.65V100.77Z" fill="white"/>
<path d="M39.8803 107.14C39.3296 107.14 38.8256 107.042 38.3682 106.846C37.9202 106.641 37.5283 106.365 37.1923 106.02C36.8656 105.665 36.6089 105.259 36.4223 104.802C36.2449 104.345 36.1562 103.859 36.1562 103.346C36.1562 102.655 36.3149 102.025 36.6322 101.456C36.9496 100.887 37.3882 100.429 37.9482 100.084C38.5176 99.7386 39.1663 99.5659 39.8943 99.5659C40.6316 99.5659 41.2709 99.7433 41.8123 100.098C42.3629 100.443 42.7876 100.901 43.0863 101.47C43.3943 102.03 43.5483 102.637 43.5483 103.29C43.5483 103.383 43.5436 103.477 43.5343 103.57C43.5343 103.654 43.5296 103.719 43.5203 103.766H37.4583C37.4956 104.242 37.6263 104.667 37.8503 105.04C38.0836 105.404 38.3823 105.693 38.7463 105.908C39.1103 106.113 39.5023 106.216 39.9223 106.216C40.3703 106.216 40.7903 106.104 41.1823 105.88C41.5836 105.656 41.8589 105.362 42.0083 104.998L43.0723 105.292C42.9136 105.647 42.6756 105.964 42.3583 106.244C42.0503 106.524 41.6816 106.743 41.2523 106.902C40.8323 107.061 40.3749 107.14 39.8803 107.14ZM37.4163 102.912H42.4003C42.3629 102.436 42.2276 102.016 41.9943 101.652C41.7609 101.288 41.4623 101.003 41.0983 100.798C40.7343 100.593 40.3329 100.49 39.8943 100.49C39.4649 100.49 39.0683 100.593 38.7043 100.798C38.3403 101.003 38.0416 101.288 37.8083 101.652C37.5843 102.016 37.4536 102.436 37.4163 102.912Z" fill="white"/>
<path d="M35.5998 106.636C35.4971 106.683 35.3571 106.743 35.1798 106.818C35.0024 106.893 34.7971 106.958 34.5638 107.014C34.3304 107.07 34.0831 107.098 33.8218 107.098C33.5231 107.098 33.2478 107.047 32.9958 106.944C32.7438 106.832 32.5431 106.664 32.3938 106.44C32.2444 106.207 32.1698 105.917 32.1698 105.572V100.658H31.1758V99.6921H32.1698V97.2561H33.4018V99.6921H35.0398V100.658H33.4018V105.194C33.4204 105.455 33.5091 105.651 33.6678 105.782C33.8264 105.903 34.0131 105.964 34.2278 105.964C34.4704 105.964 34.6944 105.922 34.8998 105.838C35.1051 105.754 35.2404 105.693 35.3058 105.656L35.5998 106.636Z" fill="white"/>
<path d="M29.9729 107H28.7409V102.912C28.7409 102.137 28.6195 101.573 28.3769 101.218C28.1435 100.854 27.7842 100.672 27.2989 100.672C26.9629 100.672 26.6269 100.756 26.2909 100.924C25.9642 101.092 25.6702 101.321 25.4089 101.61C25.1569 101.89 24.9749 102.217 24.8629 102.59V107H23.6309V99.6919H24.7509V101.26C24.9469 100.915 25.1989 100.616 25.5069 100.364C25.8149 100.112 26.1649 99.9159 26.5569 99.7759C26.9489 99.6359 27.3595 99.5659 27.7889 99.5659C28.2089 99.5659 28.5589 99.6453 28.8389 99.8039C29.1282 99.9533 29.3522 100.168 29.5109 100.448C29.6789 100.719 29.7955 101.041 29.8609 101.414C29.9355 101.787 29.9729 102.193 29.9729 102.632V107Z" fill="white"/>
<path d="M20.1904 107V97.0601H21.4504V107H20.1904Z" fill="white"/>
</g>
<defs>
<filter id="filter0_b_134_4102" x="-22" y="-22" width="235" height="173" filterUnits="userSpaceOnUse" color-interpolation-filters="sRGB">
<feFlood flood-opacity="0" result="BackgroundImageFix"/>
<feGaussianBlur in="BackgroundImageFix" stdDeviation="11"/>
<feComposite in2="SourceAlpha" operator="in" result="effect1_backgroundBlur_134_4102"/>
<feBlend mode="normal" in="SourceGraphic" in2="effect1_backgroundBlur_134_4102" result="shape"/>
</filter>
</defs>
</svg>
