<svg width="191" height="129" viewBox="0 0 191 129" fill="none" xmlns="http://www.w3.org/2000/svg">
<g filter="url(#filter0_b_134_4136)">
<rect width="191" height="129" rx="12" fill="black" fill-opacity="0.15"/>
<mask id="mask0_134_4136" style="mask-type:alpha" maskUnits="userSpaceOnUse" x="19" y="20" width="18" height="18">
<path d="M19 20H37V38H19V20Z" fill="#D9D9D9"/>
</mask>
<g mask="url(#mask0_134_4136)">
<path d="M31 35V29.75H34V35H31ZM26.5 35V23H29.5V35H26.5ZM22 35V26.75H25V35H22Z" fill="white"/>
</g>
<path d="M140 29.4999C140 31.489 139.21 33.3967 137.803 34.8032C136.397 36.2097 134.489 36.9999 132.5 36.9999C130.511 36.9999 128.603 36.2097 127.197 34.8032C125.79 33.3967 125 31.489 125 29.4999H126.246C126.246 31.1587 126.905 32.7495 128.078 33.9224C129.25 35.0953 130.841 35.7542 132.5 35.7542C134.159 35.7542 135.75 35.0953 136.922 33.9224C138.095 32.7495 138.754 31.1587 138.754 29.4999H140Z" fill="#C4CACD" fill-opacity="0.8"/>
<path d="M132.862 22.0086C134.849 22.1046 136.716 22.9859 138.053 24.4586C139.39 25.9314 140.087 27.8749 139.991 29.8617L138.747 29.8016C138.827 28.1448 138.246 26.5241 137.131 25.2959C136.016 24.0678 134.459 23.3328 132.802 23.2528L132.862 22.0086Z" fill="white" fill-opacity="0.8"/>
<path d="M125 29.4999C125 28.3572 125.262 27.2295 125.764 26.2031C126.266 25.1767 126.996 24.2786 127.899 23.5775L128.663 24.5612C127.911 25.1458 127.302 25.8947 126.883 26.7507C126.464 27.6066 126.246 28.547 126.246 29.4999H125Z" fill="white" fill-opacity="0.8"/>
<path d="M127.899 23.5775C129.384 22.4236 131.248 21.8699 133.122 22.0259L133.019 23.2673C131.456 23.1372 129.902 23.599 128.663 24.5612L127.899 23.5775Z" fill="#C4CACD" fill-opacity="0.8"/>
<mask id="mask1_134_4136" style="mask-type:alpha" maskUnits="userSpaceOnUse" x="154" y="20" width="18" height="18">
<path d="M154 20H172V38H154V20Z" fill="#D9D9D9"/>
</mask>
<g mask="url(#mask1_134_4136)">
<path fill-rule="evenodd" clip-rule="evenodd" d="M160.075 35.9094C160.987 36.3031 161.963 36.5 163 36.5C164.038 36.5 165.012 36.3031 165.925 35.9094C166.838 35.5156 167.631 34.9813 168.306 34.3063C168.981 33.6313 169.516 32.8375 169.909 31.925C170.303 31.0125 170.5 30.0375 170.5 29C170.5 27.9625 170.303 26.9875 169.909 26.075C169.516 25.1625 168.981 24.3687 168.306 23.6937C167.631 23.0187 166.838 22.4844 165.925 22.0906C165.012 21.6969 164.038 21.5 163 21.5C161.963 21.5 160.987 21.6969 160.075 22.0906C159.162 22.4844 158.369 23.0187 157.694 23.6937C157.019 24.3687 156.484 25.1625 156.091 26.075C155.697 26.9875 155.5 27.9625 155.5 29C155.5 30.0375 155.697 31.0125 156.091 31.925C156.484 32.8375 157.019 33.6313 157.694 34.3063C158.369 34.9813 159.162 35.5156 160.075 35.9094ZM167.256 33.2563C166.094 34.4188 164.675 35 163 35C161.325 35 159.906 34.4188 158.744 33.2563C157.581 32.0938 157 30.675 157 29C157 27.325 157.581 25.9062 158.744 24.7438C159.906 23.5813 161.325 23 163 23C164.675 23 166.094 23.5813 167.256 24.7438C168.419 25.9062 169 27.325 169 29C169 30.675 168.419 32.0938 167.256 33.2563Z" fill="#C4CACD" fill-opacity="0.8"/>
<path fill-rule="evenodd" clip-rule="evenodd" d="M163 35C164.675 35 166.094 34.4188 167.256 33.2563C168.419 32.0938 169 30.675 169 29C169 27.325 168.419 25.9062 167.256 24.7438C166.094 23.5813 164.675 23 163 23C161.325 23 159.906 23.5813 158.744 24.7438C157.581 25.9062 157 27.325 157 29C157 30.675 157.581 32.0938 158.744 33.2563C159.906 34.4188 161.325 35 163 35ZM163.75 32.75H162.25V29.75H159.25V28.25H162.25V25.25H163.75V28.25H166.75V29.75H163.75V32.75Z" fill="#C4CACD" fill-opacity="0.8"/>
</g>
<path d="M51.3301 73.8919C52.9941 72.5052 54.3201 71.3526 55.3081 70.4339C56.2961 69.4979 57.1195 68.5272 57.7781 67.5219C58.4368 66.5166 58.7661 65.5286 58.7661 64.5579C58.7661 63.6739 58.5581 62.9806 58.1421 62.4779C57.7261 61.9752 57.0848 61.7239 56.2181 61.7239C55.3515 61.7239 54.6841 62.0186 54.2161 62.6079C53.7481 63.1799 53.5055 63.9686 53.4881 64.9739H49.9521C50.0215 62.8939 50.6368 61.3166 51.7981 60.2419C52.9768 59.1672 54.4675 58.6299 56.2701 58.6299C58.2462 58.6299 59.7628 59.1586 60.8201 60.2159C61.8775 61.2559 62.4061 62.6339 62.4061 64.3499C62.4061 65.7019 62.0421 66.9932 61.3141 68.2239C60.5861 69.4546 59.7541 70.5292 58.8181 71.4479C57.8821 72.3492 56.6601 73.4412 55.1521 74.7239H62.8221V77.7399H49.9781V75.0359L51.3301 73.8919Z" fill="white"/>
<path d="M48.0066 61.8019L41.0906 77.9999H37.3986L44.3666 62.2179H35.4746V59.0979H48.0066V61.8019Z" fill="white"/>
<path d="M20.4299 64.038C20.5166 62.3047 21.1233 60.97 22.2499 60.034C23.3939 59.0807 24.8933 58.604 26.7479 58.604C28.0133 58.604 29.0966 58.8293 29.9979 59.28C30.8993 59.7133 31.5753 60.3113 32.0259 61.074C32.4939 61.8193 32.7279 62.6687 32.7279 63.622C32.7279 64.714 32.4419 65.6413 31.8699 66.404C31.3153 67.1493 30.6479 67.652 29.8679 67.912V68.016C30.8733 68.328 31.6533 68.8827 32.2079 69.68C32.7799 70.4773 33.0659 71.5 33.0659 72.748C33.0659 73.788 32.8233 74.7153 32.3379 75.53C31.8699 76.3447 31.1679 76.986 30.2319 77.454C29.3133 77.9047 28.2039 78.13 26.9039 78.13C24.9453 78.13 23.3506 77.636 22.1199 76.648C20.8893 75.66 20.2393 74.204 20.1699 72.28H23.7059C23.7406 73.1293 24.0266 73.814 24.5639 74.334C25.1186 74.8367 25.8726 75.088 26.8259 75.088C27.7099 75.088 28.3859 74.8453 28.8539 74.36C29.3393 73.8573 29.5819 73.216 29.5819 72.436C29.5819 71.396 29.2526 70.6507 28.5939 70.2C27.9353 69.7493 26.9126 69.524 25.5259 69.524H24.7719V66.534H25.5259C27.9873 66.534 29.2179 65.7107 29.2179 64.064C29.2179 63.3187 28.9926 62.738 28.5419 62.322C28.1086 61.906 27.4759 61.698 26.6439 61.698C25.8293 61.698 25.1966 61.9233 24.7459 62.374C24.3126 62.8073 24.0613 63.362 23.9919 64.038H20.4299Z" fill="white"/>
<path d="M128.291 101.36C128.291 100.669 128.431 100.039 128.711 99.47C129 98.8914 129.392 98.4294 129.887 98.084C130.391 97.7387 130.965 97.566 131.609 97.566C132.197 97.566 132.724 97.72 133.191 98.028C133.658 98.336 134.022 98.7094 134.283 99.148V94.78H135.515V103.6C135.515 103.749 135.543 103.861 135.599 103.936C135.664 104.001 135.767 104.039 135.907 104.048V105C135.674 105.037 135.492 105.056 135.361 105.056C135.118 105.056 134.904 104.972 134.717 104.804C134.54 104.636 134.451 104.449 134.451 104.244V103.628C134.162 104.095 133.774 104.463 133.289 104.734C132.804 105.005 132.3 105.14 131.777 105.14C131.273 105.14 130.806 105.042 130.377 104.846C129.957 104.641 129.588 104.361 129.271 104.006C128.963 103.651 128.72 103.25 128.543 102.802C128.375 102.345 128.291 101.864 128.291 101.36ZM134.283 102.438V100.338C134.171 100.021 133.989 99.736 133.737 99.484C133.485 99.2227 133.2 99.0174 132.883 98.868C132.575 98.7094 132.267 98.63 131.959 98.63C131.595 98.63 131.264 98.7094 130.965 98.868C130.676 99.0174 130.424 99.2227 130.209 99.484C130.004 99.736 129.845 100.025 129.733 100.352C129.621 100.679 129.565 101.019 129.565 101.374C129.565 101.738 129.626 102.083 129.747 102.41C129.878 102.737 130.055 103.026 130.279 103.278C130.512 103.53 130.778 103.726 131.077 103.866C131.385 104.006 131.716 104.076 132.071 104.076C132.295 104.076 132.524 104.034 132.757 103.95C133 103.866 133.228 103.749 133.443 103.6C133.658 103.451 133.84 103.278 133.989 103.082C134.138 102.877 134.236 102.662 134.283 102.438Z" fill="white"/>
<path d="M123.73 105.14C123.179 105.14 122.675 105.042 122.218 104.846C121.77 104.641 121.378 104.365 121.042 104.02C120.715 103.665 120.459 103.259 120.272 102.802C120.095 102.345 120.006 101.859 120.006 101.346C120.006 100.655 120.165 100.025 120.482 99.4559C120.799 98.8866 121.238 98.4293 121.798 98.0839C122.367 97.7386 123.016 97.5659 123.744 97.5659C124.481 97.5659 125.121 97.7433 125.662 98.0979C126.213 98.4433 126.637 98.9006 126.936 99.4699C127.244 100.03 127.398 100.637 127.398 101.29C127.398 101.383 127.393 101.477 127.384 101.57C127.384 101.654 127.379 101.719 127.37 101.766H121.308C121.345 102.242 121.476 102.667 121.7 103.04C121.933 103.404 122.232 103.693 122.596 103.908C122.96 104.113 123.352 104.216 123.772 104.216C124.22 104.216 124.64 104.104 125.032 103.88C125.433 103.656 125.709 103.362 125.858 102.998L126.922 103.292C126.763 103.647 126.525 103.964 126.208 104.244C125.9 104.524 125.531 104.743 125.102 104.902C124.682 105.061 124.225 105.14 123.73 105.14ZM121.266 100.912H126.25C126.213 100.436 126.077 100.016 125.844 99.6519C125.611 99.2879 125.312 99.0033 124.948 98.7979C124.584 98.5926 124.183 98.4899 123.744 98.4899C123.315 98.4899 122.918 98.5926 122.554 98.7979C122.19 99.0033 121.891 99.2879 121.658 99.6519C121.434 100.016 121.303 100.436 121.266 100.912Z" fill="white"/>
<path d="M119.452 98.77C118.836 98.7793 118.29 98.938 117.814 99.246C117.347 99.5447 117.016 99.96 116.82 100.492V105H115.588V97.692H116.736V99.386C116.988 98.882 117.319 98.476 117.73 98.168C118.15 97.8507 118.589 97.6733 119.046 97.636C119.139 97.636 119.219 97.636 119.284 97.636C119.349 97.636 119.405 97.6407 119.452 97.65V98.77Z" fill="white"/>
<path d="M112.361 105V97.692H113.593V105H112.361ZM112.361 96.32V94.78H113.593V96.32H112.361Z" fill="white"/>
<path d="M110.446 105H109.214V100.912C109.214 100.165 109.078 99.6054 108.808 99.232C108.546 98.8587 108.168 98.672 107.674 98.672C107.356 98.672 107.034 98.756 106.708 98.924C106.39 99.092 106.11 99.3207 105.868 99.61C105.625 99.89 105.448 100.217 105.336 100.59V105H104.104V94.78H105.336V99.26C105.625 98.7374 106.017 98.3267 106.512 98.028C107.016 97.72 107.557 97.566 108.136 97.566C108.574 97.566 108.938 97.6454 109.228 97.804C109.526 97.9534 109.764 98.168 109.942 98.448C110.119 98.728 110.245 99.0547 110.32 99.428C110.404 99.792 110.446 100.193 110.446 100.632V105Z" fill="white"/>
<path d="M96.2323 105.14C95.6257 105.14 95.0563 105.042 94.5243 104.846C93.9923 104.641 93.535 104.337 93.1523 103.936L93.6283 103.068C94.0483 103.46 94.4683 103.74 94.8883 103.908C95.3083 104.076 95.7377 104.16 96.1763 104.16C96.6803 104.16 97.091 104.067 97.4083 103.88C97.7257 103.684 97.8843 103.399 97.8843 103.026C97.8843 102.755 97.8003 102.555 97.6323 102.424C97.4737 102.293 97.245 102.186 96.9463 102.102C96.6477 102.009 96.293 101.906 95.8823 101.794C95.3783 101.645 94.9537 101.486 94.6083 101.318C94.263 101.15 94.0017 100.94 93.8243 100.688C93.647 100.436 93.5583 100.119 93.5583 99.7359C93.5583 99.2693 93.6797 98.8773 93.9223 98.5599C94.165 98.2333 94.4963 97.9859 94.9163 97.8179C95.3457 97.6499 95.831 97.5659 96.3723 97.5659C96.9137 97.5659 97.4037 97.6499 97.8423 97.8179C98.281 97.9859 98.659 98.2333 98.9763 98.5599L98.4163 99.4139C98.127 99.1153 97.8097 98.8959 97.4643 98.7559C97.119 98.6066 96.7317 98.5319 96.3023 98.5319C96.0503 98.5319 95.803 98.5646 95.5603 98.6299C95.3177 98.6859 95.117 98.7933 94.9583 98.9519C94.7997 99.1013 94.7203 99.3159 94.7203 99.5959C94.7203 99.8293 94.781 100.016 94.9023 100.156C95.033 100.287 95.2197 100.399 95.4623 100.492C95.7143 100.585 96.0177 100.688 96.3723 100.8C96.923 100.959 97.399 101.117 97.8003 101.276C98.211 101.435 98.5283 101.64 98.7523 101.892C98.9763 102.144 99.0883 102.494 99.0883 102.942C99.0883 103.633 98.827 104.174 98.3043 104.566C97.7817 104.949 97.091 105.14 96.2323 105.14Z" fill="white"/>
<path d="M92.5046 98.77C91.8886 98.7793 91.3426 98.938 90.8666 99.246C90.4 99.5447 90.0686 99.96 89.8726 100.492V105H88.6406V97.692H89.7886V99.386C90.0406 98.882 90.372 98.476 90.7826 98.168C91.2026 97.8507 91.6413 97.6733 92.0986 97.636C92.192 97.636 92.2713 97.636 92.3366 97.636C92.402 97.636 92.458 97.6407 92.5046 97.65V98.77Z" fill="white"/>
<path d="M83.6029 105.14C83.0522 105.14 82.5482 105.042 82.0909 104.846C81.6429 104.641 81.2509 104.365 80.9149 104.02C80.5882 103.665 80.3316 103.259 80.1449 102.802C79.9676 102.345 79.8789 101.859 79.8789 101.346C79.8789 100.655 80.0376 100.025 80.3549 99.4559C80.6722 98.8866 81.1109 98.4293 81.6709 98.0839C82.2402 97.7386 82.8889 97.5659 83.6169 97.5659C84.3542 97.5659 84.9936 97.7433 85.5349 98.0979C86.0856 98.4433 86.5102 98.9006 86.8089 99.4699C87.1169 100.03 87.2709 100.637 87.2709 101.29C87.2709 101.383 87.2662 101.477 87.2569 101.57C87.2569 101.654 87.2522 101.719 87.2429 101.766H81.1809C81.2182 102.242 81.3489 102.667 81.5729 103.04C81.8062 103.404 82.1049 103.693 82.4689 103.908C82.8329 104.113 83.2249 104.216 83.6449 104.216C84.0929 104.216 84.5129 104.104 84.9049 103.88C85.3062 103.656 85.5816 103.362 85.7309 102.998L86.7949 103.292C86.6362 103.647 86.3982 103.964 86.0809 104.244C85.7729 104.524 85.4042 104.743 84.9749 104.902C84.5549 105.061 84.0976 105.14 83.6029 105.14ZM81.1389 100.912H86.1229C86.0856 100.436 85.9502 100.016 85.7169 99.6519C85.4836 99.2879 85.1849 99.0033 84.8209 98.7979C84.4569 98.5926 84.0556 98.4899 83.6169 98.4899C83.1876 98.4899 82.7909 98.5926 82.4269 98.7979C82.0629 99.0033 81.7642 99.2879 81.5309 99.6519C81.3069 100.016 81.1762 100.436 81.1389 100.912Z" fill="white"/>
<path d="M75.3314 105.14C74.7808 105.14 74.2768 105.042 73.8194 104.846C73.3714 104.641 72.9794 104.365 72.6434 104.02C72.3168 103.665 72.0601 103.259 71.8734 102.802C71.6961 102.345 71.6074 101.859 71.6074 101.346C71.6074 100.655 71.7661 100.025 72.0834 99.4559C72.4008 98.8866 72.8394 98.4293 73.3994 98.0839C73.9688 97.7386 74.6174 97.5659 75.3454 97.5659C76.0828 97.5659 76.7221 97.7433 77.2634 98.0979C77.8141 98.4433 78.2388 98.9006 78.5374 99.4699C78.8454 100.03 78.9994 100.637 78.9994 101.29C78.9994 101.383 78.9948 101.477 78.9854 101.57C78.9854 101.654 78.9808 101.719 78.9714 101.766H72.9094C72.9468 102.242 73.0774 102.667 73.3014 103.04C73.5348 103.404 73.8334 103.693 74.1974 103.908C74.5614 104.113 74.9534 104.216 75.3734 104.216C75.8214 104.216 76.2414 104.104 76.6334 103.88C77.0348 103.656 77.3101 103.362 77.4594 102.998L78.5234 103.292C78.3648 103.647 78.1268 103.964 77.8094 104.244C77.5014 104.524 77.1328 104.743 76.7034 104.902C76.2834 105.061 75.8261 105.14 75.3314 105.14ZM72.8674 100.912H77.8514C77.8141 100.436 77.6788 100.016 77.4454 99.6519C77.2121 99.2879 76.9134 99.0033 76.5494 98.7979C76.1854 98.5926 75.7841 98.4899 75.3454 98.4899C74.9161 98.4899 74.5194 98.5926 74.1554 98.7979C73.7914 99.0033 73.4928 99.2879 73.2594 99.6519C73.0354 100.016 72.9048 100.436 72.8674 100.912Z" fill="white"/>
<path d="M70.1818 105H68.9498V100.912C68.9498 100.137 68.8285 99.5726 68.5858 99.2179C68.3525 98.8539 67.9932 98.6719 67.5078 98.6719C67.1718 98.6719 66.8358 98.7559 66.4998 98.9239C66.1732 99.0919 65.8792 99.3206 65.6178 99.6099C65.3658 99.8899 65.1838 100.217 65.0718 100.59V105H63.8398V97.6919H64.9598V99.2599C65.1558 98.9146 65.4078 98.6159 65.7158 98.3639C66.0238 98.1119 66.3738 97.9159 66.7658 97.7759C67.1578 97.6359 67.5685 97.5659 67.9978 97.5659C68.4178 97.5659 68.7678 97.6453 69.0478 97.8039C69.3372 97.9533 69.5612 98.1679 69.7198 98.4479C69.8878 98.7186 70.0045 99.0406 70.0698 99.4139C70.1445 99.7873 70.1818 100.193 70.1818 100.632V105Z" fill="white"/>
<path d="M60.6133 105V97.692H61.8453V105H60.6133ZM60.6133 96.32V94.78H61.8453V96.32H60.6133Z" fill="white"/>
<path d="M54.789 105.084C54.2944 105.084 53.837 104.986 53.417 104.79C53.0064 104.585 52.6517 104.309 52.353 103.964C52.0544 103.609 51.821 103.208 51.653 102.76C51.4944 102.312 51.415 101.845 51.415 101.36C51.415 100.847 51.4944 100.361 51.653 99.9039C51.821 99.4466 52.0544 99.0453 52.353 98.6999C52.661 98.3453 53.0204 98.0699 53.431 97.8739C53.8417 97.6686 54.299 97.5659 54.803 97.5659C55.4097 97.5659 55.937 97.7153 56.385 98.0139C56.8424 98.3126 57.225 98.6906 57.533 99.1479V97.6919H58.625V104.916C58.625 105.607 58.457 106.19 58.121 106.666C57.7944 107.142 57.3464 107.501 56.777 107.744C56.217 107.996 55.5917 108.122 54.901 108.122C54.0797 108.122 53.4077 107.977 52.885 107.688C52.3624 107.399 51.9284 107.007 51.583 106.512L52.297 105.882C52.5864 106.311 52.9597 106.633 53.417 106.848C53.8837 107.063 54.3784 107.17 54.901 107.17C55.349 107.17 55.7597 107.086 56.133 106.918C56.5157 106.759 56.819 106.512 57.043 106.176C57.2764 105.84 57.393 105.42 57.393 104.916V103.628C57.1224 104.076 56.749 104.431 56.273 104.692C55.8064 104.953 55.3117 105.084 54.789 105.084ZM55.167 104.076C55.4284 104.076 55.6804 104.029 55.923 103.936C56.1657 103.843 56.3897 103.721 56.595 103.572C56.8004 103.413 56.973 103.236 57.113 103.04C57.253 102.844 57.3464 102.643 57.393 102.438V100.338C57.2624 100.002 57.0757 99.7079 56.833 99.4559C56.5904 99.1946 56.315 98.9939 56.007 98.8539C55.699 98.7046 55.3817 98.6299 55.055 98.6299C54.6817 98.6299 54.3457 98.7093 54.047 98.8679C53.7577 99.0266 53.5104 99.2413 53.305 99.5119C53.0997 99.7733 52.941 100.067 52.829 100.394C52.717 100.721 52.661 101.052 52.661 101.388C52.661 101.752 52.7264 102.097 52.857 102.424C52.9877 102.741 53.165 103.026 53.389 103.278C53.613 103.53 53.879 103.726 54.187 103.866C54.495 104.006 54.8217 104.076 55.167 104.076Z" fill="white"/>
<path d="M49.9611 105H48.7291V100.912C48.7291 100.137 48.6078 99.5726 48.3651 99.2179C48.1318 98.8539 47.7725 98.6719 47.2871 98.6719C46.9511 98.6719 46.6151 98.7559 46.2791 98.9239C45.9525 99.0919 45.6585 99.3206 45.3971 99.6099C45.1451 99.8899 44.9631 100.217 44.8511 100.59V105H43.6191V97.6919H44.7391V99.2599C44.9351 98.9146 45.1871 98.6159 45.4951 98.3639C45.8031 98.1119 46.1531 97.9159 46.5451 97.7759C46.9371 97.6359 47.3478 97.5659 47.7771 97.5659C48.1971 97.5659 48.5471 97.6453 48.8271 97.8039C49.1165 97.9533 49.3405 98.1679 49.4991 98.4479C49.6671 98.7186 49.7838 99.0406 49.8491 99.4139C49.9238 99.7873 49.9611 100.193 49.9611 100.632V105Z" fill="white"/>
<path d="M38.5814 105.14C38.0308 105.14 37.5268 105.042 37.0694 104.846C36.6214 104.641 36.2294 104.365 35.8934 104.02C35.5668 103.665 35.3101 103.259 35.1234 102.802C34.9461 102.345 34.8574 101.859 34.8574 101.346C34.8574 100.655 35.0161 100.025 35.3334 99.4559C35.6508 98.8866 36.0894 98.4293 36.6494 98.0839C37.2188 97.7386 37.8674 97.5659 38.5954 97.5659C39.3328 97.5659 39.9721 97.7433 40.5134 98.0979C41.0641 98.4433 41.4888 98.9006 41.7874 99.4699C42.0954 100.03 42.2494 100.637 42.2494 101.29C42.2494 101.383 42.2448 101.477 42.2354 101.57C42.2354 101.654 42.2308 101.719 42.2214 101.766H36.1594C36.1968 102.242 36.3274 102.667 36.5514 103.04C36.7848 103.404 37.0834 103.693 37.4474 103.908C37.8114 104.113 38.2034 104.216 38.6234 104.216C39.0714 104.216 39.4914 104.104 39.8834 103.88C40.2848 103.656 40.5601 103.362 40.7094 102.998L41.7734 103.292C41.6148 103.647 41.3768 103.964 41.0594 104.244C40.7514 104.524 40.3828 104.743 39.9534 104.902C39.5334 105.061 39.0761 105.14 38.5814 105.14ZM36.1174 100.912H41.1014C41.0641 100.436 40.9288 100.016 40.6954 99.6519C40.4621 99.2879 40.1634 99.0033 39.7994 98.7979C39.4354 98.5926 39.0341 98.4899 38.5954 98.4899C38.1661 98.4899 37.7694 98.5926 37.4054 98.7979C37.0414 99.0033 36.7428 99.2879 36.5094 99.6519C36.2854 100.016 36.1548 100.436 36.1174 100.912Z" fill="white"/>
<path d="M30.995 96.1801H27.565V105H26.305V96.1801H22.875V95.0601H30.995V96.1801Z" fill="white"/>
<path d="M20.1904 105V95.0601H21.4504V105H20.1904Z" fill="white"/>
</g>
<defs>
<filter id="filter0_b_134_4136" x="-22" y="-22" width="235" height="173" filterUnits="userSpaceOnUse" color-interpolation-filters="sRGB">
<feFlood flood-opacity="0" result="BackgroundImageFix"/>
<feGaussianBlur in="BackgroundImageFix" stdDeviation="11"/>
<feComposite in2="SourceAlpha" operator="in" result="effect1_backgroundBlur_134_4136"/>
<feBlend mode="normal" in="SourceGraphic" in2="effect1_backgroundBlur_134_4136" result="shape"/>
</filter>
</defs>
</svg>
