<svg width="860" height="129" viewBox="0 0 860 129" fill="none" xmlns="http://www.w3.org/2000/svg">
<g filter="url(#filter0_b_134_4041)">
<rect width="191" height="129" rx="12" fill="black" fill-opacity="0.15"/>
<mask id="mask0_134_4041" style="mask-type:alpha" maskUnits="userSpaceOnUse" x="19" y="22" width="18" height="18">
<path d="M19 22H37V40H19V22Z" fill="#D9D9D9"/>
</mask>
<g mask="url(#mask0_134_4041)">
<path d="M31 37V31.75H34V37H31ZM26.5 37V25H29.5V37H26.5ZM22 37V28.75H25V37H22Z" fill="white"/>
</g>
<path d="M140 31.4999C140 33.489 139.21 35.3967 137.803 36.8032C136.397 38.2097 134.489 38.9999 132.5 38.9999C130.511 38.9999 128.603 38.2097 127.197 36.8032C125.79 35.3967 125 33.489 125 31.4999H126.246C126.246 33.1587 126.905 34.7495 128.078 35.9224C129.25 37.0953 130.841 37.7542 132.5 37.7542C134.159 37.7542 135.75 37.0953 136.922 35.9224C138.095 34.7495 138.754 33.1587 138.754 31.4999H140Z" fill="#C4CACD" fill-opacity="0.8"/>
<path d="M132.862 24.0086C134.849 24.1046 136.716 24.9859 138.053 26.4586C139.39 27.9314 140.087 29.8749 139.991 31.8617L138.747 31.8016C138.827 30.1448 138.246 28.5241 137.131 27.2959C136.016 26.0678 134.459 25.3328 132.802 25.2528L132.862 24.0086Z" fill="white" fill-opacity="0.8"/>
<path d="M125 31.4999C125 30.3572 125.262 29.2295 125.764 28.2031C126.266 27.1767 126.996 26.2786 127.899 25.5775L128.663 26.5612C127.911 27.1458 127.302 27.8947 126.883 28.7507C126.464 29.6066 126.246 30.547 126.246 31.4999H125Z" fill="white" fill-opacity="0.8"/>
<path d="M127.899 25.5775C129.384 24.4236 131.248 23.8699 133.122 24.0259L133.019 25.2673C131.456 25.1372 129.902 25.599 128.663 26.5612L127.899 25.5775Z" fill="#C4CACD" fill-opacity="0.8"/>
<mask id="mask1_134_4041" style="mask-type:alpha" maskUnits="userSpaceOnUse" x="154" y="22" width="18" height="18">
<path d="M154 22H172V40H154V22Z" fill="#D9D9D9"/>
</mask>
<g mask="url(#mask1_134_4041)">
<path fill-rule="evenodd" clip-rule="evenodd" d="M160.075 37.9094C160.987 38.3031 161.963 38.5 163 38.5C164.038 38.5 165.012 38.3031 165.925 37.9094C166.838 37.5156 167.631 36.9813 168.306 36.3063C168.981 35.6313 169.516 34.8375 169.909 33.925C170.303 33.0125 170.5 32.0375 170.5 31C170.5 29.9625 170.303 28.9875 169.909 28.075C169.516 27.1625 168.981 26.3687 168.306 25.6937C167.631 25.0187 166.838 24.4844 165.925 24.0906C165.012 23.6969 164.038 23.5 163 23.5C161.963 23.5 160.987 23.6969 160.075 24.0906C159.162 24.4844 158.369 25.0187 157.694 25.6937C157.019 26.3687 156.484 27.1625 156.091 28.075C155.697 28.9875 155.5 29.9625 155.5 31C155.5 32.0375 155.697 33.0125 156.091 33.925C156.484 34.8375 157.019 35.6313 157.694 36.3063C158.369 36.9813 159.162 37.5156 160.075 37.9094ZM167.256 35.2563C166.094 36.4188 164.675 37 163 37C161.325 37 159.906 36.4188 158.744 35.2563C157.581 34.0938 157 32.675 157 31C157 29.325 157.581 27.9062 158.744 26.7438C159.906 25.5813 161.325 25 163 25C164.675 25 166.094 25.5813 167.256 26.7438C168.419 27.9062 169 29.325 169 31C169 32.675 168.419 34.0938 167.256 35.2563Z" fill="#C4CACD" fill-opacity="0.8"/>
<path fill-rule="evenodd" clip-rule="evenodd" d="M163 37C164.675 37 166.094 36.4188 167.256 35.2563C168.419 34.0938 169 32.675 169 31C169 29.325 168.419 27.9062 167.256 26.7438C166.094 25.5813 164.675 25 163 25C161.325 25 159.906 25.5813 158.744 26.7438C157.581 27.9062 157 29.325 157 31C157 32.675 157.581 34.0938 158.744 35.2563C159.906 36.4188 161.325 37 163 37ZM163.75 34.75H162.25V31.75H159.25V30.25H162.25V27.25H163.75V30.25H166.75V31.75H163.75V34.75Z" fill="#C4CACD" fill-opacity="0.8"/>
</g>
<path d="M67.5029 70.2759C67.5029 67.2772 68.0403 64.9286 69.1149 63.2299C70.2069 61.5312 72.0096 60.6819 74.5229 60.6819C77.0363 60.6819 78.8303 61.5312 79.9049 63.2299C80.9969 64.9286 81.5429 67.2772 81.5429 70.2759C81.5429 73.2919 80.9969 75.6579 79.9049 77.3739C78.8303 79.0899 77.0363 79.9479 74.5229 79.9479C72.0096 79.9479 70.2069 79.0899 69.1149 77.3739C68.0403 75.6579 67.5029 73.2919 67.5029 70.2759ZM77.9549 70.2759C77.9549 68.9932 77.8683 67.9186 77.6949 67.0519C77.5389 66.1679 77.2096 65.4486 76.7069 64.8939C76.2216 64.3392 75.4936 64.0619 74.5229 64.0619C73.5523 64.0619 72.8156 64.3392 72.3129 64.8939C71.8276 65.4486 71.4983 66.1679 71.3249 67.0519C71.1689 67.9186 71.0909 68.9932 71.0909 70.2759C71.0909 71.5932 71.1689 72.7026 71.3249 73.6039C71.4809 74.4879 71.8103 75.2072 72.3129 75.7619C72.8156 76.2992 73.5523 76.5679 74.5229 76.5679C75.4936 76.5679 76.2303 76.2992 76.7329 75.7619C77.2356 75.2072 77.5649 74.4879 77.7209 73.6039C77.8769 72.7026 77.9549 71.5932 77.9549 70.2759Z" fill="white"/>
<path d="M51.9905 66.038C52.0771 64.3047 52.6838 62.97 53.8105 62.034C54.9545 61.0807 56.4538 60.604 58.3085 60.604C59.5738 60.604 60.6571 60.8293 61.5585 61.28C62.4598 61.7133 63.1358 62.3113 63.5865 63.074C64.0545 63.8193 64.2885 64.6687 64.2885 65.622C64.2885 66.714 64.0025 67.6413 63.4305 68.404C62.8758 69.1493 62.2085 69.652 61.4285 69.912V70.016C62.4338 70.328 63.2138 70.8827 63.7685 71.68C64.3405 72.4773 64.6265 73.5 64.6265 74.748C64.6265 75.788 64.3838 76.7153 63.8985 77.53C63.4305 78.3447 62.7285 78.986 61.7925 79.454C60.8738 79.9047 59.7645 80.13 58.4645 80.13C56.5058 80.13 54.9111 79.636 53.6805 78.648C52.4498 77.66 51.7998 76.204 51.7305 74.28H55.2665C55.3011 75.1293 55.5871 75.814 56.1245 76.334C56.6791 76.8367 57.4331 77.088 58.3865 77.088C59.2705 77.088 59.9465 76.8453 60.4145 76.36C60.8998 75.8573 61.1425 75.216 61.1425 74.436C61.1425 73.396 60.8131 72.6507 60.1545 72.2C59.4958 71.7493 58.4731 71.524 57.0865 71.524H56.3325V68.534H57.0865C59.5478 68.534 60.7785 67.7107 60.7785 66.064C60.7785 65.3187 60.5531 64.738 60.1025 64.322C59.6691 63.906 59.0365 63.698 58.2045 63.698C57.3898 63.698 56.7571 63.9233 56.3065 64.374C55.8731 64.8073 55.6218 65.362 55.5525 66.038H51.9905Z" fill="white"/>
<path d="M45.1356 65.778C44.9623 65.05 44.659 64.504 44.2256 64.14C43.8096 63.776 43.203 63.594 42.4056 63.594C41.2096 63.594 40.3256 64.0793 39.7536 65.05C39.199 66.0033 38.913 67.5633 38.8956 69.73C39.3116 69.0367 39.9183 68.4993 40.7156 68.118C41.513 67.7193 42.3796 67.52 43.3156 67.52C44.4423 67.52 45.439 67.7627 46.3056 68.248C47.1723 68.7333 47.8483 69.444 48.3336 70.38C48.819 71.2987 49.0616 72.408 49.0616 73.708C49.0616 74.9387 48.8103 76.0393 48.3076 77.01C47.8223 77.9633 47.103 78.7087 46.1496 79.246C45.1963 79.7833 44.061 80.052 42.7436 80.052C40.941 80.052 39.5196 79.6533 38.4796 78.856C37.457 78.0587 36.7376 76.9493 36.3216 75.528C35.923 74.0893 35.7236 72.3213 35.7236 70.224C35.7236 67.052 36.2696 64.66 37.3616 63.048C38.4536 61.4187 40.1783 60.604 42.5356 60.604C44.3556 60.604 45.7683 61.098 46.7736 62.086C47.779 63.074 48.3596 64.3047 48.5156 65.778H45.1356ZM42.4836 70.51C41.565 70.51 40.7936 70.7787 40.1696 71.316C39.5456 71.8533 39.2336 72.6333 39.2336 73.656C39.2336 74.6787 39.5196 75.4847 40.0916 76.074C40.681 76.6633 41.5043 76.958 42.5616 76.958C43.4976 76.958 44.2343 76.672 44.7716 76.1C45.3263 75.528 45.6036 74.7567 45.6036 73.786C45.6036 72.7807 45.335 71.9833 44.7976 71.394C44.2776 70.8047 43.5063 70.51 42.4836 70.51Z" fill="white"/>
<path d="M21.5216 75.8919C23.1856 74.5052 24.5116 73.3526 25.4996 72.4339C26.4876 71.4979 27.3109 70.5272 27.9696 69.5219C28.6282 68.5166 28.9576 67.5286 28.9576 66.5579C28.9576 65.6739 28.7496 64.9806 28.3336 64.4779C27.9176 63.9752 27.2762 63.7239 26.4096 63.7239C25.5429 63.7239 24.8756 64.0186 24.4076 64.6079C23.9396 65.1799 23.6969 65.9686 23.6796 66.9739H20.1436C20.2129 64.8939 20.8282 63.3166 21.9896 62.2419C23.1682 61.1672 24.6589 60.6299 26.4616 60.6299C28.4376 60.6299 29.9542 61.1586 31.0116 62.2159C32.0689 63.2559 32.5976 64.6339 32.5976 66.3499C32.5976 67.7019 32.2336 68.9932 31.5056 70.2239C30.7776 71.4546 29.9456 72.5292 29.0096 73.4479C28.0736 74.3492 26.8516 75.4412 25.3436 76.7239H33.0136V79.7399H20.1696V77.0359L21.5216 75.8919Z" fill="white"/>
<path d="M131.518 103.36C131.518 102.669 131.658 102.039 131.938 101.47C132.227 100.891 132.619 100.429 133.114 100.084C133.618 99.7387 134.192 99.566 134.836 99.566C135.424 99.566 135.951 99.72 136.418 100.028C136.884 100.336 137.248 100.709 137.51 101.148V96.78H138.742V105.6C138.742 105.749 138.77 105.861 138.826 105.936C138.891 106.001 138.994 106.039 139.134 106.048V107C138.9 107.037 138.718 107.056 138.588 107.056C138.345 107.056 138.13 106.972 137.944 106.804C137.766 106.636 137.678 106.449 137.678 106.244V105.628C137.388 106.095 137.001 106.463 136.516 106.734C136.03 107.005 135.526 107.14 135.004 107.14C134.5 107.14 134.033 107.042 133.604 106.846C133.184 106.641 132.815 106.361 132.498 106.006C132.19 105.651 131.947 105.25 131.77 104.802C131.602 104.345 131.518 103.864 131.518 103.36ZM137.51 104.438V102.338C137.398 102.021 137.216 101.736 136.964 101.484C136.712 101.223 136.427 101.017 136.11 100.868C135.802 100.709 135.494 100.63 135.186 100.63C134.822 100.63 134.49 100.709 134.192 100.868C133.902 101.017 133.65 101.223 133.436 101.484C133.23 101.736 133.072 102.025 132.96 102.352C132.848 102.679 132.792 103.019 132.792 103.374C132.792 103.738 132.852 104.083 132.974 104.41C133.104 104.737 133.282 105.026 133.506 105.278C133.739 105.53 134.005 105.726 134.304 105.866C134.612 106.006 134.943 106.076 135.298 106.076C135.522 106.076 135.75 106.034 135.984 105.95C136.226 105.866 136.455 105.749 136.67 105.6C136.884 105.451 137.066 105.278 137.216 105.082C137.365 104.877 137.463 104.662 137.51 104.438Z" fill="white"/>
<path d="M126.956 107.14C126.406 107.14 125.902 107.042 125.444 106.846C124.996 106.641 124.604 106.365 124.268 106.02C123.942 105.665 123.685 105.259 123.498 104.802C123.321 104.345 123.232 103.859 123.232 103.346C123.232 102.655 123.391 102.025 123.708 101.456C124.026 100.887 124.464 100.429 125.024 100.084C125.594 99.7386 126.242 99.5659 126.97 99.5659C127.708 99.5659 128.347 99.7433 128.888 100.098C129.439 100.443 129.864 100.901 130.162 101.47C130.47 102.03 130.624 102.637 130.624 103.29C130.624 103.383 130.62 103.477 130.61 103.57C130.61 103.654 130.606 103.719 130.596 103.766H124.534C124.572 104.242 124.702 104.667 124.926 105.04C125.16 105.404 125.458 105.693 125.822 105.908C126.186 106.113 126.578 106.216 126.998 106.216C127.446 106.216 127.866 106.104 128.258 105.88C128.66 105.656 128.935 105.362 129.084 104.998L130.148 105.292C129.99 105.647 129.752 105.964 129.434 106.244C129.126 106.524 128.758 106.743 128.328 106.902C127.908 107.061 127.451 107.14 126.956 107.14ZM124.492 102.912H129.476C129.439 102.436 129.304 102.016 129.07 101.652C128.837 101.288 128.538 101.003 128.174 100.798C127.81 100.593 127.409 100.49 126.97 100.49C126.541 100.49 126.144 100.593 125.78 100.798C125.416 101.003 125.118 101.288 124.884 101.652C124.66 102.016 124.53 102.436 124.492 102.912Z" fill="white"/>
<path d="M118.521 107L115.651 99.6919H116.939L119.235 105.824L121.531 99.6919H122.735L119.865 107H118.521Z" fill="white"/>
<path d="M113.195 107V99.692H114.427V107H113.195ZM113.195 98.32V96.78H114.427V98.32H113.195Z" fill="white"/>
<path d="M108.158 107.14C107.607 107.14 107.103 107.042 106.646 106.846C106.198 106.641 105.806 106.365 105.47 106.02C105.143 105.665 104.886 105.259 104.7 104.802C104.522 104.345 104.434 103.859 104.434 103.346C104.434 102.655 104.592 102.025 104.91 101.456C105.227 100.887 105.666 100.429 106.226 100.084C106.795 99.7386 107.444 99.5659 108.172 99.5659C108.909 99.5659 109.548 99.7433 110.09 100.098C110.64 100.443 111.065 100.901 111.364 101.47C111.672 102.03 111.826 102.637 111.826 103.29C111.826 103.383 111.821 103.477 111.812 103.57C111.812 103.654 111.807 103.719 111.798 103.766H105.736C105.773 104.242 105.904 104.667 106.128 105.04C106.361 105.404 106.66 105.693 107.024 105.908C107.388 106.113 107.78 106.216 108.2 106.216C108.648 106.216 109.068 106.104 109.46 105.88C109.861 105.656 110.136 105.362 110.286 104.998L111.35 105.292C111.191 105.647 110.953 105.964 110.636 106.244C110.328 106.524 109.959 106.743 109.53 106.902C109.11 107.061 108.652 107.14 108.158 107.14ZM105.694 102.912H110.678C110.64 102.436 110.505 102.016 110.272 101.652C110.038 101.288 109.74 101.003 109.376 100.798C109.012 100.593 108.61 100.49 108.172 100.49C107.742 100.49 107.346 100.593 106.982 100.798C106.618 101.003 106.319 101.288 106.086 101.652C105.862 102.016 105.731 102.436 105.694 102.912Z" fill="white"/>
<path d="M100.474 107.14C99.9233 107.14 99.4193 107.042 98.962 106.846C98.514 106.641 98.122 106.361 97.786 106.006C97.4593 105.651 97.2027 105.245 97.016 104.788C96.8387 104.331 96.75 103.845 96.75 103.332C96.75 102.641 96.904 102.011 97.212 101.442C97.52 100.873 97.954 100.42 98.514 100.084C99.074 99.7386 99.7227 99.5659 100.46 99.5659C101.179 99.5659 101.804 99.7293 102.336 100.056C102.877 100.373 103.279 100.803 103.54 101.344L102.336 101.722C102.149 101.377 101.888 101.111 101.552 100.924C101.216 100.728 100.843 100.63 100.432 100.63C99.984 100.63 99.5733 100.747 99.2 100.98C98.836 101.213 98.5467 101.535 98.332 101.946C98.1173 102.347 98.01 102.809 98.01 103.332C98.01 103.845 98.1173 104.312 98.332 104.732C98.556 105.143 98.85 105.469 99.214 105.712C99.5873 105.955 99.998 106.076 100.446 106.076C100.735 106.076 101.011 106.025 101.272 105.922C101.543 105.819 101.776 105.684 101.972 105.516C102.177 105.339 102.317 105.147 102.392 104.942L103.596 105.306C103.447 105.661 103.218 105.978 102.91 106.258C102.611 106.529 102.252 106.743 101.832 106.902C101.421 107.061 100.969 107.14 100.474 107.14Z" fill="white"/>
<path d="M92.2025 107.14C91.6518 107.14 91.1479 107.042 90.6905 106.846C90.2425 106.641 89.8505 106.365 89.5145 106.02C89.1879 105.665 88.9312 105.259 88.7445 104.802C88.5672 104.345 88.4785 103.859 88.4785 103.346C88.4785 102.655 88.6372 102.025 88.9545 101.456C89.2719 100.887 89.7105 100.429 90.2705 100.084C90.8398 99.7386 91.4885 99.5659 92.2165 99.5659C92.9538 99.5659 93.5932 99.7433 94.1345 100.098C94.6852 100.443 95.1098 100.901 95.4085 101.47C95.7165 102.03 95.8705 102.637 95.8705 103.29C95.8705 103.383 95.8659 103.477 95.8565 103.57C95.8565 103.654 95.8519 103.719 95.8425 103.766H89.7805C89.8179 104.242 89.9485 104.667 90.1725 105.04C90.4058 105.404 90.7045 105.693 91.0685 105.908C91.4325 106.113 91.8245 106.216 92.2445 106.216C92.6925 106.216 93.1125 106.104 93.5045 105.88C93.9058 105.656 94.1812 105.362 94.3305 104.998L95.3945 105.292C95.2358 105.647 94.9979 105.964 94.6805 106.244C94.3725 106.524 94.0038 106.743 93.5745 106.902C93.1545 107.061 92.6972 107.14 92.2025 107.14ZM89.7385 102.912H94.7225C94.6852 102.436 94.5499 102.016 94.3165 101.652C94.0832 101.288 93.7845 101.003 93.4205 100.798C93.0565 100.593 92.6552 100.49 92.2165 100.49C91.7872 100.49 91.3905 100.593 91.0265 100.798C90.6625 101.003 90.3638 101.288 90.1305 101.652C89.9065 102.016 89.7759 102.436 89.7385 102.912Z" fill="white"/>
<path d="M87.9245 100.77C87.3085 100.779 86.7625 100.938 86.2865 101.246C85.8199 101.545 85.4885 101.96 85.2925 102.492V107H84.0605V99.692H85.2085V101.386C85.4605 100.882 85.7919 100.476 86.2025 100.168C86.6225 99.8507 87.0612 99.6733 87.5185 99.636C87.6119 99.636 87.6912 99.636 87.7565 99.636C87.8219 99.636 87.8779 99.6407 87.9245 99.65V100.77Z" fill="white"/>
<path d="M76.1894 107.14C75.5827 107.14 75.0134 107.042 74.4814 106.846C73.9494 106.641 73.492 106.337 73.1094 105.936L73.5854 105.068C74.0054 105.46 74.4254 105.74 74.8454 105.908C75.2654 106.076 75.6947 106.16 76.1334 106.16C76.6374 106.16 77.048 106.067 77.3654 105.88C77.6827 105.684 77.8414 105.399 77.8414 105.026C77.8414 104.755 77.7574 104.555 77.5894 104.424C77.4307 104.293 77.202 104.186 76.9034 104.102C76.6047 104.009 76.25 103.906 75.8394 103.794C75.3354 103.645 74.9107 103.486 74.5654 103.318C74.22 103.15 73.9587 102.94 73.7814 102.688C73.604 102.436 73.5154 102.119 73.5154 101.736C73.5154 101.269 73.6367 100.877 73.8794 100.56C74.122 100.233 74.4534 99.9859 74.8734 99.8179C75.3027 99.6499 75.788 99.5659 76.3294 99.5659C76.8707 99.5659 77.3607 99.6499 77.7994 99.8179C78.238 99.9859 78.616 100.233 78.9334 100.56L78.3734 101.414C78.084 101.115 77.7667 100.896 77.4214 100.756C77.076 100.607 76.6887 100.532 76.2594 100.532C76.0074 100.532 75.76 100.565 75.5174 100.63C75.2747 100.686 75.074 100.793 74.9154 100.952C74.7567 101.101 74.6774 101.316 74.6774 101.596C74.6774 101.829 74.738 102.016 74.8594 102.156C74.99 102.287 75.1767 102.399 75.4194 102.492C75.6714 102.585 75.9747 102.688 76.3294 102.8C76.88 102.959 77.356 103.117 77.7574 103.276C78.168 103.435 78.4854 103.64 78.7094 103.892C78.9334 104.144 79.0454 104.494 79.0454 104.942C79.0454 105.633 78.784 106.174 78.2614 106.566C77.7387 106.949 77.048 107.14 76.1894 107.14Z" fill="white"/>
<path d="M68.6459 107.14C68.0952 107.14 67.5912 107.042 67.1339 106.846C66.6859 106.641 66.2939 106.365 65.9579 106.02C65.6312 105.665 65.3745 105.259 65.1879 104.802C65.0105 104.345 64.9219 103.859 64.9219 103.346C64.9219 102.655 65.0805 102.025 65.3979 101.456C65.7152 100.887 66.1539 100.429 66.7139 100.084C67.2832 99.7386 67.9319 99.5659 68.6599 99.5659C69.3972 99.5659 70.0365 99.7433 70.5779 100.098C71.1285 100.443 71.5532 100.901 71.8519 101.47C72.1599 102.03 72.3139 102.637 72.3139 103.29C72.3139 103.383 72.3092 103.477 72.2999 103.57C72.2999 103.654 72.2952 103.719 72.2859 103.766H66.2239C66.2612 104.242 66.3919 104.667 66.6159 105.04C66.8492 105.404 67.1479 105.693 67.5119 105.908C67.8759 106.113 68.2679 106.216 68.6879 106.216C69.1359 106.216 69.5559 106.104 69.9479 105.88C70.3492 105.656 70.6245 105.362 70.7739 104.998L71.8379 105.292C71.6792 105.647 71.4412 105.964 71.1239 106.244C70.8159 106.524 70.4472 106.743 70.0179 106.902C69.5979 107.061 69.1405 107.14 68.6459 107.14ZM66.1819 102.912H71.1659C71.1285 102.436 70.9932 102.016 70.7599 101.652C70.5265 101.288 70.2279 101.003 69.8639 100.798C69.4999 100.593 69.0985 100.49 68.6599 100.49C68.2305 100.49 67.8339 100.593 67.4699 100.798C67.1059 101.003 66.8072 101.288 66.5739 101.652C66.3499 102.016 66.2192 102.436 66.1819 102.912Z" fill="white"/>
<path d="M63.4965 107H62.2645V102.912C62.2645 102.147 62.1385 101.582 61.8865 101.218C61.6438 100.854 61.2799 100.672 60.7945 100.672C60.2999 100.672 59.8518 100.854 59.4505 101.218C59.0492 101.573 58.7645 102.035 58.5965 102.604V107H57.3645V102.912C57.3645 102.137 57.2432 101.573 57.0005 101.218C56.7578 100.854 56.3938 100.672 55.9085 100.672C55.4232 100.672 54.9752 100.849 54.5645 101.204C54.1632 101.549 53.8785 102.011 53.7105 102.59V107H52.4785V99.6919H53.5985V101.26C53.8972 100.719 54.2845 100.303 54.7605 100.014C55.2365 99.7153 55.7732 99.5659 56.3705 99.5659C56.9772 99.5659 57.4625 99.7339 57.8265 100.07C58.1905 100.397 58.4145 100.821 58.4985 101.344C58.8252 100.765 59.2218 100.327 59.6885 100.028C60.1552 99.7199 60.6872 99.5659 61.2845 99.5659C61.7045 99.5659 62.0545 99.6453 62.3345 99.8039C62.6239 99.9533 62.8525 100.168 63.0205 100.448C63.1885 100.719 63.3099 101.041 63.3845 101.414C63.4592 101.787 63.4965 102.193 63.4965 102.632V107Z" fill="white"/>
<path d="M44 104.074V99.6919H45.232V103.836C45.232 104.583 45.3627 105.143 45.624 105.516C45.8853 105.889 46.2727 106.076 46.786 106.076C47.122 106.076 47.444 106.006 47.752 105.866C48.0693 105.717 48.354 105.507 48.606 105.236C48.858 104.965 49.054 104.643 49.194 104.27V99.6919H50.426V105.6C50.426 105.749 50.454 105.861 50.51 105.936C50.5753 106.001 50.678 106.039 50.818 106.048V107C50.678 107.019 50.566 107.028 50.482 107.028C50.4073 107.037 50.3327 107.042 50.258 107.042C50.0247 107.042 49.824 106.972 49.656 106.832C49.488 106.683 49.3993 106.501 49.39 106.286L49.362 105.432C49.0447 105.973 48.6153 106.393 48.074 106.692C47.542 106.991 46.9587 107.14 46.324 107.14C45.5587 107.14 44.98 106.883 44.588 106.37C44.196 105.847 44 105.082 44 104.074Z" fill="white"/>
<path d="M39.7402 107.14C39.1335 107.14 38.5642 107.042 38.0322 106.846C37.5002 106.641 37.0428 106.337 36.6602 105.936L37.1362 105.068C37.5562 105.46 37.9762 105.74 38.3962 105.908C38.8162 106.076 39.2455 106.16 39.6842 106.16C40.1882 106.16 40.5988 106.067 40.9162 105.88C41.2335 105.684 41.3922 105.399 41.3922 105.026C41.3922 104.755 41.3082 104.555 41.1402 104.424C40.9815 104.293 40.7528 104.186 40.4542 104.102C40.1555 104.009 39.8008 103.906 39.3902 103.794C38.8862 103.645 38.4615 103.486 38.1162 103.318C37.7708 103.15 37.5095 102.94 37.3322 102.688C37.1548 102.436 37.0662 102.119 37.0662 101.736C37.0662 101.269 37.1875 100.877 37.4302 100.56C37.6728 100.233 38.0042 99.9859 38.4242 99.8179C38.8535 99.6499 39.3388 99.5659 39.8802 99.5659C40.4215 99.5659 40.9115 99.6499 41.3502 99.8179C41.7888 99.9859 42.1668 100.233 42.4842 100.56L41.9242 101.414C41.6348 101.115 41.3175 100.896 40.9722 100.756C40.6268 100.607 40.2395 100.532 39.8102 100.532C39.5582 100.532 39.3108 100.565 39.0682 100.63C38.8255 100.686 38.6248 100.793 38.4662 100.952C38.3075 101.101 38.2282 101.316 38.2282 101.596C38.2282 101.829 38.2888 102.016 38.4102 102.156C38.5408 102.287 38.7275 102.399 38.9702 102.492C39.2222 102.585 39.5255 102.688 39.8802 102.8C40.4308 102.959 40.9068 103.117 41.3082 103.276C41.7188 103.435 42.0362 103.64 42.2602 103.892C42.4842 104.144 42.5962 104.494 42.5962 104.942C42.5962 105.633 42.3348 106.174 41.8122 106.566C41.2895 106.949 40.5988 107.14 39.7402 107.14Z" fill="white"/>
<path d="M32.1967 107.14C31.646 107.14 31.142 107.042 30.6847 106.846C30.2367 106.641 29.8447 106.365 29.5087 106.02C29.182 105.665 28.9253 105.259 28.7387 104.802C28.5613 104.345 28.4727 103.859 28.4727 103.346C28.4727 102.655 28.6313 102.025 28.9487 101.456C29.266 100.887 29.7047 100.429 30.2647 100.084C30.834 99.7386 31.4827 99.5659 32.2107 99.5659C32.948 99.5659 33.5873 99.7433 34.1287 100.098C34.6793 100.443 35.104 100.901 35.4027 101.47C35.7107 102.03 35.8647 102.637 35.8647 103.29C35.8647 103.383 35.86 103.477 35.8507 103.57C35.8507 103.654 35.846 103.719 35.8367 103.766H29.7747C29.812 104.242 29.9427 104.667 30.1667 105.04C30.4 105.404 30.6987 105.693 31.0627 105.908C31.4267 106.113 31.8187 106.216 32.2387 106.216C32.6867 106.216 33.1067 106.104 33.4987 105.88C33.9 105.656 34.1753 105.362 34.3247 104.998L35.3887 105.292C35.23 105.647 34.992 105.964 34.6747 106.244C34.3667 106.524 33.998 106.743 33.5687 106.902C33.1487 107.061 32.6913 107.14 32.1967 107.14ZM29.7327 102.912H34.7167C34.6793 102.436 34.544 102.016 34.3107 101.652C34.0773 101.288 33.7787 101.003 33.4147 100.798C33.0507 100.593 32.6493 100.49 32.2107 100.49C31.7813 100.49 31.3847 100.593 31.0207 100.798C30.6567 101.003 30.358 101.288 30.1247 101.652C29.9007 102.016 29.77 102.436 29.7327 102.912Z" fill="white"/>
<path d="M20.1904 107V97.0601H24.4464C24.8851 97.0601 25.2864 97.1534 25.6504 97.3401C26.0144 97.5174 26.3318 97.7601 26.6024 98.0681C26.8731 98.3667 27.0831 98.7074 27.2324 99.0901C27.3818 99.4634 27.4564 99.8461 27.4564 100.238C27.4564 100.695 27.3678 101.129 27.1904 101.54C27.0224 101.951 26.7798 102.301 26.4624 102.59C26.1544 102.879 25.7904 103.08 25.3704 103.192L27.7784 107H26.3504L24.0824 103.43H21.4504V107H20.1904ZM21.4504 102.31H24.4604C24.8058 102.31 25.1044 102.217 25.3564 102.03C25.6178 101.834 25.8184 101.577 25.9584 101.26C26.1078 100.943 26.1824 100.602 26.1824 100.238C26.1824 99.8647 26.0984 99.5241 25.9304 99.2161C25.7624 98.8987 25.5431 98.6467 25.2724 98.4601C25.0018 98.2734 24.7031 98.1801 24.3764 98.1801H21.4504V102.31Z" fill="white"/>
</g>
<g filter="url(#filter1_b_134_4041)">
<rect x="223" width="191" height="129" rx="12" fill="black" fill-opacity="0.15"/>
<mask id="mask2_134_4041" style="mask-type:alpha" maskUnits="userSpaceOnUse" x="242" y="22" width="18" height="18">
<path d="M242 22H260V40H242V22Z" fill="#D9D9D9"/>
</mask>
<g mask="url(#mask2_134_4041)">
<path d="M254 37V31.75H257V37H254ZM249.5 37V25H252.5V37H249.5ZM245 37V28.75H248V37H245Z" fill="white"/>
</g>
<path d="M363 31.4999C363 33.489 362.21 35.3967 360.803 36.8032C359.397 38.2097 357.489 38.9999 355.5 38.9999C353.511 38.9999 351.603 38.2097 350.197 36.8032C348.79 35.3967 348 33.489 348 31.4999H349.246C349.246 33.1587 349.905 34.7495 351.078 35.9224C352.25 37.0953 353.841 37.7542 355.5 37.7542C357.159 37.7542 358.75 37.0953 359.922 35.9224C361.095 34.7495 361.754 33.1587 361.754 31.4999H363Z" fill="#C4CACD" fill-opacity="0.8"/>
<path d="M355.862 24.0086C357.849 24.1046 359.716 24.9859 361.053 26.4586C362.39 27.9314 363.087 29.8749 362.991 31.8617L361.747 31.8016C361.827 30.1448 361.246 28.5241 360.131 27.2959C359.016 26.0678 357.459 25.3328 355.802 25.2528L355.862 24.0086Z" fill="white" fill-opacity="0.8"/>
<path d="M348 31.4999C348 30.3572 348.262 29.2295 348.764 28.2031C349.266 27.1767 349.996 26.2786 350.899 25.5775L351.663 26.5612C350.911 27.1458 350.302 27.8947 349.883 28.7507C349.464 29.6066 349.246 30.547 349.246 31.4999H348Z" fill="white" fill-opacity="0.8"/>
<path d="M350.899 25.5775C352.384 24.4236 354.248 23.8699 356.122 24.0259L356.019 25.2673C354.456 25.1372 352.902 25.599 351.663 26.5612L350.899 25.5775Z" fill="#C4CACD" fill-opacity="0.8"/>
<mask id="mask3_134_4041" style="mask-type:alpha" maskUnits="userSpaceOnUse" x="377" y="22" width="18" height="18">
<path d="M377 22H395V40H377V22Z" fill="#D9D9D9"/>
</mask>
<g mask="url(#mask3_134_4041)">
<path fill-rule="evenodd" clip-rule="evenodd" d="M383.075 37.9094C383.987 38.3031 384.963 38.5 386 38.5C387.038 38.5 388.012 38.3031 388.925 37.9094C389.838 37.5156 390.631 36.9813 391.306 36.3063C391.981 35.6313 392.516 34.8375 392.909 33.925C393.303 33.0125 393.5 32.0375 393.5 31C393.5 29.9625 393.303 28.9875 392.909 28.075C392.516 27.1625 391.981 26.3687 391.306 25.6937C390.631 25.0187 389.838 24.4844 388.925 24.0906C388.012 23.6969 387.038 23.5 386 23.5C384.963 23.5 383.987 23.6969 383.075 24.0906C382.162 24.4844 381.369 25.0187 380.694 25.6937C380.019 26.3687 379.484 27.1625 379.091 28.075C378.697 28.9875 378.5 29.9625 378.5 31C378.5 32.0375 378.697 33.0125 379.091 33.925C379.484 34.8375 380.019 35.6313 380.694 36.3063C381.369 36.9813 382.162 37.5156 383.075 37.9094ZM390.256 35.2563C389.094 36.4188 387.675 37 386 37C384.325 37 382.906 36.4188 381.744 35.2563C380.581 34.0938 380 32.675 380 31C380 29.325 380.581 27.9062 381.744 26.7438C382.906 25.5813 384.325 25 386 25C387.675 25 389.094 25.5813 390.256 26.7438C391.419 27.9062 392 29.325 392 31C392 32.675 391.419 34.0938 390.256 35.2563Z" fill="#C4CACD" fill-opacity="0.8"/>
<path fill-rule="evenodd" clip-rule="evenodd" d="M386 37C387.675 37 389.094 36.4188 390.256 35.2563C391.419 34.0938 392 32.675 392 31C392 29.325 391.419 27.9062 390.256 26.7438C389.094 25.5813 387.675 25 386 25C384.325 25 382.906 25.5813 381.744 26.7438C380.581 27.9062 380 29.325 380 31C380 32.675 380.581 34.0938 381.744 35.2563C382.906 36.4188 384.325 37 386 37ZM386.75 34.75H385.25V31.75H382.25V30.25H385.25V27.25H386.75V30.25H389.75V31.75H386.75V34.75Z" fill="#C4CACD" fill-opacity="0.8"/>
</g>
<path d="M288.854 65.778C288.681 65.05 288.378 64.504 287.944 64.14C287.528 63.776 286.922 63.594 286.124 63.594C284.928 63.594 284.044 64.0793 283.472 65.05C282.918 66.0033 282.632 67.5633 282.614 69.73C283.03 69.0367 283.637 68.4993 284.434 68.118C285.232 67.7193 286.098 67.52 287.034 67.52C288.161 67.52 289.158 67.7627 290.024 68.248C290.891 68.7333 291.567 69.444 292.052 70.38C292.538 71.2987 292.78 72.408 292.78 73.708C292.78 74.9387 292.529 76.0393 292.026 77.01C291.541 77.9633 290.822 78.7087 289.868 79.246C288.915 79.7833 287.78 80.052 286.462 80.052C284.66 80.052 283.238 79.6533 282.198 78.856C281.176 78.0587 280.456 76.9493 280.04 75.528C279.642 74.0893 279.442 72.3213 279.442 70.224C279.442 67.052 279.988 64.66 281.08 63.048C282.172 61.4187 283.897 60.604 286.254 60.604C288.074 60.604 289.487 61.098 290.492 62.086C291.498 63.074 292.078 64.3047 292.234 65.778H288.854ZM286.202 70.51C285.284 70.51 284.512 70.7787 283.888 71.316C283.264 71.8533 282.952 72.6333 282.952 73.656C282.952 74.6787 283.238 75.4847 283.81 76.074C284.4 76.6633 285.223 76.958 286.28 76.958C287.216 76.958 287.953 76.672 288.49 76.1C289.045 75.528 289.322 74.7567 289.322 73.786C289.322 72.7807 289.054 71.9833 288.516 71.394C287.996 70.8047 287.225 70.51 286.202 70.51Z" fill="white"/>
<path d="M262.218 70.2759C262.218 67.2772 262.755 64.9286 263.83 63.2299C264.922 61.5312 266.724 60.6819 269.238 60.6819C271.751 60.6819 273.545 61.5312 274.62 63.2299C275.712 64.9286 276.258 67.2772 276.258 70.2759C276.258 73.2919 275.712 75.6579 274.62 77.3739C273.545 79.0899 271.751 79.9479 269.238 79.9479C266.724 79.9479 264.922 79.0899 263.83 77.3739C262.755 75.6579 262.218 73.2919 262.218 70.2759ZM272.67 70.2759C272.67 68.9932 272.583 67.9186 272.41 67.0519C272.254 66.1679 271.924 65.4486 271.422 64.8939C270.936 64.3392 270.208 64.0619 269.238 64.0619C268.267 64.0619 267.53 64.3392 267.028 64.8939C266.542 65.4486 266.213 66.1679 266.04 67.0519C265.884 67.9186 265.806 68.9932 265.806 70.2759C265.806 71.5932 265.884 72.7026 266.04 73.6039C266.196 74.4879 266.525 75.2072 267.028 75.7619C267.53 76.2992 268.267 76.5679 269.238 76.5679C270.208 76.5679 270.945 76.2992 271.448 75.7619C271.95 75.2072 272.28 74.4879 272.436 73.6039C272.592 72.7026 272.67 71.5932 272.67 70.2759Z" fill="white"/>
<path d="M252.355 64.3999V61.0459H258.621V79.9999H254.877V64.3999H252.355Z" fill="white"/>
<path d="M242.936 64.3999V61.0459H249.202V79.9999H245.458V64.3999H242.936Z" fill="white"/>
<path d="M354.818 103.36C354.818 102.669 354.958 102.039 355.238 101.47C355.528 100.891 355.92 100.429 356.414 100.084C356.918 99.7387 357.492 99.566 358.136 99.566C358.724 99.566 359.252 99.72 359.718 100.028C360.185 100.336 360.549 100.709 360.81 101.148V96.78H362.042V105.6C362.042 105.749 362.07 105.861 362.126 105.936C362.192 106.001 362.294 106.039 362.434 106.048V107C362.201 107.037 362.019 107.056 361.888 107.056C361.646 107.056 361.431 106.972 361.244 106.804C361.067 106.636 360.978 106.449 360.978 106.244V105.628C360.689 106.095 360.302 106.463 359.816 106.734C359.331 107.005 358.827 107.14 358.304 107.14C357.8 107.14 357.334 107.042 356.904 106.846C356.484 106.641 356.116 106.361 355.798 106.006C355.49 105.651 355.248 105.25 355.07 104.802C354.902 104.345 354.818 103.864 354.818 103.36ZM360.81 104.438V102.338C360.698 102.021 360.516 101.736 360.264 101.484C360.012 101.223 359.728 101.017 359.41 100.868C359.102 100.709 358.794 100.63 358.486 100.63C358.122 100.63 357.791 100.709 357.492 100.868C357.203 101.017 356.951 101.223 356.736 101.484C356.531 101.736 356.372 102.025 356.26 102.352C356.148 102.679 356.092 103.019 356.092 103.374C356.092 103.738 356.153 104.083 356.274 104.41C356.405 104.737 356.582 105.026 356.806 105.278C357.04 105.53 357.306 105.726 357.604 105.866C357.912 106.006 358.244 106.076 358.598 106.076C358.822 106.076 359.051 106.034 359.284 105.95C359.527 105.866 359.756 105.749 359.97 105.6C360.185 105.451 360.367 105.278 360.516 105.082C360.666 104.877 360.764 104.662 360.81 104.438Z" fill="white"/>
<path d="M350.257 107.14C349.707 107.14 349.203 107.042 348.745 106.846C348.297 106.641 347.905 106.365 347.569 106.02C347.243 105.665 346.986 105.259 346.799 104.802C346.622 104.345 346.533 103.859 346.533 103.346C346.533 102.655 346.692 102.025 347.009 101.456C347.327 100.887 347.765 100.429 348.325 100.084C348.895 99.7386 349.543 99.5659 350.271 99.5659C351.009 99.5659 351.648 99.7433 352.189 100.098C352.74 100.443 353.165 100.901 353.463 101.47C353.771 102.03 353.925 102.637 353.925 103.29C353.925 103.383 353.921 103.477 353.911 103.57C353.911 103.654 353.907 103.719 353.897 103.766H347.835C347.873 104.242 348.003 104.667 348.227 105.04C348.461 105.404 348.759 105.693 349.123 105.908C349.487 106.113 349.879 106.216 350.299 106.216C350.747 106.216 351.167 106.104 351.559 105.88C351.961 105.656 352.236 105.362 352.385 104.998L353.449 105.292C353.291 105.647 353.053 105.964 352.735 106.244C352.427 106.524 352.059 106.743 351.629 106.902C351.209 107.061 350.752 107.14 350.257 107.14ZM347.793 102.912H352.777C352.74 102.436 352.605 102.016 352.371 101.652C352.138 101.288 351.839 101.003 351.475 100.798C351.111 100.593 350.71 100.49 350.271 100.49C349.842 100.49 349.445 100.593 349.081 100.798C348.717 101.003 348.419 101.288 348.185 101.652C347.961 102.016 347.831 102.436 347.793 102.912Z" fill="white"/>
<path d="M345.977 106.636C345.874 106.683 345.734 106.743 345.557 106.818C345.379 106.893 345.174 106.958 344.941 107.014C344.707 107.07 344.46 107.098 344.199 107.098C343.9 107.098 343.625 107.047 343.373 106.944C343.121 106.832 342.92 106.664 342.771 106.44C342.621 106.207 342.547 105.917 342.547 105.572V100.658H341.553V99.6921H342.547V97.2561H343.779V99.6921H345.417V100.658H343.779V105.194C343.797 105.455 343.886 105.651 344.045 105.782C344.203 105.903 344.39 105.964 344.605 105.964C344.847 105.964 345.071 105.922 345.277 105.838C345.482 105.754 345.617 105.693 345.683 105.656L345.977 106.636Z" fill="white"/>
<path d="M337.679 107.14C337.128 107.14 336.624 107.042 336.167 106.846C335.719 106.641 335.327 106.361 334.991 106.006C334.664 105.651 334.408 105.245 334.221 104.788C334.044 104.331 333.955 103.845 333.955 103.332C333.955 102.641 334.109 102.011 334.417 101.442C334.725 100.873 335.159 100.42 335.719 100.084C336.279 99.7386 336.928 99.5659 337.665 99.5659C338.384 99.5659 339.009 99.7293 339.541 100.056C340.082 100.373 340.484 100.803 340.745 101.344L339.541 101.722C339.354 101.377 339.093 101.111 338.757 100.924C338.421 100.728 338.048 100.63 337.637 100.63C337.189 100.63 336.778 100.747 336.405 100.98C336.041 101.213 335.752 101.535 335.537 101.946C335.322 102.347 335.215 102.809 335.215 103.332C335.215 103.845 335.322 104.312 335.537 104.732C335.761 105.143 336.055 105.469 336.419 105.712C336.792 105.955 337.203 106.076 337.651 106.076C337.94 106.076 338.216 106.025 338.477 105.922C338.748 105.819 338.981 105.684 339.177 105.516C339.382 105.339 339.522 105.147 339.597 104.942L340.801 105.306C340.652 105.661 340.423 105.978 340.115 106.258C339.816 106.529 339.457 106.743 339.037 106.902C338.626 107.061 338.174 107.14 337.679 107.14Z" fill="white"/>
<path d="M329.408 107.14C328.857 107.14 328.353 107.042 327.896 106.846C327.448 106.641 327.056 106.365 326.72 106.02C326.393 105.665 326.136 105.259 325.95 104.802C325.772 104.345 325.684 103.859 325.684 103.346C325.684 102.655 325.842 102.025 326.16 101.456C326.477 100.887 326.916 100.429 327.476 100.084C328.045 99.7386 328.694 99.5659 329.422 99.5659C330.159 99.5659 330.798 99.7433 331.34 100.098C331.89 100.443 332.315 100.901 332.614 101.47C332.922 102.03 333.076 102.637 333.076 103.29C333.076 103.383 333.071 103.477 333.062 103.57C333.062 103.654 333.057 103.719 333.048 103.766H326.986C327.023 104.242 327.154 104.667 327.378 105.04C327.611 105.404 327.91 105.693 328.274 105.908C328.638 106.113 329.03 106.216 329.45 106.216C329.898 106.216 330.318 106.104 330.71 105.88C331.111 105.656 331.386 105.362 331.536 104.998L332.6 105.292C332.441 105.647 332.203 105.964 331.886 106.244C331.578 106.524 331.209 106.743 330.78 106.902C330.36 107.061 329.902 107.14 329.408 107.14ZM326.944 102.912H331.928C331.89 102.436 331.755 102.016 331.522 101.652C331.288 101.288 330.99 101.003 330.626 100.798C330.262 100.593 329.86 100.49 329.422 100.49C328.992 100.49 328.596 100.593 328.232 100.798C327.868 101.003 327.569 101.288 327.336 101.652C327.112 102.016 326.981 102.436 326.944 102.912Z" fill="white"/>
<path d="M322.196 96.78H323.428V105.11C323.428 105.511 323.484 105.759 323.596 105.852C323.708 105.945 323.844 105.992 324.002 105.992C324.198 105.992 324.385 105.973 324.562 105.936C324.74 105.889 324.889 105.843 325.01 105.796L325.206 106.804C325.001 106.888 324.758 106.958 324.478 107.014C324.198 107.07 323.951 107.098 323.736 107.098C323.26 107.098 322.882 106.963 322.602 106.692C322.332 106.421 322.196 106.043 322.196 105.558V96.78Z" fill="white"/>
<path d="M317.13 107.14C316.58 107.14 316.076 107.042 315.618 106.846C315.17 106.641 314.778 106.365 314.442 106.02C314.116 105.665 313.859 105.259 313.672 104.802C313.495 104.345 313.406 103.859 313.406 103.346C313.406 102.655 313.565 102.025 313.882 101.456C314.2 100.887 314.638 100.429 315.198 100.084C315.768 99.7386 316.416 99.5659 317.144 99.5659C317.882 99.5659 318.521 99.7433 319.062 100.098C319.613 100.443 320.038 100.901 320.336 101.47C320.644 102.03 320.798 102.637 320.798 103.29C320.798 103.383 320.794 103.477 320.784 103.57C320.784 103.654 320.78 103.719 320.77 103.766H314.708C314.746 104.242 314.876 104.667 315.1 105.04C315.334 105.404 315.632 105.693 315.996 105.908C316.36 106.113 316.752 106.216 317.172 106.216C317.62 106.216 318.04 106.104 318.432 105.88C318.834 105.656 319.109 105.362 319.258 104.998L320.322 105.292C320.164 105.647 319.926 105.964 319.608 106.244C319.3 106.524 318.932 106.743 318.502 106.902C318.082 107.061 317.625 107.14 317.13 107.14ZM314.666 102.912H319.65C319.613 102.436 319.478 102.016 319.244 101.652C319.011 101.288 318.712 101.003 318.348 100.798C317.984 100.593 317.583 100.49 317.144 100.49C316.715 100.49 316.318 100.593 315.954 100.798C315.59 101.003 315.292 101.288 315.058 101.652C314.834 102.016 314.704 102.436 314.666 102.912Z" fill="white"/>
<path d="M309.566 107.14C308.96 107.14 308.39 107.042 307.858 106.846C307.326 106.641 306.869 106.337 306.486 105.936L306.962 105.068C307.382 105.46 307.802 105.74 308.222 105.908C308.642 106.076 309.072 106.16 309.51 106.16C310.014 106.16 310.425 106.067 310.742 105.88C311.06 105.684 311.218 105.399 311.218 105.026C311.218 104.755 311.134 104.555 310.966 104.424C310.808 104.293 310.579 104.186 310.28 104.102C309.982 104.009 309.627 103.906 309.216 103.794C308.712 103.645 308.288 103.486 307.942 103.318C307.597 103.15 307.336 102.94 307.158 102.688C306.981 102.436 306.892 102.119 306.892 101.736C306.892 101.269 307.014 100.877 307.256 100.56C307.499 100.233 307.83 99.9859 308.25 99.8179C308.68 99.6499 309.165 99.5659 309.706 99.5659C310.248 99.5659 310.738 99.6499 311.176 99.8179C311.615 99.9859 311.993 100.233 312.31 100.56L311.75 101.414C311.461 101.115 311.144 100.896 310.798 100.756C310.453 100.607 310.066 100.532 309.636 100.532C309.384 100.532 309.137 100.565 308.894 100.63C308.652 100.686 308.451 100.793 308.292 100.952C308.134 101.101 308.054 101.316 308.054 101.596C308.054 101.829 308.115 102.016 308.236 102.156C308.367 102.287 308.554 102.399 308.796 102.492C309.048 102.585 309.352 102.688 309.706 102.8C310.257 102.959 310.733 103.117 311.134 103.276C311.545 103.435 311.862 103.64 312.086 103.892C312.31 104.144 312.422 104.494 312.422 104.942C312.422 105.633 312.161 106.174 311.638 106.566C311.116 106.949 310.425 107.14 309.566 107.14Z" fill="white"/>
<path d="M299.189 107.14C298.583 107.14 298.013 107.042 297.481 106.846C296.949 106.641 296.492 106.337 296.109 105.936L296.585 105.068C297.005 105.46 297.425 105.74 297.845 105.908C298.265 106.076 298.695 106.16 299.133 106.16C299.637 106.16 300.048 106.067 300.365 105.88C300.683 105.684 300.841 105.399 300.841 105.026C300.841 104.755 300.757 104.555 300.589 104.424C300.431 104.293 300.202 104.186 299.903 104.102C299.605 104.009 299.25 103.906 298.839 103.794C298.335 103.645 297.911 103.486 297.565 103.318C297.22 103.15 296.959 102.94 296.781 102.688C296.604 102.436 296.515 102.119 296.515 101.736C296.515 101.269 296.637 100.877 296.879 100.56C297.122 100.233 297.453 99.9859 297.873 99.8179C298.303 99.6499 298.788 99.5659 299.329 99.5659C299.871 99.5659 300.361 99.6499 300.799 99.8179C301.238 99.9859 301.616 100.233 301.933 100.56L301.373 101.414C301.084 101.115 300.767 100.896 300.421 100.756C300.076 100.607 299.689 100.532 299.259 100.532C299.007 100.532 298.76 100.565 298.517 100.63C298.275 100.686 298.074 100.793 297.915 100.952C297.757 101.101 297.677 101.316 297.677 101.596C297.677 101.829 297.738 102.016 297.859 102.156C297.99 102.287 298.177 102.399 298.419 102.492C298.671 102.585 298.975 102.688 299.329 102.8C299.88 102.959 300.356 103.117 300.757 103.276C301.168 103.435 301.485 103.64 301.709 103.892C301.933 104.144 302.045 104.494 302.045 104.942C302.045 105.633 301.784 106.174 301.261 106.566C300.739 106.949 300.048 107.14 299.189 107.14Z" fill="white"/>
<path d="M291.646 107.14C291.095 107.14 290.591 107.042 290.134 106.846C289.686 106.641 289.294 106.365 288.958 106.02C288.631 105.665 288.375 105.259 288.188 104.802C288.011 104.345 287.922 103.859 287.922 103.346C287.922 102.655 288.081 102.025 288.398 101.456C288.715 100.887 289.154 100.429 289.714 100.084C290.283 99.7386 290.932 99.5659 291.66 99.5659C292.397 99.5659 293.037 99.7433 293.578 100.098C294.129 100.443 294.553 100.901 294.852 101.47C295.16 102.03 295.314 102.637 295.314 103.29C295.314 103.383 295.309 103.477 295.3 103.57C295.3 103.654 295.295 103.719 295.286 103.766H289.224C289.261 104.242 289.392 104.667 289.616 105.04C289.849 105.404 290.148 105.693 290.512 105.908C290.876 106.113 291.268 106.216 291.688 106.216C292.136 106.216 292.556 106.104 292.948 105.88C293.349 105.656 293.625 105.362 293.774 104.998L294.838 105.292C294.679 105.647 294.441 105.964 294.124 106.244C293.816 106.524 293.447 106.743 293.018 106.902C292.598 107.061 292.141 107.14 291.646 107.14ZM289.182 102.912H294.166C294.129 102.436 293.993 102.016 293.76 101.652C293.527 101.288 293.228 101.003 292.864 100.798C292.5 100.593 292.099 100.49 291.66 100.49C291.231 100.49 290.834 100.593 290.47 100.798C290.106 101.003 289.807 101.288 289.574 101.652C289.35 102.016 289.219 102.436 289.182 102.912Z" fill="white"/>
<path d="M286.497 107H285.265V102.912C285.265 102.147 285.139 101.582 284.887 101.218C284.644 100.854 284.28 100.672 283.795 100.672C283.3 100.672 282.852 100.854 282.451 101.218C282.049 101.573 281.765 102.035 281.597 102.604V107H280.365V102.912C280.365 102.137 280.243 101.573 280.001 101.218C279.758 100.854 279.394 100.672 278.909 100.672C278.423 100.672 277.975 100.849 277.565 101.204C277.163 101.549 276.879 102.011 276.711 102.59V107H275.479V99.6919H276.599V101.26C276.897 100.719 277.285 100.303 277.761 100.014C278.237 99.7153 278.773 99.5659 279.371 99.5659C279.977 99.5659 280.463 99.7339 280.827 100.07C281.191 100.397 281.415 100.821 281.499 101.344C281.825 100.765 282.222 100.327 282.689 100.028C283.155 99.7199 283.687 99.5659 284.285 99.5659C284.705 99.5659 285.055 99.6453 285.335 99.8039C285.624 99.9533 285.853 100.168 286.021 100.448C286.189 100.719 286.31 101.041 286.385 101.414C286.459 101.787 286.497 102.193 286.497 102.632V107Z" fill="white"/>
<path d="M267 104.074V99.6919H268.232V103.836C268.232 104.583 268.363 105.143 268.624 105.516C268.885 105.889 269.273 106.076 269.786 106.076C270.122 106.076 270.444 106.006 270.752 105.866C271.069 105.717 271.354 105.507 271.606 105.236C271.858 104.965 272.054 104.643 272.194 104.27V99.6919H273.426V105.6C273.426 105.749 273.454 105.861 273.51 105.936C273.575 106.001 273.678 106.039 273.818 106.048V107C273.678 107.019 273.566 107.028 273.482 107.028C273.407 107.037 273.333 107.042 273.258 107.042C273.025 107.042 272.824 106.972 272.656 106.832C272.488 106.683 272.399 106.501 272.39 106.286L272.362 105.432C272.045 105.973 271.615 106.393 271.074 106.692C270.542 106.991 269.959 107.14 269.324 107.14C268.559 107.14 267.98 106.883 267.588 106.37C267.196 105.847 267 105.082 267 104.074Z" fill="white"/>
<path d="M262.74 107.14C262.133 107.14 261.564 107.042 261.032 106.846C260.5 106.641 260.043 106.337 259.66 105.936L260.136 105.068C260.556 105.46 260.976 105.74 261.396 105.908C261.816 106.076 262.245 106.16 262.684 106.16C263.188 106.16 263.599 106.067 263.916 105.88C264.233 105.684 264.392 105.399 264.392 105.026C264.392 104.755 264.308 104.555 264.14 104.424C263.981 104.293 263.753 104.186 263.454 104.102C263.155 104.009 262.801 103.906 262.39 103.794C261.886 103.645 261.461 103.486 261.116 103.318C260.771 103.15 260.509 102.94 260.332 102.688C260.155 102.436 260.066 102.119 260.066 101.736C260.066 101.269 260.187 100.877 260.43 100.56C260.673 100.233 261.004 99.9859 261.424 99.8179C261.853 99.6499 262.339 99.5659 262.88 99.5659C263.421 99.5659 263.911 99.6499 264.35 99.8179C264.789 99.9859 265.167 100.233 265.484 100.56L264.924 101.414C264.635 101.115 264.317 100.896 263.972 100.756C263.627 100.607 263.239 100.532 262.81 100.532C262.558 100.532 262.311 100.565 262.068 100.63C261.825 100.686 261.625 100.793 261.466 100.952C261.307 101.101 261.228 101.316 261.228 101.596C261.228 101.829 261.289 102.016 261.41 102.156C261.541 102.287 261.727 102.399 261.97 102.492C262.222 102.585 262.525 102.688 262.88 102.8C263.431 102.959 263.907 103.117 264.308 103.276C264.719 103.435 265.036 103.64 265.26 103.892C265.484 104.144 265.596 104.494 265.596 104.942C265.596 105.633 265.335 106.174 264.812 106.566C264.289 106.949 263.599 107.14 262.74 107.14Z" fill="white"/>
<path d="M255.197 107.14C254.646 107.14 254.142 107.042 253.685 106.846C253.237 106.641 252.845 106.365 252.509 106.02C252.182 105.665 251.925 105.259 251.739 104.802C251.561 104.345 251.473 103.859 251.473 103.346C251.473 102.655 251.631 102.025 251.949 101.456C252.266 100.887 252.705 100.429 253.265 100.084C253.834 99.7386 254.483 99.5659 255.211 99.5659C255.948 99.5659 256.587 99.7433 257.129 100.098C257.679 100.443 258.104 100.901 258.403 101.47C258.711 102.03 258.865 102.637 258.865 103.29C258.865 103.383 258.86 103.477 258.851 103.57C258.851 103.654 258.846 103.719 258.837 103.766H252.775C252.812 104.242 252.943 104.667 253.167 105.04C253.4 105.404 253.699 105.693 254.063 105.908C254.427 106.113 254.819 106.216 255.239 106.216C255.687 106.216 256.107 106.104 256.499 105.88C256.9 105.656 257.175 105.362 257.325 104.998L258.389 105.292C258.23 105.647 257.992 105.964 257.675 106.244C257.367 106.524 256.998 106.743 256.569 106.902C256.149 107.061 255.691 107.14 255.197 107.14ZM252.733 102.912H257.717C257.679 102.436 257.544 102.016 257.311 101.652C257.077 101.288 256.779 101.003 256.415 100.798C256.051 100.593 255.649 100.49 255.211 100.49C254.781 100.49 254.385 100.593 254.021 100.798C253.657 101.003 253.358 101.288 253.125 101.652C252.901 102.016 252.77 102.436 252.733 102.912Z" fill="white"/>
<path d="M243.19 107V97.0601H247.446C247.885 97.0601 248.286 97.1534 248.65 97.3401C249.014 97.5174 249.332 97.7601 249.602 98.0681C249.873 98.3667 250.083 98.7074 250.232 99.0901C250.382 99.4634 250.456 99.8461 250.456 100.238C250.456 100.695 250.368 101.129 250.19 101.54C250.022 101.951 249.78 102.301 249.462 102.59C249.154 102.879 248.79 103.08 248.37 103.192L250.778 107H249.35L247.082 103.43H244.45V107H243.19ZM244.45 102.31H247.46C247.806 102.31 248.104 102.217 248.356 102.03C248.618 101.834 248.818 101.577 248.958 101.26C249.108 100.943 249.182 100.602 249.182 100.238C249.182 99.8647 249.098 99.5241 248.93 99.2161C248.762 98.8987 248.543 98.6467 248.272 98.4601C248.002 98.2734 247.703 98.1801 247.376 98.1801H244.45V102.31Z" fill="white"/>
</g>
<g filter="url(#filter2_b_134_4041)">
<rect x="446" width="191" height="129" rx="12" fill="black" fill-opacity="0.15"/>
<mask id="mask4_134_4041" style="mask-type:alpha" maskUnits="userSpaceOnUse" x="465" y="22" width="18" height="18">
<path d="M465 22H483V40H465V22Z" fill="#D9D9D9"/>
</mask>
<g mask="url(#mask4_134_4041)">
<path d="M477 37V31.75H480V37H477ZM472.5 37V25H475.5V37H472.5ZM468 37V28.75H471V37H468Z" fill="white"/>
</g>
<path d="M586 31.4999C586 33.489 585.21 35.3967 583.803 36.8032C582.397 38.2097 580.489 38.9999 578.5 38.9999C576.511 38.9999 574.603 38.2097 573.197 36.8032C571.79 35.3967 571 33.489 571 31.4999H572.246C572.246 33.1587 572.905 34.7495 574.078 35.9224C575.25 37.0953 576.841 37.7542 578.5 37.7542C580.159 37.7542 581.75 37.0953 582.922 35.9224C584.095 34.7495 584.754 33.1587 584.754 31.4999H586Z" fill="#C4CACD" fill-opacity="0.8"/>
<path d="M578.862 24.0086C580.849 24.1046 582.716 24.9859 584.053 26.4586C585.39 27.9314 586.087 29.8749 585.991 31.8617L584.747 31.8016C584.827 30.1448 584.246 28.5241 583.131 27.2959C582.016 26.0678 580.459 25.3328 578.802 25.2528L578.862 24.0086Z" fill="white" fill-opacity="0.8"/>
<path d="M571 31.4999C571 30.3572 571.262 29.2295 571.764 28.2031C572.266 27.1767 572.996 26.2786 573.899 25.5775L574.663 26.5612C573.911 27.1458 573.302 27.8947 572.883 28.7507C572.464 29.6066 572.246 30.547 572.246 31.4999H571Z" fill="white" fill-opacity="0.8"/>
<path d="M573.899 25.5775C575.384 24.4236 577.248 23.8699 579.122 24.0259L579.019 25.2673C577.456 25.1372 575.902 25.599 574.663 26.5612L573.899 25.5775Z" fill="#C4CACD" fill-opacity="0.8"/>
<mask id="mask5_134_4041" style="mask-type:alpha" maskUnits="userSpaceOnUse" x="600" y="22" width="18" height="18">
<path d="M600 22H618V40H600V22Z" fill="#D9D9D9"/>
</mask>
<g mask="url(#mask5_134_4041)">
<path fill-rule="evenodd" clip-rule="evenodd" d="M606.075 37.9094C606.987 38.3031 607.963 38.5 609 38.5C610.038 38.5 611.012 38.3031 611.925 37.9094C612.838 37.5156 613.631 36.9813 614.306 36.3063C614.981 35.6313 615.516 34.8375 615.909 33.925C616.303 33.0125 616.5 32.0375 616.5 31C616.5 29.9625 616.303 28.9875 615.909 28.075C615.516 27.1625 614.981 26.3687 614.306 25.6937C613.631 25.0187 612.838 24.4844 611.925 24.0906C611.012 23.6969 610.038 23.5 609 23.5C607.963 23.5 606.987 23.6969 606.075 24.0906C605.162 24.4844 604.369 25.0187 603.694 25.6937C603.019 26.3687 602.484 27.1625 602.091 28.075C601.697 28.9875 601.5 29.9625 601.5 31C601.5 32.0375 601.697 33.0125 602.091 33.925C602.484 34.8375 603.019 35.6313 603.694 36.3063C604.369 36.9813 605.162 37.5156 606.075 37.9094ZM613.256 35.2563C612.094 36.4188 610.675 37 609 37C607.325 37 605.906 36.4188 604.744 35.2563C603.581 34.0938 603 32.675 603 31C603 29.325 603.581 27.9062 604.744 26.7438C605.906 25.5813 607.325 25 609 25C610.675 25 612.094 25.5813 613.256 26.7438C614.419 27.9062 615 29.325 615 31C615 32.675 614.419 34.0938 613.256 35.2563Z" fill="#C4CACD" fill-opacity="0.8"/>
<path fill-rule="evenodd" clip-rule="evenodd" d="M609 37C610.675 37 612.094 36.4188 613.256 35.2563C614.419 34.0938 615 32.675 615 31C615 29.325 614.419 27.9062 613.256 26.7438C612.094 25.5813 610.675 25 609 25C607.325 25 605.906 25.5813 604.744 26.7438C603.581 27.9062 603 29.325 603 31C603 32.675 603.581 34.0938 604.744 35.2563C605.906 36.4188 607.325 37 609 37ZM609.75 34.75H608.25V31.75H605.25V30.25H608.25V27.25H609.75V30.25H612.75V31.75H609.75V34.75Z" fill="#C4CACD" fill-opacity="0.8"/>
</g>
<path d="M528.253 72.33H523.339V77.374H519.907V72.33H514.993V69.158H519.907V64.114H523.339V69.158H528.253V72.33Z" fill="white"/>
<path d="M497.431 70.2759C497.431 67.2772 497.968 64.9286 499.043 63.2299C500.135 61.5312 501.937 60.6819 504.451 60.6819C506.964 60.6819 508.758 61.5312 509.833 63.2299C510.925 64.9286 511.471 67.2772 511.471 70.2759C511.471 73.2919 510.925 75.6579 509.833 77.3739C508.758 79.0899 506.964 79.9479 504.451 79.9479C501.937 79.9479 500.135 79.0899 499.043 77.3739C497.968 75.6579 497.431 73.2919 497.431 70.2759ZM507.883 70.2759C507.883 68.9932 507.796 67.9186 507.623 67.0519C507.467 66.1679 507.137 65.4486 506.635 64.8939C506.149 64.3392 505.421 64.0619 504.451 64.0619C503.48 64.0619 502.743 64.3392 502.241 64.8939C501.755 65.4486 501.426 66.1679 501.253 67.0519C501.097 67.9186 501.019 68.9932 501.019 70.2759C501.019 71.5932 501.097 72.7026 501.253 73.6039C501.409 74.4879 501.738 75.2072 502.241 75.7619C502.743 76.2992 503.48 76.5679 504.451 76.5679C505.421 76.5679 506.158 76.2992 506.661 75.7619C507.163 75.2072 507.493 74.4879 507.649 73.6039C507.805 72.7026 507.883 71.5932 507.883 70.2759Z" fill="white"/>
<path d="M480.622 70.2759C480.622 67.2772 481.159 64.9286 482.234 63.2299C483.326 61.5312 485.129 60.6819 487.642 60.6819C490.155 60.6819 491.949 61.5312 493.024 63.2299C494.116 64.9286 494.662 67.2772 494.662 70.2759C494.662 73.2919 494.116 75.6579 493.024 77.3739C491.949 79.0899 490.155 79.9479 487.642 79.9479C485.129 79.9479 483.326 79.0899 482.234 77.3739C481.159 75.6579 480.622 73.2919 480.622 70.2759ZM491.074 70.2759C491.074 68.9932 490.987 67.9186 490.814 67.0519C490.658 66.1679 490.329 65.4486 489.826 64.8939C489.341 64.3392 488.613 64.0619 487.642 64.0619C486.671 64.0619 485.935 64.3392 485.432 64.8939C484.947 65.4486 484.617 66.1679 484.444 67.0519C484.288 67.9186 484.21 68.9932 484.21 70.2759C484.21 71.5932 484.288 72.7026 484.444 73.6039C484.6 74.4879 484.929 75.2072 485.432 75.7619C485.935 76.2992 486.671 76.5679 487.642 76.5679C488.613 76.5679 489.349 76.2992 489.852 75.7619C490.355 75.2072 490.684 74.4879 490.84 73.6039C490.996 72.7026 491.074 71.5932 491.074 70.2759Z" fill="white"/>
<path d="M478.442 63.8019L471.526 79.9999H467.834L474.802 64.2179H465.91V61.0979H478.442V63.8019Z" fill="white"/>
<path d="M598.463 103.36C598.463 102.669 598.603 102.039 598.883 101.47C599.172 100.891 599.564 100.429 600.059 100.084C600.563 99.7387 601.137 99.566 601.781 99.566C602.369 99.566 602.896 99.72 603.363 100.028C603.83 100.336 604.194 100.709 604.455 101.148V96.78H605.687V105.6C605.687 105.749 605.715 105.861 605.771 105.936C605.836 106.001 605.939 106.039 606.079 106.048V107C605.846 107.037 605.664 107.056 605.533 107.056C605.29 107.056 605.076 106.972 604.889 106.804C604.712 106.636 604.623 106.449 604.623 106.244V105.628C604.334 106.095 603.946 106.463 603.461 106.734C602.976 107.005 602.472 107.14 601.949 107.14C601.445 107.14 600.978 107.042 600.549 106.846C600.129 106.641 599.76 106.361 599.443 106.006C599.135 105.651 598.892 105.25 598.715 104.802C598.547 104.345 598.463 103.864 598.463 103.36ZM604.455 104.438V102.338C604.343 102.021 604.161 101.736 603.909 101.484C603.657 101.223 603.372 101.017 603.055 100.868C602.747 100.709 602.439 100.63 602.131 100.63C601.767 100.63 601.436 100.709 601.137 100.868C600.848 101.017 600.596 101.223 600.381 101.484C600.176 101.736 600.017 102.025 599.905 102.352C599.793 102.679 599.737 103.019 599.737 103.374C599.737 103.738 599.798 104.083 599.919 104.41C600.05 104.737 600.227 105.026 600.451 105.278C600.684 105.53 600.95 105.726 601.249 105.866C601.557 106.006 601.888 106.076 602.243 106.076C602.467 106.076 602.696 106.034 602.929 105.95C603.172 105.866 603.4 105.749 603.615 105.6C603.83 105.451 604.012 105.278 604.161 105.082C604.31 104.877 604.408 104.662 604.455 104.438Z" fill="white"/>
<path d="M593.902 107.14C593.351 107.14 592.847 107.042 592.39 106.846C591.942 106.641 591.55 106.365 591.214 106.02C590.887 105.665 590.63 105.259 590.444 104.802C590.266 104.345 590.178 103.859 590.178 103.346C590.178 102.655 590.336 102.025 590.654 101.456C590.971 100.887 591.41 100.429 591.97 100.084C592.539 99.7386 593.188 99.5659 593.916 99.5659C594.653 99.5659 595.292 99.7433 595.834 100.098C596.384 100.443 596.809 100.901 597.108 101.47C597.416 102.03 597.57 102.637 597.57 103.29C597.57 103.383 597.565 103.477 597.556 103.57C597.556 103.654 597.551 103.719 597.542 103.766H591.48C591.517 104.242 591.648 104.667 591.872 105.04C592.105 105.404 592.404 105.693 592.768 105.908C593.132 106.113 593.524 106.216 593.944 106.216C594.392 106.216 594.812 106.104 595.204 105.88C595.605 105.656 595.88 105.362 596.03 104.998L597.094 105.292C596.935 105.647 596.697 105.964 596.38 106.244C596.072 106.524 595.703 106.743 595.274 106.902C594.854 107.061 594.396 107.14 593.902 107.14ZM591.438 102.912H596.422C596.384 102.436 596.249 102.016 596.016 101.652C595.782 101.288 595.484 101.003 595.12 100.798C594.756 100.593 594.354 100.49 593.916 100.49C593.486 100.49 593.09 100.593 592.726 100.798C592.362 101.003 592.063 101.288 591.83 101.652C591.606 102.016 591.475 102.436 591.438 102.912Z" fill="white"/>
<path d="M589.621 106.636C589.519 106.683 589.379 106.743 589.201 106.818C589.024 106.893 588.819 106.958 588.585 107.014C588.352 107.07 588.105 107.098 587.843 107.098C587.545 107.098 587.269 107.047 587.017 106.944C586.765 106.832 586.565 106.664 586.415 106.44C586.266 106.207 586.191 105.917 586.191 105.572V100.658H585.197V99.6921H586.191V97.2561H587.423V99.6921H589.061V100.658H587.423V105.194C587.442 105.455 587.531 105.651 587.689 105.782C587.848 105.903 588.035 105.964 588.249 105.964C588.492 105.964 588.716 105.922 588.921 105.838C589.127 105.754 589.262 105.693 589.327 105.656L589.621 106.636Z" fill="white"/>
<path d="M581.324 107.14C580.773 107.14 580.269 107.042 579.812 106.846C579.364 106.641 578.972 106.361 578.636 106.006C578.309 105.651 578.052 105.245 577.866 104.788C577.688 104.331 577.6 103.845 577.6 103.332C577.6 102.641 577.754 102.011 578.062 101.442C578.37 100.873 578.804 100.42 579.364 100.084C579.924 99.7386 580.572 99.5659 581.31 99.5659C582.028 99.5659 582.654 99.7293 583.186 100.056C583.727 100.373 584.128 100.803 584.39 101.344L583.186 101.722C582.999 101.377 582.738 101.111 582.402 100.924C582.066 100.728 581.692 100.63 581.282 100.63C580.834 100.63 580.423 100.747 580.05 100.98C579.686 101.213 579.396 101.535 579.182 101.946C578.967 102.347 578.86 102.809 578.86 103.332C578.86 103.845 578.967 104.312 579.182 104.732C579.406 105.143 579.7 105.469 580.064 105.712C580.437 105.955 580.848 106.076 581.296 106.076C581.585 106.076 581.86 106.025 582.122 105.922C582.392 105.819 582.626 105.684 582.822 105.516C583.027 105.339 583.167 105.147 583.242 104.942L584.446 105.306C584.296 105.661 584.068 105.978 583.76 106.258C583.461 106.529 583.102 106.743 582.682 106.902C582.271 107.061 581.818 107.14 581.324 107.14Z" fill="white"/>
<path d="M569.611 104.074V99.6919H570.843V103.836C570.843 104.583 570.974 105.143 571.235 105.516C571.497 105.889 571.884 106.076 572.397 106.076C572.733 106.076 573.055 106.006 573.363 105.866C573.681 105.717 573.965 105.507 574.217 105.236C574.469 104.965 574.665 104.643 574.805 104.27V99.6919H576.037V105.6C576.037 105.749 576.065 105.861 576.121 105.936C576.187 106.001 576.289 106.039 576.429 106.048V107C576.289 107.019 576.177 107.028 576.093 107.028C576.019 107.037 575.944 107.042 575.869 107.042C575.636 107.042 575.435 106.972 575.267 106.832C575.099 106.683 575.011 106.501 575.001 106.286L574.973 105.432C574.656 105.973 574.227 106.393 573.685 106.692C573.153 106.991 572.57 107.14 571.935 107.14C571.17 107.14 570.591 106.883 570.199 106.37C569.807 105.847 569.611 105.082 569.611 104.074Z" fill="white"/>
<path d="M560.4 103.36C560.4 102.669 560.54 102.039 560.82 101.47C561.11 100.891 561.502 100.429 561.996 100.084C562.5 99.7387 563.074 99.566 563.718 99.566C564.306 99.566 564.834 99.72 565.3 100.028C565.767 100.336 566.131 100.709 566.392 101.148V96.78H567.624V105.6C567.624 105.749 567.652 105.861 567.708 105.936C567.774 106.001 567.876 106.039 568.016 106.048V107C567.783 107.037 567.601 107.056 567.47 107.056C567.228 107.056 567.013 106.972 566.826 106.804C566.649 106.636 566.56 106.449 566.56 106.244V105.628C566.271 106.095 565.884 106.463 565.398 106.734C564.913 107.005 564.409 107.14 563.886 107.14C563.382 107.14 562.916 107.042 562.486 106.846C562.066 106.641 561.698 106.361 561.38 106.006C561.072 105.651 560.83 105.25 560.652 104.802C560.484 104.345 560.4 103.864 560.4 103.36ZM566.392 104.438V102.338C566.28 102.021 566.098 101.736 565.846 101.484C565.594 101.223 565.31 101.017 564.992 100.868C564.684 100.709 564.376 100.63 564.068 100.63C563.704 100.63 563.373 100.709 563.074 100.868C562.785 101.017 562.533 101.223 562.318 101.484C562.113 101.736 561.954 102.025 561.842 102.352C561.73 102.679 561.674 103.019 561.674 103.374C561.674 103.738 561.735 104.083 561.856 104.41C561.987 104.737 562.164 105.026 562.388 105.278C562.622 105.53 562.888 105.726 563.186 105.866C563.494 106.006 563.826 106.076 564.18 106.076C564.404 106.076 564.633 106.034 564.866 105.95C565.109 105.866 565.338 105.749 565.552 105.6C565.767 105.451 565.949 105.278 566.098 105.082C566.248 104.877 566.346 104.662 566.392 104.438Z" fill="white"/>
<path d="M558.961 107H557.729V102.912C557.729 102.137 557.608 101.573 557.365 101.218C557.132 100.854 556.772 100.672 556.287 100.672C555.951 100.672 555.615 100.756 555.279 100.924C554.952 101.092 554.658 101.321 554.397 101.61C554.145 101.89 553.963 102.217 553.851 102.59V107H552.619V99.6919H553.739V101.26C553.935 100.915 554.187 100.616 554.495 100.364C554.803 100.112 555.153 99.9159 555.545 99.7759C555.937 99.6359 556.348 99.5659 556.777 99.5659C557.197 99.5659 557.547 99.6453 557.827 99.8039C558.116 99.9533 558.34 100.168 558.499 100.448C558.667 100.719 558.784 101.041 558.849 101.414C558.924 101.787 558.961 102.193 558.961 102.632V107Z" fill="white"/>
<path d="M547.43 107.14C546.879 107.14 546.38 107.042 545.932 106.846C545.484 106.641 545.097 106.365 544.77 106.02C544.443 105.665 544.191 105.259 544.014 104.802C543.837 104.345 543.748 103.864 543.748 103.36C543.748 102.847 543.837 102.361 544.014 101.904C544.191 101.447 544.443 101.045 544.77 100.7C545.097 100.345 545.484 100.07 545.932 99.8739C546.389 99.6686 546.889 99.5659 547.43 99.5659C547.981 99.5659 548.48 99.6686 548.928 99.8739C549.376 100.07 549.763 100.345 550.09 100.7C550.426 101.045 550.683 101.447 550.86 101.904C551.037 102.361 551.126 102.847 551.126 103.36C551.126 103.864 551.037 104.345 550.86 104.802C550.683 105.259 550.431 105.665 550.104 106.02C549.777 106.365 549.385 106.641 548.928 106.846C548.48 107.042 547.981 107.14 547.43 107.14ZM545.008 103.374C545.008 103.878 545.115 104.335 545.33 104.746C545.554 105.157 545.848 105.483 546.212 105.726C546.576 105.959 546.982 106.076 547.43 106.076C547.878 106.076 548.284 105.955 548.648 105.712C549.021 105.469 549.315 105.143 549.53 104.732C549.754 104.312 549.866 103.85 549.866 103.346C549.866 102.842 549.754 102.385 549.53 101.974C549.315 101.563 549.021 101.237 548.648 100.994C548.284 100.751 547.878 100.63 547.43 100.63C546.982 100.63 546.576 100.756 546.212 101.008C545.848 101.251 545.554 101.577 545.33 101.988C545.115 102.399 545.008 102.861 545.008 103.374Z" fill="white"/>
<path d="M539.788 107.14C539.238 107.14 538.734 107.042 538.276 106.846C537.828 106.641 537.436 106.361 537.1 106.006C536.774 105.651 536.517 105.245 536.33 104.788C536.153 104.331 536.064 103.845 536.064 103.332C536.064 102.641 536.218 102.011 536.526 101.442C536.834 100.873 537.268 100.42 537.828 100.084C538.388 99.7386 539.037 99.5659 539.774 99.5659C540.493 99.5659 541.118 99.7293 541.65 100.056C542.192 100.373 542.593 100.803 542.854 101.344L541.65 101.722C541.464 101.377 541.202 101.111 540.866 100.924C540.53 100.728 540.157 100.63 539.746 100.63C539.298 100.63 538.888 100.747 538.514 100.98C538.15 101.213 537.861 101.535 537.646 101.946C537.432 102.347 537.324 102.809 537.324 103.332C537.324 103.845 537.432 104.312 537.646 104.732C537.87 105.143 538.164 105.469 538.528 105.712C538.902 105.955 539.312 106.076 539.76 106.076C540.05 106.076 540.325 106.025 540.586 105.922C540.857 105.819 541.09 105.684 541.286 105.516C541.492 105.339 541.632 105.147 541.706 104.942L542.91 105.306C542.761 105.661 542.532 105.978 542.224 106.258C541.926 106.529 541.566 106.743 541.146 106.902C540.736 107.061 540.283 107.14 539.788 107.14Z" fill="white"/>
<path d="M528.684 107.14C528.077 107.14 527.508 107.042 526.976 106.846C526.444 106.641 525.986 106.337 525.604 105.936L526.08 105.068C526.5 105.46 526.92 105.74 527.34 105.908C527.76 106.076 528.189 106.16 528.628 106.16C529.132 106.16 529.542 106.067 529.86 105.88C530.177 105.684 530.336 105.399 530.336 105.026C530.336 104.755 530.252 104.555 530.084 104.424C529.925 104.293 529.696 104.186 529.398 104.102C529.099 104.009 528.744 103.906 528.334 103.794C527.83 103.645 527.405 103.486 527.06 103.318C526.714 103.15 526.453 102.94 526.276 102.688C526.098 102.436 526.01 102.119 526.01 101.736C526.01 101.269 526.131 100.877 526.374 100.56C526.616 100.233 526.948 99.9859 527.368 99.8179C527.797 99.6499 528.282 99.5659 528.824 99.5659C529.365 99.5659 529.855 99.6499 530.294 99.8179C530.732 99.9859 531.11 100.233 531.428 100.56L530.868 101.414C530.578 101.115 530.261 100.896 529.916 100.756C529.57 100.607 529.183 100.532 528.754 100.532C528.502 100.532 528.254 100.565 528.012 100.63C527.769 100.686 527.568 100.793 527.41 100.952C527.251 101.101 527.172 101.316 527.172 101.596C527.172 101.829 527.232 102.016 527.354 102.156C527.484 102.287 527.671 102.399 527.914 102.492C528.166 102.585 528.469 102.688 528.824 102.8C529.374 102.959 529.85 103.117 530.252 103.276C530.662 103.435 530.98 103.64 531.204 103.892C531.428 104.144 531.54 104.494 531.54 104.942C531.54 105.633 531.278 106.174 530.756 106.566C530.233 106.949 529.542 107.14 528.684 107.14Z" fill="white"/>
<path d="M524.014 99.6919H525.204L522.096 107H521.018L519.604 103.556L518.204 107H517.126L514.018 99.6919H515.194L517.714 105.782L518.89 102.786L517.658 99.7059H518.736L519.604 102.03L520.472 99.7059H521.55L520.332 102.786L521.508 105.782L524.014 99.6919Z" fill="white"/>
<path d="M510.011 107.14C509.46 107.14 508.956 107.042 508.499 106.846C508.051 106.641 507.659 106.365 507.323 106.02C506.996 105.665 506.74 105.259 506.553 104.802C506.376 104.345 506.287 103.859 506.287 103.346C506.287 102.655 506.446 102.025 506.763 101.456C507.08 100.887 507.519 100.429 508.079 100.084C508.648 99.7386 509.297 99.5659 510.025 99.5659C510.762 99.5659 511.402 99.7433 511.943 100.098C512.494 100.443 512.918 100.901 513.217 101.47C513.525 102.03 513.679 102.637 513.679 103.29C513.679 103.383 513.674 103.477 513.665 103.57C513.665 103.654 513.66 103.719 513.651 103.766H507.589C507.626 104.242 507.757 104.667 507.981 105.04C508.214 105.404 508.513 105.693 508.877 105.908C509.241 106.113 509.633 106.216 510.053 106.216C510.501 106.216 510.921 106.104 511.313 105.88C511.714 105.656 511.99 105.362 512.139 104.998L513.203 105.292C513.044 105.647 512.806 105.964 512.489 106.244C512.181 106.524 511.812 106.743 511.383 106.902C510.963 107.061 510.506 107.14 510.011 107.14ZM507.547 102.912H512.531C512.494 102.436 512.358 102.016 512.125 101.652C511.892 101.288 511.593 101.003 511.229 100.798C510.865 100.593 510.464 100.49 510.025 100.49C509.596 100.49 509.199 100.593 508.835 100.798C508.471 101.003 508.172 101.288 507.939 101.652C507.715 102.016 507.584 102.436 507.547 102.912Z" fill="white"/>
<path d="M503.551 107V99.692H504.783V107H503.551ZM503.551 98.32V96.78H504.783V98.32H503.551Z" fill="white"/>
<path d="M498.103 107L495.233 99.6919H496.521L498.817 105.824L501.113 99.6919H502.317L499.447 107H498.103Z" fill="white"/>
<path d="M494.782 100.77C494.166 100.779 493.62 100.938 493.144 101.246C492.677 101.545 492.346 101.96 492.15 102.492V107H490.918V99.692H492.066V101.386C492.318 100.882 492.649 100.476 493.06 100.168C493.48 99.8507 493.919 99.6733 494.376 99.636C494.469 99.636 494.549 99.636 494.614 99.636C494.679 99.636 494.735 99.6407 494.782 99.65V100.77Z" fill="white"/>
<path d="M485.88 107.14C485.33 107.14 484.826 107.042 484.368 106.846C483.92 106.641 483.528 106.365 483.192 106.02C482.866 105.665 482.609 105.259 482.422 104.802C482.245 104.345 482.156 103.859 482.156 103.346C482.156 102.655 482.315 102.025 482.632 101.456C482.95 100.887 483.388 100.429 483.948 100.084C484.518 99.7386 485.166 99.5659 485.894 99.5659C486.632 99.5659 487.271 99.7433 487.812 100.098C488.363 100.443 488.788 100.901 489.086 101.47C489.394 102.03 489.548 102.637 489.548 103.29C489.548 103.383 489.544 103.477 489.534 103.57C489.534 103.654 489.53 103.719 489.52 103.766H483.458C483.496 104.242 483.626 104.667 483.85 105.04C484.084 105.404 484.382 105.693 484.746 105.908C485.11 106.113 485.502 106.216 485.922 106.216C486.37 106.216 486.79 106.104 487.182 105.88C487.584 105.656 487.859 105.362 488.008 104.998L489.072 105.292C488.914 105.647 488.676 105.964 488.358 106.244C488.05 106.524 487.682 106.743 487.252 106.902C486.832 107.061 486.375 107.14 485.88 107.14ZM483.416 102.912H488.4C488.363 102.436 488.228 102.016 487.994 101.652C487.761 101.288 487.462 101.003 487.098 100.798C486.734 100.593 486.333 100.49 485.894 100.49C485.465 100.49 485.068 100.593 484.704 100.798C484.34 101.003 484.042 101.288 483.808 101.652C483.584 102.016 483.454 102.436 483.416 102.912Z" fill="white"/>
<path d="M481.6 106.636C481.497 106.683 481.357 106.743 481.18 106.818C481.002 106.893 480.797 106.958 480.564 107.014C480.33 107.07 480.083 107.098 479.822 107.098C479.523 107.098 479.248 107.047 478.996 106.944C478.744 106.832 478.543 106.664 478.394 106.44C478.244 106.207 478.17 105.917 478.17 105.572V100.658H477.176V99.6921H478.17V97.2561H479.402V99.6921H481.04V100.658H479.402V105.194C479.42 105.455 479.509 105.651 479.668 105.782C479.826 105.903 480.013 105.964 480.228 105.964C480.47 105.964 480.694 105.922 480.9 105.838C481.105 105.754 481.24 105.693 481.306 105.656L481.6 106.636Z" fill="white"/>
<path d="M475.973 107H474.741V102.912C474.741 102.137 474.62 101.573 474.377 101.218C474.144 100.854 473.784 100.672 473.299 100.672C472.963 100.672 472.627 100.756 472.291 100.924C471.964 101.092 471.67 101.321 471.409 101.61C471.157 101.89 470.975 102.217 470.863 102.59V107H469.631V99.6919H470.751V101.26C470.947 100.915 471.199 100.616 471.507 100.364C471.815 100.112 472.165 99.9159 472.557 99.7759C472.949 99.6359 473.36 99.5659 473.789 99.5659C474.209 99.5659 474.559 99.6453 474.839 99.8039C475.128 99.9533 475.352 100.168 475.511 100.448C475.679 100.719 475.796 101.041 475.861 101.414C475.936 101.787 475.973 102.193 475.973 102.632V107Z" fill="white"/>
<path d="M466.19 107V97.0601H467.45V107H466.19Z" fill="white"/>
</g>
<g filter="url(#filter3_b_134_4041)">
<rect x="669" width="191" height="129" rx="12" fill="black" fill-opacity="0.15"/>
<mask id="mask6_134_4041" style="mask-type:alpha" maskUnits="userSpaceOnUse" x="688" y="20" width="18" height="18">
<path d="M688 20H706V38H688V20Z" fill="#D9D9D9"/>
</mask>
<g mask="url(#mask6_134_4041)">
<path d="M700 35V29.75H703V35H700ZM695.5 35V23H698.5V35H695.5ZM691 35V26.75H694V35H691Z" fill="white"/>
</g>
<path d="M809 29.4999C809 31.489 808.21 33.3967 806.803 34.8032C805.397 36.2097 803.489 36.9999 801.5 36.9999C799.511 36.9999 797.603 36.2097 796.197 34.8032C794.79 33.3967 794 31.489 794 29.4999H795.246C795.246 31.1587 795.905 32.7495 797.078 33.9224C798.25 35.0953 799.841 35.7542 801.5 35.7542C803.159 35.7542 804.75 35.0953 805.922 33.9224C807.095 32.7495 807.754 31.1587 807.754 29.4999H809Z" fill="#C4CACD" fill-opacity="0.8"/>
<path d="M801.862 22.0086C803.849 22.1046 805.716 22.9859 807.053 24.4586C808.39 25.9314 809.087 27.8749 808.991 29.8617L807.747 29.8016C807.827 28.1448 807.246 26.5241 806.131 25.2959C805.016 24.0678 803.459 23.3328 801.802 23.2528L801.862 22.0086Z" fill="white" fill-opacity="0.8"/>
<path d="M794 29.4999C794 28.3572 794.262 27.2295 794.764 26.2031C795.266 25.1767 795.996 24.2786 796.899 23.5775L797.663 24.5612C796.911 25.1458 796.302 25.8947 795.883 26.7507C795.464 27.6066 795.246 28.547 795.246 29.4999H794Z" fill="white" fill-opacity="0.8"/>
<path d="M796.899 23.5775C798.384 22.4236 800.248 21.8699 802.122 22.0259L802.019 23.2673C800.456 23.1372 798.902 23.599 797.663 24.5612L796.899 23.5775Z" fill="#C4CACD" fill-opacity="0.8"/>
<mask id="mask7_134_4041" style="mask-type:alpha" maskUnits="userSpaceOnUse" x="823" y="20" width="18" height="18">
<path d="M823 20H841V38H823V20Z" fill="#D9D9D9"/>
</mask>
<g mask="url(#mask7_134_4041)">
<path fill-rule="evenodd" clip-rule="evenodd" d="M829.075 35.9094C829.987 36.3031 830.963 36.5 832 36.5C833.038 36.5 834.012 36.3031 834.925 35.9094C835.838 35.5156 836.631 34.9813 837.306 34.3063C837.981 33.6313 838.516 32.8375 838.909 31.925C839.303 31.0125 839.5 30.0375 839.5 29C839.5 27.9625 839.303 26.9875 838.909 26.075C838.516 25.1625 837.981 24.3687 837.306 23.6937C836.631 23.0187 835.838 22.4844 834.925 22.0906C834.012 21.6969 833.038 21.5 832 21.5C830.963 21.5 829.987 21.6969 829.075 22.0906C828.162 22.4844 827.369 23.0187 826.694 23.6937C826.019 24.3687 825.484 25.1625 825.091 26.075C824.697 26.9875 824.5 27.9625 824.5 29C824.5 30.0375 824.697 31.0125 825.091 31.925C825.484 32.8375 826.019 33.6313 826.694 34.3063C827.369 34.9813 828.162 35.5156 829.075 35.9094ZM836.256 33.2563C835.094 34.4188 833.675 35 832 35C830.325 35 828.906 34.4188 827.744 33.2563C826.581 32.0938 826 30.675 826 29C826 27.325 826.581 25.9062 827.744 24.7438C828.906 23.5813 830.325 23 832 23C833.675 23 835.094 23.5813 836.256 24.7438C837.419 25.9062 838 27.325 838 29C838 30.675 837.419 32.0938 836.256 33.2563Z" fill="#C4CACD" fill-opacity="0.8"/>
<path fill-rule="evenodd" clip-rule="evenodd" d="M832 35C833.675 35 835.094 34.4188 836.256 33.2563C837.419 32.0938 838 30.675 838 29C838 27.325 837.419 25.9062 836.256 24.7438C835.094 23.5813 833.675 23 832 23C830.325 23 828.906 23.5813 827.744 24.7438C826.581 25.9062 826 27.325 826 29C826 30.675 826.581 32.0938 827.744 33.2563C828.906 34.4188 830.325 35 832 35ZM832.75 32.75H831.25V29.75H828.25V28.25H831.25V25.25H832.75V28.25H835.75V29.75H832.75V32.75Z" fill="#C4CACD" fill-opacity="0.8"/>
</g>
<path d="M720.33 73.8919C721.994 72.5052 723.32 71.3526 724.308 70.4339C725.296 69.4979 726.119 68.5272 726.778 67.5219C727.437 66.5166 727.766 65.5286 727.766 64.5579C727.766 63.6739 727.558 62.9806 727.142 62.4779C726.726 61.9752 726.085 61.7239 725.218 61.7239C724.351 61.7239 723.684 62.0186 723.216 62.6079C722.748 63.1799 722.505 63.9686 722.488 64.9739H718.952C719.021 62.8939 719.637 61.3166 720.798 60.2419C721.977 59.1672 723.467 58.6299 725.27 58.6299C727.246 58.6299 728.763 59.1586 729.82 60.2159C730.877 61.2559 731.406 62.6339 731.406 64.3499C731.406 65.7019 731.042 66.9932 730.314 68.2239C729.586 69.4546 728.754 70.5292 727.818 71.4479C726.882 72.3492 725.66 73.4412 724.152 74.7239H731.822V77.7399H718.978V75.0359L720.33 73.8919Z" fill="white"/>
<path d="M717.007 61.8019L710.091 77.9999H706.399L713.367 62.2179H704.475V59.0979H717.007V61.8019Z" fill="white"/>
<path d="M689.43 64.038C689.517 62.3047 690.123 60.97 691.25 60.034C692.394 59.0807 693.893 58.604 695.748 58.604C697.013 58.604 698.097 58.8293 698.998 59.28C699.899 59.7133 700.575 60.3113 701.026 61.074C701.494 61.8193 701.728 62.6687 701.728 63.622C701.728 64.714 701.442 65.6413 700.87 66.404C700.315 67.1493 699.648 67.652 698.868 67.912V68.016C699.873 68.328 700.653 68.8827 701.208 69.68C701.78 70.4773 702.066 71.5 702.066 72.748C702.066 73.788 701.823 74.7153 701.338 75.53C700.87 76.3447 700.168 76.986 699.232 77.454C698.313 77.9047 697.204 78.13 695.904 78.13C693.945 78.13 692.351 77.636 691.12 76.648C689.889 75.66 689.239 74.204 689.17 72.28H692.706C692.741 73.1293 693.027 73.814 693.564 74.334C694.119 74.8367 694.873 75.088 695.826 75.088C696.71 75.088 697.386 74.8453 697.854 74.36C698.339 73.8573 698.582 73.216 698.582 72.436C698.582 71.396 698.253 70.6507 697.594 70.2C696.935 69.7493 695.913 69.524 694.526 69.524H693.772V66.534H694.526C696.987 66.534 698.218 65.7107 698.218 64.064C698.218 63.3187 697.993 62.738 697.542 62.322C697.109 61.906 696.476 61.698 695.644 61.698C694.829 61.698 694.197 61.9233 693.746 62.374C693.313 62.8073 693.061 63.362 692.992 64.038H689.43Z" fill="white"/>
<path d="M797.291 101.36C797.291 100.669 797.431 100.039 797.711 99.47C798 98.8914 798.392 98.4294 798.887 98.084C799.391 97.7387 799.965 97.566 800.609 97.566C801.197 97.566 801.724 97.72 802.191 98.028C802.658 98.336 803.022 98.7094 803.283 99.148V94.78H804.515V103.6C804.515 103.749 804.543 103.861 804.599 103.936C804.664 104.001 804.767 104.039 804.907 104.048V105C804.674 105.037 804.492 105.056 804.361 105.056C804.118 105.056 803.904 104.972 803.717 104.804C803.54 104.636 803.451 104.449 803.451 104.244V103.628C803.162 104.095 802.774 104.463 802.289 104.734C801.804 105.005 801.3 105.14 800.777 105.14C800.273 105.14 799.806 105.042 799.377 104.846C798.957 104.641 798.588 104.361 798.271 104.006C797.963 103.651 797.72 103.25 797.543 102.802C797.375 102.345 797.291 101.864 797.291 101.36ZM803.283 102.438V100.338C803.171 100.021 802.989 99.736 802.737 99.484C802.485 99.2227 802.2 99.0174 801.883 98.868C801.575 98.7094 801.267 98.63 800.959 98.63C800.595 98.63 800.264 98.7094 799.965 98.868C799.676 99.0174 799.424 99.2227 799.209 99.484C799.004 99.736 798.845 100.025 798.733 100.352C798.621 100.679 798.565 101.019 798.565 101.374C798.565 101.738 798.626 102.083 798.747 102.41C798.878 102.737 799.055 103.026 799.279 103.278C799.512 103.53 799.778 103.726 800.077 103.866C800.385 104.006 800.716 104.076 801.071 104.076C801.295 104.076 801.524 104.034 801.757 103.95C802 103.866 802.228 103.749 802.443 103.6C802.658 103.451 802.84 103.278 802.989 103.082C803.138 102.877 803.236 102.662 803.283 102.438Z" fill="white"/>
<path d="M792.73 105.14C792.179 105.14 791.675 105.042 791.218 104.846C790.77 104.641 790.378 104.365 790.042 104.02C789.715 103.665 789.459 103.259 789.272 102.802C789.095 102.345 789.006 101.859 789.006 101.346C789.006 100.655 789.165 100.025 789.482 99.4559C789.799 98.8866 790.238 98.4293 790.798 98.0839C791.367 97.7386 792.016 97.5659 792.744 97.5659C793.481 97.5659 794.121 97.7433 794.662 98.0979C795.213 98.4433 795.637 98.9006 795.936 99.4699C796.244 100.03 796.398 100.637 796.398 101.29C796.398 101.383 796.393 101.477 796.384 101.57C796.384 101.654 796.379 101.719 796.37 101.766H790.308C790.345 102.242 790.476 102.667 790.7 103.04C790.933 103.404 791.232 103.693 791.596 103.908C791.96 104.113 792.352 104.216 792.772 104.216C793.22 104.216 793.64 104.104 794.032 103.88C794.433 103.656 794.709 103.362 794.858 102.998L795.922 103.292C795.763 103.647 795.525 103.964 795.208 104.244C794.9 104.524 794.531 104.743 794.102 104.902C793.682 105.061 793.225 105.14 792.73 105.14ZM790.266 100.912H795.25C795.213 100.436 795.077 100.016 794.844 99.6519C794.611 99.2879 794.312 99.0033 793.948 98.7979C793.584 98.5926 793.183 98.4899 792.744 98.4899C792.315 98.4899 791.918 98.5926 791.554 98.7979C791.19 99.0033 790.891 99.2879 790.658 99.6519C790.434 100.016 790.303 100.436 790.266 100.912Z" fill="white"/>
<path d="M788.452 98.77C787.836 98.7793 787.29 98.938 786.814 99.246C786.347 99.5447 786.016 99.96 785.82 100.492V105H784.588V97.692H785.736V99.386C785.988 98.882 786.319 98.476 786.73 98.168C787.15 97.8507 787.589 97.6733 788.046 97.636C788.139 97.636 788.219 97.636 788.284 97.636C788.349 97.636 788.405 97.6407 788.452 97.65V98.77Z" fill="white"/>
<path d="M781.361 105V97.692H782.593V105H781.361ZM781.361 96.32V94.78H782.593V96.32H781.361Z" fill="white"/>
<path d="M779.446 105H778.214V100.912C778.214 100.165 778.078 99.6054 777.808 99.232C777.546 98.8587 777.168 98.672 776.674 98.672C776.356 98.672 776.034 98.756 775.708 98.924C775.39 99.092 775.11 99.3207 774.868 99.61C774.625 99.89 774.448 100.217 774.336 100.59V105H773.104V94.78H774.336V99.26C774.625 98.7374 775.017 98.3267 775.512 98.028C776.016 97.72 776.557 97.566 777.136 97.566C777.574 97.566 777.938 97.6454 778.228 97.804C778.526 97.9534 778.764 98.168 778.942 98.448C779.119 98.728 779.245 99.0547 779.32 99.428C779.404 99.792 779.446 100.193 779.446 100.632V105Z" fill="white"/>
<path d="M765.232 105.14C764.626 105.14 764.056 105.042 763.524 104.846C762.992 104.641 762.535 104.337 762.152 103.936L762.628 103.068C763.048 103.46 763.468 103.74 763.888 103.908C764.308 104.076 764.738 104.16 765.176 104.16C765.68 104.16 766.091 104.067 766.408 103.88C766.726 103.684 766.884 103.399 766.884 103.026C766.884 102.755 766.8 102.555 766.632 102.424C766.474 102.293 766.245 102.186 765.946 102.102C765.648 102.009 765.293 101.906 764.882 101.794C764.378 101.645 763.954 101.486 763.608 101.318C763.263 101.15 763.002 100.94 762.824 100.688C762.647 100.436 762.558 100.119 762.558 99.7359C762.558 99.2693 762.68 98.8773 762.922 98.5599C763.165 98.2333 763.496 97.9859 763.916 97.8179C764.346 97.6499 764.831 97.5659 765.372 97.5659C765.914 97.5659 766.404 97.6499 766.842 97.8179C767.281 97.9859 767.659 98.2333 767.976 98.5599L767.416 99.4139C767.127 99.1153 766.81 98.8959 766.464 98.7559C766.119 98.6066 765.732 98.5319 765.302 98.5319C765.05 98.5319 764.803 98.5646 764.56 98.6299C764.318 98.6859 764.117 98.7933 763.958 98.9519C763.8 99.1013 763.72 99.3159 763.72 99.5959C763.72 99.8293 763.781 100.016 763.902 100.156C764.033 100.287 764.22 100.399 764.462 100.492C764.714 100.585 765.018 100.688 765.372 100.8C765.923 100.959 766.399 101.117 766.8 101.276C767.211 101.435 767.528 101.64 767.752 101.892C767.976 102.144 768.088 102.494 768.088 102.942C768.088 103.633 767.827 104.174 767.304 104.566C766.782 104.949 766.091 105.14 765.232 105.14Z" fill="white"/>
<path d="M761.505 98.77C760.889 98.7793 760.343 98.938 759.867 99.246C759.4 99.5447 759.069 99.96 758.873 100.492V105H757.641V97.692H758.789V99.386C759.041 98.882 759.372 98.476 759.783 98.168C760.203 97.8507 760.641 97.6733 761.099 97.636C761.192 97.636 761.271 97.636 761.337 97.636C761.402 97.636 761.458 97.6407 761.505 97.65V98.77Z" fill="white"/>
<path d="M752.603 105.14C752.052 105.14 751.548 105.042 751.091 104.846C750.643 104.641 750.251 104.365 749.915 104.02C749.588 103.665 749.332 103.259 749.145 102.802C748.968 102.345 748.879 101.859 748.879 101.346C748.879 100.655 749.038 100.025 749.355 99.4559C749.672 98.8866 750.111 98.4293 750.671 98.0839C751.24 97.7386 751.889 97.5659 752.617 97.5659C753.354 97.5659 753.994 97.7433 754.535 98.0979C755.086 98.4433 755.51 98.9006 755.809 99.4699C756.117 100.03 756.271 100.637 756.271 101.29C756.271 101.383 756.266 101.477 756.257 101.57C756.257 101.654 756.252 101.719 756.243 101.766H750.181C750.218 102.242 750.349 102.667 750.573 103.04C750.806 103.404 751.105 103.693 751.469 103.908C751.833 104.113 752.225 104.216 752.645 104.216C753.093 104.216 753.513 104.104 753.905 103.88C754.306 103.656 754.582 103.362 754.731 102.998L755.795 103.292C755.636 103.647 755.398 103.964 755.081 104.244C754.773 104.524 754.404 104.743 753.975 104.902C753.555 105.061 753.098 105.14 752.603 105.14ZM750.139 100.912H755.123C755.086 100.436 754.95 100.016 754.717 99.6519C754.484 99.2879 754.185 99.0033 753.821 98.7979C753.457 98.5926 753.056 98.4899 752.617 98.4899C752.188 98.4899 751.791 98.5926 751.427 98.7979C751.063 99.0033 750.764 99.2879 750.531 99.6519C750.307 100.016 750.176 100.436 750.139 100.912Z" fill="white"/>
<path d="M744.331 105.14C743.781 105.14 743.277 105.042 742.819 104.846C742.371 104.641 741.979 104.365 741.643 104.02C741.317 103.665 741.06 103.259 740.873 102.802C740.696 102.345 740.607 101.859 740.607 101.346C740.607 100.655 740.766 100.025 741.083 99.4559C741.401 98.8866 741.839 98.4293 742.399 98.0839C742.969 97.7386 743.617 97.5659 744.345 97.5659C745.083 97.5659 745.722 97.7433 746.263 98.0979C746.814 98.4433 747.239 98.9006 747.537 99.4699C747.845 100.03 747.999 100.637 747.999 101.29C747.999 101.383 747.995 101.477 747.985 101.57C747.985 101.654 747.981 101.719 747.971 101.766H741.909C741.947 102.242 742.077 102.667 742.301 103.04C742.535 103.404 742.833 103.693 743.197 103.908C743.561 104.113 743.953 104.216 744.373 104.216C744.821 104.216 745.241 104.104 745.633 103.88C746.035 103.656 746.31 103.362 746.459 102.998L747.523 103.292C747.365 103.647 747.127 103.964 746.809 104.244C746.501 104.524 746.133 104.743 745.703 104.902C745.283 105.061 744.826 105.14 744.331 105.14ZM741.867 100.912H746.851C746.814 100.436 746.679 100.016 746.445 99.6519C746.212 99.2879 745.913 99.0033 745.549 98.7979C745.185 98.5926 744.784 98.4899 744.345 98.4899C743.916 98.4899 743.519 98.5926 743.155 98.7979C742.791 99.0033 742.493 99.2879 742.259 99.6519C742.035 100.016 741.905 100.436 741.867 100.912Z" fill="white"/>
<path d="M739.182 105H737.95V100.912C737.95 100.137 737.829 99.5726 737.586 99.2179C737.353 98.8539 736.993 98.6719 736.508 98.6719C736.172 98.6719 735.836 98.7559 735.5 98.9239C735.173 99.0919 734.879 99.3206 734.618 99.6099C734.366 99.8899 734.184 100.217 734.072 100.59V105H732.84V97.6919H733.96V99.2599C734.156 98.9146 734.408 98.6159 734.716 98.3639C735.024 98.1119 735.374 97.9159 735.766 97.7759C736.158 97.6359 736.569 97.5659 736.998 97.5659C737.418 97.5659 737.768 97.6453 738.048 97.8039C738.337 97.9533 738.561 98.1679 738.72 98.4479C738.888 98.7186 739.005 99.0406 739.07 99.4139C739.145 99.7873 739.182 100.193 739.182 100.632V105Z" fill="white"/>
<path d="M729.613 105V97.692H730.845V105H729.613ZM729.613 96.32V94.78H730.845V96.32H729.613Z" fill="white"/>
<path d="M723.789 105.084C723.294 105.084 722.837 104.986 722.417 104.79C722.006 104.585 721.652 104.309 721.353 103.964C721.054 103.609 720.821 103.208 720.653 102.76C720.494 102.312 720.415 101.845 720.415 101.36C720.415 100.847 720.494 100.361 720.653 99.9039C720.821 99.4466 721.054 99.0453 721.353 98.6999C721.661 98.3453 722.02 98.0699 722.431 97.8739C722.842 97.6686 723.299 97.5659 723.803 97.5659C724.41 97.5659 724.937 97.7153 725.385 98.0139C725.842 98.3126 726.225 98.6906 726.533 99.1479V97.6919H727.625V104.916C727.625 105.607 727.457 106.19 727.121 106.666C726.794 107.142 726.346 107.501 725.777 107.744C725.217 107.996 724.592 108.122 723.901 108.122C723.08 108.122 722.408 107.977 721.885 107.688C721.362 107.399 720.928 107.007 720.583 106.512L721.297 105.882C721.586 106.311 721.96 106.633 722.417 106.848C722.884 107.063 723.378 107.17 723.901 107.17C724.349 107.17 724.76 107.086 725.133 106.918C725.516 106.759 725.819 106.512 726.043 106.176C726.276 105.84 726.393 105.42 726.393 104.916V103.628C726.122 104.076 725.749 104.431 725.273 104.692C724.806 104.953 724.312 105.084 723.789 105.084ZM724.167 104.076C724.428 104.076 724.68 104.029 724.923 103.936C725.166 103.843 725.39 103.721 725.595 103.572C725.8 103.413 725.973 103.236 726.113 103.04C726.253 102.844 726.346 102.643 726.393 102.438V100.338C726.262 100.002 726.076 99.7079 725.833 99.4559C725.59 99.1946 725.315 98.9939 725.007 98.8539C724.699 98.7046 724.382 98.6299 724.055 98.6299C723.682 98.6299 723.346 98.7093 723.047 98.8679C722.758 99.0266 722.51 99.2413 722.305 99.5119C722.1 99.7733 721.941 100.067 721.829 100.394C721.717 100.721 721.661 101.052 721.661 101.388C721.661 101.752 721.726 102.097 721.857 102.424C721.988 102.741 722.165 103.026 722.389 103.278C722.613 103.53 722.879 103.726 723.187 103.866C723.495 104.006 723.822 104.076 724.167 104.076Z" fill="white"/>
<path d="M718.961 105H717.729V100.912C717.729 100.137 717.608 99.5726 717.365 99.2179C717.132 98.8539 716.772 98.6719 716.287 98.6719C715.951 98.6719 715.615 98.7559 715.279 98.9239C714.952 99.0919 714.658 99.3206 714.397 99.6099C714.145 99.8899 713.963 100.217 713.851 100.59V105H712.619V97.6919H713.739V99.2599C713.935 98.9146 714.187 98.6159 714.495 98.3639C714.803 98.1119 715.153 97.9159 715.545 97.7759C715.937 97.6359 716.348 97.5659 716.777 97.5659C717.197 97.5659 717.547 97.6453 717.827 97.8039C718.116 97.9533 718.34 98.1679 718.499 98.4479C718.667 98.7186 718.784 99.0406 718.849 99.4139C718.924 99.7873 718.961 100.193 718.961 100.632V105Z" fill="white"/>
<path d="M707.581 105.14C707.031 105.14 706.527 105.042 706.069 104.846C705.621 104.641 705.229 104.365 704.893 104.02C704.567 103.665 704.31 103.259 704.123 102.802C703.946 102.345 703.857 101.859 703.857 101.346C703.857 100.655 704.016 100.025 704.333 99.4559C704.651 98.8866 705.089 98.4293 705.649 98.0839C706.219 97.7386 706.867 97.5659 707.595 97.5659C708.333 97.5659 708.972 97.7433 709.513 98.0979C710.064 98.4433 710.489 98.9006 710.787 99.4699C711.095 100.03 711.249 100.637 711.249 101.29C711.249 101.383 711.245 101.477 711.235 101.57C711.235 101.654 711.231 101.719 711.221 101.766H705.159C705.197 102.242 705.327 102.667 705.551 103.04C705.785 103.404 706.083 103.693 706.447 103.908C706.811 104.113 707.203 104.216 707.623 104.216C708.071 104.216 708.491 104.104 708.883 103.88C709.285 103.656 709.56 103.362 709.709 102.998L710.773 103.292C710.615 103.647 710.377 103.964 710.059 104.244C709.751 104.524 709.383 104.743 708.953 104.902C708.533 105.061 708.076 105.14 707.581 105.14ZM705.117 100.912H710.101C710.064 100.436 709.929 100.016 709.695 99.6519C709.462 99.2879 709.163 99.0033 708.799 98.7979C708.435 98.5926 708.034 98.4899 707.595 98.4899C707.166 98.4899 706.769 98.5926 706.405 98.7979C706.041 99.0033 705.743 99.2879 705.509 99.6519C705.285 100.016 705.155 100.436 705.117 100.912Z" fill="white"/>
<path d="M699.995 96.1801H696.565V105H695.305V96.1801H691.875V95.0601H699.995V96.1801Z" fill="white"/>
<path d="M689.19 105V95.0601H690.45V105H689.19Z" fill="white"/>
</g>
<defs>
<filter id="filter0_b_134_4041" x="-22" y="-22" width="235" height="173" filterUnits="userSpaceOnUse" color-interpolation-filters="sRGB">
<feFlood flood-opacity="0" result="BackgroundImageFix"/>
<feGaussianBlur in="BackgroundImageFix" stdDeviation="11"/>
<feComposite in2="SourceAlpha" operator="in" result="effect1_backgroundBlur_134_4041"/>
<feBlend mode="normal" in="SourceGraphic" in2="effect1_backgroundBlur_134_4041" result="shape"/>
</filter>
<filter id="filter1_b_134_4041" x="201" y="-22" width="235" height="173" filterUnits="userSpaceOnUse" color-interpolation-filters="sRGB">
<feFlood flood-opacity="0" result="BackgroundImageFix"/>
<feGaussianBlur in="BackgroundImageFix" stdDeviation="11"/>
<feComposite in2="SourceAlpha" operator="in" result="effect1_backgroundBlur_134_4041"/>
<feBlend mode="normal" in="SourceGraphic" in2="effect1_backgroundBlur_134_4041" result="shape"/>
</filter>
<filter id="filter2_b_134_4041" x="424" y="-22" width="235" height="173" filterUnits="userSpaceOnUse" color-interpolation-filters="sRGB">
<feFlood flood-opacity="0" result="BackgroundImageFix"/>
<feGaussianBlur in="BackgroundImageFix" stdDeviation="11"/>
<feComposite in2="SourceAlpha" operator="in" result="effect1_backgroundBlur_134_4041"/>
<feBlend mode="normal" in="SourceGraphic" in2="effect1_backgroundBlur_134_4041" result="shape"/>
</filter>
<filter id="filter3_b_134_4041" x="647" y="-22" width="235" height="173" filterUnits="userSpaceOnUse" color-interpolation-filters="sRGB">
<feFlood flood-opacity="0" result="BackgroundImageFix"/>
<feGaussianBlur in="BackgroundImageFix" stdDeviation="11"/>
<feComposite in2="SourceAlpha" operator="in" result="effect1_backgroundBlur_134_4041"/>
<feBlend mode="normal" in="SourceGraphic" in2="effect1_backgroundBlur_134_4041" result="shape"/>
</filter>
</defs>
</svg>
