<svg width="216" height="130" viewBox="0 0 216 130" fill="none" xmlns="http://www.w3.org/2000/svg">
<g filter="url(#filter0_b_134_4192)">
<rect y="0.649414" width="216" height="129" rx="12" fill="black" fill-opacity="0.15"/>
<mask id="mask0_134_4192" style="mask-type:alpha" maskUnits="userSpaceOnUse" x="20" y="20" width="18" height="19">
<rect x="20" y="20.6494" width="18" height="18" fill="#D9D9D9"/>
</mask>
<g mask="url(#mask0_134_4192)">
<path d="M31.9995 35.6493V30.3993H34.9995V35.6493H31.9995ZM27.4995 35.6493V23.6493H30.4995V35.6493H27.4995ZM22.9995 35.6493V27.3993H25.9995V35.6493H22.9995Z" fill="white"/>
</g>
<path d="M163 30.1493C163 32.1384 162.21 34.0461 160.803 35.4526C159.397 36.8591 157.489 37.6493 155.5 37.6493C153.511 37.6493 151.603 36.8591 150.197 35.4526C148.79 34.0461 148 32.1384 148 30.1493H149.246C149.246 31.8081 149.905 33.3989 151.078 34.5718C152.25 35.7447 153.841 36.4036 155.5 36.4036C157.159 36.4036 158.75 35.7447 159.922 34.5718C161.095 33.3989 161.754 31.8081 161.754 30.1493H163Z" fill="#BABBBB"/>
<path d="M155.862 22.658C157.849 22.754 159.716 23.6353 161.053 25.108C162.39 26.5808 163.087 28.5243 162.991 30.5111L161.747 30.451C161.827 28.7942 161.246 27.1735 160.131 25.9453C159.016 24.7172 157.459 23.9823 155.802 23.9022L155.862 22.658Z" fill="white"/>
<path d="M148 30.1493C148 29.0066 148.262 27.8789 148.764 26.8525C149.266 25.8261 149.996 24.928 150.899 24.2269L151.663 25.2106C150.911 25.7953 150.302 26.5442 149.883 27.4001C149.464 28.256 149.246 29.1964 149.246 30.1493H148Z" fill="white"/>
<path d="M150.899 24.2269C152.384 23.0731 154.248 22.5193 156.122 22.6753L156.019 23.9167C154.456 23.7866 152.902 24.2484 151.663 25.2106L150.899 24.2269Z" fill="#C4CACD"/>
<mask id="mask1_134_4192" style="mask-type:alpha" maskUnits="userSpaceOnUse" x="177" y="20" width="18" height="19">
<rect x="177" y="20.6494" width="18" height="18" fill="#D9D9D9"/>
</mask>
<g mask="url(#mask1_134_4192)">
<path fill-rule="evenodd" clip-rule="evenodd" d="M183.075 36.5587C183.987 36.9524 184.962 37.1493 186 37.1493C187.037 37.1493 188.012 36.9524 188.925 36.5587C189.837 36.1649 190.631 35.6306 191.306 34.9556C191.981 34.2806 192.515 33.4868 192.909 32.5743C193.303 31.6618 193.5 30.6868 193.5 29.6493C193.5 28.6118 193.303 27.6368 192.909 26.7243C192.515 25.8118 191.981 25.0181 191.306 24.3431C190.631 23.6681 189.837 23.1337 188.925 22.7399C188.012 22.3462 187.037 22.1493 186 22.1493C184.962 22.1493 183.987 22.3462 183.075 22.7399C182.162 23.1337 181.368 23.6681 180.693 24.3431C180.018 25.0181 179.484 25.8118 179.09 26.7243C178.696 27.6368 178.5 28.6118 178.5 29.6493C178.5 30.6868 178.696 31.6618 179.09 32.5743C179.484 33.4868 180.018 34.2806 180.693 34.9556C181.368 35.6306 182.162 36.1649 183.075 36.5587ZM190.256 33.9056C189.093 35.0681 187.675 35.6493 186 35.6493C184.325 35.6493 182.906 35.0681 181.743 33.9056C180.581 32.7431 180 31.3243 180 29.6493C180 27.9743 180.581 26.5556 181.743 25.3931C182.906 24.2306 184.325 23.6493 186 23.6493C187.675 23.6493 189.093 24.2306 190.256 25.3931C191.418 26.5556 192 27.9743 192 29.6493C192 31.3243 191.418 32.7431 190.256 33.9056Z" fill="#CBCBCB"/>
<path fill-rule="evenodd" clip-rule="evenodd" d="M186 35.6493C187.675 35.6493 189.093 35.0681 190.256 33.9056C191.418 32.7431 192 31.3243 192 29.6493C192 27.9743 191.418 26.5556 190.256 25.3931C189.093 24.2306 187.675 23.6493 186 23.6493C184.325 23.6493 182.906 24.2306 181.743 25.3931C180.581 26.5556 180 27.9743 180 29.6493C180 31.3243 180.581 32.7431 181.743 33.9056C182.906 35.0681 184.325 35.6493 186 35.6493ZM186.75 33.3993H185.25V30.3993H182.25V28.8993H185.25V25.8993H186.75V28.8993H189.75V30.3993H186.75V33.3993Z" fill="#CBCBCB"/>
</g>
<path d="M34.118 62.8414H25.694V67.2874C26.058 66.8367 26.578 66.4727 27.254 66.1954C27.93 65.9007 28.6493 65.7534 29.412 65.7534C30.7987 65.7534 31.934 66.0567 32.818 66.6634C33.702 67.2701 34.3433 68.0501 34.742 69.0034C35.1407 69.9394 35.34 70.9447 35.34 72.0194C35.34 74.0127 34.768 75.6161 33.624 76.8294C32.4973 78.0427 30.8853 78.6494 28.788 78.6494C26.812 78.6494 25.2347 78.1554 24.056 77.1674C22.8773 76.1794 22.21 74.8881 22.054 73.2934H25.59C25.746 73.9867 26.0927 74.5414 26.63 74.9574C27.1847 75.3734 27.8867 75.5814 28.736 75.5814C29.7587 75.5814 30.53 75.2607 31.05 74.6194C31.57 73.9781 31.83 73.1287 31.83 72.0714C31.83 70.9967 31.5613 70.1821 31.024 69.6274C30.504 69.0554 29.7327 68.7694 28.71 68.7694C27.982 68.7694 27.3753 68.9514 26.89 69.3154C26.4047 69.6794 26.058 70.1647 25.85 70.7714H22.366V59.6434H34.118V62.8414ZM50.1744 62.4514L43.2584 78.6494H39.5664L46.5344 62.8674H37.6424V59.7474H50.1744V62.4514ZM52.3546 68.9254C52.3546 65.9267 52.8919 63.5781 53.9666 61.8794C55.0586 60.1807 56.8612 59.3314 59.3746 59.3314C61.8879 59.3314 63.6819 60.1807 64.7566 61.8794C65.8486 63.5781 66.3946 65.9267 66.3946 68.9254C66.3946 71.9414 65.8486 74.3074 64.7566 76.0234C63.6819 77.7394 61.8879 78.5974 59.3746 78.5974C56.8612 78.5974 55.0586 77.7394 53.9666 76.0234C52.8919 74.3074 52.3546 71.9414 52.3546 68.9254ZM62.8066 68.9254C62.8066 67.6427 62.7199 66.5681 62.5466 65.7014C62.3906 64.8174 62.0612 64.0981 61.5586 63.5434C61.0732 62.9887 60.3452 62.7114 59.3746 62.7114C58.4039 62.7114 57.6672 62.9887 57.1646 63.5434C56.6792 64.0981 56.3499 64.8174 56.1766 65.7014C56.0206 66.5681 55.9426 67.6427 55.9426 68.9254C55.9426 70.2427 56.0206 71.3521 56.1766 72.2534C56.3326 73.1374 56.6619 73.8567 57.1646 74.4114C57.6672 74.9487 58.4039 75.2174 59.3746 75.2174C60.3452 75.2174 61.0819 74.9487 61.5846 74.4114C62.0872 73.8567 62.4166 73.1374 62.5726 72.2534C62.7286 71.3521 62.8066 70.2427 62.8066 68.9254ZM69.1632 68.9254C69.1632 65.9267 69.7005 63.5781 70.7752 61.8794C71.8672 60.1807 73.6698 59.3314 76.1832 59.3314C78.6965 59.3314 80.4905 60.1807 81.5652 61.8794C82.6572 63.5781 83.2032 65.9267 83.2032 68.9254C83.2032 71.9414 82.6572 74.3074 81.5652 76.0234C80.4905 77.7394 78.6965 78.5974 76.1832 78.5974C73.6698 78.5974 71.8672 77.7394 70.7752 76.0234C69.7005 74.3074 69.1632 71.9414 69.1632 68.9254ZM79.6152 68.9254C79.6152 67.6427 79.5285 66.5681 79.3552 65.7014C79.1992 64.8174 78.8698 64.0981 78.3672 63.5434C77.8818 62.9887 77.1538 62.7114 76.1832 62.7114C75.2125 62.7114 74.4758 62.9887 73.9732 63.5434C73.4878 64.0981 73.1585 64.8174 72.9852 65.7014C72.8292 66.5681 72.7512 67.6427 72.7512 68.9254C72.7512 70.2427 72.8292 71.3521 72.9852 72.2534C73.1412 73.1374 73.4705 73.8567 73.9732 74.4114C74.4758 74.9487 75.2125 75.2174 76.1832 75.2174C77.1538 75.2174 77.8905 74.9487 78.3932 74.4114C78.8958 73.8567 79.2252 73.1374 79.3812 72.2534C79.5372 71.3521 79.6152 70.2427 79.6152 68.9254ZM99.9858 70.9794H95.0718V76.0234H91.6398V70.9794H86.7258V67.8074H91.6398V62.7634H95.0718V67.8074H99.9858V70.9794Z" fill="white"/>
<path d="M21.19 105.649V95.7094H25.446C25.8847 95.7094 26.286 95.8027 26.65 95.9894C27.014 96.1667 27.3313 96.4094 27.602 96.7174C27.8727 97.0161 28.0827 97.3567 28.232 97.7394C28.3813 98.1127 28.456 98.4954 28.456 98.8874C28.456 99.3447 28.3673 99.7787 28.19 100.189C28.022 100.6 27.7793 100.95 27.462 101.239C27.154 101.529 26.79 101.729 26.37 101.841L28.778 105.649H27.35L25.082 102.079H22.45V105.649H21.19ZM22.45 100.959H25.46C25.8053 100.959 26.104 100.866 26.356 100.679C26.6173 100.483 26.818 100.227 26.958 99.9094C27.1073 99.5921 27.182 99.2514 27.182 98.8874C27.182 98.5141 27.098 98.1734 26.93 97.8654C26.762 97.5481 26.5427 97.2961 26.272 97.1094C26.0013 96.9227 25.7027 96.8294 25.376 96.8294H22.45V100.959ZM33.1968 105.789C32.6461 105.789 32.1421 105.691 31.6848 105.495C31.2368 105.29 30.8448 105.015 30.5088 104.669C30.1821 104.315 29.9254 103.909 29.7388 103.451C29.5614 102.994 29.4728 102.509 29.4728 101.995C29.4728 101.305 29.6314 100.675 29.9488 100.105C30.2661 99.5361 30.7048 99.0787 31.2648 98.7334C31.8341 98.3881 32.4828 98.2154 33.2108 98.2154C33.9481 98.2154 34.5874 98.3927 35.1288 98.7474C35.6794 99.0927 36.1041 99.5501 36.4028 100.119C36.7108 100.679 36.8648 101.286 36.8648 101.939C36.8648 102.033 36.8601 102.126 36.8508 102.219C36.8508 102.303 36.8461 102.369 36.8368 102.415H30.7748C30.8121 102.891 30.9428 103.316 31.1668 103.689C31.4001 104.053 31.6988 104.343 32.0628 104.557C32.4268 104.763 32.8188 104.865 33.2388 104.865C33.6868 104.865 34.1068 104.753 34.4988 104.529C34.9001 104.305 35.1754 104.011 35.3248 103.647L36.3888 103.941C36.2301 104.296 35.9921 104.613 35.6748 104.893C35.3668 105.173 34.9981 105.393 34.5688 105.551C34.1488 105.71 33.6914 105.789 33.1968 105.789ZM30.7328 101.561H35.7168C35.6794 101.085 35.5441 100.665 35.3108 100.301C35.0774 99.9374 34.7788 99.6527 34.4148 99.4474C34.0508 99.2421 33.6494 99.1394 33.2108 99.1394C32.7814 99.1394 32.3848 99.2421 32.0208 99.4474C31.6568 99.6527 31.3581 99.9374 31.1248 100.301C30.9008 100.665 30.7701 101.085 30.7328 101.561ZM40.7402 105.789C40.1336 105.789 39.5642 105.691 39.0322 105.495C38.5002 105.29 38.0429 104.987 37.6602 104.585L38.1362 103.717C38.5562 104.109 38.9762 104.389 39.3962 104.557C39.8162 104.725 40.2456 104.809 40.6842 104.809C41.1882 104.809 41.5989 104.716 41.9162 104.529C42.2336 104.333 42.3922 104.049 42.3922 103.675C42.3922 103.405 42.3082 103.204 42.1402 103.073C41.9816 102.943 41.7529 102.835 41.4542 102.751C41.1556 102.658 40.8009 102.555 40.3902 102.443C39.8862 102.294 39.4616 102.135 39.1162 101.967C38.7709 101.799 38.5096 101.589 38.3322 101.337C38.1549 101.085 38.0662 100.768 38.0662 100.385C38.0662 99.9187 38.1876 99.5267 38.4302 99.2094C38.6729 98.8827 39.0042 98.6354 39.4242 98.4674C39.8536 98.2994 40.3389 98.2154 40.8802 98.2154C41.4216 98.2154 41.9116 98.2994 42.3502 98.4674C42.7889 98.6354 43.1669 98.8827 43.4842 99.2094L42.9242 100.063C42.6349 99.7647 42.3176 99.5454 41.9722 99.4054C41.6269 99.2561 41.2396 99.1814 40.8102 99.1814C40.5582 99.1814 40.3109 99.2141 40.0682 99.2794C39.8256 99.3354 39.6249 99.4427 39.4662 99.6014C39.3076 99.7507 39.2282 99.9654 39.2282 100.245C39.2282 100.479 39.2889 100.665 39.4102 100.805C39.5409 100.936 39.7276 101.048 39.9702 101.141C40.2222 101.235 40.5256 101.337 40.8802 101.449C41.4309 101.608 41.9069 101.767 42.3082 101.925C42.7189 102.084 43.0362 102.289 43.2602 102.541C43.4842 102.793 43.5962 103.143 43.5962 103.591C43.5962 104.282 43.3349 104.823 42.8122 105.215C42.2896 105.598 41.5989 105.789 40.7402 105.789ZM49.0042 105.789C48.4068 105.789 47.8748 105.64 47.4082 105.341C46.9415 105.043 46.5728 104.665 46.3022 104.207V108.631H45.0702V98.3414H46.1622V99.7134C46.4515 99.2654 46.8295 98.9061 47.2962 98.6354C47.7628 98.3554 48.2715 98.2154 48.8222 98.2154C49.3262 98.2154 49.7882 98.3181 50.2082 98.5234C50.6282 98.7287 50.9922 99.0087 51.3002 99.3634C51.6082 99.7181 51.8462 100.124 52.0142 100.581C52.1915 101.029 52.2802 101.501 52.2802 101.995C52.2802 102.686 52.1402 103.321 51.8602 103.899C51.5895 104.478 51.2068 104.94 50.7122 105.285C50.2175 105.621 49.6482 105.789 49.0042 105.789ZM48.6262 104.725C48.9902 104.725 49.3168 104.651 49.6062 104.501C49.9048 104.343 50.1568 104.137 50.3622 103.885C50.5768 103.624 50.7402 103.33 50.8522 103.003C50.9642 102.677 51.0202 102.341 51.0202 101.995C51.0202 101.631 50.9548 101.286 50.8242 100.959C50.7028 100.633 50.5255 100.343 50.2922 100.091C50.0682 99.8394 49.8022 99.6434 49.4942 99.5034C49.1955 99.3541 48.8688 99.2794 48.5142 99.2794C48.2902 99.2794 48.0568 99.3214 47.8142 99.4054C47.5808 99.4894 47.3568 99.6107 47.1422 99.7694C46.9275 99.9187 46.7455 100.091 46.5962 100.287C46.4468 100.483 46.3488 100.693 46.3022 100.917V103.003C46.4422 103.321 46.6288 103.61 46.8622 103.871C47.0955 104.133 47.3662 104.343 47.6742 104.501C47.9822 104.651 48.2995 104.725 48.6262 104.725ZM56.9848 105.789C56.4342 105.789 55.9348 105.691 55.4868 105.495C55.0388 105.29 54.6515 105.015 54.3248 104.669C53.9982 104.315 53.7462 103.909 53.5688 103.451C53.3915 102.994 53.3028 102.513 53.3028 102.009C53.3028 101.496 53.3915 101.011 53.5688 100.553C53.7462 100.096 53.9982 99.6947 54.3248 99.3494C54.6515 98.9947 55.0388 98.7194 55.4868 98.5234C55.9442 98.3181 56.4435 98.2154 56.9848 98.2154C57.5355 98.2154 58.0348 98.3181 58.4828 98.5234C58.9308 98.7194 59.3182 98.9947 59.6448 99.3494C59.9808 99.6947 60.2375 100.096 60.4148 100.553C60.5922 101.011 60.6808 101.496 60.6808 102.009C60.6808 102.513 60.5922 102.994 60.4148 103.451C60.2375 103.909 59.9855 104.315 59.6588 104.669C59.3322 105.015 58.9402 105.29 58.4828 105.495C58.0348 105.691 57.5355 105.789 56.9848 105.789ZM54.5628 102.023C54.5628 102.527 54.6702 102.985 54.8848 103.395C55.1088 103.806 55.4028 104.133 55.7668 104.375C56.1308 104.609 56.5368 104.725 56.9848 104.725C57.4328 104.725 57.8388 104.604 58.2028 104.361C58.5762 104.119 58.8702 103.792 59.0848 103.381C59.3088 102.961 59.4208 102.499 59.4208 101.995C59.4208 101.491 59.3088 101.034 59.0848 100.623C58.8702 100.213 58.5762 99.8861 58.2028 99.6434C57.8388 99.4007 57.4328 99.2794 56.9848 99.2794C56.5368 99.2794 56.1308 99.4054 55.7668 99.6574C55.4028 99.9001 55.1088 100.227 54.8848 100.637C54.6702 101.048 54.5628 101.51 54.5628 102.023ZM68.5157 105.649H67.2837V101.561C67.2837 100.787 67.1624 100.222 66.9197 99.8674C66.6864 99.5034 66.327 99.3214 65.8417 99.3214C65.5057 99.3214 65.1697 99.4054 64.8337 99.5734C64.507 99.7414 64.213 99.9701 63.9517 100.259C63.6997 100.539 63.5177 100.866 63.4057 101.239V105.649H62.1737V98.3414H63.2937V99.9094C63.4897 99.5641 63.7417 99.2654 64.0497 99.0134C64.3577 98.7614 64.7077 98.5654 65.0997 98.4254C65.4917 98.2854 65.9024 98.2154 66.3317 98.2154C66.7517 98.2154 67.1017 98.2947 67.3817 98.4534C67.671 98.6027 67.895 98.8174 68.0537 99.0974C68.2217 99.3681 68.3384 99.6901 68.4037 100.063C68.4784 100.437 68.5157 100.843 68.5157 101.281V105.649ZM72.9375 105.789C72.3308 105.789 71.7615 105.691 71.2295 105.495C70.6975 105.29 70.2402 104.987 69.8575 104.585L70.3335 103.717C70.7535 104.109 71.1735 104.389 71.5935 104.557C72.0135 104.725 72.4428 104.809 72.8815 104.809C73.3855 104.809 73.7962 104.716 74.1135 104.529C74.4308 104.333 74.5895 104.049 74.5895 103.675C74.5895 103.405 74.5055 103.204 74.3375 103.073C74.1788 102.943 73.9502 102.835 73.6515 102.751C73.3528 102.658 72.9982 102.555 72.5875 102.443C72.0835 102.294 71.6588 102.135 71.3135 101.967C70.9682 101.799 70.7068 101.589 70.5295 101.337C70.3522 101.085 70.2635 100.768 70.2635 100.385C70.2635 99.9187 70.3848 99.5267 70.6275 99.2094C70.8702 98.8827 71.2015 98.6354 71.6215 98.4674C72.0508 98.2994 72.5362 98.2154 73.0775 98.2154C73.6188 98.2154 74.1088 98.2994 74.5475 98.4674C74.9862 98.6354 75.3642 98.8827 75.6815 99.2094L75.1215 100.063C74.8322 99.7647 74.5148 99.5454 74.1695 99.4054C73.8242 99.2561 73.4368 99.1814 73.0075 99.1814C72.7555 99.1814 72.5082 99.2141 72.2655 99.2794C72.0228 99.3354 71.8222 99.4427 71.6635 99.6014C71.5048 99.7507 71.4255 99.9654 71.4255 100.245C71.4255 100.479 71.4862 100.665 71.6075 100.805C71.7382 100.936 71.9248 101.048 72.1675 101.141C72.4195 101.235 72.7228 101.337 73.0775 101.449C73.6282 101.608 74.1042 101.767 74.5055 101.925C74.9162 102.084 75.2335 102.289 75.4575 102.541C75.6815 102.793 75.7935 103.143 75.7935 103.591C75.7935 104.282 75.5322 104.823 75.0095 105.215C74.4868 105.598 73.7962 105.789 72.9375 105.789ZM80.5014 105.789C79.9508 105.789 79.4468 105.691 78.9894 105.495C78.5414 105.29 78.1494 105.015 77.8134 104.669C77.4868 104.315 77.2301 103.909 77.0434 103.451C76.8661 102.994 76.7774 102.509 76.7774 101.995C76.7774 101.305 76.9361 100.675 77.2534 100.105C77.5708 99.5361 78.0094 99.0787 78.5694 98.7334C79.1388 98.3881 79.7874 98.2154 80.5154 98.2154C81.2528 98.2154 81.8921 98.3927 82.4334 98.7474C82.9841 99.0927 83.4088 99.5501 83.7074 100.119C84.0154 100.679 84.1694 101.286 84.1694 101.939C84.1694 102.033 84.1648 102.126 84.1554 102.219C84.1554 102.303 84.1508 102.369 84.1414 102.415H78.0794C78.1168 102.891 78.2474 103.316 78.4714 103.689C78.7048 104.053 79.0034 104.343 79.3674 104.557C79.7314 104.763 80.1234 104.865 80.5434 104.865C80.9914 104.865 81.4114 104.753 81.8034 104.529C82.2048 104.305 82.4801 104.011 82.6294 103.647L83.6934 103.941C83.5348 104.296 83.2968 104.613 82.9794 104.893C82.6714 105.173 82.3028 105.393 81.8734 105.551C81.4534 105.71 80.9961 105.789 80.5014 105.789ZM78.0374 101.561H83.0214C82.9841 101.085 82.8488 100.665 82.6154 100.301C82.3821 99.9374 82.0834 99.6527 81.7194 99.4474C81.3554 99.2421 80.9541 99.1394 80.5154 99.1394C80.0861 99.1394 79.6894 99.2421 79.3254 99.4474C78.9614 99.6527 78.6628 99.9374 78.4294 100.301C78.2054 100.665 78.0748 101.085 78.0374 101.561ZM88.0449 105.789C87.4383 105.789 86.8689 105.691 86.3369 105.495C85.8049 105.29 85.3476 104.987 84.9649 104.585L85.4409 103.717C85.8609 104.109 86.2809 104.389 86.7009 104.557C87.1209 104.725 87.5503 104.809 87.9889 104.809C88.4929 104.809 88.9036 104.716 89.2209 104.529C89.5383 104.333 89.6969 104.049 89.6969 103.675C89.6969 103.405 89.6129 103.204 89.4449 103.073C89.2863 102.943 89.0576 102.835 88.7589 102.751C88.4603 102.658 88.1056 102.555 87.6949 102.443C87.1909 102.294 86.7663 102.135 86.4209 101.967C86.0756 101.799 85.8143 101.589 85.6369 101.337C85.4596 101.085 85.3709 100.768 85.3709 100.385C85.3709 99.9187 85.4923 99.5267 85.7349 99.2094C85.9776 98.8827 86.3089 98.6354 86.7289 98.4674C87.1583 98.2994 87.6436 98.2154 88.1849 98.2154C88.7263 98.2154 89.2163 98.2994 89.6549 98.4674C90.0936 98.6354 90.4716 98.8827 90.7889 99.2094L90.2289 100.063C89.9396 99.7647 89.6223 99.5454 89.2769 99.4054C88.9316 99.2561 88.5443 99.1814 88.1149 99.1814C87.8629 99.1814 87.6156 99.2141 87.3729 99.2794C87.1303 99.3354 86.9296 99.4427 86.7709 99.6014C86.6123 99.7507 86.5329 99.9654 86.5329 100.245C86.5329 100.479 86.5936 100.665 86.7149 100.805C86.8456 100.936 87.0323 101.048 87.2749 101.141C87.5269 101.235 87.8303 101.337 88.1849 101.449C88.7356 101.608 89.2116 101.767 89.6129 101.925C90.0236 102.084 90.3409 102.289 90.5649 102.541C90.7889 102.793 90.9009 103.143 90.9009 103.591C90.9009 104.282 90.6396 104.823 90.1169 105.215C89.5943 105.598 88.9036 105.789 88.0449 105.789ZM99.6959 105.285C99.5932 105.332 99.4532 105.393 99.2759 105.467C99.0985 105.542 98.8932 105.607 98.6599 105.663C98.4265 105.719 98.1792 105.747 97.9179 105.747C97.6192 105.747 97.3439 105.696 97.0919 105.593C96.8399 105.481 96.6392 105.313 96.4899 105.089C96.3405 104.856 96.2659 104.567 96.2659 104.221V99.3074H95.2719V98.3414H96.2659V95.9054H97.4979V98.3414H99.1359V99.3074H97.4979V103.843C97.5165 104.105 97.6052 104.301 97.7639 104.431C97.9225 104.553 98.1092 104.613 98.3239 104.613C98.5665 104.613 98.7905 104.571 98.9959 104.487C99.2012 104.403 99.3365 104.343 99.4019 104.305L99.6959 105.285ZM103.934 105.789C103.383 105.789 102.884 105.691 102.436 105.495C101.988 105.29 101.601 105.015 101.274 104.669C100.947 104.315 100.695 103.909 100.518 103.451C100.341 102.994 100.252 102.513 100.252 102.009C100.252 101.496 100.341 101.011 100.518 100.553C100.695 100.096 100.947 99.6947 101.274 99.3494C101.601 98.9947 101.988 98.7194 102.436 98.5234C102.893 98.3181 103.393 98.2154 103.934 98.2154C104.485 98.2154 104.984 98.3181 105.432 98.5234C105.88 98.7194 106.267 98.9947 106.594 99.3494C106.93 99.6947 107.187 100.096 107.364 100.553C107.541 101.011 107.63 101.496 107.63 102.009C107.63 102.513 107.541 102.994 107.364 103.451C107.187 103.909 106.935 104.315 106.608 104.669C106.281 105.015 105.889 105.29 105.432 105.495C104.984 105.691 104.485 105.789 103.934 105.789ZM101.512 102.023C101.512 102.527 101.619 102.985 101.834 103.395C102.058 103.806 102.352 104.133 102.716 104.375C103.08 104.609 103.486 104.725 103.934 104.725C104.382 104.725 104.788 104.604 105.152 104.361C105.525 104.119 105.819 103.792 106.034 103.381C106.258 102.961 106.37 102.499 106.37 101.995C106.37 101.491 106.258 101.034 106.034 100.623C105.819 100.213 105.525 99.8861 105.152 99.6434C104.788 99.4007 104.382 99.2794 103.934 99.2794C103.486 99.2794 103.08 99.4054 102.716 99.6574C102.352 99.9001 102.058 100.227 101.834 100.637C101.619 101.048 101.512 101.51 101.512 102.023ZM116.444 105.285C116.341 105.332 116.201 105.393 116.024 105.467C115.847 105.542 115.641 105.607 115.408 105.663C115.175 105.719 114.927 105.747 114.666 105.747C114.367 105.747 114.092 105.696 113.84 105.593C113.588 105.481 113.387 105.313 113.238 105.089C113.089 104.856 113.014 104.567 113.014 104.221V99.3074H112.02V98.3414H113.014V95.9054H114.246V98.3414H115.884V99.3074H114.246V103.843C114.265 104.105 114.353 104.301 114.512 104.431C114.671 104.553 114.857 104.613 115.072 104.613C115.315 104.613 115.539 104.571 115.744 104.487C115.949 104.403 116.085 104.343 116.15 104.305L116.444 105.285ZM123.928 105.649H122.696V101.561C122.696 100.815 122.56 100.255 122.29 99.8814C122.028 99.5081 121.65 99.3214 121.156 99.3214C120.838 99.3214 120.516 99.4054 120.19 99.5734C119.872 99.7414 119.592 99.9701 119.35 100.259C119.107 100.539 118.93 100.866 118.818 101.239V105.649H117.586V95.4294H118.818V99.9094C119.107 99.3867 119.499 98.9761 119.994 98.6774C120.498 98.3694 121.039 98.2154 121.618 98.2154C122.056 98.2154 122.42 98.2947 122.71 98.4534C123.008 98.6027 123.246 98.8174 123.424 99.0974C123.601 99.3774 123.727 99.7041 123.802 100.077C123.886 100.441 123.928 100.843 123.928 101.281V105.649ZM129.078 105.789C128.527 105.789 128.023 105.691 127.566 105.495C127.118 105.29 126.726 105.015 126.39 104.669C126.063 104.315 125.806 103.909 125.62 103.451C125.442 102.994 125.354 102.509 125.354 101.995C125.354 101.305 125.512 100.675 125.83 100.105C126.147 99.5361 126.586 99.0787 127.146 98.7334C127.715 98.3881 128.364 98.2154 129.092 98.2154C129.829 98.2154 130.468 98.3927 131.01 98.7474C131.56 99.0927 131.985 99.5501 132.284 100.119C132.592 100.679 132.746 101.286 132.746 101.939C132.746 102.033 132.741 102.126 132.732 102.219C132.732 102.303 132.727 102.369 132.718 102.415H126.656C126.693 102.891 126.824 103.316 127.048 103.689C127.281 104.053 127.58 104.343 127.944 104.557C128.308 104.763 128.7 104.865 129.12 104.865C129.568 104.865 129.988 104.753 130.38 104.529C130.781 104.305 131.056 104.011 131.206 103.647L132.27 103.941C132.111 104.296 131.873 104.613 131.556 104.893C131.248 105.173 130.879 105.393 130.45 105.551C130.03 105.71 129.572 105.789 129.078 105.789ZM126.614 101.561H131.598C131.56 101.085 131.425 100.665 131.192 100.301C130.958 99.9374 130.66 99.6527 130.296 99.4474C129.932 99.2421 129.53 99.1394 129.092 99.1394C128.662 99.1394 128.266 99.2421 127.902 99.4474C127.538 99.6527 127.239 99.9374 127.006 100.301C126.782 100.665 126.651 101.085 126.614 101.561ZM139.373 105.649L136.503 98.3414H137.791L140.087 104.473L142.383 98.3414H143.587L140.717 105.649H139.373ZM144.068 103.535C144.068 103.069 144.199 102.667 144.46 102.331C144.731 101.986 145.1 101.72 145.566 101.533C146.033 101.347 146.574 101.253 147.19 101.253C147.517 101.253 147.862 101.281 148.226 101.337C148.59 101.384 148.912 101.459 149.192 101.561V101.029C149.192 100.469 149.024 100.031 148.688 99.7134C148.352 99.3867 147.876 99.2234 147.26 99.2234C146.859 99.2234 146.472 99.2981 146.098 99.4474C145.734 99.5874 145.347 99.7927 144.936 100.063L144.488 99.1954C144.964 98.8687 145.44 98.6261 145.916 98.4674C146.392 98.2994 146.887 98.2154 147.4 98.2154C148.334 98.2154 149.071 98.4767 149.612 98.9994C150.154 99.5127 150.424 100.231 150.424 101.155V104.249C150.424 104.399 150.452 104.511 150.508 104.585C150.574 104.651 150.676 104.688 150.816 104.697V105.649C150.695 105.668 150.588 105.682 150.494 105.691C150.41 105.701 150.34 105.705 150.284 105.705C149.995 105.705 149.776 105.626 149.626 105.467C149.486 105.309 149.407 105.141 149.388 104.963L149.36 104.501C149.043 104.912 148.628 105.229 148.114 105.453C147.601 105.677 147.092 105.789 146.588 105.789C146.103 105.789 145.669 105.691 145.286 105.495C144.904 105.29 144.605 105.019 144.39 104.683C144.176 104.338 144.068 103.955 144.068 103.535ZM148.828 104.053C148.94 103.923 149.029 103.792 149.094 103.661C149.16 103.521 149.192 103.405 149.192 103.311V102.401C148.903 102.289 148.6 102.205 148.282 102.149C147.965 102.084 147.652 102.051 147.344 102.051C146.719 102.051 146.21 102.177 145.818 102.429C145.436 102.672 145.244 103.008 145.244 103.437C145.244 103.671 145.305 103.899 145.426 104.123C145.557 104.338 145.744 104.515 145.986 104.655C146.238 104.795 146.546 104.865 146.91 104.865C147.293 104.865 147.657 104.791 148.002 104.641C148.348 104.483 148.623 104.287 148.828 104.053ZM155.628 105.789C155.078 105.789 154.574 105.691 154.116 105.495C153.668 105.29 153.276 105.01 152.94 104.655C152.614 104.301 152.357 103.895 152.17 103.437C151.993 102.98 151.904 102.495 151.904 101.981C151.904 101.291 152.058 100.661 152.366 100.091C152.674 99.5221 153.108 99.0694 153.668 98.7334C154.228 98.3881 154.877 98.2154 155.614 98.2154C156.333 98.2154 156.958 98.3787 157.49 98.7054C158.032 99.0227 158.433 99.4521 158.694 99.9934L157.49 100.371C157.304 100.026 157.042 99.7601 156.706 99.5734C156.37 99.3774 155.997 99.2794 155.586 99.2794C155.138 99.2794 154.728 99.3961 154.354 99.6294C153.99 99.8627 153.701 100.185 153.486 100.595C153.272 100.997 153.164 101.459 153.164 101.981C153.164 102.495 153.272 102.961 153.486 103.381C153.71 103.792 154.004 104.119 154.368 104.361C154.742 104.604 155.152 104.725 155.6 104.725C155.89 104.725 156.165 104.674 156.426 104.571C156.697 104.469 156.93 104.333 157.126 104.165C157.332 103.988 157.472 103.797 157.546 103.591L158.75 103.955C158.601 104.31 158.372 104.627 158.064 104.907C157.766 105.178 157.406 105.393 156.986 105.551C156.576 105.71 156.123 105.789 155.628 105.789ZM159.572 103.535C159.572 103.069 159.703 102.667 159.964 102.331C160.235 101.986 160.604 101.72 161.07 101.533C161.537 101.347 162.078 101.253 162.694 101.253C163.021 101.253 163.366 101.281 163.73 101.337C164.094 101.384 164.416 101.459 164.696 101.561V101.029C164.696 100.469 164.528 100.031 164.192 99.7134C163.856 99.3867 163.38 99.2234 162.764 99.2234C162.363 99.2234 161.976 99.2981 161.602 99.4474C161.238 99.5874 160.851 99.7927 160.44 100.063L159.992 99.1954C160.468 98.8687 160.944 98.6261 161.42 98.4674C161.896 98.2994 162.391 98.2154 162.904 98.2154C163.838 98.2154 164.575 98.4767 165.116 98.9994C165.658 99.5127 165.928 100.231 165.928 101.155V104.249C165.928 104.399 165.956 104.511 166.012 104.585C166.078 104.651 166.18 104.688 166.32 104.697V105.649C166.199 105.668 166.092 105.682 165.998 105.691C165.914 105.701 165.844 105.705 165.788 105.705C165.499 105.705 165.28 105.626 165.13 105.467C164.99 105.309 164.911 105.141 164.892 104.963L164.864 104.501C164.547 104.912 164.132 105.229 163.618 105.453C163.105 105.677 162.596 105.789 162.092 105.789C161.607 105.789 161.173 105.691 160.79 105.495C160.408 105.29 160.109 105.019 159.894 104.683C159.68 104.338 159.572 103.955 159.572 103.535ZM164.332 104.053C164.444 103.923 164.533 103.792 164.598 103.661C164.664 103.521 164.696 103.405 164.696 103.311V102.401C164.407 102.289 164.104 102.205 163.786 102.149C163.469 102.084 163.156 102.051 162.848 102.051C162.223 102.051 161.714 102.177 161.322 102.429C160.94 102.672 160.748 103.008 160.748 103.437C160.748 103.671 160.809 103.899 160.93 104.123C161.061 104.338 161.248 104.515 161.49 104.655C161.742 104.795 162.05 104.865 162.414 104.865C162.797 104.865 163.161 104.791 163.506 104.641C163.852 104.483 164.127 104.287 164.332 104.053ZM174.24 105.649H173.008V101.561C173.008 100.787 172.887 100.222 172.644 99.8674C172.411 99.5034 172.052 99.3214 171.566 99.3214C171.23 99.3214 170.894 99.4054 170.558 99.5734C170.232 99.7414 169.938 99.9701 169.676 100.259C169.424 100.539 169.242 100.866 169.13 101.239V105.649H167.898V98.3414H169.018V99.9094C169.214 99.5641 169.466 99.2654 169.774 99.0134C170.082 98.7614 170.432 98.5654 170.824 98.4254C171.216 98.2854 171.627 98.2154 172.056 98.2154C172.476 98.2154 172.826 98.2947 173.106 98.4534C173.396 98.6027 173.62 98.8174 173.778 99.0974C173.946 99.3681 174.063 99.6901 174.128 100.063C174.203 100.437 174.24 100.843 174.24 101.281V105.649ZM179.39 105.789C178.839 105.789 178.335 105.691 177.878 105.495C177.43 105.29 177.038 105.01 176.702 104.655C176.375 104.301 176.119 103.895 175.932 103.437C175.755 102.98 175.666 102.495 175.666 101.981C175.666 101.291 175.82 100.661 176.128 100.091C176.436 99.5221 176.87 99.0694 177.43 98.7334C177.99 98.3881 178.639 98.2154 179.376 98.2154C180.095 98.2154 180.72 98.3787 181.252 98.7054C181.793 99.0227 182.195 99.4521 182.456 99.9934L181.252 100.371C181.065 100.026 180.804 99.7601 180.468 99.5734C180.132 99.3774 179.759 99.2794 179.348 99.2794C178.9 99.2794 178.489 99.3961 178.116 99.6294C177.752 99.8627 177.463 100.185 177.248 100.595C177.033 100.997 176.926 101.459 176.926 101.981C176.926 102.495 177.033 102.961 177.248 103.381C177.472 103.792 177.766 104.119 178.13 104.361C178.503 104.604 178.914 104.725 179.362 104.725C179.651 104.725 179.927 104.674 180.188 104.571C180.459 104.469 180.692 104.333 180.888 104.165C181.093 103.988 181.233 103.797 181.308 103.591L182.512 103.955C182.363 104.31 182.134 104.627 181.826 104.907C181.527 105.178 181.168 105.393 180.748 105.551C180.337 105.71 179.885 105.789 179.39 105.789ZM184.121 107.637C184.242 107.647 184.364 107.656 184.485 107.665C184.606 107.684 184.7 107.693 184.765 107.693C184.914 107.693 185.045 107.642 185.157 107.539C185.269 107.437 185.39 107.236 185.521 106.937C185.661 106.648 185.838 106.219 186.053 105.649L182.959 98.3414H184.261L186.725 104.403L188.951 98.3414H190.169L186.613 107.567C186.529 107.782 186.403 107.983 186.235 108.169C186.076 108.365 185.871 108.519 185.619 108.631C185.367 108.743 185.064 108.799 184.709 108.799C184.625 108.799 184.536 108.795 184.443 108.785C184.359 108.776 184.252 108.757 184.121 108.729V107.637Z" fill="white"/>
</g>
<defs>
<filter id="filter0_b_134_4192" x="-22" y="-21.3506" width="260" height="173" filterUnits="userSpaceOnUse" color-interpolation-filters="sRGB">
<feFlood flood-opacity="0" result="BackgroundImageFix"/>
<feGaussianBlur in="BackgroundImageFix" stdDeviation="11"/>
<feComposite in2="SourceAlpha" operator="in" result="effect1_backgroundBlur_134_4192"/>
<feBlend mode="normal" in="SourceGraphic" in2="effect1_backgroundBlur_134_4192" result="shape"/>
</filter>
</defs>
</svg>
