<svg width="191" height="130" viewBox="0 0 191 130" fill="none" xmlns="http://www.w3.org/2000/svg">
<g filter="url(#filter0_b_134_4207)">
<rect y="0.649414" width="191" height="129" rx="12" fill="black" fill-opacity="0.15"/>
<mask id="mask0_134_4207" style="mask-type:alpha" maskUnits="userSpaceOnUse" x="19" y="21" width="18" height="19">
<rect x="19" y="21.6494" width="18" height="18" fill="#D9D9D9"/>
</mask>
<g mask="url(#mask0_134_4207)">
<path d="M30.9995 36.6493V31.3993H33.9995V36.6493H30.9995ZM26.4995 36.6493V24.6493H29.4995V36.6493H26.4995ZM21.9995 36.6493V28.3993H24.9995V36.6493H21.9995Z" fill="white"/>
</g>
<path d="M140 31.1493C140 33.1384 139.21 35.0461 137.803 36.4526C136.397 37.8591 134.489 38.6493 132.5 38.6493C130.511 38.6493 128.603 37.8591 127.197 36.4526C125.79 35.0461 125 33.1384 125 31.1493H126.246C126.246 32.8081 126.905 34.3989 128.078 35.5718C129.25 36.7447 130.841 37.4036 132.5 37.4036C134.159 37.4036 135.75 36.7447 136.922 35.5718C138.095 34.3989 138.754 32.8081 138.754 31.1493H140Z" fill="#BABBBB"/>
<path d="M132.862 23.658C134.849 23.754 136.716 24.6353 138.053 26.108C139.39 27.5808 140.087 29.5243 139.991 31.5111L138.747 31.451C138.827 29.7942 138.246 28.1735 137.131 26.9453C136.016 25.7172 134.459 24.9823 132.802 24.9022L132.862 23.658Z" fill="white"/>
<path d="M125 31.1493C125 30.0066 125.262 28.8789 125.764 27.8525C126.266 26.8261 126.996 25.928 127.899 25.2269L128.663 26.2106C127.911 26.7953 127.302 27.5442 126.883 28.4001C126.464 29.256 126.246 30.1964 126.246 31.1493H125Z" fill="white"/>
<path d="M127.899 25.2269C129.384 24.0731 131.248 23.5193 133.122 23.6753L133.019 24.9167C131.456 24.7866 129.902 25.2484 128.663 26.2106L127.899 25.2269Z" fill="#C4CACD"/>
<mask id="mask1_134_4207" style="mask-type:alpha" maskUnits="userSpaceOnUse" x="154" y="21" width="18" height="19">
<rect x="154" y="21.6494" width="18" height="18" fill="#D9D9D9"/>
</mask>
<g mask="url(#mask1_134_4207)">
<path fill-rule="evenodd" clip-rule="evenodd" d="M160.075 37.5587C160.987 37.9524 161.962 38.1493 163 38.1493C164.037 38.1493 165.012 37.9524 165.925 37.5587C166.837 37.1649 167.631 36.6306 168.306 35.9556C168.981 35.2806 169.515 34.4868 169.909 33.5743C170.303 32.6618 170.5 31.6868 170.5 30.6493C170.5 29.6118 170.303 28.6368 169.909 27.7243C169.515 26.8118 168.981 26.0181 168.306 25.3431C167.631 24.6681 166.837 24.1337 165.925 23.7399C165.012 23.3462 164.037 23.1493 163 23.1493C161.962 23.1493 160.987 23.3462 160.075 23.7399C159.162 24.1337 158.368 24.6681 157.693 25.3431C157.018 26.0181 156.484 26.8118 156.09 27.7243C155.696 28.6368 155.5 29.6118 155.5 30.6493C155.5 31.6868 155.696 32.6618 156.09 33.5743C156.484 34.4868 157.018 35.2806 157.693 35.9556C158.368 36.6306 159.162 37.1649 160.075 37.5587ZM167.256 34.9056C166.093 36.0681 164.675 36.6493 163 36.6493C161.325 36.6493 159.906 36.0681 158.743 34.9056C157.581 33.7431 157 32.3243 157 30.6493C157 28.9743 157.581 27.5556 158.743 26.3931C159.906 25.2306 161.325 24.6493 163 24.6493C164.675 24.6493 166.093 25.2306 167.256 26.3931C168.418 27.5556 169 28.9743 169 30.6493C169 32.3243 168.418 33.7431 167.256 34.9056Z" fill="#CBCBCB"/>
<path fill-rule="evenodd" clip-rule="evenodd" d="M163 36.6493C164.675 36.6493 166.093 36.0681 167.256 34.9056C168.418 33.7431 169 32.3243 169 30.6493C169 28.9743 168.418 27.5556 167.256 26.3931C166.093 25.2306 164.675 24.6493 163 24.6493C161.325 24.6493 159.906 25.2306 158.743 26.3931C157.581 27.5556 157 28.9743 157 30.6493C157 32.3243 157.581 33.7431 158.743 34.9056C159.906 36.0681 161.325 36.6493 163 36.6493ZM163.75 34.3993H162.25V31.3993H159.25V29.8993H162.25V26.8993H163.75V29.8993H166.75V31.3993H163.75V34.3993Z" fill="#CBCBCB"/>
</g>
<path d="M19.936 64.0494V60.6954H26.202V79.6494H22.458V64.0494H19.936ZM32.9699 69.6134C31.2366 68.7121 30.3699 67.3167 30.3699 65.4274C30.3699 64.4914 30.6039 63.6421 31.0719 62.8794C31.5573 62.0994 32.2766 61.4841 33.2299 61.0334C34.2006 60.5654 35.3793 60.3314 36.7659 60.3314C38.1526 60.3314 39.3226 60.5654 40.2759 61.0334C41.2466 61.4841 41.9659 62.0994 42.4339 62.8794C42.9193 63.6421 43.1619 64.4914 43.1619 65.4274C43.1619 66.3807 42.9279 67.2214 42.4599 67.9494C41.9919 68.6601 41.3679 69.2147 40.5879 69.6134C41.5413 70.0294 42.2866 70.6361 42.8239 71.4334C43.3613 72.2307 43.6299 73.1754 43.6299 74.2674C43.6299 75.4461 43.3266 76.4774 42.7199 77.3614C42.1306 78.2281 41.3159 78.8954 40.2759 79.3634C39.2359 79.8314 38.0659 80.0654 36.7659 80.0654C35.4659 80.0654 34.2959 79.8314 33.2559 79.3634C32.2333 78.8954 31.4186 78.2281 30.8119 77.3614C30.2226 76.4774 29.9279 75.4461 29.9279 74.2674C29.9279 73.1754 30.1966 72.2307 30.7339 71.4334C31.2713 70.6187 32.0166 70.0121 32.9699 69.6134ZM39.6259 65.9474C39.6259 65.0981 39.3659 64.4394 38.8459 63.9714C38.3433 63.5034 37.6499 63.2694 36.7659 63.2694C35.8993 63.2694 35.2059 63.5034 34.6859 63.9714C34.1833 64.4394 33.9319 65.1067 33.9319 65.9734C33.9319 66.7534 34.1919 67.3774 34.7119 67.8454C35.2493 68.3134 35.9339 68.5474 36.7659 68.5474C37.5979 68.5474 38.2826 68.3134 38.8199 67.8454C39.3573 67.3601 39.6259 66.7274 39.6259 65.9474ZM36.7659 71.1994C35.7779 71.1994 34.9719 71.4507 34.3479 71.9534C33.7413 72.4561 33.4379 73.1754 33.4379 74.1114C33.4379 74.9781 33.7326 75.6887 34.3219 76.2434C34.9286 76.7807 35.7433 77.0494 36.7659 77.0494C37.7886 77.0494 38.5946 76.7721 39.1839 76.2174C39.7733 75.6627 40.0679 74.9607 40.0679 74.1114C40.0679 73.1927 39.7646 72.4821 39.1579 71.9794C38.5513 71.4594 37.7539 71.1994 36.7659 71.1994ZM46.505 69.9254C46.505 66.9267 47.0423 64.5781 48.117 62.8794C49.209 61.1807 51.0116 60.3314 53.525 60.3314C56.0383 60.3314 57.8323 61.1807 58.907 62.8794C59.999 64.5781 60.545 66.9267 60.545 69.9254C60.545 72.9414 59.999 75.3074 58.907 77.0234C57.8323 78.7394 56.0383 79.5974 53.525 79.5974C51.0116 79.5974 49.209 78.7394 48.117 77.0234C47.0423 75.3074 46.505 72.9414 46.505 69.9254ZM56.957 69.9254C56.957 68.6427 56.8703 67.5681 56.697 66.7014C56.541 65.8174 56.2116 65.0981 55.709 64.5434C55.2236 63.9887 54.4956 63.7114 53.525 63.7114C52.5543 63.7114 51.8176 63.9887 51.315 64.5434C50.8296 65.0981 50.5003 65.8174 50.327 66.7014C50.171 67.5681 50.093 68.6427 50.093 69.9254C50.093 71.2427 50.171 72.3521 50.327 73.2534C50.483 74.1374 50.8123 74.8567 51.315 75.4114C51.8176 75.9487 52.5543 76.2174 53.525 76.2174C54.4956 76.2174 55.2323 75.9487 55.735 75.4114C56.2376 74.8567 56.567 74.1374 56.723 73.2534C56.879 72.3521 56.957 71.2427 56.957 69.9254ZM63.3135 69.9254C63.3135 66.9267 63.8509 64.5781 64.9255 62.8794C66.0175 61.1807 67.8202 60.3314 70.3335 60.3314C72.8469 60.3314 74.6409 61.1807 75.7155 62.8794C76.8075 64.5781 77.3535 66.9267 77.3535 69.9254C77.3535 72.9414 76.8075 75.3074 75.7155 77.0234C74.6409 78.7394 72.8469 79.5974 70.3335 79.5974C67.8202 79.5974 66.0175 78.7394 64.9255 77.0234C63.8509 75.3074 63.3135 72.9414 63.3135 69.9254ZM73.7655 69.9254C73.7655 68.6427 73.6789 67.5681 73.5055 66.7014C73.3495 65.8174 73.0202 65.0981 72.5175 64.5434C72.0322 63.9887 71.3042 63.7114 70.3335 63.7114C69.3629 63.7114 68.6262 63.9887 68.1235 64.5434C67.6382 65.0981 67.3089 65.8174 67.1355 66.7014C66.9795 67.5681 66.9015 68.6427 66.9015 69.9254C66.9015 71.2427 66.9795 72.3521 67.1355 73.2534C67.2915 74.1374 67.6209 74.8567 68.1235 75.4114C68.6262 75.9487 69.3629 76.2174 70.3335 76.2174C71.3042 76.2174 72.0409 75.9487 72.5435 75.4114C73.0462 74.8567 73.3755 74.1374 73.5315 73.2534C73.6875 72.3521 73.7655 71.2427 73.7655 69.9254ZM94.1361 71.9794H89.2221V77.0234H85.7901V71.9794H80.8761V68.8074H85.7901V63.7634H89.2221V68.8074H94.1361V71.9794Z" fill="white"/>
<path d="M20.19 106.649V96.7094H24.446C24.8847 96.7094 25.286 96.8027 25.65 96.9894C26.014 97.1667 26.3313 97.4094 26.602 97.7174C26.8727 98.0161 27.0827 98.3567 27.232 98.7394C27.3813 99.1127 27.456 99.4954 27.456 99.8874C27.456 100.345 27.3673 100.779 27.19 101.189C27.022 101.6 26.7793 101.95 26.462 102.239C26.154 102.529 25.79 102.729 25.37 102.841L27.778 106.649H26.35L24.082 103.079H21.45V106.649H20.19ZM21.45 101.959H24.46C24.8053 101.959 25.104 101.866 25.356 101.679C25.6173 101.483 25.818 101.227 25.958 100.909C26.1073 100.592 26.182 100.251 26.182 99.8874C26.182 99.5141 26.098 99.1734 25.93 98.8654C25.762 98.5481 25.5427 98.2961 25.272 98.1094C25.0013 97.9227 24.7027 97.8294 24.376 97.8294H21.45V101.959ZM32.1968 106.789C31.6461 106.789 31.1421 106.691 30.6848 106.495C30.2368 106.29 29.8448 106.015 29.5088 105.669C29.1821 105.315 28.9254 104.909 28.7388 104.451C28.5614 103.994 28.4728 103.509 28.4728 102.995C28.4728 102.305 28.6314 101.675 28.9488 101.105C29.2661 100.536 29.7048 100.079 30.2648 99.7334C30.8341 99.3881 31.4828 99.2154 32.2108 99.2154C32.9481 99.2154 33.5874 99.3927 34.1288 99.7474C34.6794 100.093 35.1041 100.55 35.4028 101.119C35.7108 101.679 35.8648 102.286 35.8648 102.939C35.8648 103.033 35.8601 103.126 35.8508 103.219C35.8508 103.303 35.8461 103.369 35.8368 103.415H29.7748C29.8121 103.891 29.9428 104.316 30.1668 104.689C30.4001 105.053 30.6988 105.343 31.0628 105.557C31.4268 105.763 31.8188 105.865 32.2388 105.865C32.6868 105.865 33.1068 105.753 33.4988 105.529C33.9001 105.305 34.1754 105.011 34.3248 104.647L35.3888 104.941C35.2301 105.296 34.9921 105.613 34.6748 105.893C34.3668 106.173 33.9981 106.393 33.5688 106.551C33.1488 106.71 32.6914 106.789 32.1968 106.789ZM29.7328 102.561H34.7168C34.6794 102.085 34.5441 101.665 34.3108 101.301C34.0774 100.937 33.7788 100.653 33.4148 100.447C33.0508 100.242 32.6494 100.139 32.2108 100.139C31.7814 100.139 31.3848 100.242 31.0208 100.447C30.6568 100.653 30.3581 100.937 30.1248 101.301C29.9008 101.665 29.7701 102.085 29.7328 102.561ZM37.2622 96.4294H38.4942V104.759C38.4942 105.161 38.5502 105.408 38.6622 105.501C38.7742 105.595 38.9096 105.641 39.0682 105.641C39.2642 105.641 39.4509 105.623 39.6282 105.585C39.8056 105.539 39.9549 105.492 40.0762 105.445L40.2722 106.453C40.0669 106.537 39.8242 106.607 39.5442 106.663C39.2642 106.719 39.0169 106.747 38.8022 106.747C38.3262 106.747 37.9482 106.612 37.6682 106.341C37.3976 106.071 37.2622 105.693 37.2622 105.207V96.4294ZM44.4741 106.789C43.9234 106.789 43.4194 106.691 42.9621 106.495C42.5141 106.29 42.1221 106.015 41.7861 105.669C41.4594 105.315 41.2028 104.909 41.0161 104.451C40.8388 103.994 40.7501 103.509 40.7501 102.995C40.7501 102.305 40.9088 101.675 41.2261 101.105C41.5434 100.536 41.9821 100.079 42.5421 99.7334C43.1114 99.3881 43.7601 99.2154 44.4881 99.2154C45.2254 99.2154 45.8648 99.3927 46.4061 99.7474C46.9568 100.093 47.3814 100.55 47.6801 101.119C47.9881 101.679 48.1421 102.286 48.1421 102.939C48.1421 103.033 48.1374 103.126 48.1281 103.219C48.1281 103.303 48.1234 103.369 48.1141 103.415H42.0521C42.0894 103.891 42.2201 104.316 42.4441 104.689C42.6774 105.053 42.9761 105.343 43.3401 105.557C43.7041 105.763 44.0961 105.865 44.5161 105.865C44.9641 105.865 45.3841 105.753 45.7761 105.529C46.1774 105.305 46.4528 105.011 46.6021 104.647L47.6661 104.941C47.5074 105.296 47.2694 105.613 46.9521 105.893C46.6441 106.173 46.2754 106.393 45.8461 106.551C45.4261 106.71 44.9688 106.789 44.4741 106.789ZM42.0101 102.561H46.9941C46.9568 102.085 46.8214 101.665 46.5881 101.301C46.3548 100.937 46.0561 100.653 45.6921 100.447C45.3281 100.242 44.9268 100.139 44.4881 100.139C44.0588 100.139 43.6621 100.242 43.2981 100.447C42.9341 100.653 42.6354 100.937 42.4021 101.301C42.1781 101.665 42.0474 102.085 42.0101 102.561ZM51.4202 106.649L48.5502 99.3414H49.8382L52.1342 105.473L54.4302 99.3414H55.6342L52.7642 106.649H51.4202ZM56.1153 104.535C56.1153 104.069 56.246 103.667 56.5073 103.331C56.778 102.986 57.1466 102.72 57.6133 102.533C58.08 102.347 58.6213 102.253 59.2373 102.253C59.564 102.253 59.9093 102.281 60.2733 102.337C60.6373 102.384 60.9593 102.459 61.2393 102.561V102.029C61.2393 101.469 61.0713 101.031 60.7353 100.713C60.3993 100.387 59.9233 100.223 59.3073 100.223C58.906 100.223 58.5186 100.298 58.1453 100.447C57.7813 100.587 57.394 100.793 56.9833 101.063L56.5353 100.195C57.0113 99.8687 57.4873 99.6261 57.9633 99.4674C58.4393 99.2994 58.934 99.2154 59.4473 99.2154C60.3806 99.2154 61.118 99.4767 61.6593 99.9994C62.2006 100.513 62.4713 101.231 62.4713 102.155V105.249C62.4713 105.399 62.4993 105.511 62.5553 105.585C62.6206 105.651 62.7233 105.688 62.8633 105.697V106.649C62.742 106.668 62.6346 106.682 62.5413 106.691C62.4573 106.701 62.3873 106.705 62.3313 106.705C62.042 106.705 61.8226 106.626 61.6733 106.467C61.5333 106.309 61.454 106.141 61.4353 105.963L61.4073 105.501C61.09 105.912 60.6746 106.229 60.1613 106.453C59.648 106.677 59.1393 106.789 58.6353 106.789C58.15 106.789 57.716 106.691 57.3333 106.495C56.9506 106.29 56.652 106.019 56.4373 105.683C56.2226 105.338 56.1153 104.955 56.1153 104.535ZM60.8753 105.053C60.9873 104.923 61.076 104.792 61.1413 104.661C61.2066 104.521 61.2393 104.405 61.2393 104.311V103.401C60.95 103.289 60.6466 103.205 60.3293 103.149C60.012 103.084 59.6993 103.051 59.3913 103.051C58.766 103.051 58.2573 103.177 57.8653 103.429C57.4826 103.672 57.2913 104.008 57.2913 104.437C57.2913 104.671 57.352 104.899 57.4733 105.123C57.604 105.338 57.7906 105.515 58.0333 105.655C58.2853 105.795 58.5933 105.865 58.9573 105.865C59.34 105.865 59.704 105.791 60.0493 105.641C60.3946 105.483 60.67 105.287 60.8753 105.053ZM70.7833 106.649H69.5513V102.561C69.5513 101.787 69.4299 101.222 69.1873 100.867C68.9539 100.503 68.5946 100.321 68.1093 100.321C67.7733 100.321 67.4373 100.405 67.1013 100.573C66.7746 100.741 66.4806 100.97 66.2193 101.259C65.9673 101.539 65.7853 101.866 65.6733 102.239V106.649H64.4413V99.3414H65.5613V100.909C65.7573 100.564 66.0093 100.265 66.3173 100.013C66.6253 99.7614 66.9753 99.5654 67.3673 99.4254C67.7593 99.2854 68.1699 99.2154 68.5993 99.2154C69.0193 99.2154 69.3693 99.2947 69.6493 99.4534C69.9386 99.6027 70.1626 99.8174 70.3213 100.097C70.4893 100.368 70.6059 100.69 70.6713 101.063C70.7459 101.437 70.7833 101.843 70.7833 102.281V106.649ZM76.4107 106.285C76.3081 106.332 76.1681 106.393 75.9907 106.467C75.8134 106.542 75.6081 106.607 75.3747 106.663C75.1414 106.719 74.8941 106.747 74.6327 106.747C74.3341 106.747 74.0587 106.696 73.8067 106.593C73.5547 106.481 73.3541 106.313 73.2047 106.089C73.0554 105.856 72.9807 105.567 72.9807 105.221V100.307H71.9867V99.3414H72.9807V96.9054H74.2127V99.3414H75.8507V100.307H74.2127V104.843C74.2314 105.105 74.3201 105.301 74.4787 105.431C74.6374 105.553 74.8241 105.613 75.0387 105.613C75.2814 105.613 75.5054 105.571 75.7107 105.487C75.9161 105.403 76.0514 105.343 76.1167 105.305L76.4107 106.285ZM84.3276 106.789C83.7769 106.789 83.2729 106.691 82.8156 106.495C82.3676 106.29 81.9756 106.01 81.6396 105.655C81.3129 105.301 81.0563 104.895 80.8696 104.437C80.6923 103.98 80.6036 103.495 80.6036 102.981C80.6036 102.291 80.7576 101.661 81.0656 101.091C81.3736 100.522 81.8076 100.069 82.3676 99.7334C82.9276 99.3881 83.5763 99.2154 84.3136 99.2154C85.0323 99.2154 85.6576 99.3787 86.1896 99.7054C86.7309 100.023 87.1323 100.452 87.3936 100.993L86.1896 101.371C86.0029 101.026 85.7416 100.76 85.4056 100.573C85.0696 100.377 84.6963 100.279 84.2856 100.279C83.8376 100.279 83.4269 100.396 83.0536 100.629C82.6896 100.863 82.4003 101.185 82.1856 101.595C81.9709 101.997 81.8636 102.459 81.8636 102.981C81.8636 103.495 81.9709 103.961 82.1856 104.381C82.4096 104.792 82.7036 105.119 83.0676 105.361C83.4409 105.604 83.8516 105.725 84.2996 105.725C84.5889 105.725 84.8643 105.674 85.1256 105.571C85.3963 105.469 85.6296 105.333 85.8256 105.165C86.0309 104.988 86.1709 104.797 86.2456 104.591L87.4496 104.955C87.3003 105.31 87.0716 105.627 86.7636 105.907C86.4649 106.178 86.1056 106.393 85.6856 106.551C85.2749 106.71 84.8223 106.789 84.3276 106.789ZM88.2716 104.535C88.2716 104.069 88.4022 103.667 88.6636 103.331C88.9342 102.986 89.3029 102.72 89.7696 102.533C90.2362 102.347 90.7776 102.253 91.3936 102.253C91.7202 102.253 92.0656 102.281 92.4296 102.337C92.7936 102.384 93.1156 102.459 93.3956 102.561V102.029C93.3956 101.469 93.2276 101.031 92.8916 100.713C92.5556 100.387 92.0796 100.223 91.4636 100.223C91.0622 100.223 90.6749 100.298 90.3016 100.447C89.9376 100.587 89.5502 100.793 89.1396 101.063L88.6916 100.195C89.1676 99.8687 89.6436 99.6261 90.1196 99.4674C90.5956 99.2994 91.0902 99.2154 91.6036 99.2154C92.5369 99.2154 93.2742 99.4767 93.8156 99.9994C94.3569 100.513 94.6276 101.231 94.6276 102.155V105.249C94.6276 105.399 94.6556 105.511 94.7116 105.585C94.7769 105.651 94.8796 105.688 95.0196 105.697V106.649C94.8982 106.668 94.7909 106.682 94.6976 106.691C94.6136 106.701 94.5436 106.705 94.4876 106.705C94.1982 106.705 93.9789 106.626 93.8296 106.467C93.6896 106.309 93.6102 106.141 93.5916 105.963L93.5636 105.501C93.2462 105.912 92.8309 106.229 92.3176 106.453C91.8042 106.677 91.2956 106.789 90.7916 106.789C90.3062 106.789 89.8722 106.691 89.4896 106.495C89.1069 106.29 88.8082 106.019 88.5936 105.683C88.3789 105.338 88.2716 104.955 88.2716 104.535ZM93.0316 105.053C93.1436 104.923 93.2322 104.792 93.2976 104.661C93.3629 104.521 93.3956 104.405 93.3956 104.311V103.401C93.1062 103.289 92.8029 103.205 92.4856 103.149C92.1682 103.084 91.8556 103.051 91.5476 103.051C90.9222 103.051 90.4136 103.177 90.0216 103.429C89.6389 103.672 89.4476 104.008 89.4476 104.437C89.4476 104.671 89.5082 104.899 89.6296 105.123C89.7602 105.338 89.9469 105.515 90.1896 105.655C90.4416 105.795 90.7496 105.865 91.1136 105.865C91.4962 105.865 91.8602 105.791 92.2056 105.641C92.5509 105.483 92.8262 105.287 93.0316 105.053ZM102.94 106.649H101.708V102.561C101.708 101.787 101.586 101.222 101.344 100.867C101.11 100.503 100.751 100.321 100.266 100.321C99.9295 100.321 99.5935 100.405 99.2575 100.573C98.9308 100.741 98.6368 100.97 98.3755 101.259C98.1235 101.539 97.9415 101.866 97.8295 102.239V106.649H96.5975V99.3414H97.7175V100.909C97.9135 100.564 98.1655 100.265 98.4735 100.013C98.7815 99.7614 99.1315 99.5654 99.5235 99.4254C99.9155 99.2854 100.326 99.2154 100.756 99.2154C101.176 99.2154 101.526 99.2947 101.806 99.4534C102.095 99.6027 102.319 99.8174 102.478 100.097C102.646 100.368 102.762 100.69 102.828 101.063C102.902 101.437 102.94 101.843 102.94 102.281V106.649ZM104.379 103.009C104.379 102.319 104.519 101.689 104.799 101.119C105.089 100.541 105.481 100.079 105.975 99.7334C106.479 99.3881 107.053 99.2154 107.697 99.2154C108.285 99.2154 108.813 99.3694 109.279 99.6774C109.746 99.9854 110.11 100.359 110.371 100.797V96.4294H111.603V105.249C111.603 105.399 111.631 105.511 111.687 105.585C111.753 105.651 111.855 105.688 111.995 105.697V106.649C111.762 106.687 111.58 106.705 111.449 106.705C111.207 106.705 110.992 106.621 110.805 106.453C110.628 106.285 110.539 106.099 110.539 105.893V105.277C110.25 105.744 109.863 106.113 109.377 106.383C108.892 106.654 108.388 106.789 107.865 106.789C107.361 106.789 106.895 106.691 106.465 106.495C106.045 106.29 105.677 106.01 105.359 105.655C105.051 105.301 104.809 104.899 104.631 104.451C104.463 103.994 104.379 103.513 104.379 103.009ZM110.371 104.087V101.987C110.259 101.67 110.077 101.385 109.825 101.133C109.573 100.872 109.289 100.667 108.971 100.517C108.663 100.359 108.355 100.279 108.047 100.279C107.683 100.279 107.352 100.359 107.053 100.517C106.764 100.667 106.512 100.872 106.297 101.133C106.092 101.385 105.933 101.675 105.821 102.001C105.709 102.328 105.653 102.669 105.653 103.023C105.653 103.387 105.714 103.733 105.835 104.059C105.966 104.386 106.143 104.675 106.367 104.927C106.601 105.179 106.867 105.375 107.165 105.515C107.473 105.655 107.805 105.725 108.159 105.725C108.383 105.725 108.612 105.683 108.845 105.599C109.088 105.515 109.317 105.399 109.531 105.249C109.746 105.1 109.928 104.927 110.077 104.731C110.227 104.526 110.325 104.311 110.371 104.087ZM113.66 106.649V99.3414H114.892V106.649H113.66ZM113.66 97.9694V96.4294H114.892V97.9694H113.66ZM116.411 103.009C116.411 102.319 116.551 101.689 116.831 101.119C117.12 100.541 117.512 100.079 118.007 99.7334C118.511 99.3881 119.085 99.2154 119.729 99.2154C120.317 99.2154 120.844 99.3694 121.311 99.6774C121.777 99.9854 122.141 100.359 122.403 100.797V96.4294H123.635V105.249C123.635 105.399 123.663 105.511 123.719 105.585C123.784 105.651 123.887 105.688 124.027 105.697V106.649C123.793 106.687 123.611 106.705 123.481 106.705C123.238 106.705 123.023 106.621 122.837 106.453C122.659 106.285 122.571 106.099 122.571 105.893V105.277C122.281 105.744 121.894 106.113 121.409 106.383C120.923 106.654 120.419 106.789 119.897 106.789C119.393 106.789 118.926 106.691 118.497 106.495C118.077 106.29 117.708 106.01 117.391 105.655C117.083 105.301 116.84 104.899 116.663 104.451C116.495 103.994 116.411 103.513 116.411 103.009ZM122.403 104.087V101.987C122.291 101.67 122.109 101.385 121.857 101.133C121.605 100.872 121.32 100.667 121.003 100.517C120.695 100.359 120.387 100.279 120.079 100.279C119.715 100.279 119.383 100.359 119.085 100.517C118.795 100.667 118.543 100.872 118.329 101.133C118.123 101.385 117.965 101.675 117.853 102.001C117.741 102.328 117.685 102.669 117.685 103.023C117.685 103.387 117.745 103.733 117.867 104.059C117.997 104.386 118.175 104.675 118.399 104.927C118.632 105.179 118.898 105.375 119.197 105.515C119.505 105.655 119.836 105.725 120.191 105.725C120.415 105.725 120.643 105.683 120.877 105.599C121.119 105.515 121.348 105.399 121.563 105.249C121.777 105.1 121.959 104.927 122.109 104.731C122.258 104.526 122.356 104.311 122.403 104.087ZM125.117 104.535C125.117 104.069 125.248 103.667 125.509 103.331C125.78 102.986 126.149 102.72 126.615 102.533C127.082 102.347 127.623 102.253 128.239 102.253C128.566 102.253 128.911 102.281 129.275 102.337C129.639 102.384 129.961 102.459 130.241 102.561V102.029C130.241 101.469 130.073 101.031 129.737 100.713C129.401 100.387 128.925 100.223 128.309 100.223C127.908 100.223 127.521 100.298 127.147 100.447C126.783 100.587 126.396 100.793 125.985 101.063L125.537 100.195C126.013 99.8687 126.489 99.6261 126.965 99.4674C127.441 99.2994 127.936 99.2154 128.449 99.2154C129.383 99.2154 130.12 99.4767 130.661 99.9994C131.203 100.513 131.473 101.231 131.473 102.155V105.249C131.473 105.399 131.501 105.511 131.557 105.585C131.623 105.651 131.725 105.688 131.865 105.697V106.649C131.744 106.668 131.637 106.682 131.543 106.691C131.459 106.701 131.389 106.705 131.333 106.705C131.044 106.705 130.825 106.626 130.675 106.467C130.535 106.309 130.456 106.141 130.437 105.963L130.409 105.501C130.092 105.912 129.677 106.229 129.163 106.453C128.65 106.677 128.141 106.789 127.637 106.789C127.152 106.789 126.718 106.691 126.335 106.495C125.953 106.29 125.654 106.019 125.439 105.683C125.225 105.338 125.117 104.955 125.117 104.535ZM129.877 105.053C129.989 104.923 130.078 104.792 130.143 104.661C130.209 104.521 130.241 104.405 130.241 104.311V103.401C129.952 103.289 129.649 103.205 129.331 103.149C129.014 103.084 128.701 103.051 128.393 103.051C127.768 103.051 127.259 103.177 126.867 103.429C126.485 103.672 126.293 104.008 126.293 104.437C126.293 104.671 126.354 104.899 126.475 105.123C126.606 105.338 126.793 105.515 127.035 105.655C127.287 105.795 127.595 105.865 127.959 105.865C128.342 105.865 128.706 105.791 129.051 105.641C129.397 105.483 129.672 105.287 129.877 105.053ZM137.169 106.285C137.066 106.332 136.926 106.393 136.749 106.467C136.571 106.542 136.366 106.607 136.133 106.663C135.899 106.719 135.652 106.747 135.391 106.747C135.092 106.747 134.817 106.696 134.565 106.593C134.313 106.481 134.112 106.313 133.963 106.089C133.813 105.856 133.739 105.567 133.739 105.221V100.307H132.745V99.3414H133.739V96.9054H134.971V99.3414H136.609V100.307H134.971V104.843C134.989 105.105 135.078 105.301 135.237 105.431C135.395 105.553 135.582 105.613 135.797 105.613C136.039 105.613 136.263 105.571 136.469 105.487C136.674 105.403 136.809 105.343 136.875 105.305L137.169 106.285ZM141.449 106.789C140.898 106.789 140.394 106.691 139.937 106.495C139.489 106.29 139.097 106.015 138.761 105.669C138.434 105.315 138.177 104.909 137.991 104.451C137.813 103.994 137.725 103.509 137.725 102.995C137.725 102.305 137.883 101.675 138.201 101.105C138.518 100.536 138.957 100.079 139.517 99.7334C140.086 99.3881 140.735 99.2154 141.463 99.2154C142.2 99.2154 142.839 99.3927 143.381 99.7474C143.931 100.093 144.356 100.55 144.655 101.119C144.963 101.679 145.117 102.286 145.117 102.939C145.117 103.033 145.112 103.126 145.103 103.219C145.103 103.303 145.098 103.369 145.089 103.415H139.027C139.064 103.891 139.195 104.316 139.419 104.689C139.652 105.053 139.951 105.343 140.315 105.557C140.679 105.763 141.071 105.865 141.491 105.865C141.939 105.865 142.359 105.753 142.751 105.529C143.152 105.305 143.427 105.011 143.577 104.647L144.641 104.941C144.482 105.296 144.244 105.613 143.927 105.893C143.619 106.173 143.25 106.393 142.821 106.551C142.401 106.71 141.943 106.789 141.449 106.789ZM138.985 102.561H143.969C143.931 102.085 143.796 101.665 143.563 101.301C143.329 100.937 143.031 100.653 142.667 100.447C142.303 100.242 141.901 100.139 141.463 100.139C141.033 100.139 140.637 100.242 140.273 100.447C139.909 100.653 139.61 100.937 139.377 101.301C139.153 101.665 139.022 102.085 138.985 102.561ZM148.992 106.789C148.386 106.789 147.816 106.691 147.284 106.495C146.752 106.29 146.295 105.987 145.912 105.585L146.388 104.717C146.808 105.109 147.228 105.389 147.648 105.557C148.068 105.725 148.498 105.809 148.936 105.809C149.44 105.809 149.851 105.716 150.168 105.529C150.486 105.333 150.644 105.049 150.644 104.675C150.644 104.405 150.56 104.204 150.392 104.073C150.234 103.943 150.005 103.835 149.706 103.751C149.408 103.658 149.053 103.555 148.642 103.443C148.138 103.294 147.714 103.135 147.368 102.967C147.023 102.799 146.762 102.589 146.584 102.337C146.407 102.085 146.318 101.768 146.318 101.385C146.318 100.919 146.44 100.527 146.682 100.209C146.925 99.8827 147.256 99.6354 147.676 99.4674C148.106 99.2994 148.591 99.2154 149.132 99.2154C149.674 99.2154 150.164 99.2994 150.602 99.4674C151.041 99.6354 151.419 99.8827 151.736 100.209L151.176 101.063C150.887 100.765 150.57 100.545 150.224 100.405C149.879 100.256 149.492 100.181 149.062 100.181C148.81 100.181 148.563 100.214 148.32 100.279C148.078 100.335 147.877 100.443 147.718 100.601C147.56 100.751 147.48 100.965 147.48 101.245C147.48 101.479 147.541 101.665 147.662 101.805C147.793 101.936 147.98 102.048 148.222 102.141C148.474 102.235 148.778 102.337 149.132 102.449C149.683 102.608 150.159 102.767 150.56 102.925C150.971 103.084 151.288 103.289 151.512 103.541C151.736 103.793 151.848 104.143 151.848 104.591C151.848 105.282 151.587 105.823 151.064 106.215C150.542 106.598 149.851 106.789 148.992 106.789Z" fill="white"/>
</g>
<defs>
<filter id="filter0_b_134_4207" x="-22" y="-21.3506" width="235" height="173" filterUnits="userSpaceOnUse" color-interpolation-filters="sRGB">
<feFlood flood-opacity="0" result="BackgroundImageFix"/>
<feGaussianBlur in="BackgroundImageFix" stdDeviation="11"/>
<feComposite in2="SourceAlpha" operator="in" result="effect1_backgroundBlur_134_4207"/>
<feBlend mode="normal" in="SourceGraphic" in2="effect1_backgroundBlur_134_4207" result="shape"/>
</filter>
</defs>
</svg>
