<svg width="129" height="38" viewBox="0 0 129 38" fill="none" xmlns="http://www.w3.org/2000/svg">
<g opacity="0.7">
<path fill-rule="evenodd" clip-rule="evenodd" d="M78.1865 20.9405C78.1865 20.9405 77.9299 19.9933 77.9299 19.2937V8.32847H82.3183V29.4487L68.2729 17.8076C67.5216 17.166 67.0794 16.4519 67.0794 16.4519C67.0794 16.4519 67.3005 17.2384 67.3005 17.9209L67.2952 28.9731H62.9082V7.93323L76.8233 19.3438C77.5668 19.9775 78.1865 20.9405 78.1865 20.9405Z" fill="white"/>
<path fill-rule="evenodd" clip-rule="evenodd" d="M117.908 8.328C124.857 8.328 126.638 11.0723 126.638 15.0181C126.638 17.8783 124.536 20.6766 120.295 21.0099L119.831 21.031C119.831 21.031 120.239 21.1047 120.67 21.5184L128.366 28.9726H122.418L111.675 18.0495H117.025C121.817 18.0495 121.954 15.5213 121.989 14.8811C122.079 13.2448 121.554 11.9313 117.898 11.9313H111.784V28.9726H107.222V8.328H117.908Z" fill="white"/>
<path fill-rule="evenodd" clip-rule="evenodd" d="M84.2905 18.9456C84.2905 10.2964 91.5211 8.02515 97.5977 8.02515C100.032 8.02515 102.189 8.24253 104.452 8.7234L104.46 13.1079C103.156 12.71 100.536 11.8287 97.5977 11.8287C91.8382 11.8287 89.0394 14.0697 89.0394 18.9456C89.0394 22.9388 92.054 25.4841 97.5977 25.4841C100.536 25.4841 103.481 24.7846 104.903 24.2563L104.897 28.5117C102.631 28.9912 100.032 29.2876 97.5977 29.2876C91.108 29.2876 84.2905 26.1284 84.2905 18.9456Z" fill="white"/>
<path fill-rule="evenodd" clip-rule="evenodd" d="M34.9268 8.8595L39.2046 12.8936C39.0901 12.9463 38.9559 13.0095 38.7967 13.0899C38.5506 13.2177 38.2546 13.3902 37.9006 13.6353C37.1966 14.1241 36.2755 14.8961 35.0992 16.1688L26.7409 25.0261C25.3053 26.5424 23.85 27.7427 22.4946 28.3777L18.2168 24.3436C18.3326 24.2896 18.4681 24.2277 18.6234 24.1447C18.8708 24.0208 19.1668 23.8456 19.5195 23.6006C20.2235 23.1131 21.1459 22.3411 22.3196 21.0697L30.6792 12.2243C32.1135 10.7105 33.5728 9.49451 34.9268 8.8595Z" fill="white"/>
<path fill-rule="evenodd" clip-rule="evenodd" d="M18.3668 30.2752C20.259 30.2752 21.9959 29.8984 23.1763 29.2871C23.7144 29.0051 24.4829 28.519 25.1461 28.0039C25.8067 27.4887 26.7383 26.6877 27.5304 25.8459L35.9005 17.0136C38.0098 14.7871 39.2796 14.1007 40.0481 13.8293L44.3417 17.9003C43.4456 18.8594 32.7609 30.2528 32.7609 30.2528C32.0306 31.0393 31.2648 31.7982 30.7437 32.279C30.2437 32.7428 29.3844 33.4305 28.9423 33.7559C26.429 35.599 23.0723 37.0943 18.5524 37.0943C8.31242 37.0943 0.027832 28.7469 0.027832 19.1374C0.027832 7.21434 9.33089 0.297675 17.8063 0.297675C20.4025 0.221262 22.4881 0.656024 24.1329 1.21726C25.658 1.73634 26.808 2.36214 27.6409 2.78899C26.6567 3.42269 25.7027 4.28299 24.1276 5.96802L22.4118 7.81379C22.0157 7.66096 20.263 7.05098 18.0102 7.11817C12.5758 7.2789 6.62814 11.6937 6.84262 18.9305C7.04263 25.6983 12.6153 30.2752 18.3668 30.2752Z" fill="white"/>
<path fill-rule="evenodd" clip-rule="evenodd" d="M34.1926 8.01354C33.6518 8.29416 32.8821 8.77899 32.2189 9.29543C31.5596 9.80924 30.628 10.6116 29.8359 11.4521L21.4684 20.2857C19.3577 22.5122 18.088 23.1973 17.3195 23.4687L13.0259 19.4004C13.9233 18.4399 24.6054 7.04653 24.6054 7.04653C25.3357 6.26 26.1028 5.50246 26.6239 5.01896C27.1239 4.55653 27.9831 3.86881 28.4266 3.5434C30.9359 1.70027 34.2979 0.204956 38.8179 0.204956C49.0591 0.204956 57.3384 8.54975 57.3384 18.1593C57.3384 30.085 48.0367 37.0003 39.56 37.0003C36.9638 37.0794 34.8782 36.6406 33.2334 36.0794C31.707 35.559 30.553 34.9319 29.7201 34.5037C30.7622 33.8015 31.6531 33.0282 33.24 31.3326L34.9558 29.4855C35.3506 29.6357 37.1046 30.2483 39.356 30.1824C44.7918 30.0204 50.7395 25.6056 50.525 18.3661C50.3236 11.5997 44.7484 7.02413 38.9981 7.02413C37.1046 7.02413 35.3716 7.39961 34.1926 8.01354Z" fill="white"/>
</g>
</svg>
