<svg width="880" height="648" viewBox="0 0 880 648" fill="none" xmlns="http://www.w3.org/2000/svg">
<path d="M6.655 4.17041H4.158V10.6494H2.651V4.17041H0.154V2.83941H6.655V4.17041ZM7.62455 10.6494V2.83941H9.14255V10.6494H7.62455ZM17.141 10.6494V5.52341L15.139 9.34041H14.292L12.29 5.52341V10.6494H10.772V2.83941H12.4L14.71 7.28341L17.042 2.83941H18.659V10.6494H17.141ZM25.7126 9.31841V10.6494H20.2896V2.83941H25.6136V4.17041H21.8076V6.05141H25.0966V7.28341H21.8076V9.31841H25.7126ZM26.72 8.29541V6.96441H30.053V8.29541H26.72ZM36.7116 4.17041H34.2146V10.6494H32.7076V4.17041H30.2106V2.83941H36.7116V4.17041ZM43.1042 9.31841V10.6494H37.6812V2.83941H43.0052V4.17041H39.1992V6.05141H42.4882V7.28341H39.1992V9.31841H43.1042ZM48.9406 4.88541C48.8893 4.83408 48.794 4.76441 48.6546 4.67641C48.5226 4.58841 48.3576 4.50408 48.1596 4.42341C47.969 4.34275 47.76 4.27308 47.5326 4.21441C47.3053 4.14841 47.0743 4.11541 46.8396 4.11541C46.429 4.11541 46.1173 4.19241 45.9046 4.34641C45.6993 4.50041 45.5966 4.71675 45.5966 4.99541C45.5966 5.20808 45.6626 5.37675 45.7946 5.50141C45.9266 5.62608 46.1246 5.73241 46.3886 5.82041C46.6526 5.90841 46.9826 6.00375 47.3786 6.10641C47.892 6.23108 48.3356 6.38508 48.7096 6.56841C49.091 6.74441 49.3806 6.97908 49.5786 7.27241C49.784 7.55841 49.8866 7.93975 49.8866 8.41641C49.8866 8.83441 49.8096 9.19375 49.6556 9.49441C49.5016 9.78775 49.289 10.0261 49.0176 10.2094C48.7463 10.3927 48.4383 10.5284 48.0936 10.6164C47.749 10.6971 47.3823 10.7374 46.9936 10.7374C46.605 10.7374 46.2163 10.6971 45.8276 10.6164C45.439 10.5357 45.065 10.4221 44.7056 10.2754C44.3463 10.1214 44.0163 9.93808 43.7156 9.72541L44.3866 8.41641C44.4526 8.48241 44.57 8.57041 44.7386 8.68041C44.9073 8.78308 45.1126 8.88941 45.3546 8.99941C45.5966 9.10208 45.8606 9.19008 46.1466 9.26341C46.4326 9.33675 46.7223 9.37341 47.0156 9.37341C47.4263 9.37341 47.738 9.30375 47.9506 9.16441C48.1633 9.02508 48.2696 8.82708 48.2696 8.57041C48.2696 8.33575 48.1853 8.15241 48.0166 8.02041C47.848 7.88841 47.6133 7.77475 47.3126 7.67941C47.012 7.57675 46.6563 7.46675 46.2456 7.34941C45.7543 7.21008 45.3436 7.05608 45.0136 6.88741C44.6836 6.71141 44.438 6.49141 44.2766 6.22741C44.1153 5.96341 44.0346 5.63341 44.0346 5.23741C44.0346 4.70208 44.1593 4.25475 44.4086 3.89541C44.6653 3.52875 45.01 3.25375 45.4426 3.07041C45.8753 2.87975 46.3556 2.78441 46.8836 2.78441C47.2503 2.78441 47.595 2.82475 47.9176 2.90541C48.2476 2.98608 48.5556 3.09241 48.8416 3.22441C49.1276 3.35641 49.3843 3.49941 49.6116 3.65341L48.9406 4.88541ZM56.8747 4.17041H54.3777V10.6494H52.8707V4.17041H50.3737V2.83941H56.8747V4.17041ZM63.2673 9.31841V10.6494H57.8443V2.83941H63.1683V4.17041H59.3623V6.05141H62.6513V7.28341H59.3623V9.31841H63.2673ZM64.4507 10.6494V2.83941H67.2887C68.1394 2.83941 68.8507 3.01541 69.4227 3.36741C69.9947 3.71208 70.4237 4.18141 70.7097 4.77541C70.9957 5.36208 71.1387 6.01475 71.1387 6.73341C71.1387 7.52541 70.9811 8.21475 70.6657 8.80141C70.3504 9.38808 69.9031 9.84275 69.3237 10.1654C68.7517 10.4881 68.0734 10.6494 67.2887 10.6494H64.4507ZM69.6097 6.73341C69.6097 6.22741 69.5181 5.78375 69.3347 5.40241C69.1514 5.01375 68.8874 4.71308 68.5427 4.50041C68.1981 4.28041 67.7801 4.17041 67.2887 4.17041H65.9687V9.31841H67.2887C67.7874 9.31841 68.2091 9.20841 68.5537 8.98841C68.8984 8.76108 69.1587 8.45308 69.3347 8.06441C69.5181 7.66841 69.6097 7.22475 69.6097 6.73341ZM6.237 22.3184V23.6494H0.814V15.8394H6.138V17.1704H2.332V19.0514H5.621V20.2834H2.332V22.3184H6.237ZM8.23445 15.8394L10.1704 18.7214L12.0954 15.8394H13.7454L11.0394 19.7994L13.6574 23.6494H12.0074L10.1704 20.8774L8.32245 23.6494H6.66145L9.27945 19.7994L6.57345 15.8394H8.23445ZM14.5318 23.6494V15.8394H17.8428C18.2021 15.8394 18.5321 15.9127 18.8328 16.0594C19.1334 16.2061 19.3938 16.4041 19.6138 16.6534C19.8411 16.9027 20.0171 17.1814 20.1418 17.4894C20.2664 17.7974 20.3288 18.1127 20.3288 18.4354C20.3288 18.8754 20.2261 19.2934 20.0208 19.6894C19.8154 20.0854 19.5331 20.4081 19.1738 20.6574C18.8144 20.9067 18.3891 21.0314 17.8978 21.0314H16.0498V23.6494H14.5318ZM16.0498 19.7004H17.8098C17.9931 19.7004 18.1581 19.6491 18.3048 19.5464C18.4514 19.4437 18.5688 19.2971 18.6568 19.1064C18.7448 18.9084 18.7888 18.6847 18.7888 18.4354C18.7888 18.1641 18.7374 17.9331 18.6348 17.7424C18.5394 17.5517 18.4111 17.4087 18.2498 17.3134C18.0958 17.2181 17.9271 17.1704 17.7438 17.1704H16.0498V19.7004ZM26.8083 22.3184V23.6494H21.3853V15.8394H26.7093V17.1704H22.9033V19.0514H26.1923V20.2834H22.9033V22.3184H26.8083ZM27.9917 23.6494V15.8394H31.4457C31.8051 15.8394 32.1351 15.9127 32.4357 16.0594C32.7437 16.2061 33.0077 16.4041 33.2277 16.6534C33.4551 16.9027 33.6274 17.1814 33.7447 17.4894C33.8694 17.7974 33.9317 18.1127 33.9317 18.4354C33.9317 18.7654 33.8731 19.0844 33.7557 19.3924C33.6457 19.6931 33.4844 19.9571 33.2717 20.1844C33.0591 20.4117 32.8097 20.5877 32.5237 20.7124L34.3057 23.6494H32.6337L31.0277 21.0314H29.5097V23.6494H27.9917ZM29.5097 19.7004H31.4127C31.6034 19.7004 31.7721 19.6454 31.9187 19.5354C32.0654 19.4181 32.1827 19.2641 32.2707 19.0734C32.3587 18.8827 32.4027 18.6701 32.4027 18.4354C32.4027 18.1861 32.3514 17.9697 32.2487 17.7864C32.1461 17.5957 32.0141 17.4454 31.8527 17.3354C31.6987 17.2254 31.5301 17.1704 31.3467 17.1704H29.5097V19.7004ZM35.3072 23.6494V15.8394H36.8252V23.6494H35.3072ZM43.8776 22.3184V23.6494H38.4546V15.8394H43.7786V17.1704H39.9726V19.0514H43.2616V20.2834H39.9726V22.3184H43.8776ZM46.5791 18.6334V23.6494H45.0611V15.8394H46.2711L50.3081 20.9874V15.8504H51.8261V23.6494H50.5611L46.5791 18.6334ZM52.9777 19.6894C52.9777 19.2127 53.0621 18.7471 53.2307 18.2924C53.4067 17.8304 53.6597 17.4124 53.9897 17.0384C54.3197 16.6571 54.7231 16.3564 55.1997 16.1364C55.6764 15.9091 56.2191 15.7954 56.8277 15.7954C57.5464 15.7954 58.1661 15.9531 58.6867 16.2684C59.2147 16.5837 59.6071 16.9944 59.8637 17.5004L58.6977 18.3034C58.5657 18.0101 58.3934 17.7791 58.1807 17.6104C57.9681 17.4344 57.7407 17.3134 57.4987 17.2474C57.2567 17.1741 57.0184 17.1374 56.7837 17.1374C56.4024 17.1374 56.0687 17.2144 55.7827 17.3684C55.5041 17.5224 55.2694 17.7241 55.0787 17.9734C54.8881 18.2227 54.7451 18.5014 54.6497 18.8094C54.5617 19.1174 54.5177 19.4254 54.5177 19.7334C54.5177 20.0781 54.5727 20.4117 54.6827 20.7344C54.7927 21.0497 54.9467 21.3321 55.1447 21.5814C55.3501 21.8234 55.5921 22.0177 55.8707 22.1644C56.1567 22.3037 56.4684 22.3734 56.8057 22.3734C57.0477 22.3734 57.2934 22.3331 57.5427 22.2524C57.7921 22.1717 58.0231 22.0434 58.2357 21.8674C58.4484 21.6914 58.6134 21.4641 58.7307 21.1854L59.9737 21.9004C59.8197 22.2891 59.5667 22.6191 59.2147 22.8904C58.8701 23.1617 58.4814 23.3671 58.0487 23.5064C57.6161 23.6457 57.1871 23.7154 56.7617 23.7154C56.2044 23.7154 55.6947 23.6017 55.2327 23.3744C54.7707 23.1397 54.3711 22.8317 54.0337 22.4504C53.7037 22.0617 53.4434 21.6291 53.2527 21.1524C53.0694 20.6684 52.9777 20.1807 52.9777 19.6894ZM66.4147 22.3184V23.6494H60.9917V15.8394H66.3157V17.1704H62.5097V19.0514H65.7987V20.2834H62.5097V22.3184H66.4147Z" fill="#FF8A00"/>
<path d="M1.302 86.5294C1.302 84.7094 1.624 82.9314 2.268 81.1954C2.94 79.4314 3.906 77.8354 5.166 76.4074C6.426 74.9514 7.966 73.8034 9.786 72.9634C11.606 72.0954 13.678 71.6614 16.002 71.6614C18.746 71.6614 21.112 72.2634 23.1 73.4674C25.116 74.6714 26.614 76.2394 27.594 78.1714L23.142 81.2374C22.638 80.1174 21.98 79.2354 21.168 78.5914C20.356 77.9194 19.488 77.4574 18.564 77.2054C17.64 76.9254 16.73 76.7854 15.834 76.7854C14.378 76.7854 13.104 77.0794 12.012 77.6674C10.948 78.2554 10.052 79.0254 9.324 79.9774C8.596 80.9294 8.05 81.9934 7.686 83.1694C7.35 84.3454 7.182 85.5214 7.182 86.6974C7.182 88.0134 7.392 89.2874 7.812 90.5194C8.232 91.7234 8.82 92.8014 9.576 93.7534C10.36 94.6774 11.284 95.4194 12.348 95.9794C13.44 96.5114 14.63 96.7774 15.918 96.7774C16.842 96.7774 17.78 96.6234 18.732 96.3154C19.684 96.0074 20.566 95.5174 21.378 94.8454C22.19 94.1734 22.82 93.3054 23.268 92.2414L28.014 94.9714C27.426 96.4554 26.46 97.7154 25.116 98.7514C23.8 99.7874 22.316 100.571 20.664 101.103C19.012 101.635 17.374 101.901 15.75 101.901C13.622 101.901 11.676 101.467 9.912 100.599C8.148 99.7034 6.622 98.5274 5.334 97.0714C4.074 95.5874 3.08 93.9354 2.352 92.1154C1.652 90.2674 1.302 88.4054 1.302 86.5294ZM44.2578 101.859C42.0738 101.859 40.0858 101.439 38.2938 100.599C36.5298 99.7594 35.0038 98.6254 33.7158 97.1974C32.4558 95.7414 31.4758 94.1174 30.7758 92.3254C30.0758 90.5054 29.7258 88.6434 29.7258 86.7394C29.7258 84.7514 30.0898 82.8614 30.8178 81.0694C31.5738 79.2494 32.5958 77.6394 33.8838 76.2394C35.1998 74.8114 36.7398 73.6914 38.5038 72.8794C40.2958 72.0394 42.2558 71.6194 44.3838 71.6194C46.5398 71.6194 48.4998 72.0534 50.2638 72.9214C52.0558 73.7894 53.5818 74.9514 54.8418 76.4074C56.1018 77.8634 57.0818 79.4874 57.7818 81.2794C58.4818 83.0714 58.8318 84.9194 58.8318 86.8234C58.8318 88.7834 58.4678 90.6734 57.7398 92.4934C57.0118 94.2854 55.9898 95.8954 54.6738 97.3234C53.3858 98.7234 51.8458 99.8294 50.0538 100.641C48.2898 101.453 46.3578 101.859 44.2578 101.859ZM35.6058 86.7394C35.6058 88.0274 35.8018 89.2734 36.1938 90.4774C36.5858 91.6814 37.1458 92.7594 37.8738 93.7114C38.6298 94.6354 39.5398 95.3774 40.6038 95.9374C41.6958 96.4694 42.9278 96.7354 44.2998 96.7354C45.6998 96.7354 46.9458 96.4554 48.0378 95.8954C49.1298 95.3074 50.0398 94.5374 50.7678 93.5854C51.4958 92.6054 52.0418 91.5274 52.4058 90.3514C52.7978 89.1474 52.9938 87.9434 52.9938 86.7394C52.9938 85.4514 52.7838 84.2194 52.3638 83.0434C51.9718 81.8394 51.3978 80.7754 50.6418 79.8514C49.9138 78.8994 49.0038 78.1574 47.9118 77.6254C46.8478 77.0654 45.6438 76.7854 44.2998 76.7854C42.8718 76.7854 41.6118 77.0794 40.5198 77.6674C39.4558 78.2274 38.5598 78.9834 37.8318 79.9354C37.1038 80.8874 36.5438 81.9514 36.1518 83.1274C35.7878 84.3034 35.6058 85.5074 35.6058 86.7394ZM87.5959 101.649V82.0774L79.9519 96.6514H76.7179L69.0739 82.0774V101.649H63.2779V71.8294H69.4939L78.3139 88.7974L87.2179 71.8294H93.3919V101.649H87.5959ZM123.936 101.649V82.0774L116.292 96.6514H113.058L105.414 82.0774V101.649H99.6178V71.8294H105.834L114.654 88.7974L123.558 71.8294H129.732V101.649H123.936ZM148.6 101.859C146.22 101.859 144.19 101.467 142.51 100.683C140.858 99.8714 139.514 98.7654 138.478 97.3654C137.47 95.9654 136.728 94.3834 136.252 92.6194C135.776 90.8274 135.538 88.9654 135.538 87.0334V71.8294H141.334V87.0334C141.334 88.2654 141.446 89.4694 141.67 90.6454C141.922 91.7934 142.328 92.8294 142.888 93.7534C143.448 94.6774 144.19 95.4054 145.114 95.9374C146.038 96.4694 147.186 96.7354 148.558 96.7354C149.958 96.7354 151.12 96.4694 152.044 95.9374C152.996 95.3774 153.738 94.6354 154.27 93.7114C154.83 92.7874 155.236 91.7514 155.488 90.6034C155.74 89.4274 155.866 88.2374 155.866 87.0334V71.8294H161.62V87.0334C161.62 89.0774 161.368 90.9954 160.864 92.7874C160.388 94.5794 159.618 96.1614 158.554 97.5334C157.518 98.8774 156.174 99.9414 154.522 100.725C152.87 101.481 150.896 101.859 148.6 101.859ZM173.254 82.4974V101.649H167.458V71.8294H172.078L187.492 91.4854V71.8714H193.288V101.649H188.458L173.254 82.4974ZM199.491 101.649V71.8294H205.287V101.649H199.491ZM233.81 76.9114H224.276V101.649H218.522V76.9114H208.988V71.8294H233.81V76.9114ZM240.872 71.8294L248.222 85.8574L255.698 71.8294H261.956L251.12 91.2334V101.649H245.366V91.1494L234.572 71.8294H240.872ZM15.834 143.859C13.65 143.859 11.662 143.439 9.87 142.599C8.106 141.759 6.58 140.625 5.292 139.197C4.032 137.741 3.052 136.117 2.352 134.325C1.652 132.505 1.302 130.643 1.302 128.739C1.302 126.751 1.666 124.861 2.394 123.069C3.15 121.249 4.172 119.639 5.46 118.239C6.776 116.811 8.316 115.691 10.08 114.879C11.872 114.039 13.832 113.619 15.96 113.619C18.116 113.619 20.076 114.053 21.84 114.921C23.632 115.789 25.158 116.951 26.418 118.407C27.678 119.863 28.658 121.487 29.358 123.279C30.058 125.071 30.408 126.919 30.408 128.823C30.408 130.783 30.044 132.673 29.316 134.493C28.588 136.285 27.566 137.895 26.25 139.323C24.962 140.723 23.422 141.829 21.63 142.641C19.866 143.453 17.934 143.859 15.834 143.859ZM7.182 128.739C7.182 130.027 7.378 131.273 7.77 132.477C8.162 133.681 8.722 134.759 9.45 135.711C10.206 136.635 11.116 137.377 12.18 137.937C13.272 138.469 14.504 138.735 15.876 138.735C17.276 138.735 18.522 138.455 19.614 137.895C20.706 137.307 21.616 136.537 22.344 135.585C23.072 134.605 23.618 133.527 23.982 132.351C24.374 131.147 24.57 129.943 24.57 128.739C24.57 127.451 24.36 126.219 23.94 125.043C23.548 123.839 22.974 122.775 22.218 121.851C21.49 120.899 20.58 120.157 19.488 119.625C18.424 119.065 17.22 118.785 15.876 118.785C14.448 118.785 13.188 119.079 12.096 119.667C11.032 120.227 10.136 120.983 9.408 121.935C8.68 122.887 8.12 123.951 7.728 125.127C7.364 126.303 7.182 127.507 7.182 128.739ZM34.8541 143.649V113.829H54.8881V118.911H40.6501V126.597H52.4941V131.301H40.6501V143.649H34.8541ZM88.7007 138.567V143.649H67.9947V113.829H88.3227V118.911H73.7907V126.093H86.3487V130.797H73.7907V138.567H88.7007ZM96.3273 113.829L103.719 124.833L111.069 113.829H117.369L107.037 128.949L117.033 143.649H110.733L103.719 133.065L96.6633 143.649H90.3213L100.317 128.949L89.9853 113.829H96.3273ZM120.372 143.649V113.829H133.014C134.386 113.829 135.646 114.109 136.794 114.669C137.942 115.229 138.936 115.985 139.776 116.937C140.644 117.889 141.316 118.953 141.792 120.129C142.268 121.305 142.506 122.509 142.506 123.741C142.506 125.421 142.114 127.017 141.33 128.529C140.546 130.041 139.468 131.273 138.096 132.225C136.724 133.177 135.1 133.653 133.224 133.653H126.168V143.649H120.372ZM126.168 128.571H132.888C133.588 128.571 134.218 128.375 134.778 127.983C135.338 127.591 135.786 127.031 136.122 126.303C136.458 125.547 136.626 124.693 136.626 123.741C136.626 122.705 136.43 121.823 136.038 121.095C135.674 120.367 135.184 119.821 134.568 119.457C133.98 119.093 133.336 118.911 132.636 118.911H126.168V128.571ZM167.246 138.567V143.649H146.54V113.829H166.868V118.911H152.336V126.093H164.894V130.797H152.336V138.567H167.246ZM171.764 143.649V113.829H184.952C186.324 113.829 187.584 114.109 188.732 114.669C189.908 115.229 190.916 115.985 191.756 116.937C192.624 117.889 193.282 118.953 193.73 120.129C194.206 121.305 194.444 122.509 194.444 123.741C194.444 125.001 194.22 126.219 193.772 127.395C193.352 128.543 192.736 129.551 191.924 130.419C191.112 131.287 190.16 131.959 189.068 132.435L195.872 143.649H189.488L183.356 133.653H177.56V143.649H171.764ZM177.56 128.571H184.826C185.554 128.571 186.198 128.361 186.758 127.941C187.318 127.493 187.766 126.905 188.102 126.177C188.438 125.449 188.606 124.637 188.606 123.741C188.606 122.789 188.41 121.963 188.018 121.263C187.626 120.535 187.122 119.961 186.506 119.541C185.918 119.121 185.274 118.911 184.574 118.911H177.56V128.571ZM221.67 118.911H212.136V143.649H206.382V118.911H196.848V113.829H221.67V118.911ZM243.138 121.641C242.942 121.445 242.578 121.179 242.046 120.843C241.542 120.507 240.912 120.185 240.156 119.877C239.428 119.569 238.63 119.303 237.762 119.079C236.894 118.827 236.012 118.701 235.116 118.701C233.548 118.701 232.358 118.995 231.546 119.583C230.762 120.171 230.37 120.997 230.37 122.061C230.37 122.873 230.622 123.517 231.126 123.993C231.63 124.469 232.386 124.875 233.394 125.211C234.402 125.547 235.662 125.911 237.174 126.303C239.134 126.779 240.828 127.367 242.256 128.067C243.712 128.739 244.818 129.635 245.574 130.755C246.358 131.847 246.75 133.303 246.75 135.123C246.75 136.719 246.456 138.091 245.868 139.239C245.28 140.359 244.468 141.269 243.432 141.969C242.396 142.669 241.22 143.187 239.904 143.523C238.588 143.831 237.188 143.985 235.704 143.985C234.22 143.985 232.736 143.831 231.252 143.523C229.768 143.215 228.34 142.781 226.968 142.221C225.596 141.633 224.336 140.933 223.188 140.121L225.75 135.123C226.002 135.375 226.45 135.711 227.094 136.131C227.738 136.523 228.522 136.929 229.446 137.349C230.37 137.741 231.378 138.077 232.47 138.357C233.562 138.637 234.668 138.777 235.788 138.777C237.356 138.777 238.546 138.511 239.358 137.979C240.17 137.447 240.576 136.691 240.576 135.711C240.576 134.815 240.254 134.115 239.61 133.611C238.966 133.107 238.07 132.673 236.922 132.309C235.774 131.917 234.416 131.497 232.848 131.049C230.972 130.517 229.404 129.929 228.144 129.285C226.884 128.613 225.946 127.773 225.33 126.765C224.714 125.757 224.406 124.497 224.406 122.985C224.406 120.941 224.882 119.233 225.834 117.861C226.814 116.461 228.13 115.411 229.782 114.711C231.434 113.983 233.268 113.619 235.284 113.619C236.684 113.619 238 113.773 239.232 114.081C240.492 114.389 241.668 114.795 242.76 115.299C243.852 115.803 244.832 116.349 245.7 116.937L243.138 121.641Z" fill="white"/>
<path d="M72.214 527.829H78.094L89.056 557.649H83.092L80.32 550.215H69.904L67.174 557.649H61.21L72.214 527.829ZM79.27 546.141L75.154 533.835L70.87 546.141H79.27ZM103.568 557.859C101.636 557.859 99.8023 557.467 98.0663 556.683C96.3583 555.899 94.8463 554.821 93.5303 553.449C92.2423 552.049 91.2343 550.425 90.5063 548.577C89.7783 546.729 89.4143 544.727 89.4143 542.571C89.4143 540.527 89.7783 538.609 90.5063 536.817C91.2343 534.997 92.2563 533.401 93.5723 532.029C94.8883 530.657 96.4283 529.579 98.1923 528.795C99.9563 528.011 101.874 527.619 103.946 527.619C106.746 527.619 109.14 528.221 111.128 529.425C113.144 530.601 114.656 532.169 115.664 534.129L111.338 537.321C110.582 535.837 109.518 534.703 108.146 533.919C106.802 533.135 105.332 532.743 103.736 532.743C102.476 532.743 101.328 533.009 100.292 533.541C99.2563 534.073 98.3603 534.801 97.6043 535.725C96.8483 536.649 96.2603 537.713 95.8403 538.917C95.4483 540.121 95.2523 541.395 95.2523 542.739C95.2523 544.167 95.4623 545.483 95.8823 546.687C96.3303 547.891 96.9463 548.941 97.7303 549.837C98.5423 550.733 99.4803 551.447 100.544 551.979C101.608 552.483 102.784 552.735 104.072 552.735C105.584 552.735 107.026 552.343 108.398 551.559C109.798 550.775 111.1 549.627 112.304 548.115V553.827C109.812 556.515 106.9 557.859 103.568 557.859ZM111.884 546.561H105.878V542.319H116.672V557.649H111.884V546.561ZM142.318 552.567V557.649H121.612V527.829H141.94V532.911H127.408V540.093H139.966V544.797H127.408V552.567H142.318ZM152.633 538.497V557.649H146.837V527.829H151.457L166.871 547.485V527.871H172.667V557.649H167.837L152.633 538.497ZM177.064 542.529C177.064 540.709 177.386 538.931 178.03 537.195C178.702 535.431 179.668 533.835 180.928 532.407C182.188 530.951 183.728 529.803 185.548 528.963C187.368 528.095 189.44 527.661 191.764 527.661C194.508 527.661 196.874 528.263 198.862 529.467C200.878 530.671 202.376 532.239 203.356 534.171L198.904 537.237C198.4 536.117 197.742 535.235 196.93 534.591C196.118 533.919 195.25 533.457 194.326 533.205C193.402 532.925 192.492 532.785 191.596 532.785C190.14 532.785 188.866 533.079 187.774 533.667C186.71 534.255 185.814 535.025 185.086 535.977C184.358 536.929 183.812 537.993 183.448 539.169C183.112 540.345 182.944 541.521 182.944 542.697C182.944 544.013 183.154 545.287 183.574 546.519C183.994 547.723 184.582 548.801 185.338 549.753C186.122 550.677 187.046 551.419 188.11 551.979C189.202 552.511 190.392 552.777 191.68 552.777C192.604 552.777 193.542 552.623 194.494 552.315C195.446 552.007 196.328 551.517 197.14 550.845C197.952 550.173 198.582 549.305 199.03 548.241L203.776 550.971C203.188 552.455 202.222 553.715 200.878 554.751C199.562 555.787 198.078 556.571 196.426 557.103C194.774 557.635 193.136 557.901 191.512 557.901C189.384 557.901 187.438 557.467 185.674 556.599C183.91 555.703 182.384 554.527 181.096 553.071C179.836 551.587 178.842 549.935 178.114 548.115C177.414 546.267 177.064 544.405 177.064 542.529ZM210.243 527.829L217.593 541.857L225.069 527.829H231.327L220.491 547.233V557.649H214.737V547.149L203.943 527.829H210.243ZM255.867 557.859C253.683 557.859 251.695 557.439 249.903 556.599C248.139 555.759 246.613 554.625 245.325 553.197C244.065 551.741 243.085 550.117 242.385 548.325C241.685 546.505 241.335 544.643 241.335 542.739C241.335 540.751 241.699 538.861 242.427 537.069C243.183 535.249 244.205 533.639 245.493 532.239C246.809 530.811 248.349 529.691 250.113 528.879C251.905 528.039 253.865 527.619 255.993 527.619C258.149 527.619 260.109 528.053 261.873 528.921C263.665 529.789 265.191 530.951 266.451 532.407C267.711 533.863 268.691 535.487 269.391 537.279C270.091 539.071 270.441 540.919 270.441 542.823C270.441 544.783 270.077 546.673 269.349 548.493C268.621 550.285 267.599 551.895 266.283 553.323C264.995 554.723 263.455 555.829 261.663 556.641C259.899 557.453 257.967 557.859 255.867 557.859ZM247.215 542.739C247.215 544.027 247.411 545.273 247.803 546.477C248.195 547.681 248.755 548.759 249.483 549.711C250.239 550.635 251.149 551.377 252.213 551.937C253.305 552.469 254.537 552.735 255.909 552.735C257.309 552.735 258.555 552.455 259.647 551.895C260.739 551.307 261.649 550.537 262.377 549.585C263.105 548.605 263.651 547.527 264.015 546.351C264.407 545.147 264.603 543.943 264.603 542.739C264.603 541.451 264.393 540.219 263.973 539.043C263.581 537.839 263.007 536.775 262.251 535.851C261.523 534.899 260.613 534.157 259.521 533.625C258.457 533.065 257.253 532.785 255.909 532.785C254.481 532.785 253.221 533.079 252.129 533.667C251.065 534.227 250.169 534.983 249.441 535.935C248.713 536.887 248.153 537.951 247.761 539.127C247.397 540.303 247.215 541.507 247.215 542.739ZM280.683 538.497V557.649H274.887V527.829H279.507L294.921 547.485V527.871H300.717V557.649H295.887L280.683 538.497ZM338.082 532.911H328.548V557.649H322.794V532.911H313.26V527.829H338.082V532.911ZM366.858 527.829V557.649H361.104V544.923H347.58V557.649H341.784V527.829H347.58V539.883H361.104V527.829H366.858ZM393.785 552.567V557.649H373.079V527.829H393.407V532.911H378.875V540.093H391.433V544.797H378.875V552.567H393.785ZM64.108 599.649V569.829H69.904V599.649H64.108ZM81.9216 580.497V599.649H76.1256V569.829H80.7456L96.1596 589.485V569.871H101.956V599.649H97.1256L81.9216 580.497ZM130.461 574.911H120.927V599.649H115.173V574.911H105.639V569.829H130.461V574.911ZM154.869 594.567V599.649H134.163V569.829H154.491V574.911H139.959V582.093H152.517V586.797H139.959V594.567H154.869ZM159.387 599.649V569.829H172.575C173.947 569.829 175.207 570.109 176.355 570.669C177.531 571.229 178.539 571.985 179.379 572.937C180.247 573.889 180.905 574.953 181.353 576.129C181.829 577.305 182.067 578.509 182.067 579.741C182.067 581.001 181.843 582.219 181.395 583.395C180.975 584.543 180.359 585.551 179.547 586.419C178.735 587.287 177.783 587.959 176.691 588.435L183.495 599.649H177.111L170.979 589.653H165.183V599.649H159.387ZM165.183 584.571H172.449C173.177 584.571 173.821 584.361 174.381 583.941C174.941 583.493 175.389 582.905 175.725 582.177C176.061 581.449 176.229 580.637 176.229 579.741C176.229 578.789 176.033 577.963 175.641 577.263C175.249 576.535 174.745 575.961 174.129 575.541C173.541 575.121 172.897 574.911 172.197 574.911H165.183V584.571ZM193.115 580.497V599.649H187.319V569.829H191.939L207.353 589.485V569.871H213.149V599.649H208.319L193.115 580.497ZM227.458 569.829H233.338L244.3 599.649H238.336L235.564 592.215H225.148L222.418 599.649H216.454L227.458 569.829ZM234.514 588.141L230.398 575.835L226.114 588.141H234.514ZM267.084 574.911H257.55V599.649H251.796V574.911H242.262V569.829H267.084V574.911ZM270.786 599.649V569.829H276.582V599.649H270.786ZM295.529 599.859C293.345 599.859 291.357 599.439 289.565 598.599C287.801 597.759 286.275 596.625 284.987 595.197C283.727 593.741 282.747 592.117 282.047 590.325C281.347 588.505 280.997 586.643 280.997 584.739C280.997 582.751 281.361 580.861 282.089 579.069C282.845 577.249 283.867 575.639 285.155 574.239C286.471 572.811 288.011 571.691 289.775 570.879C291.567 570.039 293.527 569.619 295.655 569.619C297.811 569.619 299.771 570.053 301.535 570.921C303.327 571.789 304.853 572.951 306.113 574.407C307.373 575.863 308.353 577.487 309.053 579.279C309.753 581.071 310.103 582.919 310.103 584.823C310.103 586.783 309.739 588.673 309.011 590.493C308.283 592.285 307.261 593.895 305.945 595.323C304.657 596.723 303.117 597.829 301.325 598.641C299.561 599.453 297.629 599.859 295.529 599.859ZM286.877 584.739C286.877 586.027 287.073 587.273 287.465 588.477C287.857 589.681 288.417 590.759 289.145 591.711C289.901 592.635 290.811 593.377 291.875 593.937C292.967 594.469 294.199 594.735 295.571 594.735C296.971 594.735 298.217 594.455 299.309 593.895C300.401 593.307 301.311 592.537 302.039 591.585C302.767 590.605 303.313 589.527 303.677 588.351C304.069 587.147 304.265 585.943 304.265 584.739C304.265 583.451 304.055 582.219 303.635 581.043C303.243 579.839 302.669 578.775 301.913 577.851C301.185 576.899 300.275 576.157 299.183 575.625C298.119 575.065 296.915 574.785 295.571 574.785C294.143 574.785 292.883 575.079 291.791 575.667C290.727 576.227 289.831 576.983 289.103 577.935C288.375 578.887 287.815 579.951 287.423 581.127C287.059 582.303 286.877 583.507 286.877 584.739ZM320.345 580.497V599.649H314.549V569.829H319.169L334.583 589.485V569.871H340.379V599.649H335.549L320.345 580.497ZM354.689 569.829H360.569L371.531 599.649H365.567L362.795 592.215H352.379L349.649 599.649H343.685L354.689 569.829ZM361.745 588.141L357.629 575.835L353.345 588.141H361.745ZM374.801 599.649V569.829H380.597V594.567H395.801V599.649H374.801ZM88.426 641.649V622.077L80.782 636.651H77.548L69.904 622.077V641.649H64.108V611.829H70.324L79.144 628.797L88.048 611.829H94.222V641.649H88.426ZM108.554 611.829H114.434L125.396 641.649H119.432L116.66 634.215H106.244L103.514 641.649H97.5498L108.554 611.829ZM115.61 630.141L111.494 617.835L107.21 630.141H115.61ZM128.667 641.649V611.829H141.855C143.227 611.829 144.487 612.109 145.635 612.669C146.811 613.229 147.819 613.985 148.659 614.937C149.527 615.889 150.185 616.953 150.633 618.129C151.109 619.305 151.347 620.509 151.347 621.741C151.347 623.001 151.123 624.219 150.675 625.395C150.255 626.543 149.639 627.551 148.827 628.419C148.015 629.287 147.063 629.959 145.971 630.435L152.775 641.649H146.391L140.259 631.653H134.463V641.649H128.667ZM134.463 626.571H141.729C142.457 626.571 143.101 626.361 143.661 625.941C144.221 625.493 144.669 624.905 145.005 624.177C145.341 623.449 145.509 622.637 145.509 621.741C145.509 620.789 145.313 619.963 144.921 619.263C144.529 618.535 144.025 617.961 143.409 617.541C142.821 617.121 142.177 616.911 141.477 616.911H134.463V626.571ZM156.598 641.649V611.871H162.394V626.025L174.91 611.829H181.294L169.87 625.059L182.008 641.649H175.456L166.174 628.797L162.394 632.745V641.649H156.598ZM205.4 636.567V641.649H184.694V611.829H205.022V616.911H190.49V624.093H203.048V628.797H190.49V636.567H205.4ZM232.221 616.911H222.687V641.649H216.933V616.911H207.399V611.829H232.221V616.911Z" fill="white"/>
<path d="M633.814 325.567V330.649H613.108V300.829H633.436V305.911H618.904V313.093H631.462V317.797H618.904V325.567H633.814ZM638.333 330.649V300.829H658.367V305.911H644.129V313.597H655.973V318.301H644.129V330.649H638.333ZM662.45 330.649V300.829H682.484V305.911H668.246V313.597H680.09V318.301H668.246V330.649H662.45ZM707.273 325.567V330.649H686.567V300.829H706.895V305.911H692.363V313.093H704.921V317.797H692.363V325.567H707.273ZM709.452 315.529C709.452 313.709 709.774 311.931 710.418 310.195C711.09 308.431 712.056 306.835 713.316 305.407C714.576 303.951 716.116 302.803 717.936 301.963C719.756 301.095 721.828 300.661 724.152 300.661C726.896 300.661 729.262 301.263 731.25 302.467C733.266 303.671 734.764 305.239 735.744 307.171L731.292 310.237C730.788 309.117 730.13 308.235 729.318 307.591C728.506 306.919 727.638 306.457 726.714 306.205C725.79 305.925 724.88 305.785 723.984 305.785C722.528 305.785 721.254 306.079 720.162 306.667C719.098 307.255 718.202 308.025 717.474 308.977C716.746 309.929 716.2 310.993 715.836 312.169C715.5 313.345 715.332 314.521 715.332 315.697C715.332 317.013 715.542 318.287 715.962 319.519C716.382 320.723 716.97 321.801 717.726 322.753C718.51 323.677 719.434 324.419 720.498 324.979C721.59 325.511 722.78 325.777 724.068 325.777C724.992 325.777 725.93 325.623 726.882 325.315C727.834 325.007 728.716 324.517 729.528 323.845C730.34 323.173 730.97 322.305 731.418 321.241L736.164 323.971C735.576 325.455 734.61 326.715 733.266 327.751C731.95 328.787 730.466 329.571 728.814 330.103C727.162 330.635 725.524 330.901 723.9 330.901C721.772 330.901 719.826 330.467 718.062 329.599C716.298 328.703 714.772 327.527 713.484 326.071C712.224 324.587 711.23 322.935 710.502 321.115C709.802 319.267 709.452 317.405 709.452 315.529ZM762.353 305.911H752.819V330.649H747.065V305.911H737.531V300.829H762.353V305.911ZM766.055 330.649V300.829H771.851V330.649H766.055ZM781.139 300.829L789.203 323.761L797.183 300.829H803.273L791.975 330.649H786.389L775.049 300.829H781.139ZM827.162 325.567V330.649H806.456V300.829H826.784V305.911H812.252V313.093H824.81V317.797H812.252V325.567H827.162ZM623.314 342.913H628.69L632.092 352.783L635.536 342.913H640.87L635.746 356.479L639.526 365.971L647.968 342.829H654.268L642.34 372.649H637.342L632.092 360.133L626.884 372.649H621.886L610 342.829H616.216L624.7 365.971L628.396 356.479L623.314 342.913ZM668.9 372.859C666.716 372.859 664.728 372.439 662.936 371.599C661.172 370.759 659.646 369.625 658.358 368.197C657.098 366.741 656.118 365.117 655.418 363.325C654.718 361.505 654.368 359.643 654.368 357.739C654.368 355.751 654.732 353.861 655.46 352.069C656.216 350.249 657.238 348.639 658.526 347.239C659.842 345.811 661.382 344.691 663.146 343.879C664.938 343.039 666.898 342.619 669.026 342.619C671.182 342.619 673.142 343.053 674.906 343.921C676.698 344.789 678.224 345.951 679.484 347.407C680.744 348.863 681.724 350.487 682.424 352.279C683.124 354.071 683.474 355.919 683.474 357.823C683.474 359.783 683.11 361.673 682.382 363.493C681.654 365.285 680.632 366.895 679.316 368.323C678.028 369.723 676.488 370.829 674.696 371.641C672.932 372.453 671 372.859 668.9 372.859ZM660.248 357.739C660.248 359.027 660.444 360.273 660.836 361.477C661.228 362.681 661.788 363.759 662.516 364.711C663.272 365.635 664.182 366.377 665.246 366.937C666.338 367.469 667.57 367.735 668.942 367.735C670.342 367.735 671.588 367.455 672.68 366.895C673.772 366.307 674.682 365.537 675.41 364.585C676.138 363.605 676.684 362.527 677.048 361.351C677.44 360.147 677.636 358.943 677.636 357.739C677.636 356.451 677.426 355.219 677.006 354.043C676.614 352.839 676.04 351.775 675.284 350.851C674.556 349.899 673.646 349.157 672.554 348.625C671.49 348.065 670.286 347.785 668.942 347.785C667.514 347.785 666.254 348.079 665.162 348.667C664.098 349.227 663.202 349.983 662.474 350.935C661.746 351.887 661.186 352.951 660.794 354.127C660.43 355.303 660.248 356.507 660.248 357.739ZM687.921 372.649V342.829H701.109C702.481 342.829 703.741 343.109 704.889 343.669C706.065 344.229 707.073 344.985 707.913 345.937C708.781 346.889 709.439 347.953 709.887 349.129C710.363 350.305 710.601 351.509 710.601 352.741C710.601 354.001 710.377 355.219 709.929 356.395C709.509 357.543 708.893 358.551 708.081 359.419C707.269 360.287 706.317 360.959 705.225 361.435L712.029 372.649H705.645L699.513 362.653H693.717V372.649H687.921ZM693.717 357.571H700.983C701.711 357.571 702.355 357.361 702.915 356.941C703.475 356.493 703.923 355.905 704.259 355.177C704.595 354.449 704.763 353.637 704.763 352.741C704.763 351.789 704.567 350.963 704.175 350.263C703.783 349.535 703.279 348.961 702.663 348.541C702.075 348.121 701.431 347.911 700.731 347.911H693.717V357.571ZM715.852 372.649V342.871H721.648V357.025L734.164 342.829H740.548L729.124 356.059L741.262 372.649H734.71L725.428 359.797L721.648 363.745V372.649H715.852ZM762.275 342.913H767.651L771.053 352.783L774.497 342.913H779.831L774.707 356.479L778.487 365.971L786.929 342.829H793.229L781.301 372.649H776.303L771.053 360.133L765.845 372.649H760.847L748.961 342.829H755.177L763.661 365.971L767.357 356.479L762.275 342.913ZM796.284 372.649V342.829H802.08V372.649H796.284ZM830.603 347.911H821.069V372.649H815.315V347.911H805.781V342.829H830.603V347.911ZM859.379 342.829V372.649H853.625V359.923H840.101V372.649H834.305V342.829H840.101V354.883H853.625V342.829H859.379ZM613.108 414.649V384.829H625.75C627.122 384.829 628.382 385.109 629.53 385.669C630.678 386.229 631.672 386.985 632.512 387.937C633.38 388.889 634.052 389.953 634.528 391.129C635.004 392.305 635.242 393.509 635.242 394.741C635.242 396.421 634.85 398.017 634.066 399.529C633.282 401.041 632.204 402.273 630.832 403.225C629.46 404.177 627.836 404.653 625.96 404.653H618.904V414.649H613.108ZM618.904 399.571H625.624C626.324 399.571 626.954 399.375 627.514 398.983C628.074 398.591 628.522 398.031 628.858 397.303C629.194 396.547 629.362 395.693 629.362 394.741C629.362 393.705 629.166 392.823 628.774 392.095C628.41 391.367 627.92 390.821 627.304 390.457C626.716 390.093 626.072 389.911 625.372 389.911H618.904V399.571ZM659.982 409.567V414.649H639.276V384.829H659.604V389.911H645.072V397.093H657.63V401.797H645.072V409.567H659.982ZM664.501 414.649V384.829H677.689C679.061 384.829 680.321 385.109 681.469 385.669C682.645 386.229 683.653 386.985 684.493 387.937C685.361 388.889 686.019 389.953 686.467 391.129C686.943 392.305 687.181 393.509 687.181 394.741C687.181 396.001 686.957 397.219 686.509 398.395C686.089 399.543 685.473 400.551 684.661 401.419C683.849 402.287 682.897 402.959 681.805 403.435L688.609 414.649H682.225L676.093 404.653H670.297V414.649H664.501ZM670.297 399.571H677.563C678.291 399.571 678.935 399.361 679.495 398.941C680.055 398.493 680.503 397.905 680.839 397.177C681.175 396.449 681.343 395.637 681.343 394.741C681.343 393.789 681.147 392.963 680.755 392.263C680.363 391.535 679.859 390.961 679.243 390.541C678.655 390.121 678.011 389.911 677.311 389.911H670.297V399.571ZM710.198 392.641C710.002 392.445 709.638 392.179 709.106 391.843C708.602 391.507 707.972 391.185 707.216 390.877C706.488 390.569 705.69 390.303 704.822 390.079C703.954 389.827 703.072 389.701 702.176 389.701C700.608 389.701 699.418 389.995 698.606 390.583C697.822 391.171 697.43 391.997 697.43 393.061C697.43 393.873 697.682 394.517 698.186 394.993C698.69 395.469 699.446 395.875 700.454 396.211C701.462 396.547 702.722 396.911 704.234 397.303C706.194 397.779 707.888 398.367 709.316 399.067C710.772 399.739 711.878 400.635 712.634 401.755C713.418 402.847 713.81 404.303 713.81 406.123C713.81 407.719 713.516 409.091 712.928 410.239C712.34 411.359 711.528 412.269 710.492 412.969C709.456 413.669 708.28 414.187 706.964 414.523C705.648 414.831 704.248 414.985 702.764 414.985C701.28 414.985 699.796 414.831 698.312 414.523C696.828 414.215 695.4 413.781 694.028 413.221C692.656 412.633 691.396 411.933 690.248 411.121L692.81 406.123C693.062 406.375 693.51 406.711 694.154 407.131C694.798 407.523 695.582 407.929 696.506 408.349C697.43 408.741 698.438 409.077 699.53 409.357C700.622 409.637 701.728 409.777 702.848 409.777C704.416 409.777 705.606 409.511 706.418 408.979C707.23 408.447 707.636 407.691 707.636 406.711C707.636 405.815 707.314 405.115 706.67 404.611C706.026 404.107 705.13 403.673 703.982 403.309C702.834 402.917 701.476 402.497 699.908 402.049C698.032 401.517 696.464 400.929 695.204 400.285C693.944 399.613 693.006 398.773 692.39 397.765C691.774 396.757 691.466 395.497 691.466 393.985C691.466 391.941 691.942 390.233 692.894 388.861C693.874 387.461 695.19 386.411 696.842 385.711C698.494 384.983 700.328 384.619 702.344 384.619C703.744 384.619 705.06 384.773 706.292 385.081C707.552 385.389 708.728 385.795 709.82 386.299C710.912 386.803 711.892 387.349 712.76 387.937L710.198 392.641ZM730.916 414.859C728.732 414.859 726.744 414.439 724.952 413.599C723.188 412.759 721.662 411.625 720.374 410.197C719.114 408.741 718.134 407.117 717.434 405.325C716.734 403.505 716.384 401.643 716.384 399.739C716.384 397.751 716.748 395.861 717.476 394.069C718.232 392.249 719.254 390.639 720.542 389.239C721.858 387.811 723.398 386.691 725.162 385.879C726.954 385.039 728.914 384.619 731.042 384.619C733.198 384.619 735.158 385.053 736.922 385.921C738.714 386.789 740.24 387.951 741.5 389.407C742.76 390.863 743.74 392.487 744.44 394.279C745.14 396.071 745.49 397.919 745.49 399.823C745.49 401.783 745.126 403.673 744.398 405.493C743.67 407.285 742.648 408.895 741.332 410.323C740.044 411.723 738.504 412.829 736.712 413.641C734.948 414.453 733.016 414.859 730.916 414.859ZM722.264 399.739C722.264 401.027 722.46 402.273 722.852 403.477C723.244 404.681 723.804 405.759 724.532 406.711C725.288 407.635 726.198 408.377 727.262 408.937C728.354 409.469 729.586 409.735 730.958 409.735C732.358 409.735 733.604 409.455 734.696 408.895C735.788 408.307 736.698 407.537 737.426 406.585C738.154 405.605 738.7 404.527 739.064 403.351C739.456 402.147 739.652 400.943 739.652 399.739C739.652 398.451 739.442 397.219 739.022 396.043C738.63 394.839 738.056 393.775 737.3 392.851C736.572 391.899 735.662 391.157 734.57 390.625C733.506 390.065 732.302 389.785 730.958 389.785C729.53 389.785 728.27 390.079 727.178 390.667C726.114 391.227 725.218 391.983 724.49 392.935C723.762 393.887 723.202 394.951 722.81 396.127C722.446 397.303 722.264 398.507 722.264 399.739ZM755.732 395.497V414.649H749.936V384.829H754.556L769.97 404.485V384.871H775.766V414.649H770.936L755.732 395.497ZM787.765 395.497V414.649H781.969V384.829H786.589L802.003 404.485V384.871H807.799V414.649H802.969L787.765 395.497ZM834.709 409.567V414.649H814.003V384.829H834.331V389.911H819.799V397.093H832.357V401.797H819.799V409.567H834.709ZM839.227 414.649V384.829H845.023V409.567H860.227V414.649H839.227Z" fill="white"/>
<circle cx="533" cy="500.649" r="98.5" stroke="#CBCBCB"/>
<circle cx="532.5" cy="501.149" r="86.5" fill="white"/>
<path d="M495.183 491.649V486.523L493.181 490.34H492.334L490.332 486.523V491.649H488.814V483.839H490.442L492.752 488.283L495.084 483.839H496.701V491.649H495.183ZM501.665 491.704C501.093 491.704 500.572 491.594 500.103 491.374C499.641 491.154 499.241 490.857 498.904 490.483C498.574 490.102 498.317 489.677 498.134 489.207C497.95 488.731 497.859 488.243 497.859 487.744C497.859 487.224 497.954 486.729 498.145 486.259C498.343 485.783 498.61 485.361 498.948 484.994C499.292 484.62 499.696 484.327 500.158 484.114C500.627 483.894 501.14 483.784 501.698 483.784C502.262 483.784 502.776 483.898 503.238 484.125C503.707 484.353 504.107 484.657 504.437 485.038C504.767 485.42 505.023 485.845 505.207 486.314C505.39 486.784 505.482 487.268 505.482 487.766C505.482 488.28 505.386 488.775 505.196 489.251C505.005 489.721 504.737 490.142 504.393 490.516C504.055 490.883 503.652 491.173 503.183 491.385C502.721 491.598 502.215 491.704 501.665 491.704ZM499.399 487.744C499.399 488.082 499.45 488.408 499.553 488.723C499.655 489.039 499.802 489.321 499.993 489.57C500.191 489.812 500.429 490.007 500.708 490.153C500.994 490.293 501.316 490.362 501.676 490.362C502.042 490.362 502.369 490.289 502.655 490.142C502.941 489.988 503.179 489.787 503.37 489.537C503.56 489.281 503.703 488.998 503.799 488.69C503.901 488.375 503.953 488.06 503.953 487.744C503.953 487.407 503.898 487.084 503.788 486.776C503.685 486.461 503.535 486.182 503.337 485.94C503.146 485.691 502.908 485.497 502.622 485.357C502.343 485.211 502.028 485.137 501.676 485.137C501.302 485.137 500.972 485.214 500.686 485.368C500.407 485.515 500.172 485.713 499.982 485.962C499.791 486.212 499.644 486.49 499.542 486.798C499.446 487.106 499.399 487.422 499.399 487.744ZM506.646 491.649V483.839H510.1C510.459 483.839 510.789 483.913 511.09 484.059C511.398 484.206 511.662 484.404 511.882 484.653C512.109 484.903 512.282 485.181 512.399 485.489C512.524 485.797 512.586 486.113 512.586 486.435C512.586 486.765 512.527 487.084 512.41 487.392C512.3 487.693 512.139 487.957 511.926 488.184C511.713 488.412 511.464 488.588 511.178 488.712L512.96 491.649H511.288L509.682 489.031H508.164V491.649H506.646ZM508.164 487.7H510.067C510.258 487.7 510.426 487.645 510.573 487.535C510.72 487.418 510.837 487.264 510.925 487.073C511.013 486.883 511.057 486.67 511.057 486.435C511.057 486.186 511.006 485.97 510.903 485.786C510.8 485.596 510.668 485.445 510.507 485.335C510.353 485.225 510.184 485.17 510.001 485.17H508.164V487.7ZM519.384 490.318V491.649H513.961V483.839H519.285V485.17H515.479V487.051H518.768V488.283H515.479V490.318H519.384ZM528.729 485.17H526.232V491.649H524.725V485.17H522.228V483.839H528.729V485.17ZM536.266 483.839V491.649H534.759V488.316H531.217V491.649H529.699V483.839H531.217V486.996H534.759V483.839H536.266ZM540.018 483.839H541.558L544.429 491.649H542.867L542.141 489.702H539.413L538.698 491.649H537.136L540.018 483.839ZM541.866 488.635L540.788 485.412L539.666 488.635H541.866ZM546.804 486.633V491.649H545.286V483.839H546.496L550.533 488.987V483.85H552.051V491.649H550.786L546.804 486.633ZM556.021 490.087V488.877L559.618 483.729H561.411V488.745H562.379V490.087H561.411V491.649H559.871V490.087H556.021ZM559.97 485.379L557.715 488.745H559.97V485.379ZM564.217 491.726C563.939 491.726 563.708 491.642 563.524 491.473C563.348 491.297 563.26 491.081 563.26 490.824C563.26 490.568 563.348 490.355 563.524 490.186C563.708 490.01 563.939 489.922 564.217 489.922C564.489 489.922 564.712 490.01 564.888 490.186C565.064 490.355 565.152 490.568 565.152 490.824C565.152 491.081 565.064 491.297 564.888 491.473C564.712 491.642 564.489 491.726 564.217 491.726ZM571.607 484.961H568.043V486.842C568.197 486.652 568.417 486.498 568.703 486.38C568.989 486.256 569.293 486.193 569.616 486.193C570.202 486.193 570.683 486.322 571.057 486.578C571.431 486.835 571.702 487.165 571.871 487.568C572.039 487.964 572.124 488.39 572.124 488.844C572.124 489.688 571.882 490.366 571.398 490.879C570.921 491.393 570.239 491.649 569.352 491.649C568.516 491.649 567.848 491.44 567.35 491.022C566.851 490.604 566.569 490.058 566.503 489.383H567.999C568.065 489.677 568.211 489.911 568.439 490.087C568.673 490.263 568.97 490.351 569.33 490.351C569.762 490.351 570.089 490.216 570.309 489.944C570.529 489.673 570.639 489.314 570.639 488.866C570.639 488.412 570.525 488.067 570.298 487.832C570.078 487.59 569.751 487.469 569.319 487.469C569.011 487.469 568.754 487.546 568.549 487.7C568.343 487.854 568.197 488.06 568.109 488.316H566.635V483.608H571.607V484.961ZM489.694 496.839L491.619 500.513L493.577 496.839H495.216L492.378 501.921V504.649H490.871V501.899L488.044 496.839H489.694ZM501.499 503.318V504.649H496.076V496.839H501.4V498.17H497.594V500.051H500.883V501.283H497.594V503.318H501.499ZM504.805 496.839H506.345L509.216 504.649H507.654L506.928 502.702H504.2L503.485 504.649H501.923L504.805 496.839ZM506.653 501.635L505.575 498.412L504.453 501.635H506.653ZM510.073 504.649V496.839H513.527C513.886 496.839 514.216 496.913 514.517 497.059C514.825 497.206 515.089 497.404 515.309 497.653C515.536 497.903 515.708 498.181 515.826 498.489C515.95 498.797 516.013 499.113 516.013 499.435C516.013 499.765 515.954 500.084 515.837 500.392C515.727 500.693 515.565 500.957 515.353 501.184C515.14 501.412 514.891 501.588 514.605 501.712L516.387 504.649H514.715L513.109 502.031H511.591V504.649H510.073ZM511.591 500.7H513.494C513.684 500.7 513.853 500.645 514 500.535C514.146 500.418 514.264 500.264 514.352 500.073C514.44 499.883 514.484 499.67 514.484 499.435C514.484 499.186 514.432 498.97 514.33 498.786C514.227 498.596 514.095 498.445 513.934 498.335C513.78 498.225 513.611 498.17 513.428 498.17H511.591V500.7ZM522.041 498.885C521.99 498.834 521.895 498.764 521.755 498.676C521.623 498.588 521.458 498.504 521.26 498.423C521.07 498.343 520.861 498.273 520.633 498.214C520.406 498.148 520.175 498.115 519.94 498.115C519.53 498.115 519.218 498.192 519.005 498.346C518.8 498.5 518.697 498.717 518.697 498.995C518.697 499.208 518.763 499.377 518.895 499.501C519.027 499.626 519.225 499.732 519.489 499.82C519.753 499.908 520.083 500.004 520.479 500.106C520.993 500.231 521.436 500.385 521.81 500.568C522.192 500.744 522.481 500.979 522.679 501.272C522.885 501.558 522.987 501.94 522.987 502.416C522.987 502.834 522.91 503.194 522.756 503.494C522.602 503.788 522.39 504.026 522.118 504.209C521.847 504.393 521.539 504.528 521.194 504.616C520.85 504.697 520.483 504.737 520.094 504.737C519.706 504.737 519.317 504.697 518.928 504.616C518.54 504.536 518.166 504.422 517.806 504.275C517.447 504.121 517.117 503.938 516.816 503.725L517.487 502.416C517.553 502.482 517.671 502.57 517.839 502.68C518.008 502.783 518.213 502.889 518.455 502.999C518.697 503.102 518.961 503.19 519.247 503.263C519.533 503.337 519.823 503.373 520.116 503.373C520.527 503.373 520.839 503.304 521.051 503.164C521.264 503.025 521.37 502.827 521.37 502.57C521.37 502.336 521.286 502.152 521.117 502.02C520.949 501.888 520.714 501.775 520.413 501.679C520.113 501.577 519.757 501.467 519.346 501.349C518.855 501.21 518.444 501.056 518.114 500.887C517.784 500.711 517.539 500.491 517.377 500.227C517.216 499.963 517.135 499.633 517.135 499.237C517.135 498.702 517.26 498.255 517.509 497.895C517.766 497.529 518.111 497.254 518.543 497.07C518.976 496.88 519.456 496.784 519.984 496.784C520.351 496.784 520.696 496.825 521.018 496.905C521.348 496.986 521.656 497.092 521.942 497.224C522.228 497.356 522.485 497.499 522.712 497.653L522.041 498.885ZM530.11 504.704C529.538 504.704 529.017 504.594 528.548 504.374C528.086 504.154 527.686 503.857 527.349 503.483C527.019 503.102 526.762 502.677 526.579 502.207C526.396 501.731 526.304 501.243 526.304 500.744C526.304 500.224 526.399 499.729 526.59 499.259C526.788 498.783 527.056 498.361 527.393 497.994C527.738 497.62 528.141 497.327 528.603 497.114C529.072 496.894 529.586 496.784 530.143 496.784C530.708 496.784 531.221 496.898 531.683 497.125C532.152 497.353 532.552 497.657 532.882 498.038C533.212 498.42 533.469 498.845 533.652 499.314C533.835 499.784 533.927 500.268 533.927 500.766C533.927 501.28 533.832 501.775 533.641 502.251C533.45 502.721 533.183 503.142 532.838 503.516C532.501 503.883 532.097 504.173 531.628 504.385C531.166 504.598 530.66 504.704 530.11 504.704ZM527.844 500.744C527.844 501.082 527.895 501.408 527.998 501.723C528.101 502.039 528.247 502.321 528.438 502.57C528.636 502.812 528.874 503.007 529.153 503.153C529.439 503.293 529.762 503.362 530.121 503.362C530.488 503.362 530.814 503.289 531.1 503.142C531.386 502.988 531.624 502.787 531.815 502.537C532.006 502.281 532.149 501.998 532.244 501.69C532.347 501.375 532.398 501.06 532.398 500.744C532.398 500.407 532.343 500.084 532.233 499.776C532.13 499.461 531.98 499.182 531.782 498.94C531.591 498.691 531.353 498.497 531.067 498.357C530.788 498.211 530.473 498.137 530.121 498.137C529.747 498.137 529.417 498.214 529.131 498.368C528.852 498.515 528.618 498.713 528.427 498.962C528.236 499.212 528.09 499.49 527.987 499.798C527.892 500.106 527.844 500.422 527.844 500.744ZM535.091 504.649V496.839H540.338V498.17H536.609V500.183H539.711V501.415H536.609V504.649H535.091ZM494.237 516.318V517.649H488.814V509.839H494.138V511.17H490.332V513.051H493.621V514.283H490.332V516.318H494.237ZM496.234 509.839L498.17 512.721L500.095 509.839H501.745L499.039 513.799L501.657 517.649H500.007L498.17 514.877L496.322 517.649H494.661L497.279 513.799L494.573 509.839H496.234ZM502.532 517.649V509.839H505.843C506.202 509.839 506.532 509.913 506.833 510.059C507.133 510.206 507.394 510.404 507.614 510.653C507.841 510.903 508.017 511.181 508.142 511.489C508.266 511.797 508.329 512.113 508.329 512.435C508.329 512.875 508.226 513.293 508.021 513.689C507.815 514.085 507.533 514.408 507.174 514.657C506.814 514.907 506.389 515.031 505.898 515.031H504.05V517.649H502.532ZM504.05 513.7H505.81C505.993 513.7 506.158 513.649 506.305 513.546C506.451 513.444 506.569 513.297 506.657 513.106C506.745 512.908 506.789 512.685 506.789 512.435C506.789 512.164 506.737 511.933 506.635 511.742C506.539 511.552 506.411 511.409 506.25 511.313C506.096 511.218 505.927 511.17 505.744 511.17H504.05V513.7ZM514.808 516.318V517.649H509.385V509.839H514.709V511.17H510.903V513.051H514.192V514.283H510.903V516.318H514.808ZM515.992 517.649V509.839H519.446C519.805 509.839 520.135 509.913 520.436 510.059C520.744 510.206 521.008 510.404 521.228 510.653C521.455 510.903 521.627 511.181 521.745 511.489C521.869 511.797 521.932 512.113 521.932 512.435C521.932 512.765 521.873 513.084 521.756 513.392C521.646 513.693 521.484 513.957 521.272 514.184C521.059 514.412 520.81 514.588 520.524 514.712L522.306 517.649H520.634L519.028 515.031H517.51V517.649H515.992ZM517.51 513.7H519.413C519.603 513.7 519.772 513.645 519.919 513.535C520.065 513.418 520.183 513.264 520.271 513.073C520.359 512.883 520.403 512.67 520.403 512.435C520.403 512.186 520.351 511.97 520.249 511.786C520.146 511.596 520.014 511.445 519.853 511.335C519.699 511.225 519.53 511.17 519.347 511.17H517.51V513.7ZM523.307 517.649V509.839H524.825V517.649H523.307ZM531.878 516.318V517.649H526.455V509.839H531.779V511.17H527.973V513.051H531.262V514.283H527.973V516.318H531.878ZM534.579 512.633V517.649H533.061V509.839H534.271L538.308 514.987V509.85H539.826V517.649H538.561L534.579 512.633ZM540.978 513.689C540.978 513.213 541.062 512.747 541.231 512.292C541.407 511.83 541.66 511.412 541.99 511.038C542.32 510.657 542.723 510.356 543.2 510.136C543.676 509.909 544.219 509.795 544.828 509.795C545.546 509.795 546.166 509.953 546.687 510.268C547.215 510.584 547.607 510.994 547.864 511.5L546.698 512.303C546.566 512.01 546.393 511.779 546.181 511.61C545.968 511.434 545.741 511.313 545.499 511.247C545.257 511.174 545.018 511.137 544.784 511.137C544.402 511.137 544.069 511.214 543.783 511.368C543.504 511.522 543.269 511.724 543.079 511.973C542.888 512.223 542.745 512.501 542.65 512.809C542.562 513.117 542.518 513.425 542.518 513.733C542.518 514.078 542.573 514.412 542.683 514.734C542.793 515.05 542.947 515.332 543.145 515.581C543.35 515.823 543.592 516.018 543.871 516.164C544.157 516.304 544.468 516.373 544.806 516.373C545.048 516.373 545.293 516.333 545.543 516.252C545.792 516.172 546.023 516.043 546.236 515.867C546.448 515.691 546.613 515.464 546.731 515.185L547.974 515.9C547.82 516.289 547.567 516.619 547.215 516.89C546.87 517.162 546.481 517.367 546.049 517.506C545.616 517.646 545.187 517.715 544.762 517.715C544.204 517.715 543.695 517.602 543.233 517.374C542.771 517.14 542.371 516.832 542.034 516.45C541.704 516.062 541.443 515.629 541.253 515.152C541.069 514.668 540.978 514.181 540.978 513.689ZM554.415 516.318V517.649H548.992V509.839H554.316V511.17H550.51V513.051H553.799V514.283H550.51V516.318H554.415ZM555.422 517.649V516.065H556.632V517.649H555.422Z" fill="#FF8A00"/>
<circle cx="278.5" cy="276.149" r="94.5" fill="white"/>
<circle cx="278.5" cy="276.149" r="109" stroke="#CBCBCB"/>
<path d="M223.605 260.742C223.642 260.009 223.898 259.444 224.375 259.048C224.859 258.645 225.493 258.443 226.278 258.443C226.813 258.443 227.272 258.539 227.653 258.729C228.034 258.913 228.32 259.166 228.511 259.488C228.709 259.804 228.808 260.163 228.808 260.566C228.808 261.028 228.687 261.421 228.445 261.743C228.21 262.059 227.928 262.271 227.598 262.381V262.425C228.023 262.557 228.353 262.792 228.588 263.129C228.83 263.467 228.951 263.899 228.951 264.427C228.951 264.867 228.848 265.26 228.643 265.604C228.445 265.949 228.148 266.22 227.752 266.418C227.363 266.609 226.894 266.704 226.344 266.704C225.515 266.704 224.841 266.495 224.32 266.077C223.799 265.659 223.524 265.043 223.495 264.229H224.991C225.006 264.589 225.127 264.878 225.354 265.098C225.589 265.311 225.908 265.417 226.311 265.417C226.685 265.417 226.971 265.315 227.169 265.109C227.374 264.897 227.477 264.625 227.477 264.295C227.477 263.855 227.338 263.54 227.059 263.349C226.78 263.159 226.348 263.063 225.761 263.063H225.442V261.798H225.761C226.802 261.798 227.323 261.45 227.323 260.753C227.323 260.438 227.228 260.192 227.037 260.016C226.854 259.84 226.586 259.752 226.234 259.752C225.889 259.752 225.622 259.848 225.431 260.038C225.248 260.222 225.141 260.456 225.112 260.742H223.605ZM231.51 262.403C230.777 262.022 230.41 261.432 230.41 260.632C230.41 260.236 230.509 259.877 230.707 259.554C230.912 259.224 231.217 258.964 231.62 258.773C232.031 258.575 232.529 258.476 233.116 258.476C233.703 258.476 234.198 258.575 234.601 258.773C235.012 258.964 235.316 259.224 235.514 259.554C235.719 259.877 235.822 260.236 235.822 260.632C235.822 261.036 235.723 261.391 235.525 261.699C235.327 262 235.063 262.235 234.733 262.403C235.136 262.579 235.452 262.836 235.679 263.173C235.906 263.511 236.02 263.91 236.02 264.372C236.02 264.871 235.892 265.307 235.635 265.681C235.386 266.048 235.041 266.33 234.601 266.528C234.161 266.726 233.666 266.825 233.116 266.825C232.566 266.825 232.071 266.726 231.631 266.528C231.198 266.33 230.854 266.048 230.597 265.681C230.348 265.307 230.223 264.871 230.223 264.372C230.223 263.91 230.337 263.511 230.564 263.173C230.791 262.829 231.107 262.572 231.51 262.403ZM234.326 260.852C234.326 260.493 234.216 260.214 233.996 260.016C233.783 259.818 233.49 259.719 233.116 259.719C232.749 259.719 232.456 259.818 232.236 260.016C232.023 260.214 231.917 260.497 231.917 260.863C231.917 261.193 232.027 261.457 232.247 261.655C232.474 261.853 232.764 261.952 233.116 261.952C233.468 261.952 233.758 261.853 233.985 261.655C234.212 261.45 234.326 261.182 234.326 260.852ZM233.116 263.074C232.698 263.074 232.357 263.181 232.093 263.393C231.836 263.606 231.708 263.91 231.708 264.306C231.708 264.673 231.833 264.974 232.082 265.208C232.339 265.436 232.683 265.549 233.116 265.549C233.549 265.549 233.89 265.432 234.139 265.197C234.388 264.963 234.513 264.666 234.513 264.306C234.513 263.918 234.385 263.617 234.128 263.404C233.871 263.184 233.534 263.074 233.116 263.074ZM237.236 262.535C237.236 261.267 237.464 260.273 237.918 259.554C238.38 258.836 239.143 258.476 240.206 258.476C241.27 258.476 242.029 258.836 242.483 259.554C242.945 260.273 243.176 261.267 243.176 262.535C243.176 263.811 242.945 264.812 242.483 265.538C242.029 266.264 241.27 266.627 240.206 266.627C239.143 266.627 238.38 266.264 237.918 265.538C237.464 264.812 237.236 263.811 237.236 262.535ZM241.658 262.535C241.658 261.993 241.622 261.538 241.548 261.171C241.482 260.797 241.343 260.493 241.13 260.258C240.925 260.024 240.617 259.906 240.206 259.906C239.796 259.906 239.484 260.024 239.271 260.258C239.066 260.493 238.927 260.797 238.853 261.171C238.787 261.538 238.754 261.993 238.754 262.535C238.754 263.093 238.787 263.562 238.853 263.943C238.919 264.317 239.059 264.622 239.271 264.856C239.484 265.084 239.796 265.197 240.206 265.197C240.617 265.197 240.929 265.084 241.141 264.856C241.354 264.622 241.493 264.317 241.559 263.943C241.625 263.562 241.658 263.093 241.658 262.535ZM244.348 262.535C244.348 261.267 244.575 260.273 245.03 259.554C245.492 258.836 246.254 258.476 247.318 258.476C248.381 258.476 249.14 258.836 249.595 259.554C250.057 260.273 250.288 261.267 250.288 262.535C250.288 263.811 250.057 264.812 249.595 265.538C249.14 266.264 248.381 266.627 247.318 266.627C246.254 266.627 245.492 266.264 245.03 265.538C244.575 264.812 244.348 263.811 244.348 262.535ZM248.77 262.535C248.77 261.993 248.733 261.538 248.66 261.171C248.594 260.797 248.454 260.493 248.242 260.258C248.036 260.024 247.728 259.906 247.318 259.906C246.907 259.906 246.595 260.024 246.383 260.258C246.177 260.493 246.038 260.797 245.965 261.171C245.899 261.538 245.866 261.993 245.866 262.535C245.866 263.093 245.899 263.562 245.965 263.943C246.031 264.317 246.17 264.622 246.383 264.856C246.595 265.084 246.907 265.197 247.318 265.197C247.728 265.197 248.04 265.084 248.253 264.856C248.465 264.622 248.605 264.317 248.671 263.943C248.737 263.562 248.77 263.093 248.77 262.535ZM260.625 264.636C260.625 265.076 260.511 265.447 260.284 265.747C260.056 266.041 259.748 266.264 259.36 266.418C258.978 266.572 258.56 266.649 258.106 266.649H254.333V258.839H258.513C258.879 258.839 259.195 258.938 259.459 259.136C259.73 259.327 259.935 259.576 260.075 259.884C260.221 260.185 260.295 260.5 260.295 260.83C260.295 261.204 260.199 261.56 260.009 261.897C259.818 262.235 259.539 262.484 259.173 262.645C259.62 262.777 259.972 263.016 260.229 263.36C260.493 263.705 260.625 264.13 260.625 264.636ZM259.096 264.35C259.096 264.152 259.055 263.976 258.975 263.822C258.894 263.661 258.784 263.536 258.645 263.448C258.513 263.353 258.359 263.305 258.183 263.305H255.851V265.362H258.106C258.289 265.362 258.454 265.318 258.601 265.23C258.755 265.135 258.876 265.01 258.964 264.856C259.052 264.702 259.096 264.534 259.096 264.35ZM255.851 260.137V262.106H257.875C258.043 262.106 258.197 262.066 258.337 261.985C258.476 261.905 258.586 261.791 258.667 261.644C258.755 261.498 258.799 261.322 258.799 261.116C258.799 260.918 258.758 260.746 258.678 260.599C258.604 260.453 258.502 260.339 258.37 260.258C258.245 260.178 258.102 260.137 257.941 260.137H255.851ZM267.232 265.318V266.649H261.809V258.839H267.133V260.17H263.327V262.051H266.616V263.283H263.327V265.318H267.232ZM273.069 260.885C273.017 260.834 272.922 260.764 272.783 260.676C272.651 260.588 272.486 260.504 272.288 260.423C272.097 260.343 271.888 260.273 271.661 260.214C271.433 260.148 271.202 260.115 270.968 260.115C270.557 260.115 270.245 260.192 270.033 260.346C269.827 260.5 269.725 260.717 269.725 260.995C269.725 261.208 269.791 261.377 269.923 261.501C270.055 261.626 270.253 261.732 270.517 261.82C270.781 261.908 271.111 262.004 271.507 262.106C272.02 262.231 272.464 262.385 272.838 262.568C273.219 262.744 273.509 262.979 273.707 263.272C273.912 263.558 274.015 263.94 274.015 264.416C274.015 264.834 273.938 265.194 273.784 265.494C273.63 265.788 273.417 266.026 273.146 266.209C272.874 266.393 272.566 266.528 272.222 266.616C271.877 266.697 271.51 266.737 271.122 266.737C270.733 266.737 270.344 266.697 269.956 266.616C269.567 266.536 269.193 266.422 268.834 266.275C268.474 266.121 268.144 265.938 267.844 265.725L268.515 264.416C268.581 264.482 268.698 264.57 268.867 264.68C269.035 264.783 269.241 264.889 269.483 264.999C269.725 265.102 269.989 265.19 270.275 265.263C270.561 265.337 270.85 265.373 271.144 265.373C271.554 265.373 271.866 265.304 272.079 265.164C272.291 265.025 272.398 264.827 272.398 264.57C272.398 264.336 272.313 264.152 272.145 264.02C271.976 263.888 271.741 263.775 271.441 263.679C271.14 263.577 270.784 263.467 270.374 263.349C269.882 263.21 269.472 263.056 269.142 262.887C268.812 262.711 268.566 262.491 268.405 262.227C268.243 261.963 268.163 261.633 268.163 261.237C268.163 260.702 268.287 260.255 268.537 259.895C268.793 259.529 269.138 259.254 269.571 259.07C270.003 258.88 270.484 258.784 271.012 258.784C271.378 258.784 271.723 258.825 272.046 258.905C272.376 258.986 272.684 259.092 272.97 259.224C273.256 259.356 273.512 259.499 273.74 259.653L273.069 260.885ZM281.003 260.17H278.506V266.649H276.999V260.17H274.502V258.839H281.003V260.17ZM289.716 265.318V266.649H284.293V258.839H289.617V260.17H285.811V262.051H289.1V263.283H285.811V265.318H289.716ZM291.713 258.839L293.649 261.721L295.574 258.839H297.224L294.518 262.799L297.136 266.649H295.486L293.649 263.877L291.801 266.649H290.14L292.758 262.799L290.052 258.839H291.713ZM298.01 266.649V258.839H301.321C301.681 258.839 302.011 258.913 302.311 259.059C302.612 259.206 302.872 259.404 303.092 259.653C303.32 259.903 303.496 260.181 303.62 260.489C303.745 260.797 303.807 261.113 303.807 261.435C303.807 261.875 303.705 262.293 303.499 262.689C303.294 263.085 303.012 263.408 302.652 263.657C302.293 263.907 301.868 264.031 301.376 264.031H299.528V266.649H298.01ZM299.528 262.7H301.288C301.472 262.7 301.637 262.649 301.783 262.546C301.93 262.444 302.047 262.297 302.135 262.106C302.223 261.908 302.267 261.685 302.267 261.435C302.267 261.164 302.216 260.933 302.113 260.742C302.018 260.552 301.89 260.409 301.728 260.313C301.574 260.218 301.406 260.17 301.222 260.17H299.528V262.7ZM310.287 265.318V266.649H304.864V258.839H310.188V260.17H306.382V262.051H309.671V263.283H306.382V265.318H310.287ZM311.47 266.649V258.839H314.924C315.284 258.839 315.614 258.913 315.914 259.059C316.222 259.206 316.486 259.404 316.706 259.653C316.934 259.903 317.106 260.181 317.223 260.489C317.348 260.797 317.41 261.113 317.41 261.435C317.41 261.765 317.352 262.084 317.234 262.392C317.124 262.693 316.963 262.957 316.75 263.184C316.538 263.412 316.288 263.588 316.002 263.712L317.784 266.649H316.112L314.506 264.031H312.988V266.649H311.47ZM312.988 262.7H314.891C315.082 262.7 315.251 262.645 315.397 262.535C315.544 262.418 315.661 262.264 315.749 262.073C315.837 261.883 315.881 261.67 315.881 261.435C315.881 261.186 315.83 260.97 315.727 260.786C315.625 260.596 315.493 260.445 315.331 260.335C315.177 260.225 315.009 260.17 314.825 260.17H312.988V262.7ZM324.541 260.17H322.044V266.649H320.537V260.17H318.04V258.839H324.541V260.17ZM330.163 260.885C330.112 260.834 330.017 260.764 329.877 260.676C329.745 260.588 329.58 260.504 329.382 260.423C329.192 260.343 328.983 260.273 328.755 260.214C328.528 260.148 328.297 260.115 328.062 260.115C327.652 260.115 327.34 260.192 327.127 260.346C326.922 260.5 326.819 260.717 326.819 260.995C326.819 261.208 326.885 261.377 327.017 261.501C327.149 261.626 327.347 261.732 327.611 261.82C327.875 261.908 328.205 262.004 328.601 262.106C329.115 262.231 329.558 262.385 329.932 262.568C330.314 262.744 330.603 262.979 330.801 263.272C331.007 263.558 331.109 263.94 331.109 264.416C331.109 264.834 331.032 265.194 330.878 265.494C330.724 265.788 330.512 266.026 330.24 266.209C329.969 266.393 329.661 266.528 329.316 266.616C328.972 266.697 328.605 266.737 328.216 266.737C327.828 266.737 327.439 266.697 327.05 266.616C326.662 266.536 326.288 266.422 325.928 266.275C325.569 266.121 325.239 265.938 324.938 265.725L325.609 264.416C325.675 264.482 325.793 264.57 325.961 264.68C326.13 264.783 326.335 264.889 326.577 264.999C326.819 265.102 327.083 265.19 327.369 265.263C327.655 265.337 327.945 265.373 328.238 265.373C328.649 265.373 328.961 265.304 329.173 265.164C329.386 265.025 329.492 264.827 329.492 264.57C329.492 264.336 329.408 264.152 329.239 264.02C329.071 263.888 328.836 263.775 328.535 263.679C328.235 263.577 327.879 263.467 327.468 263.349C326.977 263.21 326.566 263.056 326.236 262.887C325.906 262.711 325.661 262.491 325.499 262.227C325.338 261.963 325.257 261.633 325.257 261.237C325.257 260.702 325.382 260.255 325.631 259.895C325.888 259.529 326.233 259.254 326.665 259.07C327.098 258.88 327.578 258.784 328.106 258.784C328.473 258.784 328.818 258.825 329.14 258.905C329.47 258.986 329.778 259.092 330.064 259.224C330.35 259.356 330.607 259.499 330.834 259.653L330.163 260.885ZM223.814 279.649V271.839H229.061V273.17H225.332V275.183H228.434V276.415H225.332V279.649H223.814ZM230.13 279.649V271.839H233.584C233.944 271.839 234.274 271.913 234.574 272.059C234.882 272.206 235.146 272.404 235.366 272.653C235.594 272.903 235.766 273.181 235.883 273.489C236.008 273.797 236.07 274.113 236.07 274.435C236.07 274.765 236.012 275.084 235.894 275.392C235.784 275.693 235.623 275.957 235.41 276.184C235.198 276.412 234.948 276.588 234.662 276.712L236.444 279.649H234.772L233.166 277.031H231.648V279.649H230.13ZM231.648 275.7H233.551C233.742 275.7 233.911 275.645 234.057 275.535C234.204 275.418 234.321 275.264 234.409 275.073C234.497 274.883 234.541 274.67 234.541 274.435C234.541 274.186 234.49 273.97 234.387 273.786C234.285 273.596 234.153 273.445 233.991 273.335C233.837 273.225 233.669 273.17 233.485 273.17H231.648V275.7ZM240.736 279.704C240.164 279.704 239.643 279.594 239.174 279.374C238.712 279.154 238.312 278.857 237.975 278.483C237.645 278.102 237.388 277.677 237.205 277.207C237.022 276.731 236.93 276.243 236.93 275.744C236.93 275.224 237.025 274.729 237.216 274.259C237.414 273.783 237.682 273.361 238.019 272.994C238.364 272.62 238.767 272.327 239.229 272.114C239.698 271.894 240.212 271.784 240.769 271.784C241.334 271.784 241.847 271.898 242.309 272.125C242.778 272.353 243.178 272.657 243.508 273.038C243.838 273.42 244.095 273.845 244.278 274.314C244.461 274.784 244.553 275.268 244.553 275.766C244.553 276.28 244.458 276.775 244.267 277.251C244.076 277.721 243.809 278.142 243.464 278.516C243.127 278.883 242.723 279.173 242.254 279.385C241.792 279.598 241.286 279.704 240.736 279.704ZM238.47 275.744C238.47 276.082 238.521 276.408 238.624 276.723C238.727 277.039 238.873 277.321 239.064 277.57C239.262 277.812 239.5 278.007 239.779 278.153C240.065 278.293 240.388 278.362 240.747 278.362C241.114 278.362 241.44 278.289 241.726 278.142C242.012 277.988 242.25 277.787 242.441 277.537C242.632 277.281 242.775 276.998 242.87 276.69C242.973 276.375 243.024 276.06 243.024 275.744C243.024 275.407 242.969 275.084 242.859 274.776C242.756 274.461 242.606 274.182 242.408 273.94C242.217 273.691 241.979 273.497 241.693 273.357C241.414 273.211 241.099 273.137 240.747 273.137C240.373 273.137 240.043 273.214 239.757 273.368C239.478 273.515 239.244 273.713 239.053 273.962C238.862 274.212 238.716 274.49 238.613 274.798C238.518 275.106 238.47 275.422 238.47 275.744ZM252.086 279.649V274.523L250.084 278.34H249.237L247.235 274.523V279.649H245.717V271.839H247.345L249.655 276.283L251.987 271.839H253.604V279.649H252.086ZM257.877 279.649V271.839H260.715C261.566 271.839 262.277 272.015 262.849 272.367C263.421 272.712 263.85 273.181 264.136 273.775C264.422 274.362 264.565 275.015 264.565 275.733C264.565 276.525 264.408 277.215 264.092 277.801C263.777 278.388 263.33 278.843 262.75 279.165C262.178 279.488 261.5 279.649 260.715 279.649H257.877ZM263.036 275.733C263.036 275.227 262.945 274.784 262.761 274.402C262.578 274.014 262.314 273.713 261.969 273.5C261.625 273.28 261.207 273.17 260.715 273.17H259.395V278.318H260.715C261.214 278.318 261.636 278.208 261.98 277.988C262.325 277.761 262.585 277.453 262.761 277.064C262.945 276.668 263.036 276.225 263.036 275.733ZM265.752 279.649V271.839H267.27V279.649H265.752ZM268.899 279.649V271.839H274.146V273.17H270.417V275.183H273.519V276.415H270.417V279.649H268.899ZM275.215 279.649V271.839H280.462V273.17H276.733V275.183H279.835V276.415H276.733V279.649H275.215ZM286.955 278.318V279.649H281.532V271.839H286.856V273.17H283.05V275.051H286.339V276.283H283.05V278.318H286.955ZM288.138 279.649V271.839H291.592C291.952 271.839 292.282 271.913 292.582 272.059C292.89 272.206 293.154 272.404 293.374 272.653C293.602 272.903 293.774 273.181 293.891 273.489C294.016 273.797 294.078 274.113 294.078 274.435C294.078 274.765 294.02 275.084 293.902 275.392C293.792 275.693 293.631 275.957 293.418 276.184C293.206 276.412 292.956 276.588 292.67 276.712L294.452 279.649H292.78L291.174 277.031H289.656V279.649H288.138ZM289.656 275.7H291.559C291.75 275.7 291.919 275.645 292.065 275.535C292.212 275.418 292.329 275.264 292.417 275.073C292.505 274.883 292.549 274.67 292.549 274.435C292.549 274.186 292.498 273.97 292.395 273.786C292.293 273.596 292.161 273.445 291.999 273.335C291.845 273.225 291.677 273.17 291.493 273.17H289.656V275.7ZM300.877 278.318V279.649H295.454V271.839H300.778V273.17H296.972V275.051H300.261V276.283H296.972V278.318H300.877ZM303.578 274.633V279.649H302.06V271.839H303.27L307.307 276.987V271.85H308.825V279.649H307.56L303.578 274.633ZM316.291 273.17H313.794V279.649H312.287V273.17H309.79V271.839H316.291V273.17ZM225.332 287.633V292.649H223.814V284.839H225.024L229.061 289.987V284.85H230.579V292.649H229.314L225.332 287.633ZM232.204 292.649V284.839H233.722V292.649H232.204ZM234.878 288.689C234.878 288.213 234.962 287.747 235.131 287.292C235.307 286.83 235.56 286.412 235.89 286.038C236.22 285.657 236.623 285.356 237.1 285.136C237.577 284.909 238.119 284.795 238.728 284.795C239.447 284.795 240.066 284.953 240.587 285.268C241.115 285.584 241.507 285.994 241.764 286.5L240.598 287.303C240.466 287.01 240.294 286.779 240.081 286.61C239.868 286.434 239.641 286.313 239.399 286.247C239.157 286.174 238.919 286.137 238.684 286.137C238.303 286.137 237.969 286.214 237.683 286.368C237.404 286.522 237.17 286.724 236.979 286.973C236.788 287.223 236.645 287.501 236.55 287.809C236.462 288.117 236.418 288.425 236.418 288.733C236.418 289.078 236.473 289.412 236.583 289.734C236.693 290.05 236.847 290.332 237.045 290.581C237.25 290.823 237.492 291.018 237.771 291.164C238.057 291.304 238.369 291.373 238.706 291.373C238.948 291.373 239.194 291.333 239.443 291.252C239.692 291.172 239.923 291.043 240.136 290.867C240.349 290.691 240.514 290.464 240.631 290.185L241.874 290.9C241.72 291.289 241.467 291.619 241.115 291.89C240.77 292.162 240.382 292.367 239.949 292.506C239.516 292.646 239.087 292.715 238.662 292.715C238.105 292.715 237.595 292.602 237.133 292.374C236.671 292.14 236.271 291.832 235.934 291.45C235.604 291.062 235.344 290.629 235.153 290.152C234.97 289.668 234.878 289.181 234.878 288.689ZM249.459 284.839V292.649H247.952V289.316H244.41V292.649H242.892V284.839H244.41V287.996H247.952V284.839H249.459ZM256.511 291.318V292.649H251.088V284.839H256.412V286.17H252.606V288.051H255.895V289.283H252.606V291.318H256.511ZM262.348 286.885C262.297 286.834 262.201 286.764 262.062 286.676C261.93 286.588 261.765 286.504 261.567 286.423C261.376 286.343 261.167 286.273 260.94 286.214C260.713 286.148 260.482 286.115 260.247 286.115C259.836 286.115 259.525 286.192 259.312 286.346C259.107 286.5 259.004 286.717 259.004 286.995C259.004 287.208 259.07 287.377 259.202 287.501C259.334 287.626 259.532 287.732 259.796 287.82C260.06 287.908 260.39 288.004 260.786 288.106C261.299 288.231 261.743 288.385 262.117 288.568C262.498 288.744 262.788 288.979 262.986 289.272C263.191 289.558 263.294 289.94 263.294 290.416C263.294 290.834 263.217 291.194 263.063 291.494C262.909 291.788 262.696 292.026 262.425 292.209C262.154 292.393 261.846 292.528 261.501 292.616C261.156 292.697 260.79 292.737 260.401 292.737C260.012 292.737 259.624 292.697 259.235 292.616C258.846 292.536 258.472 292.422 258.113 292.275C257.754 292.121 257.424 291.938 257.123 291.725L257.794 290.416C257.86 290.482 257.977 290.57 258.146 290.68C258.315 290.783 258.52 290.889 258.762 290.999C259.004 291.102 259.268 291.19 259.554 291.263C259.84 291.337 260.13 291.373 260.423 291.373C260.834 291.373 261.145 291.304 261.358 291.164C261.571 291.025 261.677 290.827 261.677 290.57C261.677 290.336 261.593 290.152 261.424 290.02C261.255 289.888 261.021 289.775 260.72 289.679C260.419 289.577 260.064 289.467 259.653 289.349C259.162 289.21 258.751 289.056 258.421 288.887C258.091 288.711 257.845 288.491 257.684 288.227C257.523 287.963 257.442 287.633 257.442 287.237C257.442 286.702 257.567 286.255 257.816 285.895C258.073 285.529 258.417 285.254 258.85 285.07C259.283 284.88 259.763 284.784 260.291 284.784C260.658 284.784 261.002 284.825 261.325 284.905C261.655 284.986 261.963 285.092 262.249 285.224C262.535 285.356 262.792 285.499 263.019 285.653L262.348 286.885ZM264.265 292.649V291.065H265.475V292.649H264.265Z" fill="#FF8A00"/>
<circle cx="707" cy="149.649" r="96.6575" fill="white"/>
<circle cx="707" cy="149.649" r="111.5" stroke="#CBCBCB"/>
<path d="M657.683 147.649V142.523L655.681 146.34H654.834L652.832 142.523V147.649H651.314V139.839H652.942L655.252 144.283L657.584 139.839H659.201V147.649H657.683ZM664.165 147.704C663.593 147.704 663.072 147.594 662.603 147.374C662.141 147.154 661.741 146.857 661.404 146.483C661.074 146.102 660.817 145.677 660.634 145.207C660.45 144.731 660.359 144.243 660.359 143.744C660.359 143.224 660.454 142.729 660.645 142.259C660.843 141.783 661.11 141.361 661.448 140.994C661.792 140.62 662.196 140.327 662.658 140.114C663.127 139.894 663.64 139.784 664.198 139.784C664.762 139.784 665.276 139.898 665.738 140.125C666.207 140.353 666.607 140.657 666.937 141.038C667.267 141.42 667.523 141.845 667.707 142.314C667.89 142.784 667.982 143.268 667.982 143.766C667.982 144.28 667.886 144.775 667.696 145.251C667.505 145.721 667.237 146.142 666.893 146.516C666.555 146.883 666.152 147.173 665.683 147.385C665.221 147.598 664.715 147.704 664.165 147.704ZM661.899 143.744C661.899 144.082 661.95 144.408 662.053 144.723C662.155 145.039 662.302 145.321 662.493 145.57C662.691 145.812 662.929 146.007 663.208 146.153C663.494 146.293 663.816 146.362 664.176 146.362C664.542 146.362 664.869 146.289 665.155 146.142C665.441 145.988 665.679 145.787 665.87 145.537C666.06 145.281 666.203 144.998 666.299 144.69C666.401 144.375 666.453 144.06 666.453 143.744C666.453 143.407 666.398 143.084 666.288 142.776C666.185 142.461 666.035 142.182 665.837 141.94C665.646 141.691 665.408 141.497 665.122 141.357C664.843 141.211 664.528 141.137 664.176 141.137C663.802 141.137 663.472 141.214 663.186 141.368C662.907 141.515 662.672 141.713 662.482 141.962C662.291 142.212 662.144 142.49 662.042 142.798C661.946 143.106 661.899 143.422 661.899 143.744ZM669.146 147.649V139.839H672.6C672.959 139.839 673.289 139.913 673.59 140.059C673.898 140.206 674.162 140.404 674.382 140.653C674.609 140.903 674.782 141.181 674.899 141.489C675.024 141.797 675.086 142.113 675.086 142.435C675.086 142.765 675.027 143.084 674.91 143.392C674.8 143.693 674.639 143.957 674.426 144.184C674.213 144.412 673.964 144.588 673.678 144.712L675.46 147.649H673.788L672.182 145.031H670.664V147.649H669.146ZM670.664 143.7H672.567C672.758 143.7 672.926 143.645 673.073 143.535C673.22 143.418 673.337 143.264 673.425 143.073C673.513 142.883 673.557 142.67 673.557 142.435C673.557 142.186 673.506 141.97 673.403 141.786C673.3 141.596 673.168 141.445 673.007 141.335C672.853 141.225 672.684 141.17 672.501 141.17H670.664V143.7ZM681.884 146.318V147.649H676.461V139.839H681.785V141.17H677.979V143.051H681.268V144.283H677.979V146.318H681.884ZM691.229 141.17H688.732V147.649H687.225V141.17H684.728V139.839H691.229V141.17ZM698.766 139.839V147.649H697.259V144.316H693.717V147.649H692.199V139.839H693.717V142.996H697.259V139.839H698.766ZM702.518 139.839H704.058L706.929 147.649H705.367L704.641 145.702H701.913L701.198 147.649H699.636L702.518 139.839ZM704.366 144.635L703.288 141.412L702.166 144.635H704.366ZM709.304 142.633V147.649H707.786V139.839H708.996L713.033 144.987V139.85H714.551V147.649H713.286L709.304 142.633ZM718.4 141.049V139.63H721.051V147.649H719.467V141.049H718.4ZM727.962 140.961H724.398V142.842C724.552 142.652 724.772 142.498 725.058 142.38C725.344 142.256 725.649 142.193 725.971 142.193C726.558 142.193 727.038 142.322 727.412 142.578C727.786 142.835 728.058 143.165 728.226 143.568C728.395 143.964 728.479 144.39 728.479 144.844C728.479 145.688 728.237 146.366 727.753 146.879C727.277 147.393 726.595 147.649 725.707 147.649C724.871 147.649 724.204 147.44 723.705 147.022C723.207 146.604 722.924 146.058 722.858 145.383H724.354C724.42 145.677 724.567 145.911 724.794 146.087C725.029 146.263 725.326 146.351 725.685 146.351C726.118 146.351 726.444 146.216 726.664 145.944C726.884 145.673 726.994 145.314 726.994 144.866C726.994 144.412 726.881 144.067 726.653 143.832C726.433 143.59 726.107 143.469 725.674 143.469C725.366 143.469 725.11 143.546 724.904 143.7C724.699 143.854 724.552 144.06 724.464 144.316H722.99V139.608H727.962V140.961ZM729.651 143.535C729.651 142.267 729.879 141.273 730.333 140.554C730.795 139.836 731.558 139.476 732.621 139.476C733.685 139.476 734.444 139.836 734.898 140.554C735.36 141.273 735.591 142.267 735.591 143.535C735.591 144.811 735.36 145.812 734.898 146.538C734.444 147.264 733.685 147.627 732.621 147.627C731.558 147.627 730.795 147.264 730.333 146.538C729.879 145.812 729.651 144.811 729.651 143.535ZM734.073 143.535C734.073 142.993 734.037 142.538 733.963 142.171C733.897 141.797 733.758 141.493 733.545 141.258C733.34 141.024 733.032 140.906 732.621 140.906C732.211 140.906 731.899 141.024 731.686 141.258C731.481 141.493 731.342 141.797 731.268 142.171C731.202 142.538 731.169 142.993 731.169 143.535C731.169 144.093 731.202 144.562 731.268 144.943C731.334 145.317 731.474 145.622 731.686 145.856C731.899 146.084 732.211 146.197 732.621 146.197C733.032 146.197 733.344 146.084 733.556 145.856C733.769 145.622 733.908 145.317 733.974 144.943C734.04 144.562 734.073 144.093 734.073 143.535ZM736.763 143.535C736.763 142.267 736.99 141.273 737.445 140.554C737.907 139.836 738.669 139.476 739.733 139.476C740.796 139.476 741.555 139.836 742.01 140.554C742.472 141.273 742.703 142.267 742.703 143.535C742.703 144.811 742.472 145.812 742.01 146.538C741.555 147.264 740.796 147.627 739.733 147.627C738.669 147.627 737.907 147.264 737.445 146.538C736.99 145.812 736.763 144.811 736.763 143.535ZM741.185 143.535C741.185 142.993 741.148 142.538 741.075 142.171C741.009 141.797 740.869 141.493 740.657 141.258C740.451 141.024 740.143 140.906 739.733 140.906C739.322 140.906 739.01 141.024 738.798 141.258C738.592 141.493 738.453 141.797 738.38 142.171C738.314 142.538 738.281 142.993 738.281 143.535C738.281 144.093 738.314 144.562 738.38 144.943C738.446 145.317 738.585 145.622 738.798 145.856C739.01 146.084 739.322 146.197 739.733 146.197C740.143 146.197 740.455 146.084 740.668 145.856C740.88 145.622 741.02 145.317 741.086 144.943C741.152 144.562 741.185 144.093 741.185 143.535ZM655.967 154.885C655.916 154.834 655.82 154.764 655.681 154.676C655.549 154.588 655.384 154.504 655.186 154.423C654.995 154.343 654.786 154.273 654.559 154.214C654.332 154.148 654.101 154.115 653.866 154.115C653.455 154.115 653.144 154.192 652.931 154.346C652.726 154.5 652.623 154.717 652.623 154.995C652.623 155.208 652.689 155.377 652.821 155.501C652.953 155.626 653.151 155.732 653.415 155.82C653.679 155.908 654.009 156.004 654.405 156.106C654.918 156.231 655.362 156.385 655.736 156.568C656.117 156.744 656.407 156.979 656.605 157.272C656.81 157.558 656.913 157.94 656.913 158.416C656.913 158.834 656.836 159.194 656.682 159.494C656.528 159.788 656.315 160.026 656.044 160.209C655.773 160.393 655.465 160.528 655.12 160.616C654.775 160.697 654.409 160.737 654.02 160.737C653.631 160.737 653.243 160.697 652.854 160.616C652.465 160.536 652.091 160.422 651.732 160.275C651.373 160.121 651.043 159.938 650.742 159.725L651.413 158.416C651.479 158.482 651.596 158.57 651.765 158.68C651.934 158.783 652.139 158.889 652.381 158.999C652.623 159.102 652.887 159.19 653.173 159.263C653.459 159.337 653.749 159.373 654.042 159.373C654.453 159.373 654.764 159.304 654.977 159.164C655.19 159.025 655.296 158.827 655.296 158.57C655.296 158.336 655.212 158.152 655.043 158.02C654.874 157.888 654.64 157.775 654.339 157.679C654.038 157.577 653.683 157.467 653.272 157.349C652.781 157.21 652.37 157.056 652.04 156.887C651.71 156.711 651.464 156.491 651.303 156.227C651.142 155.963 651.061 155.633 651.061 155.237C651.061 154.702 651.186 154.255 651.435 153.895C651.692 153.529 652.036 153.254 652.469 153.07C652.902 152.88 653.382 152.784 653.91 152.784C654.277 152.784 654.621 152.825 654.944 152.905C655.274 152.986 655.582 153.092 655.868 153.224C656.154 153.356 656.411 153.499 656.638 153.653L655.967 154.885ZM661.371 160.704C660.748 160.704 660.216 160.602 659.776 160.396C659.343 160.184 658.991 159.894 658.72 159.527C658.456 159.161 658.262 158.746 658.137 158.284C658.012 157.815 657.95 157.327 657.95 156.821V152.839H659.468V156.821C659.468 157.144 659.497 157.459 659.556 157.767C659.622 158.068 659.728 158.339 659.875 158.581C660.022 158.823 660.216 159.014 660.458 159.153C660.7 159.293 661.001 159.362 661.36 159.362C661.727 159.362 662.031 159.293 662.273 159.153C662.522 159.007 662.717 158.812 662.856 158.57C663.003 158.328 663.109 158.057 663.175 157.756C663.241 157.448 663.274 157.137 663.274 156.821V152.839H664.781V156.821C664.781 157.357 664.715 157.859 664.583 158.328C664.458 158.798 664.257 159.212 663.978 159.571C663.707 159.923 663.355 160.202 662.922 160.407C662.489 160.605 661.972 160.704 661.371 160.704ZM665.837 156.689C665.837 156.213 665.921 155.747 666.09 155.292C666.266 154.83 666.519 154.412 666.849 154.038C667.179 153.657 667.582 153.356 668.059 153.136C668.536 152.909 669.078 152.795 669.687 152.795C670.406 152.795 671.025 152.953 671.546 153.268C672.074 153.584 672.466 153.994 672.723 154.5L671.557 155.303C671.425 155.01 671.253 154.779 671.04 154.61C670.827 154.434 670.6 154.313 670.358 154.247C670.116 154.174 669.878 154.137 669.643 154.137C669.262 154.137 668.928 154.214 668.642 154.368C668.363 154.522 668.129 154.724 667.938 154.973C667.747 155.223 667.604 155.501 667.509 155.809C667.421 156.117 667.377 156.425 667.377 156.733C667.377 157.078 667.432 157.412 667.542 157.734C667.652 158.05 667.806 158.332 668.004 158.581C668.209 158.823 668.451 159.018 668.73 159.164C669.016 159.304 669.328 159.373 669.665 159.373C669.907 159.373 670.153 159.333 670.402 159.252C670.651 159.172 670.882 159.043 671.095 158.867C671.308 158.691 671.473 158.464 671.59 158.185L672.833 158.9C672.679 159.289 672.426 159.619 672.074 159.89C671.729 160.162 671.341 160.367 670.908 160.506C670.475 160.646 670.046 160.715 669.621 160.715C669.064 160.715 668.554 160.602 668.092 160.374C667.63 160.14 667.23 159.832 666.893 159.45C666.563 159.062 666.303 158.629 666.112 158.152C665.929 157.668 665.837 157.181 665.837 156.689ZM673.281 156.689C673.281 156.213 673.366 155.747 673.534 155.292C673.71 154.83 673.963 154.412 674.293 154.038C674.623 153.657 675.027 153.356 675.503 153.136C675.98 152.909 676.523 152.795 677.131 152.795C677.85 152.795 678.47 152.953 678.99 153.268C679.518 153.584 679.911 153.994 680.167 154.5L679.001 155.303C678.869 155.01 678.697 154.779 678.484 154.61C678.272 154.434 678.044 154.313 677.802 154.247C677.56 154.174 677.322 154.137 677.087 154.137C676.706 154.137 676.372 154.214 676.086 154.368C675.808 154.522 675.573 154.724 675.382 154.973C675.192 155.223 675.049 155.501 674.953 155.809C674.865 156.117 674.821 156.425 674.821 156.733C674.821 157.078 674.876 157.412 674.986 157.734C675.096 158.05 675.25 158.332 675.448 158.581C675.654 158.823 675.896 159.018 676.174 159.164C676.46 159.304 676.772 159.373 677.109 159.373C677.351 159.373 677.597 159.333 677.846 159.252C678.096 159.172 678.327 159.043 678.539 158.867C678.752 158.691 678.917 158.464 679.034 158.185L680.277 158.9C680.123 159.289 679.87 159.619 679.518 159.89C679.174 160.162 678.785 160.367 678.352 160.506C677.92 160.646 677.491 160.715 677.065 160.715C676.508 160.715 675.998 160.602 675.536 160.374C675.074 160.14 674.675 159.832 674.337 159.45C674.007 159.062 673.747 158.629 673.556 158.152C673.373 157.668 673.281 157.181 673.281 156.689ZM686.718 159.318V160.649H681.295V152.839H686.619V154.17H682.813V156.051H686.102V157.283H682.813V159.318H686.718ZM692.555 154.885C692.504 154.834 692.408 154.764 692.269 154.676C692.137 154.588 691.972 154.504 691.774 154.423C691.583 154.343 691.374 154.273 691.147 154.214C690.92 154.148 690.689 154.115 690.454 154.115C690.043 154.115 689.732 154.192 689.519 154.346C689.314 154.5 689.211 154.717 689.211 154.995C689.211 155.208 689.277 155.377 689.409 155.501C689.541 155.626 689.739 155.732 690.003 155.82C690.267 155.908 690.597 156.004 690.993 156.106C691.506 156.231 691.95 156.385 692.324 156.568C692.705 156.744 692.995 156.979 693.193 157.272C693.398 157.558 693.501 157.94 693.501 158.416C693.501 158.834 693.424 159.194 693.27 159.494C693.116 159.788 692.903 160.026 692.632 160.209C692.361 160.393 692.053 160.528 691.708 160.616C691.363 160.697 690.997 160.737 690.608 160.737C690.219 160.737 689.831 160.697 689.442 160.616C689.053 160.536 688.679 160.422 688.32 160.275C687.961 160.121 687.631 159.938 687.33 159.725L688.001 158.416C688.067 158.482 688.184 158.57 688.353 158.68C688.522 158.783 688.727 158.889 688.969 158.999C689.211 159.102 689.475 159.19 689.761 159.263C690.047 159.337 690.337 159.373 690.63 159.373C691.041 159.373 691.352 159.304 691.565 159.164C691.778 159.025 691.884 158.827 691.884 158.57C691.884 158.336 691.8 158.152 691.631 158.02C691.462 157.888 691.228 157.775 690.927 157.679C690.626 157.577 690.271 157.467 689.86 157.349C689.369 157.21 688.958 157.056 688.628 156.887C688.298 156.711 688.052 156.491 687.891 156.227C687.73 155.963 687.649 155.633 687.649 155.237C687.649 154.702 687.774 154.255 688.023 153.895C688.28 153.529 688.624 153.254 689.057 153.07C689.49 152.88 689.97 152.784 690.498 152.784C690.865 152.784 691.209 152.825 691.532 152.905C691.862 152.986 692.17 153.092 692.456 153.224C692.742 153.356 692.999 153.499 693.226 153.653L692.555 154.885ZM699.301 154.885C699.25 154.834 699.154 154.764 699.015 154.676C698.883 154.588 698.718 154.504 698.52 154.423C698.329 154.343 698.12 154.273 697.893 154.214C697.666 154.148 697.435 154.115 697.2 154.115C696.789 154.115 696.478 154.192 696.265 154.346C696.06 154.5 695.957 154.717 695.957 154.995C695.957 155.208 696.023 155.377 696.155 155.501C696.287 155.626 696.485 155.732 696.749 155.82C697.013 155.908 697.343 156.004 697.739 156.106C698.252 156.231 698.696 156.385 699.07 156.568C699.451 156.744 699.741 156.979 699.939 157.272C700.144 157.558 700.247 157.94 700.247 158.416C700.247 158.834 700.17 159.194 700.016 159.494C699.862 159.788 699.649 160.026 699.378 160.209C699.107 160.393 698.799 160.528 698.454 160.616C698.109 160.697 697.743 160.737 697.354 160.737C696.965 160.737 696.577 160.697 696.188 160.616C695.799 160.536 695.425 160.422 695.066 160.275C694.707 160.121 694.377 159.938 694.076 159.725L694.747 158.416C694.813 158.482 694.93 158.57 695.099 158.68C695.268 158.783 695.473 158.889 695.715 158.999C695.957 159.102 696.221 159.19 696.507 159.263C696.793 159.337 697.083 159.373 697.376 159.373C697.787 159.373 698.098 159.304 698.311 159.164C698.524 159.025 698.63 158.827 698.63 158.57C698.63 158.336 698.546 158.152 698.377 158.02C698.208 157.888 697.974 157.775 697.673 157.679C697.372 157.577 697.017 157.467 696.606 157.349C696.115 157.21 695.704 157.056 695.374 156.887C695.044 156.711 694.798 156.491 694.637 156.227C694.476 155.963 694.395 155.633 694.395 155.237C694.395 154.702 694.52 154.255 694.769 153.895C695.026 153.529 695.37 153.254 695.803 153.07C696.236 152.88 696.716 152.784 697.244 152.784C697.611 152.784 697.955 152.825 698.278 152.905C698.608 152.986 698.916 153.092 699.202 153.224C699.488 153.356 699.745 153.499 699.972 153.653L699.301 154.885ZM701.394 160.649V152.839H706.641V154.17H702.912V156.183H706.014V157.415H702.912V160.649H701.394ZM711.021 160.704C710.398 160.704 709.866 160.602 709.426 160.396C708.994 160.184 708.642 159.894 708.37 159.527C708.106 159.161 707.912 158.746 707.787 158.284C707.663 157.815 707.6 157.327 707.6 156.821V152.839H709.118V156.821C709.118 157.144 709.148 157.459 709.206 157.767C709.272 158.068 709.379 158.339 709.525 158.581C709.672 158.823 709.866 159.014 710.108 159.153C710.35 159.293 710.651 159.362 711.01 159.362C711.377 159.362 711.681 159.293 711.923 159.153C712.173 159.007 712.367 158.812 712.506 158.57C712.653 158.328 712.759 158.057 712.825 157.756C712.891 157.448 712.924 157.137 712.924 156.821V152.839H714.431V156.821C714.431 157.357 714.365 157.859 714.233 158.328C714.109 158.798 713.907 159.212 713.628 159.571C713.357 159.923 713.005 160.202 712.572 160.407C712.14 160.605 711.623 160.704 711.021 160.704ZM715.96 160.649V152.839H717.478V159.318H721.46V160.649H715.96ZM731.261 152.839V160.649H729.754V157.316H726.212V160.649H724.694V152.839H726.212V155.996H729.754V152.839H731.261ZM732.89 160.649V152.839H734.408V160.649H732.89ZM736.038 160.649V152.839H739.492C739.851 152.839 740.181 152.913 740.482 153.059C740.79 153.206 741.054 153.404 741.274 153.653C741.501 153.903 741.673 154.181 741.791 154.489C741.915 154.797 741.978 155.113 741.978 155.435C741.978 155.765 741.919 156.084 741.802 156.392C741.692 156.693 741.53 156.957 741.318 157.184C741.105 157.412 740.856 157.588 740.57 157.712L742.352 160.649H740.68L739.074 158.031H737.556V160.649H736.038ZM737.556 156.7H739.459C739.649 156.7 739.818 156.645 739.965 156.535C740.111 156.418 740.229 156.264 740.317 156.073C740.405 155.883 740.449 155.67 740.449 155.435C740.449 155.186 740.397 154.97 740.295 154.786C740.192 154.596 740.06 154.445 739.899 154.335C739.745 154.225 739.576 154.17 739.393 154.17H737.556V156.7ZM748.776 159.318V160.649H743.353V152.839H748.677V154.17H744.871V156.051H748.16V157.283H744.871V159.318H748.776ZM754.613 154.885C754.561 154.834 754.466 154.764 754.327 154.676C754.195 154.588 754.03 154.504 753.832 154.423C753.641 154.343 753.432 154.273 753.205 154.214C752.977 154.148 752.746 154.115 752.512 154.115C752.101 154.115 751.789 154.192 751.577 154.346C751.371 154.5 751.269 154.717 751.269 154.995C751.269 155.208 751.335 155.377 751.467 155.501C751.599 155.626 751.797 155.732 752.061 155.82C752.325 155.908 752.655 156.004 753.051 156.106C753.564 156.231 754.008 156.385 754.382 156.568C754.763 156.744 755.053 156.979 755.251 157.272C755.456 157.558 755.559 157.94 755.559 158.416C755.559 158.834 755.482 159.194 755.328 159.494C755.174 159.788 754.961 160.026 754.69 160.209C754.418 160.393 754.11 160.528 753.766 160.616C753.421 160.697 753.054 160.737 752.666 160.737C752.277 160.737 751.888 160.697 751.5 160.616C751.111 160.536 750.737 160.422 750.378 160.275C750.018 160.121 749.688 159.938 749.388 159.725L750.059 158.416C750.125 158.482 750.242 158.57 750.411 158.68C750.579 158.783 750.785 158.889 751.027 158.999C751.269 159.102 751.533 159.19 751.819 159.263C752.105 159.337 752.394 159.373 752.688 159.373C753.098 159.373 753.41 159.304 753.623 159.164C753.835 159.025 753.942 158.827 753.942 158.57C753.942 158.336 753.857 158.152 753.689 158.02C753.52 157.888 753.285 157.775 752.985 157.679C752.684 157.577 752.328 157.467 751.918 157.349C751.426 157.21 751.016 157.056 750.686 156.887C750.356 156.711 750.11 156.491 749.949 156.227C749.787 155.963 749.707 155.633 749.707 155.237C749.707 154.702 749.831 154.255 750.081 153.895C750.337 153.529 750.682 153.254 751.115 153.07C751.547 152.88 752.028 152.784 752.556 152.784C752.922 152.784 753.267 152.825 753.59 152.905C753.92 152.986 754.228 153.092 754.514 153.224C754.8 153.356 755.056 153.499 755.284 153.653L754.613 154.885ZM756.53 160.649V159.065H757.74V160.649H756.53Z" fill="#FF8A00"/>
<path fill-rule="evenodd" clip-rule="evenodd" d="M452.923 166.627L414.1 167.59C411.718 167.649 409.739 165.765 409.679 163.383L408.717 124.56C408.658 122.178 410.541 120.198 412.924 120.139C415.306 120.08 417.285 121.964 417.344 124.346L418.049 152.755L438.817 130.93L445.021 136.93L424.3 158.704L452.709 158C455.092 157.941 457.071 159.824 457.13 162.207C457.189 164.589 455.305 166.568 452.923 166.627Z" fill="white"/>
<path fill-rule="evenodd" clip-rule="evenodd" d="M513.303 242.854L552.138 242.854C554.521 242.854 556.453 244.786 556.453 247.169L556.453 286.004C556.453 288.387 554.521 290.319 552.138 290.319C549.755 290.319 547.823 288.387 547.823 286.004V257.587L526.52 278.89L520.467 272.738L541.721 251.484H513.303C510.92 251.484 508.988 249.552 508.988 247.169C508.988 244.786 510.92 242.854 513.303 242.854Z" fill="white"/>
</svg>
