<svg width="99" height="41" viewBox="0 0 99 41" fill="none" xmlns="http://www.w3.org/2000/svg">
<g clip-path="url(#clip0_189_3297)">
<g opacity="0.7">
<mask id="mask0_189_3297" style="mask-type:luminance" maskUnits="userSpaceOnUse" x="38" y="21" width="65" height="20">
<g opacity="0.7">
<path d="M38.8442 21.5312H102.443V40.6021H38.8442V21.5312Z" fill="white"/>
</g>
</mask>
<g mask="url(#mask0_189_3297)">
<path fill-rule="evenodd" clip-rule="evenodd" d="M79.001 28.0202V37.6314C79.1739 39.1411 80.503 40.2791 82.0772 40.2646C83.7895 40.2646 85.1551 38.9467 85.1845 37.2942V28.0176H85.8504C87.5654 28.0176 88.9586 26.6714 88.9586 25.0473C88.9586 23.394 87.5636 22.0477 85.8504 22.0477H78.3013C76.5961 22.0529 75.218 23.3905 75.2233 25.0361C75.2233 25.0396 75.2233 25.0439 75.2233 25.0473C75.2233 26.6697 76.588 28.0176 78.3013 28.0176H79.001V28.0202ZM90.6737 30.9888C91.6595 31.9996 92.7684 32.6112 94.1313 32.9484C94.5137 33.0413 94.799 33.1006 95.1787 33.1626C95.4328 33.2245 95.6547 33.2864 95.9087 33.3785C96.0362 33.4697 96.1628 33.5307 96.2564 33.6546C96.3785 33.7905 96.4462 33.9643 96.4462 34.1449V34.2353C96.4462 34.4804 96.3518 34.6636 96.1601 34.8796C96.0166 35.0172 95.8223 35.0946 95.6199 35.0938C95.5887 35.0938 95.5246 35.0628 95.4925 35.0628C95.1841 35.0138 94.8845 34.9209 94.6047 34.7867C94.2659 34.6697 93.937 34.5269 93.6215 34.3591C93.313 34.237 93.0251 34.0718 92.7666 33.8688C92.0651 33.412 91.1568 33.3759 90.4196 33.7759C89.7921 34.0993 89.3241 34.6507 89.1182 35.308C89.0308 35.5849 88.9881 35.874 88.9925 36.1639C88.9925 37.0516 89.3428 37.8172 90.0078 38.3996C91.6889 39.8077 93.5617 40.5123 95.7804 40.5123C95.8767 40.5123 95.9703 40.5123 96.0665 40.4813H96.128C98.7237 40.5148 101.061 38.9707 101.967 36.6232C102.285 35.8576 102.443 35.1557 102.443 34.3282C102.443 33.1652 102.156 32.1561 101.523 31.1454C101.03 30.3264 100.318 29.6495 99.4627 29.1858C99.0134 28.9312 98.5472 28.7058 98.0677 28.5105C97.2262 28.1768 96.4142 28.0047 95.529 27.7441C95.3249 27.6959 95.1324 27.6133 94.9567 27.5015C94.7687 27.3613 94.6528 27.1488 94.6394 26.9191C94.6287 26.6361 94.7892 26.372 95.0512 26.2439C95.1814 26.1535 95.3347 26.1011 95.4943 26.0916C95.8767 26.0916 96.194 26.1836 96.5104 26.3669C97.047 26.674 97.523 26.9191 98.1265 27.1333C98.7273 27.3406 99.378 27.3725 99.9975 27.2254C100.728 26.9191 101.267 26.3978 101.489 25.6323C101.55 25.449 101.55 25.2658 101.55 25.0826C101.55 24.255 101.171 23.5514 100.503 23.092C99.7319 22.5432 98.8601 22.1389 97.9349 21.8998C97.146 21.6538 96.3215 21.5299 95.4925 21.5314C94.7401 21.5264 93.9914 21.6297 93.272 21.8387C92.2612 22.0907 91.3547 22.6344 90.6737 23.3966C89.653 24.4125 89.0932 25.7793 89.1182 27.1944C89.1209 28.6628 89.629 29.9178 90.6737 30.9888ZM74.5298 24.7144V33.3148C74.0859 37.5084 70.4705 40.6026 66.1232 40.6026C61.7759 40.6026 58.1917 37.5101 57.7166 33.3148V24.7144C57.8868 23.1978 59.2141 22.0495 60.7945 22.0503C62.4115 22.0503 63.7102 23.1849 63.9028 24.7144V32.6723C63.9714 33.8069 64.9457 34.6929 66.1232 34.692C67.3052 34.7032 68.2848 33.812 68.3436 32.6723V24.7144C68.5335 23.1849 69.867 22.0503 71.4519 22.0503C73.0368 22.0503 74.3721 23.1824 74.5298 24.7144ZM50.1666 39.2847L45.0278 32.9793V37.2959C45.0117 38.9415 43.6247 40.2671 41.9204 40.2671C40.3462 40.2817 39.0172 39.1436 38.8442 37.634V25.0516C38.8442 23.3682 40.2393 22.0529 41.9525 22.0529H42.2698C43.0935 22.114 43.7932 22.452 44.3307 23.0636L49.4695 29.3398V25.0542C49.5016 23.4009 50.8645 22.0546 52.5778 22.0546C54.1626 22.0546 55.4632 23.1892 55.6557 24.7187V37.3002C55.6557 38.9535 54.2607 40.2998 52.5475 40.2998C52.4521 40.2998 52.3576 40.2998 52.2301 40.2688C51.4038 40.2026 50.7068 39.8981 50.1666 39.2847Z" fill="white"/>
</g>
<mask id="mask1_189_3297" style="mask-type:luminance" maskUnits="userSpaceOnUse" x="1" y="1" width="108" height="20">
<g opacity="0.7">
<path d="M1.09326 1.50964H108.059V20.3946H1.09326V1.50964Z" fill="white"/>
</g>
</mask>
<g mask="url(#mask1_189_3297)">
<path fill-rule="evenodd" clip-rule="evenodd" d="M108.059 4.50897V4.29478C108.059 2.76359 106.79 1.5094 105.171 1.5094C103.586 1.5094 102.285 2.76359 102.285 4.29478L102.346 7.47929C102.6 8.67327 103.648 9.46811 104.917 9.46811C106.154 9.46811 107.199 8.67327 107.485 7.47929L108.059 4.50897ZM75.5754 17.4285V4.84703C75.5754 3.1937 76.9383 1.84746 78.6507 1.84746C80.3639 1.84746 81.7295 3.1937 81.7295 4.84703V17.0913C81.7295 18.7438 80.3639 20.0592 78.6507 20.0592C77.0782 20.0746 75.7492 18.9374 75.5754 17.4285ZM63.5524 17.0913C63.5462 18.7369 62.1592 20.066 60.454 20.0599C60.4504 20.0599 60.4477 20.0591 60.4442 20.0591C58.8753 20.0642 57.5525 18.9322 57.3689 17.4285V4.84703C57.3689 3.1937 58.7639 1.84746 60.4763 1.84746C62.1556 1.84746 63.5524 3.1937 63.5524 4.84703V9.13263L68.7233 2.76359C69.325 2.15198 70.0568 1.84488 70.9438 1.84488C72.657 1.84488 74.02 3.19112 74.02 4.84445C74.02 5.54811 73.8301 6.13133 73.3861 6.68101L69.7386 10.7834L73.3861 15.2505C73.8301 15.8019 74.02 16.3851 74.02 17.0888C74.0315 18.7343 72.6579 20.0771 70.9536 20.0883C70.95 20.0883 70.9473 20.0883 70.9438 20.0883C70.0542 20.0883 69.325 19.7812 68.7233 19.1679L63.5524 12.8006V17.0913ZM95.1171 19.0819C95.7786 19.7571 96.6058 20.0926 97.5275 20.0926C99.2407 20.0926 100.636 18.7464 100.636 17.0931V4.50897C100.466 2.99327 99.14 1.84402 97.5595 1.84482C95.8463 1.84482 94.4513 3.19112 94.4513 4.84445V9.13004L89.3107 2.85564C88.652 2.1494 87.8631 1.84482 86.9004 1.84482C85.1952 1.83456 83.8037 3.15929 83.7921 4.80488C83.7921 4.80832 83.7921 4.81176 83.7921 4.81607V17.4285C83.9758 18.9331 85.3004 20.0651 86.8701 20.0591C88.5753 20.0703 89.9667 18.7455 89.9783 17.0999C89.9783 17.0974 89.9783 17.0939 89.9783 17.0913V12.7739L95.1171 19.0819ZM51.8798 1.8448C50.1986 1.8448 48.8036 3.19112 48.8036 4.84445V9.13004L43.6327 2.85564C43.1246 2.25435 42.3758 1.88703 41.5727 1.8448H41.2545C39.5493 1.83456 38.1578 3.15929 38.1471 4.80488C38.1462 4.80832 38.1462 4.81176 38.1462 4.81607V17.4285C38.3299 18.9322 39.6536 20.0642 41.2224 20.0591C42.9276 20.0703 44.3191 18.7455 44.3307 17.0999C44.3307 17.0974 44.3307 17.0939 44.3307 17.0913V12.7739L49.4695 19.0793C50.13 19.7546 50.9509 20.09 51.8798 20.09C53.585 20.084 54.9622 18.7455 54.9559 17.0999C54.9559 17.0974 54.9559 17.0939 54.9559 17.0913V4.50897C54.7964 2.98811 53.4638 1.8337 51.8798 1.8448ZM19.6198 4.50897C19.7793 2.98811 21.1119 1.8337 22.6959 1.84479C24.3147 1.84479 25.6143 2.97951 25.8042 4.50897V12.4384C25.8683 13.5997 26.8194 14.4892 28.0246 14.4892C29.2297 14.4892 30.1808 13.6014 30.245 12.4384V4.50897C30.4197 2.98295 31.7622 1.83284 33.3533 1.84479C34.9399 1.84479 36.2717 2.97951 36.4312 4.50897V13.1094C35.9909 17.2651 32.3523 20.4178 28.0246 20.3947C23.696 20.4178 20.0583 17.2651 19.618 13.1094V4.50897H19.6198ZM11.403 12.8049C10.9002 13.5094 10.1212 13.986 9.24584 14.1227H7.24736V7.78639H9.18256C10.1337 7.96961 10.8307 8.42897 11.403 9.13263C11.7827 9.71327 11.9423 10.2939 11.9423 10.9692C11.9423 11.6419 11.7524 12.2225 11.403 12.8049ZM16.5418 5.82682C14.8607 3.52918 12.544 2.18295 9.65766 1.84488H4.93066C2.8065 1.84488 1.09326 3.49822 1.09326 5.55069V16.3559C1.09326 18.4066 2.8065 20.0591 4.93066 20.0591H9.65766C12.544 19.7528 14.8927 18.4066 16.5418 16.0806C17.5892 14.4866 18.0973 12.8651 18.0973 10.9692C18.1196 9.14381 17.5785 7.3537 16.5418 5.82682Z" fill="white"/>
</g>
<path fill-rule="evenodd" clip-rule="evenodd" d="M11.403 33.0079C10.8655 33.7425 10.1337 34.1734 9.24674 34.3257H7.24737V27.9894H9.18256C10.0802 28.1519 10.8762 28.6457 11.403 29.3666C11.7827 29.918 11.9405 30.4986 11.9405 31.1713C11.9378 31.8199 11.7524 32.4547 11.403 33.0079ZM16.5418 26.0289C14.8607 23.7339 12.544 22.3876 9.65766 22.0479H4.93066C2.81452 22.0573 1.10218 23.7115 1.09326 25.7537V36.5588C1.09326 38.6113 2.8065 40.2646 4.93066 40.2646H9.65766C12.544 39.9575 14.8928 38.6113 16.5418 36.3137C17.5892 34.6922 18.0964 33.0698 18.0964 31.1713C18.0964 29.2737 17.5892 27.6229 16.5418 26.0289Z" fill="white"/>
<path fill-rule="evenodd" clip-rule="evenodd" d="M28.5322 34.63C26.5569 34.6334 24.9525 33.0911 24.9489 31.1848V31.1719C24.9489 29.2425 26.5659 27.6821 28.5322 27.6821C30.5307 27.6821 32.1504 29.2425 32.1504 31.1719C32.1504 33.1005 30.5307 34.63 28.5322 34.63ZM28.5322 21.7122C23.1394 21.7122 18.7627 25.9694 18.7627 31.1719C18.7654 36.378 23.1376 40.5973 28.5322 40.5999C33.934 40.6111 38.3232 36.3934 38.3339 31.1805V31.1719C38.3294 25.9496 33.9438 21.7173 28.5322 21.7122Z" fill="white"/>
</g>
</g>
<defs>
<clipPath id="clip0_189_3297">
<rect width="108.387" height="40" fill="white" transform="translate(0.183105 0.649414)"/>
</clipPath>
</defs>
</svg>
