<svg width="446" height="41" viewBox="0 0 446 41" fill="none" xmlns="http://www.w3.org/2000/svg">
<g clip-path="url(#clip0_189_660)">
<path d="M26.5373 0.538742C31.119 0.538612 35.7007 0.552148 40.2822 0.533423C42.9355 0.522581 45.398 1.16365 47.5045 2.78103C48.437 3.49713 49.084 3.41543 49.9665 2.75503C52.0962 1.1617 54.5465 0.528598 57.2 0.533661C66.426 0.551289 75.6523 0.530981 84.8783 0.543977C91.7828 0.553699 97.0017 5.75145 97.0255 12.6801C97.0552 21.2614 97.0003 29.8433 97.0638 38.424C97.0752 39.9725 96.6205 40.4748 95.0415 40.4663C89.4488 40.4365 89.4482 40.4903 89.448 34.887C89.4478 27.6838 89.454 20.4803 89.4447 13.2769C89.44 9.70275 87.8533 8.11413 84.2893 8.11135C75.377 8.10443 66.4647 8.10415 57.5525 8.11205C54.1267 8.11513 52.5853 9.63385 52.5825 13.0039C52.5752 21.3974 52.5255 29.7915 52.6227 38.184C52.6442 40.05 52.0348 40.6443 50.258 40.4545C49.141 40.3353 47.9933 40.3493 46.873 40.4528C45.3742 40.5913 44.93 40.0193 44.9408 38.532C45.0018 30.0763 45.009 21.6196 44.9225 13.1644C44.9102 11.9878 44.5892 10.5342 43.8472 9.72203C43.0642 8.86498 41.6112 8.19473 40.4412 8.17943C31.154 8.05808 21.8644 8.09888 12.5756 8.1211C9.94318 8.1274 8.21683 9.57043 8.13167 12.1821C7.9583 17.5 7.99132 22.8248 7.9603 28.147C7.93982 31.6545 7.92585 35.1628 7.9717 38.6698C7.98817 39.9315 7.56302 40.4243 6.23285 40.459C0.50098 40.609 0.498601 40.6463 0.502536 35.0175C0.507878 27.3755 0.478168 19.7335 0.540215 12.0922C0.592258 5.68333 5.77417 0.593667 12.2274 0.54583C16.9972 0.510471 21.7673 0.538873 26.5373 0.538742Z" fill="white"/>
<path d="M307.63 0.537335C314.218 0.53662 320.808 0.523462 327.395 0.540168C334.51 0.558209 339.64 5.64805 339.658 12.7C339.673 17.8974 339.675 23.095 339.658 28.2925C339.638 35.1135 334.558 40.366 327.69 40.4067C314.263 40.4862 300.835 40.4943 287.408 40.403C280.553 40.3565 275.553 35.0913 275.535 28.211C275.52 23.0135 275.515 17.816 275.525 12.6185C275.54 5.67397 280.69 0.555246 287.678 0.540969C294.328 0.527379 300.98 0.538046 307.63 0.537335ZM307.78 8.11018C301.255 8.11018 294.733 8.1042 288.208 8.11255C284.643 8.1171 283.128 9.59888 283.123 13.0766C283.115 18.0848 283.11 23.0931 283.125 28.1012C283.135 31.0857 284.77 32.8342 287.723 32.8412C300.958 32.872 314.193 32.871 327.43 32.843C330.385 32.8368 332.043 31.0942 332.053 28.1205C332.07 23.1123 332.065 18.104 332.055 13.0958C332.05 9.62543 330.513 8.11583 326.975 8.11125C320.575 8.103 314.178 8.10892 307.78 8.11018Z" fill="white"/>
<path d="M388.548 0.53733C395.135 0.537056 401.725 0.526052 408.313 0.540042C415.375 0.555043 420.57 5.67885 420.62 12.7139C420.655 17.8482 420.648 22.9832 420.623 28.1178C420.585 35.1398 415.42 40.389 408.383 40.4165C395.145 40.468 381.905 40.4713 368.668 40.4165C360.563 40.3828 356.198 33.879 356.428 28.1903C356.635 23.0014 356.448 17.7973 356.478 12.6003C356.515 5.57187 361.563 0.566672 368.595 0.538135C368.723 0.537623 368.848 0.537636 368.973 0.537636C375.498 0.537614 382.023 0.537609 388.548 0.53733ZM388.4 8.10843C381.935 8.10843 375.473 8.10232 369.01 8.11095C365.688 8.1154 363.955 9.6909 363.905 12.984C363.828 17.9929 363.823 23.0049 363.908 28.0138C363.96 31.1938 365.723 32.8452 368.9 32.8495C381.95 32.8678 395.003 32.8668 408.055 32.8515C411.313 32.8478 413.02 31.114 413.035 27.8408C413.055 22.9559 413.05 18.0709 413.038 13.186C413.028 9.73687 411.41 8.11727 407.978 8.11222C401.453 8.10262 394.925 8.10945 388.4 8.10843Z" fill="white"/>
<path d="M145.807 0.537932C152.397 0.537708 158.987 0.529128 165.577 0.540041C172.599 0.551675 177.673 5.3233 177.781 12.3174C177.918 21.0843 177.804 29.8548 177.853 38.6235C177.861 40.0185 177.364 40.4468 175.984 40.461C170.387 40.5193 170.387 40.5595 170.387 35.074C170.387 27.871 170.396 20.6679 170.383 13.4648C170.375 9.67662 168.793 8.1126 165.002 8.11137C152.136 8.10727 139.271 8.10665 126.405 8.11185C122.865 8.11327 121.223 9.73242 121.205 13.2639C121.181 17.8988 121.17 22.5339 121.191 27.1688C121.209 31.2878 122.791 32.8558 126.87 32.858C135.029 32.8625 143.189 32.9178 151.346 32.8155C153.224 32.792 153.787 33.3993 153.6 35.167C153.469 36.4063 153.516 37.6728 153.585 38.9215C153.65 40.0873 153.149 40.4488 152.035 40.4453C143.123 40.4185 134.209 40.5705 125.301 40.379C118.719 40.2378 113.929 35.2213 113.79 28.6308C113.674 23.1839 113.675 17.7309 113.788 12.2841C113.931 5.40637 118.985 0.555142 125.85 0.541112C132.502 0.527509 139.155 0.538162 145.807 0.537932Z" fill="white"/>
<path d="M226.66 8.10945C220.257 8.10968 213.855 8.10372 207.452 8.1119C203.644 8.11678 202.146 9.63947 202.143 13.5009C202.138 21.8328 202.112 30.1647 202.17 38.4963C202.18 39.9405 201.823 40.5868 200.275 40.4565C198.904 40.341 197.514 40.3958 196.135 40.4427C195.061 40.479 194.526 40.1612 194.53 38.9613C194.565 29.9405 194.409 20.9164 194.606 11.8998C194.747 5.45195 200.087 0.556648 206.553 0.54523C219.985 0.521509 233.418 0.523838 246.851 0.543341C253.433 0.552897 258.633 5.5998 258.685 12.127C258.755 20.9594 258.683 29.793 258.735 38.6255C258.743 40.0203 258.293 40.4517 256.898 40.4625C251.295 40.5057 251.295 40.5483 251.295 35.0527C251.295 28.099 251.298 21.1454 251.295 14.1918C251.29 9.47032 249.947 8.10993 245.302 8.1094C239.088 8.10868 232.874 8.1092 226.66 8.10945Z" fill="white"/>
<path d="M444.785 20.4136C444.788 26.4202 444.74 32.4275 444.818 38.433C444.838 39.9825 444.378 40.6058 442.798 40.4538C441.68 40.346 440.533 40.338 439.415 40.4545C437.7 40.6333 437.305 39.8722 437.313 38.2855C437.363 26.3977 437.365 14.5095 437.308 2.62171C437.298 0.971427 437.808 0.481167 439.458 0.500548C444.785 0.563172 444.785 0.501052 444.785 5.77255C444.785 10.6529 444.785 15.5333 444.785 20.4136Z" fill="white"/>
</g>
<defs>
<clipPath id="clip0_189_660">
<rect width="445" height="40" fill="white" transform="translate(0.5 0.5)"/>
</clipPath>
</defs>
</svg>
