<svg width="103" height="40" viewBox="0 0 103 40" fill="none" xmlns="http://www.w3.org/2000/svg">
<g clip-path="url(#clip0_189_191)">
<path d="M64.1907 31.5611C59.7603 33.735 54.9184 34.8615 50.0373 34.8615C45.1758 34.8615 40.3141 33.7153 35.9035 31.5414C31.4733 29.3872 27.4939 26.2054 24.1026 22.3517L22.9067 25.4742C25.6511 29.5848 29.3954 33.1026 33.7472 35.6323C38.6479 38.4781 44.3525 40.0196 50.0373 39.9999C55.7417 39.9999 61.4267 38.4583 66.3274 35.6124C70.6988 33.0829 74.4431 29.5454 77.1875 25.4149L76.0112 22.3912C72.6199 26.2251 68.6406 29.407 64.1907 31.5611ZM78.8341 14.071C78.5597 13.7154 78.6381 13.0237 79.0106 12.0553C79.0106 12.0553 80.9512 7.27269 81.2845 6.4229H84.2249L84.9699 4.44662H82.049L82.9311 2.05532L78.4813 2.82607L77.8736 4.44662H75.9133L75.2075 6.4229H77.1482L74.8155 12.2727C74.2078 13.7549 74.1882 14.8418 74.7174 15.5928C75.2468 16.324 76.2857 16.6797 77.9128 16.6797C78.8146 16.6797 80.0494 16.4821 81.01 16.245L81.951 13.9526C81.4217 14.1699 80.5395 14.407 79.8339 14.4268C79.3046 14.4268 79.0106 14.3083 78.8341 14.071ZM99.9074 5.13832C99.1821 5.13832 98.6528 4.54543 98.6528 3.83397C98.6528 3.08299 99.1821 2.50986 99.8878 2.50986C100.633 2.50986 101.162 3.08298 101.162 3.81421C101.182 4.54543 100.652 5.13832 99.9074 5.13832ZM99.9466 2.07509H99.9074C98.9272 2.07509 98.1235 2.84583 98.1235 3.81421C98.1235 4.78259 98.9077 5.57309 99.9074 5.57309C100.907 5.57309 101.691 4.80234 101.691 3.81421C101.711 2.84583 100.927 2.07509 99.9466 2.07509ZM27.925 9.42683C26.8666 14.7034 23.6712 14.9801 23.0635 14.9801C22.0638 14.9801 21.3188 14.7233 20.8877 14.2292C20.4172 13.6758 20.2995 12.826 20.5348 11.6995C20.9464 9.66399 22.7107 6.60076 25.8668 6.60076C26.6312 6.60076 27.1998 6.81815 27.5526 7.25294C27.9839 7.74701 28.1212 8.51775 27.925 9.42683ZM32.2181 9.96043C33.0023 6.50195 29.9638 4.54543 25.9452 4.54543C21.711 4.54543 17.0455 7.09483 16.1828 11.4229C15.2616 16.0276 19.339 17.0157 21.9461 17.0553C27.8271 17.1145 31.3948 13.577 32.2181 9.96043ZM99.8682 3.73516H99.731V3.35967C99.7701 3.35967 99.829 3.3399 99.8878 3.3399C100.045 3.3399 100.162 3.41895 100.162 3.53753C100.162 3.63634 100.045 3.73516 99.8682 3.73516ZM100.358 3.85374C100.574 3.77469 100.731 3.63634 100.731 3.47825C100.731 3.32015 100.652 3.20157 100.554 3.12251C100.437 3.04346 100.28 2.98418 99.9074 2.98418C99.5741 2.98418 99.3192 3.0237 99.2017 3.04346V4.66401H99.6918V4.07113H99.8486C100.005 4.07113 100.084 4.15018 100.123 4.30828C100.143 4.44662 100.182 4.58495 100.241 4.64425H100.789C100.77 4.58497 100.731 4.48615 100.672 4.26876C100.633 4.0316 100.535 3.89327 100.358 3.85374ZM94.1049 9.2292H88.6552C89.067 7.92486 90.2823 6.50195 92.4779 6.50195C93.2424 6.50195 93.7717 6.69957 94.0657 7.07506C94.399 7.52961 94.4185 8.28059 94.1049 9.2292ZM93.0463 4.34781C88.4984 4.34781 84.617 6.8972 83.6173 10.5731C83.1077 12.4308 83.382 14.0513 84.3817 15.2568C85.4795 16.6007 87.4202 17.332 89.8314 17.332C91.2232 17.332 92.909 17.075 94.4185 16.6204L95.6732 14.0117C94.4969 14.585 92.4779 14.9011 91.1252 14.9011C89.949 14.9011 88.9885 14.5058 88.4003 13.7746C87.8711 13.1225 87.7534 12.2331 88.0083 11.2845H97.6334L97.6726 11.1659C98.4176 9.05132 98.3391 7.23316 97.3981 6.00786C96.5552 4.92092 95.085 4.34781 93.0463 4.34781ZM5.93051 9.46636C6.61663 5.5731 10.3412 2.62844 14.7519 2.62844C16.1045 2.62844 17.3199 2.88537 18.4176 3.3399L19.7114 0.810275C18.6333 0.316206 17.0846 0 15.6536 0C8.61613 0 2.02952 4.05137 1.10818 9.42683C0.284855 14.1897 4.36228 16.8379 9.36105 16.8379C10.7137 16.8379 12.2035 16.6204 13.4385 16.324L14.7715 13.2806C14.007 13.6561 12.1643 14.2094 10.6941 14.2094C6.73424 14.249 5.51886 11.8379 5.93051 9.46636ZM45.3718 10.415C46.4696 8.02367 48.7043 6.91697 50.1157 6.87743C51.1743 6.83792 52.0565 6.99601 52.7621 7.66794C51.0959 14.1699 47.7438 14.6837 46.7439 14.6837C44.274 14.6837 44.5093 12.2727 45.3718 10.415ZM41.3728 15.6916C42.1373 16.5414 43.3134 16.8774 44.6857 16.9367C46.7243 17.0354 48.5867 16.6204 50.3706 15.4348C49.3317 18.5572 45.7442 19.2094 43.3526 19.2094C42.1765 19.2094 40.9023 19.1501 39.883 18.656L38.8243 21.324C39.883 21.6007 41.4512 21.7983 42.7057 21.7983C48.5867 21.7983 52.37 19.6837 53.9383 15.5138L57.9569 4.84188C57.9569 4.84188 56.7612 5.17785 55.9575 5.17785C53.801 5.17785 53.7031 4.58497 50.2137 4.58497C45.1758 4.58497 41.0395 8.32012 40.4514 12.4308C40.275 13.6956 40.6278 14.8617 41.3728 15.6916ZM61.4071 12.8853C61.6031 11.8181 62.4264 11.2252 64.6416 11.0078C65.759 10.8893 66.7979 10.8695 68.3465 10.9486L67.3271 13.6561C66.4059 14.1303 65.0925 14.407 63.8966 14.4663C61.8187 14.5651 61.2503 13.7549 61.4071 12.8853ZM61.7599 16.996C64.9944 16.996 65.8569 16.4821 67.8369 16.4229C70.0519 16.3636 71.1106 16.7588 71.1106 16.7588C70.9733 16.1263 70.8165 15.4348 71.5026 13.6166C71.9926 12.332 72.5808 10.7905 73.1296 9.32803C74.4235 5.92884 71.6594 4.42687 67.1507 4.42687C64.3475 4.42687 62.8969 4.68378 61.3482 4.9407L60.2897 7.72726C61.2895 7.41105 63.4653 6.8577 66.6606 6.87745C69.6404 6.89721 69.3659 8.14226 69.1894 8.73515C68.1701 8.6561 66.2882 8.57705 64.1711 8.73515C62.7988 8.85372 61.4854 9.03159 60.1525 9.56519C58.1529 10.3755 57.2512 11.7786 57.1336 13.3992C56.9768 15.2568 58.251 16.996 61.7599 16.996ZM36.0995 16.7588L42.4118 0.35573H38.2166L31.9045 16.7588H36.0995Z" fill="white"/>
</g>
<defs>
<clipPath id="clip0_189_191">
<rect width="102.069" height="40" fill="white"/>
</clipPath>
</defs>
</svg>
