<svg width="297" height="40" viewBox="0 0 297 40" fill="none" xmlns="http://www.w3.org/2000/svg">
<path fill-rule="evenodd" clip-rule="evenodd" d="M6.46333 38.595V0.00166813H0V38.595H6.46333ZM32.3867 38.595V15.8483C32.3867 14.0472 32.35 12.4833 32.2767 11.1567C32.2033 9.83 32.0922 8.58278 31.9433 7.415C32.8327 8.82372 33.9282 10.0912 35.1933 11.175C35.4855 11.4428 35.7045 11.6378 35.85 11.76L65.4983 38.5933H69.1117V0.00166813H63.1967V21.1783C63.1967 23.5638 63.2455 25.4322 63.3433 26.7833C63.4412 28.1345 63.5872 29.4305 63.7817 30.6717C63.0038 29.6717 62.2433 28.7588 61.5 27.9333C60.8397 27.189 60.1385 26.4818 59.4 25.815L30.525 0.00166813H26.4717V38.595H32.3867ZM125.273 10.9183L131.698 9.64V8.69C131.698 5.40445 131.053 3.13445 129.763 1.88C128.473 0.625557 126.1 -0.00110964 122.643 1.47493e-06H97.67C94.14 1.47493e-06 91.7483 0.645002 90.495 1.935C89.2417 3.225 88.615 5.62278 88.615 9.12833V29.4617C88.615 32.9672 89.2417 35.365 90.495 36.655C91.7483 37.945 94.14 38.59 97.67 38.59H122.643C126.148 38.59 128.533 37.9512 129.8 36.6733C131.067 35.3955 131.699 32.9917 131.698 29.4617V16.98H109.645V21.9083H125.273V33.2267H95.04V5.26H125.273V10.9267V10.9183ZM185.882 38.595V33.2283H156.673V0.00166813H150.21V38.595H185.877H185.882ZM204.942 5.26167H236.89V33.2267H204.942V5.26167ZM198.515 29.4667C198.515 32.9722 199.142 35.37 200.395 36.66C201.648 37.95 204.04 38.595 207.57 38.595H234.26C237.742 38.595 240.108 37.9622 241.362 36.6967C242.615 35.4312 243.242 33.0212 243.242 29.4667V9.13333C243.242 5.60445 242.615 3.20055 241.362 1.92167C240.108 0.64278 237.742 0.00389037 234.26 0.00500148H207.57C204.04 0.00500148 201.648 0.650002 200.395 1.94C199.142 3.23 198.515 5.62778 198.515 9.13333V29.4667ZM295.49 5.26V0.00166813H253.722V5.26H271.357V38.5933H277.783V5.26H295.49Z" fill="white"/>
</svg>
