<svg width="86" height="41" viewBox="0 0 86 41" fill="none" xmlns="http://www.w3.org/2000/svg">
<g clip-path="url(#clip0_189_3618)">
<g opacity="0.7">
<path fill-rule="evenodd" clip-rule="evenodd" d="M3.74245 26.4492C3.60527 26.9934 3.41501 27.0162 3.15645 27.0162H2.22832L2.01548 28.6333C2.15267 28.664 2.38075 28.6714 2.90578 28.6714C3.3467 28.6714 3.68148 28.6561 3.81867 28.6407L3.82601 28.6561C3.7656 28.9319 3.56744 29.0774 3.42292 29.1923C3.30888 29.223 3.07289 29.2384 2.43382 29.2384C1.6886 29.2384 1.29285 29.2003 1.11784 29.1622L1.01904 29.0086L1.50569 25.4763C1.55876 25.1158 1.58981 24.848 1.61973 24.5108C1.84837 24.4721 2.12952 24.4113 2.47221 24.4033H4.09982C4.06199 24.7326 3.91746 24.8252 3.81867 24.9321C3.69672 24.9702 3.47598 24.9702 3.14177 24.9702H2.51003L2.30453 26.4492H3.74245Z" fill="white"/>
<path fill-rule="evenodd" clip-rule="evenodd" d="M4.48897 25.844C4.57252 25.8059 5.19635 25.7138 5.34088 25.7138C5.41709 25.7138 5.47016 25.8213 5.51589 25.9208C5.63783 26.1585 5.76712 26.4723 5.94213 26.8482C6.34522 26.4416 6.77089 25.8668 6.90808 25.6063C7.02212 25.6063 7.42578 25.8361 7.42578 26.0277C7.37214 26.2347 6.96905 26.7481 6.27691 27.4913C6.59645 28.1276 6.90808 28.8174 7.11358 29.162V29.1767C6.9922 29.2154 6.53548 29.2387 6.32264 29.2387C6.15497 29.2387 6.1019 29.1699 6.04093 29.0698C5.91898 28.8702 5.80494 28.6178 5.56952 28.1197C4.9152 28.8248 4.6414 29.1927 4.54994 29.3917C4.40541 29.3917 4.0249 29.1466 4.0249 28.955C4.0249 28.7867 4.27613 28.4569 5.26523 27.4532C5.08231 27.07 4.60301 26.1425 4.48897 25.8594V25.844Z" fill="white"/>
<path fill-rule="evenodd" clip-rule="evenodd" d="M8.61715 28.2268C8.59401 28.3496 8.60191 28.3496 8.57933 28.4263C8.68603 28.5332 8.85314 28.61 9.04339 28.61C9.74344 28.61 10.1612 27.8435 10.1612 26.9854C10.1612 26.7023 10.0703 26.4799 9.86482 26.4799C9.37027 26.4799 8.77692 27.2845 8.61715 28.2268ZM8.85314 26.6261C9.2105 26.1046 9.71239 25.714 10.2374 25.714C10.8765 25.714 11.0972 26.3196 11.0972 26.8706C11.0972 28.0664 10.4277 29.2844 9.15743 29.2844C8.82265 29.2844 8.60191 29.1923 8.45005 29.0621C8.38907 29.4607 8.29762 30.0657 8.25979 30.3494C8.22931 30.5638 8.18358 30.6787 8.0622 30.7094C7.8488 30.7708 7.5445 30.8089 7.30908 30.8168C7.50668 29.5909 7.70427 28.2882 7.89453 26.9553C7.94025 26.6636 8.02381 26.0353 8.04695 25.8442C8.20616 25.7288 8.80741 25.561 8.99766 25.6065C8.98976 25.706 8.86048 26.4799 8.8379 26.6261H8.85314Z" fill="white"/>
<path fill-rule="evenodd" clip-rule="evenodd" d="M12.6631 26.848C13.0662 25.9285 13.5686 25.7141 13.8498 25.7141C13.9717 25.7141 14.0626 25.7596 14.1315 25.8364C14.1315 26.0814 13.9565 26.5562 13.7815 26.7791C13.69 26.7411 13.5986 26.7098 13.4924 26.7098C13.2181 26.7098 12.7088 27.1232 12.3966 28.9166C12.374 29.0315 12.3283 29.0855 12.2905 29.1156C12.2295 29.1771 11.6514 29.2464 11.4233 29.2532C11.5374 28.6562 11.735 27.2693 11.8112 26.5949C11.8417 26.3578 11.8417 26.0661 11.8185 25.9126C11.9935 25.8284 12.435 25.7141 12.6021 25.7141C12.7009 25.7141 12.7845 25.9666 12.6479 26.848H12.6631Z" fill="white"/>
<path fill-rule="evenodd" clip-rule="evenodd" d="M14.9561 27.2232C15.3439 27.1772 15.9604 26.9475 15.9604 26.5108C15.9604 26.3879 15.922 26.2191 15.7092 26.2191C15.4275 26.2191 15.0622 26.5875 14.9561 27.2232ZM16.7513 26.4414C16.7513 27.3461 15.6104 27.7214 14.9182 27.8055V27.9278C14.9182 28.3878 15.0853 28.5868 15.4427 28.5868C15.8464 28.5868 16.2116 28.3343 16.4392 28.1114C16.5001 28.1501 16.5611 28.2803 16.5611 28.4032C16.5611 28.5254 16.5233 28.6943 16.4471 28.7864C16.1885 29.0849 15.747 29.2845 15.1542 29.2845C14.3554 29.2845 14.0127 28.7403 14.0127 27.9972C14.0127 26.8627 14.7048 25.7141 15.8994 25.7141C16.5763 25.7141 16.7513 26.1429 16.7513 26.4414Z" fill="white"/>
<path fill-rule="evenodd" clip-rule="evenodd" d="M19.3076 25.9511C19.3228 26.1581 19.1021 26.4725 18.9118 26.4032C18.7984 26.3651 18.6837 26.3264 18.5392 26.3264C18.3111 26.3264 18.1209 26.4265 18.1209 26.6488C18.1209 26.8245 18.288 26.9326 18.7984 27.3306C19.0643 27.5376 19.224 27.744 19.224 28.1272C19.224 28.6026 18.7447 29.2844 17.8245 29.2844C17.4897 29.2844 17.1397 29.1462 17.033 28.9779C16.9494 28.8477 16.9421 28.4644 17.0787 28.357C17.2916 28.4878 17.6721 28.6254 17.908 28.6254C18.1666 28.6254 18.3416 28.5025 18.3416 28.3268C18.3416 28.204 18.2276 28.0732 17.7409 27.7059C17.4214 27.4608 17.269 27.2157 17.269 26.9013C17.269 26.2729 17.8093 25.714 18.5776 25.714C18.9959 25.714 19.2161 25.8596 19.3076 25.9511Z" fill="white"/>
<path fill-rule="evenodd" clip-rule="evenodd" d="M21.8691 25.9511C21.8843 26.1581 21.6636 26.4725 21.4734 26.4032C21.3593 26.3651 21.2453 26.3264 21.1007 26.3264C20.8727 26.3264 20.6824 26.4265 20.6824 26.6488C20.6824 26.8245 20.8495 26.9326 21.3593 27.3306C21.6258 27.5376 21.7855 27.744 21.7855 28.1272C21.7855 28.6026 21.3062 29.2844 20.386 29.2844C20.0512 29.2844 19.7012 29.1462 19.5945 28.9779C19.511 28.8477 19.5036 28.4644 19.6402 28.357C19.8531 28.4878 20.2336 28.6254 20.4696 28.6254C20.7281 28.6254 20.9032 28.5025 20.9032 28.3268C20.9032 28.204 20.7891 28.0732 20.3019 27.7059C19.9829 27.4608 19.8305 27.2157 19.8305 26.9013C19.8305 26.2729 20.3708 25.714 21.1391 25.714C21.5575 25.714 21.7776 25.8596 21.8691 25.9511Z" fill="white"/>
<path fill-rule="evenodd" clip-rule="evenodd" d="M27.0878 26.6026C26.928 27.1547 26.753 27.1695 26.4487 27.1695H25.5127C25.4291 27.9514 25.3377 28.6098 25.2767 29.1927C25.1327 29.2308 24.737 29.2387 24.4705 29.2387C24.3491 29.2387 24.2955 29.2154 24.3113 29.1006L24.8431 25.3311C24.8888 25.0246 24.9041 24.825 24.9351 24.5185C25.0791 24.4645 25.4901 24.419 25.8554 24.4037H27.5744C27.5214 24.779 27.3994 24.8557 27.2775 24.9399C27.1634 24.9706 26.989 24.9706 26.6463 24.9706H25.8175L25.612 26.6026H27.0878Z" fill="white"/>
<path fill-rule="evenodd" clip-rule="evenodd" d="M28.521 26.848C28.9241 25.9285 29.4266 25.7141 29.7077 25.7141C29.8296 25.7141 29.9205 25.7596 29.9894 25.8364C29.9894 26.0814 29.8144 26.5562 29.6394 26.7791C29.5479 26.7411 29.457 26.7098 29.3503 26.7098C29.0765 26.7098 28.5667 27.1232 28.2545 28.9166C28.232 29.0315 28.1862 29.0855 28.1484 29.1156C28.0874 29.1771 27.5093 29.2464 27.2812 29.2532C27.3953 28.6562 27.5929 27.2693 27.6691 26.5949C27.6996 26.3578 27.6996 26.0661 27.6764 25.9126C27.8514 25.8284 28.2929 25.7141 28.46 25.7141C28.5588 25.7141 28.643 25.9666 28.5058 26.848H28.521Z" fill="white"/>
<path fill-rule="evenodd" clip-rule="evenodd" d="M30.814 27.2232C31.2018 27.1772 31.8183 26.9475 31.8183 26.5108C31.8183 26.3879 31.7799 26.2191 31.5671 26.2191C31.2854 26.2191 30.9201 26.5875 30.814 27.2232ZM32.6093 26.4414C32.6093 27.3461 31.4683 27.7214 30.7762 27.8055V27.9278C30.7762 28.3878 30.9433 28.5868 31.3006 28.5868C31.7043 28.5868 32.069 28.3343 32.2971 28.1114C32.358 28.1501 32.419 28.2803 32.419 28.4032C32.419 28.5254 32.3812 28.6943 32.305 28.7864C32.0464 29.0849 31.6049 29.2845 31.0121 29.2845C30.2133 29.2845 29.8706 28.7403 29.8706 27.9972C29.8706 26.8627 30.5633 25.7141 31.7573 25.7141C32.4342 25.7141 32.6093 26.1429 32.6093 26.4414Z" fill="white"/>
<path fill-rule="evenodd" clip-rule="evenodd" d="M34.4419 24.664C34.465 25.0626 34.1681 25.277 33.94 25.277C33.7576 25.277 33.5138 25.2002 33.4912 24.8016C33.468 24.3427 33.8181 24.1892 33.9852 24.1892C34.1528 24.1892 34.4187 24.2273 34.4419 24.664ZM34.2974 25.944C34.1754 26.8788 33.9705 28.38 33.9095 28.84C33.8869 28.993 33.8333 29.0777 33.7949 29.1078C33.7345 29.1698 33.3083 29.2466 32.9204 29.2534C32.9887 28.7325 33.1411 27.9279 33.2247 27.2314C33.3314 26.4034 33.3771 26.0048 33.3692 25.8979C33.4607 25.8519 34.115 25.7143 34.2065 25.7143C34.3053 25.7143 34.3205 25.7598 34.2974 25.944Z" fill="white"/>
<path fill-rule="evenodd" clip-rule="evenodd" d="M36.2648 26.2194C35.9526 26.2194 35.6715 26.7027 35.6715 27.2384C35.6715 27.5528 35.7855 27.7518 35.9984 27.7518C36.3179 27.7518 36.5917 27.3384 36.5917 26.7175C36.5917 26.403 36.4929 26.2194 36.2648 26.2194ZM36.6679 29.8973C36.6679 29.7437 36.6149 29.6294 36.2953 29.522C36.0746 29.4452 35.6483 29.3537 35.4812 29.315C35.3446 29.3997 35.1007 29.6061 35.1007 29.721C35.1007 29.974 35.4428 30.2731 36.0215 30.2731C36.5234 30.2731 36.6679 30.0508 36.6679 29.8973ZM36.9265 25.8594C37.0484 25.9208 37.132 25.9362 37.193 25.9442C37.2534 25.9442 37.832 25.8901 37.9461 25.8668C37.893 26.0738 37.8699 26.3883 37.8394 26.5492C37.7558 26.5492 37.4668 26.5031 37.3601 26.4952C37.3985 26.6026 37.421 26.8551 37.421 26.9398C37.421 27.683 36.8655 28.2807 35.9831 28.2807C35.8465 28.2807 35.7471 28.2579 35.6715 28.2346C35.6331 28.2727 35.6179 28.296 35.6179 28.3415C35.6179 28.4342 35.6641 28.503 35.9374 28.5718C36.1124 28.6178 36.6832 28.7634 36.896 28.8476C37.2534 28.9931 37.5125 29.2462 37.5125 29.6749C37.5125 30.3647 36.7972 30.9009 35.8996 30.9009C34.6976 30.9009 34.2793 30.2652 34.2793 29.8057C34.2793 29.5453 34.7208 29.2462 35.0019 29.108C34.8269 28.9784 34.7434 28.7708 34.7434 28.6332C34.7434 28.4876 35.0245 28.2266 35.2379 28.089C35.055 27.9821 34.7964 27.7825 34.7964 27.2236C34.7964 26.2882 35.4355 25.7139 36.288 25.7139C36.5539 25.7139 36.7441 25.7673 36.9265 25.8594Z" fill="white"/>
<path fill-rule="evenodd" clip-rule="evenodd" d="M41.228 26.9629C41.1597 27.3536 41.1365 27.5679 41.0377 28.2116C40.9999 28.4948 40.9615 28.9088 40.9615 29.1465C40.7103 29.2534 40.2237 29.2846 40.0944 29.2846C40.0108 29.2846 40.0182 28.8781 40.0944 28.3879C40.1858 27.8363 40.262 27.3917 40.3535 26.8094C40.3834 26.5876 40.3151 26.4648 40.1858 26.4648C39.7523 26.4648 39.1358 27.2154 38.8619 28.9014C38.8394 29.0549 38.8089 29.0697 38.7632 29.1004C38.6113 29.2005 38.1546 29.2534 37.896 29.2534C38.0405 28.5107 38.3979 25.8899 38.4741 25.2229C38.5656 24.3654 38.5808 24.2199 38.5808 24.0891C38.9766 24.0049 39.1741 23.9822 39.448 23.9822C39.5394 23.9822 39.5236 24.1658 39.501 24.3114C39.4327 24.7868 39.3413 25.5294 39.1741 26.7332C39.5693 26.0508 40.0492 25.7142 40.6121 25.7142C41.1518 25.7142 41.3499 26.2118 41.228 26.9629Z" fill="white"/>
<path fill-rule="evenodd" clip-rule="evenodd" d="M43.6684 28.2118C43.7215 28.388 43.6532 28.7247 43.5471 28.8395C43.2653 29.1619 42.9153 29.2848 42.4896 29.2848C41.9951 29.2848 41.8353 28.8395 41.9494 28.0736C42.0329 27.4913 42.1622 26.7094 42.1927 26.4649H41.7134C41.7134 26.304 41.8274 25.8667 42.0177 25.8667H42.2915C42.3903 25.231 42.5732 25.0627 42.7025 24.9933C42.8092 24.9399 43.1665 24.8557 43.3641 24.8557C43.3037 25.1923 43.2428 25.5295 43.1744 25.8667C43.5239 25.8667 43.9197 25.8667 44.0106 25.8519C43.9806 26.0965 43.9044 26.296 43.7446 26.3961C43.6227 26.4723 43.3111 26.4649 43.0677 26.4649C42.9842 26.9397 42.8848 27.8285 42.8318 28.181C42.786 28.4494 42.847 28.6024 42.961 28.6024C43.1282 28.6024 43.3568 28.4642 43.6532 28.2038L43.6684 28.2118Z" fill="white"/>
<path fill-rule="evenodd" clip-rule="evenodd" d="M49.4119 26.4493L49.6479 24.6257C49.6705 24.4574 49.7394 24.4261 49.8833 24.4113C50.0736 24.396 50.4089 24.388 50.6365 24.3806C50.4541 25.6759 50.2943 26.9781 50.1346 28.2422C50.0663 28.771 50.0437 29.024 50.0284 29.1923C49.8986 29.231 49.4198 29.2384 49.2296 29.2384C49.1076 29.2384 49.0546 29.2151 49.0698 29.1002L49.3436 26.9935C49.1912 27.0082 48.9479 27.0162 48.56 27.0162H47.4191L47.1605 29.0087C47.1374 29.177 47.069 29.1923 46.8861 29.2151C46.6885 29.2384 46.3159 29.2464 46.1641 29.2384C46.3842 27.9897 46.5135 26.6949 46.6733 25.4383C46.7422 24.9322 46.78 24.6177 46.7873 24.442C46.9319 24.4193 47.4191 24.3806 47.5862 24.3806C47.7307 24.3806 47.7386 24.4574 47.6929 24.8327L47.4947 26.4493H49.4119Z" fill="white"/>
<path fill-rule="evenodd" clip-rule="evenodd" d="M53.3261 26.5642C53.3413 26.4727 53.3492 26.434 53.3639 26.3805C53.2883 26.3498 53.159 26.3191 53.0523 26.3191C52.7559 26.3191 52.4284 26.4414 52.1772 26.7865C51.9034 27.1772 51.7741 27.6372 51.7741 28.0665C51.7741 28.3417 51.843 28.5567 52.018 28.5567C52.4437 28.5567 53.1206 27.8061 53.3261 26.5642ZM51.5613 26.3646C52.1089 25.775 52.8163 25.7141 53.1437 25.7141C53.4401 25.7141 53.9731 25.8284 54.2774 25.8898C54.2011 26.227 54.0188 27.5144 53.9499 28.2115C53.9347 28.3798 53.8816 28.932 53.9042 29.1463C53.6535 29.2532 53.2425 29.2919 53.1132 29.2919C53.0444 29.2919 53.0218 28.9468 53.0523 28.6027C53.0602 28.5254 53.0754 28.3497 53.0754 28.327C52.801 28.8092 52.2004 29.2845 51.5765 29.2845C51.1198 29.2845 50.8691 28.9013 50.8691 28.1734C50.8691 27.8288 50.9679 26.9935 51.5613 26.3646Z" fill="white"/>
<path fill-rule="evenodd" clip-rule="evenodd" d="M55.9151 26.7253C56.295 26.0969 56.706 25.7142 57.3299 25.7142C57.8701 25.7142 58.022 26.2271 57.9463 26.8401C57.9153 27.0698 57.8092 27.6373 57.7329 28.2116C57.6799 28.5795 57.6421 28.9548 57.6567 29.1465C57.5128 29.2386 56.9347 29.2846 56.8048 29.2846C56.7517 29.2846 56.7139 28.9782 56.7896 28.488C56.8432 28.1428 56.9877 27.3462 57.056 26.9248C57.0792 26.7634 57.1091 26.4876 56.8737 26.4876C56.5389 26.4876 55.8919 27.0317 55.5876 28.8093C55.5651 28.9401 55.5193 29.0617 55.4053 29.1311C55.3144 29.1846 55.0632 29.2465 54.6064 29.2534C54.6906 28.7865 54.8345 27.7061 54.9491 27.001C55.0174 26.5564 55.0474 26.1043 55.0248 25.8979C55.162 25.8518 55.801 25.7142 55.8773 25.7142C55.9529 25.7142 55.9986 25.9127 55.9224 26.5183C55.9151 26.5797 55.8998 26.6792 55.8919 26.7253H55.9151Z" fill="white"/>
<path fill-rule="evenodd" clip-rule="evenodd" d="M60.8613 26.7096C60.8766 26.6027 60.8918 26.5493 60.9071 26.4572C60.7925 26.3651 60.6937 26.3116 60.4882 26.3116C59.6667 26.3116 59.3246 27.3078 59.3246 27.9976C59.3246 28.2961 59.4387 28.5412 59.6137 28.5412C60.0247 28.5412 60.6863 27.7286 60.8613 26.7096ZM58.3892 28.1272C58.3892 26.8478 59.1649 25.714 60.4503 25.714C60.6632 25.714 60.8839 25.7907 60.998 25.8669C61.0516 25.5297 61.2114 24.4112 61.226 24.0894C61.4242 24.0507 61.8425 23.9819 62.0328 23.9819C62.1163 23.9819 62.1547 24.0433 62.1316 24.1889C61.9261 25.4763 61.6376 27.6979 61.584 28.212C61.5535 28.5412 61.5456 28.8323 61.5608 29.1616C61.3175 29.269 60.8613 29.2844 60.7321 29.2844C60.6711 29.2844 60.6333 28.9165 60.6558 28.5025C60.6632 28.4036 60.6784 28.2882 60.6784 28.2648C60.2448 28.9779 59.7808 29.2844 59.1722 29.2844C58.6855 29.2844 58.3892 28.8551 58.3892 28.1272Z" fill="white"/>
<path fill-rule="evenodd" clip-rule="evenodd" d="M63.2718 28.8859C63.2487 29.0241 63.2029 29.0855 63.1273 29.1156C62.9066 29.2003 62.5492 29.2532 62.2827 29.2532C62.3894 28.5186 62.7694 25.8898 62.8535 25.2234C62.9596 24.3653 62.9828 24.2277 62.9749 24.089C63.1499 24.0429 63.5987 23.9821 63.8042 23.9821C63.8956 23.9821 63.9414 24.0281 63.9182 24.1964C63.8121 25.162 63.4011 28.0278 63.2718 28.8859Z" fill="white"/>
<path fill-rule="evenodd" clip-rule="evenodd" d="M64.9761 27.2232C65.3639 27.1772 65.9804 26.9475 65.9804 26.5108C65.9804 26.3879 65.942 26.2191 65.7292 26.2191C65.4475 26.2191 65.0822 26.5875 64.9761 27.2232ZM66.7714 26.4414C66.7714 27.3461 65.6304 27.7214 64.9383 27.8055V27.9278C64.9383 28.3878 65.1054 28.5868 65.4627 28.5868C65.8664 28.5868 66.2311 28.3343 66.4592 28.1114C66.5201 28.1501 66.5811 28.2803 66.5811 28.4032C66.5811 28.5254 66.5433 28.6943 66.4671 28.7864C66.2085 29.0849 65.767 29.2845 65.1737 29.2845C64.3754 29.2845 64.0327 28.7403 64.0327 27.9972C64.0327 26.8627 64.7249 25.7141 65.9195 25.7141C66.5964 25.7141 66.7714 26.1429 66.7714 26.4414Z" fill="white"/>
<path fill-rule="evenodd" clip-rule="evenodd" d="M68.3228 26.848C68.7259 25.9285 69.2284 25.7141 69.5095 25.7141C69.6315 25.7141 69.7224 25.7596 69.7912 25.8364C69.7912 26.0814 69.6162 26.5562 69.4412 26.7791C69.3498 26.7411 69.2583 26.7098 69.1522 26.7098C68.8778 26.7098 68.3686 27.1232 68.0564 28.9166C68.0338 29.0315 67.9881 29.0855 67.9502 29.1156C67.8893 29.1771 67.3112 29.2464 67.0825 29.2532C67.1971 28.6562 67.3947 27.2693 67.4709 26.5949C67.5009 26.3578 67.5009 26.0661 67.4783 25.9126C67.6533 25.8284 68.0948 25.7141 68.2619 25.7141C68.3607 25.7141 68.4442 25.9666 68.3076 26.848H68.3228Z" fill="white"/>
<path fill-rule="evenodd" clip-rule="evenodd" d="M71.9887 25.9511C72.004 26.1581 71.7832 26.4725 71.593 26.4032C71.4789 26.3651 71.3649 26.3264 71.2204 26.3264C70.9923 26.3264 70.802 26.4265 70.802 26.6488C70.802 26.8245 70.9692 26.9326 71.4789 27.3306C71.7454 27.5376 71.9052 27.744 71.9052 28.1272C71.9052 28.6026 71.4259 29.2844 70.5056 29.2844C70.1709 29.2844 69.8208 29.1462 69.7141 28.9779C69.6306 28.8477 69.6233 28.4644 69.7599 28.357C69.9727 28.4878 70.3532 28.6254 70.5892 28.6254C70.8478 28.6254 71.0228 28.5025 71.0228 28.3268C71.0228 28.204 70.9082 28.0732 70.4215 27.7059C70.102 27.4608 69.9501 27.2157 69.9501 26.9013C69.9501 26.2729 70.4898 25.714 71.2588 25.714C71.6771 25.714 71.8973 25.8596 71.9887 25.9511Z" fill="white"/>
<path fill-rule="evenodd" clip-rule="evenodd" d="M73.3826 28.4261C73.3826 28.993 73.0021 29.4831 72.6899 29.7515C72.4849 29.9284 72.1727 29.9585 71.8989 29.9511C72.2563 29.4911 72.5532 28.8247 72.4465 28.1884C72.6142 28.1048 72.8649 27.9973 73.1009 27.9973C73.2911 27.9973 73.3826 28.2196 73.3826 28.4261Z" fill="white"/>
<path fill-rule="evenodd" clip-rule="evenodd" d="M76.5244 25.4381C76.5622 25.1088 76.6006 24.779 76.6385 24.4418C76.7909 24.4191 77.2928 24.381 77.4526 24.381C77.5818 24.381 77.5971 24.4572 77.5513 24.833L77.1178 28.2425C77.0495 28.7708 77.0263 29.0244 77.0111 29.1927C76.8744 29.2228 76.3268 29.2388 76.1823 29.2388C76.0835 29.2388 76.0451 29.2001 76.0604 29.1L76.5244 25.4381Z" fill="white"/>
<path fill-rule="evenodd" clip-rule="evenodd" d="M79.1841 26.7253C79.5646 26.0969 79.9751 25.7142 80.5989 25.7142C81.1392 25.7142 81.2916 26.2271 81.2154 26.8401C81.1849 27.0698 81.0782 27.6373 81.0026 28.2116C80.9489 28.5795 80.9111 28.9548 80.9263 29.1465C80.7818 29.2386 80.2037 29.2846 80.0744 29.2846C80.0208 29.2846 79.983 28.9782 80.0592 28.488C80.1123 28.1428 80.2568 27.3462 80.3251 26.9248C80.3482 26.7634 80.3787 26.4876 80.1427 26.4876C79.808 26.4876 79.161 27.0317 78.8573 28.8093C78.8341 28.9401 78.7884 29.0617 78.6743 29.1311C78.5834 29.1846 78.3322 29.2465 77.8755 29.2534C77.9596 28.7865 78.1036 27.7061 78.2182 27.001C78.2865 26.5564 78.317 26.1043 78.2938 25.8979C78.431 25.8518 79.0701 25.7142 79.1463 25.7142C79.222 25.7142 79.2677 25.9127 79.192 26.5183C79.1841 26.5797 79.1689 26.6792 79.161 26.7253H79.1841Z" fill="white"/>
<path fill-rule="evenodd" clip-rule="evenodd" d="M84.3835 25.9129C84.3987 26.1125 84.231 26.4264 84.1097 26.419C83.9804 26.3649 83.8658 26.3342 83.7066 26.3342C83.0901 26.3342 82.6187 26.9472 82.6187 27.882C82.6187 28.3347 82.7858 28.5644 83.098 28.5644C83.4706 28.5644 83.8054 28.3574 84.0639 28.1197C84.1249 28.1578 84.178 28.296 84.178 28.4035C84.178 28.5331 84.1627 28.6793 84.003 28.8396C83.7444 29.108 83.3565 29.2848 82.8163 29.2848C82.1546 29.2848 81.6753 28.8936 81.6753 28.0123C81.6753 26.8403 82.4284 25.7139 83.7365 25.7139C84.0413 25.7139 84.2847 25.798 84.3835 25.9129Z" fill="white"/>
<path fill-rule="evenodd" clip-rule="evenodd" d="M85.7022 28.6866C85.7022 29.0392 85.4741 29.2768 85.1467 29.2768C84.8655 29.2768 84.6753 29.0852 84.6753 28.7867C84.6753 28.4114 84.896 28.1737 85.2534 28.1737C85.5498 28.1737 85.7022 28.4114 85.7022 28.6866Z" fill="white"/>
<path fill-rule="evenodd" clip-rule="evenodd" d="M36.55 6.62949L36.4873 6.47141C36.489 6.47084 36.6296 6.41454 36.8853 6.32129L36.9429 6.48107C36.69 6.57319 36.55 6.62949 36.55 6.62949Z" fill="white"/>
<path fill-rule="evenodd" clip-rule="evenodd" d="M50.1834 4.25277C49.9446 4.24708 49.7019 4.24367 49.4608 4.24367L49.3411 4.24424L49.34 4.07422H49.4608C49.703 4.07422 49.9474 4.07649 50.1874 4.08218L50.1834 4.25277ZM47.6553 4.29541L47.6463 4.1254C47.9292 4.11004 48.2137 4.09753 48.4926 4.089L48.4982 4.25902C48.2205 4.26755 47.9371 4.28006 47.6553 4.29541ZM51.8652 4.34261C51.5875 4.3193 51.3046 4.29996 51.0252 4.28518L51.0336 4.11516C51.3154 4.12994 51.5999 4.14928 51.8793 4.17316L51.8652 4.34261ZM45.9747 4.43132L45.9572 4.263C46.2389 4.23287 46.5229 4.20671 46.8006 4.18396L46.8142 4.35398C46.5375 4.37616 46.2553 4.40232 45.9747 4.43132ZM53.538 4.53822C53.2625 4.49671 52.9819 4.45918 52.703 4.42677L52.7228 4.25789C53.0028 4.28973 53.2856 4.32783 53.5628 4.36934L53.538 4.53822ZM44.3013 4.64569L44.2765 4.47794C44.5554 4.4353 44.8377 4.39606 45.1154 4.36024L45.1369 4.52969C44.8602 4.56494 44.5791 4.60418 44.3013 4.64569ZM55.1933 4.84755C54.9234 4.78671 54.6457 4.72985 54.3685 4.6781L54.3989 4.51036C54.6784 4.56267 54.9584 4.6201 55.2294 4.68151L55.1933 4.84755ZM42.6387 4.93285L42.6065 4.76567C42.8815 4.71279 43.1621 4.66104 43.4398 4.61328L43.468 4.78102C43.192 4.82879 42.9125 4.87996 42.6387 4.93285ZM56.8198 5.28028C56.5544 5.19783 56.2817 5.11992 56.0107 5.04771L56.0537 4.88281C56.3269 4.95559 56.6018 5.03463 56.8694 5.11765L56.8198 5.28028ZM40.9891 5.28938L40.9501 5.12334C41.2234 5.05908 41.5017 4.99596 41.7766 4.93626L41.8122 5.10287C41.5384 5.162 41.2612 5.22512 40.9891 5.28938ZM39.3547 5.71243L39.3095 5.54867C39.5811 5.47304 39.856 5.39855 40.1276 5.32804L40.1699 5.49294C39.8995 5.56289 39.6251 5.63681 39.3547 5.71243ZM58.4062 5.84379C58.1476 5.73916 57.8828 5.63908 57.6186 5.54469L57.6751 5.38434C57.9415 5.47873 58.2086 5.58051 58.4688 5.68571L58.4062 5.84379ZM37.7401 6.20543L37.687 6.04338C37.9478 5.95751 38.2199 5.87108 38.4955 5.78692L38.5446 5.95012C38.2702 6.03371 37.9992 6.11957 37.7401 6.20543ZM59.9372 6.54263C59.69 6.4164 59.4348 6.29243 59.1796 6.17587L59.2496 6.02063C59.507 6.13834 59.7645 6.26287 60.014 6.39138L59.9372 6.54263Z" fill="white"/>
<path fill-rule="evenodd" clip-rule="evenodd" d="M61.0432 7.15982C60.9229 7.08704 60.8016 7.01539 60.6802 6.94602L60.7637 6.79761C60.8862 6.86812 61.0082 6.94033 61.1301 7.01369L61.0432 7.15982Z" fill="white"/>
<mask id="mask0_189_3618" style="mask-type:luminance" maskUnits="userSpaceOnUse" x="1" y="0" width="85" height="41">
<g opacity="0.7">
<path d="M1.01904 40.6668H85.7022V0.747437H1.01904V40.6668Z" fill="white"/>
</g>
</mask>
<g mask="url(#mask0_189_3618)">
<path fill-rule="evenodd" clip-rule="evenodd" d="M31.8521 10.3823H37.6624V4.53052H31.8521V10.3823Z" fill="white"/>
</g>
<mask id="mask1_189_3618" style="mask-type:luminance" maskUnits="userSpaceOnUse" x="1" y="0" width="85" height="41">
<g opacity="0.7">
<path d="M1.01904 40.6668H85.7022V0.747437H1.01904V40.6668Z" fill="white"/>
</g>
</mask>
<g mask="url(#mask1_189_3618)">
<path fill-rule="evenodd" clip-rule="evenodd" d="M33.9999 6.69723C33.9999 6.48059 33.9999 6.32023 33.9863 6.11723C34.123 6.08596 34.3465 6.05298 34.552 6.05298H35.6111C35.5789 6.28782 35.5287 6.34298 35.4739 6.40723C35.4056 6.42998 35.2278 6.42998 35.0268 6.42998H34.6254V7.25335H35.5609C35.5383 7.54278 35.4237 7.63035 35.2594 7.63035H34.6254V8.54527C34.7298 8.56802 34.8445 8.57768 34.9997 8.57768C35.1775 8.57768 35.4971 8.57768 35.7297 8.55494L35.7393 8.56347C35.6935 8.77045 35.6156 8.85802 35.4971 8.93137C35.4333 8.94502 35.2052 8.95468 34.8445 8.95468C34.4656 8.95468 34.1777 8.93137 34.0682 8.90863L33.9999 8.81708V6.69723Z" fill="white"/>
</g>
<mask id="mask2_189_3618" style="mask-type:luminance" maskUnits="userSpaceOnUse" x="1" y="0" width="85" height="41">
<g opacity="0.7">
<path d="M1.01904 40.6668H85.7022V0.747437H1.01904V40.6668Z" fill="white"/>
</g>
</mask>
<g mask="url(#mask2_189_3618)">
<path fill-rule="evenodd" clip-rule="evenodd" d="M60.4961 10.3823H66.3065V4.53052H60.4961V10.3823Z" fill="white"/>
</g>
<mask id="mask3_189_3618" style="mask-type:luminance" maskUnits="userSpaceOnUse" x="1" y="0" width="85" height="41">
<g opacity="0.7">
<path d="M1.01904 40.6668H85.7022V0.747437H1.01904V40.6668Z" fill="white"/>
</g>
</mask>
<g mask="url(#mask3_189_3618)">
<path fill-rule="evenodd" clip-rule="evenodd" d="M63.9601 7.24415V6.19105C63.9601 6.08585 63.9968 6.06709 64.0787 6.05799C64.1933 6.04832 64.4439 6.04434 64.5992 6.03979C64.5901 6.21379 64.5856 6.4856 64.5856 6.86715V8.35183C64.5856 8.67425 64.5947 8.8255 64.5992 8.91762C64.5032 8.94036 64.1791 8.95458 64.0651 8.95458C63.9923 8.95458 63.9601 8.94036 63.9601 8.86246V7.58874C63.8686 7.59783 63.723 7.60295 63.4898 7.60295H62.8417V8.8073C62.8417 8.90852 62.8056 8.92672 62.691 8.93638C62.5634 8.95003 62.2941 8.95913 62.2026 8.95458C62.2117 8.77091 62.2162 8.49911 62.2162 8.11301V6.66017C62.2162 6.35254 62.2117 6.16376 62.2026 6.07619C62.3353 6.05287 62.6413 6.03979 62.7412 6.03979C62.8282 6.03979 62.8417 6.08585 62.8417 6.29227V7.24415H63.9601Z" fill="white"/>
</g>
<mask id="mask4_189_3618" style="mask-type:luminance" maskUnits="userSpaceOnUse" x="1" y="0" width="85" height="41">
<g opacity="0.7">
<path d="M1.01904 40.6668H85.7022V0.747437H1.01904V40.6668Z" fill="white"/>
</g>
</mask>
<g mask="url(#mask4_189_3618)">
<path fill-rule="evenodd" clip-rule="evenodd" d="M48.4747 7.25696C46.6929 7.25696 45.2432 5.7973 45.2432 4.00214C45.2432 2.20755 46.6929 0.747314 48.4747 0.747314C50.257 0.747314 51.7067 2.20755 51.7067 4.00214C51.7067 5.7973 50.257 7.25696 48.4747 7.25696Z" fill="white"/>
</g>
<mask id="mask5_189_3618" style="mask-type:luminance" maskUnits="userSpaceOnUse" x="1" y="0" width="85" height="41">
<g opacity="0.7">
<path d="M1.01904 40.6668H85.7022V0.747437H1.01904V40.6668Z" fill="white"/>
</g>
</mask>
<g mask="url(#mask5_189_3618)">
<path fill-rule="evenodd" clip-rule="evenodd" d="M47.7582 3.15434C47.7582 2.97068 47.7537 2.85126 47.7446 2.6676C47.8265 2.64428 48.1325 2.60732 48.3515 2.59766H49.4564C49.4151 2.83307 49.3514 2.89221 49.287 2.95646C49.2238 2.97522 49.1323 2.97522 48.9268 2.97522H48.3837V3.8947H49.3559C49.3056 4.2535 49.1916 4.2717 49.0087 4.2717H48.3837C48.3837 4.7175 48.3882 5.12236 48.3973 5.46297C48.3199 5.48572 48.0642 5.49936 47.8632 5.49936C47.7904 5.49936 47.7582 5.48571 47.7582 5.40724V3.15434Z" fill="white"/>
</g>
<mask id="mask6_189_3618" style="mask-type:luminance" maskUnits="userSpaceOnUse" x="1" y="0" width="85" height="41">
<g opacity="0.7">
<path d="M1.01904 40.6668H85.7022V0.747437H1.01904V40.6668Z" fill="white"/>
</g>
</mask>
<g mask="url(#mask6_189_3618)">
<path fill-rule="evenodd" clip-rule="evenodd" d="M48.4748 9.97684C46.7614 9.97684 45.368 11.7049 45.368 13.8293C45.368 15.9537 46.7614 17.6823 48.4748 17.6823C50.1882 17.6823 51.5821 15.9537 51.5821 13.8293C51.5821 11.7049 50.1882 9.97684 48.4748 9.97684ZM48.4748 18.0223C46.575 18.0223 45.0293 16.1413 45.0293 13.8293C45.0293 11.5172 46.575 9.63623 48.4748 9.63623C50.3745 9.63623 51.9202 11.5172 51.9202 13.8293C51.9202 16.1413 50.3745 18.0223 48.4748 18.0223Z" fill="white"/>
</g>
<mask id="mask7_189_3618" style="mask-type:luminance" maskUnits="userSpaceOnUse" x="1" y="0" width="85" height="41">
<g opacity="0.7">
<path d="M1.01904 40.6668H85.7022V0.747437H1.01904V40.6668Z" fill="white"/>
</g>
</mask>
<g mask="url(#mask7_189_3618)">
<path fill-rule="evenodd" clip-rule="evenodd" d="M29.2104 10.4383C29.2104 10.4383 37.156 23.0089 48.0253 23.0089C58.8941 23.0089 66.353 11.6091 66.353 11.6091L66.1374 11.3634C66.1374 11.3634 58.0789 20.4512 47.9316 20.4512C37.7838 20.4512 31.122 12.1186 29.6322 10.2125L29.2104 10.4383Z" fill="white"/>
</g>
<mask id="mask8_189_3618" style="mask-type:luminance" maskUnits="userSpaceOnUse" x="1" y="0" width="85" height="41">
<g opacity="0.7">
<path d="M1.01904 40.6668H85.7022V0.747437H1.01904V40.6668Z" fill="white"/>
</g>
</mask>
<g mask="url(#mask8_189_3618)">
<path fill-rule="evenodd" clip-rule="evenodd" d="M29.0977 36.533C29.0977 36.533 38.4303 31.3522 48.887 31.3522C48.887 31.3522 61.564 30.6158 72.4707 40.299L72.2178 40.6669C72.2178 40.6669 63.0821 33.9855 47.8465 33.9855C47.8465 33.9855 38.6268 33.7586 29.2665 36.873L29.0977 36.533Z" fill="white"/>
</g>
</g>
</g>
<defs>
<clipPath id="clip0_189_3618">
<rect width="85.4902" height="40" fill="white" transform="translate(0.333496 0.649414)"/>
</clipPath>
</defs>
</svg>
