<svg width="164" height="41" viewBox="0 0 164 41" fill="none" xmlns="http://www.w3.org/2000/svg">
<g clip-path="url(#clip0_189_3573)">
<g opacity="0.7">
<mask id="mask0_189_3573" style="mask-type:luminance" maskUnits="userSpaceOnUse" x="65" y="1" width="78" height="40">
<g opacity="0.7">
<path d="M65.5547 1.88562H142.896V40.1091H65.5547V1.88562Z" fill="white"/>
</g>
</mask>
<g mask="url(#mask0_189_3573)">
<path fill-rule="evenodd" clip-rule="evenodd" d="M115.639 3.62364C115.105 3.07377 114.566 2.50775 113.932 1.88525L114.075 3.47609C114.444 3.63056 115.181 3.94066 115.354 4.02366L115.317 3.49338C115.317 3.49338 115.484 3.55217 115.639 3.62364ZM113.327 5.12917C113.327 5.12917 116.621 6.66006 118.348 9.50166C118.348 9.50166 117.507 9.05899 117.226 9.11893C117.226 9.11893 117.095 9.04055 117.266 9.79216C117.266 9.79216 116.672 9.32643 116.228 9.34718C116.228 9.34718 116.064 9.17196 116.201 9.86593C116.201 9.86593 114.701 9.38638 114.857 7.75635C114.857 7.75635 114.883 7.57998 114.717 7.41628C114.551 7.25259 114.435 7.15114 114.286 6.35918C114.286 6.35918 113.693 5.90268 113.327 5.12917ZM98.6116 13.2148C98.6116 13.2148 100.827 12.1784 102.606 12.1853C102.606 12.1853 102.526 11.8891 102.128 11.5133C102.128 11.5133 104.251 11.3841 106.571 12.5992C106.571 12.5992 106.542 11.9513 106.306 11.3934C106.306 11.3934 107.651 12.1761 108.414 13.1606L108.34 12.2856C108.34 12.2856 110.016 14.0102 110.628 15.5249C110.628 15.5249 109.296 16.8506 109.753 19.6772C109.753 19.6772 108.734 18.2167 109.283 16.0679L108.891 15.0604L108.632 15.8834C108.632 15.8834 107.737 14.3629 107.182 13.7347C107.182 13.7347 107.218 14.1416 107.144 14.5393C107.144 14.5393 105.703 13.1502 103.337 12.643C103.337 12.643 103.404 12.8413 103.539 13.0741C103.539 13.0741 102.109 12.5484 98.6116 13.2148ZM67.4222 19.2645C67.4222 19.2645 69.0836 18.6397 70.0128 19.8778L69.8758 20.37C69.8758 20.37 69.2241 19.0201 67.4222 19.2645ZM105.203 36.9689C106.298 37.0288 108.336 37.068 109.019 36.4882C109.65 35.9314 109.91 35.2847 110.228 34.5273C110.406 34.1042 110.862 33.8126 111.239 33.5751C111.632 33.3273 112.035 33.0944 112.42 32.8293C112.708 32.631 113.033 32.3878 113.256 32.1157C113.696 31.5797 113.999 31.0102 114.214 30.3531C114.332 29.9946 114.429 29.507 114.608 29.1381L114.117 28.9882C114.117 28.9882 113.544 31.1958 112.327 31.9958C111.109 32.7958 109.694 33.5763 109.504 34.4835C109.314 35.3896 108.723 36.6692 105.619 36.1988L105.203 36.9689ZM112.141 18.8668C112.141 18.8668 111.704 20.6317 113.127 21.5943C113.127 21.5943 113.203 22.8877 114.352 23.1621C114.352 23.1621 114.655 24.1869 115.69 24.3829C115.69 24.3829 116.426 25.4584 117.645 25.1034C117.645 25.1034 118.269 26.1178 120.306 25.7109C120.306 25.7109 119.828 25.146 119.83 24.7541C119.83 24.7541 121.289 25.9287 122.97 25.5333C124.651 25.1391 128.533 23.199 131.853 25.176C131.853 25.176 129.133 24.2895 126.875 25.0365C124.618 25.7835 122.668 26.5927 121.187 26.4002C119.706 26.2077 117.32 27.4954 117.32 27.4954C117.32 27.4954 114.131 28.3138 112.883 25.8584C112.883 25.8584 114.169 26.4763 114.901 25.8619C114.901 25.8619 112.697 24.9005 112.532 22.8255C112.532 22.8255 110.915 21.0606 112.141 18.8668ZM82.0112 31.5255C82.0112 31.5255 84.3278 31.6638 87.5781 29.7986C90.8295 27.9323 93.016 26.5685 94.5876 26.557L94.6394 26.9443C94.6394 26.9443 93.4512 27.0469 94.1984 28.6747C94.1984 28.6747 93.3257 28.9098 93.6642 29.7352C93.6642 29.7352 93.2451 29.4332 93.2405 29.1669C93.2359 28.8994 93.488 28.7173 93.3879 28.3876C93.2877 28.0579 93.191 28.1744 93.1657 27.6775C93.1657 27.6775 91.0437 28.6528 88.9678 29.847C86.8907 31.0413 84.4774 32.0511 82.0112 31.5255ZM122.243 8.45493C122.243 8.45493 124.47 9.01057 126.979 11.9986C126.979 11.9986 125.063 11.7369 123.072 10.1991C123.072 10.1991 123.948 10.2925 124.406 10.4308C124.406 10.4308 122.92 9.15237 122.243 8.45493ZM118.736 10.2533C118.736 10.2533 120.942 9.74143 122.682 11.2654C124.421 12.7882 125.738 14.3848 127.784 14.492C127.784 14.492 126.216 14.8505 125.452 14.4886C125.452 14.4886 124.904 14.982 123.688 15.1756C123.688 15.1756 123.92 15.3693 124.155 15.4027C124.155 15.4027 121.61 16.5486 120.972 12.2591C120.972 12.2591 120.168 11.4199 119.563 11.2412C119.563 11.2412 120.754 11.3876 121.478 11.9121L121.921 11.8741C121.921 11.8741 121.294 10.5933 118.736 10.2533ZM121.499 20.4784C121.499 20.4784 120.987 18.5394 125.876 18.5521C125.876 18.5521 120.765 17.5688 121.499 20.4784ZM92.0247 32.88C92.0247 32.88 90.4173 32.0581 86.5833 34.4189C82.7492 36.7798 78.8484 39.5742 77.4 39.3793C75.9515 39.1834 75.9665 37.2594 76.0414 36.4697C76.1162 35.6789 76.2002 32.503 75.1974 31.2361C74.1946 29.9692 72.7358 29.2049 72.8118 27.5968C72.8118 27.5968 71.794 26.874 71.3956 25.5737C70.9972 24.2722 70.7105 24.0474 68.919 23.5794C67.1286 23.1114 65.6986 22.2733 66.4815 20.1752C66.4815 20.1752 66.3077 21.2588 66.8143 21.7499C67.3209 22.2399 68.3341 23.0064 69.421 22.7701C70.5079 22.5338 70.9753 22.3517 71.5959 20.8554C72.2177 19.3591 74.1439 15.5145 79.0568 13.73C79.0568 13.73 75.9435 15.3336 75.0615 17.1192L74.8831 16.7077C74.8831 16.7077 74.0575 18.1141 73.9102 18.8933L73.5452 18.3907C73.5452 18.3907 73.2251 19.2369 73.262 20.2847L72.7623 19.8824C72.7623 19.8824 72.8958 21.8468 73.08 22.5257L72.2257 21.5309C72.2257 21.5309 72.2936 22.9315 72.6437 23.471C72.6437 23.471 72.2418 24.61 73.004 25.5771C73.004 25.5771 73.0179 26.9824 74.3385 27.7939C74.3385 27.7939 74.1451 28.4522 74.578 29.1265C75.0109 29.8009 76.6723 31.0459 77.2906 32.4177L76.5007 32.1653C76.5007 32.1653 77.4644 33.5959 77.4253 34.8097L76.8462 34.3071C76.8462 34.3071 77.423 35.6109 77.1697 36.8075C77.1697 36.8075 76.9095 36.4916 76.8036 36.5009C76.8036 36.5009 76.6654 38.6324 77.5612 38.6612C78.4569 38.6911 82.4706 36.1366 82.5903 36.072C82.5903 36.072 82.6318 35.9268 82.2415 35.9602C82.2415 35.9602 83.1844 35.0956 84.3888 34.9734C84.3888 34.9734 84.3957 34.8478 83.9616 34.7786C83.9616 34.7786 84.7641 34.0501 86.4336 33.8172C86.4336 33.8172 86.2218 33.6397 85.7693 33.5717C85.7693 33.5717 86.7721 32.9872 88.2827 32.8915C88.2827 32.8915 88.049 32.6633 87.6817 32.5526C87.6817 32.5526 88.8734 32.0753 90.2757 32.186L89.6747 31.6327C89.6747 31.6327 91.5457 31.7906 92.0247 32.88ZM123.767 13.4199C123.659 13.1986 123.057 13.9122 123.691 14.2015C123.691 14.2015 123.557 14.0932 123.634 13.8569C123.713 13.6205 123.875 13.6424 123.767 13.4199ZM122.423 14.5151C121.861 13.692 121.938 12.9369 121.938 12.9369L121.542 12.892C121.671 14.0816 122.423 14.5151 122.423 14.5151ZM121.697 12.5127C122.23 12.4804 122.319 12.5923 122.385 12.6222C122.45 12.6522 122.775 12.598 122.775 12.598C122.775 12.598 122.694 12.3652 122.429 12.3075C122.165 12.2499 121.697 12.5127 121.697 12.5127ZM65.5547 21.773C65.6825 21.9205 65.7746 22.0854 65.8184 22.2698C65.8633 22.4554 66.0866 22.8174 66.2259 22.9511L66.6542 23.252L66.6681 23.2474L66.7279 23.3039L67.2322 23.6578L67.1689 23.6993C67.4602 23.8906 67.9346 24.0232 68.2259 24.1016C68.9121 24.2883 69.8228 24.4555 70.3801 24.9051L70.6564 25.1276L70.6932 25.4803C70.7934 26.4602 71.2551 27.025 71.916 27.7248L72.0864 27.9046L72.1325 28.1478C72.3535 29.2914 72.9649 29.892 73.7628 30.662C75.2377 32.0846 75.5774 34.0224 75.3908 35.9948C75.2538 37.4392 75.5969 40.1794 77.5519 40.1079C78.503 40.0733 79.8063 39.3989 80.625 38.9459C82.0503 38.1574 83.4239 37.2433 84.8021 36.3741C86.1469 35.5268 87.5366 34.6737 88.9816 34.0063L89.3558 33.8345C89.3558 33.8345 91.5111 33.1359 93.0125 33.7711C93.0125 33.7711 92.5013 33.2281 93.0724 32.3947C93.6446 31.5624 94.4414 30.5491 94.4218 30.1237C94.4034 29.6983 94.3642 29.3456 94.3642 29.3456C94.3642 29.3456 95.1172 29.0666 95.1357 28.9675C95.1357 28.9675 94.7258 27.8458 94.7073 27.7317C94.7073 27.7317 94.8985 27.5634 95.4972 27.2533C95.4972 27.2533 95.4707 26.9524 95.3314 26.6804C95.3314 26.6804 95.7194 26.4152 96.2651 26.2169C96.2651 26.2169 94.8133 24.8105 90.6683 27.0919C86.5246 29.3732 85.9305 30.5641 81.9778 30.7093C81.9778 30.7093 81.0107 30.2194 80.8264 30.0476C80.6411 29.877 80.6468 29.5289 80.6468 29.5289C80.6468 29.5289 81.0717 29.6879 81.5507 29.6476C81.5507 29.6476 79.3723 28.4199 80.192 26.3195C80.192 26.3195 80.4499 29.3064 84.1481 29.7341C84.1481 29.7341 85.661 29.2476 86.6581 28.1813L86.0963 28.0879C86.0963 28.0879 87.0507 27.1334 87.1118 26.8072L86.4716 26.8452C86.4716 26.8452 87.4744 25.8319 87.2534 24.9258C87.0323 24.0186 86.6167 22.9327 85.0347 21.9839C85.0347 21.9839 89.867 22.9188 87.4572 27.9173C87.4572 27.9173 88.6016 27.4089 88.9517 27.0135C88.9517 27.0135 89.8831 24.3425 87.0876 22.1799C84.2932 20.0173 83.554 19.7256 83.919 18.6443C83.919 18.6443 83.9386 19.283 86.2229 20.5095C88.5084 21.7372 89.441 23.4364 89.9384 23.8215C90.4369 24.2053 91.594 23.9633 91.594 23.9633C91.3753 21.4179 92.499 20.3597 92.499 20.3597C91.7691 23.9125 93.2002 25.1771 93.2002 25.1771C97.7527 24.535 97.1079 26.5847 97.1079 26.5847C97.6146 27.0746 100.644 27.8101 103.706 28.1156C106.77 28.421 107.014 29.183 107.014 29.183C101.673 33.9532 95.9819 34.4455 95.9819 34.4455C96.5933 35.1221 97.3336 35.2005 97.3336 35.2005C98.8408 35.4979 99.6214 36.8732 100.759 37.0231C101.898 37.1741 102.013 37.2709 103.324 35.4841C104.634 33.6973 105.316 33.7273 105.316 33.7273C105.316 33.7273 104.284 34.8489 103.644 36.1331C103.005 37.4173 102.39 38.1643 101.567 38.147C100.744 38.1286 99.5465 37.5026 98.0981 36.6484C96.6486 35.7942 96.7971 36.0663 95.024 36.2196C95.024 36.2196 93.7966 35.0438 92.1755 34.4708C92.1755 34.4708 91.2383 34.329 90.6027 34.457L92.2319 35.2697C93.2946 35.6271 93.8542 36.283 94.7868 36.8075L94.8052 36.8179L94.8225 36.8294C94.994 36.9366 95.6503 36.8686 95.8507 36.8513C96.1696 36.8236 96.4908 36.7971 96.8109 36.8121L97.0527 36.8236L97.253 36.9597C98.3365 37.6986 100.271 38.9471 101.664 38.8652C102.834 38.7972 103.447 38.2819 104.082 37.3274L104.356 36.9147C104.356 36.9147 105.071 35.2317 106.266 33.9705C107.462 32.7105 109.349 32.0131 110.224 31.19C111.101 30.3658 111.598 30.1272 112.529 28.0879C112.529 28.0879 110.596 26.3852 110.501 22.9938C110.501 22.9938 111.59 28.0798 115.004 28.5594L115.426 28.5559C115.843 28.5513 116.316 28.5605 116.727 28.4925C116.984 28.451 117.233 28.3703 117.478 28.2839C117.957 28.1156 118.434 27.9219 118.908 27.7363C119.621 27.4573 120.297 27.3697 121.056 27.4066C121.398 27.4227 121.912 27.5 122.24 27.4377C123.221 27.2521 124.255 26.8383 125.202 26.5132C126.259 26.1489 127.418 25.7789 128.541 25.7305C129.218 25.7005 129.861 25.7581 130.52 25.9241C131.058 26.059 131.576 26.2573 132.092 26.4602C132.706 26.6999 133.314 26.9397 133.938 27.1518C135.071 27.5357 136.052 26.8521 136.302 25.8446C136.289 25.878 135.997 26.67 136.325 25.7431C136.318 25.7766 136.311 25.8089 136.303 25.8423C136.306 25.81 136.41 24.799 135.984 24.5558C135.984 24.5558 135.945 25.342 135.142 25.3581C134.34 25.3743 132.384 24.8486 129.514 23.0664C129.514 23.0664 127.715 23.3292 127.018 23.1217C126.322 22.9154 125.16 21.6623 124.41 21.6738C123.661 21.6854 122.139 21.6393 122.018 20.6525C121.897 19.6657 124.301 18.959 126.056 19.3153C126.056 19.3153 125.83 17.6541 124.775 16.5855C124.775 16.5855 124.345 16.0437 124.926 15.7451C125.508 15.4454 127.413 17.2391 127.907 18.4069C127.907 18.4069 129.083 16.4875 130.566 15.6852C130.566 15.6852 130.293 17.4893 130.381 18.5141C130.469 19.5389 130.146 20.3504 130.146 20.3504C130.146 20.3504 131.321 20.6571 133.736 22.2122L136.152 23.7673L137.374 24.0451C137.533 24.0601 137.995 23.652 138.1 23.5529C138.691 22.9938 139.241 22.2952 139.762 21.6681C139.999 21.3822 140.28 21.1274 140.576 20.8957C140.239 20.9799 139.733 21.1701 139.15 21.5931C139.033 22.3909 137.032 23.9586 136.845 23.0387C136.727 22.4577 138.817 20.9822 141.174 20.4634C141.505 20.2409 141.843 20.0323 142.176 19.8121C142.307 19.7256 142.653 19.4997 142.742 19.3764C142.972 19.0432 142.959 18.3273 142.609 18.0795C142.038 17.676 141.387 17.8328 140.791 18.1048L140.327 18.3158C140.327 18.3158 139.249 18.8069 137.627 20.5141C137.627 20.5141 137.856 19.2184 139.325 17.8005C139.096 17.7717 138.853 17.7774 138.64 17.7924C137.961 18.0034 136.908 18.5325 135.766 19.8559C135.766 19.8559 135.838 18.506 137.127 17.2414C136.101 16.6581 135.057 16.1405 133.961 15.6725C132.99 15.2586 131.984 14.8909 131.042 14.4159C129.893 13.8361 128.962 13.1294 128.061 12.2118C127.707 11.851 127.351 11.4902 126.991 11.134C125.888 10.0412 124.759 9.02325 123.509 8.09757C122.31 7.20763 121.043 6.42489 119.732 5.71593L119.758 6.25889L117.94 5.0796L117.949 5.81623C117.949 5.81623 117.142 5.17874 116.255 4.84559L116.292 5.27788C116.292 5.27788 118.591 6.14823 118.929 7.7748C118.929 7.7748 117.697 6.02027 114.182 4.67728C112.522 4.15738 112.223 3.63748 110.742 2.50775C110.928 4.14239 111.204 5.33782 111.592 6.00528C111.592 6.00528 113.269 11.2447 116.406 10.5461C116.406 10.5461 115.768 11.4372 114.529 10.7432C113.29 10.0492 111.322 7.72638 107.151 6.59089L107.453 7.40245C107.453 7.40245 106.228 6.86756 104.735 6.53325L105.042 7.20071C105.042 7.20071 103.819 6.68312 102.151 6.40068L102.598 7.02088C102.598 7.02088 101.111 6.77534 99.9875 6.8007L100.539 7.39438C100.539 7.39438 98.4228 7.29178 97.7562 7.43934L98.4493 8.02034C98.4493 8.02034 94.8351 8.36848 93.3338 8.9783L94.3113 9.74835C94.3113 9.74835 91.9809 9.92703 87.7922 11.8833C87.7922 11.8833 90.4807 10.1195 92.8145 9.4371L91.7472 8.65667C91.7472 8.65667 94.7753 7.71831 96.9134 7.4451L96.135 6.71078C96.135 6.71078 97.8966 6.63009 98.8362 6.54824L98.28 5.90268C98.28 5.90268 100.501 5.96032 100.914 5.99491L100.39 5.31016C100.39 5.31016 102.346 5.60412 102.948 5.74821L102.616 5.01159C102.616 5.01159 104.87 5.67098 105.111 5.77473C105.111 5.77473 105.013 5.30785 104.85 4.9747C104.85 4.9747 106.387 5.50037 107.317 5.92689C107.317 5.92689 107.085 4.87902 106.933 4.77642C106.933 4.77642 108.182 5.1845 109.371 6.02603C109.371 6.02603 109.242 5.35166 109.032 5.08421C109.032 5.08421 110.901 6.26696 111.106 6.46293C111.106 6.46293 110.952 5.88424 110.814 5.49345L109.949 4.92628C109.271 4.48131 108.591 4.06977 107.881 3.70434L108.143 4.7891L106.431 3.82307C106.086 3.62825 105.733 3.45649 105.371 3.30548L105.696 4.25652L104.055 3.70434C103.74 3.59828 103.427 3.50721 103.112 3.42767L103.492 4.24268L101.793 3.8565C101.436 3.77466 101.077 3.70434 100.716 3.64555L101.245 4.61618L99.5224 4.33375C99.1321 4.27035 98.7394 4.22885 98.3457 4.21156L98.9835 5.10035L97.1989 4.99775C96.8097 4.9747 96.4229 4.98162 96.0383 5.01159L96.8236 5.89231L94.9226 5.89462C94.5473 5.89462 94.1754 5.91998 93.8058 5.9707L94.492 6.70156L92.7454 6.85603C92.4449 6.88255 92.1444 6.92174 91.8462 6.97131L92.7523 7.72984L90.7605 7.94425C90.3897 7.98345 90.0224 8.048 89.6586 8.131L90.2861 8.67742L88.5924 9.02095C88.3057 9.07859 88.019 9.14314 87.7347 9.21461L88.4589 9.791L86.5257 10.0838C86.231 10.1288 85.9374 10.1876 85.6461 10.2567L86.4014 10.8089L84.3542 11.1179C84.086 11.1582 83.82 11.2066 83.5552 11.2631L84.3634 11.8868L82.3796 12.1784C77.8041 12.8539 74.1024 15.0142 71.7732 19.0674L71.2517 19.9758L71.2401 19.9654C70.813 20.5384 70.5159 22.226 69.246 22.0715C67.9184 21.9102 67.7699 21.2289 67.7906 21.049C67.8114 20.8692 67.9806 20.6098 68.2996 20.5822C68.6185 20.5545 68.7612 20.6744 68.8465 20.9084C68.9305 21.1424 68.7797 21.3776 68.7797 21.3776C69.893 22.3355 70.7197 19.8963 70.7301 19.7084C70.7393 19.5331 70.2638 19.1204 70.2028 19.0686C68.0831 17.4604 65.7758 18.74 65.58 21.4237L65.5547 21.773Z" fill="white"/>
</g>
<path fill-rule="evenodd" clip-rule="evenodd" d="M102.635 28.8385C98.3005 28.2874 96.6931 27.2511 96.6931 27.2511L96.8255 27.756L96.061 28.2137C97.1214 29.1186 102.635 28.8385 102.635 28.8385Z" fill="white"/>
<path fill-rule="evenodd" clip-rule="evenodd" d="M126.783 20.8139C126.802 21.4537 126.611 22.5558 127.744 22.4405C128.878 22.3241 128.146 20.4646 128.146 20.4646C127.104 17.0824 125.213 16.2847 125.213 16.2847C126.517 17.3556 126.763 20.1741 126.783 20.8139Z" fill="white"/>
<path fill-rule="evenodd" clip-rule="evenodd" d="M124.785 20.795C124.916 20.0353 124.43 19.686 124.367 19.6733C124.113 20.2474 123.538 20.6359 123.553 20.8031C123.568 20.9714 123.561 20.8918 123.837 21.0901C124.113 21.2895 124.654 21.5547 124.785 20.795Z" fill="white"/>
<path fill-rule="evenodd" clip-rule="evenodd" d="M125.65 19.8479C125.065 20.4531 124.78 20.822 124.81 21.0583C124.84 21.2935 125.242 21.4237 125.483 21.4376C125.726 21.4526 125.975 21.2358 126.015 20.769C126.056 20.3021 125.65 19.8479 125.65 19.8479Z" fill="white"/>
<path fill-rule="evenodd" clip-rule="evenodd" d="M129.926 16.8743C129.926 16.8743 128.084 18.2979 128.26 19.7251C128.438 21.1511 129.736 20.683 129.795 19.913C129.854 19.1418 129.671 18.4628 129.926 16.8743Z" fill="white"/>
<path fill-rule="evenodd" clip-rule="evenodd" d="M130.573 21.2317C130.273 21.5867 129.72 21.9199 129.551 22.0236C129.381 22.1274 129.457 22.2715 129.457 22.2715C129.808 23.1407 130.445 22.7557 130.445 22.7557C130.804 23.8116 131.385 23.2006 131.385 23.2006C131.755 24.0871 132.114 23.9834 132.526 23.5822C132.937 23.1822 132.653 22.3695 132.653 22.3695C132.488 22.6242 131.665 22.9182 131.665 22.9182C131.973 22.4548 131.718 21.8807 131.718 21.8807C131.281 22.2922 130.615 22.4479 130.615 22.4479C130.855 21.8035 130.573 21.2317 130.573 21.2317Z" fill="white"/>
<path fill-rule="evenodd" clip-rule="evenodd" d="M123.12 14.1081C122.839 13.4383 123.396 13.2654 123.364 13.1075C123.333 12.9495 123.173 12.9553 122.745 12.9657C122.317 12.976 122.318 13.0821 122.318 13.0821C122.955 16.0182 124.927 14.3352 124.927 14.3352L124.599 14.0608C124.507 14.5404 123.401 14.7778 123.12 14.1081Z" fill="white"/>
<path fill-rule="evenodd" clip-rule="evenodd" d="M40.1448 16.1908C40.5605 16.0501 40.8817 15.6017 41.0429 15.2282C41.0947 15.1095 41.0889 14.9861 41.0268 14.872C40.8264 14.5008 40.0988 14.3671 40.017 14.3532C39.0706 14.193 38.4005 14.7141 37.7431 15.3124C37.347 15.6709 36.9682 16.0478 36.5664 16.4478C36.4984 16.5147 36.4305 16.5827 36.3603 16.653C36.3718 16.5781 36.3845 16.5055 36.396 16.4329C36.4823 15.898 36.5641 15.393 36.617 14.887C36.6573 14.495 36.6424 13.9394 36.039 13.6477C35.5912 13.4322 34.9752 13.5325 34.3903 13.9175C33.7098 14.3659 33.2873 15.053 33.3126 15.6697L33.3253 15.9683L33.5751 15.8057C33.7593 15.687 33.9067 15.5014 34.0495 15.3227C34.3799 14.9089 34.5307 14.7694 34.822 14.9642C35.0569 15.1187 34.9683 15.5037 34.8186 16.0294C34.7817 16.1573 34.7461 16.2818 34.7207 16.3983C34.5814 17.0254 34.449 17.6536 34.3166 18.2819C34.0978 19.3217 33.8722 20.3973 33.6143 21.444C33.5314 21.7806 33.4692 22.1045 33.6246 22.3558C33.7363 22.5345 33.9401 22.6521 34.2636 22.7224C34.3673 22.7455 34.4617 22.757 34.548 22.757C34.7 22.757 34.8243 22.7213 34.9234 22.6486C35.1421 22.4884 35.1675 22.2094 35.1893 21.965C35.1962 21.8936 35.202 21.8232 35.2135 21.7598C35.514 20.0987 36.0126 18.1955 37.4403 16.6623C38.0159 16.0432 38.5272 15.6109 39.4287 16.1147C39.6647 16.2461 39.9053 16.2715 40.1448 16.1908Z" fill="white"/>
<path fill-rule="evenodd" clip-rule="evenodd" d="M57.7807 25.7937L57.7254 25.4641L57.3224 25.8767C56.6754 26.5488 56.1642 27.0802 55.3478 26.6987C54.4106 26.2606 54.2771 25.3326 54.2207 24.4196C54.1723 23.6484 54.2932 22.9199 54.581 22.2547C54.6501 22.0933 54.7203 21.9481 54.7894 21.8109C55.5643 20.4183 56.6581 20.7469 56.8607 20.8241C57.1002 20.9313 57.3558 21.0754 57.646 21.2679C58.3552 21.7383 58.7168 21.2691 58.9321 20.989C58.9735 20.9348 59.0138 20.8829 59.0553 20.8391C59.1923 20.6916 59.2498 20.5451 59.2257 20.4045C59.1877 20.1786 58.9585 20.0564 58.7743 19.9595C58.7144 19.9273 58.6569 19.8973 58.612 19.865C58.2597 19.6126 57.8394 19.4569 57.3616 19.4039C55.7497 19.2275 54.1285 20.2835 53.3283 22.0357C52.4291 24.0046 52.6559 26.3609 53.8442 27.3996C54.2794 27.7788 54.7652 27.969 55.3145 27.969C55.7105 27.969 56.1388 27.8699 56.604 27.6716C57.1589 27.4365 57.9971 27.0802 57.7807 25.7937Z" fill="white"/>
<path fill-rule="evenodd" clip-rule="evenodd" d="M14.2255 18.7681C14.1852 17.6407 14.374 16.6113 14.7839 15.7121C15.6048 14.0314 17.1937 13.9691 17.4585 13.9691C17.4792 13.9691 17.4919 13.9703 17.4954 13.9703C17.7533 14.0268 17.9156 14.1201 18.0054 14.2619C18.1275 14.4533 18.1344 14.7622 18.0284 15.2349C17.6232 17.0447 16.7239 18.4292 15.3561 19.3503C14.9842 19.6004 14.6952 19.6846 14.5202 19.5947C14.3441 19.5048 14.2416 19.2189 14.2255 18.7681ZM20.8458 18.1041L20.5661 18.2425C20.2402 18.4062 20.0882 18.669 19.9547 18.9019C19.8983 18.9987 19.8453 19.0909 19.7843 19.1682C19.7497 19.212 19.7163 19.2581 19.6818 19.3042C19.4907 19.5636 19.3629 19.7157 19.1706 19.6627C18.9921 19.6131 18.9737 19.5324 19.0589 19.1831C19.0773 19.1071 19.0958 19.0344 19.1038 18.9699C19.1522 18.6021 19.1982 18.2333 19.2443 17.8644C19.4078 16.5479 19.577 15.1888 19.8867 13.8896C19.9915 13.4538 19.9789 13.176 19.8465 12.9858C19.676 12.7403 19.3491 12.7022 18.9714 12.6573C17.3883 12.4671 15.7499 13.0596 14.4742 14.2792C13.0488 15.643 12.2797 17.5958 12.419 19.5059C12.4788 20.3348 12.7425 20.88 13.2008 21.1256C13.3735 21.2178 13.5646 21.2639 13.7764 21.2639C14.1311 21.2639 14.5409 21.1325 14.9992 20.872C15.8282 20.4016 16.4499 19.7065 17.1096 18.9699C17.1649 18.9076 17.2213 18.8454 17.2777 18.782C17.2939 19.1878 17.3192 19.8195 17.3342 20.3451C17.3537 20.6933 17.4528 20.9319 17.637 21.0783C17.8235 21.2259 18.0849 21.2674 18.4372 21.2028C19.463 21.0184 20.6835 19.5855 20.8113 18.4142L20.8458 18.1041Z" fill="white"/>
<path fill-rule="evenodd" clip-rule="evenodd" d="M51.3137 19.6368C51.2791 19.7301 51.2434 19.8224 51.2192 19.9123L51.1375 20.2143C50.7656 21.5988 50.4144 22.906 49.2032 23.7752C48.8117 24.0554 48.525 24.1868 48.2176 24.03C47.8987 23.8675 47.8975 23.5516 47.9217 22.9971C48.1451 21.4432 48.4537 19.9653 49.7743 18.967C50.0541 18.7549 50.3166 18.6119 50.5998 18.6119C50.7725 18.6119 50.9533 18.6661 51.1502 18.7895C51.5232 19.0246 51.4633 19.2414 51.3137 19.6368ZM52.1185 25.0779C51.978 25.2485 51.8341 25.4249 51.6821 25.5851C51.5934 25.6785 51.4622 25.7073 51.385 25.6577C51.3597 25.6278 51.3309 25.4986 51.3482 25.4237C51.4852 24.8346 51.5911 24.2248 51.6936 23.6346C51.9239 22.2985 52.1634 20.9187 52.7897 19.7209C53.0292 19.2633 53.0983 18.9232 53.0073 18.6511C52.8945 18.3088 52.5548 18.1462 52.1944 17.9733L52.1058 17.9307C51.9147 17.8384 51.704 17.7785 51.4979 17.7566C51.4242 17.7404 49.6776 17.3773 47.9102 19.4085C47.6615 19.6725 47.4439 19.9607 47.2562 20.2754L47.019 20.6535L47.0616 20.6408C46.6046 21.585 46.4134 22.7112 46.494 23.9966C46.532 24.6087 46.7738 25.0675 47.1733 25.2888C47.6062 25.5286 48.1854 25.4744 48.8025 25.1367C49.1456 24.9499 49.4599 24.7148 49.7915 24.4669C49.8813 24.4 49.9735 24.332 50.0679 24.2629C50.1151 24.5626 50.0679 24.8473 50.0195 25.1447C49.9838 25.3672 49.9458 25.5978 49.9527 25.8306C49.9677 26.2918 50.0771 26.5972 50.2889 26.7667C50.4052 26.8601 50.548 26.9073 50.7149 26.9073C50.7783 26.9073 50.8462 26.9004 50.9164 26.8854C51.9745 26.6779 52.5744 25.9955 52.6055 24.9672L52.6193 24.4773L52.305 24.8519C52.2417 24.9269 52.1795 25.0018 52.1185 25.0779Z" fill="white"/>
<path fill-rule="evenodd" clip-rule="evenodd" d="M31.3077 17.33C31.2847 18.2361 31.2582 19.2632 30.7182 20.1255C30.4419 20.5647 30.1034 20.8068 29.7637 20.8068C29.4321 20.8068 29.1028 20.5728 28.838 20.1485C28.1219 19.0004 28.3429 15.8752 29.2122 14.8412C29.4344 14.576 29.7062 14.4342 29.9871 14.4342C30.0147 14.4342 30.0412 14.4365 30.0688 14.4388C30.3993 14.4711 30.6952 14.6948 30.9013 15.0671C31.2824 15.7599 31.3112 16.5346 31.3077 17.33ZM31.1857 13.2561C30.2807 13.0002 29.4333 13.3034 28.6653 14.1599C27.4552 15.5121 26.8369 17.149 26.9245 18.7629C26.9291 19.156 26.9578 19.5088 27.0062 19.8269L26.8934 19.8753C25.9918 20.2534 25.1525 20.0298 24.2636 19.7912C23.7398 19.6505 23.2009 19.5064 22.6264 19.4811C23.2965 18.5646 24.0587 17.7392 24.799 16.9381C25.803 15.851 26.8404 14.7282 27.6348 13.3852L27.7983 13.1097L27.4794 13.1281C27.3044 13.1385 27.1432 13.1523 26.9901 13.1662C26.5514 13.2054 26.2037 13.2353 25.8663 13.135C25.4173 13.0013 24.936 12.8745 24.3062 12.7224C23.3874 12.4999 22.6229 12.6278 22.0945 13.0924C21.5199 13.5973 21.2793 14.4481 21.3979 15.5524L21.4416 15.9559L21.6995 15.6435C22.9683 14.0999 24.0138 13.7737 25.2699 14.5437C24.6873 15.4245 23.97 16.2003 23.2124 17.0199C22.0553 18.2707 20.8602 19.5641 20.1083 21.3117L19.9575 21.6621L20.319 21.5399C21.6431 21.0915 22.7576 20.8564 23.8929 21.1607C24.5584 21.3394 25.1076 21.4362 25.62 21.4662C26.5019 21.518 26.9509 21.1538 27.0949 20.273C27.3274 21.1895 27.8006 21.7359 28.5398 21.9584C28.7183 22.0126 28.9198 22.0483 29.1385 22.0483C29.8271 22.0483 30.6906 21.6933 31.5794 20.4264C32.6755 18.8632 33.0612 17.1363 32.725 15.2919C32.5811 14.5069 32.2772 13.5662 31.1857 13.2561Z" fill="white"/>
<mask id="mask1_189_3573" style="mask-type:luminance" maskUnits="userSpaceOnUse" x="1" y="10" width="12" height="15">
<g opacity="0.7">
<path d="M1.32861 10.0107H12.0553V24.6239H1.32861V10.0107Z" fill="white"/>
</g>
</mask>
<g mask="url(#mask1_189_3573)">
<path fill-rule="evenodd" clip-rule="evenodd" d="M5.29942 11.7393C5.32245 11.5214 5.34663 11.5099 5.4019 11.5053C5.50207 11.4949 5.60339 11.4845 5.70355 11.473C5.99255 11.4419 6.27348 11.4107 6.54636 11.4107C6.9643 11.4107 7.36037 11.4834 7.72075 11.7393C8.18936 12.0701 8.33098 12.5554 8.19281 13.3612C7.94412 14.816 6.80887 15.6806 4.817 15.9308L5.29942 11.7393ZM11.6849 18.3712L11.5479 18.7401C11.3614 19.2473 11.1553 19.5816 10.8387 19.8929C10.2837 20.4381 9.88993 20.6629 9.571 20.626C9.26013 20.5892 8.95157 20.3021 8.57277 19.6957C8.30335 19.2658 8.06847 18.8 7.84165 18.3482C7.68045 18.0288 7.51466 17.6991 7.3362 17.381C7.09441 16.951 7.14737 16.7101 7.55956 16.3469C8.57507 15.4512 9.56985 14.4172 9.96132 12.9359C10.2618 11.8004 9.91987 10.8862 8.99877 10.3617C7.51005 9.51211 3.72896 10.3029 2.67776 11.6851L2.65012 11.722C2.51311 11.9007 2.32429 12.1439 2.39567 12.3698C2.421 12.4482 2.48663 12.5531 2.66049 12.6085C3.37318 12.8321 3.47796 13.201 3.41463 13.6782L3.37434 13.9249C3.35937 13.9964 3.34325 14.0679 3.32713 14.1394C3.28223 14.3376 3.23617 14.5428 3.22351 14.7353L2.13201 21.32C1.94434 22.0774 1.73709 22.8532 1.49876 23.6936C1.48955 23.7236 1.46537 23.7697 1.44234 23.8146C1.36059 23.9726 1.16716 24.3426 1.60468 24.5824C1.65649 24.61 1.72442 24.6239 1.80387 24.6239C2.23218 24.6227 2.98632 24.2469 3.34901 23.9887C3.65182 23.7743 3.77962 23.5944 3.75198 23.4227C3.5528 22.2065 3.84985 21.0872 4.16417 19.9032L4.28161 19.4583C4.37027 19.1124 4.48195 18.6571 4.55564 18.1971L4.72719 17.4075C4.74562 17.4029 4.76864 17.3994 4.79512 17.3971C5.07836 17.3741 5.20962 17.5251 5.39038 17.8651L5.54351 18.1533C5.98909 18.9949 6.44964 19.8652 6.99884 20.6618C7.86813 21.9264 8.52441 22.4705 9.19335 22.482C9.89223 22.4866 10.5405 21.9759 11.4857 20.6952L11.5686 20.5857C11.8968 20.1522 12.3044 19.6139 11.8599 18.7228L11.6849 18.3712Z" fill="white"/>
</g>
<path fill-rule="evenodd" clip-rule="evenodd" d="M45.4084 19.2266C45.0469 20.3587 44.3561 21.4515 43.4096 22.3876C42.5196 23.0827 41.9854 22.9386 41.9808 22.9374C41.8012 22.866 41.6146 22.7564 41.4258 22.6124C41.0816 22.3518 41.1242 22.0579 41.3326 21.5737C42.0418 19.9252 42.7107 18.3678 44.4309 17.645C44.66 17.5494 44.835 17.5113 44.972 17.5113C45.2265 17.5113 45.3462 17.6439 45.4211 17.7834C45.4464 17.9067 45.5684 18.5569 45.4084 19.2266ZM46.6588 16.5972C46.28 16.2098 45.6721 16.0749 44.9018 16.2052L44.8926 16.2075C44.6036 16.2732 44.112 16.4312 43.3993 16.8208L43.3693 16.8404C43.1402 16.996 42.903 17.1563 42.6348 17.2796L42.6279 17.2831C42.6198 17.2865 42.6129 17.29 42.6048 17.2946C43.078 15.3487 43.7113 13.3429 45.3117 11.7174L45.5915 11.4339L45.1931 11.4281C43.222 11.4062 42.5749 11.8708 42.2801 13.5319C42.2537 13.6818 42.2145 13.8743 42.142 14.0484C41.3406 15.9724 40.7776 18.0024 40.233 19.9656C40.1133 20.4002 39.9924 20.8336 39.8692 21.2659C39.8323 21.3962 39.7529 21.538 39.6677 21.689C39.442 22.089 39.1323 22.6366 39.7264 23.1426C40.2514 23.5876 40.8858 23.8769 41.5617 23.9795C41.7551 24.0084 41.9451 24.0222 42.1316 24.0222C43.1229 24.0222 44.0245 23.6118 44.8178 22.7979C46.0175 21.5645 46.7394 20.2376 47.0261 18.7425C47.2115 17.7753 47.0848 17.0329 46.6588 16.5972Z" fill="white"/>
<mask id="mask2_189_3573" style="mask-type:luminance" maskUnits="userSpaceOnUse" x="156" y="18" width="7" height="13">
<g opacity="0.7">
<path d="M156.407 18.0189H162.52V30.4297H156.407V18.0189Z" fill="white"/>
</g>
</mask>
<g mask="url(#mask2_189_3573)">
<path fill-rule="evenodd" clip-rule="evenodd" d="M162.385 23.7805C162.091 23.2272 161.336 22.9309 159.933 22.8191C159.754 22.8041 159.555 22.8099 159.361 22.8156C158.596 22.8375 158.121 22.8087 158.018 22.2531C158.002 22.1666 157.997 22.0825 158 22.0283C158.263 21.1545 160.031 20.5297 160.051 20.5228C160.829 20.2426 161.123 19.5337 161.464 18.7129L161.755 18.0189L161.336 18.2368C159.501 19.1901 157.671 20.3706 156.712 22.5401C156.364 23.324 156.316 23.8796 156.558 24.2866C156.802 24.6958 157.32 24.9194 158.188 24.9886L158.567 25.0174C159.078 25.0543 159.607 25.0924 160.11 25.1892C160.424 25.2491 160.824 25.384 160.947 25.6872C161.047 25.9327 160.957 26.2694 160.685 26.6601C160.378 27.104 159.738 27.8648 158.894 27.9847C157.559 28.176 157.084 29.1133 156.626 30.0182L156.416 30.4297L156.755 30.3686C158.575 30.0366 160.652 28.3847 161.806 26.35C162.5 25.1269 162.678 24.335 162.385 23.7805Z" fill="white"/>
</g>
<path fill-rule="evenodd" clip-rule="evenodd" d="M156.562 27.2089L156.539 26.6337L155.062 29.1295L155.2 29.2309L155.054 29.1433C155.023 29.1952 154.996 29.2344 154.976 29.2632C154.824 28.8874 154.894 28.4885 154.969 28.0678C155 27.896 155.03 27.7242 155.046 27.5548C155.113 26.8182 155.206 26.0689 155.296 25.3449C155.377 24.6878 155.461 24.0088 155.527 23.3379L155.541 23.2111C155.585 22.8376 155.65 22.2728 155.073 22.0549C154.539 21.8531 154.151 22.2451 153.867 22.5321L153.82 22.5805C153.79 22.6071 153.097 23.2342 152.406 24.4757L151.753 25.5709C151.753 25.2123 151.753 24.8919 151.753 24.7339C151.755 24.6924 151.755 24.6521 151.754 24.6117C151.741 24.2417 151.589 23.9766 151.3 23.8221C151.235 23.7864 151.17 23.7598 151.105 23.7414L151.229 23.6169L150.754 23.7195C150.724 23.7253 150.694 23.7322 150.664 23.7391L150.619 23.7529C150.508 23.7898 150.4 23.8498 150.295 23.9316C149.86 24.2382 148.993 25.0855 147.856 27.3796C147.859 26.9161 147.86 26.5127 147.847 26.108C147.837 25.753 147.745 25.5259 147.567 25.4164C147.396 25.3115 147.175 25.323 146.891 25.4544C146.058 25.8406 144.809 28.0413 144.834 29.0776L144.845 29.5237L145.134 29.1848C145.336 28.9473 145.472 28.6707 145.603 28.4032C145.79 28.024 145.967 27.6631 146.315 27.3796C146.322 27.4591 146.324 27.5882 146.313 27.7911C146.226 28.7652 146.247 29.7232 146.268 30.6488C146.297 31.9399 146.323 33.1596 146.084 34.415L146.021 34.74L146.322 34.6017C147.753 33.9446 147.78 32.7596 147.803 31.714L147.806 31.5469C147.858 29.4995 148.316 27.9052 149.245 26.5277C149.289 26.4631 149.333 26.3893 149.379 26.3144C149.634 25.8856 149.778 25.7207 150.012 25.8072C150.177 25.8694 150.165 26.1115 150.128 26.4746C150.117 26.5922 150.105 26.7063 150.105 26.8112C150.103 28.2292 150.103 29.6459 150.103 31.0742L150.104 32.9002L150.352 32.7723C151.055 32.4103 151.447 31.8523 151.623 30.9647C151.77 30.2177 151.811 29.458 151.85 28.7225C151.868 28.3675 151.887 28.0136 151.916 27.6666C151.941 27.4706 152.047 26.9161 152.493 26.0147L152.872 25.2827C153.009 25.0175 153.452 24.289 153.846 24.1195C153.846 24.1195 153.938 24.1875 153.937 24.6002C153.931 24.6452 153.927 24.6878 153.926 24.7293C153.918 25.0705 153.877 25.421 153.839 25.7599L153.815 25.9743C153.757 26.4931 153.699 27.0118 153.64 27.5294C153.547 28.3444 153.455 29.1594 153.368 29.9756C153.341 30.2327 153.267 30.9174 153.939 31.0973C154.211 31.1699 154.483 31.1342 154.726 30.9912C154.795 30.9509 154.864 30.8978 154.911 30.8517C154.911 30.8517 154.93 30.8402 154.953 30.816C156.634 29.4638 156.566 27.3 156.562 27.2089Z" fill="white"/>
<mask id="mask3_189_3573" style="mask-type:luminance" maskUnits="userSpaceOnUse" x="121" y="26" width="18" height="15">
<g opacity="0.7">
<path d="M121.651 26.4137H138.626V40.4183H121.651V26.4137Z" fill="white"/>
</g>
</mask>
<g mask="url(#mask3_189_3573)">
<path fill-rule="evenodd" clip-rule="evenodd" d="M136.162 31.1147C135.993 33.0779 135.555 34.58 134.787 35.8423C134.753 35.8999 134.717 35.961 134.68 36.0244C134.433 36.4567 134.236 36.7576 133.909 36.6746C133.886 36.6711 133.86 36.6584 133.822 36.6308C133.753 36.5847 133.708 36.5063 133.674 36.3691C133.46 35.7374 133.562 34.4059 133.647 33.7846C133.716 33.1471 133.836 32.5868 134.012 32.0796C134.567 30.6225 135.397 30.4196 135.635 30.3919C135.673 30.3885 135.709 30.3873 135.743 30.3873C135.884 30.3873 135.985 30.4184 136.048 30.4807C136.152 30.5833 136.19 30.7966 136.162 31.1147ZM137.869 34.799C137.772 35.0434 137.679 35.2751 137.524 35.4676C137.453 35.5195 137.387 35.5437 137.373 35.5437C137.373 35.5437 137.369 35.5391 137.364 35.5276C137.326 35.4192 137.335 35.2889 137.346 35.1518C137.35 35.093 137.355 35.0342 137.356 34.9765C137.379 33.7707 137.405 32.5649 137.432 31.3603L137.469 29.6841C137.469 28.7584 137.106 28.6097 136.86 28.6051C136.286 28.6904 134.869 29.0086 134.099 30.106C134.061 30.151 133.574 30.747 133.106 31.7372L132.834 31.7557C132.45 31.781 132.077 31.8064 131.711 31.8294C130.835 31.8859 130.008 31.9401 129.179 32.0116C128.928 32.0346 128.838 31.9978 128.807 31.9632C128.776 31.9286 128.748 31.8306 128.797 31.5689L128.818 31.4502C128.972 30.6236 129.129 29.7694 129.133 28.921C129.135 28.2455 129.384 28.0956 130.085 28.0114C130.375 27.9769 130.67 27.9884 130.98 28.0011C131.583 28.0253 132.205 28.0506 132.798 27.714L133.015 27.5907L132.821 27.4339C132.231 26.9555 131.53 26.7376 130.851 26.5267L130.658 26.4667L130.623 26.4587C130.306 26.431 129.993 26.4114 129.691 26.4195L129.697 26.4137L129.294 26.4287C129.294 26.4287 129.223 26.431 129.097 26.4402L129.037 26.446C128.169 26.5163 125.186 26.8875 123.24 28.6443C122.898 28.9406 122.786 29.1412 122.774 29.1654C121.93 30.2202 121.559 31.4732 121.671 32.89C121.741 33.7823 122.316 33.9702 122.784 33.9713H122.788C123.683 33.9713 123.8 33.2208 123.838 32.9742C123.87 32.7643 123.874 32.5338 123.854 32.2479C123.689 30.0449 124.633 28.8115 126.827 28.3677C127.219 28.2881 127.347 28.34 127.387 28.3769C127.473 28.4564 127.448 28.7158 127.416 28.9752C127.326 29.691 127.246 30.4081 127.165 31.1251C127.03 32.3298 126.89 33.5736 126.71 34.7909C126.417 36.7818 125.499 37.9553 123.902 38.3772C123.242 38.5524 122.91 38.7865 123.047 39.5208C123.156 40.1122 123.515 40.4188 124.089 40.4188C124.163 40.4188 124.243 40.413 124.326 40.4027C125.144 40.2978 126.071 40.073 126.733 39.2072C127.835 37.7663 128.404 36.3172 128.426 34.9004C128.434 34.3252 128.549 33.9425 128.778 33.7327C129.017 33.5137 129.402 33.4399 130.068 33.4883C131.347 33.5794 132.293 33.109 132.962 32.0565C132.595 32.9142 132.273 34.014 132.237 35.2855V35.3304C132.202 35.8561 132.209 36.3898 132.255 36.9167C132.262 36.9893 132.267 37.0631 132.271 37.1391C132.305 37.666 132.347 38.3219 132.997 38.5536C133.131 38.602 133.257 38.6228 133.376 38.6228C134.034 38.6228 134.446 37.9634 134.662 37.6198C135.058 36.987 135.401 36.3437 135.798 35.5979C135.869 35.4653 135.942 35.3293 136.016 35.1921C136.016 35.2267 136.015 35.2624 136.015 35.297C136.006 35.8169 135.998 36.2653 136.036 36.7126C136.066 37.0769 136.23 37.3524 136.473 37.4492C136.597 37.4977 136.853 37.5392 137.164 37.2602C138.006 36.5051 138.485 35.4561 138.586 34.1408L138.626 33.6128L138.286 34.0186C138.086 34.256 137.976 34.5316 137.869 34.799Z" fill="white"/>
</g>
<path fill-rule="evenodd" clip-rule="evenodd" d="M145.256 25.6096L144.939 25.6661C142.915 26.0223 142.26 27.4045 141.567 28.8674C141.43 29.1567 141.29 29.4507 141.138 29.74C141.138 29.6858 141.139 29.6328 141.141 29.5809C141.147 29.0749 141.154 28.638 141.121 28.2091C141.09 27.8114 140.917 27.5094 140.657 27.3999C140.527 27.3469 140.259 27.2961 139.925 27.5786C139.083 28.2887 138.103 29.3227 137.993 31.0219L137.973 31.3355L138.246 31.181C138.269 31.1683 138.291 31.1556 138.312 31.1418L138.309 31.5245L138.634 30.8202C138.7 30.7187 138.751 30.6058 138.789 30.4859L139.177 29.6432C139.295 29.4115 139.364 29.3527 139.496 29.3746C139.682 29.4034 139.706 29.4691 139.659 29.8138C139.646 29.9037 139.635 29.9902 139.636 30.0651C139.652 31.611 139.65 33.1303 139.648 34.7385L139.647 36.5414L139.882 36.4446C140.887 36.0296 141.279 35.4394 141.191 34.4699C141.025 32.6243 141.409 30.8352 142.331 29.151C142.362 29.0922 142.394 29.0311 142.427 28.97C142.622 28.5976 142.824 28.2126 143.17 28.1296C144.247 27.8737 144.613 27.0517 145.037 26.0995L145.256 25.6096Z" fill="white"/>
<path fill-rule="evenodd" clip-rule="evenodd" d="M136.277 27.4763L136.307 27.4867C136.315 27.4878 136.4 27.5063 136.561 27.5063C136.782 27.5063 137.147 27.4717 137.653 27.3126C137.867 27.2365 138.08 27.1593 138.29 27.0728C139.587 26.5379 140.379 25.2157 140.217 23.8554L140.192 23.6433L139.99 23.7148C139.796 23.7863 139.599 23.8543 139.403 23.9223C138.923 24.0883 138.425 24.26 137.95 24.4664C137.892 24.4918 137.828 24.5079 137.762 24.5252C137.517 24.5897 137.146 24.6877 137.113 25.1903C137.073 25.7852 136.803 26.3224 136.264 26.8803C136.168 26.9806 136.059 27.1166 136.09 27.2688C136.103 27.3322 136.146 27.4198 136.277 27.4763Z" fill="white"/>
<path fill-rule="evenodd" clip-rule="evenodd" d="M62.1633 24.9421C61.743 25.0747 61.3101 24.9721 60.9416 24.8533C60.9186 24.843 60.7643 24.7738 60.7252 24.647C60.6976 24.5536 60.7344 24.436 60.8277 24.3058L60.9509 24.1548C61.0061 24.096 61.0487 24.0429 61.0787 23.9991L61.3769 23.6325C61.8627 23.2003 62.3141 23.1484 62.8391 23.4642C63.0636 23.5991 63.0855 23.7259 63.0774 23.8354C63.074 23.8677 62.9738 24.6447 62.1633 24.9421ZM63.9329 21.9287C63.4079 21.7431 62.8575 21.7397 62.1483 21.9161C61.8363 21.9944 61.614 21.9818 61.5035 21.8792C61.3757 21.7593 61.3907 21.5011 61.4275 21.2901C61.5139 20.2192 62.0608 19.365 62.6411 18.46C62.9312 18.007 63.2306 17.539 63.4678 17.041L63.5737 16.8196L63.3296 16.7977C62.4281 16.7182 61.7177 16.8946 61.2157 17.3245C60.7563 17.7165 60.4961 18.2998 60.442 19.056C60.4316 19.2093 60.3763 19.3673 60.3176 19.5344C60.2877 19.6186 60.2589 19.7027 60.2336 19.7869C60.0367 20.4682 59.8409 21.1506 59.6452 21.8319C59.073 23.8251 58.4812 25.8851 57.871 27.9024C57.7823 28.1929 57.7466 28.4258 57.8537 28.616C57.9377 28.7647 58.0955 28.8638 58.3511 28.9284C58.6366 29.001 58.9072 29.0679 59.134 28.9238C59.294 28.8212 59.3954 28.6344 59.4518 28.3359C59.5669 27.7238 59.7477 27.1174 59.9572 26.4142C60.0079 26.2424 60.062 26.0649 60.1161 25.8793C60.2059 26.164 60.29 26.4407 60.3706 26.7105C60.6596 27.6638 60.9324 28.5641 61.3458 29.393C61.4137 29.529 61.5116 29.7134 61.644 29.8841C61.9088 30.1653 62.3889 30.4259 63.2133 30.2564C63.5806 30.1757 63.8776 30.0305 64.0826 29.8068C64.4314 29.4276 64.3992 28.9872 64.3969 28.9688L64.3796 28.7601L64.1793 28.8189C62.8034 29.2293 62.7113 29.182 62.2013 27.831C62.0228 27.356 61.8754 26.8661 61.7188 26.3473C61.6682 26.1767 61.6152 26.0027 61.5611 25.8251C62.6629 25.8539 63.9571 25.8032 64.7147 24.504L64.9001 24.0037C65.1925 22.9098 64.8931 22.27 63.9329 21.9287Z" fill="white"/>
</g>
</g>
<defs>
<clipPath id="clip0_189_3573">
<rect width="163.333" height="40" fill="white" transform="translate(0 0.649414)"/>
</clipPath>
</defs>
</svg>
