<svg width="144" height="40" viewBox="0 0 144 40" fill="none" xmlns="http://www.w3.org/2000/svg">
<g opacity="0.7">
<mask id="mask0_189_3481" style="mask-type:luminance" maskUnits="userSpaceOnUse" x="0" y="0" width="35" height="40">
<g opacity="0.7">
<path d="M0.402344 0.209595H34.5974V39.7146H0.402344V0.209595Z" fill="white"/>
</g>
</mask>
<g mask="url(#mask0_189_3481)">
<path fill-rule="evenodd" clip-rule="evenodd" d="M28.0252 21.0028H20.3499V28.5013H14.6487V21.0028H6.97454V15.4322H14.6487V7.93267H20.3499V15.4322H28.0252V21.0028ZM33.2269 0.209595H1.77293C1.01469 0.209595 0.402344 0.808995 0.402344 1.54879V26.121C0.402344 26.5281 0.592458 26.9148 0.918525 27.1675L16.6449 39.4222C17.1445 39.8121 17.8541 39.8121 18.3549 39.4222L34.0813 27.1675C34.4073 26.9148 34.5974 26.5281 34.5974 26.121V1.54879C34.5974 0.808995 33.984 0.209595 33.2269 0.209595Z" fill="white"/>
</g>
<mask id="mask1_189_3481" style="mask-type:luminance" maskUnits="userSpaceOnUse" x="0" y="0" width="145" height="40">
<g opacity="0.7">
<path d="M0.401855 39.7147H144.093V0.209351H0.401855V39.7147Z" fill="white"/>
</g>
</mask>
<g mask="url(#mask1_189_3481)">
<path fill-rule="evenodd" clip-rule="evenodd" d="M14.6494 21.0026H20.3495V15.432H14.6494V21.0026Z" fill="white"/>
</g>
<mask id="mask2_189_3481" style="mask-type:luminance" maskUnits="userSpaceOnUse" x="0" y="0" width="145" height="40">
<g opacity="0.7">
<path d="M0.401855 39.7147H144.093V0.209351H0.401855V39.7147Z" fill="white"/>
</g>
</mask>
<g mask="url(#mask2_189_3481)">
<path fill-rule="evenodd" clip-rule="evenodd" d="M51.6976 19.4008C51.6556 18.8057 51.5031 18.2517 51.2411 17.7344C50.9791 17.2181 50.6354 16.7678 50.2098 16.3855C49.7865 16.0031 49.2957 15.7007 48.742 15.4815C48.1882 15.2623 47.5991 15.151 46.9746 15.151C46.3501 15.151 45.7609 15.2623 45.2061 15.4815C44.6523 15.7007 44.1682 16.0042 43.7515 16.3909C43.3348 16.7775 42.9954 17.2289 42.7335 17.7463C42.4704 18.2625 42.319 18.8144 42.277 19.4008H51.6976ZM42.3146 20.389C42.3643 20.9755 42.5202 21.5209 42.7832 22.0252C43.0452 22.5296 43.3845 22.9691 43.8001 23.3428C44.2168 23.7176 44.6943 24.0135 45.2315 24.2284C45.7687 24.4444 46.3457 24.5524 46.9624 24.5524C47.6776 24.5524 48.3474 24.4099 48.9675 24.1247C49.5875 23.8396 50.0894 23.453 50.4729 22.9648C50.673 22.8017 50.873 22.7542 51.0731 22.8179C51.1715 22.8503 51.2599 22.9249 51.335 23.0383C51.4268 23.1441 51.4743 23.2726 51.4787 23.4227C51.4832 23.5729 51.4091 23.7133 51.2599 23.8439C50.7769 24.3742 50.1745 24.8105 49.4549 25.1561C48.7331 25.5017 47.903 25.6756 46.9624 25.6756C46.1379 25.6756 45.3652 25.5223 44.6446 25.2177C43.9239 24.9131 43.2928 24.4973 42.7512 23.9714C42.2096 23.4476 41.7829 22.8309 41.4712 22.1235C41.1584 21.4139 41.0015 20.6579 41.0015 19.8523C41.0015 19.0466 41.1584 18.2917 41.4712 17.5875C41.7829 16.8833 42.2096 16.2699 42.7512 15.7439C43.2928 15.2191 43.9239 14.8043 44.6446 14.4987C45.3652 14.1941 46.1379 14.0408 46.9624 14.0408C47.7781 14.0408 48.5486 14.192 49.2736 14.4922C49.9976 14.7935 50.6287 15.2072 51.167 15.7321C51.7031 16.2569 52.1309 16.8715 52.447 17.5756C52.7631 18.2798 52.9212 19.0304 52.9212 19.8285C52.9212 19.9905 52.8681 20.1244 52.7598 20.2313C52.6504 20.3361 52.5133 20.389 52.3475 20.389H42.3146Z" fill="white"/>
</g>
<mask id="mask3_189_3481" style="mask-type:luminance" maskUnits="userSpaceOnUse" x="0" y="0" width="145" height="40">
<g opacity="0.7">
<path d="M0.401855 39.7147H144.093V0.209351H0.401855V39.7147Z" fill="white"/>
</g>
</mask>
<g mask="url(#mask3_189_3481)">
<path fill-rule="evenodd" clip-rule="evenodd" d="M54.7213 15.6652C55.0871 15.177 55.537 14.7796 56.0709 14.4739C56.6025 14.1694 57.1828 14.0171 57.8073 14.0171C58.5479 14.0171 59.2122 14.1942 59.8002 14.5474C60.3871 14.9016 60.8514 15.3638 61.1918 15.933C61.393 15.6479 61.6251 15.3876 61.8926 15.1511C62.1589 14.9167 62.4519 14.7148 62.7735 14.5474C63.094 14.381 63.429 14.2504 63.7782 14.1575C64.1286 14.0635 64.4867 14.0171 64.8537 14.0171C65.3942 14.0171 65.9004 14.1143 66.3713 14.3098C66.8422 14.5053 67.25 14.7742 67.596 15.1154C67.9419 15.4578 68.2183 15.8585 68.4261 16.3175C68.635 16.7776 68.7466 17.2679 68.7643 17.7895C68.772 17.8133 68.7765 17.8468 68.7765 17.8867V24.9434C68.7765 25.1054 68.7201 25.2437 68.6073 25.3582C68.4957 25.4716 68.3564 25.5288 68.1895 25.5288C68.0315 25.5288 67.8911 25.4716 67.7717 25.3582C67.6501 25.2437 67.5905 25.1054 67.5905 24.9434V17.8749C67.5905 17.4915 67.5098 17.1372 67.3528 16.8121C67.1937 16.487 66.9836 16.2041 66.7206 15.9632C66.4586 15.7246 66.1569 15.5366 65.8153 15.4027C65.4749 15.2677 65.1157 15.2008 64.741 15.2008C64.3497 15.2008 63.9728 15.2764 63.6102 15.4265C63.2477 15.5777 62.9293 15.7786 62.6552 16.0313C62.38 16.2829 62.1589 16.5767 61.992 16.9093C61.8262 17.2441 61.7433 17.593 61.7433 17.9602V24.9434C61.7433 25.1054 61.687 25.2437 61.5731 25.3582C61.4615 25.4716 61.3222 25.5288 61.1553 25.5288C60.9884 25.5288 60.8469 25.4716 60.7309 25.3582C60.6137 25.2437 60.5551 25.1054 60.5551 24.9434V17.8986C60.5551 17.5163 60.4789 17.161 60.3241 16.8305C60.1705 16.5 59.9638 16.216 59.7063 15.9762C59.4476 15.7354 59.1481 15.5474 58.8065 15.4081C58.465 15.2699 58.1069 15.2008 57.7322 15.2008C57.332 15.2008 56.9518 15.2742 56.5882 15.42C56.2256 15.5669 55.9073 15.7667 55.6321 16.0183C55.3579 16.2721 55.1369 16.5637 54.9711 16.8985C54.8042 17.2312 54.7213 17.5811 54.7213 17.9472V24.9305C54.7213 25.0936 54.6638 25.234 54.5522 25.3517C54.4394 25.4694 54.3002 25.5288 54.1344 25.5288C53.9664 25.5288 53.8249 25.4694 53.7088 25.3517C53.5928 25.234 53.5342 25.0936 53.5342 24.9305V14.6143C53.5342 14.4523 53.5928 14.3141 53.7088 14.2007C53.8249 14.0862 53.9664 14.029 54.1344 14.029C54.3002 14.029 54.4394 14.0862 54.5522 14.2007C54.6638 14.3141 54.7213 14.4523 54.7213 14.6143V15.6652Z" fill="white"/>
</g>
<mask id="mask4_189_3481" style="mask-type:luminance" maskUnits="userSpaceOnUse" x="0" y="0" width="145" height="40">
<g opacity="0.7">
<path d="M0.401855 39.7147H144.093V0.209351H0.401855V39.7147Z" fill="white"/>
</g>
</mask>
<g mask="url(#mask4_189_3481)">
<path fill-rule="evenodd" clip-rule="evenodd" d="M80.0614 19.4008C80.0194 18.8057 79.8668 18.2517 79.6049 17.7344C79.3429 17.2181 78.9991 16.7678 78.5736 16.3855C78.1503 16.0031 77.6595 15.7007 77.1057 15.4815C76.552 15.2623 75.9629 15.151 75.3383 15.151C74.7138 15.151 74.1247 15.2623 73.5698 15.4815C73.0161 15.7007 72.532 16.0042 72.1153 16.3909C71.6985 16.7775 71.3592 17.2289 71.0973 17.7463C70.8342 18.2625 70.6828 18.8144 70.6408 19.4008H80.0614ZM70.6783 20.389C70.7281 20.9755 70.8839 21.5209 71.147 22.0252C71.409 22.5296 71.7483 22.9691 72.1639 23.3428C72.5806 23.7176 73.0581 24.0135 73.5953 24.2284C74.1325 24.4444 74.7094 24.5524 75.3262 24.5524C76.0413 24.5524 76.7112 24.4099 77.3312 24.1247C77.9513 23.8396 78.4531 23.453 78.8367 22.9648C79.0356 22.8017 79.2368 22.7542 79.4369 22.8179C79.5352 22.8503 79.6237 22.9249 79.6988 23.0383C79.7906 23.1441 79.8381 23.2726 79.8425 23.4227C79.8469 23.5729 79.7729 23.7133 79.6237 23.8439C79.1406 24.3742 78.5382 24.8105 77.8187 25.1561C77.0969 25.5017 76.2668 25.6756 75.3262 25.6756C74.5016 25.6756 73.729 25.5223 73.0083 25.2177C72.2877 24.9131 71.6566 24.4973 71.1149 23.9714C70.5733 23.4476 70.1467 22.8309 69.835 22.1235C69.5222 21.4139 69.3652 20.6579 69.3652 19.8523C69.3652 19.0466 69.5222 18.2917 69.835 17.5875C70.1467 16.8833 70.5733 16.2699 71.1149 15.7439C71.6566 15.2191 72.2877 14.8043 73.0083 14.4987C73.729 14.1941 74.5016 14.0408 75.3262 14.0408C76.1419 14.0408 76.9123 14.192 77.6374 14.4922C78.3614 14.7935 78.9925 15.2072 79.5308 15.7321C80.0669 16.2569 80.4946 16.8715 80.8108 17.5756C81.1269 18.2798 81.2849 19.0304 81.2849 19.8285C81.2849 19.9905 81.2319 20.1244 81.1236 20.2313C81.0141 20.3361 80.8771 20.389 80.7113 20.389H70.6783Z" fill="white"/>
</g>
<mask id="mask5_189_3481" style="mask-type:luminance" maskUnits="userSpaceOnUse" x="0" y="0" width="145" height="40">
<g opacity="0.7">
<path d="M0.401855 39.7147H144.093V0.209351H0.401855V39.7147Z" fill="white"/>
</g>
</mask>
<g mask="url(#mask5_189_3481)">
<path fill-rule="evenodd" clip-rule="evenodd" d="M83.0846 16.5068C83.3675 16.1321 83.6881 15.7929 84.0462 15.4884C84.4032 15.1817 84.7956 14.9225 85.2211 14.7065C85.6445 14.4915 86.0954 14.3241 86.5696 14.2053C87.0449 14.0887 87.5357 14.0293 88.0441 14.0293H88.1569C88.3569 14.0293 88.5106 14.0844 88.6189 14.1935C88.7261 14.3036 88.7814 14.4397 88.7814 14.6028C88.7814 14.7745 88.7217 14.9138 88.6001 15.024C88.4796 15.1341 88.3315 15.1881 88.1569 15.1881H88.0441C87.3699 15.1881 86.7321 15.3167 86.133 15.5737C85.5328 15.8297 85.0056 16.1796 84.5524 16.6224C84.0981 17.0673 83.74 17.5857 83.477 18.1797C83.215 18.7737 83.0846 19.412 83.0846 20.0957V24.9308C83.0846 25.0928 83.026 25.2343 82.911 25.3509C82.795 25.4697 82.6546 25.5291 82.491 25.5291C82.3341 25.5291 82.1959 25.4697 82.0765 25.3509C81.956 25.2343 81.8975 25.0928 81.8975 24.9308V14.6147C81.8975 14.4527 81.9549 14.3144 82.0699 14.1999C82.1859 14.0865 82.3252 14.0293 82.491 14.0293C82.6634 14.0293 82.806 14.0865 82.9177 14.1999C83.0282 14.3144 83.0846 14.4527 83.0846 14.6147V16.5068Z" fill="white"/>
</g>
<mask id="mask6_189_3481" style="mask-type:luminance" maskUnits="userSpaceOnUse" x="0" y="0" width="145" height="40">
<g opacity="0.7">
<path d="M0.401855 39.7147H144.093V0.209351H0.401855V39.7147Z" fill="white"/>
</g>
</mask>
<g mask="url(#mask6_189_3481)">
<path fill-rule="evenodd" clip-rule="evenodd" d="M89.2558 19.8639C89.2558 20.4989 89.3785 21.0972 89.625 21.6588C89.8715 22.2204 90.2086 22.7129 90.6386 23.1363C91.0685 23.5596 91.5726 23.8944 92.1517 24.1428C92.732 24.3912 93.3554 24.5154 94.0219 24.5154C94.6564 24.5154 95.2533 24.4042 95.8125 24.1796C96.3707 23.956 96.8604 23.6514 97.2815 23.2637C97.7026 22.8782 98.0442 22.4235 98.3072 21.9029C98.5703 21.3824 98.7262 20.8294 98.7759 20.243V19.4859C98.7262 18.8843 98.5703 18.3216 98.3072 17.8011C98.0442 17.2794 97.7004 16.8258 97.276 16.4403C96.8493 16.0536 96.3608 15.7502 95.8059 15.5298C95.251 15.3106 94.6564 15.2015 94.0219 15.2015C93.3554 15.2015 92.732 15.3236 92.1517 15.5666C91.5726 15.8117 91.0685 16.1433 90.6386 16.5612C90.2086 16.9814 89.8715 17.476 89.625 18.0452C89.3785 18.6154 89.2558 19.2213 89.2558 19.8639ZM99.9641 24.1169C99.9641 25.0036 99.8116 25.8125 99.5054 26.5448C99.2014 27.2759 98.7847 27.9023 98.2575 28.424C97.7292 28.9434 97.1069 29.3474 96.3906 29.6379C95.6744 29.9252 94.9073 30.0699 94.0916 30.0699C93.3333 30.0699 92.6016 29.936 91.8986 29.667C91.1945 29.3981 90.5977 29.0212 90.1058 28.532C89.9643 28.3926 89.8914 28.2393 89.887 28.0686C89.8825 27.8969 89.9511 27.7554 90.0937 27.641C90.1854 27.5589 90.2727 27.5103 90.3556 27.4941C90.4385 27.4779 90.5203 27.4779 90.5999 27.4941C90.6784 27.5103 90.7513 27.5405 90.8176 27.5859C90.8851 27.6302 90.9503 27.6766 91.0177 27.7263C91.4587 28.1172 91.9495 28.4099 92.4856 28.6054C93.0227 28.7998 93.592 28.8938 94.1911 28.8862C94.8321 28.8862 95.4323 28.7674 95.9905 28.532C96.5487 28.2965 97.0339 27.9682 97.4462 27.5492C97.8585 27.1301 98.1834 26.6301 98.4211 26.048C98.6576 25.4669 98.7759 24.8211 98.7759 24.1137V23.3674C98.2266 24.0759 97.5413 24.6375 96.7211 25.0533C95.901 25.4669 95.0035 25.6754 94.0286 25.6754C93.2128 25.6754 92.4424 25.5231 91.7185 25.2185C90.9923 24.914 90.36 24.4982 89.8184 23.9744C89.2768 23.4495 88.8502 22.8339 88.5385 22.1265C88.2246 21.4191 88.0698 20.6674 88.0698 19.8704C88.0698 19.0658 88.2246 18.3076 88.5385 17.5959C88.8502 16.8842 89.2768 16.2664 89.8184 15.7426C90.36 15.2177 90.9923 14.803 91.7185 14.4984C92.4424 14.1939 93.2128 14.0405 94.0286 14.0405C94.5116 14.0405 94.9802 14.0956 95.4345 14.2058C95.8888 14.3159 96.3177 14.4725 96.7211 14.6756C97.1257 14.8797 97.5004 15.1227 97.8452 15.4078C98.1912 15.694 98.5018 16.0115 98.7759 16.3604V14.6151C98.7759 14.452 98.8345 14.3159 98.9505 14.2058C99.0644 14.0956 99.2048 14.0405 99.3694 14.0405C99.5352 14.0405 99.6756 14.0956 99.7906 14.2058C99.9055 14.3159 99.9641 14.452 99.9641 14.6151V24.1169Z" fill="white"/>
</g>
<mask id="mask7_189_3481" style="mask-type:luminance" maskUnits="userSpaceOnUse" x="0" y="0" width="145" height="40">
<g opacity="0.7">
<path d="M0.401855 39.7147H144.093V0.209351H0.401855V39.7147Z" fill="white"/>
</g>
</mask>
<g mask="url(#mask7_189_3481)">
<path fill-rule="evenodd" clip-rule="evenodd" d="M111.393 19.4008C111.351 18.8057 111.199 18.2517 110.937 17.7344C110.675 17.2181 110.331 16.7678 109.906 16.3855C109.482 16.0031 108.992 15.7007 108.438 15.4815C107.884 15.2623 107.295 15.151 106.67 15.151C106.046 15.151 105.457 15.2623 104.902 15.4815C104.348 15.7007 103.864 16.0042 103.447 16.3909C103.031 16.7775 102.691 17.2289 102.429 17.7463C102.166 18.2625 102.015 18.8144 101.973 19.4008H111.393ZM102.01 20.389C102.06 20.9755 102.216 21.5209 102.479 22.0252C102.741 22.5296 103.08 22.9691 103.496 23.3428C103.913 23.7176 104.39 24.0135 104.927 24.2284C105.464 24.4444 106.041 24.5524 106.658 24.5524C107.373 24.5524 108.043 24.4099 108.662 24.1247C109.283 23.8396 109.785 23.453 110.169 22.9648C110.368 22.8017 110.569 22.7542 110.769 22.8179C110.867 22.8503 110.956 22.9249 111.031 23.0383C111.123 23.1441 111.17 23.2726 111.175 23.4227C111.179 23.5729 111.105 23.7133 110.956 23.8439C110.473 24.3742 109.87 24.8105 109.151 25.1561C108.429 25.5017 107.599 25.6756 106.658 25.6756C105.834 25.6756 105.061 25.5223 104.34 25.2177C103.62 24.9131 102.989 24.4973 102.447 23.9714C101.905 23.4476 101.479 22.8309 101.167 22.1235C100.854 21.4139 100.697 20.6579 100.697 19.8523C100.697 19.0466 100.854 18.2917 101.167 17.5875C101.479 16.8833 101.905 16.2699 102.447 15.7439C102.989 15.2191 103.62 14.8043 104.34 14.4987C105.061 14.1941 105.834 14.0408 106.658 14.0408C107.474 14.0408 108.244 14.192 108.969 14.4922C109.693 14.7935 110.325 15.2072 110.863 15.7321C111.399 16.2569 111.827 16.8715 112.143 17.5756C112.459 18.2798 112.617 19.0304 112.617 19.8285C112.617 19.9905 112.564 20.1244 112.454 20.2313C112.346 20.3361 112.209 20.389 112.043 20.389H102.01Z" fill="white"/>
</g>
<mask id="mask8_189_3481" style="mask-type:luminance" maskUnits="userSpaceOnUse" x="0" y="0" width="145" height="40">
<g opacity="0.7">
<path d="M0.401855 39.7147H144.093V0.209351H0.401855V39.7147Z" fill="white"/>
</g>
</mask>
<g mask="url(#mask8_189_3481)">
<path fill-rule="evenodd" clip-rule="evenodd" d="M114.267 16.4825C114.508 16.1163 114.783 15.7848 115.091 15.4878C115.399 15.1908 115.735 14.9337 116.096 14.7188C116.459 14.5028 116.84 14.3365 117.239 14.2177C117.64 14.1 118.052 14.0406 118.477 14.0406C119.184 14.0406 119.823 14.1669 120.395 14.4197C120.966 14.6713 121.452 15.0353 121.856 15.5126C122.26 15.9878 122.573 16.5699 122.793 17.2579C123.014 17.9448 123.129 18.7202 123.137 19.5831V24.9551C123.137 25.1181 123.082 25.2564 122.969 25.3709C122.856 25.4843 122.708 25.5415 122.526 25.5415C122.358 25.5415 122.221 25.4843 122.113 25.3709C122.004 25.2564 121.95 25.1181 121.95 24.9551V19.6447C121.95 18.1964 121.631 17.0927 120.995 16.3356C120.357 15.5796 119.476 15.2005 118.352 15.2005C117.786 15.2005 117.254 15.315 116.759 15.5429C116.264 15.7707 115.832 16.0818 115.466 16.476C115.099 16.8713 114.807 17.3357 114.592 17.8681C114.375 18.4005 114.267 18.9773 114.267 19.5961V24.9302C114.267 25.0933 114.209 25.2348 114.098 25.3514C113.985 25.4691 113.846 25.5285 113.68 25.5285C113.512 25.5285 113.37 25.4691 113.254 25.3514C113.138 25.2348 113.08 25.0933 113.08 24.9302V14.6151C113.08 14.4521 113.138 14.3138 113.254 14.2004C113.37 14.0859 113.512 14.0298 113.68 14.0298C113.846 14.0298 113.985 14.0859 114.098 14.2004C114.209 14.3138 114.267 14.4521 114.267 14.6151V16.4825Z" fill="white"/>
</g>
<mask id="mask9_189_3481" style="mask-type:luminance" maskUnits="userSpaceOnUse" x="0" y="0" width="145" height="40">
<g opacity="0.7">
<path d="M0.401855 39.7147H144.093V0.209351H0.401855V39.7147Z" fill="white"/>
</g>
</mask>
<g mask="url(#mask9_189_3481)">
<path fill-rule="evenodd" clip-rule="evenodd" d="M124.911 19.791C124.911 19.7997 124.903 19.8191 124.886 19.8526L124.898 19.8764L124.911 19.8893C124.911 20.4984 125.027 21.0806 125.26 21.6346C125.493 22.1886 125.815 22.6746 126.223 23.0937C126.632 23.5127 127.116 23.8486 127.678 24.1002C128.241 24.353 128.847 24.4793 129.495 24.4793C130.096 24.4869 130.663 24.3983 131.197 24.2104C131.728 24.0236 132.22 23.7298 132.67 23.3313C132.727 23.2816 132.793 23.2352 132.863 23.1909C132.934 23.1455 133.009 23.1131 133.088 23.0937C133.167 23.0732 133.251 23.0732 133.339 23.0937C133.426 23.1131 133.516 23.165 133.606 23.246C133.74 23.3604 133.805 23.5008 133.801 23.6672C133.796 23.8335 133.723 23.9868 133.582 24.1251C133.09 24.6132 132.492 24.9912 131.789 25.2602C131.085 25.5291 130.354 25.663 129.596 25.663C128.78 25.663 128.017 25.515 127.304 25.217C126.592 24.92 125.966 24.5117 125.43 23.9912C124.892 23.4695 124.47 22.8636 124.161 22.1714C123.853 21.4791 123.699 20.735 123.699 19.9379C123.699 19.9044 123.703 19.8764 123.711 19.8526C123.703 19.8353 123.699 19.8148 123.699 19.791C123.699 18.994 123.853 18.2445 124.161 17.5446C124.47 16.8448 124.892 16.2324 125.43 15.7076C125.966 15.1816 126.592 14.768 127.304 14.4623C128.017 14.1567 128.78 14.0044 129.596 14.0044C130.354 14.0044 131.085 14.1394 131.789 14.4072C132.492 14.6762 133.09 15.0542 133.582 15.5423C133.723 15.6806 133.796 15.8361 133.801 16.0067C133.805 16.1774 133.74 16.3199 133.606 16.4344C133.516 16.5154 133.426 16.5662 133.339 16.5867C133.251 16.6072 133.167 16.6072 133.088 16.5867C133.009 16.5662 132.934 16.5327 132.863 16.4884C132.793 16.4441 132.727 16.3966 132.67 16.348C132.228 15.957 131.739 15.6654 131.201 15.4689C130.665 15.2734 130.096 15.1805 129.495 15.1881C128.854 15.1881 128.254 15.3144 127.697 15.5672C127.139 15.8188 126.654 16.1558 126.241 16.5737C125.829 16.9928 125.504 17.482 125.267 18.0393C125.029 18.5976 124.911 19.1808 124.911 19.791Z" fill="white"/>
</g>
<mask id="mask10_189_3481" style="mask-type:luminance" maskUnits="userSpaceOnUse" x="0" y="0" width="145" height="40">
<g opacity="0.7">
<path d="M0.401855 39.7147H144.093V0.209351H0.401855V39.7147Z" fill="white"/>
</g>
</mask>
<g mask="url(#mask10_189_3481)">
<path fill-rule="evenodd" clip-rule="evenodd" d="M138.854 23.588L142.952 14.395C143.019 14.2406 143.127 14.1326 143.277 14.071C143.427 14.0105 143.581 14.0127 143.74 14.0775C143.89 14.1434 143.993 14.2492 144.051 14.395C144.11 14.5419 144.106 14.6963 144.038 14.8594L137.505 29.3984C137.429 29.5528 137.317 29.6587 137.168 29.7159C137.017 29.7731 136.862 29.7688 136.706 29.704C136.546 29.6392 136.451 29.5334 136.418 29.3865C136.385 29.2396 136.4 29.0895 136.468 28.9351L138.23 24.979L133.694 14.8594C133.619 14.6963 133.611 14.5419 133.669 14.395C133.727 14.2492 133.836 14.1434 133.994 14.0775C134.143 14.0041 134.296 13.9987 134.451 14.0591C134.603 14.1196 134.715 14.233 134.78 14.395L138.854 23.588Z" fill="white"/>
</g>
<mask id="mask11_189_3481" style="mask-type:luminance" maskUnits="userSpaceOnUse" x="0" y="0" width="145" height="40">
<g opacity="0.7">
<path d="M0.401855 39.7147H144.093V0.209351H0.401855V39.7147Z" fill="white"/>
</g>
</mask>
<g mask="url(#mask11_189_3481)">
<path fill-rule="evenodd" clip-rule="evenodd" d="M42.1222 33.0294L42.1079 33.0554L42.1156 33.0694L42.1222 33.0759C42.1222 33.3783 42.1808 33.6677 42.2958 33.9431C42.4129 34.2196 42.5721 34.4626 42.7777 34.6732C42.9822 34.8849 43.2242 35.0544 43.505 35.183C43.7846 35.3126 44.0875 35.3774 44.4157 35.3774C44.7164 35.3817 45.0005 35.3396 45.2691 35.251C45.5376 35.1614 45.7874 35.0145 46.0196 34.8093C46.0649 34.7747 46.1124 34.7412 46.1633 34.7099C46.213 34.6786 46.2671 34.657 46.3235 34.643C46.381 34.63 46.4407 34.63 46.5048 34.643C46.5678 34.657 46.6341 34.6926 46.7026 34.7499C46.7944 34.8298 46.8397 34.9313 46.8397 35.0534C46.8397 35.1754 46.7866 35.2888 46.6816 35.3914C46.4086 35.6571 46.0792 35.8644 45.6913 36.0113C45.3055 36.1571 44.9054 36.2306 44.4909 36.2306C44.0444 36.2306 43.6243 36.1496 43.232 35.9865C42.8374 35.8256 42.4947 35.6031 42.2007 35.3201C41.9078 35.0372 41.6757 34.7056 41.5044 34.3233C41.3341 33.941 41.249 33.5316 41.249 33.0964L41.2623 33.0554C41.2534 33.0478 41.249 33.0381 41.249 33.0294C41.249 32.5942 41.3341 32.1838 41.5044 31.7982C41.6757 31.4148 41.9078 31.0779 42.2007 30.7917C42.4947 30.5044 42.8374 30.2776 43.232 30.1113C43.6243 29.945 44.0444 29.8607 44.4909 29.8607C44.9054 29.8607 45.3055 29.9352 45.6913 30.0821C46.0792 30.2279 46.4086 30.4353 46.6816 30.702C46.7866 30.8036 46.8397 30.9159 46.8397 31.0379C46.8397 31.161 46.7911 31.2636 46.696 31.3479C46.6275 31.4062 46.5634 31.4418 46.5015 31.4559C46.4396 31.4688 46.381 31.4688 46.3235 31.4559C46.2671 31.4418 46.213 31.4202 46.1633 31.3878C46.1124 31.3576 46.0649 31.3241 46.0196 31.2885C45.7874 31.0887 45.5376 30.9418 45.2691 30.8478C45.0005 30.756 44.7164 30.7118 44.4157 30.715C44.0919 30.7193 43.7924 30.7852 43.5149 30.9116C43.2375 31.0379 42.9943 31.2086 42.7887 31.4224C42.5809 31.6352 42.4184 31.8814 42.3002 32.159C42.1819 32.4365 42.1222 32.727 42.1222 33.0294Z" fill="white"/>
</g>
<mask id="mask12_189_3481" style="mask-type:luminance" maskUnits="userSpaceOnUse" x="0" y="0" width="145" height="40">
<g opacity="0.7">
<path d="M0.401855 39.7147H144.093V0.209351H0.401855V39.7147Z" fill="white"/>
</g>
</mask>
<g mask="url(#mask12_189_3481)">
<path fill-rule="evenodd" clip-rule="evenodd" d="M52.5988 32.7364C52.5667 32.4469 52.4838 32.1769 52.349 31.9253C52.2141 31.6747 52.0417 31.4566 51.8306 31.273C51.6184 31.0883 51.3774 30.9436 51.1033 30.8388C50.8303 30.7341 50.5396 30.6822 50.229 30.6822C49.9206 30.6822 49.6299 30.7351 49.3591 30.8421C49.0883 30.949 48.8485 31.0937 48.6396 31.2784C48.4306 31.4631 48.2593 31.6812 48.1278 31.9329C47.9952 32.1834 47.9167 32.4513 47.8879 32.7364H52.5988ZM47.9089 33.4427C47.9454 33.7235 48.0305 33.9827 48.1643 34.2235C48.2991 34.4644 48.4693 34.6728 48.6738 34.8499C48.8783 35.0281 49.1126 35.1685 49.3768 35.2711C49.6399 35.3727 49.9206 35.4234 50.2168 35.4234C50.5805 35.4234 50.911 35.3565 51.2061 35.2204C51.5023 35.0854 51.7455 34.9039 51.9356 34.6771C52.0141 34.6145 52.087 34.5778 52.1589 34.567C52.2285 34.5562 52.2981 34.5605 52.3667 34.5832C52.4485 34.6102 52.5115 34.6653 52.5579 34.7495C52.622 34.8262 52.6518 34.918 52.6496 35.0238C52.6474 35.1307 52.5933 35.229 52.4883 35.3176C52.3667 35.4504 52.2274 35.5725 52.0727 35.6837C51.9179 35.7949 51.7466 35.8921 51.5576 35.9742C51.3686 36.0563 51.1619 36.1211 50.9397 36.1675C50.7164 36.214 50.4755 36.2377 50.2168 36.2377C49.7659 36.2377 49.3436 36.1546 48.9501 35.9872C48.5567 35.8198 48.2118 35.5941 47.9167 35.3068C47.6205 35.0206 47.3872 34.6836 47.2159 34.2959C47.0457 33.9103 46.9595 33.4967 46.9595 33.0561C46.9595 32.6165 47.0457 32.2039 47.2159 31.8184C47.3872 31.435 47.6205 31.098 47.9167 30.8118C48.2118 30.5245 48.5567 30.2977 48.9501 30.1314C49.3436 29.9651 49.7659 29.8809 50.2168 29.8809C50.6623 29.8809 51.0834 29.964 51.4791 30.1282C51.8748 30.2923 52.2197 30.517 52.5137 30.8021C52.8055 31.0872 53.0387 31.4209 53.2133 31.8065C53.3858 32.1899 53.4742 32.6003 53.4786 33.0355C53.4786 33.1522 53.441 33.2494 53.3626 33.3261C53.2852 33.4038 53.1846 33.4427 53.063 33.4427H47.9089Z" fill="white"/>
</g>
<mask id="mask13_189_3481" style="mask-type:luminance" maskUnits="userSpaceOnUse" x="0" y="0" width="145" height="40">
<g opacity="0.7">
<path d="M0.401855 39.7147H144.093V0.209351H0.401855V39.7147Z" fill="white"/>
</g>
</mask>
<g mask="url(#mask13_189_3481)">
<path fill-rule="evenodd" clip-rule="evenodd" d="M59.6725 35.7443C59.6725 35.8642 59.6316 35.9636 59.5498 36.0435C59.4658 36.1245 59.363 36.1644 59.2392 36.1644C59.1198 36.1644 59.0193 36.1245 58.9364 36.0435C58.8546 35.9646 58.8137 35.8642 58.8137 35.7443V32.9277C58.8037 32.216 58.6401 31.6716 58.324 31.2915C58.0079 30.9113 57.5658 30.7223 56.9965 30.7223C56.7191 30.7223 56.4594 30.7752 56.2151 30.8822C55.9719 30.9891 55.7586 31.136 55.574 31.325C55.3894 31.514 55.2424 31.7364 55.1341 31.9935C55.0247 32.2527 54.965 32.5292 54.9561 32.8272V35.7314C54.9561 35.8512 54.9141 35.9517 54.8301 36.0348C54.7461 36.1169 54.6444 36.158 54.5262 36.158C54.4079 36.158 54.3073 36.1169 54.2222 36.0348C54.1382 35.9517 54.0962 35.8512 54.0962 35.7303V30.2946C54.0962 30.1802 54.1393 30.0808 54.2255 29.9987C54.3117 29.9166 54.4145 29.8745 54.5339 29.8745C54.6511 29.8745 54.7516 29.9166 54.8334 29.9987C54.9152 30.0808 54.9561 30.1802 54.9561 30.2946L54.9572 31.0085C55.2269 30.6716 55.5442 30.3983 55.9111 30.191C56.2781 29.9847 56.6705 29.881 57.0894 29.881C57.4818 29.881 57.8355 29.9534 58.1527 30.0959C58.4688 30.2374 58.7396 30.4404 58.9651 30.705C59.1906 30.9696 59.3641 31.2904 59.4846 31.6662C59.6051 32.041 59.6681 32.46 59.6725 32.9234V35.7443Z" fill="white"/>
</g>
<mask id="mask14_189_3481" style="mask-type:luminance" maskUnits="userSpaceOnUse" x="0" y="0" width="145" height="40">
<g opacity="0.7">
<path d="M0.401855 39.7147H144.093V0.209351H0.401855V39.7147Z" fill="white"/>
</g>
</mask>
<g mask="url(#mask14_189_3481)">
<path fill-rule="evenodd" clip-rule="evenodd" d="M61.8375 29.8813H62.745C62.8687 29.8813 62.9704 29.9212 63.0533 30.0012C63.1351 30.0822 63.176 30.1793 63.176 30.2949C63.176 30.4191 63.1351 30.5217 63.0533 30.6016C62.9704 30.6815 62.8687 30.7215 62.745 30.7215H61.8375V35.7446C61.8375 35.8591 61.7955 35.9574 61.7115 36.0373C61.6275 36.1172 61.5258 36.1582 61.4075 36.1582C61.2893 36.1582 61.1887 36.1172 61.1069 36.0373C61.0262 35.9574 60.9853 35.8591 60.9853 35.7446V30.7215H60.2337C60.1143 30.7215 60.0148 30.6805 59.9297 30.5984C59.8457 30.5163 59.8037 30.4148 59.8037 30.2949C59.8037 30.1793 59.8457 30.0822 59.9297 30.0012C60.0148 29.9212 60.1143 29.8813 60.2337 29.8813H60.9853V28.0345C60.9853 27.9146 61.0262 27.8152 61.1069 27.7375C61.1887 27.6586 61.2893 27.6198 61.4075 27.6198C61.5258 27.6198 61.6275 27.6586 61.7115 27.7375C61.7955 27.8152 61.8375 27.9146 61.8375 28.0345V29.8813Z" fill="white"/>
</g>
<mask id="mask15_189_3481" style="mask-type:luminance" maskUnits="userSpaceOnUse" x="0" y="0" width="145" height="40">
<g opacity="0.7">
<path d="M0.401855 39.7147H144.093V0.209351H0.401855V39.7147Z" fill="white"/>
</g>
</mask>
<g mask="url(#mask15_189_3481)">
<path fill-rule="evenodd" clip-rule="evenodd" d="M68.5625 32.7364C68.5305 32.4469 68.4476 32.1769 68.3127 31.9253C68.179 31.6747 68.0066 31.4566 67.7943 31.273C67.5821 31.0883 67.3412 30.9436 67.067 30.8388C66.794 30.7341 66.5033 30.6822 66.1938 30.6822C65.8843 30.6822 65.5936 30.7351 65.3228 30.8421C65.0531 30.949 64.8122 31.0937 64.6033 31.2784C64.3944 31.4631 64.2231 31.6812 64.0915 31.9329C63.96 32.1834 63.8804 32.4513 63.8528 32.7364H68.5625ZM63.8738 33.4427C63.9091 33.7235 63.9943 33.9827 64.1291 34.2235C64.2629 34.4644 64.4331 34.6728 64.6376 34.8499C64.8431 35.0281 65.0775 35.1685 65.3405 35.2711C65.6047 35.3727 65.8843 35.4234 66.1806 35.4234C66.5442 35.4234 66.8747 35.3565 67.1698 35.2204C67.466 35.0854 67.7092 34.9039 67.9004 34.6771C67.9778 34.6145 68.0519 34.5778 68.1226 34.567C68.1922 34.5562 68.263 34.5605 68.3304 34.5832C68.4122 34.6102 68.4763 34.6653 68.5216 34.7495C68.5857 34.8262 68.6156 34.918 68.6134 35.0238C68.6112 35.1307 68.5581 35.229 68.4531 35.3176C68.3304 35.4504 68.1911 35.5725 68.0364 35.6837C67.8828 35.7949 67.7103 35.8921 67.5224 35.9742C67.3334 36.0563 67.1267 36.1211 66.9034 36.1675C66.6813 36.214 66.4392 36.2377 66.1806 36.2377C65.7296 36.2377 65.3085 36.1546 64.9139 35.9872C64.5204 35.8198 64.1755 35.5941 63.8804 35.3068C63.5842 35.0206 63.351 34.6836 63.1807 34.2959C63.0105 33.9103 62.9243 33.4967 62.9243 33.0561C62.9243 32.6165 63.0105 32.2039 63.1807 31.8184C63.351 31.435 63.5842 31.098 63.8804 30.8118C64.1755 30.5245 64.5204 30.2977 64.9139 30.1314C65.3085 29.9651 65.7296 29.8809 66.1806 29.8809C66.626 29.8809 67.0471 29.964 67.4428 30.1282C67.8396 30.2923 68.1834 30.517 68.4774 30.8021C68.7703 31.0872 69.0035 31.4209 69.1771 31.8065C69.3495 32.1899 69.4379 32.6003 69.4435 33.0355C69.4435 33.1522 69.4048 33.2494 69.3263 33.3261C69.2489 33.4038 69.1494 33.4427 69.0268 33.4427H63.8738Z" fill="white"/>
</g>
<mask id="mask16_189_3481" style="mask-type:luminance" maskUnits="userSpaceOnUse" x="0" y="0" width="145" height="40">
<g opacity="0.7">
<path d="M0.401855 39.7147H144.093V0.209351H0.401855V39.7147Z" fill="white"/>
</g>
</mask>
<g mask="url(#mask16_189_3481)">
<path fill-rule="evenodd" clip-rule="evenodd" d="M70.92 30.9824C71.2295 30.64 71.5998 30.3689 72.033 30.1681C72.4641 29.9683 72.9306 29.8689 73.4313 29.8689H73.4865C73.6313 29.8689 73.7441 29.9078 73.8203 29.9855C73.8977 30.0633 73.9364 30.1637 73.9364 30.2847C73.9364 30.4111 73.8933 30.5115 73.8071 30.5914C73.7209 30.6692 73.6147 30.7081 73.4865 30.7081H73.4313C73.0908 30.7081 72.767 30.7729 72.463 30.9025C72.1579 31.031 71.8916 31.2081 71.6639 31.4317C71.4362 31.6563 71.256 31.9198 71.1212 32.2222C70.9874 32.5257 70.92 32.8497 70.92 33.1964V35.7301C70.92 35.851 70.8791 35.9525 70.7973 36.0346C70.7144 36.1167 70.6149 36.1577 70.4967 36.1577C70.3784 36.1577 70.2756 36.1167 70.1894 36.0346C70.1032 35.9525 70.0601 35.851 70.0601 35.7301V30.2879C70.0601 30.1735 70.1032 30.0741 70.1894 29.992C70.2756 29.9099 70.3784 29.8689 70.4967 29.8689C70.6205 29.8689 70.7199 29.9099 70.8006 29.992C70.8802 30.0741 70.92 30.1724 70.92 30.2879V30.9824Z" fill="white"/>
</g>
<mask id="mask17_189_3481" style="mask-type:luminance" maskUnits="userSpaceOnUse" x="0" y="0" width="145" height="40">
<g opacity="0.7">
<path d="M0.401855 39.7147H144.093V0.209351H0.401855V39.7147Z" fill="white"/>
</g>
</mask>
<g mask="url(#mask17_189_3481)">
<path fill-rule="evenodd" clip-rule="evenodd" d="M75.7924 30.1766C75.7471 30.1593 75.683 30.1518 75.6012 30.1518H75.5216V30.5071H75.6487C75.725 30.5071 75.7858 30.492 75.8289 30.4617C75.872 30.4315 75.893 30.3829 75.893 30.3159C75.893 30.249 75.8598 30.2025 75.7924 30.1766ZM75.1922 31.1605V29.9347H75.5415C75.6973 29.9358 75.7835 29.9368 75.8012 29.9379C75.9007 29.9444 75.9825 29.966 76.0477 30.0006C76.1605 30.061 76.2157 30.1582 76.2157 30.2932C76.2157 30.3969 76.1859 30.4704 76.1273 30.5168C76.0687 30.5622 75.9969 30.5902 75.9095 30.5989C75.9891 30.6151 76.0477 30.6388 76.0886 30.6702C76.1616 30.7285 76.1991 30.8203 76.1991 30.9445V31.0536C76.1991 31.0665 76.1991 31.0784 76.2013 31.0903C76.2025 31.1022 76.2058 31.114 76.2102 31.127L76.2224 31.1605H75.9084C75.8985 31.1216 75.8919 31.0654 75.8874 30.992C75.8841 30.9175 75.8775 30.8678 75.8664 30.8408C75.851 30.7976 75.82 30.7684 75.7747 30.7512C75.7504 30.7404 75.7128 30.735 75.6631 30.7317L75.5901 30.7274H75.5216V31.1605H75.1922ZM75.0242 29.9044C74.844 30.0848 74.7545 30.2986 74.7545 30.546C74.7545 30.8019 74.8451 31.019 75.0286 31.1983C75.211 31.3776 75.4309 31.4672 75.6885 31.4672C75.946 31.4672 76.166 31.3765 76.3484 31.1961C76.5296 31.0158 76.6214 30.7987 76.6214 30.546C76.6214 30.2997 76.5307 30.0859 76.3495 29.9044C76.166 29.7208 75.946 29.628 75.6885 29.628C75.4287 29.628 75.2077 29.7208 75.0242 29.9044ZM76.481 31.3398C76.261 31.5482 75.998 31.6519 75.6885 31.6519C75.3702 31.6519 75.1027 31.546 74.8838 31.3322C74.665 31.1184 74.5566 30.857 74.5566 30.546C74.5566 30.222 74.6738 29.9541 74.9103 29.7403C75.1314 29.5394 75.3912 29.439 75.6885 29.439C76.0002 29.439 76.2688 29.548 76.4898 29.764C76.7098 29.979 76.8214 30.2414 76.8214 30.546C76.8214 30.8602 76.7076 31.1248 76.481 31.3398Z" fill="white"/>
</g>
<mask id="mask18_189_3481" style="mask-type:luminance" maskUnits="userSpaceOnUse" x="0" y="0" width="145" height="40">
<g opacity="0.7">
<path d="M0.401855 39.7147H144.093V0.209351H0.401855V39.7147Z" fill="white"/>
</g>
</mask>
<g mask="url(#mask18_189_3481)">
<path fill-rule="evenodd" clip-rule="evenodd" d="M43.0914 5.22893H43.9989C44.1227 5.22893 44.2243 5.26889 44.3072 5.34881C44.389 5.42873 44.4299 5.52593 44.4299 5.64257C44.4299 5.76677 44.389 5.86937 44.3072 5.94929C44.2243 6.02921 44.1227 6.06917 43.9989 6.06917H43.0914V11.0912C43.0914 11.2067 43.0494 11.305 42.9654 11.3838C42.8814 11.4638 42.7797 11.5048 42.6614 11.5048C42.5432 11.5048 42.4426 11.4638 42.3608 11.3838C42.2801 11.305 42.2392 11.2067 42.2392 11.0912V6.06917H41.4876C41.3682 6.06917 41.2687 6.02813 41.1836 5.94497C41.0996 5.86397 41.0576 5.76245 41.0576 5.64257C41.0576 5.52593 41.0996 5.42873 41.1836 5.34881C41.2687 5.26889 41.3682 5.22893 41.4876 5.22893H42.2392V3.38105C42.2392 3.26117 42.2801 3.16181 42.3608 3.08513C42.4426 3.00629 42.5432 2.96741 42.6614 2.96741C42.7797 2.96741 42.8814 3.00629 42.9654 3.08513C43.0494 3.16181 43.0914 3.26117 43.0914 3.38105V5.22893Z" fill="white"/>
</g>
<mask id="mask19_189_3481" style="mask-type:luminance" maskUnits="userSpaceOnUse" x="0" y="0" width="145" height="40">
<g opacity="0.7">
<path d="M0.401855 39.7147H144.093V0.209351H0.401855V39.7147Z" fill="white"/>
</g>
</mask>
<g mask="url(#mask19_189_3481)">
<path fill-rule="evenodd" clip-rule="evenodd" d="M45.5245 6.35537C45.7931 6.01625 46.1103 5.74193 46.4773 5.53349C46.8442 5.32613 47.2377 5.22137 47.6566 5.22137C48.0534 5.22137 48.4094 5.29481 48.7255 5.43845C49.0438 5.58317 49.3146 5.78945 49.5401 6.05729C49.7656 6.32405 49.9391 6.64697 50.0596 7.02497C50.1801 7.40297 50.2409 7.82525 50.2409 8.29289V11.0912C50.2409 11.211 50.1989 11.3115 50.1171 11.3914C50.0342 11.4713 49.9303 11.5113 49.8076 11.5113C49.6882 11.5113 49.5876 11.4713 49.5047 11.3914C49.4218 11.3115 49.3798 11.211 49.3798 11.0912V8.30369C49.3798 7.58333 49.2218 7.02929 48.9034 6.64265C48.5851 6.25601 48.1386 6.06269 47.5649 6.06269C47.2875 6.06269 47.0266 6.11561 46.7834 6.22253C46.5403 6.32945 46.3269 6.47633 46.1424 6.66533C45.9578 6.85541 45.8108 7.07897 45.7013 7.33601C45.593 7.59413 45.5333 7.87169 45.5245 8.16977V11.0771C45.5245 11.197 45.4825 11.2985 45.3985 11.3806C45.3145 11.4627 45.2128 11.5048 45.0934 11.5048C44.9763 11.5048 44.8746 11.4627 44.7906 11.3806C44.7066 11.2985 44.6646 11.197 44.6646 11.0771V3.39509C44.6646 3.27413 44.7066 3.17369 44.7906 3.09161C44.8746 3.00845 44.9763 2.96741 45.0934 2.96741C45.2172 2.96741 45.3189 3.00845 45.4018 3.09161C45.4836 3.17369 45.5245 3.27413 45.5245 3.39509V6.35537Z" fill="white"/>
</g>
<mask id="mask20_189_3481" style="mask-type:luminance" maskUnits="userSpaceOnUse" x="0" y="0" width="145" height="40">
<g opacity="0.7">
<path d="M0.401855 39.7147H144.093V0.209351H0.401855V39.7147Z" fill="white"/>
</g>
</mask>
<g mask="url(#mask20_189_3481)">
<path fill-rule="evenodd" clip-rule="evenodd" d="M56.2819 8.08296C56.2498 7.79352 56.1669 7.52352 56.0321 7.27296C55.8972 7.0224 55.7248 6.80316 55.5137 6.61956C55.3015 6.43488 55.0605 6.29016 54.7864 6.1854C54.5134 6.08064 54.2227 6.02988 53.9121 6.02988C53.6037 6.02988 53.313 6.08172 53.0422 6.18864C52.7714 6.29556 52.5316 6.44136 52.3227 6.62604C52.1138 6.80964 51.9424 7.0278 51.8109 7.27944C51.6783 7.53 51.5998 7.79784 51.571 8.08296H56.2819ZM51.592 8.79036C51.6285 9.07008 51.7136 9.33036 51.8474 9.57012C51.9822 9.81096 52.1524 10.0194 52.3558 10.1976C52.5614 10.3747 52.7957 10.5151 53.0599 10.6177C53.323 10.7192 53.6037 10.7711 53.8999 10.7711C54.2636 10.7711 54.593 10.703 54.8892 10.568C55.1854 10.432 55.4286 10.2505 55.6187 10.0237C55.6972 9.96108 55.7701 9.92544 55.842 9.91356C55.9116 9.90384 55.9812 9.90816 56.0498 9.93084C56.1305 9.95676 56.1946 10.0129 56.241 10.0972C56.3051 10.1738 56.3349 10.2646 56.3327 10.3704C56.3305 10.4773 56.2764 10.5756 56.1714 10.6642C56.0498 10.7981 55.9105 10.9201 55.7558 11.0303C55.601 11.1426 55.4297 11.2387 55.2407 11.3208C55.0517 11.4029 54.845 11.4677 54.6228 11.5152C54.3995 11.5616 54.1586 11.5843 53.8999 11.5843C53.449 11.5843 53.0267 11.5012 52.6332 11.3348C52.2398 11.1674 51.8949 10.9406 51.5998 10.6544C51.3025 10.3672 51.0703 10.0313 50.899 9.64356C50.7288 9.25692 50.6426 8.84328 50.6426 8.40372C50.6426 7.96308 50.7288 7.55052 50.899 7.16604C51.0703 6.78156 51.3025 6.44568 51.5998 6.15948C51.8949 5.8722 52.2398 5.6454 52.6332 5.47908C53.0267 5.31276 53.449 5.22852 53.8999 5.22852C54.3454 5.22852 54.7665 5.31168 55.1622 5.47584C55.5579 5.64 55.9028 5.86464 56.1957 6.14868C56.4886 6.4338 56.7218 6.76752 56.8964 7.15308C57.0689 7.53756 57.1573 7.94796 57.1617 8.3832C57.1617 8.49876 57.123 8.59596 57.0457 8.67372C56.9683 8.75148 56.8677 8.79036 56.7461 8.79036H51.592Z" fill="white"/>
</g>
</g>
</svg>
