<svg width="190" height="278" viewBox="0 0 190 278" fill="none" xmlns="http://www.w3.org/2000/svg">
<rect x="0.5" y="0.5" width="189" height="277" rx="7.5" stroke="#CBCBCB"/>
<path d="M31.072 35.416V37H23.28V25.64H30.928V27.224H25.072V30.456H30.144V31.944H25.072V35.416H31.072ZM42.4726 37V28.904L39.1286 35.048H38.0726L34.7126 28.904V37H32.9206V25.64H34.8406L38.6006 32.584L42.3606 25.64H44.2806V37H42.4726ZM46.8425 37V25.64H51.6105C52.1225 25.64 52.5918 25.7467 53.0185 25.96C53.4452 26.1733 53.8185 26.456 54.1385 26.808C54.4585 27.16 54.7038 27.5547 54.8745 27.992C55.0452 28.4293 55.1305 28.8773 55.1305 29.336C55.1305 29.9653 54.9865 30.568 54.6985 31.144C54.4212 31.7093 54.0212 32.168 53.4985 32.52C52.9865 32.872 52.3892 33.048 51.7065 33.048H48.6345V37H46.8425ZM48.6345 31.464H51.5945C51.9358 31.464 52.2345 31.3733 52.4905 31.192C52.7465 31 52.9438 30.744 53.0825 30.424C53.2318 30.104 53.3065 29.7413 53.3065 29.336C53.3065 28.92 53.2212 28.552 53.0505 28.232C52.8798 27.912 52.6558 27.6667 52.3785 27.496C52.1118 27.3147 51.8185 27.224 51.4985 27.224H48.6345V31.464ZM56.8113 37V25.64H58.6033V35.416H64.6993V37H56.8113ZM70.5625 37.08C69.7412 37.08 68.9998 36.92 68.3385 36.6C67.6772 36.28 67.1065 35.848 66.6265 35.304C66.1465 34.7493 65.7732 34.1307 65.5065 33.448C65.2505 32.7547 65.1225 32.0453 65.1225 31.32C65.1225 30.5627 65.2612 29.8427 65.5385 29.16C65.8158 28.4667 66.1998 27.8533 66.6905 27.32C67.1812 26.776 67.7572 26.3493 68.4185 26.04C69.0905 25.72 69.8158 25.56 70.5945 25.56C71.4052 25.56 72.1412 25.7253 72.8025 26.056C73.4745 26.3867 74.0452 26.8293 74.5145 27.384C74.9945 27.9387 75.3625 28.5573 75.6185 29.24C75.8852 29.9227 76.0185 30.6213 76.0185 31.336C76.0185 32.0933 75.8798 32.8187 75.6025 33.512C75.3358 34.1947 74.9572 34.808 74.4665 35.352C73.9758 35.8853 73.3945 36.3067 72.7225 36.616C72.0612 36.9253 71.3412 37.08 70.5625 37.08ZM66.9465 31.32C66.9465 31.8533 67.0318 32.3707 67.2025 32.872C67.3732 33.3733 67.6132 33.8213 67.9225 34.216C68.2425 34.6 68.6265 34.904 69.0745 35.128C69.5225 35.352 70.0238 35.464 70.5785 35.464C71.1545 35.464 71.6665 35.3467 72.1145 35.112C72.5625 34.8773 72.9358 34.5627 73.2345 34.168C73.5438 33.7627 73.7785 33.3147 73.9385 32.824C74.0985 32.3227 74.1785 31.8213 74.1785 31.32C74.1785 30.7867 74.0932 30.2747 73.9225 29.784C73.7625 29.2827 73.5225 28.84 73.2025 28.456C72.8825 28.0613 72.4985 27.752 72.0505 27.528C71.6132 27.304 71.1225 27.192 70.5785 27.192C70.0025 27.192 69.4905 27.3093 69.0425 27.544C68.5945 27.7787 68.2158 28.0933 67.9065 28.488C67.5972 28.8827 67.3572 29.3253 67.1865 29.816C67.0265 30.3067 66.9465 30.808 66.9465 31.32ZM77.9557 25.64L81.0918 31.288L84.2598 25.64H86.2278L81.9878 32.936V37H80.1958V32.904L75.9878 25.64H77.9557ZM97.1914 37V28.904L93.8474 35.048H92.7914L89.4314 28.904V37H87.6394V25.64H89.5594L93.3194 32.584L97.0794 25.64H98.9994V37H97.1914ZM109.353 35.416V37H101.561V25.64H109.209V27.224H103.353V30.456H108.425V31.944H103.353V35.416H109.353ZM112.994 28.968V37H111.202V25.64H112.674L119.106 33.848V25.656H120.914V37H119.346L112.994 28.968ZM131.804 27.224H128.028V37H126.22V27.224H122.428V25.64H131.804V27.224Z" fill="white"/>
<path d="M26.628 64.835H27.486L28.786 68.111L30.099 64.835H30.97L29.358 68.774L31.126 72.947L34.467 64.77H35.455L31.542 74H30.736L28.799 69.437L26.849 74H26.056L22.156 64.77H23.131L26.485 72.947L28.24 68.774L26.628 64.835ZM38.6207 74.13C38.1354 74.13 37.6847 74.039 37.2687 73.857C36.8527 73.6663 36.493 73.4107 36.1897 73.09C35.8864 72.7607 35.648 72.3837 35.4747 71.959C35.31 71.5343 35.2277 71.0793 35.2277 70.594C35.2277 69.9613 35.3707 69.3807 35.6567 68.852C35.9514 68.3233 36.3544 67.903 36.8657 67.591C37.377 67.2703 37.9577 67.11 38.6077 67.11C39.275 67.11 39.8557 67.2703 40.3497 67.591C40.8524 67.9117 41.2467 68.3363 41.5327 68.865C41.8187 69.385 41.9617 69.957 41.9617 70.581C41.9617 70.6503 41.9617 70.7197 41.9617 70.789C41.9617 70.8497 41.9574 70.8973 41.9487 70.932H36.1507C36.194 71.4173 36.3284 71.8507 36.5537 72.232C36.7877 72.6047 37.0867 72.9037 37.4507 73.129C37.8234 73.3457 38.2264 73.454 38.6597 73.454C39.1017 73.454 39.5177 73.3413 39.9077 73.116C40.3064 72.8907 40.5837 72.596 40.7397 72.232L41.5067 72.44C41.368 72.7607 41.1557 73.051 40.8697 73.311C40.5837 73.571 40.2457 73.7747 39.8557 73.922C39.4744 74.0607 39.0627 74.13 38.6207 74.13ZM36.1247 70.295H41.1297C41.095 69.801 40.9607 69.3677 40.7267 68.995C40.5014 68.6223 40.2024 68.332 39.8297 68.124C39.4657 67.9073 39.0627 67.799 38.6207 67.799C38.1787 67.799 37.7757 67.9073 37.4117 68.124C37.0477 68.332 36.7487 68.6267 36.5147 69.008C36.2894 69.3807 36.1594 69.8097 36.1247 70.295ZM52.3331 74H51.4491V70.217C51.4491 69.4543 51.3147 68.8823 51.0461 68.501C50.7774 68.111 50.3917 67.916 49.8891 67.916C49.5597 67.916 49.2304 68.0027 48.9011 68.176C48.5804 68.3407 48.2944 68.5703 48.0431 68.865C47.8004 69.151 47.6271 69.4803 47.5231 69.853V74H46.6391V64.51H47.5231V68.761C47.7917 68.2583 48.1644 67.8597 48.6411 67.565C49.1264 67.2617 49.6421 67.11 50.1881 67.11C50.5781 67.11 50.9074 67.1793 51.1761 67.318C51.4534 67.4567 51.6744 67.6603 51.8391 67.929C52.0124 68.189 52.1381 68.4967 52.2161 68.852C52.2941 69.1987 52.3331 69.593 52.3331 70.035V74ZM54.2182 74V67.227H55.1022V74H54.2182ZM54.2182 65.81V64.51H55.1022V65.81H54.2182ZM60.4292 68.007C59.8399 68.0243 59.3199 68.189 58.8692 68.501C58.4272 68.813 58.1152 69.242 57.9332 69.788V74H57.0492V67.227H57.8812V68.852C58.1152 68.3753 58.4229 67.9897 58.8042 67.695C59.1942 67.4003 59.6059 67.2357 60.0392 67.201C60.1259 67.1923 60.1996 67.188 60.2602 67.188C60.3296 67.188 60.3859 67.1923 60.4292 67.201V68.007ZM64.316 74.13C63.8307 74.13 63.38 74.039 62.964 73.857C62.548 73.6663 62.1883 73.4107 61.885 73.09C61.5817 72.7607 61.3433 72.3837 61.17 71.959C61.0053 71.5343 60.923 71.0793 60.923 70.594C60.923 69.9613 61.066 69.3807 61.352 68.852C61.6467 68.3233 62.0497 67.903 62.561 67.591C63.0723 67.2703 63.653 67.11 64.303 67.11C64.9703 67.11 65.551 67.2703 66.045 67.591C66.5477 67.9117 66.942 68.3363 67.228 68.865C67.514 69.385 67.657 69.957 67.657 70.581C67.657 70.6503 67.657 70.7197 67.657 70.789C67.657 70.8497 67.6527 70.8973 67.644 70.932H61.846C61.8893 71.4173 62.0237 71.8507 62.249 72.232C62.483 72.6047 62.782 72.9037 63.146 73.129C63.5187 73.3457 63.9217 73.454 64.355 73.454C64.797 73.454 65.213 73.3413 65.603 73.116C66.0017 72.8907 66.279 72.596 66.435 72.232L67.202 72.44C67.0633 72.7607 66.851 73.051 66.565 73.311C66.279 73.571 65.941 73.7747 65.551 73.922C65.1697 74.0607 64.758 74.13 64.316 74.13ZM61.82 70.295H66.825C66.7903 69.801 66.656 69.3677 66.422 68.995C66.1967 68.6223 65.8977 68.332 65.525 68.124C65.161 67.9073 64.758 67.799 64.316 67.799C63.874 67.799 63.471 67.9073 63.107 68.124C62.743 68.332 62.444 68.6267 62.21 69.008C61.9847 69.3807 61.8547 69.8097 61.82 70.295ZM74.9474 74.13C74.488 74.13 74.0677 74.0347 73.6864 73.844C73.3137 73.6533 72.993 73.3933 72.7244 73.064C72.4557 72.7347 72.2477 72.362 72.1004 71.946C71.953 71.5213 71.8794 71.0793 71.8794 70.62C71.8794 70.1433 71.9617 69.697 72.1264 69.281C72.291 68.8563 72.5164 68.4837 72.8024 68.163C73.097 67.8337 73.4394 67.578 73.8294 67.396C74.228 67.2053 74.6527 67.11 75.1034 67.11C75.632 67.11 76.1174 67.2487 76.5594 67.526C77.01 67.7947 77.361 68.137 77.6124 68.553V67.227H78.4054V76.769H77.5214V72.596C76.854 73.6187 75.996 74.13 74.9474 74.13ZM75.2204 73.35C75.5757 73.35 75.8964 73.2807 76.1824 73.142C76.477 72.9947 76.7327 72.7997 76.9494 72.557C77.1747 72.3143 77.3654 72.0457 77.5214 71.751V69.658C77.4954 69.424 77.4087 69.203 77.2614 68.995C77.114 68.7783 76.932 68.5877 76.7154 68.423C76.4987 68.2497 76.2647 68.1197 76.0134 68.033C75.762 67.9377 75.515 67.89 75.2724 67.89C74.8997 67.89 74.5617 67.968 74.2584 68.124C73.9637 68.28 73.7037 68.488 73.4784 68.748C73.253 69.008 73.0797 69.3027 72.9584 69.632C72.837 69.9613 72.7764 70.295 72.7764 70.633C72.7764 71.1183 72.8804 71.569 73.0884 71.985C73.305 72.401 73.5954 72.7347 73.9594 72.986C74.3234 73.2287 74.7437 73.35 75.2204 73.35ZM80.2928 71.205V67.227H81.1768V71.049C81.1768 71.8203 81.3068 72.3967 81.5668 72.778C81.8355 73.1593 82.2298 73.35 82.7498 73.35C83.0965 73.35 83.4301 73.2763 83.7508 73.129C84.0801 72.973 84.3705 72.7563 84.6218 72.479C84.8731 72.193 85.0638 71.8637 85.1938 71.491V67.227H86.0778V72.934C86.0778 73.0553 86.1038 73.1463 86.1558 73.207C86.2078 73.259 86.2858 73.2893 86.3898 73.298V74C86.2858 74.0087 86.2035 74.013 86.1428 74.013C86.0821 74.0217 86.0258 74.026 85.9738 74.026C85.8005 74.0087 85.6488 73.9393 85.5188 73.818C85.3975 73.6967 85.3325 73.5493 85.3238 73.376L85.2978 72.466C85.0031 72.986 84.6001 73.3933 84.0888 73.688C83.5861 73.9827 83.0401 74.13 82.4508 74.13C81.7401 74.13 81.2028 73.883 80.8388 73.389C80.4748 72.895 80.2928 72.167 80.2928 71.205ZM87.5306 72.05C87.5306 71.6253 87.6519 71.2613 87.8946 70.958C88.1372 70.646 88.4709 70.4077 88.8956 70.243C89.3289 70.0697 89.8272 69.983 90.3906 69.983C90.7199 69.983 91.0622 70.009 91.4176 70.061C91.7729 70.113 92.0892 70.191 92.3666 70.295V69.723C92.3666 69.151 92.1976 68.696 91.8596 68.358C91.5216 68.02 91.0536 67.851 90.4556 67.851C90.0916 67.851 89.7319 67.9203 89.3766 68.059C89.0299 68.189 88.6659 68.384 88.2846 68.644L87.9466 68.02C88.3886 67.7167 88.8219 67.4913 89.2466 67.344C89.6712 67.188 90.1046 67.11 90.5466 67.11C91.3786 67.11 92.0372 67.3483 92.5226 67.825C93.0079 68.3017 93.2506 68.9603 93.2506 69.801V72.934C93.2506 73.0553 93.2766 73.1463 93.3286 73.207C93.3806 73.259 93.4629 73.2893 93.5756 73.298V74C93.4802 74.0087 93.3979 74.0173 93.3286 74.026C93.2592 74.0347 93.2072 74.0347 93.1726 74.026C92.9559 74.0173 92.7912 73.948 92.6786 73.818C92.5659 73.688 92.5052 73.5493 92.4966 73.402L92.4836 72.908C92.1802 73.298 91.7859 73.6013 91.3006 73.818C90.8152 74.026 90.3212 74.13 89.8186 74.13C89.3852 74.13 88.9909 74.039 88.6356 73.857C88.2889 73.6663 88.0159 73.415 87.8166 73.103C87.6259 72.7823 87.5306 72.4313 87.5306 72.05ZM92.0676 72.57C92.1629 72.4487 92.2366 72.3317 92.2886 72.219C92.3406 72.1063 92.3666 72.0067 92.3666 71.92V70.932C92.0719 70.8193 91.7642 70.7327 91.4436 70.672C91.1316 70.6113 90.8152 70.581 90.4946 70.581C89.8619 70.581 89.3506 70.7067 88.9606 70.958C88.5706 71.2093 88.3756 71.5517 88.3756 71.985C88.3756 72.2363 88.4406 72.4747 88.5706 72.7C88.7006 72.9167 88.8912 73.0987 89.1426 73.246C89.3939 73.3847 89.6886 73.454 90.0266 73.454C90.4512 73.454 90.8456 73.3717 91.2096 73.207C91.5822 73.0423 91.8682 72.83 92.0676 72.57ZM95.1995 64.51H96.0835V72.466C96.0835 72.804 96.1442 73.025 96.2655 73.129C96.3869 73.233 96.5342 73.285 96.7075 73.285C96.8635 73.285 97.0195 73.2677 97.1755 73.233C97.3315 73.1983 97.4659 73.1637 97.5785 73.129L97.7345 73.844C97.5699 73.9133 97.3662 73.9697 97.1235 74.013C96.8895 74.0563 96.6859 74.078 96.5125 74.078C96.1139 74.078 95.7932 73.961 95.5505 73.727C95.3165 73.493 95.1995 73.1723 95.1995 72.765V64.51ZM98.7025 74V67.227H99.5865V74H98.7025ZM98.7025 65.81V64.51H99.5865V65.81H98.7025ZM101.859 67.929H100.923V67.227H101.859V67.045C101.859 66.7243 101.906 66.408 102.002 66.096C102.097 65.784 102.24 65.498 102.431 65.238C102.63 64.978 102.877 64.77 103.172 64.614C103.475 64.458 103.835 64.38 104.251 64.38C104.571 64.38 104.857 64.4147 105.109 64.484C105.369 64.5533 105.594 64.6357 105.785 64.731C105.975 64.8263 106.118 64.913 106.214 64.991L105.811 65.628C105.672 65.498 105.464 65.3897 105.187 65.303C104.918 65.2077 104.623 65.16 104.303 65.16C103.939 65.16 103.64 65.2553 103.406 65.446C103.18 65.628 103.011 65.862 102.899 66.148C102.795 66.434 102.743 66.7243 102.743 67.019V67.227H106.136V74H105.252V67.929H102.743V74H101.859V67.929ZM111.009 74.13C110.524 74.13 110.073 74.039 109.657 73.857C109.241 73.6663 108.882 73.4107 108.578 73.09C108.275 72.7607 108.037 72.3837 107.863 71.959C107.699 71.5343 107.616 71.0793 107.616 70.594C107.616 69.9613 107.759 69.3807 108.045 68.852C108.34 68.3233 108.743 67.903 109.254 67.591C109.766 67.2703 110.346 67.11 110.996 67.11C111.664 67.11 112.244 67.2703 112.738 67.591C113.241 67.9117 113.635 68.3363 113.921 68.865C114.207 69.385 114.35 69.957 114.35 70.581C114.35 70.6503 114.35 70.7197 114.35 70.789C114.35 70.8497 114.346 70.8973 114.337 70.932H108.539C108.583 71.4173 108.717 71.8507 108.942 72.232C109.176 72.6047 109.475 72.9037 109.839 73.129C110.212 73.3457 110.615 73.454 111.048 73.454C111.49 73.454 111.906 73.3413 112.296 73.116C112.695 72.8907 112.972 72.596 113.128 72.232L113.895 72.44C113.757 72.7607 113.544 73.051 113.258 73.311C112.972 73.571 112.634 73.7747 112.244 73.922C111.863 74.0607 111.451 74.13 111.009 74.13ZM108.513 70.295H113.518C113.484 69.801 113.349 69.3677 113.115 68.995C112.89 68.6223 112.591 68.332 112.218 68.124C111.854 67.9073 111.451 67.799 111.009 67.799C110.567 67.799 110.164 67.9073 109.8 68.124C109.436 68.332 109.137 68.6267 108.903 69.008C108.678 69.3807 108.548 69.8097 108.513 70.295ZM115.259 70.633C115.259 69.9917 115.389 69.4067 115.649 68.878C115.918 68.3407 116.286 67.9117 116.754 67.591C117.222 67.2703 117.755 67.11 118.353 67.11C118.917 67.11 119.419 67.2617 119.861 67.565C120.312 67.8597 120.663 68.2193 120.914 68.644V64.51H121.798V72.934C121.798 73.0553 121.824 73.1463 121.876 73.207C121.928 73.259 122.006 73.2893 122.11 73.298V74C121.937 74.026 121.803 74.0347 121.707 74.026C121.525 74.0173 121.365 73.9437 121.226 73.805C121.088 73.6663 121.018 73.5147 121.018 73.35V72.687C120.75 73.129 120.386 73.48 119.926 73.74C119.467 74 118.99 74.13 118.496 74.13C118.028 74.13 117.595 74.0347 117.196 73.844C116.806 73.6533 116.464 73.3933 116.169 73.064C115.883 72.7347 115.658 72.362 115.493 71.946C115.337 71.5213 115.259 71.0837 115.259 70.633ZM120.914 71.673V69.58C120.802 69.268 120.62 68.9863 120.368 68.735C120.117 68.475 119.831 68.2713 119.51 68.124C119.198 67.968 118.886 67.89 118.574 67.89C118.21 67.89 117.881 67.968 117.586 68.124C117.292 68.2713 117.036 68.475 116.819 68.735C116.611 68.995 116.451 69.2897 116.338 69.619C116.226 69.9483 116.169 70.2863 116.169 70.633C116.169 70.997 116.23 71.3437 116.351 71.673C116.481 72.0023 116.663 72.297 116.897 72.557C117.131 72.8083 117.4 73.0033 117.703 73.142C118.007 73.2807 118.336 73.35 118.691 73.35C118.917 73.35 119.151 73.3067 119.393 73.22C119.636 73.1333 119.866 73.0163 120.082 72.869C120.308 72.713 120.494 72.531 120.641 72.323C120.789 72.115 120.88 71.8983 120.914 71.673ZM126.569 72.05C126.569 71.6253 126.69 71.2613 126.933 70.958C127.175 70.646 127.509 70.4077 127.934 70.243C128.367 70.0697 128.865 69.983 129.429 69.983C129.758 69.983 130.1 70.009 130.456 70.061C130.811 70.113 131.127 70.191 131.405 70.295V69.723C131.405 69.151 131.236 68.696 130.898 68.358C130.56 68.02 130.092 67.851 129.494 67.851C129.13 67.851 128.77 67.9203 128.415 68.059C128.068 68.189 127.704 68.384 127.323 68.644L126.985 68.02C127.427 67.7167 127.86 67.4913 128.285 67.344C128.709 67.188 129.143 67.11 129.585 67.11C130.417 67.11 131.075 67.3483 131.561 67.825C132.046 68.3017 132.289 68.9603 132.289 69.801V72.934C132.289 73.0553 132.315 73.1463 132.367 73.207C132.419 73.259 132.501 73.2893 132.614 73.298V74C132.518 74.0087 132.436 74.0173 132.367 74.026C132.297 74.0347 132.245 74.0347 132.211 74.026C131.994 74.0173 131.829 73.948 131.717 73.818C131.604 73.688 131.543 73.5493 131.535 73.402L131.522 72.908C131.218 73.298 130.824 73.6013 130.339 73.818C129.853 74.026 129.359 74.13 128.857 74.13C128.423 74.13 128.029 74.039 127.674 73.857C127.327 73.6663 127.054 73.415 126.855 73.103C126.664 72.7823 126.569 72.4313 126.569 72.05ZM131.106 72.57C131.201 72.4487 131.275 72.3317 131.327 72.219C131.379 72.1063 131.405 72.0067 131.405 71.92V70.932C131.11 70.8193 130.802 70.7327 130.482 70.672C130.17 70.6113 129.853 70.581 129.533 70.581C128.9 70.581 128.389 70.7067 127.999 70.958C127.609 71.2093 127.414 71.5517 127.414 71.985C127.414 72.2363 127.479 72.4747 127.609 72.7C127.739 72.9167 127.929 73.0987 128.181 73.246C128.432 73.3847 128.727 73.454 129.065 73.454C129.489 73.454 129.884 73.3717 130.248 73.207C130.62 73.0423 130.906 72.83 131.106 72.57ZM139.893 74H139.009V70.217C139.009 69.4197 138.892 68.839 138.658 68.475C138.424 68.1023 138.055 67.916 137.553 67.916C137.206 67.916 136.864 68.0027 136.526 68.176C136.188 68.3407 135.889 68.5703 135.629 68.865C135.377 69.151 135.195 69.4803 135.083 69.853V74H134.199V67.227H135.005V68.761C135.187 68.4317 135.425 68.1457 135.72 67.903C136.014 67.6517 136.348 67.4567 136.721 67.318C137.093 67.1793 137.479 67.11 137.878 67.11C138.25 67.11 138.567 67.1793 138.827 67.318C139.087 67.4567 139.295 67.656 139.451 67.916C139.607 68.1673 139.719 68.475 139.789 68.839C139.858 69.1943 139.893 69.593 139.893 70.035V74ZM141.323 70.633C141.323 69.9917 141.453 69.4067 141.713 68.878C141.981 68.3407 142.35 67.9117 142.818 67.591C143.286 67.2703 143.819 67.11 144.417 67.11C144.98 67.11 145.483 67.2617 145.925 67.565C146.375 67.8597 146.726 68.2193 146.978 68.644V64.51H147.862V72.934C147.862 73.0553 147.888 73.1463 147.94 73.207C147.992 73.259 148.07 73.2893 148.174 73.298V74C148 74.026 147.866 74.0347 147.771 74.026C147.589 74.0173 147.428 73.9437 147.29 73.805C147.151 73.6663 147.082 73.5147 147.082 73.35V72.687C146.813 73.129 146.449 73.48 145.99 73.74C145.53 74 145.054 74.13 144.56 74.13C144.092 74.13 143.658 74.0347 143.26 73.844C142.87 73.6533 142.527 73.3933 142.233 73.064C141.947 72.7347 141.721 72.362 141.557 71.946C141.401 71.5213 141.323 71.0837 141.323 70.633ZM146.978 71.673V69.58C146.865 69.268 146.683 68.9863 146.432 68.735C146.18 68.475 145.894 68.2713 145.574 68.124C145.262 67.968 144.95 67.89 144.638 67.89C144.274 67.89 143.944 67.968 143.65 68.124C143.355 68.2713 143.099 68.475 142.883 68.735C142.675 68.995 142.514 69.2897 142.402 69.619C142.289 69.9483 142.233 70.2863 142.233 70.633C142.233 70.997 142.293 71.3437 142.415 71.673C142.545 72.0023 142.727 72.297 142.961 72.557C143.195 72.8083 143.463 73.0033 143.767 73.142C144.07 73.2807 144.399 73.35 144.755 73.35C144.98 73.35 145.214 73.3067 145.457 73.22C145.699 73.1333 145.929 73.0163 146.146 72.869C146.371 72.713 146.557 72.531 146.705 72.323C146.852 72.115 146.943 71.8983 146.978 71.673ZM31.503 83.227H32.374L29.462 90H28.695L27.278 86.633L25.874 90H25.107L22.195 83.227H23.053L25.523 89.09L26.771 86.035L25.627 83.24H26.42L27.278 85.437L28.149 83.24H28.929L27.798 86.035L29.046 89.09L31.503 83.227ZM36.2467 90.13C35.7613 90.13 35.3107 90.039 34.8947 89.857C34.4787 89.6663 34.119 89.4107 33.8157 89.09C33.5123 88.7607 33.274 88.3837 33.1007 87.959C32.936 87.5343 32.8537 87.0793 32.8537 86.594C32.8537 85.9613 32.9967 85.3807 33.2827 84.852C33.5773 84.3233 33.9803 83.903 34.4917 83.591C35.003 83.2703 35.5837 83.11 36.2337 83.11C36.901 83.11 37.4817 83.2703 37.9757 83.591C38.4783 83.9117 38.8727 84.3363 39.1587 84.865C39.4447 85.385 39.5877 85.957 39.5877 86.581C39.5877 86.6503 39.5877 86.7197 39.5877 86.789C39.5877 86.8497 39.5833 86.8973 39.5747 86.932H33.7767C33.82 87.4173 33.9543 87.8507 34.1797 88.232C34.4137 88.6047 34.7127 88.9037 35.0767 89.129C35.4493 89.3457 35.8523 89.454 36.2857 89.454C36.7277 89.454 37.1437 89.3413 37.5337 89.116C37.9323 88.8907 38.2097 88.596 38.3657 88.232L39.1327 88.44C38.994 88.7607 38.7817 89.051 38.4957 89.311C38.2097 89.571 37.8717 89.7747 37.4817 89.922C37.1003 90.0607 36.6887 90.13 36.2467 90.13ZM33.7507 86.295H38.7557C38.721 85.801 38.5867 85.3677 38.3527 84.995C38.1273 84.6223 37.8283 84.332 37.4557 84.124C37.0917 83.9073 36.6887 83.799 36.2467 83.799C35.8047 83.799 35.4017 83.9073 35.0377 84.124C34.6737 84.332 34.3747 84.6267 34.1407 85.008C33.9153 85.3807 33.7853 85.8097 33.7507 86.295ZM40.9906 80.51H41.8746V88.466C41.8746 88.804 41.9352 89.025 42.0566 89.129C42.1779 89.233 42.3252 89.285 42.4986 89.285C42.6546 89.285 42.8106 89.2677 42.9666 89.233C43.1226 89.1983 43.2569 89.1637 43.3696 89.129L43.5256 89.844C43.3609 89.9133 43.1572 89.9697 42.9146 90.013C42.6806 90.0563 42.4769 90.078 42.3036 90.078C41.9049 90.078 41.5842 89.961 41.3416 89.727C41.1076 89.493 40.9906 89.1723 40.9906 88.765V80.51ZM44.5326 80.51H45.4166V88.466C45.4166 88.804 45.4772 89.025 45.5986 89.129C45.7199 89.233 45.8672 89.285 46.0406 89.285C46.1966 89.285 46.3526 89.2677 46.5086 89.233C46.6646 89.1983 46.7989 89.1637 46.9116 89.129L47.0676 89.844C46.9029 89.9133 46.6992 89.9697 46.4566 90.013C46.2226 90.0563 46.0189 90.078 45.8456 90.078C45.4469 90.078 45.1262 89.961 44.8836 89.727C44.6496 89.493 44.5326 89.1723 44.5326 88.765V80.51ZM47.677 86.867V86.048H51.473V86.867H47.677ZM56.5414 89.675C56.4721 89.701 56.3637 89.7487 56.2164 89.818C56.0691 89.8873 55.8914 89.948 55.6834 90C55.4754 90.052 55.2501 90.078 55.0074 90.078C54.7561 90.078 54.5177 90.0303 54.2924 89.935C54.0757 89.8397 53.9024 89.6967 53.7724 89.506C53.6424 89.3067 53.5774 89.064 53.5774 88.778V83.929H52.6414V83.227H53.5774V80.939H54.4614V83.227H56.0214V83.929H54.4614V88.531C54.4787 88.7737 54.5654 88.9557 54.7214 89.077C54.8861 89.1983 55.0724 89.259 55.2804 89.259C55.5231 89.259 55.7441 89.22 55.9434 89.142C56.1427 89.0553 56.2641 88.9947 56.3074 88.96L56.5414 89.675ZM61.0259 84.007C60.4366 84.0243 59.9166 84.189 59.4659 84.501C59.0239 84.813 58.7119 85.242 58.5299 85.788V90H57.6459V83.227H58.4779V84.852C58.7119 84.3753 59.0196 83.9897 59.4009 83.695C59.7909 83.4003 60.2026 83.2357 60.6359 83.201C60.7226 83.1923 60.7962 83.188 60.8569 83.188C60.9262 83.188 60.9826 83.1923 61.0259 83.201V84.007ZM61.6321 88.05C61.6321 87.6253 61.7535 87.2613 61.9961 86.958C62.2388 86.646 62.5725 86.4077 62.9971 86.243C63.4305 86.0697 63.9288 85.983 64.4921 85.983C64.8215 85.983 65.1638 86.009 65.5191 86.061C65.8745 86.113 66.1908 86.191 66.4681 86.295V85.723C66.4681 85.151 66.2991 84.696 65.9611 84.358C65.6231 84.02 65.1551 83.851 64.5571 83.851C64.1931 83.851 63.8335 83.9203 63.4781 84.059C63.1315 84.189 62.7675 84.384 62.3861 84.644L62.0481 84.02C62.4901 83.7167 62.9235 83.4913 63.3481 83.344C63.7728 83.188 64.2061 83.11 64.6481 83.11C65.4801 83.11 66.1388 83.3483 66.6241 83.825C67.1095 84.3017 67.3521 84.9603 67.3521 85.801V88.934C67.3521 89.0553 67.3781 89.1463 67.4301 89.207C67.4821 89.259 67.5645 89.2893 67.6771 89.298V90C67.5818 90.0087 67.4995 90.0173 67.4301 90.026C67.3608 90.0347 67.3088 90.0347 67.2741 90.026C67.0575 90.0173 66.8928 89.948 66.7801 89.818C66.6675 89.688 66.6068 89.5493 66.5981 89.402L66.5851 88.908C66.2818 89.298 65.8875 89.6013 65.4021 89.818C64.9168 90.026 64.4228 90.13 63.9201 90.13C63.4868 90.13 63.0925 90.039 62.7371 89.857C62.3905 89.6663 62.1175 89.415 61.9181 89.103C61.7275 88.7823 61.6321 88.4313 61.6321 88.05ZM66.1691 88.57C66.2645 88.4487 66.3381 88.3317 66.3901 88.219C66.4421 88.1063 66.4681 88.0067 66.4681 87.92V86.932C66.1735 86.8193 65.8658 86.7327 65.5451 86.672C65.2331 86.6113 64.9168 86.581 64.5961 86.581C63.9635 86.581 63.4521 86.7067 63.0621 86.958C62.6721 87.2093 62.4771 87.5517 62.4771 87.985C62.4771 88.2363 62.5421 88.4747 62.6721 88.7C62.8021 88.9167 62.9928 89.0987 63.2441 89.246C63.4955 89.3847 63.7901 89.454 64.1281 89.454C64.5528 89.454 64.9471 89.3717 65.3111 89.207C65.6838 89.0423 65.9698 88.83 66.1691 88.57ZM69.2621 90V83.227H70.1461V90H69.2621ZM69.2621 81.81V80.51H70.1461V81.81H69.2621ZM77.7872 90H76.9032V86.217C76.9032 85.4197 76.7862 84.839 76.5522 84.475C76.3182 84.1023 75.9498 83.916 75.4472 83.916C75.1005 83.916 74.7582 84.0027 74.4202 84.176C74.0822 84.3407 73.7832 84.5703 73.5232 84.865C73.2718 85.151 73.0898 85.4803 72.9772 85.853V90H72.0932V83.227H72.8992V84.761C73.0812 84.4317 73.3195 84.1457 73.6142 83.903C73.9088 83.6517 74.2425 83.4567 74.6152 83.318C74.9878 83.1793 75.3735 83.11 75.7722 83.11C76.1448 83.11 76.4612 83.1793 76.7212 83.318C76.9812 83.4567 77.1892 83.656 77.3452 83.916C77.5012 84.1673 77.6138 84.475 77.6832 84.839C77.7525 85.1943 77.7872 85.593 77.7872 86.035V90ZM82.5973 90.13C82.1119 90.13 81.6613 90.039 81.2453 89.857C80.8293 89.6663 80.4696 89.4107 80.1663 89.09C79.8629 88.7607 79.6246 88.3837 79.4513 87.959C79.2866 87.5343 79.2043 87.0793 79.2043 86.594C79.2043 85.9613 79.3473 85.3807 79.6333 84.852C79.9279 84.3233 80.3309 83.903 80.8423 83.591C81.3536 83.2703 81.9343 83.11 82.5843 83.11C83.2516 83.11 83.8323 83.2703 84.3263 83.591C84.8289 83.9117 85.2233 84.3363 85.5093 84.865C85.7953 85.385 85.9383 85.957 85.9383 86.581C85.9383 86.6503 85.9383 86.7197 85.9383 86.789C85.9383 86.8497 85.9339 86.8973 85.9253 86.932H80.1273C80.1706 87.4173 80.3049 87.8507 80.5303 88.232C80.7643 88.6047 81.0633 88.9037 81.4273 89.129C81.7999 89.3457 82.2029 89.454 82.6363 89.454C83.0783 89.454 83.4943 89.3413 83.8843 89.116C84.2829 88.8907 84.5603 88.596 84.7163 88.232L85.4833 88.44C85.3446 88.7607 85.1323 89.051 84.8463 89.311C84.5603 89.571 84.2223 89.7747 83.8323 89.922C83.4509 90.0607 83.0393 90.13 82.5973 90.13ZM80.1013 86.295H85.1063C85.0716 85.801 84.9373 85.3677 84.7033 84.995C84.4779 84.6223 84.1789 84.332 83.8063 84.124C83.4423 83.9073 83.0393 83.799 82.5973 83.799C82.1553 83.799 81.7523 83.9073 81.3883 84.124C81.0243 84.332 80.7253 84.6267 80.4913 85.008C80.2659 85.3807 80.1359 85.8097 80.1013 86.295ZM86.8471 86.633C86.8471 85.9917 86.9771 85.4067 87.2371 84.878C87.5058 84.3407 87.8741 83.9117 88.3421 83.591C88.8101 83.2703 89.3431 83.11 89.9411 83.11C90.5045 83.11 91.0071 83.2617 91.4491 83.565C91.8998 83.8597 92.2508 84.2193 92.5021 84.644V80.51H93.3861V88.934C93.3861 89.0553 93.4121 89.1463 93.4641 89.207C93.5161 89.259 93.5941 89.2893 93.6981 89.298V90C93.5248 90.026 93.3905 90.0347 93.2951 90.026C93.1131 90.0173 92.9528 89.9437 92.8141 89.805C92.6755 89.6663 92.6061 89.5147 92.6061 89.35V88.687C92.3375 89.129 91.9735 89.48 91.5141 89.74C91.0548 90 90.5781 90.13 90.0841 90.13C89.6161 90.13 89.1828 90.0347 88.7841 89.844C88.3941 89.6533 88.0518 89.3933 87.7571 89.064C87.4711 88.7347 87.2458 88.362 87.0811 87.946C86.9251 87.5213 86.8471 87.0837 86.8471 86.633ZM92.5021 87.673V85.58C92.3895 85.268 92.2075 84.9863 91.9561 84.735C91.7048 84.475 91.4188 84.2713 91.0981 84.124C90.7861 83.968 90.4741 83.89 90.1621 83.89C89.7981 83.89 89.4688 83.968 89.1741 84.124C88.8795 84.2713 88.6238 84.475 88.4071 84.735C88.1991 84.995 88.0388 85.2897 87.9261 85.619C87.8135 85.9483 87.7571 86.2863 87.7571 86.633C87.7571 86.997 87.8178 87.3437 87.9391 87.673C88.0691 88.0023 88.2511 88.297 88.4851 88.557C88.7191 88.8083 88.9878 89.0033 89.2911 89.142C89.5945 89.2807 89.9238 89.35 90.2791 89.35C90.5045 89.35 90.7385 89.3067 90.9811 89.22C91.2238 89.1333 91.4535 89.0163 91.6701 88.869C91.8955 88.713 92.0818 88.531 92.2291 88.323C92.3765 88.115 92.4675 87.8983 92.5021 87.673ZM100.926 90.13C100.371 90.13 99.8552 90.039 99.3785 89.857C98.9019 89.675 98.4902 89.3977 98.1435 89.025L98.5075 88.401C98.8889 88.7563 99.2702 89.0163 99.6515 89.181C100.042 89.337 100.453 89.415 100.887 89.415C101.415 89.415 101.844 89.311 102.174 89.103C102.503 88.8863 102.668 88.5787 102.668 88.18C102.668 87.9113 102.585 87.7077 102.421 87.569C102.265 87.4217 102.035 87.3047 101.732 87.218C101.437 87.1227 101.082 87.023 100.666 86.919C100.198 86.789 99.8032 86.6547 99.4825 86.516C99.1705 86.3687 98.9322 86.1867 98.7675 85.97C98.6115 85.7447 98.5335 85.4543 98.5335 85.099C98.5335 84.657 98.6419 84.293 98.8585 84.007C99.0839 83.7123 99.3872 83.4913 99.7685 83.344C100.159 83.188 100.592 83.11 101.069 83.11C101.589 83.11 102.048 83.1923 102.447 83.357C102.845 83.5217 103.17 83.7513 103.422 84.046L102.993 84.644C102.75 84.3667 102.46 84.163 102.122 84.033C101.792 83.8943 101.424 83.825 101.017 83.825C100.739 83.825 100.475 83.864 100.224 83.942C99.9722 84.0113 99.7642 84.1327 99.5995 84.306C99.4435 84.4707 99.3655 84.7003 99.3655 84.995C99.3655 85.2377 99.4262 85.4283 99.5475 85.567C99.6689 85.697 99.8509 85.8097 100.094 85.905C100.336 85.9917 100.635 86.087 100.991 86.191C101.502 86.3297 101.948 86.4727 102.33 86.62C102.711 86.7587 103.006 86.9407 103.214 87.166C103.422 87.3913 103.526 87.7077 103.526 88.115C103.526 88.7477 103.287 89.2417 102.811 89.597C102.334 89.9523 101.706 90.13 100.926 90.13ZM108.445 90.13C107.881 90.13 107.374 89.9827 106.924 89.688C106.482 89.3933 106.131 89.0293 105.871 88.596V92.769H104.987V83.227H105.78V84.54C106.048 84.1153 106.408 83.773 106.859 83.513C107.309 83.2443 107.79 83.11 108.302 83.11C108.77 83.11 109.199 83.2097 109.589 83.409C109.979 83.5997 110.317 83.8597 110.603 84.189C110.889 84.5183 111.11 84.8953 111.266 85.32C111.43 85.736 111.513 86.1693 111.513 86.62C111.513 87.2527 111.383 87.8377 111.123 88.375C110.871 88.9037 110.516 89.3283 110.057 89.649C109.597 89.9697 109.06 90.13 108.445 90.13ZM108.198 89.35C108.57 89.35 108.904 89.2763 109.199 89.129C109.493 88.973 109.745 88.765 109.953 88.505C110.169 88.245 110.334 87.9547 110.447 87.634C110.559 87.3047 110.616 86.9667 110.616 86.62C110.616 86.256 110.551 85.9093 110.421 85.58C110.299 85.2507 110.122 84.9603 109.888 84.709C109.654 84.4577 109.385 84.2583 109.082 84.111C108.778 83.9637 108.449 83.89 108.094 83.89C107.868 83.89 107.634 83.9333 107.392 84.02C107.149 84.1067 106.915 84.2323 106.69 84.397C106.473 84.553 106.291 84.7307 106.144 84.93C105.996 85.1293 105.905 85.3417 105.871 85.567V87.647C106.009 87.9677 106.196 88.258 106.43 88.518C106.664 88.7693 106.932 88.973 107.236 89.129C107.548 89.2763 107.868 89.35 108.198 89.35ZM115.935 90.13C115.45 90.13 114.999 90.039 114.583 89.857C114.167 89.6663 113.807 89.4107 113.504 89.09C113.201 88.7607 112.962 88.3837 112.789 87.959C112.624 87.5343 112.542 87.0793 112.542 86.594C112.542 85.9613 112.685 85.3807 112.971 84.852C113.266 84.3233 113.669 83.903 114.18 83.591C114.691 83.2703 115.272 83.11 115.922 83.11C116.589 83.11 117.17 83.2703 117.664 83.591C118.167 83.9117 118.561 84.3363 118.847 84.865C119.133 85.385 119.276 85.957 119.276 86.581C119.276 86.6503 119.276 86.7197 119.276 86.789C119.276 86.8497 119.272 86.8973 119.263 86.932H113.465C113.508 87.4173 113.643 87.8507 113.868 88.232C114.102 88.6047 114.401 88.9037 114.765 89.129C115.138 89.3457 115.541 89.454 115.974 89.454C116.416 89.454 116.832 89.3413 117.222 89.116C117.621 88.8907 117.898 88.596 118.054 88.232L118.821 88.44C118.682 88.7607 118.47 89.051 118.184 89.311C117.898 89.571 117.56 89.7747 117.17 89.922C116.789 90.0607 116.377 90.13 115.935 90.13ZM113.439 86.295H118.444C118.409 85.801 118.275 85.3677 118.041 84.995C117.816 84.6223 117.517 84.332 117.144 84.124C116.78 83.9073 116.377 83.799 115.935 83.799C115.493 83.799 115.09 83.9073 114.726 84.124C114.362 84.332 114.063 84.6267 113.829 85.008C113.604 85.3807 113.474 85.8097 113.439 86.295ZM123.578 90.13C123.084 90.13 122.629 90.039 122.213 89.857C121.806 89.6663 121.446 89.4063 121.134 89.077C120.831 88.7477 120.592 88.3707 120.419 87.946C120.254 87.5213 120.172 87.0707 120.172 86.594C120.172 85.9527 120.315 85.3677 120.601 84.839C120.887 84.3103 121.286 83.89 121.797 83.578C122.308 83.266 122.898 83.11 123.565 83.11C124.198 83.11 124.757 83.2573 125.242 83.552C125.727 83.838 126.087 84.228 126.321 84.722L125.463 84.995C125.272 84.6483 125.004 84.3797 124.657 84.189C124.319 83.9897 123.942 83.89 123.526 83.89C123.075 83.89 122.664 84.007 122.291 84.241C121.918 84.475 121.619 84.7957 121.394 85.203C121.177 85.6103 121.069 86.074 121.069 86.594C121.069 87.1053 121.182 87.569 121.407 87.985C121.632 88.401 121.931 88.7347 122.304 88.986C122.677 89.2287 123.088 89.35 123.539 89.35C123.834 89.35 124.115 89.298 124.384 89.194C124.661 89.09 124.9 88.9513 125.099 88.778C125.307 88.596 125.446 88.401 125.515 88.193L126.386 88.453C126.265 88.7737 126.061 89.064 125.775 89.324C125.498 89.5753 125.168 89.7747 124.787 89.922C124.414 90.0607 124.011 90.13 123.578 90.13ZM127.775 90V83.227H128.659V90H127.775ZM127.775 81.81V80.51H128.659V81.81H127.775ZM130.06 88.05C130.06 87.6253 130.181 87.2613 130.424 86.958C130.667 86.646 131 86.4077 131.425 86.243C131.858 86.0697 132.357 85.983 132.92 85.983C133.249 85.983 133.592 86.009 133.947 86.061C134.302 86.113 134.619 86.191 134.896 86.295V85.723C134.896 85.151 134.727 84.696 134.389 84.358C134.051 84.02 133.583 83.851 132.985 83.851C132.621 83.851 132.261 83.9203 131.906 84.059C131.559 84.189 131.195 84.384 130.814 84.644L130.476 84.02C130.918 83.7167 131.351 83.4913 131.776 83.344C132.201 83.188 132.634 83.11 133.076 83.11C133.908 83.11 134.567 83.3483 135.052 83.825C135.537 84.3017 135.78 84.9603 135.78 85.801V88.934C135.78 89.0553 135.806 89.1463 135.858 89.207C135.91 89.259 135.992 89.2893 136.105 89.298V90C136.01 90.0087 135.927 90.0173 135.858 90.026C135.789 90.0347 135.737 90.0347 135.702 90.026C135.485 90.0173 135.321 89.948 135.208 89.818C135.095 89.688 135.035 89.5493 135.026 89.402L135.013 88.908C134.71 89.298 134.315 89.6013 133.83 89.818C133.345 90.026 132.851 90.13 132.348 90.13C131.915 90.13 131.52 90.039 131.165 89.857C130.818 89.6663 130.545 89.415 130.346 89.103C130.155 88.7823 130.06 88.4313 130.06 88.05ZM134.597 88.57C134.692 88.4487 134.766 88.3317 134.818 88.219C134.87 88.1063 134.896 88.0067 134.896 87.92V86.932C134.601 86.8193 134.294 86.7327 133.973 86.672C133.661 86.6113 133.345 86.581 133.024 86.581C132.391 86.581 131.88 86.7067 131.49 86.958C131.1 87.2093 130.905 87.5517 130.905 87.985C130.905 88.2363 130.97 88.4747 131.1 88.7C131.23 88.9167 131.421 89.0987 131.672 89.246C131.923 89.3847 132.218 89.454 132.556 89.454C132.981 89.454 133.375 89.3717 133.739 89.207C134.112 89.0423 134.398 88.83 134.597 88.57ZM137.729 80.51H138.613V88.466C138.613 88.804 138.674 89.025 138.795 89.129C138.916 89.233 139.064 89.285 139.237 89.285C139.393 89.285 139.549 89.2677 139.705 89.233C139.861 89.1983 139.995 89.1637 140.108 89.129L140.264 89.844C140.099 89.9133 139.896 89.9697 139.653 90.013C139.419 90.0563 139.215 90.078 139.042 90.078C138.643 90.078 138.323 89.961 138.08 89.727C137.846 89.493 137.729 89.1723 137.729 88.765V80.51ZM141.232 90V83.227H142.116V90H141.232ZM141.232 81.81V80.51H142.116V81.81H141.232ZM146.286 90.13C145.731 90.13 145.216 90.039 144.739 89.857C144.262 89.675 143.851 89.3977 143.504 89.025L143.868 88.401C144.249 88.7563 144.631 89.0163 145.012 89.181C145.402 89.337 145.814 89.415 146.247 89.415C146.776 89.415 147.205 89.311 147.534 89.103C147.863 88.8863 148.028 88.5787 148.028 88.18C148.028 87.9113 147.946 87.7077 147.781 87.569C147.625 87.4217 147.395 87.3047 147.092 87.218C146.797 87.1227 146.442 87.023 146.026 86.919C145.558 86.789 145.164 86.6547 144.843 86.516C144.531 86.3687 144.293 86.1867 144.128 85.97C143.972 85.7447 143.894 85.4543 143.894 85.099C143.894 84.657 144.002 84.293 144.219 84.007C144.444 83.7123 144.748 83.4913 145.129 83.344C145.519 83.188 145.952 83.11 146.429 83.11C146.949 83.11 147.408 83.1923 147.807 83.357C148.206 83.5217 148.531 83.7513 148.782 84.046L148.353 84.644C148.11 84.3667 147.82 84.163 147.482 84.033C147.153 83.8943 146.784 83.825 146.377 83.825C146.1 83.825 145.835 83.864 145.584 83.942C145.333 84.0113 145.125 84.1327 144.96 84.306C144.804 84.4707 144.726 84.7003 144.726 84.995C144.726 85.2377 144.787 85.4283 144.908 85.567C145.029 85.697 145.211 85.8097 145.454 85.905C145.697 85.9917 145.996 86.087 146.351 86.191C146.862 86.3297 147.309 86.4727 147.69 86.62C148.071 86.7587 148.366 86.9407 148.574 87.166C148.782 87.3913 148.886 87.7077 148.886 88.115C148.886 88.7477 148.648 89.2417 148.171 89.597C147.694 89.9523 147.066 90.13 146.286 90.13ZM153.597 89.675C153.528 89.701 153.419 89.7487 153.272 89.818C153.125 89.8873 152.947 89.948 152.739 90C152.531 90.052 152.306 90.078 152.063 90.078C151.812 90.078 151.573 90.0303 151.348 89.935C151.131 89.8397 150.958 89.6967 150.828 89.506C150.698 89.3067 150.633 89.064 150.633 88.778V83.929H149.697V83.227H150.633V80.939H151.517V83.227H153.077V83.929H151.517V88.531C151.534 88.7737 151.621 88.9557 151.777 89.077C151.942 89.1983 152.128 89.259 152.336 89.259C152.579 89.259 152.8 89.22 152.999 89.142C153.198 89.0553 153.32 88.9947 153.363 88.96L153.597 89.675ZM156.925 90.13C156.37 90.13 155.854 90.039 155.378 89.857C154.901 89.675 154.489 89.3977 154.143 89.025L154.507 88.401C154.888 88.7563 155.269 89.0163 155.651 89.181C156.041 89.337 156.452 89.415 156.886 89.415C157.414 89.415 157.843 89.311 158.173 89.103C158.502 88.8863 158.667 88.5787 158.667 88.18C158.667 87.9113 158.584 87.7077 158.42 87.569C158.264 87.4217 158.034 87.3047 157.731 87.218C157.436 87.1227 157.081 87.023 156.665 86.919C156.197 86.789 155.802 86.6547 155.482 86.516C155.17 86.3687 154.931 86.1867 154.767 85.97C154.611 85.7447 154.533 85.4543 154.533 85.099C154.533 84.657 154.641 84.293 154.858 84.007C155.083 83.7123 155.386 83.4913 155.768 83.344C156.158 83.188 156.591 83.11 157.068 83.11C157.588 83.11 158.047 83.1923 158.446 83.357C158.844 83.5217 159.169 83.7513 159.421 84.046L158.992 84.644C158.749 84.3667 158.459 84.163 158.121 84.033C157.791 83.8943 157.423 83.825 157.016 83.825C156.738 83.825 156.474 83.864 156.223 83.942C155.971 84.0113 155.763 84.1327 155.599 84.306C155.443 84.4707 155.365 84.7003 155.365 84.995C155.365 85.2377 155.425 85.4283 155.547 85.567C155.668 85.697 155.85 85.8097 156.093 85.905C156.335 85.9917 156.634 86.087 156.99 86.191C157.501 86.3297 157.947 86.4727 158.329 86.62C158.71 86.7587 159.005 86.9407 159.213 87.166C159.421 87.3913 159.525 87.7077 159.525 88.115C159.525 88.7477 159.286 89.2417 158.81 89.597C158.333 89.9523 157.705 90.13 156.925 90.13ZM161.129 91.053L161.35 89.961H161.051V88.726H161.909V89.961L161.584 91.053H161.129ZM25.692 106.091C25.2327 106.091 24.808 105.996 24.418 105.805C24.028 105.614 23.69 105.359 23.404 105.038C23.1267 104.709 22.91 104.336 22.754 103.92C22.598 103.504 22.52 103.075 22.52 102.633C22.52 102.156 22.5937 101.71 22.741 101.294C22.897 100.869 23.1137 100.492 23.391 100.163C23.677 99.8337 24.0107 99.578 24.392 99.396C24.7733 99.2053 25.198 99.11 25.666 99.11C26.2467 99.11 26.7493 99.2573 27.174 99.552C27.6073 99.8467 27.9713 100.211 28.266 100.644V99.227H29.059V106.026C29.059 106.65 28.9073 107.174 28.604 107.599C28.3093 108.032 27.9063 108.357 27.395 108.574C26.8923 108.791 26.342 108.899 25.744 108.899C24.9727 108.899 24.3487 108.76 23.872 108.483C23.3953 108.206 23.0053 107.833 22.702 107.365L23.248 106.936C23.5167 107.361 23.872 107.677 24.314 107.885C24.7647 108.093 25.2413 108.197 25.744 108.197C26.186 108.197 26.589 108.115 26.953 107.95C27.3257 107.794 27.6203 107.556 27.837 107.235C28.0623 106.914 28.175 106.511 28.175 106.026V104.687C27.915 105.112 27.5597 105.454 27.109 105.714C26.6583 105.965 26.186 106.091 25.692 106.091ZM25.939 105.35C26.2077 105.35 26.4633 105.302 26.706 105.207C26.9573 105.112 27.187 104.986 27.395 104.83C27.603 104.665 27.7763 104.483 27.915 104.284C28.0537 104.085 28.1403 103.881 28.175 103.673V101.58C28.045 101.251 27.8587 100.96 27.616 100.709C27.3733 100.449 27.096 100.25 26.784 100.111C26.4807 99.9637 26.1643 99.89 25.835 99.89C25.4537 99.89 25.1113 99.9723 24.808 100.137C24.5133 100.293 24.262 100.505 24.054 100.774C23.8547 101.034 23.6987 101.329 23.586 101.658C23.4733 101.987 23.417 102.317 23.417 102.646C23.417 103.01 23.482 103.357 23.612 103.686C23.742 104.007 23.9197 104.297 24.145 104.557C24.379 104.808 24.6477 105.003 24.951 105.142C25.263 105.281 25.5923 105.35 25.939 105.35ZM30.9461 103.205V99.227H31.8301V103.049C31.8301 103.82 31.9601 104.397 32.2201 104.778C32.4888 105.159 32.8831 105.35 33.4031 105.35C33.7498 105.35 34.0835 105.276 34.4041 105.129C34.7335 104.973 35.0238 104.756 35.2751 104.479C35.5265 104.193 35.7171 103.864 35.8471 103.491V99.227H36.7311V104.934C36.7311 105.055 36.7571 105.146 36.8091 105.207C36.8611 105.259 36.9391 105.289 37.0431 105.298V106C36.9391 106.009 36.8568 106.013 36.7961 106.013C36.7355 106.022 36.6791 106.026 36.6271 106.026C36.4538 106.009 36.3021 105.939 36.1721 105.818C36.0508 105.697 35.9858 105.549 35.9771 105.376L35.9511 104.466C35.6565 104.986 35.2535 105.393 34.7421 105.688C34.2395 105.983 33.6935 106.13 33.1041 106.13C32.3935 106.13 31.8561 105.883 31.4921 105.389C31.1281 104.895 30.9461 104.167 30.9461 103.205ZM38.1839 104.05C38.1839 103.625 38.3052 103.261 38.5479 102.958C38.7905 102.646 39.1242 102.408 39.5489 102.243C39.9822 102.07 40.4805 101.983 41.0439 101.983C41.3732 101.983 41.7155 102.009 42.0709 102.061C42.4262 102.113 42.7425 102.191 43.0199 102.295V101.723C43.0199 101.151 42.8509 100.696 42.5129 100.358C42.1749 100.02 41.7069 99.851 41.1089 99.851C40.7449 99.851 40.3852 99.9203 40.0299 100.059C39.6832 100.189 39.3192 100.384 38.9379 100.644L38.5999 100.02C39.0419 99.7167 39.4752 99.4913 39.8999 99.344C40.3245 99.188 40.7579 99.11 41.1999 99.11C42.0319 99.11 42.6905 99.3483 43.1759 99.825C43.6612 100.302 43.9039 100.96 43.9039 101.801V104.934C43.9039 105.055 43.9299 105.146 43.9819 105.207C44.0339 105.259 44.1162 105.289 44.2289 105.298V106C44.1335 106.009 44.0512 106.017 43.9819 106.026C43.9125 106.035 43.8605 106.035 43.8259 106.026C43.6092 106.017 43.4445 105.948 43.3319 105.818C43.2192 105.688 43.1585 105.549 43.1499 105.402L43.1369 104.908C42.8335 105.298 42.4392 105.601 41.9539 105.818C41.4685 106.026 40.9745 106.13 40.4719 106.13C40.0385 106.13 39.6442 106.039 39.2889 105.857C38.9422 105.666 38.6692 105.415 38.4699 105.103C38.2792 104.782 38.1839 104.431 38.1839 104.05ZM42.7209 104.57C42.8162 104.449 42.8899 104.332 42.9419 104.219C42.9939 104.106 43.0199 104.007 43.0199 103.92V102.932C42.7252 102.819 42.4175 102.733 42.0969 102.672C41.7849 102.611 41.4685 102.581 41.1479 102.581C40.5152 102.581 40.0039 102.707 39.6139 102.958C39.2239 103.209 39.0289 103.552 39.0289 103.985C39.0289 104.236 39.0939 104.475 39.2239 104.7C39.3539 104.917 39.5445 105.099 39.7959 105.246C40.0472 105.385 40.3419 105.454 40.6799 105.454C41.1045 105.454 41.4989 105.372 41.8629 105.207C42.2355 105.042 42.5215 104.83 42.7209 104.57ZM49.1939 100.007C48.6045 100.024 48.0845 100.189 47.6339 100.501C47.1919 100.813 46.8799 101.242 46.6979 101.788V106H45.8139V99.227H46.6459V100.852C46.8799 100.375 47.1875 99.9897 47.5689 99.695C47.9589 99.4003 48.3705 99.2357 48.8039 99.201C48.8905 99.1923 48.9642 99.188 49.0249 99.188C49.0942 99.188 49.1505 99.1923 49.1939 99.201V100.007ZM49.8001 104.05C49.8001 103.625 49.9214 103.261 50.1641 102.958C50.4068 102.646 50.7404 102.408 51.1651 102.243C51.5984 102.07 52.0968 101.983 52.6601 101.983C52.9894 101.983 53.3318 102.009 53.6871 102.061C54.0424 102.113 54.3588 102.191 54.6361 102.295V101.723C54.6361 101.151 54.4671 100.696 54.1291 100.358C53.7911 100.02 53.3231 99.851 52.7251 99.851C52.3611 99.851 52.0014 99.9203 51.6461 100.059C51.2994 100.189 50.9354 100.384 50.5541 100.644L50.2161 100.02C50.6581 99.7167 51.0914 99.4913 51.5161 99.344C51.9408 99.188 52.3741 99.11 52.8161 99.11C53.6481 99.11 54.3068 99.3483 54.7921 99.825C55.2774 100.302 55.5201 100.96 55.5201 101.801V104.934C55.5201 105.055 55.5461 105.146 55.5981 105.207C55.6501 105.259 55.7324 105.289 55.8451 105.298V106C55.7498 106.009 55.6674 106.017 55.5981 106.026C55.5288 106.035 55.4768 106.035 55.4421 106.026C55.2254 106.017 55.0608 105.948 54.9481 105.818C54.8354 105.688 54.7748 105.549 54.7661 105.402L54.7531 104.908C54.4498 105.298 54.0554 105.601 53.5701 105.818C53.0848 106.026 52.5908 106.13 52.0881 106.13C51.6548 106.13 51.2604 106.039 50.9051 105.857C50.5584 105.666 50.2854 105.415 50.0861 105.103C49.8954 104.782 49.8001 104.431 49.8001 104.05ZM54.3371 104.57C54.4324 104.449 54.5061 104.332 54.5581 104.219C54.6101 104.106 54.6361 104.007 54.6361 103.92V102.932C54.3414 102.819 54.0338 102.733 53.7131 102.672C53.4011 102.611 53.0848 102.581 52.7641 102.581C52.1314 102.581 51.6201 102.707 51.2301 102.958C50.8401 103.209 50.6451 103.552 50.6451 103.985C50.6451 104.236 50.7101 104.475 50.8401 104.7C50.9701 104.917 51.1608 105.099 51.4121 105.246C51.6634 105.385 51.9581 105.454 52.2961 105.454C52.7208 105.454 53.1151 105.372 53.4791 105.207C53.8518 105.042 54.1378 104.83 54.3371 104.57ZM63.1241 106H62.2401V102.217C62.2401 101.42 62.1231 100.839 61.8891 100.475C61.6551 100.102 61.2867 99.916 60.7841 99.916C60.4374 99.916 60.0951 100.003 59.7571 100.176C59.4191 100.341 59.1201 100.57 58.8601 100.865C58.6087 101.151 58.4267 101.48 58.3141 101.853V106H57.4301V99.227H58.2361V100.761C58.4181 100.432 58.6564 100.146 58.9511 99.903C59.2457 99.6517 59.5794 99.4567 59.9521 99.318C60.3247 99.1793 60.7104 99.11 61.1091 99.11C61.4817 99.11 61.7981 99.1793 62.0581 99.318C62.3181 99.4567 62.5261 99.656 62.6821 99.916C62.8381 100.167 62.9507 100.475 63.0201 100.839C63.0894 101.194 63.1241 101.593 63.1241 102.035V106ZM68.1957 105.675C68.1264 105.701 68.018 105.749 67.8707 105.818C67.7234 105.887 67.5457 105.948 67.3377 106C67.1297 106.052 66.9044 106.078 66.6617 106.078C66.4104 106.078 66.172 106.03 65.9467 105.935C65.73 105.84 65.5567 105.697 65.4267 105.506C65.2967 105.307 65.2317 105.064 65.2317 104.778V99.929H64.2957V99.227H65.2317V96.939H66.1157V99.227H67.6757V99.929H66.1157V104.531C66.133 104.774 66.2197 104.956 66.3757 105.077C66.5404 105.198 66.7267 105.259 66.9347 105.259C67.1774 105.259 67.3984 105.22 67.5977 105.142C67.797 105.055 67.9184 104.995 67.9617 104.96L68.1957 105.675ZM72.1109 106.13C71.6256 106.13 71.1749 106.039 70.7589 105.857C70.3429 105.666 69.9833 105.411 69.6799 105.09C69.3766 104.761 69.1383 104.384 68.9649 103.959C68.8003 103.534 68.7179 103.079 68.7179 102.594C68.7179 101.961 68.8609 101.381 69.1469 100.852C69.4416 100.323 69.8446 99.903 70.3559 99.591C70.8673 99.2703 71.4479 99.11 72.0979 99.11C72.7653 99.11 73.3459 99.2703 73.8399 99.591C74.3426 99.9117 74.7369 100.336 75.0229 100.865C75.3089 101.385 75.4519 101.957 75.4519 102.581C75.4519 102.65 75.4519 102.72 75.4519 102.789C75.4519 102.85 75.4476 102.897 75.4389 102.932H69.6409C69.6843 103.417 69.8186 103.851 70.0439 104.232C70.2779 104.605 70.5769 104.904 70.9409 105.129C71.3136 105.346 71.7166 105.454 72.1499 105.454C72.5919 105.454 73.0079 105.341 73.3979 105.116C73.7966 104.891 74.0739 104.596 74.2299 104.232L74.9969 104.44C74.8583 104.761 74.6459 105.051 74.3599 105.311C74.0739 105.571 73.7359 105.775 73.3459 105.922C72.9646 106.061 72.5529 106.13 72.1109 106.13ZM69.6149 102.295H74.6199C74.5853 101.801 74.4509 101.368 74.2169 100.995C73.9916 100.622 73.6926 100.332 73.3199 100.124C72.9559 99.9073 72.5529 99.799 72.1109 99.799C71.6689 99.799 71.2659 99.9073 70.9019 100.124C70.5379 100.332 70.2389 100.627 70.0049 101.008C69.7796 101.381 69.6496 101.81 69.6149 102.295ZM79.7408 106.13C79.2555 106.13 78.8048 106.039 78.3888 105.857C77.9728 105.666 77.6132 105.411 77.3098 105.09C77.0065 104.761 76.7682 104.384 76.5948 103.959C76.4302 103.534 76.3478 103.079 76.3478 102.594C76.3478 101.961 76.4908 101.381 76.7768 100.852C77.0715 100.323 77.4745 99.903 77.9858 99.591C78.4972 99.2703 79.0778 99.11 79.7278 99.11C80.3952 99.11 80.9758 99.2703 81.4698 99.591C81.9725 99.9117 82.3668 100.336 82.6528 100.865C82.9388 101.385 83.0818 101.957 83.0818 102.581C83.0818 102.65 83.0818 102.72 83.0818 102.789C83.0818 102.85 83.0775 102.897 83.0688 102.932H77.2708C77.3142 103.417 77.4485 103.851 77.6738 104.232C77.9078 104.605 78.2068 104.904 78.5708 105.129C78.9435 105.346 79.3465 105.454 79.7798 105.454C80.2218 105.454 80.6378 105.341 81.0278 105.116C81.4265 104.891 81.7038 104.596 81.8598 104.232L82.6268 104.44C82.4882 104.761 82.2758 105.051 81.9898 105.311C81.7038 105.571 81.3658 105.775 80.9758 105.922C80.5945 106.061 80.1828 106.13 79.7408 106.13ZM77.2448 102.295H82.2498C82.2152 101.801 82.0808 101.368 81.8468 100.995C81.6215 100.622 81.3225 100.332 80.9498 100.124C80.5858 99.9073 80.1828 99.799 79.7408 99.799C79.2988 99.799 78.8958 99.9073 78.5318 100.124C78.1678 100.332 77.8688 100.627 77.6348 101.008C77.4095 101.381 77.2795 101.81 77.2448 102.295ZM84.4457 106V99.227H85.3297V106H84.4457ZM84.4457 97.81V96.51H85.3297V97.81H84.4457ZM92.9708 106H92.0868V102.217C92.0868 101.42 91.9698 100.839 91.7358 100.475C91.5018 100.102 91.1334 99.916 90.6308 99.916C90.2841 99.916 89.9418 100.003 89.6038 100.176C89.2658 100.341 88.9668 100.57 88.7068 100.865C88.4554 101.151 88.2734 101.48 88.1608 101.853V106H87.2768V99.227H88.0828V100.761C88.2648 100.432 88.5031 100.146 88.7978 99.903C89.0924 99.6517 89.4261 99.4567 89.7988 99.318C90.1714 99.1793 90.5571 99.11 90.9558 99.11C91.3284 99.11 91.6448 99.1793 91.9048 99.318C92.1648 99.4567 92.3728 99.656 92.5288 99.916C92.6848 100.167 92.7974 100.475 92.8668 100.839C92.9361 101.194 92.9708 101.593 92.9708 102.035V106ZM97.5729 106.091C97.1135 106.091 96.6889 105.996 96.2989 105.805C95.9089 105.614 95.5709 105.359 95.2849 105.038C95.0075 104.709 94.7909 104.336 94.6349 103.92C94.4789 103.504 94.4009 103.075 94.4009 102.633C94.4009 102.156 94.4745 101.71 94.6219 101.294C94.7779 100.869 94.9945 100.492 95.2719 100.163C95.5579 99.8337 95.8915 99.578 96.2729 99.396C96.6542 99.2053 97.0789 99.11 97.5469 99.11C98.1275 99.11 98.6302 99.2573 99.0549 99.552C99.4882 99.8467 99.8522 100.211 100.147 100.644V99.227H100.94V106.026C100.94 106.65 100.788 107.174 100.485 107.599C100.19 108.032 99.7872 108.357 99.2759 108.574C98.7732 108.791 98.2229 108.899 97.6249 108.899C96.8535 108.899 96.2295 108.76 95.7529 108.483C95.2762 108.206 94.8862 107.833 94.5829 107.365L95.1289 106.936C95.3975 107.361 95.7529 107.677 96.1949 107.885C96.6455 108.093 97.1222 108.197 97.6249 108.197C98.0669 108.197 98.4699 108.115 98.8339 107.95C99.2065 107.794 99.5012 107.556 99.7179 107.235C99.9432 106.914 100.056 106.511 100.056 106.026V104.687C99.7959 105.112 99.4405 105.454 98.9899 105.714C98.5392 105.965 98.0669 106.091 97.5729 106.091ZM97.8199 105.35C98.0885 105.35 98.3442 105.302 98.5869 105.207C98.8382 105.112 99.0679 104.986 99.2759 104.83C99.4839 104.665 99.6572 104.483 99.7959 104.284C99.9345 104.085 100.021 103.881 100.056 103.673V101.58C99.9259 101.251 99.7395 100.96 99.4969 100.709C99.2542 100.449 98.9769 100.25 98.6649 100.111C98.3615 99.9637 98.0452 99.89 97.7159 99.89C97.3345 99.89 96.9922 99.9723 96.6889 100.137C96.3942 100.293 96.1429 100.505 95.9349 100.774C95.7355 101.034 95.5795 101.329 95.4669 101.658C95.3542 101.987 95.2979 102.317 95.2979 102.646C95.2979 103.01 95.3629 103.357 95.4929 103.686C95.6229 104.007 95.8005 104.297 96.0259 104.557C96.2599 104.808 96.5285 105.003 96.8319 105.142C97.1439 105.281 97.4732 105.35 97.8199 105.35ZM109.455 105.675C109.386 105.701 109.278 105.749 109.13 105.818C108.983 105.887 108.805 105.948 108.597 106C108.389 106.052 108.164 106.078 107.921 106.078C107.67 106.078 107.432 106.03 107.206 105.935C106.99 105.84 106.816 105.697 106.686 105.506C106.556 105.307 106.491 105.064 106.491 104.778V99.929H105.555V99.227H106.491V96.939H107.375V99.227H108.935V99.929H107.375V104.531C107.393 104.774 107.479 104.956 107.635 105.077C107.8 105.198 107.986 105.259 108.194 105.259C108.437 105.259 108.658 105.22 108.857 105.142C109.057 105.055 109.178 104.995 109.221 104.96L109.455 105.675ZM116.254 106H115.37V102.217C115.37 101.454 115.236 100.882 114.967 100.501C114.698 100.111 114.313 99.916 113.81 99.916C113.481 99.916 113.151 100.003 112.822 100.176C112.501 100.341 112.215 100.57 111.964 100.865C111.721 101.151 111.548 101.48 111.444 101.853V106H110.56V96.51H111.444V100.761C111.713 100.258 112.085 99.8597 112.562 99.565C113.047 99.2617 113.563 99.11 114.109 99.11C114.499 99.11 114.828 99.1793 115.097 99.318C115.374 99.4567 115.595 99.6603 115.76 99.929C115.933 100.189 116.059 100.497 116.137 100.852C116.215 101.199 116.254 101.593 116.254 102.035V106ZM121.064 106.13C120.579 106.13 120.128 106.039 119.712 105.857C119.296 105.666 118.936 105.411 118.633 105.09C118.33 104.761 118.091 104.384 117.918 103.959C117.753 103.534 117.671 103.079 117.671 102.594C117.671 101.961 117.814 101.381 118.1 100.852C118.395 100.323 118.798 99.903 119.309 99.591C119.82 99.2703 120.401 99.11 121.051 99.11C121.718 99.11 122.299 99.2703 122.793 99.591C123.296 99.9117 123.69 100.336 123.976 100.865C124.262 101.385 124.405 101.957 124.405 102.581C124.405 102.65 124.405 102.72 124.405 102.789C124.405 102.85 124.401 102.897 124.392 102.932H118.594C118.637 103.417 118.772 103.851 118.997 104.232C119.231 104.605 119.53 104.904 119.894 105.129C120.267 105.346 120.67 105.454 121.103 105.454C121.545 105.454 121.961 105.341 122.351 105.116C122.75 104.891 123.027 104.596 123.183 104.232L123.95 104.44C123.811 104.761 123.599 105.051 123.313 105.311C123.027 105.571 122.689 105.775 122.299 105.922C121.918 106.061 121.506 106.13 121.064 106.13ZM118.568 102.295H123.573C123.538 101.801 123.404 101.368 123.17 100.995C122.945 100.622 122.646 100.332 122.273 100.124C121.909 99.9073 121.506 99.799 121.064 99.799C120.622 99.799 120.219 99.9073 119.855 100.124C119.491 100.332 119.192 100.627 118.958 101.008C118.733 101.381 118.603 101.81 118.568 102.295ZM125.769 106V99.227H126.653V106H125.769ZM125.769 97.81V96.51H126.653V97.81H125.769ZM131.98 100.007C131.391 100.024 130.871 100.189 130.42 100.501C129.978 100.813 129.666 101.242 129.484 101.788V106H128.6V99.227H129.432V100.852C129.666 100.375 129.974 99.9897 130.355 99.695C130.745 99.4003 131.157 99.2357 131.59 99.201C131.677 99.1923 131.75 99.188 131.811 99.188C131.88 99.188 131.937 99.1923 131.98 99.201V100.007ZM141.86 106H140.976V102.217C140.976 101.454 140.842 100.882 140.573 100.501C140.305 100.111 139.919 99.916 139.416 99.916C139.087 99.916 138.758 100.003 138.428 100.176C138.108 100.341 137.822 100.57 137.57 100.865C137.328 101.151 137.154 101.48 137.05 101.853V106H136.166V96.51H137.05V100.761C137.319 100.258 137.692 99.8597 138.168 99.565C138.654 99.2617 139.169 99.11 139.715 99.11C140.105 99.11 140.435 99.1793 140.703 99.318C140.981 99.4567 141.202 99.6603 141.366 99.929C141.54 100.189 141.665 100.497 141.743 100.852C141.821 101.199 141.86 101.593 141.86 102.035V106ZM143.746 106V99.227H144.63V106H143.746ZM143.746 97.81V96.51H144.63V97.81H143.746ZM149.294 106.091C148.834 106.091 148.41 105.996 148.02 105.805C147.63 105.614 147.292 105.359 147.006 105.038C146.728 104.709 146.512 104.336 146.356 103.92C146.2 103.504 146.122 103.075 146.122 102.633C146.122 102.156 146.195 101.71 146.343 101.294C146.499 100.869 146.715 100.492 146.993 100.163C147.279 99.8337 147.612 99.578 147.994 99.396C148.375 99.2053 148.8 99.11 149.268 99.11C149.848 99.11 150.351 99.2573 150.776 99.552C151.209 99.8467 151.573 100.211 151.868 100.644V99.227H152.661V106.026C152.661 106.65 152.509 107.174 152.206 107.599C151.911 108.032 151.508 108.357 150.997 108.574C150.494 108.791 149.944 108.899 149.346 108.899C148.574 108.899 147.95 108.76 147.474 108.483C146.997 108.206 146.607 107.833 146.304 107.365L146.85 106.936C147.118 107.361 147.474 107.677 147.916 107.885C148.366 108.093 148.843 108.197 149.346 108.197C149.788 108.197 150.191 108.115 150.555 107.95C150.927 107.794 151.222 107.556 151.439 107.235C151.664 106.914 151.777 106.511 151.777 106.026V104.687C151.517 105.112 151.161 105.454 150.711 105.714C150.26 105.965 149.788 106.091 149.294 106.091ZM149.541 105.35C149.809 105.35 150.065 105.302 150.308 105.207C150.559 105.112 150.789 104.986 150.997 104.83C151.205 104.665 151.378 104.483 151.517 104.284C151.655 104.085 151.742 103.881 151.777 103.673V101.58C151.647 101.251 151.46 100.96 151.218 100.709C150.975 100.449 150.698 100.25 150.386 100.111C150.082 99.9637 149.766 99.89 149.437 99.89C149.055 99.89 148.713 99.9723 148.41 100.137C148.115 100.293 147.864 100.505 147.656 100.774C147.456 101.034 147.3 101.329 147.188 101.658C147.075 101.987 147.019 102.317 147.019 102.646C147.019 103.01 147.084 103.357 147.214 103.686C147.344 104.007 147.521 104.297 147.747 104.557C147.981 104.808 148.249 105.003 148.553 105.142C148.865 105.281 149.194 105.35 149.541 105.35ZM160.307 106H159.423V102.217C159.423 101.454 159.288 100.882 159.02 100.501C158.751 100.111 158.365 99.916 157.863 99.916C157.533 99.916 157.204 100.003 156.875 100.176C156.554 100.341 156.268 100.57 156.017 100.865C155.774 101.151 155.601 101.48 155.497 101.853V106H154.613V96.51H155.497V100.761C155.765 100.258 156.138 99.8597 156.615 99.565C157.1 99.2617 157.616 99.11 158.162 99.11C158.552 99.11 158.881 99.1793 159.15 99.318C159.427 99.4567 159.648 99.6603 159.813 99.929C159.986 100.189 160.112 100.497 160.19 100.852C160.268 101.199 160.307 101.593 160.307 102.035V106ZM26.433 122.13C25.8697 122.13 25.3627 121.983 24.912 121.688C24.47 121.393 24.119 121.029 23.859 120.596V124.769H22.975V115.227H23.768V116.54C24.0367 116.115 24.3963 115.773 24.847 115.513C25.2977 115.244 25.7787 115.11 26.29 115.11C26.758 115.11 27.187 115.21 27.577 115.409C27.967 115.6 28.305 115.86 28.591 116.189C28.877 116.518 29.098 116.895 29.254 117.32C29.4187 117.736 29.501 118.169 29.501 118.62C29.501 119.253 29.371 119.838 29.111 120.375C28.8597 120.904 28.5043 121.328 28.045 121.649C27.5857 121.97 27.0483 122.13 26.433 122.13ZM26.186 121.35C26.5587 121.35 26.8923 121.276 27.187 121.129C27.4817 120.973 27.733 120.765 27.941 120.505C28.1577 120.245 28.3223 119.955 28.435 119.634C28.5477 119.305 28.604 118.967 28.604 118.62C28.604 118.256 28.539 117.909 28.409 117.58C28.2877 117.251 28.11 116.96 27.876 116.709C27.642 116.458 27.3733 116.258 27.07 116.111C26.7667 115.964 26.4373 115.89 26.082 115.89C25.8567 115.89 25.6227 115.933 25.38 116.02C25.1373 116.107 24.9033 116.232 24.678 116.397C24.4613 116.553 24.2793 116.731 24.132 116.93C23.9847 117.129 23.8937 117.342 23.859 117.567V119.647C23.9977 119.968 24.184 120.258 24.418 120.518C24.652 120.769 24.9207 120.973 25.224 121.129C25.536 121.276 25.8567 121.35 26.186 121.35ZM34.3784 116.007C33.7891 116.024 33.2691 116.189 32.8184 116.501C32.3764 116.813 32.0644 117.242 31.8824 117.788V122H30.9984V115.227H31.8304V116.852C32.0644 116.375 32.3721 115.99 32.7534 115.695C33.1434 115.4 33.5551 115.236 33.9884 115.201C34.0751 115.192 34.1488 115.188 34.2094 115.188C34.2788 115.188 34.3351 115.192 34.3784 115.201V116.007ZM38.2262 122.13C37.7409 122.13 37.2902 122.039 36.8742 121.857C36.4669 121.666 36.1116 121.411 35.8082 121.09C35.5136 120.761 35.2839 120.388 35.1192 119.972C34.9546 119.547 34.8722 119.101 34.8722 118.633C34.8722 118.148 34.9546 117.697 35.1192 117.281C35.2839 116.856 35.5179 116.484 35.8212 116.163C36.1246 115.834 36.4799 115.578 36.8872 115.396C37.3032 115.205 37.7539 115.11 38.2392 115.11C38.7246 115.11 39.1709 115.205 39.5782 115.396C39.9856 115.578 40.3409 115.834 40.6442 116.163C40.9476 116.484 41.1816 116.856 41.3462 117.281C41.5109 117.697 41.5932 118.148 41.5932 118.633C41.5932 119.101 41.5109 119.547 41.3462 119.972C41.1816 120.388 40.9476 120.761 40.6442 121.09C40.3496 121.411 39.9942 121.666 39.5782 121.857C39.1709 122.039 38.7202 122.13 38.2262 122.13ZM35.7692 118.646C35.7692 119.149 35.8776 119.608 36.0942 120.024C36.3196 120.431 36.6186 120.756 36.9912 120.999C37.3639 121.233 37.7756 121.35 38.2262 121.35C38.6769 121.35 39.0886 121.229 39.4612 120.986C39.8339 120.743 40.1329 120.414 40.3582 119.998C40.5836 119.573 40.6962 119.114 40.6962 118.62C40.6962 118.117 40.5836 117.658 40.3582 117.242C40.1329 116.826 39.8339 116.497 39.4612 116.254C39.0886 116.011 38.6769 115.89 38.2262 115.89C37.7756 115.89 37.3639 116.016 36.9912 116.267C36.6272 116.518 36.3326 116.852 36.1072 117.268C35.8819 117.675 35.7692 118.135 35.7692 118.646ZM43.2824 122V115.929H42.3464V115.227H43.2824V115.045C43.2824 114.49 43.3604 114.014 43.5164 113.615C43.6811 113.216 43.9108 112.913 44.2054 112.705C44.5088 112.488 44.8641 112.38 45.2714 112.38C45.5401 112.38 45.8001 112.419 46.0514 112.497C46.3028 112.575 46.5194 112.679 46.7014 112.809L46.4284 113.446C46.3158 113.351 46.1684 113.277 45.9864 113.225C45.8044 113.173 45.6224 113.147 45.4404 113.147C45.0331 113.147 44.7168 113.307 44.4914 113.628C44.2748 113.949 44.1664 114.412 44.1664 115.019V115.227H46.0384V115.929H44.1664V122H43.2824ZM49.9576 122.13C49.4723 122.13 49.0216 122.039 48.6056 121.857C48.1896 121.666 47.83 121.411 47.5266 121.09C47.2233 120.761 46.985 120.384 46.8116 119.959C46.647 119.534 46.5646 119.079 46.5646 118.594C46.5646 117.961 46.7076 117.381 46.9936 116.852C47.2883 116.323 47.6913 115.903 48.2026 115.591C48.714 115.27 49.2946 115.11 49.9446 115.11C50.612 115.11 51.1926 115.27 51.6866 115.591C52.1893 115.912 52.5836 116.336 52.8696 116.865C53.1556 117.385 53.2986 117.957 53.2986 118.581C53.2986 118.65 53.2986 118.72 53.2986 118.789C53.2986 118.85 53.2943 118.897 53.2856 118.932H47.4876C47.531 119.417 47.6653 119.851 47.8906 120.232C48.1246 120.605 48.4236 120.904 48.7876 121.129C49.1603 121.346 49.5633 121.454 49.9966 121.454C50.4386 121.454 50.8546 121.341 51.2446 121.116C51.6433 120.891 51.9206 120.596 52.0766 120.232L52.8436 120.44C52.705 120.761 52.4926 121.051 52.2066 121.311C51.9206 121.571 51.5826 121.775 51.1926 121.922C50.8113 122.061 50.3996 122.13 49.9576 122.13ZM47.4616 118.295H52.4666C52.432 117.801 52.2976 117.368 52.0636 116.995C51.8383 116.622 51.5393 116.332 51.1666 116.124C50.8026 115.907 50.3996 115.799 49.9576 115.799C49.5156 115.799 49.1126 115.907 48.7486 116.124C48.3846 116.332 48.0856 116.627 47.8516 117.008C47.6263 117.381 47.4963 117.81 47.4616 118.295ZM56.8855 122.13C56.3308 122.13 55.8152 122.039 55.3385 121.857C54.8618 121.675 54.4502 121.398 54.1035 121.025L54.4675 120.401C54.8488 120.756 55.2302 121.016 55.6115 121.181C56.0015 121.337 56.4132 121.415 56.8465 121.415C57.3752 121.415 57.8042 121.311 58.1335 121.103C58.4628 120.886 58.6275 120.579 58.6275 120.18C58.6275 119.911 58.5452 119.708 58.3805 119.569C58.2245 119.422 57.9948 119.305 57.6915 119.218C57.3968 119.123 57.0415 119.023 56.6255 118.919C56.1575 118.789 55.7632 118.655 55.4425 118.516C55.1305 118.369 54.8922 118.187 54.7275 117.97C54.5715 117.745 54.4935 117.454 54.4935 117.099C54.4935 116.657 54.6018 116.293 54.8185 116.007C55.0438 115.712 55.3472 115.491 55.7285 115.344C56.1185 115.188 56.5518 115.11 57.0285 115.11C57.5485 115.11 58.0078 115.192 58.4065 115.357C58.8052 115.522 59.1302 115.751 59.3815 116.046L58.9525 116.644C58.7098 116.367 58.4195 116.163 58.0815 116.033C57.7522 115.894 57.3838 115.825 56.9765 115.825C56.6992 115.825 56.4348 115.864 56.1835 115.942C55.9322 116.011 55.7242 116.133 55.5595 116.306C55.4035 116.471 55.3255 116.7 55.3255 116.995C55.3255 117.238 55.3862 117.428 55.5075 117.567C55.6288 117.697 55.8108 117.81 56.0535 117.905C56.2962 117.992 56.5952 118.087 56.9505 118.191C57.4618 118.33 57.9082 118.473 58.2895 118.62C58.6708 118.759 58.9655 118.941 59.1735 119.166C59.3815 119.391 59.4855 119.708 59.4855 120.115C59.4855 120.748 59.2472 121.242 58.7705 121.597C58.2938 121.952 57.6655 122.13 56.8855 122.13ZM63.1697 122.13C62.615 122.13 62.0993 122.039 61.6227 121.857C61.146 121.675 60.7343 121.398 60.3877 121.025L60.7517 120.401C61.133 120.756 61.5143 121.016 61.8957 121.181C62.2857 121.337 62.6973 121.415 63.1307 121.415C63.6593 121.415 64.0883 121.311 64.4177 121.103C64.747 120.886 64.9117 120.579 64.9117 120.18C64.9117 119.911 64.8293 119.708 64.6647 119.569C64.5087 119.422 64.279 119.305 63.9757 119.218C63.681 119.123 63.3257 119.023 62.9097 118.919C62.4417 118.789 62.0473 118.655 61.7267 118.516C61.4147 118.369 61.1763 118.187 61.0117 117.97C60.8557 117.745 60.7777 117.454 60.7777 117.099C60.7777 116.657 60.886 116.293 61.1027 116.007C61.328 115.712 61.6313 115.491 62.0127 115.344C62.4027 115.188 62.836 115.11 63.3127 115.11C63.8327 115.11 64.292 115.192 64.6907 115.357C65.0893 115.522 65.4143 115.751 65.6657 116.046L65.2367 116.644C64.994 116.367 64.7037 116.163 64.3657 116.033C64.0363 115.894 63.668 115.825 63.2607 115.825C62.9833 115.825 62.719 115.864 62.4677 115.942C62.2163 116.011 62.0083 116.133 61.8437 116.306C61.6877 116.471 61.6097 116.7 61.6097 116.995C61.6097 117.238 61.6703 117.428 61.7917 117.567C61.913 117.697 62.095 117.81 62.3377 117.905C62.5803 117.992 62.8793 118.087 63.2347 118.191C63.746 118.33 64.1923 118.473 64.5737 118.62C64.955 118.759 65.2497 118.941 65.4577 119.166C65.6657 119.391 65.7697 119.708 65.7697 120.115C65.7697 120.748 65.5313 121.242 65.0547 121.597C64.578 121.952 63.9497 122.13 63.1697 122.13ZM67.2309 122V115.227H68.1149V122H67.2309ZM67.2309 113.81V112.51H68.1149V113.81H67.2309ZM72.9479 122.13C72.4626 122.13 72.0119 122.039 71.5959 121.857C71.1886 121.666 70.8332 121.411 70.5299 121.09C70.2352 120.761 70.0056 120.388 69.8409 119.972C69.6762 119.547 69.5939 119.101 69.5939 118.633C69.5939 118.148 69.6762 117.697 69.8409 117.281C70.0056 116.856 70.2396 116.484 70.5429 116.163C70.8462 115.834 71.2016 115.578 71.6089 115.396C72.0249 115.205 72.4756 115.11 72.9609 115.11C73.4462 115.11 73.8926 115.205 74.2999 115.396C74.7072 115.578 75.0626 115.834 75.3659 116.163C75.6692 116.484 75.9032 116.856 76.0679 117.281C76.2326 117.697 76.3149 118.148 76.3149 118.633C76.3149 119.101 76.2326 119.547 76.0679 119.972C75.9032 120.388 75.6692 120.761 75.3659 121.09C75.0712 121.411 74.7159 121.666 74.2999 121.857C73.8926 122.039 73.4419 122.13 72.9479 122.13ZM70.4909 118.646C70.4909 119.149 70.5992 119.608 70.8159 120.024C71.0412 120.431 71.3402 120.756 71.7129 120.999C72.0856 121.233 72.4972 121.35 72.9479 121.35C73.3986 121.35 73.8102 121.229 74.1829 120.986C74.5556 120.743 74.8546 120.414 75.0799 119.998C75.3052 119.573 75.4179 119.114 75.4179 118.62C75.4179 118.117 75.3052 117.658 75.0799 117.242C74.8546 116.826 74.5556 116.497 74.1829 116.254C73.8102 116.011 73.3986 115.89 72.9479 115.89C72.4972 115.89 72.0856 116.016 71.7129 116.267C71.3489 116.518 71.0542 116.852 70.8289 117.268C70.6036 117.675 70.4909 118.135 70.4909 118.646ZM83.4874 122H82.6034V118.217C82.6034 117.42 82.4864 116.839 82.2524 116.475C82.0184 116.102 81.65 115.916 81.1474 115.916C80.8007 115.916 80.4584 116.003 80.1204 116.176C79.7824 116.341 79.4834 116.57 79.2234 116.865C78.972 117.151 78.79 117.48 78.6774 117.853V122H77.7934V115.227H78.5994V116.761C78.7814 116.432 79.0197 116.146 79.3144 115.903C79.609 115.652 79.9427 115.457 80.3154 115.318C80.688 115.179 81.0737 115.11 81.4724 115.11C81.845 115.11 82.1614 115.179 82.4214 115.318C82.6814 115.457 82.8894 115.656 83.0454 115.916C83.2014 116.167 83.314 116.475 83.3834 116.839C83.4527 117.194 83.4874 117.593 83.4874 118.035V122ZM84.8265 120.05C84.8265 119.625 84.9478 119.261 85.1905 118.958C85.4331 118.646 85.7668 118.408 86.1915 118.243C86.6248 118.07 87.1231 117.983 87.6865 117.983C88.0158 117.983 88.3581 118.009 88.7135 118.061C89.0688 118.113 89.3851 118.191 89.6625 118.295V117.723C89.6625 117.151 89.4935 116.696 89.1555 116.358C88.8175 116.02 88.3495 115.851 87.7515 115.851C87.3875 115.851 87.0278 115.92 86.6725 116.059C86.3258 116.189 85.9618 116.384 85.5805 116.644L85.2425 116.02C85.6845 115.717 86.1178 115.491 86.5425 115.344C86.9671 115.188 87.4005 115.11 87.8425 115.11C88.6745 115.11 89.3331 115.348 89.8185 115.825C90.3038 116.302 90.5465 116.96 90.5465 117.801V120.934C90.5465 121.055 90.5725 121.146 90.6245 121.207C90.6765 121.259 90.7588 121.289 90.8715 121.298V122C90.7761 122.009 90.6938 122.017 90.6245 122.026C90.5551 122.035 90.5031 122.035 90.4685 122.026C90.2518 122.017 90.0871 121.948 89.9745 121.818C89.8618 121.688 89.8011 121.549 89.7925 121.402L89.7795 120.908C89.4761 121.298 89.0818 121.601 88.5965 121.818C88.1111 122.026 87.6171 122.13 87.1145 122.13C86.6811 122.13 86.2868 122.039 85.9315 121.857C85.5848 121.666 85.3118 121.415 85.1125 121.103C84.9218 120.782 84.8265 120.431 84.8265 120.05ZM89.3635 120.57C89.4588 120.449 89.5325 120.332 89.5845 120.219C89.6365 120.106 89.6625 120.007 89.6625 119.92V118.932C89.3678 118.819 89.0601 118.733 88.7395 118.672C88.4275 118.611 88.1111 118.581 87.7905 118.581C87.1578 118.581 86.6465 118.707 86.2565 118.958C85.8665 119.209 85.6715 119.552 85.6715 119.985C85.6715 120.236 85.7365 120.475 85.8665 120.7C85.9965 120.917 86.1871 121.099 86.4385 121.246C86.6898 121.385 86.9845 121.454 87.3225 121.454C87.7471 121.454 88.1415 121.372 88.5055 121.207C88.8781 121.042 89.1641 120.83 89.3635 120.57ZM92.4954 112.51H93.3794V120.466C93.3794 120.804 93.4401 121.025 93.5614 121.129C93.6828 121.233 93.8301 121.285 94.0034 121.285C94.1594 121.285 94.3154 121.268 94.4714 121.233C94.6274 121.198 94.7618 121.164 94.8744 121.129L95.0304 121.844C94.8658 121.913 94.6621 121.97 94.4194 122.013C94.1854 122.056 93.9818 122.078 93.8084 122.078C93.4098 122.078 93.0891 121.961 92.8464 121.727C92.6124 121.493 92.4954 121.172 92.4954 120.765V112.51ZM101.141 122.13C100.587 122.13 100.071 122.039 99.5944 121.857C99.1177 121.675 98.706 121.398 98.3594 121.025L98.7234 120.401C99.1047 120.756 99.486 121.016 99.8674 121.181C100.257 121.337 100.669 121.415 101.102 121.415C101.631 121.415 102.06 121.311 102.389 121.103C102.719 120.886 102.883 120.579 102.883 120.18C102.883 119.911 102.801 119.708 102.636 119.569C102.48 119.422 102.251 119.305 101.947 119.218C101.653 119.123 101.297 119.023 100.881 118.919C100.413 118.789 100.019 118.655 99.6984 118.516C99.3864 118.369 99.148 118.187 98.9834 117.97C98.8274 117.745 98.7494 117.454 98.7494 117.099C98.7494 116.657 98.8577 116.293 99.0744 116.007C99.2997 115.712 99.603 115.491 99.9844 115.344C100.374 115.188 100.808 115.11 101.284 115.11C101.804 115.11 102.264 115.192 102.662 115.357C103.061 115.522 103.386 115.751 103.637 116.046L103.208 116.644C102.966 116.367 102.675 116.163 102.337 116.033C102.008 115.894 101.64 115.825 101.232 115.825C100.955 115.825 100.691 115.864 100.439 115.942C100.188 116.011 99.98 116.133 99.8154 116.306C99.6594 116.471 99.5814 116.7 99.5814 116.995C99.5814 117.238 99.642 117.428 99.7634 117.567C99.8847 117.697 100.067 117.81 100.309 117.905C100.552 117.992 100.851 118.087 101.206 118.191C101.718 118.33 102.164 118.473 102.545 118.62C102.927 118.759 103.221 118.941 103.429 119.166C103.637 119.391 103.741 119.708 103.741 120.115C103.741 120.748 103.503 121.242 103.026 121.597C102.55 121.952 101.921 122.13 101.141 122.13ZM105.138 119.205V115.227H106.022V119.049C106.022 119.82 106.152 120.397 106.412 120.778C106.68 121.159 107.075 121.35 107.595 121.35C107.941 121.35 108.275 121.276 108.596 121.129C108.925 120.973 109.215 120.756 109.467 120.479C109.718 120.193 109.909 119.864 110.039 119.491V115.227H110.923V120.934C110.923 121.055 110.949 121.146 111.001 121.207C111.053 121.259 111.131 121.289 111.235 121.298V122C111.131 122.009 111.048 122.013 110.988 122.013C110.927 122.022 110.871 122.026 110.819 122.026C110.645 122.009 110.494 121.939 110.364 121.818C110.242 121.697 110.177 121.549 110.169 121.376L110.143 120.466C109.848 120.986 109.445 121.393 108.934 121.688C108.431 121.983 107.885 122.13 107.296 122.13C106.585 122.13 106.048 121.883 105.684 121.389C105.32 120.895 105.138 120.167 105.138 119.205ZM112.921 122V115.227H113.805V122H112.921ZM112.921 113.81V112.51H113.805V113.81H112.921ZM119.002 121.675C118.933 121.701 118.825 121.749 118.677 121.818C118.53 121.887 118.352 121.948 118.144 122C117.936 122.052 117.711 122.078 117.468 122.078C117.217 122.078 116.979 122.03 116.753 121.935C116.537 121.84 116.363 121.697 116.233 121.506C116.103 121.307 116.038 121.064 116.038 120.778V115.929H115.102V115.227H116.038V112.939H116.922V115.227H118.482V115.929H116.922V120.531C116.94 120.774 117.026 120.956 117.182 121.077C117.347 121.198 117.533 121.259 117.741 121.259C117.984 121.259 118.205 121.22 118.404 121.142C118.604 121.055 118.725 120.995 118.768 120.96L119.002 121.675ZM119.561 120.05C119.561 119.625 119.682 119.261 119.925 118.958C120.168 118.646 120.501 118.408 120.926 118.243C121.359 118.07 121.858 117.983 122.421 117.983C122.75 117.983 123.093 118.009 123.448 118.061C123.803 118.113 124.12 118.191 124.397 118.295V117.723C124.397 117.151 124.228 116.696 123.89 116.358C123.552 116.02 123.084 115.851 122.486 115.851C122.122 115.851 121.762 115.92 121.407 116.059C121.06 116.189 120.696 116.384 120.315 116.644L119.977 116.02C120.419 115.717 120.852 115.491 121.277 115.344C121.702 115.188 122.135 115.11 122.577 115.11C123.409 115.11 124.068 115.348 124.553 115.825C125.038 116.302 125.281 116.96 125.281 117.801V120.934C125.281 121.055 125.307 121.146 125.359 121.207C125.411 121.259 125.493 121.289 125.606 121.298V122C125.511 122.009 125.428 122.017 125.359 122.026C125.29 122.035 125.238 122.035 125.203 122.026C124.986 122.017 124.822 121.948 124.709 121.818C124.596 121.688 124.536 121.549 124.527 121.402L124.514 120.908C124.211 121.298 123.816 121.601 123.331 121.818C122.846 122.026 122.352 122.13 121.849 122.13C121.416 122.13 121.021 122.039 120.666 121.857C120.319 121.666 120.046 121.415 119.847 121.103C119.656 120.782 119.561 120.431 119.561 120.05ZM124.098 120.57C124.193 120.449 124.267 120.332 124.319 120.219C124.371 120.106 124.397 120.007 124.397 119.92V118.932C124.102 118.819 123.795 118.733 123.474 118.672C123.162 118.611 122.846 118.581 122.525 118.581C121.892 118.581 121.381 118.707 120.991 118.958C120.601 119.209 120.406 119.552 120.406 119.985C120.406 120.236 120.471 120.475 120.601 120.7C120.731 120.917 120.922 121.099 121.173 121.246C121.424 121.385 121.719 121.454 122.057 121.454C122.482 121.454 122.876 121.372 123.24 121.207C123.613 121.042 123.899 120.83 124.098 120.57ZM130.506 122.13C129.977 122.13 129.487 121.996 129.037 121.727C128.586 121.45 128.235 121.103 127.984 120.687V122H127.191V112.51H128.075V116.644C128.378 116.185 128.742 115.816 129.167 115.539C129.591 115.253 130.085 115.11 130.649 115.11C131.125 115.11 131.55 115.21 131.923 115.409C132.304 115.608 132.629 115.877 132.898 116.215C133.166 116.544 133.37 116.921 133.509 117.346C133.647 117.762 133.717 118.191 133.717 118.633C133.717 119.11 133.634 119.556 133.47 119.972C133.314 120.388 133.088 120.761 132.794 121.09C132.499 121.411 132.157 121.666 131.767 121.857C131.385 122.039 130.965 122.13 130.506 122.13ZM130.298 121.35C130.662 121.35 131 121.276 131.312 121.129C131.624 120.982 131.892 120.778 132.118 120.518C132.343 120.258 132.516 119.968 132.638 119.647C132.759 119.318 132.82 118.98 132.82 118.633C132.82 118.156 132.716 117.71 132.508 117.294C132.308 116.869 132.027 116.531 131.663 116.28C131.307 116.02 130.887 115.89 130.402 115.89C130.055 115.89 129.73 115.968 129.427 116.124C129.132 116.28 128.868 116.488 128.634 116.748C128.408 116.999 128.222 117.277 128.075 117.58V119.686C128.109 119.92 128.2 120.141 128.348 120.349C128.495 120.548 128.677 120.722 128.894 120.869C129.119 121.016 129.353 121.133 129.596 121.22C129.838 121.307 130.072 121.35 130.298 121.35ZM135.214 122V115.227H136.098V122H135.214ZM135.214 113.81V112.51H136.098V113.81H135.214ZM138.084 112.51H138.968V120.466C138.968 120.804 139.029 121.025 139.15 121.129C139.272 121.233 139.419 121.285 139.592 121.285C139.748 121.285 139.904 121.268 140.06 121.233C140.216 121.198 140.351 121.164 140.463 121.129L140.619 121.844C140.455 121.913 140.251 121.97 140.008 122.013C139.774 122.056 139.571 122.078 139.397 122.078C138.999 122.078 138.678 121.961 138.435 121.727C138.201 121.493 138.084 121.172 138.084 120.765V112.51ZM141.587 122V115.227H142.471V122H141.587ZM141.587 113.81V112.51H142.471V113.81H141.587ZM147.668 121.675C147.599 121.701 147.491 121.749 147.343 121.818C147.196 121.887 147.018 121.948 146.81 122C146.602 122.052 146.377 122.078 146.134 122.078C145.883 122.078 145.645 122.03 145.419 121.935C145.203 121.84 145.029 121.697 144.899 121.506C144.769 121.307 144.704 121.064 144.704 120.778V115.929H143.768V115.227H144.704V112.939H145.588V115.227H147.148V115.929H145.588V120.531C145.606 120.774 145.692 120.956 145.848 121.077C146.013 121.198 146.199 121.259 146.407 121.259C146.65 121.259 146.871 121.22 147.07 121.142C147.27 121.055 147.391 120.995 147.434 120.96L147.668 121.675ZM149.163 124.08C149.284 124.089 149.401 124.093 149.514 124.093C149.627 124.102 149.709 124.097 149.761 124.08C149.865 124.063 149.965 124.002 150.06 123.898C150.155 123.794 150.268 123.595 150.398 123.3C150.528 123.005 150.71 122.572 150.944 122L147.993 115.227H148.929L151.412 121.09L153.7 115.227H154.584L151.074 123.963C151.013 124.128 150.922 124.279 150.801 124.418C150.68 124.565 150.528 124.678 150.346 124.756C150.173 124.843 149.956 124.89 149.696 124.899C149.618 124.908 149.536 124.908 149.449 124.899C149.371 124.899 149.276 124.89 149.163 124.873V124.08ZM22.429 136.05C22.429 135.625 22.5503 135.261 22.793 134.958C23.0357 134.646 23.3693 134.408 23.794 134.243C24.2273 134.07 24.7257 133.983 25.289 133.983C25.6183 133.983 25.9607 134.009 26.316 134.061C26.6713 134.113 26.9877 134.191 27.265 134.295V133.723C27.265 133.151 27.096 132.696 26.758 132.358C26.42 132.02 25.952 131.851 25.354 131.851C24.99 131.851 24.6303 131.92 24.275 132.059C23.9283 132.189 23.5643 132.384 23.183 132.644L22.845 132.02C23.287 131.717 23.7203 131.491 24.145 131.344C24.5697 131.188 25.003 131.11 25.445 131.11C26.277 131.11 26.9357 131.348 27.421 131.825C27.9063 132.302 28.149 132.96 28.149 133.801V136.934C28.149 137.055 28.175 137.146 28.227 137.207C28.279 137.259 28.3613 137.289 28.474 137.298V138C28.3787 138.009 28.2963 138.017 28.227 138.026C28.1577 138.035 28.1057 138.035 28.071 138.026C27.8543 138.017 27.6897 137.948 27.577 137.818C27.4643 137.688 27.4037 137.549 27.395 137.402L27.382 136.908C27.0787 137.298 26.6843 137.601 26.199 137.818C25.7137 138.026 25.2197 138.13 24.717 138.13C24.2837 138.13 23.8893 138.039 23.534 137.857C23.1873 137.666 22.9143 137.415 22.715 137.103C22.5243 136.782 22.429 136.431 22.429 136.05ZM26.966 136.57C27.0613 136.449 27.135 136.332 27.187 136.219C27.239 136.106 27.265 136.007 27.265 135.92V134.932C26.9703 134.819 26.6627 134.733 26.342 134.672C26.03 134.611 25.7137 134.581 25.393 134.581C24.7603 134.581 24.249 134.707 23.859 134.958C23.469 135.209 23.274 135.552 23.274 135.985C23.274 136.236 23.339 136.475 23.469 136.7C23.599 136.917 23.7897 137.099 24.041 137.246C24.2923 137.385 24.587 137.454 24.925 137.454C25.3497 137.454 25.744 137.372 26.108 137.207C26.4807 137.042 26.7667 136.83 26.966 136.57ZM35.753 138H34.869V134.217C34.869 133.42 34.752 132.839 34.518 132.475C34.284 132.102 33.9157 131.916 33.413 131.916C33.0663 131.916 32.724 132.003 32.386 132.176C32.048 132.341 31.749 132.57 31.489 132.865C31.2377 133.151 31.0557 133.48 30.943 133.853V138H30.059V131.227H30.865V132.761C31.047 132.432 31.2853 132.146 31.58 131.903C31.8747 131.652 32.2083 131.457 32.581 131.318C32.9537 131.179 33.3393 131.11 33.738 131.11C34.1107 131.11 34.427 131.179 34.687 131.318C34.947 131.457 35.155 131.656 35.311 131.916C35.467 132.167 35.5797 132.475 35.649 132.839C35.7183 133.194 35.753 133.593 35.753 134.035V138ZM37.1831 134.633C37.1831 133.992 37.3131 133.407 37.5731 132.878C37.8418 132.341 38.2101 131.912 38.6781 131.591C39.1461 131.27 39.6791 131.11 40.2771 131.11C40.8404 131.11 41.3431 131.262 41.7851 131.565C42.2358 131.86 42.5868 132.219 42.8381 132.644V128.51H43.7221V136.934C43.7221 137.055 43.7481 137.146 43.8001 137.207C43.8521 137.259 43.9301 137.289 44.0341 137.298V138C43.8608 138.026 43.7264 138.035 43.6311 138.026C43.4491 138.017 43.2888 137.944 43.1501 137.805C43.0114 137.666 42.9421 137.515 42.9421 137.35V136.687C42.6734 137.129 42.3094 137.48 41.8501 137.74C41.3908 138 40.9141 138.13 40.4201 138.13C39.9521 138.13 39.5188 138.035 39.1201 137.844C38.7301 137.653 38.3878 137.393 38.0931 137.064C37.8071 136.735 37.5818 136.362 37.4171 135.946C37.2611 135.521 37.1831 135.084 37.1831 134.633ZM42.8381 135.673V133.58C42.7254 133.268 42.5434 132.986 42.2921 132.735C42.0408 132.475 41.7548 132.271 41.4341 132.124C41.1221 131.968 40.8101 131.89 40.4981 131.89C40.1341 131.89 39.8048 131.968 39.5101 132.124C39.2154 132.271 38.9598 132.475 38.7431 132.735C38.5351 132.995 38.3748 133.29 38.2621 133.619C38.1494 133.948 38.0931 134.286 38.0931 134.633C38.0931 134.997 38.1538 135.344 38.2751 135.673C38.4051 136.002 38.5871 136.297 38.8211 136.557C39.0551 136.808 39.3238 137.003 39.6271 137.142C39.9304 137.281 40.2598 137.35 40.6151 137.35C40.8404 137.35 41.0744 137.307 41.3171 137.22C41.5598 137.133 41.7894 137.016 42.0061 136.869C42.2314 136.713 42.4178 136.531 42.5651 136.323C42.7124 136.115 42.8034 135.898 42.8381 135.673ZM25.9 154.13C25.4147 154.13 24.964 154.039 24.548 153.857C24.132 153.666 23.7723 153.411 23.469 153.09C23.1657 152.761 22.9273 152.384 22.754 151.959C22.5893 151.534 22.507 151.079 22.507 150.594C22.507 149.961 22.65 149.381 22.936 148.852C23.2307 148.323 23.6337 147.903 24.145 147.591C24.6563 147.27 25.237 147.11 25.887 147.11C26.5543 147.11 27.135 147.27 27.629 147.591C28.1317 147.912 28.526 148.336 28.812 148.865C29.098 149.385 29.241 149.957 29.241 150.581C29.241 150.65 29.241 150.72 29.241 150.789C29.241 150.85 29.2367 150.897 29.228 150.932H23.43C23.4733 151.417 23.6077 151.851 23.833 152.232C24.067 152.605 24.366 152.904 24.73 153.129C25.1027 153.346 25.5057 153.454 25.939 153.454C26.381 153.454 26.797 153.341 27.187 153.116C27.5857 152.891 27.863 152.596 28.019 152.232L28.786 152.44C28.6473 152.761 28.435 153.051 28.149 153.311C27.863 153.571 27.525 153.775 27.135 153.922C26.7537 154.061 26.342 154.13 25.9 154.13ZM23.404 150.295H28.409C28.3743 149.801 28.24 149.368 28.006 148.995C27.7807 148.622 27.4817 148.332 27.109 148.124C26.745 147.907 26.342 147.799 25.9 147.799C25.458 147.799 25.055 147.907 24.691 148.124C24.327 148.332 24.028 148.627 23.794 149.008C23.5687 149.381 23.4387 149.81 23.404 150.295ZM30.8537 154V147.929H29.9177V147.227H30.8537V147.149C30.8537 146.768 30.9317 146.404 31.0877 146.057C31.2524 145.71 31.4907 145.429 31.8027 145.212C32.1234 144.995 32.5134 144.887 32.9727 144.887C33.276 144.887 33.549 144.926 33.7917 145.004C34.043 145.073 34.2684 145.169 34.4677 145.29L34.1817 145.953C34.017 145.84 33.8437 145.762 33.6617 145.719C33.4884 145.676 33.3107 145.654 33.1287 145.654C32.886 145.654 32.6737 145.702 32.4917 145.797C32.3184 145.884 32.1754 146.001 32.0627 146.148C31.95 146.295 31.8677 146.456 31.8157 146.629C31.7637 146.802 31.7377 146.967 31.7377 147.123V147.227H33.6097V147.929H31.7377V154H30.8537ZM33.8437 147.929H32.9077V147.227H33.8437V147.045C33.8437 146.724 33.8914 146.408 33.9867 146.096C34.082 145.784 34.225 145.498 34.4157 145.238C34.615 144.978 34.862 144.77 35.1567 144.614C35.46 144.458 35.8197 144.38 36.2357 144.38C36.5564 144.38 36.8467 144.415 37.1067 144.484C37.3667 144.553 37.5877 144.636 37.7697 144.731C37.9604 144.826 38.1034 144.913 38.1987 144.991L37.7957 145.628C37.657 145.498 37.449 145.39 37.1717 145.303C36.903 145.208 36.6084 145.16 36.2877 145.16C35.9237 145.16 35.6247 145.255 35.3907 145.446C35.1654 145.628 34.9964 145.862 34.8837 146.148C34.7797 146.434 34.7277 146.724 34.7277 147.019V147.227H38.1207V154H37.2367V147.929H34.7277V154H33.8437V147.929ZM43.0136 154.13C42.5196 154.13 42.0646 154.039 41.6486 153.857C41.2413 153.666 40.8816 153.406 40.5696 153.077C40.2663 152.748 40.0279 152.371 39.8546 151.946C39.6899 151.521 39.6076 151.071 39.6076 150.594C39.6076 149.953 39.7506 149.368 40.0366 148.839C40.3226 148.31 40.7213 147.89 41.2326 147.578C41.7439 147.266 42.3333 147.11 43.0006 147.11C43.6333 147.11 44.1923 147.257 44.6776 147.552C45.1629 147.838 45.5226 148.228 45.7566 148.722L44.8986 148.995C44.7079 148.648 44.4393 148.38 44.0926 148.189C43.7546 147.99 43.3776 147.89 42.9616 147.89C42.5109 147.89 42.0993 148.007 41.7266 148.241C41.3539 148.475 41.0549 148.796 40.8296 149.203C40.6129 149.61 40.5046 150.074 40.5046 150.594C40.5046 151.105 40.6173 151.569 40.8426 151.985C41.0679 152.401 41.3669 152.735 41.7396 152.986C42.1123 153.229 42.5239 153.35 42.9746 153.35C43.2693 153.35 43.5509 153.298 43.8196 153.194C44.0969 153.09 44.3353 152.951 44.5346 152.778C44.7426 152.596 44.8813 152.401 44.9506 152.193L45.8216 152.453C45.7003 152.774 45.4966 153.064 45.2106 153.324C44.9333 153.575 44.6039 153.775 44.2226 153.922C43.8499 154.061 43.4469 154.13 43.0136 154.13ZM47.2104 154V147.227H48.0944V154H47.2104ZM47.2104 145.81V144.51H48.0944V145.81H47.2104ZM52.9664 154.13C52.4811 154.13 52.0304 154.039 51.6144 153.857C51.1984 153.666 50.8387 153.411 50.5354 153.09C50.2321 152.761 49.9937 152.384 49.8204 151.959C49.6557 151.534 49.5734 151.079 49.5734 150.594C49.5734 149.961 49.7164 149.381 50.0024 148.852C50.2971 148.323 50.7001 147.903 51.2114 147.591C51.7227 147.27 52.3034 147.11 52.9534 147.11C53.6207 147.11 54.2014 147.27 54.6954 147.591C55.1981 147.912 55.5924 148.336 55.8784 148.865C56.1644 149.385 56.3074 149.957 56.3074 150.581C56.3074 150.65 56.3074 150.72 56.3074 150.789C56.3074 150.85 56.3031 150.897 56.2944 150.932H50.4964C50.5397 151.417 50.6741 151.851 50.8994 152.232C51.1334 152.605 51.4324 152.904 51.7964 153.129C52.1691 153.346 52.5721 153.454 53.0054 153.454C53.4474 153.454 53.8634 153.341 54.2534 153.116C54.6521 152.891 54.9294 152.596 55.0854 152.232L55.8524 152.44C55.7137 152.761 55.5014 153.051 55.2154 153.311C54.9294 153.571 54.5914 153.775 54.2014 153.922C53.8201 154.061 53.4084 154.13 52.9664 154.13ZM50.4704 150.295H55.4754C55.4407 149.801 55.3064 149.368 55.0724 148.995C54.8471 148.622 54.5481 148.332 54.1754 148.124C53.8114 147.907 53.4084 147.799 52.9664 147.799C52.5244 147.799 52.1214 147.907 51.7574 148.124C51.3934 148.332 51.0944 148.627 50.8604 149.008C50.6351 149.381 50.5051 149.81 50.4704 150.295ZM63.3653 154H62.4813V150.217C62.4813 149.42 62.3643 148.839 62.1303 148.475C61.8963 148.102 61.528 147.916 61.0253 147.916C60.6786 147.916 60.3363 148.003 59.9983 148.176C59.6603 148.341 59.3613 148.57 59.1013 148.865C58.85 149.151 58.668 149.48 58.5553 149.853V154H57.6713V147.227H58.4773V148.761C58.6593 148.432 58.8976 148.146 59.1923 147.903C59.487 147.652 59.8206 147.457 60.1933 147.318C60.566 147.179 60.9516 147.11 61.3503 147.11C61.723 147.11 62.0393 147.179 62.2993 147.318C62.5593 147.457 62.7673 147.656 62.9233 147.916C63.0793 148.167 63.192 148.475 63.2613 148.839C63.3306 149.194 63.3653 149.593 63.3653 150.035V154ZM68.1884 154.13C67.6944 154.13 67.2394 154.039 66.8234 153.857C66.4161 153.666 66.0564 153.406 65.7444 153.077C65.4411 152.748 65.2027 152.371 65.0294 151.946C64.8647 151.521 64.7824 151.071 64.7824 150.594C64.7824 149.953 64.9254 149.368 65.2114 148.839C65.4974 148.31 65.8961 147.89 66.4074 147.578C66.9187 147.266 67.5081 147.11 68.1754 147.11C68.8081 147.11 69.3671 147.257 69.8524 147.552C70.3377 147.838 70.6974 148.228 70.9314 148.722L70.0734 148.995C69.8827 148.648 69.6141 148.38 69.2674 148.189C68.9294 147.99 68.5524 147.89 68.1364 147.89C67.6857 147.89 67.2741 148.007 66.9014 148.241C66.5287 148.475 66.2297 148.796 66.0044 149.203C65.7877 149.61 65.6794 150.074 65.6794 150.594C65.6794 151.105 65.7921 151.569 66.0174 151.985C66.2427 152.401 66.5417 152.735 66.9144 152.986C67.2871 153.229 67.6987 153.35 68.1494 153.35C68.4441 153.35 68.7257 153.298 68.9944 153.194C69.2717 153.09 69.5101 152.951 69.7094 152.778C69.9174 152.596 70.0561 152.401 70.1254 152.193L70.9964 152.453C70.8751 152.774 70.6714 153.064 70.3854 153.324C70.1081 153.575 69.7787 153.775 69.3974 153.922C69.0247 154.061 68.6217 154.13 68.1884 154.13ZM72.6736 156.08C72.7949 156.089 72.9119 156.093 73.0246 156.093C73.1373 156.102 73.2196 156.097 73.2716 156.08C73.3756 156.063 73.4753 156.002 73.5706 155.898C73.6659 155.794 73.7786 155.595 73.9086 155.3C74.0386 155.005 74.2206 154.572 74.4546 154L71.5036 147.227H72.4396L74.9226 153.09L77.2106 147.227H78.0946L74.5846 155.963C74.5239 156.128 74.4329 156.279 74.3116 156.418C74.1903 156.565 74.0386 156.678 73.8566 156.756C73.6833 156.843 73.4666 156.89 73.2066 156.899C73.1286 156.908 73.0463 156.908 72.9596 156.899C72.8816 156.899 72.7863 156.89 72.6736 156.873V156.08ZM78.2093 154V152.726H78.9763V154H78.2093Z" fill="#D9D5D5"/>
<path d="M22.5 238C22.5 228.335 30.335 220.5 40 220.5H150C159.665 220.5 167.5 228.335 167.5 238C167.5 247.665 159.665 255.5 150 255.5H40C30.335 255.5 22.5 247.665 22.5 238Z" stroke="white"/>
<path d="M54.105 243V233.77H55.275V243H54.105ZM57.248 236.487V233.666H58.236V236.487H57.248ZM70.2604 243H69.1164V239.204C69.1164 238.493 68.9994 237.969 68.7654 237.631C68.5401 237.293 68.2021 237.124 67.7514 237.124C67.2921 237.124 66.8761 237.293 66.5034 237.631C66.1308 237.96 65.8664 238.389 65.7104 238.918V243H64.5664V239.204C64.5664 238.485 64.4538 237.96 64.2284 237.631C64.0031 237.293 63.6651 237.124 63.2144 237.124C62.7638 237.124 62.3478 237.289 61.9664 237.618C61.5938 237.939 61.3294 238.368 61.1734 238.905V243H60.0294V236.214H61.0694V237.67C61.3468 237.167 61.7064 236.782 62.1484 236.513C62.5904 236.236 63.0888 236.097 63.6434 236.097C64.2068 236.097 64.6574 236.253 64.9954 236.565C65.3334 236.868 65.5414 237.263 65.6194 237.748C65.9228 237.211 66.2911 236.803 66.7244 236.526C67.1578 236.24 67.6518 236.097 68.2064 236.097C68.5964 236.097 68.9214 236.171 69.1814 236.318C69.4501 236.457 69.6624 236.656 69.8184 236.916C69.9744 237.167 70.0871 237.466 70.1564 237.813C70.2258 238.16 70.2604 238.537 70.2604 238.944V243ZM75.3273 243V236.214H76.4713V243H75.3273ZM75.3273 234.94V233.51H76.4713V234.94H75.3273ZM84.2124 243H83.0684V239.204C83.0684 238.485 82.9557 237.96 82.7304 237.631C82.5137 237.293 82.1801 237.124 81.7294 237.124C81.4174 237.124 81.1054 237.202 80.7934 237.358C80.4901 237.514 80.2171 237.726 79.9744 237.995C79.7404 238.255 79.5714 238.558 79.4674 238.905V243H78.3234V236.214H79.3634V237.67C79.5454 237.349 79.7794 237.072 80.0654 236.838C80.3514 236.604 80.6764 236.422 81.0404 236.292C81.4044 236.162 81.7857 236.097 82.1844 236.097C82.5744 236.097 82.8994 236.171 83.1594 236.318C83.4281 236.457 83.6361 236.656 83.7834 236.916C83.9394 237.167 84.0477 237.466 84.1084 237.813C84.1777 238.16 84.2124 238.537 84.2124 238.944V243ZM89.4379 242.662C89.3425 242.705 89.2125 242.762 89.0479 242.831C88.8832 242.9 88.6925 242.961 88.4759 243.013C88.2592 243.065 88.0295 243.091 87.7869 243.091C87.5095 243.091 87.2539 243.043 87.0199 242.948C86.7859 242.844 86.5995 242.688 86.4609 242.48C86.3222 242.263 86.2529 241.995 86.2529 241.674V237.111H85.3299V236.214H86.2529V233.952H87.3969V236.214H88.9179V237.111H87.3969V241.323C87.4142 241.566 87.4965 241.748 87.6439 241.869C87.7912 241.982 87.9645 242.038 88.1639 242.038C88.3892 242.038 88.5972 241.999 88.7879 241.921C88.9785 241.843 89.1042 241.787 89.1649 241.752L89.4379 242.662ZM93.4123 243.13C92.901 243.13 92.433 243.039 92.0083 242.857C91.5923 242.666 91.2283 242.411 90.9163 242.09C90.613 241.761 90.3747 241.384 90.2013 240.959C90.0367 240.534 89.9543 240.084 89.9543 239.607C89.9543 238.966 90.1017 238.381 90.3963 237.852C90.691 237.323 91.0983 236.899 91.6183 236.578C92.147 236.257 92.7493 236.097 93.4253 236.097C94.11 236.097 94.7037 236.262 95.2063 236.591C95.7177 236.912 96.112 237.336 96.3893 237.865C96.6753 238.385 96.8183 238.948 96.8183 239.555C96.8183 239.642 96.814 239.728 96.8053 239.815C96.8053 239.893 96.801 239.954 96.7923 239.997H91.1633C91.198 240.439 91.3193 240.833 91.5273 241.18C91.744 241.518 92.0213 241.787 92.3593 241.986C92.6973 242.177 93.0613 242.272 93.4513 242.272C93.8673 242.272 94.2573 242.168 94.6213 241.96C94.994 241.752 95.2497 241.479 95.3883 241.141L96.3763 241.414C96.229 241.743 96.008 242.038 95.7133 242.298C95.4273 242.558 95.085 242.762 94.6863 242.909C94.2963 243.056 93.8717 243.13 93.4123 243.13ZM91.1243 239.204H95.7523C95.7177 238.762 95.592 238.372 95.3753 238.034C95.1587 237.696 94.8813 237.432 94.5433 237.241C94.2053 237.05 93.8327 236.955 93.4253 236.955C93.0267 236.955 92.6583 237.05 92.3203 237.241C91.9823 237.432 91.705 237.696 91.4883 238.034C91.2803 238.372 91.159 238.762 91.1243 239.204ZM101.678 237.215C101.106 237.224 100.599 237.371 100.157 237.657C99.7237 237.934 99.416 238.32 99.234 238.814V243H98.09V236.214H99.156V237.787C99.39 237.319 99.6977 236.942 100.079 236.656C100.469 236.361 100.876 236.197 101.301 236.162C101.388 236.162 101.461 236.162 101.522 236.162C101.583 236.162 101.635 236.166 101.678 236.175V237.215ZM105.651 243.13C105.139 243.13 104.671 243.039 104.247 242.857C103.831 242.666 103.467 242.411 103.155 242.09C102.851 241.761 102.613 241.384 102.44 240.959C102.275 240.534 102.193 240.084 102.193 239.607C102.193 238.966 102.34 238.381 102.635 237.852C102.929 237.323 103.337 236.899 103.857 236.578C104.385 236.257 104.988 236.097 105.664 236.097C106.348 236.097 106.942 236.262 107.445 236.591C107.956 236.912 108.35 237.336 108.628 237.865C108.914 238.385 109.057 238.948 109.057 239.555C109.057 239.642 109.052 239.728 109.044 239.815C109.044 239.893 109.039 239.954 109.031 239.997H103.402C103.436 240.439 103.558 240.833 103.766 241.18C103.982 241.518 104.26 241.787 104.598 241.986C104.936 242.177 105.3 242.272 105.69 242.272C106.106 242.272 106.496 242.168 106.86 241.96C107.232 241.752 107.488 241.479 107.627 241.141L108.615 241.414C108.467 241.743 108.246 242.038 107.952 242.298C107.666 242.558 107.323 242.762 106.925 242.909C106.535 243.056 106.11 243.13 105.651 243.13ZM103.363 239.204H107.991C107.956 238.762 107.83 238.372 107.614 238.034C107.397 237.696 107.12 237.432 106.782 237.241C106.444 237.05 106.071 236.955 105.664 236.955C105.265 236.955 104.897 237.05 104.559 237.241C104.221 237.432 103.943 237.696 103.727 238.034C103.519 238.372 103.397 238.762 103.363 239.204ZM112.655 243.13C112.092 243.13 111.563 243.039 111.069 242.857C110.575 242.666 110.151 242.385 109.795 242.012L110.237 241.206C110.627 241.57 111.017 241.83 111.407 241.986C111.797 242.142 112.196 242.22 112.603 242.22C113.071 242.22 113.453 242.133 113.747 241.96C114.042 241.778 114.189 241.514 114.189 241.167C114.189 240.916 114.111 240.729 113.955 240.608C113.808 240.487 113.596 240.387 113.318 240.309C113.041 240.222 112.712 240.127 112.33 240.023C111.862 239.884 111.468 239.737 111.147 239.581C110.827 239.425 110.584 239.23 110.419 238.996C110.255 238.762 110.172 238.467 110.172 238.112C110.172 237.679 110.285 237.315 110.51 237.02C110.736 236.717 111.043 236.487 111.433 236.331C111.832 236.175 112.283 236.097 112.785 236.097C113.288 236.097 113.743 236.175 114.15 236.331C114.558 236.487 114.909 236.717 115.203 237.02L114.683 237.813C114.415 237.536 114.12 237.332 113.799 237.202C113.479 237.063 113.119 236.994 112.72 236.994C112.486 236.994 112.257 237.024 112.031 237.085C111.806 237.137 111.62 237.237 111.472 237.384C111.325 237.523 111.251 237.722 111.251 237.982C111.251 238.199 111.308 238.372 111.42 238.502C111.542 238.623 111.715 238.727 111.94 238.814C112.174 238.901 112.456 238.996 112.785 239.1C113.297 239.247 113.739 239.395 114.111 239.542C114.493 239.689 114.787 239.88 114.995 240.114C115.203 240.348 115.307 240.673 115.307 241.089C115.307 241.73 115.065 242.233 114.579 242.597C114.094 242.952 113.453 243.13 112.655 243.13ZM120.186 242.662C120.091 242.705 119.961 242.762 119.796 242.831C119.631 242.9 119.441 242.961 119.224 243.013C119.007 243.065 118.778 243.091 118.535 243.091C118.258 243.091 118.002 243.043 117.768 242.948C117.534 242.844 117.348 242.688 117.209 242.48C117.07 242.263 117.001 241.995 117.001 241.674V237.111H116.078V236.214H117.001V233.952H118.145V236.214H119.666V237.111H118.145V241.323C118.162 241.566 118.245 241.748 118.392 241.869C118.539 241.982 118.713 242.038 118.912 242.038C119.137 242.038 119.345 241.999 119.536 241.921C119.727 241.843 119.852 241.787 119.913 241.752L120.186 242.662ZM124.16 243.13C123.649 243.13 123.181 243.039 122.756 242.857C122.34 242.666 121.976 242.411 121.664 242.09C121.361 241.761 121.123 241.384 120.949 240.959C120.785 240.534 120.702 240.084 120.702 239.607C120.702 238.966 120.85 238.381 121.144 237.852C121.439 237.323 121.846 236.899 122.366 236.578C122.895 236.257 123.497 236.097 124.173 236.097C124.858 236.097 125.452 236.262 125.954 236.591C126.466 236.912 126.86 237.336 127.137 237.865C127.423 238.385 127.566 238.948 127.566 239.555C127.566 239.642 127.562 239.728 127.553 239.815C127.553 239.893 127.549 239.954 127.54 239.997H121.911C121.946 240.439 122.067 240.833 122.275 241.18C122.492 241.518 122.769 241.787 123.107 241.986C123.445 242.177 123.809 242.272 124.199 242.272C124.615 242.272 125.005 242.168 125.369 241.96C125.742 241.752 125.998 241.479 126.136 241.141L127.124 241.414C126.977 241.743 126.756 242.038 126.461 242.298C126.175 242.558 125.833 242.762 125.434 242.909C125.044 243.056 124.62 243.13 124.16 243.13ZM121.872 239.204H126.5C126.466 238.762 126.34 238.372 126.123 238.034C125.907 237.696 125.629 237.432 125.291 237.241C124.953 237.05 124.581 236.955 124.173 236.955C123.775 236.955 123.406 237.05 123.068 237.241C122.73 237.432 122.453 237.696 122.236 238.034C122.028 238.372 121.907 238.762 121.872 239.204ZM128.396 239.62C128.396 238.979 128.526 238.394 128.786 237.865C129.055 237.328 129.419 236.899 129.878 236.578C130.346 236.257 130.879 236.097 131.477 236.097C132.023 236.097 132.513 236.24 132.946 236.526C133.379 236.812 133.717 237.159 133.96 237.566V233.51H135.104V241.7C135.104 241.839 135.13 241.943 135.182 242.012C135.243 242.073 135.338 242.107 135.468 242.116V243C135.251 243.035 135.082 243.052 134.961 243.052C134.736 243.052 134.536 242.974 134.363 242.818C134.198 242.662 134.116 242.489 134.116 242.298V241.726C133.847 242.159 133.488 242.502 133.037 242.753C132.586 243.004 132.118 243.13 131.633 243.13C131.165 243.13 130.732 243.039 130.333 242.857C129.943 242.666 129.601 242.406 129.306 242.077C129.02 241.748 128.795 241.375 128.63 240.959C128.474 240.534 128.396 240.088 128.396 239.62ZM133.96 240.621V238.671C133.856 238.376 133.687 238.112 133.453 237.878C133.219 237.635 132.955 237.445 132.66 237.306C132.374 237.159 132.088 237.085 131.802 237.085C131.464 237.085 131.156 237.159 130.879 237.306C130.61 237.445 130.376 237.635 130.177 237.878C129.986 238.112 129.839 238.381 129.735 238.684C129.631 238.987 129.579 239.304 129.579 239.633C129.579 239.971 129.635 240.292 129.748 240.595C129.869 240.898 130.034 241.167 130.242 241.401C130.459 241.635 130.706 241.817 130.983 241.947C131.269 242.077 131.577 242.142 131.906 242.142C132.114 242.142 132.326 242.103 132.543 242.025C132.768 241.947 132.981 241.839 133.18 241.7C133.379 241.561 133.548 241.401 133.687 241.219C133.826 241.028 133.917 240.829 133.96 240.621Z" fill="white"/>
</svg>
